<?xml version="1.0" encoding="UTF-8"?>
<svg id="Layer_1" data-name="Layer 1" xmlns="http://www.w3.org/2000/svg" viewBox="0 0 1120.46 1120.46">
  <defs>
    <style>
      .fight-cls-1 {
        fill: #60170b;
      }

      .fight-cls-1, .fight-cls-2, .fight-cls-3, .fight-cls-4, .fight-cls-5, .fight-cls-6, .fight-cls-7, .fight-cls-8, .fight-cls-9, .fight-cls-10, .fight-cls-11, .fight-cls-12, .fight-cls-13, .fight-cls-14, .fight-cls-15, .fight-cls-16, .fight-cls-17, .fight-cls-18, .fight-cls-19, .fight-cls-20, .fight-cls-21, .fight-cls-22, .fight-cls-23, .fight-cls-24, .fight-cls-25, .fight-cls-26, .fight-cls-27, .fight-cls-28, .fight-cls-29, .fight-cls-30, .fight-cls-31, .fight-cls-32, .fight-cls-33, .fight-cls-34, .fight-cls-35, .fight-cls-36, .fight-cls-37, .fight-cls-38 {
        stroke-width: 0px;
      }

      .fight-cls-2 {
        fill: #78121f;
      }

      .fight-cls-3 {
        fill: #2c4c59;
      }

      .fight-cls-4 {
        fill: #2b221b;
      }

      .fight-cls-5 {
        fill: #97261a;
      }

      .fight-cls-6 {
        fill: #343e4d;
      }

      .fight-cls-7 {
        fill: #3b2219;
      }

      .fight-cls-8 {
        fill: #3f3e4d;
      }

      .fight-cls-9 {
        fill: #36191a;
      }

      .fight-cls-10 {
        fill: #437f93;
      }

      .fight-cls-11 {
        fill: #1d1e24;
      }

      .fight-cls-12 {
        fill: #1c6368;
      }

      .fight-cls-13 {
        fill: #0d5660;
      }

      .fight-cls-14 {
        fill: #141d17;
      }

      .fight-cls-15 {
        fill: #421b14;
      }

      .fight-cls-16 {
        fill: #201c13;
      }

      .fight-cls-17 {
        fill: #112b33;
      }

      .fight-cls-18 {
        fill: #103e5b;
      }

      .fight-cls-19 {
        fill: #13110f;
      }

      .fight-cls-20 {
        fill: #cc6d47;
      }

      .fight-cls-21 {
        fill: #dd8556;
      }

      .fight-cls-22 {
        fill: #dc373d;
      }

      .fight-cls-23 {
        fill: #c15843;
      }

      .fight-cls-24 {
        fill: #ce9a32;
      }

      .fight-cls-25 {
        fill: #93111f;
      }

      .fight-cls-26 {
        fill: #b91b2c;
      }

      .fight-cls-27 {
        fill: #9bcdda;
      }

      .fight-cls-28 {
        fill: #7f3d1f;
      }

      .fight-cls-29 {
        fill: #692e1f;
      }

      .fight-cls-30 {
        fill: #e4cb55;
      }

      .fight-cls-31 {
        fill: #fbfbfb;
      }

      .fight-cls-32 {
        fill: #f1a87f;
      }

      .fight-cls-33 {
        fill: #f1c9b2;
      }

      .fight-cls-34 {
        fill: #e99470;
      }

      .fight-cls-35 {
        fill: #e9e3e8;
      }

      .fight-cls-36 {
        fill: #0399cd;
      }

      .fight-cls-37 {
        fill: #045983;
      }

      .fight-cls-38 {
        fill: #006ea1;
      }
    </style>
  </defs>
  <g>
    <path class="fight-cls-29" d="m790.01,363.27c-.97-.34-3.03.22-4.38,0-.07-.41-1.66,1.92-4.38-7.11,8.94-12.81,19.46-46.63,8.75-59.09-13.04-15.18-37.42,7.4-36.11,21.34-15.46-19.82-37.27-34.52-63.46-31.73h-3.28c8.95.26,18.32-3.14,27.35.55,5.43-49.32-77.56-46.06-91.91-36.66,6.29-92.7,152.16-94.99,190.39-25.71,23.71,42.96,2.38,100.65-22.98,138.42Z"/>
    <g>
      <path class="fight-cls-12" d="m845.82,616.03c2.16,22.44,7.42,44.88,8.75,67.29,1.21,20.47-2.29,63.23,1.09,78.78,3.75,17.21,31.19,36.82,54.71,81.52-95.86-20.92-91.57-54.05-122.55-116.53-19.96-40.25-28.93-74.41-74.95-82.61q11.22,21.06,22.43,42.13c-9.91,14.52-18.31,29.98-30.64,42.67-11.98,12.33-29.14,21.11-29.54,22.98,5.57,9.14,21.78,61.8,19.7,66.75-3.24,7.7-40.55,5.7-51.43-26.26-16.84-49.47,12.23-105.34,14.22-119.27,1.26-8.84-3.2-18.71,0-24.62,4.84-10.42,18.25-21.38,19.7-31.73,55.42,10.71,113.67,14.06,168.51-1.09Z"/>
      <path class="fight-cls-12" d="m910.37,843.63c2.86,5.43,6.4,18.23,7.66,19.7q-18.6,12.58-37.2,25.17c-.96-1.43-13.96-6.08-29-18.6-49.64-41.35-72.26-103.35-107.23-155.38l-67.29,37.75c12.76,29.58,21.2,61.13,21.88,93.55l-40.49,27.35c-2.4-14.81-106.67-114.1-1.09-224.31-3.2,5.91,1.26,15.78,0,24.62-1.99,13.93-31.07,69.8-14.22,119.27,10.88,31.96,48.19,33.96,51.43,26.26,2.08-4.95-14.13-57.61-19.7-66.75.41-1.87,17.57-10.65,29.54-22.98,12.33-12.69,20.73-28.15,30.64-42.67q-11.22-21.06-22.43-42.13c46.02,8.2,55,42.36,74.95,82.61,30.98,62.48,26.69,95.61,122.55,116.53Z"/>
    </g>
    <g>
      <path class="fight-cls-30" d="m689.35,404.85l-12.04-1.64c-10.57,95.92,63.79,181.17,163.04,165.77.9,14.07,4.02,32.03,5.47,47.05-54.84,15.16-113.08,11.81-168.51,1.09l-4.38-2.74c-3.08-26.7-6.26-53.59-8.75-80.42-.64-6.83-2.75-14-3.28-20.79-.37-4.78,1.27-8.39-2.19-7.66q1.09-41.03,2.19-82.06c.91-8.55,2.48-17.77,0-26.26.1-.07.97-1.7,1.09-2.19,8.89,3.97,18.24,6.55,27.35,9.85Z"/>
      <g>
        <path class="fight-cls-24" d="m689.35,404.85c6.6,2.39,14.2,3.98,19.7,8.75-7.2,15.57-5.56,20.26,1.09,33.92,7.87,16.14,21.4,30.36,36.11,40.49.29.2,3.09-.18,6.57,2.19,1.22,6.1,6.29,9.77,9.85,14.22,18.8,23.54,47.51,48.02,76.59,22.98-.05,13.83.21,27.79,1.09,41.58-99.24,15.4-173.61-69.85-163.04-165.77l12.04,1.64Z"/>
        <path class="fight-cls-29" d="m839.25,523.03c-.25,1.35.16,2.97,0,4.38-29.09,25.04-57.8.56-76.59-22.98,20.18,17.13,51.72,40.86,76.59,18.6Z"/>
      </g>
    </g>
    <g>
      <path class="fight-cls-21" d="m687.16,286.68c-13.73-.39-11.91-2.13-12.58-2.19-15.06-1.37-21.03.21-4.92,6.57-8.74,8.48-19.16,15.08-17.51,29-25.97,4.37-21.82,21.35-21.88,43.22v2.19c-3.79-7.04-4.01-8.28-6.57-15.32-.32-.89-.82-1.29-1.09-2.19.73-3.88-.36-34.14-4.38-31.73-.27-19.15,2.5-54.04,1.09-62.37,1.98-.36,1.75-2.28,3.28-3.28,14.35-9.4,97.34-12.66,91.91,36.66-9.03-3.69-18.4-.29-27.35-.55Z"/>
      <g>
        <path class="fight-cls-23" d="m617.13,319.51c-.14-4.17,1.1-3.11,1.09-3.28-.29.18.84,3.24-1.09,3.28Z"/>
        <g>
          <path class="fight-cls-11" d="m687.16,286.68h3.28c-5.75,2.1-11.98,2.63-17.51,5.47-1.49.37-2.1-.63-3.28-1.09-16.11-6.35-10.13-7.94,4.92-6.57.68.06-1.15,1.8,12.58,2.19Z"/>
          <path class="fight-cls-15" d="m622.6,347.96c-.15-.49-3.17-3.83-4.38-9.3,1.01-6.3-.91-13.4-1.09-19.15,1.93-.04.8-3.11,1.09-3.28,4.02-2.41,5.1,27.85,4.38,31.73Z"/>
          <path class="fight-cls-3" d="m672.93,292.15c-10.24,5.26-20.22,17.46-19.7,29.54-19.95,2.02-21.85,13.33-21.88,30.64-.01,5.7.63,11.03-1.09,10.94.07-21.87-4.09-38.85,21.88-43.22-1.65-13.92,8.77-20.52,17.51-29,1.18.46,1.79,1.46,3.28,1.09Z"/>
          <path class="fight-cls-14" d="m626.43,277.93c.82-.13,2.32-.27,2.74.55.04,26.87-17.36,1.72-2.74-.55Z"/>
        </g>
      </g>
    </g>
    <g>
      <path class="fight-cls-26" d="m944.29,941.01q-7.11,8.21-14.22,16.41c-18.99,3.85-63.89,14.24-76.59,15.32-4.68-7.86-22.33-4.36-20.79-18.6,12.83-18.39,8.2-3.7,25.71-9.85,7.41-3.1,37.02-28.88,39.39-29.54,3.83-1.08,10.18,1.62,13.68,3.28.64.31,9.25,5.99,12.04,7.66.18.11,0,4.53,3.28,2.74-.82-1.36-3.15-2.57-3.28-2.74-3.01-3.75-4.94-4.94-8.75-7.66-2.89-2.07-4.92-6.7-9.3-7.66-9.49-2.07-19.3,5.31-21.34-.55-1.55-4.45,1.12-6.18,4.38-8.21,3.23.05,7.32.27,9.85-2.19,3.75.51,3.12-1.03,3.28-1.09,7.92,2.49,13.63-1.25,22.43,1.09,0-7.67,3.87-6.53,9.3-9.85,2.05,8.95,12.2,27.56,10.94,51.43Z"/>
      <path class="fight-cls-31" d="m827.21,972.74c2.13-.93,2.84-3.53,5.47-3.28,5.21,5.31,14.57,3.81,20.79,3.28,12.7-1.08,57.61-11.46,76.59-15.32,2.23-.45,11.55,5.71,14.22-12.04,16.66,14.27-18.26,20.01-38.84,25.17-18.48,4.63-69.09,18.64-78.24,2.19Z"/>
      <path class="fight-cls-2" d="m927.88,873.17c2.85,5.08,4.18,10.79,5.47,16.41-5.43,3.31-9.29,2.17-9.3,9.85-8.8-2.35-14.51,1.4-22.43-1.09.21-.08-.53-2.79.55-3.28,4.34-1.97,8.15,5.84,25.71-21.88Z"/>
      <path class="fight-cls-15" d="m944.29,945.39c-2.67,17.74-11.99,11.58-14.22,12.04q7.11-8.21,14.22-16.41c-.07,1.43.2,3.02,0,4.38Z"/>
      <path class="fight-cls-11" d="m888.49,901.62c-3.26,2.03-5.92,3.75-4.38,8.21,2.03,5.86,11.85-1.53,21.34.55,4.38.96,6.41,5.59,9.3,7.66h-3.28c-3.5-1.67-9.85-4.36-13.68-3.28-2.37.67-31.99,26.44-39.39,29.54-17.51,6.15-12.88-8.54-25.71,9.85-.11.16-2.6,1.87-3.28,2.19.37-10.29,8.76-21.06,16.41-27.35,5.44-4.48,35.06-19.54,36.11-22.43.31-.86.06-6.73,0-9.3,2.28.27.18,4.53,1.64,5.47.21.14-.2-1.18,4.92-1.09Z"/>
      <path class="fight-cls-2" d="m853.48,972.74c-6.22.53-15.58,2.03-20.79-3.28-2.8-2.85-3.42-9.29-3.28-13.13.69-.32,3.17-2.03,3.28-2.19-1.55,14.24,16.11,10.75,20.79,18.6Z"/>
      <path class="fight-cls-2" d="m914.75,918.03c3.81,2.72,5.74,3.91,8.75,7.66-2.78-1.67-11.39-7.35-12.04-7.66h3.28Z"/>
      <g>
        <path class="fight-cls-17" d="m927.88,869.89c.24.91-.14,2.24,0,3.28-17.57,27.72-21.37,19.92-25.71,21.88-1.08.49-.33,3.2-.55,3.28-.16.06.46,1.6-3.28,1.09-4.5-.5-6.03-.18-9.85,2.19-5.12-.08-4.71,1.23-4.92,1.09-1.46-.94.63-5.2-1.64-5.47-.07-2.92.68-6.11-1.09-8.75q18.6-12.58,37.2-25.17c1.37,1.59,8.53,2.68,9.85,6.57Z"/>
        <path class="fight-cls-11" d="m898.34,899.43c-2.53,2.46-6.62,2.24-9.85,2.19,3.81-2.37,5.35-2.69,9.85-2.19Z"/>
      </g>
      <path class="fight-cls-2" d="m923.5,925.69c.13.17,2.47,1.38,3.28,2.74-3.29,1.79-3.1-2.63-3.28-2.74Z"/>
    </g>
    <path class="fight-cls-17" d="m699.19,845.82c-.24,2.95,1.57,4.76,2.19,7.66-4.14,22.89-20.55,23.09-38.3,30.64-.28.12-1.97-.43-5.47,1.09.05-4.08,1.77-7.86,1.09-12.04l40.49-27.35Z"/>
    <g>
      <path class="fight-cls-35" d="m587.59,949.77c38.22,1.74,75.65-6.95,113.25-10.94,6.07-.65,7.79,1.12,8.21,1.09,4.54-.25,4.86,4.56,12.04-5.47.09-.13,2-.48,2.19-2.19.11.83,6.16,8.15-3.83,13.13-7.64,3.81-113.8,14.73-132.4,12.04-1.91-6.44.57-7.28.55-7.66Z"/>
      <path class="fight-cls-11" d="m655.43,887.4c27.15,18.51-47.32,34.46-61.28,37.2.39-.75-.39-3.2,0-3.83,1.41-2.25,19.33-14.8,22.98-16.96,11.91-7.05,25.76-10.88,38.3-16.41Z"/>
      <path class="fight-cls-2" d="m705.76,872.08c-12.45,18.36-46.29,18-45.96,13.68.08-1.09,3.31.27,3.28-1.64,17.75-7.55,34.16-7.74,38.3-30.64,1.3,6.12,3,12.46,4.38,18.6Z"/>
      <path class="fight-cls-2" d="m721.08,934.45c-7.17,10.03-7.49,5.22-12.04,5.47-.41-6.82,7.7-5.41,12.04-5.47Z"/>
      <g>
        <path class="fight-cls-26" d="m719.98,909.28c-.8,5.98,2.19,14.7,3.28,22.98-.19,1.7-2.1,2.06-2.19,2.19-4.34.06-12.44-1.35-12.04,5.47-.41.02-2.13-1.74-8.21-1.09-37.6,4-75.03,12.68-113.25,10.94-.57-10.01,1.82-15.9,6.57-25.17,13.95-2.74,88.43-18.69,61.28-37.2,1.68-.74.51-1.46,2.19-2.19,3.5-1.52,5.2-.98,5.47-1.09.03,1.91-3.2.55-3.28,1.64-.33,4.32,33.5,4.69,45.96-13.68,8.69,9.92,7.29,26.02,14.22,37.2Z"/>
        <path class="fight-cls-2" d="m669.1,889.58c17.09.32,32.54,12.94,12.04,6.57-1.52-.47-11.74-4.76-12.04-6.57Z"/>
        <path class="fight-cls-25" d="m693.18,898.34c2.27-.13,14.34,9.82-1.09,2.19-1.16-.41.85-2.17,1.09-2.19Z"/>
      </g>
    </g>
    <g>
      <g>
        <path class="fight-cls-21" d="m805.33,392.82c20.66,7.88,33.77,24.15,43.77,43.22,5.81,20.78,6.23,39.76,1.09,60.73-2.38-5.89-5.13,4.56-11.49,9.85-31.23,25.96-59.39,1.65-85.89-16.41-3.47-2.37-6.28-1.99-6.57-2.19-28-32.36-35.18-34.15-15.32-59.09,2.23,13.25,40.35,44.74,49.79,44.86,7.15.1,22.87-23.12,21.34-41.58,2.06-11.55-9.5-29.77-18.6-37.2-2.17-4.04-.45-1.09-1.09-4.38l22.98,2.19Z"/>
        <path class="fight-cls-20" d="m850.19,496.77c-.02.08-.67-.45-1.09,1.09-3.79,13.91-9.6,23.84-9.85,25.17-24.87,22.25-56.41-1.48-76.59-18.6-3.56-4.45-8.63-8.13-9.85-14.22,26.5,18.07,54.66,42.38,85.89,16.41,6.36-5.29,9.11-15.74,11.49-9.85Z"/>
        <path class="fight-cls-32" d="m774.69,393.91c9.77,11.75,17.82,27.51,27.35,37.2.05.36-.03.73,0,1.09,1.54,18.46-14.19,41.68-21.34,41.58-9.43-.13-47.55-31.61-49.79-44.86,14.26-17.9,25.67-23.65,43.77-35.01Z"/>
        <path class="fight-cls-7" d="m781.26,389.54c-2.19,1.42-4.36,3-6.57,4.38-18.1,11.36-29.51,17.12-43.77,35.01-19.86,24.94-12.69,26.73,15.32,59.09-14.71-10.12-28.24-24.34-36.11-40.49l6.02,6.57c2.6-27.3,42.96-55.42,66.75-67.84h-8.21c.72-.34-1.15-7.02,13.13-.55-1.72,2.04-4.45,2.45-6.57,3.83Z"/>
        <path class="fight-cls-33" d="m782.35,390.63c.65,3.29-1.08.34,1.09,4.38,4.79,8.9,17.29,26.72,18.6,36.11-9.53-9.7-17.58-25.45-27.35-37.2,2.2-1.38,4.38-2.95,6.57-4.38-.12,1.36,1.08,1.02,1.09,1.09Z"/>
        <path class="fight-cls-28" d="m802.05,432.21c-.03-.36.05-.74,0-1.09-1.31-9.39-13.81-27.21-18.6-36.11,9.1,7.44,20.66,25.66,18.6,37.2Z"/>
      </g>
      <g>
        <path class="fight-cls-21" d="m785.64,363.27c.12.68-1.91,3.83,2.19,13.68-.99,1.93-5.97-1.42-7.66-1.64-.96-6.28-4.15-11.77-6.57-17.51-2.69-6.37-3.14-6.23-3.28-6.57l-2.19-5.47c-.33-.72.14-4.34-5.47-14.77-2.88-4.37-5.51-8.43-8.75-12.58-1.31-13.94,23.07-36.51,36.11-21.34,10.7,12.46.19,46.28-8.75,59.09,2.71,9.03,4.31,6.7,4.38,7.11Z"/>
        <path class="fight-cls-4" d="m777.43,305.28c4.37-.38,5.38,12.68,2.19,14.22-9.04,4.37-6.24-13.87-2.19-14.22Z"/>
        <path class="fight-cls-10" d="m770.32,351.24c-.79-1.87-1.68-4.36-2.19-5.47l2.19,5.47Z"/>
      </g>
      <g>
        <path class="fight-cls-31" d="m790.01,363.27c1.72.6,16.48,24.89,15.32,29.54l-22.98-2.19c-.01-.08-1.21.27-1.09-1.09,2.11-1.38,4.84-1.79,6.57-3.83-14.28-6.47-12.41.21-13.13.55-20.92,9.93-41.7,27.13-55.8,45.41-4.38,5.68-12.49,25.78-10.94,2.19.15-2.32,4.09-13.3,5.47-15.87,4.72-8.8,27.62-28.62,36.66-33.92,11.72-6.87,16.66-10.53,30.09-8.75,1.69.22,6.67,3.57,7.66,1.64-4.1-9.85-2.07-12.99-2.19-13.68,1.34.22,3.4-.34,4.38,0Z"/>
        <path class="fight-cls-36" d="m753.9,318.41c3.24,4.15,5.87,8.22,8.75,12.58,5.62,10.43,5.14,14.06,5.47,14.77.51,1.11,1.4,3.6,2.19,5.47.14.34.6.19,3.28,6.57.11,2.08.43,2.67-1.09,4.38-8.3-8.01-12.84-28.56-24.07-43.22-25.59-33.39-76.27-40.16-91.37,4.92-1.44.72-2.55-2.32-3.83-2.19-.52-12.08,9.45-24.29,19.7-29.54,5.53-2.84,11.76-3.37,17.51-5.47,26.19-2.78,48,11.91,63.46,31.73Z"/>
        <path class="fight-cls-37" d="m716.7,403.76c-2.42,3.24-5.45,5.7-6.57,9.85h-1.09c-5.5-4.78-13.09-6.36-19.7-8.75-9.12-3.3-18.47-5.88-27.35-9.85-6.56-2.93-13.02-6.1-19.7-8.75-4.56-6.67-8.21-13.69-12.04-20.79v-2.19c1.73.09,1.08-5.24,1.09-10.94,8.55,9.91,71.15,49.58,77.14,51.43,3.26,1,4.92,1.2,8.21,0Z"/>
        <path class="fight-cls-18" d="m780.16,375.31c-13.43-1.77-18.37,1.88-30.09,8.75-9.04,5.3-31.93,25.12-36.66,33.92-5.98,2.03-4.62.64-3.28-4.38,1.11-4.15,4.14-6.61,6.57-9.85,17.24-23.03,53.48-38.97,55.8-41.58,1.52-1.71,1.2-2.3,1.09-4.38,2.42,5.73,5.6,11.23,6.57,17.51Z"/>
        <path class="fight-cls-4" d="m710.14,447.53c-6.66-13.66-8.29-18.35-1.09-33.92h1.09c-1.34,5.02-2.69,6.4,3.28,4.38-1.38,2.57-5.32,13.54-5.47,15.87-1.55,23.6,6.56,3.49,10.94-2.19,14.1-18.28,34.88-35.48,55.8-45.41h8.21c-23.79,12.42-64.15,40.54-66.75,67.84l-6.02-6.57Z"/>
        <path class="fight-cls-38" d="m772.5,362.18c-2.33,2.61-38.56,18.55-55.8,41.58-3.28,1.2-4.95,1-8.21,0-6-1.84-68.59-41.52-77.14-51.43.03-17.31,1.93-28.62,21.88-30.64,1.28-.13,2.39,2.91,3.83,2.19,15.09-45.08,65.78-38.31,91.37-4.92,11.24,14.66,15.78,35.21,24.07,43.22Z"/>
      </g>
    </g>
  </g>
  <g>
    <path class="fight-cls-31" d="m304.19,372.03c-27.44,11.43-54.65,43.41-60.18,72.76-4.08,21.68-1.85,91.84,0,117.08.58,7.88,3.47,47.44,7.11,50.88,3.09-.42,4.67,2.09,4.92,2.19-9.91,54.68-7.49,102.77,3.28,157.02-2.94,3.17-4.79,7.17-7.66,10.39-6.64,7.47-26.23,15.67-44.86,43.77-12.79,19.28-15.88,33.94-18.6,37.2-.43.51-9.32,5.18-10.94,7.66,2.4-8.96,2.68-19.02,5.47-27.9,12.56-39.91,29.36-52.14,55.8-82.06-6.39-44.58-3.57-89.64,6.57-133.49-28.37.1,11.08-14.04-15.32-13.13-.65-68.7-9.98-133.78,18.6-199.14,12.8-29.27,35.01-53.49,48.14-82.61v16.96l9.85-3.28q-1.09,12.86-2.19,25.71Z"/>
    <path class="fight-cls-31" d="m927.88,869.89c-1.32-3.88-8.48-4.98-9.85-6.57-1.26-1.46-4.8-14.27-7.66-19.7-23.52-44.69-50.96-64.31-54.71-81.52-3.39-15.56.12-58.31-1.09-78.78-1.33-22.41-6.59-44.86-8.75-67.29-1.45-15.02-4.57-32.98-5.47-47.05-.88-13.79-1.14-27.75-1.09-41.58.16-1.41-.25-3.03,0-4.38.25-1.33,6.06-11.26,9.85-25.17-.48,30.46,21.62,107.48,21.88,113.25.05,1.02-3.84,16.78-4.38,17.51-2.13,2.89-5.88-3.71-7.11-2.74-2.39,1.89,9.53,42.73,11.49,59.63,2.99,25.72,1.94,51.87,2.19,77.69,38.7,44.8,42.09,47.64,56.9,103.95.95,3.61-2.23,2.57-2.19,2.74Z"/>
    <path class="fight-cls-31" d="m550.38,436.59c3.32,23.96-2.49,50.98,12.04,72.22,6.69,9.78,15.78,15.53,27.35,17.51,23.22,3.96,50.28-6.97,68.93-20.79,3.46-.73,1.81,2.88,2.19,7.66-25.98,14.9-65.91,29.32-92.46,8.75-25.63-19.85-17.23-57.98-20.24-85.35h2.19Z"/>
  </g>
  <g>
    <path class="fight-cls-11" d="m472.69,245.1c-18.17-3.15-50.56-30.31-67.29-40.49,12.22,40.04-14.87,69.68-48.69,86.44-6.29,3.12-8.77,5.38-9.3,5.47-2.98.51-31.02-13.65-33.37,9.3-2.24,21.9,17.83,24.54,19.15,25.71,1.24,1.11.09,3.43.55,4.38-11.98-7.6-15.76,16.01-14.22,22.43.42,1.76,13.88,12.89,16.41,14.77l-7.11-3.28c2.53,5.71,23.97,27.55,27.35,28.45,6.15,1.63,15.02-2.51,20.24,3.28,3.22,3.57,4.69,10.99,6.57,15.32l-9.3-15.32c-27.09,5.82-44.25-32.03-51.43-33.92-3.02-.8-14.66,2.96-18.05,4.38q1.09-12.86,2.19-25.71l-9.85,3.28v-16.96c-7.2-6.35-12.39-23.41-13.13-33.37-12.13-9.94-10.35-55.46-6.57-71.12,9.18-37.96,36.48-44.4,38.84-46.5,2.21-1.97,1.74-6.29,3.83-8.21,49.48-45.29,171.53-9.44,161.94,72.22-4.95,1.82-7.97-.41-8.75-.55Z"/>
    <g>
      <path class="fight-cls-26" d="m196.96,898.34c8.61,2.53,17.21,5.83,26.26,6.57v5.47c-8.98,5.17-53.03-4.01-19.15,3.28,6.19,3.76,41.06,33.35,43.77,33.92,5.11,1.07,11.86-4.54,13.13-4.38,1.9.24,9.93,12.05,10.39,21.88-8.2,1.17-26.38-3.28-27.35,6.57-19.67-2.78-57.84-13.98-72.22-15.32-2.01-3.13-6.76-14.62-9.85-12.04-.54-19.22,5.69-37.32,9.85-55.8,10.11,8.36,18.38,7.85,25.17,9.85Z"/>
      <path class="fight-cls-17" d="m188.2,863.32c6.33,7.71,33.56,21.49,35.01,28.45.66,3.17-.47,9.21,0,13.13-9.05-.74-17.65-4.03-26.26-6.57-2.85-9.53-13.46-18.67-20.79-25.17.78-3,1.06-2.07,1.09-2.19,1.62-2.48,10.51-7.15,10.94-7.66Z"/>
      <path class="fight-cls-31" d="m161.94,951.95c.34,1.68,1.21,5.98,2.74,6.57,3.76.61,6.74-2.22,7.11-2.19,14.37,1.34,52.55,12.53,72.22,15.32,7.53,1.07,20.61,4.89,26.26-1.09,1.07.46,2.13,2.78,3.28,3.28-1.61,4.33-19.7,7.92-24.62,7.66-4.25-.23-79.25-16.9-83.16-18.6-3.38-1.47-12.9-10.42-8.75-10.94.57-.07,2.77,3.81,4.92,0Z"/>
      <path class="fight-cls-2" d="m196.96,898.34c-6.79-2-15.06-1.49-25.17-9.85,1.19-5.28,3.03-10.13,4.38-15.32,7.33,6.5,17.94,15.64,20.79,25.17Z"/>
      <path class="fight-cls-4" d="m171.79,956.33c-.37-.03-3.35,2.8-7.11,2.19-1.53-.59-2.4-4.89-2.74-6.57-.36-1.82.07-5.22,0-7.66,3.09-2.59,7.84,8.9,9.85,12.04Z"/>
      <path class="fight-cls-11" d="m223.22,910.37c7.01,4.69,26.82,13.64,31.73,17.51,9.19,7.24,20.27,28.04,17.51,39.39-1.44.08-1.04-.97-1.09-2.19-.46-9.84-8.5-21.65-10.39-21.88-1.27-.16-8.02,5.45-13.13,4.38-2.71-.57-37.58-30.16-43.77-33.92-33.88-7.3,10.17,1.88,19.15-3.28Z"/>
      <path class="fight-cls-2" d="m271.36,965.08c.06,1.21-.35,2.27,1.09,2.19-.17.69-1.67,2.74-2.19,3.28-5.65,5.99-18.73,2.16-26.26,1.09.98-9.85,19.15-5.39,27.35-6.57Z"/>
    </g>
    <g>
      <g>
        <path class="fight-cls-22" d="m502.24,298.72c3.47-.03,6.49.44,9.85,1.09,1.48,3.11-2.51,11.99,8.75,11.49-6,.41-6.8.45-12.04,2.74-.93.41-5.59,2.92-6.02,3.28-17.39,14.95,8.42.33,14.22,0,22.46-1.3,43.01,25.32,46.5,45.96-1.2,5.69-50.07,53.46-60.18,59.09-12.81-12.82-27.51-24.03-42.67-33.92,2.19-19.79,2.42-51.17,12.04-68.39,3.59-6.43,11.26-11.05,14.22-18.05,6.72-2.58,7.69-3.21,15.32-3.28Z"/>
        <path class="fight-cls-26" d="m486.92,302c-2.96,7-10.63,11.62-14.22,18.05-9.62,17.21-9.85,48.59-12.04,68.39-3.52-2.3-7.31-4.43-10.94-6.57.19-1.04-.19-2.24,0-3.28,1.15-6.24,1.06-12.45,2.19-18.6,3.1-16.94,5.43-32.46,17.51-45.96,4.91-5.49,10.65-9.4,17.51-12.04Z"/>
      </g>
      <path class="fight-cls-11" d="m460.66,388.44c15.16,9.89,29.87,21.1,42.67,33.92,3.03,3.04,5.92,6.6,8.75,9.85-10.3,12.3-17.52,24-26.26,37.2-13.45-14.45-24.87-38.5-45.96-41.58,2.26-15.56,7.09-30.45,9.85-45.96,3.64,2.13,7.42,4.27,10.94,6.57Z"/>
    </g>
    <g>
      <path class="fight-cls-26" d="m390.63,892.87c.44.27,1.09,2.96,1.64,3.28,19.21,11.4,59.08,27.07,81.52,29.54,4.4,7.47,7.59,20.07,7.66,28.45-36.01-.51-83.36-10.67-117.08-12.04l-10.94-6.57c-4.29-18.16,5.65-40.75,10.94-57.99,8.22,2.68,17.62,10.01,26.26,15.32Z"/>
      <path class="fight-cls-35" d="m369.84,856.76c-.18.51-.68,4.17-2.19,8.75-1.26,3.85-2.07,8.1-3.28,12.04-5.29,17.24-15.23,39.84-10.94,57.99,3.51,14.85,9.91,6.52,10.94,6.57,33.72,1.37,81.07,11.53,117.08,12.04,0,.62,2.36,2.98.55,6.57-19.08-.13-120.59-8.09-129.12-13.13-10.6-6.27-3.78-24.49-4.92-34.47-.66-1.29-1.95.47-5.47.55-.63-4.41,9.16-.78,10.94-3.83,4.19-14.16,10.27-41.25,14.22-52.52.3-.85,1.46-.55,2.19-.55Z"/>
      <path class="fight-cls-11" d="m451.9,907.09c6.31,3.88,18.31,12.55,21.88,18.6-22.43-2.48-62.31-18.15-81.52-29.54-.55-.32-1.2-3.01-1.64-3.28,8.41,2.32,21.66,8.18,20.79-4.38,1.59,1.56,30.62,12.54,40.49,18.6Z"/>
      <path class="fight-cls-17" d="m409.23,873.17c.04,3.69-.25,9.95,1.09,13.13-11.53-1.75-34.87-11.28-42.67-20.79,1.5-4.58,2.01-8.24,2.19-8.75,2.17-6.15,3.64-11.47,9.85-15.32.09,2.08-1.55,2.79-1.09,4.92q15.32,13.4,30.64,26.81Z"/>
      <path class="fight-cls-2" d="m410.32,886.3c.38.9-.33.79,1.09,2.19.87,12.56-12.38,6.7-20.79,4.38-8.64-5.31-18.05-12.63-26.26-15.32,1.21-3.94,2.02-8.19,3.28-12.04,7.8,9.51,31.15,19.04,42.67,20.79Z"/>
      <path class="fight-cls-14" d="m364.37,942.11c-1.03-.04-7.43,8.28-10.94-6.57l10.94,6.57Z"/>
    </g>
    <g>
      <path class="fight-cls-12" d="m407.04,612.75c.57.14,1.87.83,2.19,1.09,3.49,2.87,51.31,68.57,53.62,72.76,31.01,56.38,12.85,113.77-26.26,160.3l-2.19-.55q7.11-9.3,14.22-18.6c-6.59-7.29-58.57-18.94-60.73-21.34-1.49-1.65,2.46-4.24-.55-5.47,5.97-18.26,16.08-34.68,25.17-51.43l1.09-3.83c-10.34-31.68-43.33-74.82-32.28-103.4-12.07,2.1-23.42,12.36-27.9,23.53-1.84,4.58-13.32,58.15-13.13,61.28.42,6.93,5.47-2.64,8.75-1.64-3.25,3.07-6.2,6.6-9.85,9.3-9.17,61.41-33.69,96.59-82.06,132.95,5.1-28-30.04-34.67-50.33-41.58,18.64-28.1,38.23-36.3,44.86-43.77,5.34,3.14,23.13-12.56,36.11-18.05-7.74-43.82-24.85-86.24-24.07-131.3,46.61,10.62,101.98,10.52,140.6-21.34l2.74,1.09Z"/>
      <path class="fight-cls-13" d="m257.14,867.7c-11.16,8.39-22.54,16.04-33.92,24.07-1.45-6.96-28.69-20.73-35.01-28.45,2.72-3.27,5.81-17.92,18.6-37.2,20.29,6.91,55.43,13.58,50.33,41.58Z"/>
      <path class="fight-cls-13" d="m436.59,846.91c-9.01,10.72-15.5,18.14-27.35,26.26q-15.32-13.4-30.64-26.81c-.46-2.13,1.19-2.84,1.09-4.92-.6-13.38,3.51-27.77,7.66-40.49,3.01,1.23-.94,3.82.55,5.47,2.16,2.4,54.14,14.05,60.73,21.34q-7.11,9.3-14.22,18.6l2.19.55Z"/>
      <path class="fight-cls-13" d="m412.51,749.53l-54.16-32.83c-1.8-.02-7.17,6.74-9.3,8.75-3.28-1-8.33,8.57-8.75,1.64-.19-3.13,11.29-56.7,13.13-61.28,4.48-11.17,15.83-21.42,27.9-23.53-11.05,28.58,21.94,71.72,32.28,103.4l-1.09,3.83Z"/>
      <g>
        <path class="fight-cls-13" d="m407.04,612.75l-2.74-1.09c-38.63,31.86-93.99,31.96-140.6,21.34-.78,45.07,16.34,87.48,24.07,131.3-12.98,5.49-30.77,21.19-36.11,18.05,2.87-3.23,4.72-7.23,7.66-10.39-10.77-54.25-13.19-102.33-3.28-157.02,3.23,1.22,32.89,4.94,39.39,5.47,15,1.22,27.68,1.16,42.67,0,9.31-.72,18.97-2.43,28.45-3.28,2.81-.25,7.64-.09,9.85-2.19.36-.04.74.06,1.09,0,6-.97,6.86-1.7,8.75-2.19,2.98-.49,4.85-1.04,7.66-2.19,1.82-.73,4.18-.06,6.57-2.19.12-.1,2.04-.56,2.19-2.19l4.38,6.57Z"/>
        <path class="fight-cls-6" d="m338.11,620.41c-14.99,1.16-27.67,1.22-42.67,0h42.67Z"/>
        <path class="fight-cls-6" d="m386.25,612.75c-1.89.48-2.76,1.22-8.75,2.19,2.31-2.62,5.96-1.72,8.75-2.19Z"/>
        <path class="fight-cls-6" d="m376.4,614.94c-2.21,2.1-7.03,1.94-9.85,2.19,2.24-2.16,7.09-1.88,9.85-2.19Z"/>
        <path class="fight-cls-6" d="m393.91,610.56c-2.81,1.15-4.68,1.69-7.66,2.19,1.09-.28,7.29-2.04,7.66-2.19Z"/>
        <path class="fight-cls-8" d="m400.48,608.38c-2.38,2.13-4.74,1.46-6.57,2.19.32-.13,1.78-2.88,6.57-2.19Z"/>
      </g>
    </g>
    <g>
      <path class="fight-cls-31" d="m439.87,427.83c21.09,3.08,32.51,27.13,45.96,41.58-.24.37,1.65,1.31,0,3.83-1.52,2.33-6.3,6.71-6.57,7.11-10.4-9.76-31.28-44.36-45.96-41.58-3.79-4.67-5.13-10.4-5.47-10.94.24-.96,8.9-.46,12.04,0Z"/>
      <path class="fight-cls-4" d="m479.26,480.35c-3.89,5.92-4.15,5.15-4.38,5.47-13.04-12.17-30.45-42.11-47.05-42.67.3-.19,3.57-4.02,5.47-4.38,14.68-2.78,35.55,31.82,45.96,41.58Z"/>
    </g>
    <path class="fight-cls-27" d="m641.2,408.14c-10.18,6.61-20.19,14.56-29,22.98-4.08,2.09-2.5-1.11-2.74-1.09v-5.47c-1.08-5.79.98-11.91,1.09-17.51l34.47-12.04c1.47.76-1.55,11.65-3.83,13.13Z"/>
    <path class="fight-cls-31" d="m661.99,395.01c-.12.48-1,2.11-1.09,2.19-5.34,4.02-14.21,7.38-19.7,10.94,2.28-1.48,5.3-12.37,3.83-13.13l-34.47,12.04c0-.5-1.28-1.47-1.09-9.85q16.41-5.47,32.83-10.94c6.68,2.65,13.14,5.82,19.7,8.75Z"/>
    <g>
      <g>
        <path class="fight-cls-23" d="m333.73,335.92c13.39,27.57,13.23,30.35,41.58,45.96l-5.47,5.47c-11.59.34-24.62-7.32-33.92-14.22-2.53-1.88-15.99-13.01-16.41-14.77-1.54-6.42,2.24-30.03,14.22-22.43Z"/>
        <g>
          <path class="fight-cls-32" d="m472.69,245.1c.76,7.9-1.68,15.19-2.19,22.98-17.87-9.72-20.65,14.07-1.09,7.66-.66,12.19,1.09,25.91,0,38.3-12.08,13.49-14.41,29.02-17.51,45.96h-2.19c3.48-9.71-3.9-18.47-6.02-17.51,1.67,5.65,4.18,11.45,3.83,17.51-1.18,20.63-32.93,38.62-59.63,21.88-25.99-16.29-32.53-62.78-31.18-90.82,33.83-16.76,60.91-46.4,48.69-86.44,16.74,10.18,49.13,37.34,67.29,40.49Z"/>
          <g>
            <path class="fight-cls-19" d="m470.51,268.08c-.39,6.07-1.07,7.27-1.09,7.66-19.55,6.41-16.77-17.38,1.09-7.66Z"/>
            <path class="fight-cls-19" d="m414.15,262.61c24.25-5.59,26.8,18.51-1.09,10.94-6.94-1.88-6.03-9.3,1.09-10.94Z"/>
            <path class="fight-cls-14" d="m417.44,289.96c19.07-3.79,24.11,16.13,1.09,8.75-6.44-2.06-9.95-6.99-1.09-8.75Z"/>
            <path class="fight-cls-16" d="m457.92,289.96c10.69-2.47,9.89,10.12,4.38,12.04-12.18,4.23-11.44-10.4-4.38-12.04Z"/>
            <path class="fight-cls-5" d="m449.72,359.99h-2.19c.35-6.05-2.16-11.86-3.83-17.51,2.12-.96,9.5,7.8,6.02,17.51Z"/>
            <path class="fight-cls-1" d="m451.36,322.79c5.51.67-2.54,13.39-5.47,10.94-3.55-2.95,4.8-11.02,5.47-10.94Z"/>
          </g>
        </g>
        <g>
          <path class="fight-cls-34" d="m356.71,291.06c-1.34,28.04,5.19,74.53,31.18,90.82,26.7,16.73,58.45-1.26,59.63-21.88h4.38c-1.13,6.15-1.04,12.36-2.19,18.6-4.07.79-7.49,6.83-16.96,10.94-17.09,7.43-32.19,5.12-48.69-2.19-2.57-1.14-3.95-2.52-5.47-3.28-1.26-.63-2.05-1.51-3.28-2.19-28.35-15.6-28.19-18.38-41.58-45.96-.46-.95.69-3.27-.55-4.38-1.31-1.18-21.39-3.81-19.15-25.71,2.35-22.95,30.4-8.79,33.37-9.3.53-.09,3.01-2.35,9.3-5.47Z"/>
          <path class="fight-cls-19" d="m331,304.19c3.61-1.46,8.32,1.56,8.21,3.83-.12,2.37-3.71.39-3.83.55-1.79,2.32-1.09,5.18-2.19,5.47-5.02,1.33-6.28-8.2-2.19-9.85Z"/>
        </g>
      </g>
      <g>
        <path class="fight-cls-32" d="m387.35,440.96c2.63,3.57,4.66,7.56,8.75,9.85,3.16,6.27,8.04,11.61,10.94,18.05h2.19c.1-1.12-.16-2.51,0-2.74,6.6-9.33,8.14-16.45,18.6-22.98,16.6.56,34.01,30.5,47.05,42.67-.51.71,2.36,2.93-8.75,14.22-7.22,7.33-27.86,21.54-37.75,22.98-39.6,5.77-141.92-53.96-130.76-103.95,36.3-27.69,60.98-2.04,89.72,21.88Z"/>
        <path class="fight-cls-21" d="m466.13,500.05c-13.33,24.64-34.14,47.09-62.37,53.62-.26-8.99.13-9.3-9.85-10.94-5.16-3.41-18.38-7.49-27.35-12.04-37.25-18.86-72.99-35.55-89.72-76.59,3.1-16.69,7.07-24.55,20.79-35.01-11.16,49.99,91.15,109.72,130.76,103.95,9.89-1.44,30.53-15.64,37.75-22.98Z"/>
        <path class="fight-cls-20" d="m366.56,530.69c-4.82,7.21,2.81,10.51-15.87,14.22-11.27,2.24-27.78.95-38.84-2.19-40.14-11.39-41.37-54.43-35.01-88.63,16.73,41.05,52.48,57.74,89.72,76.59Z"/>
      </g>
    </g>
    <g>
      <path class="fight-cls-22" d="m382.97,416.89c4.72,10.88,7.81,23.39,13.13,33.92-4.09-2.29-6.12-6.28-8.75-9.85-27.15-36.82-70.62-60.66-105.04-16.96-21.65,27.49-22.16,91.02.55,109.97,18.16,15.16,50.63,19.63,73.31,17.51,21.06-1.97,21.11-13.58,46.5,4.38v50.33c-.15,1.63-2.07,2.09-2.19,2.19-4.79-.69-6.24,2.06-6.57,2.19-.37.15-6.57,1.91-7.66,2.19-2.79.46-6.45-.44-8.75,2.19-.35.06-.73-.04-1.09,0-2.76.31-7.61.03-9.85,2.19-9.48.85-19.14,2.57-28.45,3.28h-42.67c-6.5-.53-36.16-4.25-39.39-5.47-.25-.1-1.84-2.61-4.92-2.19-3.64-3.44-6.53-43.01-7.11-50.88-1.85-25.24-4.08-95.4,0-117.08,5.53-29.36,32.74-61.33,60.18-72.76,3.4-1.42,15.03-5.17,18.05-4.38,7.18,1.89,24.34,39.74,51.43,33.92l9.3,15.32Z"/>
      <path class="fight-cls-9" d="m378.59,384.06c2.44,17.62,17.35,38.75,24.07,57.45,2.83,7.86,4.26,16.58,6.57,24.62-.16.23.1,1.61,0,2.74h-2.19c-2.9-6.45-7.78-11.78-10.94-18.05-5.32-10.53-8.41-23.04-13.13-33.92-1.88-4.33-3.35-11.75-6.57-15.32,7.72-3.07.62-5.37-1.09-16.96-1.32-1.29-1.91,2.63-5.47,2.74l5.47-5.47c1.23.68,2.02,1.56,3.28,2.19Z"/>
      <path class="fight-cls-19" d="m335.92,373.12c9.3,6.9,22.33,14.56,33.92,14.22,3.56-.1,4.15-4.02,5.47-2.74,1.72,11.59,8.81,13.89,1.09,16.96-5.22-5.79-14.1-1.65-20.24-3.28-3.38-.9-24.83-22.74-27.35-28.45l7.11,3.28Z"/>
      <path class="fight-cls-15" d="m387.35,440.96c-28.74-23.93-53.43-49.57-89.72-21.88-13.72,10.47-17.69,18.33-20.79,35.01-6.36,34.2-5.13,77.24,35.01,88.63-2.58,3.71,12.14,6.28,14.77,6.57,41.24,4.53,51.46-16.35,74.41,3.28.04-7.17-1.93-6.42-7.11-9.85,9.98,1.64,9.59,1.95,9.85,10.94l-1.09,2.19c-25.39-17.96-25.45-6.35-46.5-4.38-22.68,2.13-55.15-2.35-73.31-17.51-22.7-18.95-22.2-82.48-.55-109.97,34.42-43.7,77.9-19.86,105.04,16.96Z"/>
      <path class="fight-cls-22" d="m384.06,387.35c14.38,13.75,33.06,23.13,43.77,40.49.34.55,1.69,6.27,5.47,10.94-1.9.36-5.17,4.19-5.47,4.38-10.47,6.53-12.01,13.65-18.6,22.98-2.3-8.04-3.74-16.76-6.57-24.62-6.72-18.69-21.63-39.83-24.07-57.45,1.52.76,2.91,2.15,5.47,3.28Z"/>
      <path class="fight-cls-4" d="m393.91,542.72c5.19,3.43,7.15,2.68,7.11,9.85-22.94-19.64-33.16,1.25-74.41-3.28-2.63-.29-17.35-2.86-14.77-6.57,11.07,3.14,27.58,4.43,38.84,2.19,18.68-3.71,11.05-7.01,15.87-14.22,8.98,4.54,22.2,8.63,27.35,12.04Z"/>
    </g>
  </g>
  <g>
    <path class="fight-cls-22" d="m623.69,350.14c2.55,7.04,2.77,8.28,6.57,15.32,3.82,7.1,7.48,14.12,12.04,20.79q-16.41,5.47-32.83,10.94c.28-12.36,2.03-24.78,1.09-37.2,13.14-2.06,4.29-9.91,13.13-9.85Z"/>
    <g>
      <g>
        <path class="fight-cls-22" d="m609.47,235.25c-26.26,29.8-70.17,19.95-105.04,17.51,11.08-35.84,81.27-46.41,105.04-17.51Z"/>
        <g>
          <path class="fight-cls-26" d="m619.32,253.85c1.4,8.33-1.36,43.22-1.09,62.37,0,.17-1.23-.89-1.09,3.28.19,5.75,2.1,12.85,1.09,19.15,1.21,5.47,4.22,8.81,4.38,9.3.28.9.77,1.3,1.09,2.19-8.84-.06.01,7.79-13.13,9.85-.36.06-2.62-1.79-7.11-1.09-12.78,1.99-25.25,5.07-38.3,5.47-5.12,13.2-14.56,26-23.53,37.2-8.12,10.14-24.02,24.04-29.54,30.64-2.83-3.25-5.72-6.81-8.75-9.85,10.12-5.63,58.98-53.4,60.18-59.09,3.53-16.73-24.21-58.36-54.71-49.24,5.24-2.28,6.04-2.32,12.04-2.74-11.26.5-7.28-8.38-8.75-11.49-1.25-2.64-3.58-3.59-5.47-9.85-4.33-14.33-6.83-22.18-2.19-37.2,34.88,2.44,78.79,12.29,105.04-17.51,2.68,3.26,9.24,14.99,9.85,18.6Z"/>
          <path class="fight-cls-31" d="m512.09,299.81c-3.36-.66-6.38-1.13-9.85-1.09-.61-4.38.5-6.59,4.38-8.75,1.89,6.25,4.22,7.21,5.47,9.85Z"/>
          <path class="fight-cls-11" d="m537.8,284.49c9.7-1.04,53.54-2.67,46.5,15.87-.98,2.59-3.77,2.57-6.02,2.74-8.46.64-67.18,1.25-59.63-13.68.68-1.35,16.75-4.67,19.15-4.92Z"/>
          <path class="fight-cls-35" d="m563.51,363.27c-3.5-20.64-24.04-47.25-46.5-45.96-5.8.33-31.62,14.95-14.22,0,.43-.37,5.09-2.88,6.02-3.28,30.5-9.12,58.24,32.51,54.71,49.24Z"/>
        </g>
      </g>
      <g>
        <path class="fight-cls-11" d="m610.56,359.99c.93,12.42-.81,24.85-1.09,37.2-.19,8.38,1.1,9.35,1.09,9.85-.11,5.59-2.17,11.72-1.09,17.51-21.4-.12-43.14,1.85-63.46,8.75-1.31-10.55-4.07-21.02-4.38-31.73,8.96-11.2,18.4-24,23.53-37.2,13.04-.4,25.51-3.48,38.3-5.47,4.49-.7,6.76,1.15,7.11,1.09Z"/>
        <path class="fight-cls-26" d="m609.47,424.55v5.47c-19.84,1.08-39.57,2.31-59.09,6.57h-2.19c-.02-.21-1.55,1.87-2.19-3.28,20.33-6.91,42.06-8.87,63.46-8.75Z"/>
      </g>
    </g>
    <g>
      <path class="fight-cls-21" d="m660.9,423.46c-1.59,14.93-3.94,29.88-5.47,44.86-16.65,26.88-62.98,54.76-93.01,40.49-14.53-21.24-8.72-48.26-12.04-72.22,19.51-4.26,39.24-5.48,59.09-6.57.23-.01-1.34,3.18,2.74,1.09,8.8-8.42,18.81-16.37,29-22.98,5.49-3.56,14.35-6.92,19.7-10.94,2.48,8.5.91,17.72,0,26.26Z"/>
      <path class="fight-cls-29" d="m658.71,505.52c-18.65,13.82-45.72,24.75-68.93,20.79,13.09-3.56,27.26-4.77,39.94-9.85,32.17-12.88,22.78-19.53,25.71-48.14,1.53-14.99,3.88-29.93,5.47-44.86q-1.09,41.03-2.19,82.06Z"/>
      <path class="fight-cls-23" d="m655.43,468.32c-2.93,28.62,6.45,35.27-25.71,48.14-12.68,5.08-26.84,6.28-39.94,9.85-11.57-1.97-20.67-7.73-27.35-17.51,30.03,14.28,76.36-13.6,93.01-40.49Z"/>
    </g>
  </g>
</svg>