<?xml version="1.0" encoding="UTF-8"?>
<svg xmlns="http://www.w3.org/2000/svg" xmlns:xlink="http://www.w3.org/1999/xlink" width="200px" height="200px" viewBox="0 0 200 125" version="1.1">
<g id="surface1">
<path style=" stroke:none;fill-rule:evenodd;fill:rgb(85.098039%,85.490196%,75.686275%);fill-opacity:1;" d="M 111.6875 107.417969 C 110.042969 107.234375 108.40625 106.992188 106.804688 106.585938 C 105.058594 106.140625 103.722656 105.511719 102.261719 104.484375 C 101.046875 103.628906 99.699219 103.054688 98.628906 101.988281 C 97.472656 100.84375 96.917969 99.304688 95.828125 98.128906 C 95.605469 97.886719 95.179688 97.144531 94.773438 97.226562 C 94.085938 97.363281 93.402344 97.625 92.726562 97.824219 C 91.125 98.289062 89.621094 98.859375 87.929688 98.765625 C 86.390625 98.675781 84.851562 98.65625 83.332031 98.382812 C 81.664062 98.085938 79.765625 97.808594 78.207031 97.132812 C 75.222656 95.835938 72.652344 94.03125 70.058594 92.097656 C 68.898438 91.234375 68.269531 90.246094 67.414062 89.113281 C 66.964844 88.523438 66.445312 87.988281 66.007812 87.390625 C 65.460938 86.644531 65.160156 85.757812 64.800781 84.910156 C 63.4375 81.695312 62.425781 78.550781 61.996094 75.0625 C 61.832031 73.695312 62.09375 72.105469 62.324219 70.753906 C 62.605469 69.128906 63.109375 67.210938 63.789062 65.707031 C 64.957031 63.128906 66.863281 60.820312 68.5625 58.570312 C 65.210938 59.457031 61.929688 60.597656 58.566406 61.414062 C 55.085938 62.261719 51.882812 63.769531 48.605469 65.1875 C 45.25 66.644531 41.941406 68.285156 38.515625 69.570312 C 35.355469 70.753906 32.238281 71.632812 28.871094 72.050781 C 27.164062 72.265625 25.464844 72.523438 23.738281 72.503906 C 21.894531 72.484375 20.066406 72.242188 18.238281 72.003906 C 14.898438 71.570312 11.472656 71.332031 8.097656 71.523438 C 6.578125 71.609375 5.101562 71.933594 3.703125 72.535156 C 3.21875 72.746094 2.710938 72.960938 2.253906 73.226562 C 1.578125 73.613281 1.6875 74.015625 1.765625 74.707031 C 1.90625 75.949219 0.949219 76.511719 0.238281 77.28125 C -0.5625 78.148438 0.871094 79.167969 1.519531 79.699219 C 2.660156 80.628906 3.980469 81.308594 5.132812 82.226562 C 5.675781 82.65625 6.246094 83.0625 6.910156 83.296875 C 7.648438 83.554688 8.394531 83.582031 9.136719 83.890625 C 10.59375 84.492188 12.1875 84.792969 13.746094 85.007812 C 15.476562 85.246094 17.097656 85.949219 18.742188 86.515625 C 20.3125 87.054688 21.871094 87.644531 23.382812 88.332031 C 24.941406 89.039062 26.039062 90.015625 27.328125 91.109375 C 30 93.378906 32.578125 95.730469 35.207031 98.050781 C 37.671875 100.226562 40.460938 102.007812 43.378906 103.519531 C 46.347656 105.054688 49.433594 106.46875 52.695312 107.269531 C 54.207031 107.640625 55.761719 107.96875 57.292969 108.21875 C 59.089844 108.515625 61.019531 108.316406 62.832031 108.320312 C 66.542969 108.332031 70.167969 108.277344 73.855469 107.8125 C 75.566406 107.59375 77.285156 107.429688 79.003906 107.25 C 80.601562 107.078125 82.199219 107.273438 83.789062 107.117188 C 85.460938 106.953125 87.011719 106.144531 88.65625 105.832031 C 89.351562 105.699219 90.082031 105.695312 90.734375 105.394531 C 91.527344 105.027344 92.300781 104.828125 93.167969 104.707031 C 94.722656 104.492188 96.285156 104.53125 97.777344 105.039062 C 99.261719 105.542969 100.589844 106.390625 102.039062 106.972656 C 105.03125 108.171875 108.695312 108.898438 111.683594 107.414062 "/>
<path style=" stroke:none;fill-rule:evenodd;fill:rgb(85.098039%,85.490196%,75.686275%);fill-opacity:1;" d="M 140.234375 100.179688 C 139.398438 100.179688 138.554688 100.148438 137.71875 100.191406 C 136.886719 100.238281 136.480469 100.003906 135.75 99.6875 C 135.191406 99.441406 134.546875 99.457031 134 99.203125 C 133.453125 98.953125 133.0625 98.472656 132.640625 98.066406 C 132.347656 97.792969 132.042969 97.511719 131.699219 97.304688 C 131.199219 97 130.832031 97.953125 130.578125 98.285156 C 129.515625 99.695312 128.429688 101.046875 127.175781 102.289062 C 128.296875 102.449219 129.417969 102.609375 130.535156 102.765625 C 131.789062 102.945312 132.964844 102.71875 134.195312 102.480469 C 135.214844 102.285156 136.203125 101.976562 137.199219 101.6875 C 138.375 101.332031 139.199219 100.855469 140.230469 100.171875 "/>
<path style=" stroke:none;fill-rule:evenodd;fill:rgb(0.392157%,0.392157%,0.392157%);fill-opacity:1;" d="M 110.167969 2.488281 C 110.722656 1.71875 111.164062 0.507812 112.191406 0.253906 C 113.4375 -0.0546875 114.039062 0.679688 114.722656 1.585938 C 115.15625 1.007812 115.660156 -0.0507812 116.546875 0.078125 C 117.570312 0.226562 117.601562 1.398438 117.761719 2.1875 C 118.261719 1.570312 118.722656 0.894531 119.367188 0.40625 C 120.417969 -0.386719 121.0625 1.101562 121.257812 1.980469 C 121.597656 3.492188 121.84375 4.832031 121.75 6.386719 C 121.664062 7.816406 122.046875 9.394531 121.667969 10.785156 C 120.789062 13.976562 120.226562 17.21875 119.4375 20.4375 C 119.085938 21.875 118.796875 23.414062 119.09375 24.886719 C 119.429688 26.542969 120.066406 28.039062 120.730469 29.574219 C 122.054688 32.640625 124.21875 34.851562 126.671875 37.0625 C 129.226562 39.371094 131.941406 41.398438 134.8125 43.304688 C 137.726562 45.242188 140.597656 47.207031 143.433594 49.253906 C 146.289062 51.320312 149.191406 53.234375 151.753906 55.671875 C 152.921875 56.785156 153.980469 58 154.996094 59.25 C 155.988281 60.476562 157.066406 61.707031 157.773438 63.125 C 159.226562 66.050781 159.984375 69.539062 160.210938 72.773438 C 160.445312 76.164062 159.65625 79.675781 158.769531 82.941406 C 157.914062 86.089844 156.464844 89.011719 154.738281 91.777344 C 153 94.558594 150.609375 96.324219 147.746094 97.863281 C 146.417969 98.578125 145.175781 99.289062 143.671875 99.554688 C 141.902344 99.867188 140.1875 100.175781 138.386719 100.175781 C 137.773438 100.175781 136.859375 100.363281 136.335938 99.988281 C 135.796875 99.601562 135.3125 99.527344 134.683594 99.328125 C 133.484375 98.945312 132.808594 98.023438 131.792969 97.371094 C 131.214844 97 131 97.730469 130.671875 98.160156 C 130.210938 98.773438 129.753906 99.390625 129.277344 99.992188 C 128.269531 101.257812 127.128906 102.386719 125.859375 103.386719 C 120.582031 107.539062 113.757812 108.316406 107.308594 106.746094 C 105.914062 106.40625 104.253906 106.007812 103.070312 105.175781 C 101.820312 104.296875 100.464844 103.5 99.28125 102.539062 C 98.0625 101.550781 97.527344 100.417969 96.652344 99.175781 C 96.175781 98.496094 95.582031 97.878906 95.046875 97.242188 C 94.835938 96.988281 94.070312 97.429688 93.832031 97.5 C 92.230469 97.964844 90.703125 98.667969 89.011719 98.742188 C 87.257812 98.820312 85.335938 98.785156 83.613281 98.4375 C 82.25 98.160156 80.75 98.058594 79.441406 97.570312 C 77.746094 96.933594 75.996094 96.066406 74.40625 95.203125 C 71.84375 93.8125 69.132812 91.820312 67.550781 89.371094 C 66.769531 88.160156 65.761719 87.152344 65.183594 85.816406 C 64.503906 84.234375 63.773438 82.675781 63.25 81.035156 C 62.753906 79.480469 62.515625 77.859375 62.207031 76.261719 C 62.0625 75.515625 61.792969 74.722656 61.941406 73.957031 C 62.113281 73.09375 62.195312 72.207031 62.3125 71.332031 C 62.726562 68.230469 63.828125 65.34375 65.484375 62.683594 C 67.15625 59.992188 69.3125 57.535156 71.554688 55.296875 C 72.675781 54.175781 73.949219 53.269531 75.148438 52.238281 C 76.355469 51.191406 77.371094 50.195312 78.765625 49.390625 C 80.027344 48.660156 81.058594 47.609375 82.347656 46.910156 C 83.839844 46.097656 85.421875 45.5 86.890625 44.640625 C 88.105469 43.925781 89.398438 43.21875 90.410156 42.226562 C 91.519531 41.136719 92.046875 39.625 92.605469 38.214844 C 93.15625 36.816406 93.726562 36.027344 95.039062 35.25 C 96.308594 34.5 97.984375 34.0625 98.945312 32.902344 C 99.804688 31.863281 100.089844 30.296875 100.152344 28.984375 C 100.242188 27.183594 100.144531 25.355469 100.144531 23.550781 C 100.144531 19.207031 100.1875 14.699219 102.082031 10.699219 C 102.960938 8.847656 103.875 7.121094 105.203125 5.542969 C 106.554688 3.929688 108.285156 3.34375 110.167969 2.484375 "/>
<path style=" stroke:none;fill-rule:evenodd;fill:rgb(96.862745%,94.901961%,88.627451%);fill-opacity:1;" d="M 75.546875 88.722656 C 73.527344 86.273438 70.941406 83.542969 69.875 80.519531 C 68.796875 77.464844 69.019531 74.171875 69.875 71.117188 C 70.300781 69.601562 70.613281 68.046875 71.421875 66.675781 C 72.242188 65.289062 73 63.855469 73.941406 62.550781 C 75.929688 59.785156 78.023438 57.121094 80.59375 54.84375 C 83.058594 52.660156 85.777344 50.777344 88.441406 48.851562 C 90.707031 47.214844 93.707031 45.679688 94.925781 43.035156 C 95.417969 41.96875 95.472656 40.769531 95.992188 39.710938 C 96.636719 38.402344 98.394531 37.574219 99.609375 36.867188 C 102.042969 35.453125 104.769531 33.003906 104.871094 30.015625 C 104.957031 27.535156 104.507812 25.128906 104.253906 22.65625 C 103.992188 20.117188 104.226562 17.738281 104.570312 15.222656 C 104.886719 12.882812 105.402344 10.660156 106.097656 8.402344 C 106.429688 7.332031 106.976562 6.585938 107.597656 5.671875 C 107.867188 5.269531 108 4.789062 108.273438 4.398438 C 108.480469 4.101562 109.042969 4.1875 108.953125 3.695312 C 109.949219 5.671875 108.4375 7.777344 108.089844 9.714844 C 107.648438 12.160156 107.351562 14.761719 107.632812 17.238281 C 107.785156 18.542969 107.953125 19.847656 108.144531 21.148438 C 108.324219 22.355469 108.707031 23.632812 108.699219 24.855469 C 108.691406 25.894531 108.515625 27.035156 108.304688 28.050781 C 108.101562 29.042969 107.503906 29.902344 107.128906 30.832031 C 107.664062 29.511719 108.257812 28.203125 108.617188 26.820312 C 109.039062 25.195312 108.867188 23.628906 108.722656 21.980469 C 108.445312 18.75 107.726562 15.402344 108.453125 12.195312 C 108.789062 10.707031 109.257812 9.246094 109.703125 7.789062 C 110.101562 6.488281 109.9375 4.667969 110.757812 3.554688 C 111.164062 3.003906 111.945312 1.433594 112.738281 1.738281 C 113.636719 2.082031 112.976562 3.851562 112.839844 4.535156 C 112.546875 6.023438 112.042969 7.453125 111.683594 8.925781 C 111.332031 10.378906 110.777344 11.957031 110.777344 13.457031 C 110.777344 15.046875 110.675781 16.675781 110.789062 18.257812 C 110.90625 19.839844 111.421875 21.453125 111.773438 22.996094 C 112.457031 25.996094 113.332031 29.164062 112.359375 32.167969 C 111.84375 33.765625 111.140625 35.238281 110.507812 36.785156 C 109.875 38.328125 109.632812 40.066406 109.257812 41.6875 C 109.769531 39.988281 110.265625 38.28125 110.867188 36.613281 C 111.132812 35.882812 111.386719 35.109375 111.757812 34.425781 C 112.128906 33.742188 112.671875 33.160156 113.023438 32.464844 C 113.375 31.777344 113.460938 30.929688 113.636719 30.183594 C 113.777344 29.574219 114.097656 28.933594 114.128906 28.304688 C 114.160156 27.5625 113.78125 26.652344 113.617188 25.929688 C 113.390625 24.917969 113.167969 23.902344 112.953125 22.882812 C 112.230469 19.472656 111.648438 15.777344 112.199219 12.308594 C 112.722656 9.035156 113.214844 5.488281 114.722656 2.492188 L 114.722656 6.410156 C 114.839844 5.949219 115.289062 1.378906 116.328125 1.484375 C 117.191406 1.574219 117.476562 3.386719 117.527344 4.007812 C 117.613281 5.113281 117.457031 6.210938 117.457031 7.316406 C 117.457031 6.140625 117.738281 5.09375 118.0625 3.976562 C 118.195312 3.519531 118.199219 2.871094 118.589844 2.546875 C 118.894531 2.289062 119.265625 2.125 119.582031 1.886719 C 119.71875 3.5 119.96875 5.0625 119.820312 6.683594 C 119.660156 8.464844 119.449219 10.25 119.195312 12.019531 C 118.707031 15.386719 118.089844 18.746094 117.582031 22.109375 C 117.191406 24.695312 118.070312 28.214844 119.585938 30.367188 C 121.578125 33.1875 123.695312 35.683594 126.332031 37.929688 C 128.992188 40.191406 131.742188 42.335938 134.5 44.476562 C 137.273438 46.628906 140.164062 48.605469 142.929688 50.761719 C 148.101562 54.796875 153.605469 58.894531 155.808594 65.300781 C 156.515625 67.363281 157.171875 69.5 157.4375 71.667969 C 157.734375 74.058594 157.3125 76.433594 156.882812 78.78125 C 156.492188 80.910156 156.160156 82.875 155.082031 84.792969 C 154 86.714844 152.792969 88.105469 151.027344 89.417969 C 150.277344 89.976562 149.597656 90.613281 148.769531 91.058594 C 147.847656 91.550781 146.746094 91.703125 145.738281 91.953125 C 145.441406 92.027344 145.261719 92.292969 144.984375 92.351562 C 144.636719 92.425781 144.296875 92.285156 143.949219 92.386719 C 142.804688 92.730469 141.65625 92.640625 140.460938 92.640625 C 139.628906 92.640625 138.8125 92.585938 138.082031 92.160156 C 137.304688 91.710938 136.433594 91.835938 135.679688 91.4375 C 134.195312 90.648438 133.058594 88.648438 132.339844 87.214844 C 131.554688 89.292969 130.964844 91.433594 129.96875 93.425781 C 128.914062 95.53125 127.429688 97.226562 125.644531 98.75 C 124.871094 99.414062 124.3125 99.914062 123.339844 100.25 C 123 100.367188 122.652344 100.46875 122.324219 100.613281 C 121.964844 100.773438 121.753906 101.125 121.394531 101.277344 C 120.613281 101.605469 119.40625 101.566406 118.5625 101.703125 C 117.304688 101.914062 116.035156 101.988281 114.757812 101.988281 C 113.640625 101.988281 112.625 101.386719 111.503906 101.386719 C 110.648438 101.386719 110.351562 100.765625 109.558594 100.601562 C 107.644531 100.210938 106.03125 98.371094 104.714844 97.011719 C 103.203125 95.445312 102.027344 93.363281 101.066406 91.421875 C 100.03125 89.332031 99.261719 87.09375 98.929688 84.800781 C 98.738281 85.371094 98.769531 86.007812 98.554688 86.5625 C 98.316406 87.164062 98.0625 87.566406 98.003906 88.222656 C 97.898438 89.472656 97.128906 90.410156 97.121094 91.695312 C 97.113281 93.273438 96.015625 93.066406 94.957031 93.730469 C 94.25 94.171875 93.8125 94.503906 92.949219 94.429688 C 92.285156 94.375 91.746094 94.667969 91.105469 94.734375 C 89.695312 94.882812 88.382812 94.382812 87.003906 94.460938 C 85.429688 94.554688 84.128906 93.828125 82.683594 93.257812 C 82.367188 93.136719 81.457031 92.921875 81.285156 92.578125 C 80.929688 91.878906 80.535156 91.980469 79.847656 91.71875 C 79.097656 91.433594 78.386719 90.738281 77.734375 90.277344 C 76.992188 89.757812 76.261719 89.238281 75.53125 88.722656 "/>
<path style=" stroke:none;fill-rule:evenodd;fill:rgb(85.098039%,85.490196%,75.686275%);fill-opacity:1;" d="M 154.8125 85.40625 C 153.183594 87.671875 150.980469 90.242188 148.253906 91.222656 C 146.8125 91.742188 145.265625 91.769531 143.753906 91.753906 C 142.097656 91.738281 140.625 91.695312 139.132812 90.894531 C 137.855469 90.210938 136.753906 89.222656 135.886719 88.070312 C 135.105469 87.03125 134.066406 85.597656 134.148438 84.257812 C 134.175781 83.777344 134.101562 83.308594 134.082031 82.828125 C 134.054688 82.144531 134.277344 81.984375 134.75 81.488281 C 135.929688 80.238281 137.023438 78.902344 138.414062 77.867188 L 137.324219 81.648438 C 137.058594 82.578125 136.917969 84.28125 137.25 85.203125 C 137.484375 85.859375 138.140625 86.863281 138.597656 87.390625 C 139.261719 88.15625 140.433594 89 141.378906 89.371094 C 143.484375 90.1875 146.46875 90.679688 148.617188 89.710938 C 149.652344 89.242188 150.855469 88.976562 151.71875 88.199219 C 152.753906 87.265625 153.785156 86.332031 154.816406 85.402344 "/>
<path style=" stroke:none;fill-rule:evenodd;fill:rgb(85.098039%,85.490196%,75.686275%);fill-opacity:1;" d="M 128.390625 95.957031 C 126.78125 96.617188 125.179688 97.402344 123.546875 97.988281 C 122.820312 98.25 122 97.894531 121.265625 97.832031 C 120.503906 97.769531 119.734375 97.777344 118.980469 97.625 C 117.410156 97.304688 115.839844 96.128906 114.433594 95.382812 C 112.96875 94.605469 111.859375 93.292969 110.660156 92.171875 C 109.367188 90.964844 108.539062 89.332031 107.605469 87.851562 C 106.648438 86.328125 106.21875 84.796875 105.519531 83.167969 C 104.816406 81.539062 105.003906 79.851562 105.003906 78.101562 C 105.003906 76.105469 105.675781 74.335938 106.21875 72.441406 C 105.242188 72.925781 104.808594 73.367188 104.101562 74.195312 C 103.480469 74.921875 102.425781 75.707031 102.203125 76.675781 C 101.738281 78.730469 101.695312 80.808594 101.769531 82.902344 C 101.808594 83.992188 102.113281 84.933594 102.457031 85.960938 C 102.859375 87.15625 103.171875 88.445312 103.726562 89.582031 C 104.679688 91.515625 106.03125 93.285156 107.289062 95.027344 C 107.828125 95.773438 108.304688 96.605469 109.035156 97.195312 C 109.847656 97.847656 110.78125 98.441406 111.660156 99.003906 C 113.378906 100.109375 115.800781 100.839844 117.84375 100.972656 C 118.925781 101.046875 120.023438 100.761719 121.085938 100.585938 C 122.050781 100.425781 123.160156 100.386719 124.085938 100.054688 C 124.921875 99.753906 125.550781 98.722656 126.257812 98.191406 C 127.121094 97.527344 127.6875 96.773438 128.386719 95.949219 "/>
<path style=" stroke:none;fill-rule:evenodd;fill:rgb(85.098039%,85.490196%,75.686275%);fill-opacity:1;" d="M 107.132812 30.832031 C 106.488281 32.105469 106.234375 33.507812 105.28125 34.589844 C 104.191406 35.828125 102.90625 36.832031 101.742188 37.992188 C 101.25 38.480469 101.101562 39.140625 100.890625 39.769531 C 100.65625 40.46875 100.304688 41.121094 99.984375 41.785156 C 99.265625 43.257812 98.742188 44.753906 97.796875 46.113281 C 95.925781 48.800781 93.015625 50.820312 90.386719 52.714844 C 87.695312 54.652344 84.925781 56.546875 82.503906 58.816406 C 81.386719 59.863281 80.25 60.753906 79.34375 61.996094 C 78.429688 63.246094 77.414062 64.429688 76.648438 65.785156 C 74.949219 68.785156 74.902344 72.226562 74.925781 75.582031 C 74.941406 77.332031 75.144531 78.882812 75.488281 80.59375 C 75.605469 81.1875 75.363281 81.925781 75.71875 82.441406 C 76.132812 83.039062 76.617188 83.578125 77.023438 84.183594 C 77.925781 85.523438 78.9375 86.707031 80.015625 87.910156 C 80.488281 88.4375 80.777344 88.890625 81.421875 89.230469 C 82.238281 89.660156 83.035156 90.148438 83.902344 90.472656 C 85.191406 90.957031 86.625 91.640625 88.011719 91.738281 C 89.527344 91.84375 91.242188 92.199219 92.75 92.003906 C 94.023438 91.839844 95.304688 91.324219 96.546875 91 C 97.652344 90.707031 98.019531 88.796875 98.019531 87.816406 C 96.296875 88.355469 94.566406 89.023438 92.808594 89.4375 C 91.046875 89.851562 88.875 89.230469 87.097656 89.023438 C 86.585938 88.964844 85.851562 88.148438 85.445312 87.859375 C 84.730469 87.351562 83.972656 86.878906 83.3125 86.3125 C 82.21875 85.375 81.394531 83.929688 80.621094 82.730469 C 79.648438 81.21875 79.300781 79.242188 78.765625 77.542969 C 78.492188 76.671875 78.726562 75.808594 78.839844 74.917969 C 78.960938 73.949219 79.058594 72.984375 79.332031 72.039062 C 79.589844 71.164062 79.945312 70.324219 80.316406 69.488281 C 80.628906 68.785156 80.84375 67.949219 81.476562 67.457031 C 82.777344 66.445312 84.230469 65.574219 85.566406 64.601562 C 85.566406 66.121094 85.371094 67.789062 85.632812 69.289062 C 85.832031 70.433594 86.214844 71.972656 86.964844 72.878906 C 88.699219 74.964844 90.425781 76.648438 93.203125 77.171875 C 94.398438 77.398438 95.628906 77.25 96.804688 76.964844 C 97.65625 76.753906 98.625 76.722656 98.921875 75.773438 C 99.191406 74.902344 99.316406 74.207031 99.039062 73.328125 C 98.613281 71.976562 97.414062 70.632812 96.625 69.460938 C 96.269531 68.929688 95.789062 68.382812 95.535156 67.789062 C 95.300781 67.234375 95.25 66.582031 95.109375 66 C 94.789062 64.695312 94.191406 63.167969 94.433594 61.820312 C 94.675781 60.441406 94.792969 59.082031 95.167969 57.71875 C 95.589844 56.175781 96.320312 54.742188 97.078125 53.339844 C 100.121094 47.714844 103.601562 42.410156 106.21875 36.5625 C 107.421875 38.152344 108.363281 39.914062 109.257812 41.6875 C 109.605469 40.179688 109.84375 38.582031 110.363281 37.125 C 110.886719 35.660156 111.671875 34.3125 112.15625 32.828125 C 112.59375 31.5 113.03125 30.328125 112.859375 28.914062 C 112.679688 27.402344 112.515625 25.886719 112.175781 24.398438 C 111.835938 22.898438 111.425781 21.417969 111.125 19.910156 C 110.8125 18.34375 110.757812 16.785156 110.691406 15.191406 C 110.566406 12.148438 111.703125 8.832031 112.523438 5.921875 C 112.703125 5.285156 112.859375 4.652344 112.957031 3.996094 C 113.019531 3.589844 113.390625 2.257812 113.132812 1.925781 C 112.273438 0.800781 110.984375 3.207031 110.632812 3.820312 C 110.039062 4.859375 110.035156 6.363281 109.730469 7.515625 C 109.3125 9.117188 108.78125 10.695312 108.421875 12.3125 C 107.738281 15.402344 108.4375 18.667969 108.707031 21.777344 C 108.847656 23.402344 109.097656 25.019531 108.703125 26.625 C 108.355469 28.078125 107.699219 29.4375 107.140625 30.828125 "/>
<path style=" stroke:none;fill-rule:evenodd;fill:rgb(100%,100%,100%);fill-opacity:1;" d="M 135.984375 71.839844 C 134.949219 72.25 133.949219 72.441406 132.835938 72.441406 C 132.46875 72.441406 132.109375 72.523438 131.738281 72.503906 C 131.230469 72.476562 130.828125 71.964844 130.4375 71.6875 C 129.394531 70.957031 128.246094 70.441406 127.457031 69.398438 C 126.769531 68.488281 126.320312 67.488281 125.960938 66.410156 C 125.210938 66.96875 124.601562 67.6875 123.835938 68.21875 C 123.027344 68.78125 122.046875 68.9375 121.101562 69.125 C 121.914062 70.335938 122.867188 71.710938 124.035156 72.613281 C 125.019531 73.375 126.390625 73.492188 127.582031 73.660156 C 129.167969 73.886719 130.582031 73.875 132.148438 73.550781 C 132.824219 73.410156 133.527344 73.332031 134.160156 73.042969 C 134.832031 72.742188 135.378906 72.242188 135.988281 71.84375 "/>
<path style=" stroke:none;fill-rule:evenodd;fill:rgb(85.098039%,85.490196%,75.686275%);fill-opacity:1;" d="M 134.160156 82.089844 C 133.492188 83.417969 132.0625 85.722656 132.417969 87.300781 C 132.746094 88.78125 134.386719 90.636719 135.710938 91.3125 C 136.488281 91.710938 137.417969 91.871094 138.238281 92.191406 C 139.222656 92.574219 140.230469 92.664062 141.285156 92.65625 C 143.636719 92.640625 145.574219 91.996094 147.828125 91.4375 C 144.78125 91.941406 141.261719 92.316406 138.546875 90.519531 C 137.191406 89.625 135.886719 88.53125 135.144531 87.0625 C 134.789062 86.355469 134.160156 85.648438 134.160156 84.820312 C 134.164062 83.90625 134.164062 82.996094 134.164062 82.089844 "/>
<path style=" stroke:none;fill-rule:evenodd;fill:rgb(85.098039%,85.490196%,75.686275%);fill-opacity:1;" d="M 98.929688 84.804688 C 99.359375 87.773438 100.574219 90.519531 102.0625 93.105469 C 102.8125 94.414062 103.496094 95.675781 104.574219 96.75 C 105.660156 97.828125 106.757812 98.890625 107.945312 99.859375 C 108.390625 100.21875 108.804688 100.441406 109.363281 100.582031 C 109.949219 100.730469 110.3125 101.164062 110.859375 101.34375 C 111.523438 101.558594 112.324219 101.550781 113.015625 101.738281 C 113.796875 101.945312 114.527344 101.996094 115.332031 101.984375 C 116.941406 101.96875 118.46875 101.660156 120.058594 101.464844 C 120.714844 101.382812 121.320312 101.523438 121.800781 101.011719 C 122.226562 100.5625 122.984375 100.449219 123.53125 100.179688 C 121.933594 100.445312 120.3125 100.820312 118.695312 100.953125 C 117.34375 101.066406 115.859375 100.601562 114.542969 100.316406 C 112.941406 99.96875 111.605469 98.859375 110.25 97.992188 C 108.847656 97.097656 108.097656 96.164062 107.140625 94.832031 C 106.179688 93.496094 105.304688 92.140625 104.421875 90.753906 C 103.460938 89.242188 102.996094 87.5625 102.429688 85.878906 C 101.875 84.230469 101.734375 82.8125 101.703125 81.085938 C 101.667969 79.433594 102.019531 77.980469 102.269531 76.359375 C 101.035156 79.117188 99.53125 81.816406 98.929688 84.804688 "/>
<path style=" stroke:none;fill-rule:evenodd;fill:rgb(85.098039%,85.490196%,75.686275%);fill-opacity:1;" d="M 79.796875 91.738281 C 78.804688 90.160156 77.585938 88.640625 77.042969 86.835938 C 76.449219 84.878906 75.949219 82.890625 75.546875 80.882812 C 75.546875 81.921875 75.628906 82.203125 76.261719 83.085938 C 76.960938 84.058594 77.578125 85.097656 78.335938 86.023438 C 79.179688 87.054688 80.113281 88.019531 81 89.011719 C 81.550781 89.625 82.941406 89.980469 83.671875 90.34375 C 85.699219 91.351562 88.035156 91.796875 90.277344 91.90625 C 92.679688 92.019531 94.789062 91.410156 97.109375 90.832031 C 97.109375 91.40625 97.246094 92.015625 97.042969 92.574219 C 96.808594 93.222656 95.535156 93.53125 94.960938 93.839844 C 94.007812 94.359375 93.199219 94.25 92.199219 94.519531 C 91.335938 94.75 90.675781 94.886719 89.761719 94.804688 C 87.878906 94.644531 85.945312 94.511719 84.175781 93.84375 C 83.292969 93.507812 82.171875 93.261719 81.445312 92.628906 C 80.917969 92.171875 80.554688 91.660156 79.789062 91.730469 "/>
<path style=" stroke:none;fill-rule:evenodd;fill:rgb(78.823529%,76.862745%,64.313725%);fill-opacity:1;" d="M 75.546875 68.21875 C 75.117188 69.714844 74.410156 71.167969 74.3125 72.738281 C 74.199219 74.558594 74 76.339844 74.074219 78.164062 C 74.144531 79.914062 74.117188 81.632812 74.464844 83.351562 C 74.824219 85.140625 75.183594 86.933594 75.546875 88.722656 C 73.527344 86.273438 70.941406 83.542969 69.875 80.519531 C 68.796875 77.464844 69.019531 74.171875 69.875 71.117188 C 70.300781 69.597656 70.613281 68.046875 71.421875 66.675781 C 72.242188 65.289062 73 63.855469 73.941406 62.546875 C 75.929688 59.785156 78.023438 57.121094 80.59375 54.84375 C 83.058594 52.660156 85.777344 50.777344 88.441406 48.851562 C 90.707031 47.214844 93.707031 45.679688 94.925781 43.03125 C 95.417969 41.96875 95.472656 40.765625 95.992188 39.710938 C 96.636719 38.402344 98.394531 37.570312 99.609375 36.867188 C 102.042969 35.453125 104.769531 33.003906 104.871094 30.011719 C 104.960938 27.492188 104.5 25.046875 104.238281 22.535156 C 103.976562 19.984375 104.238281 17.601562 104.582031 15.078125 C 104.894531 12.789062 105.417969 10.609375 106.097656 8.402344 C 106.429688 7.332031 106.976562 6.585938 107.597656 5.667969 C 107.867188 5.269531 108 4.785156 108.273438 4.398438 C 108.480469 4.101562 109.042969 4.183594 108.953125 3.695312 C 109.582031 4.945312 109.167969 6.359375 108.75 7.605469 C 108.261719 9.039062 108.003906 10.371094 107.835938 11.875 C 107.644531 13.585938 107.375 15.25 107.59375 16.96875 C 107.828125 18.816406 107.984375 20.652344 108.359375 22.480469 C 108.6875 24.082031 108.648438 25.742188 108.378906 27.351562 C 108.09375 29.03125 107.050781 30.46875 106.511719 32.066406 C 106.316406 32.660156 106.230469 33.300781 105.914062 33.847656 C 105.558594 34.46875 104.996094 34.945312 104.539062 35.488281 C 103.5 36.722656 101.933594 37.375 101.226562 38.890625 C 100.570312 40.292969 99.949219 41.753906 99.386719 43.195312 C 98.765625 44.792969 97.992188 45.886719 96.875 47.179688 C 94.609375 49.804688 91.644531 51.730469 88.949219 53.875 C 87.738281 54.839844 86.457031 55.652344 85.195312 56.542969 C 83.730469 57.578125 82.503906 58.898438 81.132812 60.035156 C 79.910156 61.050781 79 62.5 78.003906 63.734375 C 76.886719 65.121094 76.210938 66.566406 75.550781 68.214844 "/>
<path style=" stroke:none;fill-rule:evenodd;fill:rgb(85.098039%,85.490196%,75.686275%);fill-opacity:1;" d="M 98.628906 76.359375 C 96.609375 77.027344 94.71875 77.414062 92.597656 76.96875 C 90.871094 76.605469 89.363281 75.511719 88.101562 74.328125 C 85.4375 71.824219 85.566406 67.957031 85.566406 64.601562 C 85.089844 65.738281 84.617188 66.871094 84.140625 68.007812 C 83.714844 69.019531 84.050781 70.214844 84.050781 71.269531 C 84.050781 73.398438 85.285156 76.082031 86.957031 77.4375 C 87.65625 78.003906 88.691406 78.734375 89.515625 79.074219 C 90.03125 79.289062 90.601562 79.289062 91.144531 79.398438 C 91.621094 79.492188 92.128906 79.753906 92.625 79.664062 C 93.589844 79.492188 94.867188 79.5 95.773438 79.128906 C 96.273438 78.925781 96.757812 78.21875 97.132812 77.84375 C 97.628906 77.34375 98.125 76.851562 98.625 76.359375 "/>
<path style=" stroke:none;fill-rule:evenodd;fill:rgb(100%,100%,100%);fill-opacity:1;" d="M 135.984375 71.839844 C 135.132812 72.398438 134.449219 72.972656 133.441406 73.222656 C 132.320312 73.5 131.175781 73.800781 130.019531 73.855469 C 128.074219 73.945312 125.9375 73.628906 124.269531 72.613281 C 123.480469 72.128906 122.816406 71.484375 122.246094 70.757812 C 121.804688 70.195312 121.511719 69.160156 120.730469 69.234375 C 119.078125 69.390625 117.59375 69.453125 115.9375 69.125 C 116.507812 70.160156 117.078125 71.195312 117.644531 72.230469 C 118.140625 73.128906 119.023438 73.753906 119.761719 74.4375 C 121.304688 75.863281 123.667969 76.5625 125.605469 77.308594 C 126.664062 77.714844 127.675781 77.753906 128.796875 77.824219 C 129.84375 77.890625 130.898438 77.234375 131.859375 76.855469 C 132.671875 76.53125 133.714844 75.898438 134.351562 75.285156 C 134.695312 74.949219 134.855469 74.300781 135.050781 73.875 C 135.367188 73.1875 135.679688 72.507812 135.992188 71.832031 "/>
<path style=" stroke:none;fill-rule:evenodd;fill:rgb(96.862745%,94.901961%,88.627451%);fill-opacity:1;" d="M 121.40625 32.941406 C 120.058594 31.03125 118.46875 29.113281 118.035156 26.757812 C 117.789062 25.40625 117.417969 24.179688 117.527344 22.789062 C 117.640625 21.394531 117.804688 20.039062 118.050781 18.660156 C 118.554688 15.863281 119.25 13.03125 119.476562 10.195312 C 119.585938 8.851562 119.75 7.503906 119.839844 6.160156 C 119.9375 4.746094 119.699219 3.292969 119.582031 1.886719 C 118.667969 2.566406 118.300781 2.757812 118.070312 3.910156 C 117.84375 5.074219 117.457031 6.101562 117.457031 7.3125 C 117.457031 5.796875 118.171875 2.46875 116.457031 1.527344 C 115.496094 1 114.789062 6.152344 114.722656 6.410156 L 114.722656 2.488281 C 113.332031 5.253906 112.621094 8.699219 112.253906 11.75 C 111.824219 15.335938 112.21875 18.996094 112.878906 22.527344 C 113.195312 24.21875 113.585938 25.886719 113.984375 27.5625 C 114.160156 28.304688 113.949219 28.835938 113.78125 29.558594 C 113.570312 30.460938 113.472656 31.515625 113.03125 32.339844 C 112.691406 32.964844 112.183594 33.480469 111.835938 34.101562 C 111.425781 34.832031 111.179688 35.644531 110.917969 36.4375 C 110.339844 38.175781 109.785156 39.929688 109.257812 41.6875 C 110.410156 41.6875 111.605469 41.921875 112.738281 41.609375 C 113.992188 41.265625 115.1875 40.464844 116.21875 39.699219 C 118.539062 37.96875 119.742188 35.246094 121.402344 32.941406 "/>
<path style=" stroke:none;fill-rule:evenodd;fill:rgb(100%,100%,100%);fill-opacity:1;" d="M 135.984375 71.839844 C 135.269531 72.121094 134.792969 72.441406 134 72.441406 C 133.050781 72.441406 131.914062 72.625 131.046875 72.15625 C 129.703125 71.433594 128.5 69.289062 128.160156 67.855469 C 127.664062 65.757812 126.980469 63.703125 127.125 61.53125 C 127.199219 60.457031 127.175781 59.378906 127.175781 58.304688 C 127.175781 57.410156 126.910156 56.050781 127.285156 55.222656 C 127.867188 53.929688 129.832031 52.8125 131.007812 53.894531 C 132.378906 55.160156 133.039062 57.394531 133.519531 59.117188 C 134.136719 61.316406 134.75 63.515625 135.367188 65.710938 C 135.65625 66.746094 136.085938 67.796875 136.019531 68.882812 C 135.953125 69.863281 135.980469 70.851562 135.980469 71.839844 "/>
<path style=" stroke:none;fill-rule:evenodd;fill:rgb(100%,100%,100%);fill-opacity:1;" d="M 148.132812 65.507812 C 148.914062 63.566406 150.742188 61.597656 152.949219 63.132812 C 155.125 64.648438 155.117188 67.558594 155.117188 69.914062 L 155.117188 74.246094 C 155.117188 75.730469 155.300781 77.34375 155.054688 78.8125 C 154.855469 80.03125 154.347656 81.171875 154.148438 82.394531 C 153.9375 83.695312 153.574219 84.535156 152.792969 85.597656 C 152.332031 86.226562 151.871094 87.277344 151.253906 87.761719 C 150.320312 88.496094 149.136719 87.914062 148.308594 87.390625 C 146.359375 86.160156 144.820312 83.839844 144.527344 81.550781 C 144.355469 80.21875 144.40625 78.984375 144.957031 77.753906 C 145.558594 76.402344 146.140625 75.039062 146.757812 73.691406 C 147.339844 72.417969 147.359375 70.949219 147.691406 69.605469 C 148.035156 68.210938 148.136719 66.933594 148.136719 65.503906 "/>
<path style=" stroke:none;fill-rule:evenodd;fill:rgb(85.098039%,85.490196%,75.686275%);fill-opacity:1;" d="M 95.589844 66.710938 C 96.050781 65.496094 96.484375 64.367188 97.226562 63.285156 C 97.894531 62.308594 98.425781 61.253906 98.890625 60.171875 C 100.070312 57.4375 101.214844 54.695312 102.332031 51.933594 C 103.410156 49.269531 104.574219 46.632812 105.507812 43.914062 C 105.953125 42.613281 106.347656 41.296875 106.65625 39.957031 C 106.78125 39.414062 107.535156 37.832031 106.828125 37.46875 C 105.921875 42.867188 103.421875 47.71875 101.585938 52.828125 C 101.125 54.117188 100.742188 55.402344 100.046875 56.597656 C 99.386719 57.71875 98.820312 58.832031 98.285156 60.019531 C 97.734375 61.234375 97.023438 62.378906 96.417969 63.570312 C 96.113281 64.164062 95.816406 64.761719 95.515625 65.355469 C 95.394531 65.589844 95.277344 65.824219 95.160156 66.058594 C 94.902344 66.582031 95.144531 66.484375 95.597656 66.710938 "/>
<path style=" stroke:none;fill-rule:evenodd;fill:rgb(85.098039%,85.490196%,75.686275%);fill-opacity:1;" d="M 91.945312 79.675781 C 91.566406 81.363281 91.253906 83.0625 91.039062 84.777344 C 90.824219 86.488281 91.035156 88.214844 91.035156 89.929688 C 91.574219 88.324219 91.371094 86.597656 91.34375 84.9375 C 91.324219 84.050781 91.59375 83.285156 91.847656 82.445312 C 92.121094 81.542969 92.132812 80.605469 92.25 79.675781 L 91.941406 79.675781 "/>
<path style=" stroke:none;fill-rule:evenodd;fill:rgb(85.098039%,85.490196%,75.686275%);fill-opacity:1;" d="M 95.589844 89.023438 C 95.941406 87.160156 96.164062 85.203125 96.78125 83.40625 C 97.449219 81.46875 98.214844 79.554688 99.066406 77.695312 C 100.820312 73.871094 102.863281 70.195312 104.480469 66.308594 C 106.027344 62.601562 107.078125 58.695312 108.117188 54.824219 C 109.183594 50.84375 109.851562 46.6875 110.167969 42.59375 C 109.40625 44.101562 109.6875 46.023438 109.449219 47.65625 C 109.144531 49.75 108.773438 51.828125 108.167969 53.863281 C 106.972656 57.871094 105.804688 61.832031 104.195312 65.695312 C 102.546875 69.652344 100.664062 73.464844 98.839844 77.335938 C 97.058594 81.117188 96.300781 85.003906 95.285156 89.023438 C 95.386719 89.027344 95.488281 89.027344 95.589844 89.027344 "/>
<path style=" stroke:none;fill-rule:evenodd;fill:rgb(85.098039%,85.490196%,75.686275%);fill-opacity:1;" d="M 111.992188 42.59375 C 111.78125 45.722656 111.777344 48.957031 111.300781 52.058594 C 110.847656 55 109.953125 58.046875 108.996094 60.863281 C 108.5 62.316406 108.019531 63.8125 107.414062 65.222656 C 106.882812 66.472656 106.027344 67.566406 105.410156 68.773438 C 104.796875 69.988281 104.433594 71.292969 103.867188 72.527344 C 103.292969 73.789062 102.613281 75.011719 102.273438 76.359375 C 103.222656 75.417969 103.550781 74.09375 104.035156 72.894531 C 104.617188 71.449219 105.429688 70.0625 106.085938 68.644531 C 107.488281 65.605469 108.902344 62.625 110.152344 59.511719 C 110.699219 58.164062 110.761719 56.554688 111.042969 55.132812 C 111.355469 53.527344 111.632812 51.917969 111.785156 50.289062 C 111.953125 48.523438 112.035156 46.75 112.15625 44.980469 C 112.191406 44.398438 112.707031 42.953125 111.988281 42.597656 "/>
<path style=" stroke:none;fill-rule:evenodd;fill:rgb(85.098039%,85.490196%,75.686275%);fill-opacity:1;" d="M 113.8125 33.546875 C 114.085938 35.253906 114.460938 36.945312 114.632812 38.664062 C 114.816406 40.503906 114.726562 42.375 114.6875 44.21875 C 114.613281 47.898438 114.234375 51.359375 113.410156 54.949219 C 113.089844 56.347656 113.214844 57.8125 112.65625 59.144531 C 111.988281 60.738281 111.582031 62.410156 110.957031 64.015625 C 109.738281 67.128906 107.699219 69.851562 105.613281 72.441406 C 106.84375 72.441406 107.59375 70.867188 108.164062 69.996094 C 109.113281 68.546875 109.871094 67.003906 110.648438 65.457031 C 111.460938 63.839844 112.203125 62.335938 112.644531 60.578125 C 113.082031 58.824219 113.550781 57.097656 113.882812 55.320312 C 114.574219 51.65625 114.96875 47.949219 115.039062 44.21875 C 115.105469 40.523438 114.390625 36.878906 113.8125 33.242188 C 113.808594 33.34375 113.808594 33.445312 113.808594 33.542969 "/>
<path style=" stroke:none;fill-rule:evenodd;fill:rgb(85.098039%,85.490196%,75.686275%);fill-opacity:1;" d="M 111.6875 67.316406 C 111.6875 69.046875 111.941406 70.792969 111.675781 72.515625 C 111.363281 74.523438 111.050781 76.535156 110.742188 78.546875 C 110.175781 82.179688 108.042969 85.585938 108.042969 89.324219 C 108.886719 87.652344 109.078125 85.757812 109.707031 84.011719 C 110.324219 82.285156 110.375 80.445312 110.917969 78.691406 C 112.160156 74.679688 111.988281 70.558594 111.988281 66.410156 L 111.6875 67.316406 "/>
<path style=" stroke:none;fill-rule:evenodd;fill:rgb(85.098039%,85.490196%,75.686275%);fill-opacity:1;" d="M 114.722656 92.640625 C 114.722656 88.714844 114.660156 84.824219 114.480469 80.90625 C 114.394531 79.039062 114.667969 77.167969 114.648438 75.296875 C 114.625 73.273438 114.714844 71.316406 114.9375 69.304688 C 115.371094 65.398438 115.964844 61.511719 116.453125 57.609375 C 116.933594 53.734375 117.808594 49.5 117.152344 45.609375 C 116.585938 45.910156 116.847656 47.152344 116.847656 47.648438 C 116.847656 48.652344 116.863281 49.65625 116.832031 50.660156 C 116.761719 52.640625 116.492188 54.625 116.269531 56.589844 C 115.800781 60.65625 115.167969 64.699219 114.730469 68.769531 C 114.296875 72.800781 113.949219 76.863281 113.996094 80.917969 C 114.015625 82.855469 114.234375 84.757812 114.371094 86.683594 C 114.519531 88.652344 114.089844 90.734375 114.730469 92.644531 "/>
<path style=" stroke:none;fill-rule:evenodd;fill:rgb(85.098039%,85.490196%,75.686275%);fill-opacity:1;" d="M 119.582031 68.523438 C 119.25 66.203125 119.273438 63.859375 119.277344 61.523438 C 119.285156 59.042969 119.144531 56.574219 118.980469 54.101562 C 118.832031 51.90625 119.066406 49.679688 118.628906 47.507812 C 118.140625 45.082031 117.785156 42.632812 117.457031 40.179688 C 117.40625 42.519531 117.738281 44.84375 118.050781 47.15625 C 118.382812 49.628906 118.542969 52.117188 118.710938 54.605469 C 119.027344 59.339844 118.683594 64.105469 119.277344 68.824219 C 119.386719 68.726562 119.488281 68.625 119.582031 68.519531 "/>
<path style=" stroke:none;fill-rule:evenodd;fill:rgb(85.098039%,85.490196%,75.686275%);fill-opacity:1;" d="M 120.191406 75.15625 C 121.214844 81.777344 122.222656 88.363281 121.101562 95.054688 C 121.664062 94.496094 121.707031 94.363281 121.707031 93.53125 C 121.707031 92.59375 121.757812 91.679688 121.851562 90.75 C 122.039062 88.941406 121.910156 87.144531 121.796875 85.335938 C 121.675781 83.492188 121.4375 81.667969 121.21875 79.832031 C 121.019531 78.1875 120.945312 76.644531 120.191406 75.152344 "/>
<path style=" stroke:none;fill-rule:evenodd;fill:rgb(85.098039%,85.490196%,75.686275%);fill-opacity:1;" d="M 123.835938 77.566406 C 123.753906 78.699219 124.277344 79.769531 124.496094 80.855469 C 124.753906 82.125 125.355469 83.300781 125.710938 84.539062 C 126.464844 87.152344 127.175781 89.636719 127.480469 92.339844 C 127.902344 91.074219 127.324219 90.066406 127.144531 88.804688 C 126.929688 87.320312 126.535156 85.863281 126.167969 84.410156 C 125.84375 83.132812 125.40625 81.945312 124.835938 80.757812 C 124.3125 79.679688 124.511719 78.59375 123.828125 77.574219 "/>
<path style=" stroke:none;fill-rule:evenodd;fill:rgb(85.098039%,85.490196%,75.686275%);fill-opacity:1;" d="M 123.226562 67.617188 C 123.226562 65.324219 122.992188 63.042969 122.707031 60.769531 C 122.425781 58.546875 122.234375 56.328125 121.9375 54.105469 C 121.3125 49.445312 120.476562 44.953125 118.976562 40.480469 C 118.976562 41.484375 119.371094 42.4375 119.722656 43.359375 C 120.148438 44.484375 120.363281 45.621094 120.527344 46.808594 C 120.867188 49.292969 121.320312 51.761719 121.515625 54.265625 C 121.601562 55.363281 121.6875 56.460938 121.707031 57.558594 C 121.726562 58.867188 122.015625 60.101562 122.179688 61.390625 C 122.320312 62.519531 122.3125 63.691406 122.679688 64.78125 C 123.054688 65.894531 122.855469 67.105469 123.226562 68.21875 C 123.230469 68.023438 123.230469 67.820312 123.230469 67.621094 "/>
<path style=" stroke:none;fill-rule:evenodd;fill:rgb(85.098039%,85.490196%,75.686275%);fill-opacity:1;" d="M 113.507812 22.992188 C 114.027344 26.085938 114.621094 29.015625 115.601562 32.003906 C 116.578125 34.984375 118.007812 37.628906 119.621094 40.3125 C 121.269531 43.058594 123.316406 45.5 125.058594 48.179688 C 125.945312 49.542969 126.53125 51.042969 127.316406 52.457031 C 128.039062 53.753906 128.695312 54.933594 128.695312 56.460938 C 128.695312 54.988281 128.621094 53.875 127.933594 52.546875 C 127.222656 51.171875 126.25 49.976562 125.527344 48.617188 C 123.960938 45.664062 122.027344 42.914062 120.164062 40.136719 C 118.382812 37.484375 116.640625 34.992188 115.710938 31.902344 C 114.828125 28.972656 114.90625 25.761719 113.511719 22.996094 "/>
<path style=" stroke:none;fill-rule:evenodd;fill:rgb(85.098039%,85.490196%,75.686275%);fill-opacity:1;" d="M 128.695312 78.773438 C 129.578125 80.351562 130.390625 81.667969 130.636719 83.472656 C 130.890625 85.335938 131.425781 87.125 131.425781 89.023438 C 131.425781 87.109375 131.476562 85.292969 130.988281 83.425781 C 130.789062 82.664062 130.664062 81.871094 130.34375 81.148438 C 129.886719 80.121094 129.242188 79.148438 128.695312 78.171875 L 128.695312 78.773438 "/>
<path style=" stroke:none;fill-rule:evenodd;fill:rgb(85.098039%,85.490196%,75.686275%);fill-opacity:1;" d="M 136.589844 73.648438 C 136.941406 74.519531 137.144531 75.273438 137.210938 76.210938 C 137.246094 76.722656 136.660156 77.894531 137.199219 78.171875 C 137.199219 76.347656 137.28125 74.757812 136.589844 73.042969 L 136.589844 73.648438 "/>
<path style=" stroke:none;fill-rule:evenodd;fill:rgb(85.098039%,85.490196%,75.686275%);fill-opacity:1;" d="M 122.621094 41.6875 C 127.597656 46.628906 132.46875 51.761719 136.347656 57.621094 C 138.308594 60.585938 139.960938 63.71875 141.277344 67.019531 C 141.980469 68.785156 142.71875 70.59375 143.238281 72.425781 C 143.742188 74.203125 143.878906 76.050781 144.183594 77.867188 C 144.703125 76.316406 144.3125 74.589844 143.894531 73.058594 C 143.433594 71.382812 143 69.671875 142.371094 68.050781 C 141.679688 66.261719 140.890625 64.46875 140 62.769531 C 139.5625 61.933594 139.035156 61.152344 138.582031 60.328125 C 138.15625 59.550781 137.871094 58.703125 137.394531 57.953125 C 136.40625 56.402344 135.027344 55.066406 133.882812 53.628906 C 132.734375 52.179688 131.757812 50.617188 130.5625 49.203125 C 128.078125 46.265625 125.351562 43.492188 122.621094 40.78125 C 122.617188 41.082031 122.617188 41.382812 122.617188 41.683594 "/>
<path style=" stroke:none;fill-rule:evenodd;fill:rgb(85.098039%,85.490196%,75.686275%);fill-opacity:1;" d="M 116.546875 8.820312 C 116.21875 10.4375 115.796875 12.035156 115.523438 13.660156 C 115.21875 15.472656 115.179688 17.324219 115.113281 19.160156 C 115.054688 20.863281 114.941406 22.605469 115.039062 24.308594 C 115.128906 25.910156 115.816406 27.40625 115.972656 28.988281 C 116.027344 29.492188 115.988281 30.109375 116.261719 30.558594 C 116.625 31.160156 117.0625 31.671875 117.25 32.359375 C 117.6875 33.957031 118.640625 35.199219 119.660156 36.5 C 120.585938 37.683594 121.578125 38.824219 122.675781 39.859375 C 123.789062 40.910156 125.054688 41.765625 126.171875 42.800781 C 127.308594 43.847656 128.753906 44.671875 129.96875 45.648438 C 131.378906 46.777344 132.757812 47.925781 134.070312 49.171875 C 135.277344 50.3125 136.5 51.46875 137.613281 52.703125 C 138.695312 53.914062 139.996094 55.105469 140.941406 56.417969 C 141.765625 57.5625 142.777344 58.582031 143.4375 59.839844 C 144.230469 61.34375 144.792969 63.085938 145.328125 64.695312 C 145.816406 66.15625 146.472656 67.59375 146.804688 69.097656 C 147.207031 70.917969 147.269531 72.859375 147.472656 74.710938 C 147.492188 74.859375 147.507812 75.003906 147.523438 75.152344 C 147.886719 73.710938 147.527344 72.320312 147.289062 70.890625 C 146.984375 69.03125 146.515625 67.226562 146.054688 65.402344 C 145.242188 62.179688 143.660156 59.363281 141.832031 56.605469 C 140.980469 55.324219 139.867188 54.289062 138.824219 53.167969 C 137.664062 51.921875 136.507812 50.664062 135.191406 49.574219 C 132.695312 47.511719 130.351562 45.265625 127.707031 43.367188 C 127.089844 42.921875 126.488281 42.511719 125.945312 41.972656 C 125.496094 41.527344 124.972656 41.429688 124.480469 41.070312 C 123.925781 40.667969 123.675781 39.933594 123.128906 39.5 C 122.410156 38.925781 121.71875 38.382812 121.066406 37.730469 C 120.578125 37.25 120.0625 36.824219 119.773438 36.195312 C 119.503906 35.605469 119.273438 35.015625 118.949219 34.449219 C 118.121094 33.007812 117.175781 31.757812 116.730469 30.136719 C 114.957031 23.703125 114.976562 17.015625 116.601562 10.550781 C 116.746094 9.945312 116.832031 9.417969 116.535156 8.832031 "/>
<path style=" stroke:none;fill-rule:evenodd;fill:rgb(85.098039%,85.490196%,75.686275%);fill-opacity:1;" d="M 121.40625 35.355469 C 123.261719 38.429688 126.011719 40.816406 128.871094 42.945312 C 130.371094 44.058594 131.886719 45.167969 133.472656 46.152344 C 135.109375 47.167969 136.738281 48.148438 138.101562 49.523438 C 139.527344 50.957031 141.085938 52.125 142.613281 53.4375 C 144.234375 54.828125 145.757812 56.441406 147.230469 57.984375 C 149.828125 60.707031 151.105469 64.679688 152.078125 68.21875 C 152.21875 67.523438 152.476562 67.046875 152.277344 66.332031 C 152.011719 65.363281 151.785156 64.375 151.417969 63.4375 C 150.699219 61.605469 149.722656 59.816406 148.492188 58.269531 C 145.996094 55.140625 142.832031 52.605469 139.609375 50.253906 C 138.003906 49.078125 136.375 47.929688 134.796875 46.707031 C 133.054688 45.359375 131.132812 44.253906 129.421875 42.871094 C 126.46875 40.496094 123.382812 38.023438 121.40625 34.75 C 121.410156 34.953125 121.410156 35.152344 121.410156 35.355469 "/>
<path style=" stroke:none;fill-rule:evenodd;fill:rgb(85.098039%,85.490196%,75.686275%);fill-opacity:1;" d="M 108.648438 40.480469 C 106.679688 45.695312 105.574219 51.191406 103.570312 56.390625 C 102.652344 58.769531 101.664062 61.105469 100.859375 63.527344 C 100.007812 66.105469 98.8125 68.3125 97.410156 70.632812 L 98.019531 70.933594 C 99.203125 68.289062 100.539062 65.792969 101.480469 63.046875 C 102.507812 60.054688 103.808594 57.175781 104.867188 54.199219 C 105.835938 51.484375 106.859375 48.671875 107.394531 45.835938 C 107.613281 44.691406 107.847656 43.582031 108.351562 42.523438 C 108.539062 42.128906 109.289062 40.796875 108.65625 40.480469 "/>
<path style=" stroke:none;fill-rule:evenodd;fill:rgb(85.098039%,85.490196%,75.686275%);fill-opacity:1;" d="M 86.78125 78.773438 C 86.433594 79.464844 86.339844 80.234375 86.242188 80.992188 C 86.132812 81.855469 85.804688 82.757812 85.914062 83.632812 C 86.152344 85.539062 86.464844 87.433594 86.78125 89.324219 C 86.847656 87.320312 86.480469 85.332031 86.480469 83.332031 C 86.480469 81.390625 87.085938 79.507812 87.085938 77.566406 C 86.980469 77.972656 86.878906 78.375 86.777344 78.777344 "/>
<path style=" stroke:none;fill-rule:evenodd;fill:rgb(85.098039%,85.490196%,75.686275%);fill-opacity:1;" d="M 82.835938 86.007812 C 82.65625 83.863281 82.242188 81.40625 82.550781 79.265625 C 82.820312 77.394531 84.351562 75.90625 84.351562 73.949219 C 83.566406 75.773438 82.605469 77.546875 82.40625 79.542969 C 82.179688 81.804688 82.390625 84.050781 82.53125 86.3125 C 82.640625 86.21875 82.742188 86.117188 82.835938 86.007812 "/>
<path style=" stroke:none;fill-rule:evenodd;fill:rgb(85.098039%,85.490196%,75.686275%);fill-opacity:1;" d="M 111.6875 37.164062 C 111.6875 38.675781 111.992188 40.171875 111.992188 41.6875 L 111.992188 36.863281 C 111.875 36.953125 111.777344 37.050781 111.6875 37.160156 "/>
<path style=" stroke:none;fill-rule:evenodd;fill:rgb(85.098039%,85.490196%,75.686275%);fill-opacity:1;" d="M 113.507812 19.074219 C 113.410156 17.992188 113.3125 16.910156 113.210938 15.828125 C 113.117188 14.78125 113.390625 13.742188 113.484375 12.707031 C 113.585938 11.585938 113.878906 10.46875 114.132812 9.375 C 114.351562 8.414062 114.355469 7.953125 114.117188 7.011719 C 113.78125 9.011719 113.207031 10.925781 113.207031 12.972656 L 113.207031 19.675781 C 113.308594 19.476562 113.40625 19.273438 113.507812 19.074219 "/>
<path style=" stroke:none;fill-rule:evenodd;fill:rgb(0.392157%,0.392157%,0.392157%);fill-opacity:1;" d="M 145.398438 92.039062 C 146.191406 91.054688 147.066406 90.070312 147.476562 88.855469 C 148.007812 87.28125 148.226562 85.539062 148.433594 83.898438 C 148.558594 84.894531 148.757812 85.882812 148.78125 86.886719 C 148.804688 88.070312 148.378906 89.105469 148.09375 90.238281 C 147.894531 91.042969 148.015625 91.464844 147.183594 91.675781 C 146.589844 91.820312 145.984375 91.886719 145.398438 92.035156 "/>
<path style=" stroke:none;fill-rule:evenodd;fill:rgb(0.392157%,0.392157%,0.392157%);fill-opacity:1;" d="M 141.144531 92.640625 C 141.511719 92.277344 141.980469 92 142.273438 91.5625 C 142.679688 90.964844 142.765625 90.097656 143.050781 89.433594 C 143.617188 88.121094 144.09375 86.777344 144.488281 85.40625 C 144.488281 87.542969 144.242188 89.660156 143.785156 91.75 C 143.585938 92.667969 143.59375 92.695312 142.699219 92.6875 C 142.183594 92.679688 141.664062 92.640625 141.144531 92.640625 "/>
<path style=" stroke:none;fill-rule:evenodd;fill:rgb(0.392157%,0.392157%,0.392157%);fill-opacity:1;" d="M 126.871094 97.769531 C 127.296875 96.082031 127.78125 94.394531 127.78125 92.640625 C 128.054688 93.445312 128.496094 94.710938 128.367188 95.550781 C 128.226562 96.476562 127.4375 97.089844 126.871094 97.769531 "/>
<path style=" stroke:none;fill-rule:evenodd;fill:rgb(0.392157%,0.392157%,0.392157%);fill-opacity:1;" d="M 116.847656 101.988281 C 117.820312 101.265625 118.855469 100.558594 119.582031 99.578125 C 120.394531 98.484375 120.800781 97.160156 121.40625 95.957031 C 121.167969 97.609375 121.261719 99.265625 120.667969 100.855469 C 120.519531 101.25 120.324219 101.402344 119.914062 101.480469 C 118.894531 101.675781 117.867188 101.820312 116.847656 101.992188 "/>
<path style=" stroke:none;fill-rule:evenodd;fill:rgb(0.392157%,0.392157%,0.392157%);fill-opacity:1;" d="M 111.6875 101.386719 C 112.285156 100.199219 113.027344 99.074219 113.394531 97.785156 C 113.847656 96.175781 114.238281 94.550781 114.722656 92.945312 C 114.722656 95.957031 114.921875 99 114.421875 101.988281 C 113.507812 101.789062 112.597656 101.585938 111.6875 101.386719 "/>
<path style=" stroke:none;fill-rule:evenodd;fill:rgb(0.392157%,0.392157%,0.392157%);fill-opacity:1;" d="M 106.828125 98.972656 C 106.828125 97.46875 106.960938 95.96875 107.128906 94.472656 C 107.199219 93.832031 107.414062 93.21875 107.589844 92.605469 C 107.816406 91.800781 107.738281 91.050781 107.738281 90.230469 L 107.738281 95.28125 C 107.738281 96.949219 108.070312 98.542969 108.347656 100.179688 L 106.828125 98.972656 "/>
<path style=" stroke:none;fill-rule:evenodd;fill:rgb(0.392157%,0.392157%,0.392157%);fill-opacity:1;" d="M 101.96875 92.945312 C 102.621094 89.050781 103.660156 85.386719 105.308594 81.789062 C 104.761719 83.960938 104.285156 86.152344 103.902344 88.359375 C 103.519531 90.578125 103.433594 92.820312 103.183594 95.054688 L 101.96875 92.945312 "/>
<path style=" stroke:none;fill-rule:evenodd;fill:rgb(0.392157%,0.392157%,0.392157%);fill-opacity:1;" d="M 95.285156 93.546875 C 94.699219 91.792969 95.230469 90.070312 95.894531 88.421875 C 95.894531 89.75 96.238281 90.941406 96.667969 92.1875 C 97.058594 93.316406 96.148438 93.203125 95.289062 93.546875 "/>
<path style=" stroke:none;fill-rule:evenodd;fill:rgb(0.392157%,0.392157%,0.392157%);fill-opacity:1;" d="M 92.25 94.453125 C 91.261719 92.984375 91.339844 91.316406 91.339844 89.628906 C 91.636719 90.519531 91.941406 91.414062 92.171875 92.328125 C 92.394531 93.214844 93.144531 93.832031 93.769531 94.453125 L 92.25 94.453125 "/>
<path style=" stroke:none;fill-rule:evenodd;fill:rgb(0.392157%,0.392157%,0.392157%);fill-opacity:1;" d="M 87.695312 94.453125 C 87.292969 92.863281 86.78125 91.28125 86.78125 89.628906 C 87.179688 90.609375 87.574219 91.589844 87.96875 92.570312 C 88.128906 92.96875 88.1875 93.394531 88.289062 93.808594 C 88.394531 94.21875 88.933594 94.476562 89.210938 94.753906 C 88.707031 94.65625 88.199219 94.554688 87.695312 94.457031 "/>
<path style=" stroke:none;fill-rule:evenodd;fill:rgb(0.392157%,0.392157%,0.392157%);fill-opacity:1;" d="M 81.921875 92.945312 C 81.523438 90.960938 81.425781 88.890625 81.921875 86.914062 C 82.117188 88.269531 82.070312 90.058594 82.589844 91.328125 C 83.035156 92.425781 84.144531 93.339844 84.960938 94.148438 L 81.921875 92.945312 "/>
<path style=" stroke:none;fill-rule:evenodd;fill:rgb(0.392157%,0.392157%,0.392157%);fill-opacity:1;" d="M 79.796875 91.738281 C 78.765625 90.097656 77.542969 88.503906 76.976562 86.628906 C 76.371094 84.625 75.894531 82.582031 75.476562 80.535156 C 75.292969 79.632812 74.9375 78.710938 74.9375 77.785156 L 74.9375 74.21875 C 74.9375 73.226562 74.84375 72.230469 74.9375 71.234375 C 75.035156 70.210938 75.34375 69.226562 75.546875 68.21875 C 74.925781 70.371094 74.308594 72.484375 74.1875 74.730469 C 74.070312 76.9375 74.132812 79.144531 74.257812 81.351562 C 74.382812 83.597656 74.953125 85.78125 75.394531 87.980469 C 75.546875 88.730469 75.996094 89.070312 76.601562 89.476562 C 77.679688 90.203125 78.730469 90.980469 79.792969 91.738281 "/>
<path style=" stroke:none;fill-rule:evenodd;fill:rgb(85.098039%,85.490196%,75.686275%);fill-opacity:1;" d="M 167.871094 124 C 164.3125 123.605469 161.3125 122.445312 158.0625 121.011719 C 156.746094 120.429688 155.234375 119.898438 154.195312 118.863281 C 152.921875 117.601562 151.503906 116.390625 150.382812 114.992188 C 149.507812 113.898438 148.738281 112.679688 148.285156 111.351562 C 148.046875 110.660156 147.789062 109.972656 147.5625 109.28125 C 147.398438 108.785156 147.363281 107.546875 146.898438 107.21875 C 146.449219 106.898438 145.363281 107.121094 144.839844 107.140625 C 144.039062 107.171875 143.242188 107.230469 142.449219 107.332031 C 141.625 107.433594 140.839844 107.699219 140.039062 107.882812 C 139.066406 108.105469 138.058594 108.1875 137.078125 108.359375 C 135.363281 108.664062 133.664062 109.039062 131.949219 109.339844 C 130.105469 109.660156 128.625 108.730469 126.835938 108.632812 C 125.457031 108.554688 124.171875 108.015625 122.824219 108.597656 C 122.113281 108.90625 119.5625 110.160156 120.292969 111.128906 C 121.101562 112.191406 122.164062 112.6875 123.351562 113.222656 C 124.097656 113.5625 124.757812 113.898438 125.59375 113.964844 C 126.457031 114.039062 127.3125 114.011719 128.175781 114.132812 C 131.347656 114.589844 134.304688 116.003906 137.128906 117.425781 C 138.273438 118 139.390625 118.550781 140.566406 119.0625 C 141.71875 119.5625 142.710938 120.34375 143.859375 120.851562 C 146.34375 121.953125 149.03125 122.6875 151.660156 123.375 C 154.347656 124.074219 157.113281 124.6875 159.894531 124.84375 C 161.21875 124.917969 162.609375 124.996094 163.929688 124.863281 C 165.273438 124.726562 166.558594 124.300781 167.871094 124 "/>
<path style=" stroke:none;fill-rule:evenodd;fill:rgb(0.392157%,0.392157%,0.392157%);fill-opacity:1;" d="M 145.703125 100.78125 C 147.238281 100.273438 148.824219 99.8125 150.453125 99.769531 C 152.164062 99.722656 153.996094 100.253906 155.613281 100.769531 C 158.980469 101.84375 162.433594 101.632812 165.921875 101.429688 C 167.632812 101.328125 169.28125 101.292969 170.972656 100.957031 C 172.769531 100.59375 174.574219 100.183594 176.34375 99.710938 C 179.75 98.796875 183.015625 97.5625 186.535156 97.125 C 188.222656 96.910156 189.886719 96.8125 191.589844 96.851562 C 192.847656 96.878906 194.542969 96.617188 195.683594 97.261719 C 196.933594 97.972656 198.03125 98.777344 199.058594 99.777344 C 199.53125 100.242188 199.578125 100.789062 199.707031 101.417969 C 199.882812 102.289062 200.160156 103.09375 199.882812 103.964844 C 199.421875 105.417969 199.269531 106.90625 198.492188 108.242188 C 197.71875 109.566406 196.953125 110.929688 195.9375 112.089844 C 194.957031 113.214844 193.839844 114.210938 192.742188 115.21875 C 191.457031 116.394531 190.210938 117.824219 188.691406 118.699219 C 186.484375 119.964844 184.191406 121.117188 181.847656 122.097656 C 180.683594 122.582031 179.519531 123.167969 178.261719 123.355469 C 176.996094 123.542969 175.726562 123.707031 174.460938 123.890625 C 171.625 124.300781 168.449219 124.027344 165.605469 123.746094 C 162.984375 123.488281 160.570312 122.117188 158.195312 121.070312 C 155.800781 120.011719 153.988281 118.660156 152.152344 116.832031 C 151.199219 115.890625 150.132812 115.011719 149.46875 113.835938 C 148.863281 112.761719 148.53125 111.730469 148.078125 110.601562 C 147.621094 109.46875 147.453125 108.117188 146.769531 107.09375 C 146.527344 106.734375 146.242188 106.0625 145.898438 105.8125 C 145.550781 105.554688 145.128906 105.71875 144.765625 105.550781 C 143.859375 105.136719 143.476562 104.070312 143.734375 103.175781 C 144.0625 102.046875 144.824219 101.484375 145.710938 100.785156 "/>
<path style=" stroke:none;fill-rule:evenodd;fill:rgb(96.862745%,94.901961%,88.627451%);fill-opacity:1;" d="M 147.523438 101.6875 C 150.257812 100.328125 153.335938 101.257812 156.101562 102.019531 C 157.453125 102.390625 158.828125 102.765625 160.238281 102.867188 C 162.035156 103 163.878906 102.894531 165.683594 102.894531 C 169.0625 102.894531 172.488281 101.632812 175.761719 100.933594 C 179.265625 100.1875 182.773438 99.308594 186.308594 98.730469 C 187.957031 98.457031 189.59375 98.394531 191.257812 98.359375 C 192.097656 98.34375 192.941406 98.320312 193.777344 98.390625 C 194.511719 98.453125 195.4375 98.371094 196.117188 98.671875 C 198.863281 99.898438 199.15625 103.324219 197.828125 105.675781 C 197.050781 107.046875 196.222656 108.6875 195.160156 109.859375 C 194.753906 110.308594 194.191406 110.59375 193.675781 110.902344 C 192.984375 111.316406 192.402344 111.859375 191.800781 112.390625 C 190.640625 113.421875 189.472656 114.296875 188.058594 114.957031 C 186.605469 115.636719 185.316406 116.367188 183.734375 116.601562 C 182.9375 116.71875 182.234375 117.136719 181.503906 117.445312 C 180.570312 117.847656 179.769531 117.933594 178.769531 117.996094 C 176.691406 118.125 174.636719 118.664062 172.546875 118.515625 C 170.574219 118.375 168.585938 118.308594 166.617188 118.152344 C 164.71875 118 162.671875 117.03125 160.996094 116.164062 C 159.261719 115.265625 157.8125 113.984375 156.480469 112.574219 C 155.085938 111.097656 154.554688 109.460938 153.601562 107.726562 C 153.171875 106.945312 152.652344 106.214844 152.179688 105.460938 C 151.777344 104.824219 151.429688 103.664062 150.59375 103.550781 C 149.625 103.421875 146.703125 103.320312 147.523438 101.691406 "/>
<path style=" stroke:none;fill-rule:evenodd;fill:rgb(85.098039%,85.490196%,75.686275%);fill-opacity:1;" d="M 184.878906 116.460938 C 183.339844 116.714844 181.902344 117.261719 180.4375 117.773438 C 179.699219 118.035156 179.023438 117.980469 178.257812 117.964844 C 177.3125 117.941406 176.351562 118.128906 175.425781 118.269531 C 173.769531 118.523438 172.308594 118.539062 170.640625 118.386719 C 168.863281 118.222656 167 118.265625 165.261719 117.832031 C 162.207031 117.066406 159.640625 115.46875 157.28125 113.441406 C 156.132812 112.457031 155.285156 111.425781 154.675781 110.042969 C 153.949219 108.394531 153.035156 106.886719 152.105469 105.347656 C 151.800781 104.84375 151.449219 103.8125 150.84375 103.621094 C 150.308594 103.453125 149.738281 103.535156 149.191406 103.421875 C 148.628906 103.304688 147.898438 103.058594 147.496094 102.621094 C 146.945312 102.015625 147.695312 101.621094 148.230469 101.625 C 151.199219 101.652344 153.4375 103.222656 155.183594 105.523438 C 156.039062 106.652344 156.613281 107.910156 157.363281 109.097656 C 158.175781 110.382812 159.3125 111.488281 160.507812 112.425781 C 162.929688 114.324219 165.941406 115.710938 168.933594 116.40625 C 171.625 117.027344 174.195312 117.511719 176.964844 117.300781 C 179.613281 117.089844 182.25 116.800781 184.882812 116.457031 "/>
<path style=" stroke:none;fill-rule:evenodd;fill:rgb(100%,100%,100%);fill-opacity:1;" d="M 186.703125 101.386719 C 187.273438 101.101562 187.824219 100.773438 188.417969 100.523438 C 189.1875 100.203125 189.90625 100.214844 190.71875 100.144531 C 192.246094 100.011719 193.867188 99.183594 195.371094 99.75 C 196.558594 100.195312 197.265625 100.867188 196.898438 102.179688 C 196.542969 103.449219 195.777344 104.511719 194.753906 105.339844 C 192.835938 106.886719 190.183594 107.652344 187.855469 106.699219 C 186.894531 106.300781 185.6875 104.890625 185.703125 103.816406 C 185.707031 103.433594 185.671875 102.824219 185.828125 102.46875 C 186.019531 102.039062 186.429688 101.746094 186.703125 101.386719 "/>
<path style=" stroke:none;fill-rule:evenodd;fill:rgb(100%,100%,100%);fill-opacity:1;" d="M 147.523438 101.6875 C 149.777344 101.6875 152.023438 102.191406 153.652344 103.835938 C 154.550781 104.742188 155.292969 105.804688 156.082031 106.800781 C 156.839844 107.761719 157.148438 108.894531 157.996094 109.804688 C 159.746094 111.699219 161.640625 113.214844 163.855469 114.550781 C 166.144531 115.933594 168.75 116.359375 171.320312 116.949219 C 174.011719 117.566406 176.835938 117.34375 179.5625 117.113281 C 180.792969 117.007812 182.019531 116.863281 183.253906 116.757812 C 184.683594 116.632812 185.796875 116.003906 187.0625 115.378906 C 188.28125 114.773438 189.578125 114.25 190.632812 113.378906 C 191.644531 112.535156 192.605469 111.65625 193.675781 110.878906 C 194.695312 110.140625 195.550781 109.613281 196.183594 108.5 C 196.847656 107.320312 197.542969 106.164062 198.242188 105.003906 C 197.21875 105.796875 196.160156 106.558594 195.171875 107.390625 C 194.167969 108.234375 193.253906 109.101562 192.09375 109.730469 C 189.664062 111.054688 187.230469 112.398438 184.59375 113.269531 C 182.308594 114.027344 180.105469 114.820312 177.703125 115.054688 C 176.4375 115.175781 175.164062 115.3125 173.890625 115.257812 C 172.59375 115.207031 171.398438 114.824219 170.15625 114.484375 C 167.996094 113.898438 165.410156 112.921875 163.785156 111.332031 C 162.941406 110.503906 162.117188 109.859375 161.417969 108.894531 C 160.683594 107.875 159.835938 107.089844 158.929688 106.230469 C 157.3125 104.703125 156.214844 102.199219 153.96875 101.472656 C 152.058594 100.847656 149.359375 100.777344 147.53125 101.683594 "/>
<path style=" stroke:none;fill-rule:evenodd;fill:rgb(85.098039%,85.490196%,75.686275%);fill-opacity:1;" d="M 172.125 104.101562 C 175.496094 104.101562 178.589844 103.398438 181.84375 102.59375 C 180.234375 102.59375 178.667969 102.929688 177.113281 103.3125 C 175.46875 103.71875 173.757812 103.691406 172.121094 104.101562 "/>
<path style=" stroke:none;fill-rule:evenodd;fill:rgb(85.098039%,85.490196%,75.686275%);fill-opacity:1;" d="M 167.566406 108.921875 C 169.058594 108.777344 170.554688 108.578125 172.050781 108.472656 C 173.503906 108.367188 175.007812 108.566406 176.441406 108.253906 C 177.789062 107.957031 178.992188 107.230469 180.375 107.066406 C 181.835938 106.890625 182.96875 106.253906 184.273438 105.605469 C 183.757812 105.707031 183.222656 105.738281 182.738281 105.953125 C 182.132812 106.21875 181.632812 106.554688 180.976562 106.726562 C 179.53125 107.105469 178.066406 107.382812 176.597656 107.628906 C 175.210938 107.863281 173.824219 108.242188 172.414062 108.3125 C 171.550781 108.355469 170.683594 108.320312 169.820312 108.320312 C 168.949219 108.320312 168.351562 108.609375 167.566406 108.921875 "/>
<path style=" stroke:none;fill-rule:evenodd;fill:rgb(85.098039%,85.490196%,75.686275%);fill-opacity:1;" d="M 167.871094 111.636719 C 169.5625 111.824219 171.253906 112.019531 172.941406 112.230469 C 174.472656 112.417969 176.03125 111.828125 177.488281 111.441406 C 179 111.039062 180.46875 111.109375 181.925781 110.46875 C 183.605469 109.726562 185.316406 109.039062 187.007812 108.320312 C 185.53125 108.320312 184.6875 109.226562 183.351562 109.683594 C 181.574219 110.292969 179.828125 110.839844 177.953125 110.996094 C 176.203125 111.144531 174.597656 111.816406 172.820312 111.5625 C 171.074219 111.316406 169.5 110.824219 167.875 111.636719 "/>
</g>
</svg>
