<?xml version="1.0" encoding="UTF-8"?>
<svg id="Layer_1" data-name="Layer 1" xmlns="http://www.w3.org/2000/svg" xmlns:xlink="http://www.w3.org/1999/xlink" viewBox="0 0 1035.94 1035.94">
  <defs>
    <style>
      .great_grandfather-cls-1 {
        fill: url(#linear-gradient);
      }

      .great_grandfather-cls-1, .great_grandfather-cls-2, .great_grandfather-cls-3, .great_grandfather-cls-4, .great_grandfather-cls-5, .great_grandfather-cls-6, .great_grandfather-cls-7, .great_grandfather-cls-8, .great_grandfather-cls-9, .great_grandfather-cls-10, .great_grandfather-cls-11, .great_grandfather-cls-12, .great_grandfather-cls-13, .great_grandfather-cls-14, .great_grandfather-cls-15, .great_grandfather-cls-16, .great_grandfather-cls-17, .great_grandfather-cls-18, .great_grandfather-cls-19, .great_grandfather-cls-20, .great_grandfather-cls-21, .great_grandfather-cls-22, .great_grandfather-cls-23, .great_grandfather-cls-24, .great_grandfather-cls-25, .great_grandfather-cls-26, .great_grandfather-cls-27, .great_grandfather-cls-28, .great_grandfather-cls-29, .great_grandfather-cls-30, .great_grandfather-cls-31, .great_grandfather-cls-32, .great_grandfather-cls-33, .great_grandfather-cls-34, .great_grandfather-cls-35, .great_grandfather-cls-36, .great_grandfather-cls-37, .great_grandfather-cls-38, .great_grandfather-cls-39, .great_grandfather-cls-40, .great_grandfather-cls-41, .great_grandfather-cls-42 {
        stroke-width: 0px;
      }

      .great_grandfather-cls-2 {
        fill: #facbc2;
      }

      .great_grandfather-cls-3 {
        fill: #602410;
      }

      .great_grandfather-cls-4 {
        fill: #26190d;
      }

      .great_grandfather-cls-5 {
        fill: #388389;
      }

      .great_grandfather-cls-6 {
        fill: #1a110c;
      }

      .great_grandfather-cls-7 {
        fill: #3e170c;
      }

      .great_grandfather-cls-8 {
        fill: #3f230e;
      }

      .great_grandfather-cls-9 {
        fill: #0f4047;
      }

      .great_grandfather-cls-10 {
        fill: #0e1815;
      }

      .great_grandfather-cls-11 {
        fill: #0a565e;
      }

      .great_grandfather-cls-12 {
        fill: #226d74;
      }

      .great_grandfather-cls-13 {
        fill: #251009;
      }

      .great_grandfather-cls-14 {
        fill: #d2a278;
      }

      .great_grandfather-cls-15 {
        fill: #d1e3e3;
      }

      .great_grandfather-cls-16 {
        fill: #c4c8a5;
      }

      .great_grandfather-cls-17 {
        fill: #ddb893;
      }

      .great_grandfather-cls-18 {
        fill: #c7d9c8;
      }

      .great_grandfather-cls-19 {
        fill: #d4cf9d;
      }

      .great_grandfather-cls-20 {
        fill: #ac6847;
      }

      .great_grandfather-cls-21 {
        fill: #bfe1db;
      }

      .great_grandfather-cls-22 {
        fill: #aec6c4;
      }

      .great_grandfather-cls-23 {
        fill: #c09459;
      }

      .great_grandfather-cls-24 {
        fill: #b3a25c;
      }

      .great_grandfather-cls-25 {
        fill: #cfb3a5;
      }

      .great_grandfather-cls-26 {
        fill: #905236;
      }

      .great_grandfather-cls-27 {
        fill: #ba8153;
      }

      .great_grandfather-cls-28 {
        fill: #96c6cb;
      }

      .great_grandfather-cls-29 {
        fill: #95e1d5;
      }

      .great_grandfather-cls-30 {
        fill: #015a4f;
      }

      .great_grandfather-cls-31 {
        fill: #9eb4ac;
      }

      .great_grandfather-cls-32 {
        fill: #e6d3c8;
      }

      .great_grandfather-cls-33 {
        fill: #fcefdd;
      }

      .great_grandfather-cls-34 {
        fill: #e7e5de;
      }

      .great_grandfather-cls-35 {
        fill: #e7eef0;
      }

      .great_grandfather-cls-36 {
        fill: #046f68;
      }

      .great_grandfather-cls-37 {
        fill: #039b99;
      }

      .great_grandfather-cls-38 {
        fill: #018b89;
      }

      .great_grandfather-cls-39 {
        fill: #699fa0;
      }

      .great_grandfather-cls-40 {
        fill: #033428;
      }

      .great_grandfather-cls-41 {
        fill: #041c18;
      }

      .great_grandfather-cls-42 {
        fill: #014545;
      }
    </style>
    <linearGradient id="linear-gradient" x1="494.68" y1="467.54" x2="419.3" y2="670.49" gradientUnits="userSpaceOnUse">
      <stop offset="0" stop-color="#2c1208"/>
      <stop offset="1" stop-color="#0e0e0c"/>
    </linearGradient>
  </defs>
  <g>
    <path class="great_grandfather-cls-32" d="m360.15,70.82c-22.11,29.35-17.67,52.68-18.21,85.99-8.49,12.97-21.21,54.72-23.27,70.31-2.58,19.51-.97,34.53,5.06,53.11-.05.33.05.68,0,1.01-2.89,5.07.1,25.12,2.02,31.87,3.16,11.06,11.35,20.13,17.2,29.84.92,17.29-.45,36.55,2.02,53.62-2.13-.29-4.1.44-6.07,1.01-48.59-5.57-67.14,42.54-33.38,74.36,6.52,23.7,8.95,51.32,33.38,63.23,7.82,3.81,14.79,5.97,23.27,7.59,2.18,54.36,39.81,87.03,89.53,101.67,1.17,1.26.11,4.67.51,5.06-3.32,3.97-5.78,8.55-8.09,13.15-17.85,20.24-40.57,35.09-57.66,56.15-39.91,49.17-58,123.47-61.71,185.64-2.33.48-3-.73-4.05-1.01,8.56-2.1-7.12-26.74-13.15-43-10.67-28.75-18.85-58.52-30.35-87-7.08-40.15-13.33-80.57-26.3-119.38-10.12-30.26-26.37-58.77-36.42-89.03-7.88-23.72-32.81-121.15-36.42-144.67-7.14-46.57-14.44-187.53-6.07-230.66,3.8-19.59,16.54-43.46,28.33-59.69,45.46-62.59,90.8-46.82,159.84-59.18Z"/>
    <path class="great_grandfather-cls-32" d="m799.21,905.44c-4.47-2.28-6.18.93-13.15,5.06-11.39,6.74-35.9,22.6-48.05,24.28-20.44,2.83-23.37-1.7-23.77-20.23-.16-7.47,2.1-16.3,2.02-23.77-.69-63.63-13.18-148.03-53.62-199.3-6.3-7.99-15.59-15.45-22.26-22.76-6.57-7.2-11.82-18.78-17.2-17.2,33.35-19.72,64.03-49.46,72.84-88.52,1.03-4.59.44-10.76,1.01-15.17.11-.81,2.01-1.39,2.02-1.52,11.08,8.7,16.47,8.38,29.34,2.02,26.73-13.22,24.25-42.71,29.34-56.15,3.76-9.92,20.45-26.18,22.26-41.48,3.32-28.18-27.2-61.37-55.64-46.03.06-.53-1.81-3.06-1.01-10.62,2.25-21.25,5.77-42.38,7.08-63.73l3.03-6.58c43.72-29.62,43.35-105.33,34.4-151.75-5.28-27.37-14.41-46.63-33.38-66.77-36.36-38.6-102.01-66.69-152.76-41.48-17.09-17.32-30.92-24.62-54.63-29.34-.04-.06-1.12.23-1.01-1.01,35.12-2.11,69.81-.36,104.71,3.03,74.59,7.26,166.79,25.74,224.59,76.89,32.03,28.35,44.64,61.64,32.88,103.7-29.36,61.86-43.64,129.17-66.77,193.23-12.83,35.54-50.01,108.18-50.58,140.62-.18,10.03,4.41,39.02,6.07,51.59l-22.26,11.13c-2.45,6.77,10.4,64.67,12.14,76.89.68,4.77-1.69,10.62,2.02,13.15,4.18,51.3,14.34,103.16,18.21,151.75,5.35,11.4,3.43,41.62,12.14,50.08Z"/>
  </g>
  <g>
    <path class="great_grandfather-cls-25" d="m320.7,903.42c1.05.28,1.71,1.49,4.05,1.01-.14,2.33-1.84,13.22-.51,14.16,30.15,2.74,60.33,5.11,90.54,7.08,5.71.37,11.48.71,17.2,1.01,22.54,1.2,45.21,2.92,67.78,3.03,4.44.02,34.5.75,35.41-1.01,3.59.36,3.84-.01,4.05,0,5.86.37,11.25,1,17.2,1.01,9.36.02,18.94-.69,28.33-1.01,8.13-.28,16.2-1.54,24.28-2.02,12.47-.75,24.95-.85,37.43-2.02,9.17-.86,18.25-2.94,27.31-4.05,13.32-1.62,28.3-1.37,40.47-6.07.41,18.54,3.33,23.06,23.77,20.23,12.16-1.68,36.67-17.54,48.05-24.28q38.19,12.14,76.38,24.28c36.82,4.88,72.85,11.84,109.26,18.21,2.75.48,8.1,6.35,9.61,0,13,4.91,28.27,7,5.56,17.2-39.09,17.57-162.31,29.37-209.41,33.38-127.88,10.91-257.21,13.92-385.44,8.09-72.24-3.28-249-17.78-313.62-34.4-40.24-10.35-50.94-17.37-16.69-28.33-1.06,5.73,39.03-2.91,43-4.05,6.1-1.75,10.08-1.88,8.6-7.08,27.19-5.6,55.58-8.2,82.45-15.17,51.95-13.49,65.86-35.23,124.94-19.22Z"/>
    <path class="great_grandfather-cls-25" d="m799.21,905.44c2.88,2.8,41.03,18.5,47.04,20.23,36.42,10.52,91.85,10.99,135.06,27.31-1.51,6.35-6.86.48-9.61,0-36.41-6.37-72.44-13.33-109.26-18.21q-38.19-12.14-76.38-24.28c6.97-4.13,8.68-7.34,13.15-5.06Z"/>
    <path class="great_grandfather-cls-25" d="m61.71,948.94c14.54-4.65,35.97-7.91,51.59-11.13,1.48,5.2-2.5,5.33-8.6,7.08-3.96,1.14-44.06,9.78-43,4.05Z"/>
  </g>
  <path class="great_grandfather-cls-21" d="m341.94,156.81c-.03,1.83,1.28,9.3,1.01,20.23-1.05,43.51-15.05,77.96-19.22,103.19-6.03-18.58-7.64-33.6-5.06-53.11,2.06-15.59,14.78-57.34,23.27-70.31Z"/>
  <path class="great_grandfather-cls-10" d="m326.77,281.24c2.61,10.41,13.71,19.07,14.16,20.23,1.82,4.65,1.63,34.02,2.02,41.48-5.84-9.72-14.04-18.79-17.2-29.84-1.93-6.75-4.91-26.8-2.02-31.87,1.01-.02,2.03.04,3.03,0Z"/>
  <path class="great_grandfather-cls-34" d="m717.27,287.31c2.04-.08,14.29-2.39,16.19-3.03v39.45l-3.03,6.58c-1.31,21.36-4.83,42.48-7.08,63.73-.8,7.56,1.07,10.09,1.01,10.62-.18,1.61-1.93.69-2.02,1.52-.93,8.49-.08,17.45-1.01,25.8-.57,5.06-1.29,10.13-2.02,15.17-.78,5.35-.8,11.18-1.01,12.14-1.08,4.79-11.83,28.49-14.16,41.48-2.99-9.88-3.78-55.26-6.07-74.36-1.84-15.38-5.97-30.66-8.09-46.03-4.56-33.04-11.74-90.93-17.2-119.38,12.72,15.99,22.52,27.18,44.51,26.3Z"/>
  <path class="great_grandfather-cls-19" d="m767.85,171.98c8.95,46.42,9.32,122.13-34.4,151.75v-39.45c5.15-1.74,3.14-.74,7.08-4.05,16.21-13.63,22.69-50.03,24.28-70.31,1.17-14.96-2.85-39.61,3.03-37.94Z"/>
  <g>
    <path class="great_grandfather-cls-18" d="m526.07,33.38c-.11,1.24.97.95,1.01,1.01,2.92,3.98,8.89,2.49,13.15,6.58-26.94,13.01-72.77,46.29-38.44,75.37,18.88,15.99,56.69,31.86,65.76,77.9l-10.62,17.2c-6.94-21.83-20.65-45.28-38.95-59.69-22.37-17.61-51.51-20.56-78.4-27.31-6.59,12.43-13.68,24.73-19.73,37.43-1.22-8.94-3.73-33.16-1.01-39.96,2.5-6.26,86.69-85.68,103.7-84.47,1.17-.54-1.09-1.76-.51-2.02,1.56-.71.47-2.68,4.05-2.02Z"/>
    <path class="great_grandfather-cls-19" d="m734.47,105.21c-23.76,12.27-62.51-21.76-89.03-26.3-2.21-.38-4.29-1.89-5.06-.51.61,31.61,3.32,63.42-3.54,94.59,2.93-34.99-31.55-85.35-55.14-109.26,50.75-25.21,116.4,2.88,152.76,41.48Z"/>
    <path class="great_grandfather-cls-15" d="m517.97,151.75c18.3,14.41,32.01,37.86,38.95,59.69l10.62-17.2c4.68,23.78,2.68,44.68-9.1,65.76-12.52,2.93-25.14,3.39-37.94,3.03q-12.39-14.67-24.79-29.34c2.62-.73,26.59-4.22,24.79-6.07-27.53-8.51-55.67-15.5-82.45-26.3,22.73-21.43,45.91-49.62,79.92-49.57Z"/>
    <path class="great_grandfather-cls-35" d="m517.97,151.75c-34.01-.05-57.19,28.14-79.92,49.57-10.07-4.06-20.29-7.41-29.34-13.66-.91-2.73,9.19-21.72,11.13-25.8,6.05-12.7,13.14-25,19.73-37.43,26.89,6.76,56.04,9.7,78.4,27.31Z"/>
    <g>
      <path class="great_grandfather-cls-31" d="m522.02,35.41c-.58.27,1.67,1.49.51,2.02-17.01-1.2-101.2,78.21-103.7,84.47-2.72,6.81-.21,31.02,1.01,39.96-1.94,4.08-12.04,23.07-11.13,25.8,9.05,6.25,19.27,9.6,29.34,13.66,26.78,10.8,54.93,17.79,82.45,26.3,1.8,1.85-22.17,5.34-24.79,6.07-5.32,1.49-10.39,3.54-15.68,5.06l-12.65,7.08c-9.12,3.25-25.79,8.37-34.4,8.09-14.39-3.29-29.55-3.78-43.5-9.1-28.86-11.01-42.66-38.67-46.54-67.78.26-10.93-1.04-18.41-1.01-20.23.54-33.31-3.9-56.64,18.21-85.99,37.8-50.17,106.62-49.74,161.87-35.41Z"/>
      <path class="great_grandfather-cls-31" d="m464.35,58.68c-11.28,11.5-23.99,21.47-34.4,33.89-26.94,32.17-25.6,54.7-47.04,57.16-30.76,3.53-26.19-14.18-21.75-35.41,5.42,9.07,8.64-7.57,24.79-23.27,20.88-20.3,49.54-31.99,78.4-32.37Z"/>
      <path class="great_grandfather-cls-22" d="m464.35,58.68c-28.87.39-57.53,12.07-78.4,32.37-16.14,15.7-19.37,32.33-24.79,23.27,9.2-44.05,19.31-61.96,55.14-67.78,8.05-1.31,62.36-6.09,56.15,5.56-.3.55-6.11,4.56-8.09,6.58Z"/>
    </g>
    <g>
      <path class="great_grandfather-cls-19" d="m581.71,63.73c23.59,23.91,58.06,74.27,55.14,109.26,6.86-31.17,4.15-62.98,3.54-94.59.77-1.38,2.85.13,5.06.51,9.14,19.39,13.97,39.31,18.21,60.19,52.24,39.07,61.63,81.29,76.89,141.13-3.94,3.31-1.93,2.3-7.08,4.05-1.9.64-14.15,2.95-16.19,3.03,1.24-4.4-12.66-3.8-24.79-13.15-5.61-4.32-18.18-21.79-21.75-28.33-6.3-11.55-9.06-24.98-15.68-36.42-17.15,28.06-36.49,30.19-66.26,36.42,3.39-2.34,4.4-4.49,10.12-5.56,37.51-52.42,9.46-136.31-62.22-132.02-6.98.42-28.44,5.13-34.9,8.09-34.33-29.08,11.5-62.35,38.44-75.37-4.26-4.09-10.23-2.59-13.15-6.58,23.71,4.72,37.54,12.02,54.63,29.34Z"/>
      <path class="great_grandfather-cls-16" d="m588.79,245.83c-9.26,6.39-19.27,11.57-30.35,14.16,11.78-21.08,13.79-41.98,9.1-65.76-9.06-46.04-46.88-61.9-65.76-77.9,6.47-2.96,27.92-7.68,34.9-8.09,71.67-4.28,99.73,79.61,62.22,132.02-5.72,1.08-6.73,3.22-10.12,5.56Z"/>
    </g>
    <g>
      <path class="great_grandfather-cls-19" d="m734.47,105.21c18.97,20.14,28.11,39.4,33.38,66.77-5.89-1.67-1.86,22.98-3.03,37.94-1.59,20.28-8.07,56.68-24.28,70.31-15.26-59.84-24.65-102.06-76.89-141.13-4.24-20.89-9.07-40.8-18.21-60.19,26.51,4.55,65.26,38.57,89.03,26.3Z"/>
      <path class="great_grandfather-cls-19" d="m670.73,245.83c3.57,6.54,16.14,24,21.75,28.33,12.13,9.35,26.02,8.75,24.79,13.15-22,.88-31.79-10.32-44.51-26.3-1.52-7.91-5.62-16.4-2.02-15.17Z"/>
    </g>
  </g>
  <g>
    <path class="great_grandfather-cls-27" d="m704.12,500.77c15.27,50.55,59.22-32.95,61.71-46.03,5.59-29.32-24.48-39.52-44.51-22.76.93-8.34.08-17.31,1.01-25.8.09-.83,1.85.09,2.02-1.52,28.44-15.34,58.96,17.85,55.64,46.03-1.8,15.3-18.5,31.55-22.26,41.48-5.09,13.44-2.61,42.93-29.34,56.15-9.16.49-21.45-2.55-27.31-10.12-5.44-7.02-1.5-29.33,0-38.95-1.56-27.95-2.07-56.2-6.07-83.97-1.6-11.14-6.92-23.91-5.06-34.9,2.12,15.37,6.25,30.65,8.09,46.03,2.29,19.1,3.08,64.48,6.07,74.36Z"/>
    <path class="great_grandfather-cls-4" d="m701.08,538.21c5.87,7.57,18.15,10.61,27.31,10.12-12.87,6.36-18.26,6.68-29.34-2.02.09-.66-3.93-9.12,2.02-8.09Z"/>
    <g>
      <path class="great_grandfather-cls-6" d="m704.12,500.77c2.34-12.99,13.08-36.69,14.16-41.48,14.16-16.04,30.41-6.23,30.86,13.15,6.21-23.4-7.59-39.66-29.84-25.29.73-5.05,1.46-10.11,2.02-15.17,20.03-16.76,50.1-6.56,44.51,22.76-2.49,13.08-46.44,96.58-61.71,46.03Z"/>
      <path class="great_grandfather-cls-14" d="m718.28,459.3c.22-.96.24-6.79,1.01-12.14,22.26-14.37,36.05,1.9,29.84,25.29-.45-19.38-16.69-29.19-30.86-13.15Z"/>
    </g>
  </g>
  <g>
    <path class="great_grandfather-cls-28" d="m377.35,421.86c-.94,13.22-1.64,26.26-3.03,39.45-1.11,10.51-2.31,20.94-4.05,31.36-9.13-28.41-18.77-66.28-23.27-95.6-.13-.85-2.01-.4-2.02-.51-2.47-17.07-1.1-36.33-2.02-53.62-.4-7.45-.2-36.83-2.02-41.48,20.68-6.05,41.48-12.4,59.69-24.28-22.35,77.57-17.77,67.05-23.27,144.67Z"/>
    <path class="great_grandfather-cls-12" d="m389.49,244.82q-12.65,15.17-25.29,30.35c-9.27,1.39-32.54,5.88-37.43,6.07-1.01.04-2.02-.02-3.03,0,.05-.33-.05-.68,0-1.01,4.17-25.23,18.17-59.68,19.22-103.19,3.87,29.11,17.67,56.77,46.54,67.78Z"/>
    <path class="great_grandfather-cls-39" d="m432.99,253.93c-7.72,1.9-14.24,7.03-21.24,10.12-2.65,1.16-7.37,4.46-9.1,5.06-11.99,4.18-26,4.2-38.44,6.07q12.65-15.17,25.29-30.35c13.95,5.32,29.11,5.81,43.5,9.1Z"/>
    <path class="great_grandfather-cls-9" d="m402.64,269.1c.72,4.84-1.91,7.69-2.02,8.09-18.21,11.88-39.01,18.23-59.69,24.28-.46-1.16-11.55-9.83-14.16-20.23,4.9-.19,28.16-4.68,37.43-6.07,12.44-1.87,26.45-1.89,38.44-6.07Z"/>
    <g>
      <path class="great_grandfather-cls-29" d="m479.53,729.41c4.79,10.77,6.13,13.72,17.7,17.2,6.14.83,4.25-2.05,4.55-2.02,1.33.13,2.71-.1,4.05,0,.1,0-.33,1.97.51,2.02,7.17.42,14.55-.09,21.75,0,.67,0,1.35,0,2.02,0l7.08,56.15-.51,54.12c7.61-39.78,19.64-79.05,39.96-114.32,3.04-5.27,6.84-10.97,10.12-16.19,8.9-14.17,22.78-25.22,26.3-42.49.93,27.92-8.03,53.57-15.17,80.43-.82,3.07,1.08,5.29,1.01,5.56-6.31,23.86-54.46,111.41-59.69,158.83-.2-.01-.46.36-4.05,0-.47-1.73-.77-3.27-1.01-5.06,2.8-5.12-.7-44.47-2.02-53.11-5.15-33.66-26.25-81.58-45.02-109.77-5.29,1.75-5.22,3.99-5.56,4.05-.33.06-.68-.04-1.01,0-2.67.34-9.21.24-12.14,0-19.22-1.59-34.71-12.1-39.45-31.36-5.83-23.66,4.63-49.83,15.17-70.82,2.31-4.6,4.77-9.18,8.09-13.15,5.9,5.76,22.9,17.18,23.27,18.72-4.38,19.76-4.22,42.62,4.05,61.21Z"/>
      <path class="great_grandfather-cls-5" d="m714.23,914.54c-12.17,4.7-27.14,4.45-40.47,6.07q-.76-45.02-1.52-90.04-12.9,47.04-25.8,94.08c-12.48,1.17-24.96,1.28-37.43,2.02,14.55-33.13,31.47-91.31,35.41-125.95.62-5.49-1.47-1.76-2.02-3.54,9.48-42.45,11.02-86.51-2.02-128.48,6.66,7.31,15.96,14.77,22.26,22.76,40.44,51.27,52.93,135.66,53.62,199.3.08,7.47-2.19,16.31-2.02,23.77Z"/>
      <path class="great_grandfather-cls-29" d="m623.18,651.51c5.38-1.58,10.63,9.99,17.2,17.2,13.05,41.97,11.5,86.03,2.02,128.48-1.55,6.93-6.57,22.21-9.1,30.35.98-31.64,8.48-63.12,11.13-95.1,4.04-48.78,2.82-21.07-3.03-3.54-6.18,18.5-24.42,34.34-42.49,40.97.07-.27-1.83-2.49-1.01-5.56,7.15-26.86,16.1-52.51,15.17-80.43-.29-8.62-.61-16.93-3.03-25.29,3.68-1.89,9.76-5.08,13.15-7.08Z"/>
      <path class="great_grandfather-cls-40" d="m644.43,732.44c-28.89,66.07-53.91,133.57-88.01,197.27-5.94-.01-11.34-.64-17.2-1.01,5.23-47.43,53.38-134.97,59.69-158.83,18.07-6.63,36.31-22.47,42.49-40.97,5.86-17.53,7.07-45.24,3.03,3.54Z"/>
      <path class="great_grandfather-cls-36" d="m633.3,827.54c-12.48,40.1-27.9,65.22-48.56,101.17-9.38.32-18.97,1.03-28.33,1.01,34.11-63.7,59.12-131.2,88.01-197.27-2.65,31.97-10.15,63.46-11.13,95.1Z"/>
      <path class="great_grandfather-cls-30" d="m422.88,730.42c4.68,17.36,13.3,33.81,20.23,50.58,18.94,45.79,33.92,83.27,67.78,121.4.87,2.54,8.41,14.59,10.12,25.8,1.57,1.26,11.16.2,14.16.51-.91,1.76-30.96,1.03-35.41,1.01-48.93-61.03-71.66-122.14-78.91-199.8.48-1.22.93.5,2.02.51Z"/>
      <path class="great_grandfather-cls-42" d="m609.02,926.68c-8.07.48-16.15,1.74-24.28,2.02,20.66-35.94,36.08-61.07,48.56-101.17,2.53-8.14,7.56-23.42,9.1-30.35.55,1.78,2.65-1.95,2.02,3.54-3.94,34.64-20.86,92.82-35.41,125.95Z"/>
      <path class="great_grandfather-cls-11" d="m673.77,920.61c-9.07,1.1-18.14,3.19-27.31,4.05q12.9-47.04,25.8-94.08.76,45.02,1.52,90.04Z"/>
      <path class="great_grandfather-cls-10" d="m428.95,733.46c4.75,19.26,20.24,29.78,39.45,31.36,5.84,22.17,16.34,43.02,23.27,64.75,3.72,11.66,6.53,23.7,10.12,35.41-3.25.95-2.83-8.71-4.55-9.1-2.05-.47-2.43,4.82-4.05,5.06-3.02.45-16.49-30.67-20.74-37.94-5.71-9.77-22.25-35.95-29.34-41.98-6.94-16.78-15.55-33.23-20.23-50.58,6.79.06,2.13,2.75,6.07,3.03Z"/>
      <g>
        <path class="great_grandfather-cls-40" d="m428.95,733.46c-3.94-.29.72-2.97-6.07-3.03-1.09-.01-1.55-1.72-2.02-.51,7.25,77.66,29.98,138.77,78.91,199.8-22.57-.11-45.25-1.84-67.78-3.03-3.78-30.5-11.48-61.96-15.68-93.07q-.76,46.03-1.52,92.06c-30.21-1.97-60.39-4.34-90.54-7.08-1.33-.95.37-11.83.51-14.16,3.71-62.17,21.8-136.47,61.71-185.64,17.09-21.06,39.81-35.91,57.66-56.15-10.54,20.99-21.01,47.15-15.17,70.82Z"/>
        <path class="great_grandfather-cls-41" d="m431.98,926.68c-5.72-.3-11.49-.64-17.2-1.01q.76-46.03,1.52-92.06c4.2,31.11,11.9,62.58,15.68,93.07Z"/>
        <path class="great_grandfather-cls-10" d="m403.15,732.44l1.52,1.52c-38.01,51.68-40.36,116.1-53.11,176.54-8.66-61.26,3.5-134.82,51.59-178.05Z"/>
      </g>
      <path class="great_grandfather-cls-20" d="m569.57,714.23c-5.27.43-15.46,4.3-21.75,4.05-1.65.43-1.64,8.15-1.52,9.1-1.01-.14-2.46.23-3.03,0-9.18-3.65-17.63-10.04-25.29-16.19-1.25-3.76-4.89-7.2-3.03-11.13,18.04-4.12,34.96-8.9,52.1-16.19l2.53,30.35Z"/>
      <path class="great_grandfather-cls-29" d="m586.76,726.37c-3.28,5.22-7.08,10.91-10.12,16.19,2.91-4.82-14.45,4.22-22.76,5.06-3.7.37-2.37-2.04-2.53-2.02-.27-4.54-4.94-17.27-5.06-18.21-.12-.96-.13-8.67,1.52-9.1,6.29.25,16.48-3.62,21.75-4.05,2.68-.22,4.94.43,7.59-1.01q4.81,6.58,9.61,13.15Z"/>
      <path class="great_grandfather-cls-27" d="m514.94,700.07c-1.85,3.93,1.79,7.37,3.03,11.13,3.81,11.48,8.41,23.8,10.12,35.41-7.2-.09-14.58.42-21.75,0-.83-.05-.4-2.02-.51-2.02l-2.02-43.5c3.11-.19,8.32-.37,11.13-1.01Z"/>
      <path class="great_grandfather-cls-29" d="m503.81,701.08l2.02,43.5c-1.33-.1-2.72.13-4.05,0-11.15-5.03-13.27-17.61-20.23-26.3,2.57-11.89,10.95-16,22.26-17.2Z"/>
      <path class="great_grandfather-cls-24" d="m501.79,744.58c-.31-.03,1.59,2.85-4.55,2.02-11.57-3.48-12.91-6.43-17.7-17.2,1.46-1.29.87-5.78,2.02-11.13,6.96,8.7,9.08,21.27,20.23,26.3Z"/>
      <path class="great_grandfather-cls-23" d="m576.65,742.56c-20.32,35.27-32.35,74.53-39.96,114.32l.51-54.12-7.08-56.15c5.03.02,10.16.23,15.17,0,5.06-.23,5.76-.99,6.07-1.01.16-.01-1.17,2.39,2.53,2.02,8.32-.84,25.67-9.88,22.76-5.06Z"/>
      <path class="great_grandfather-cls-38" d="m534.16,923.65c.24,1.79.54,3.33,1.01,5.06-3-.3-12.59.76-14.16-.51-1.71-11.21-9.24-23.26-10.12-25.8-3.79-11.02-5.63-26.11-9.1-37.43-3.59-11.71-6.4-23.74-10.12-35.41,4.58,5.78,2.69-3.93,11.13-5.56-9.21-19.02-16.49-38.84-22.26-59.18.33-.04.69.06,1.01,0,17.25,45.73,46.16,111.34,52.61,158.83Z"/>
      <path class="great_grandfather-cls-15" d="m534.16,923.65c-6.45-47.49-35.36-113.11-52.61-158.83.34-.06.27-2.3,5.56-4.05,18.77,28.19,39.87,76.1,45.02,109.77,1.32,8.64,4.82,47.99,2.02,53.11Z"/>
      <path class="great_grandfather-cls-37" d="m480.54,764.82c5.77,20.34,13.04,40.17,22.26,59.18-8.44,1.64-6.55,11.35-11.13,5.56-6.93-21.73-17.43-42.58-23.27-64.75,2.93.24,9.47.34,12.14,0Z"/>
      <path class="great_grandfather-cls-26" d="m543.26,727.39l2.02,19.22c-5.02.23-10.15.02-15.17,0-.67,0-1.35,0-2.02,0-1.71-11.6-6.31-23.93-10.12-35.41,7.66,6.14,16.11,12.53,25.29,16.19Z"/>
      <path class="great_grandfather-cls-40" d="m501.79,864.97c3.47,11.32,5.32,26.41,9.1,37.43-33.87-38.13-48.85-75.61-67.78-121.4,7.09,6.03,23.62,32.21,29.34,41.98,4.25,7.27,17.72,38.39,20.74,37.94,1.62-.24,2-5.53,4.05-5.06,1.72.4,1.3,10.06,4.55,9.1Z"/>
      <path class="great_grandfather-cls-3" d="m546.3,727.39c.12.94,4.79,13.67,5.06,18.21-.31.02-1.01.78-6.07,1.01l-2.02-19.22c.58.23,2.02-.14,3.03,0Z"/>
    </g>
    <g>
      <path class="great_grandfather-cls-1" d="m344.98,396.57c.01.1,1.89-.35,2.02.51,4.5,29.32,14.14,67.2,23.27,95.6,1.77,5.5,2.95,10.65,5.06,16.19,6.07,15.92,18.84,43.42,31.36,54.63-3.92,16.18,5.43,32.65,19.73,40.47,34.14,18.68,70.49-8.92,95.1-31.36q22.51,17.2,45.02,34.4c-11.93-2.12-77.05-1.08-85.49,4.05l-1.01,2.02c1.98.76,3.69.84,5.56,2.02.17.11-.95,1.45,2.53,3.03,8.86,4.03,55.22,13.01,69.8,16.19v2.02c-2.39.2-6.46.45-8.6,1.01-18.01,4.7-35.71,10.6-53.62,15.68,23.64,22.63,9.58,18.25,11.63,20.74,1.12,1.36,11.09,2.68,13.66,3.03,20.61,2.86,38.94.96,58.68-5.06,10.45-3.19,20.66-8.17,30.35-13.15,2.43,8.36,2.75,16.67,3.03,25.29-3.52,17.27-17.4,28.32-26.3,42.49q-4.81-6.58-9.61-13.15c-2.65,1.44-4.91.79-7.59,1.01l-2.53-30.35c-17.14,7.29-34.06,12.06-52.1,16.19-2.81.64-8.02.82-11.13,1.01-11.31,1.19-19.69,5.3-22.26,17.2-1.16,5.35-.57,9.84-2.02,11.13-8.26-18.58-8.43-41.45-4.05-61.21-.37-1.53-17.37-12.96-23.27-18.72-.4-.39.66-3.8-.51-5.06-49.72-14.65-87.35-47.32-89.53-101.67-8.48-1.62-15.45-3.77-23.27-7.59-.35-44.39-36.77-61.19-34.4-89.53,1.48-17.7,18.73-19.13,20.23-21.24,5.26-7.39-8.33-20.26,14.16-26.81,1.97-.57,3.94-1.3,6.07-1.01Z"/>
      <path class="great_grandfather-cls-27" d="m338.91,397.58c-22.5,6.55-8.9,19.42-14.16,26.81-1.5,2.11-18.75,3.55-20.23,21.24-2.38,28.34,34.05,45.14,34.4,89.53-24.43-11.91-26.86-39.53-33.38-63.23-33.76-31.82-15.21-79.93,33.38-74.36Z"/>
      <path class="great_grandfather-cls-27" d="m553.38,648.48c-6.94,10.35-48.54,16.08-32.37,28.33-2.56-.36-12.54-1.67-13.66-3.03-2.05-2.49,12,1.89-11.63-20.74,17.91-5.08,35.61-10.98,53.62-15.68.26,8.96,2.57,8.98,4.05,11.13Z"/>
      <path class="great_grandfather-cls-3" d="m375.33,508.87c-2.11-5.54-3.29-10.68-5.06-16.19,1.74-10.42,2.94-20.85,4.05-31.36q12.14-12.65,24.28-25.29c11.88,6-11.74,37.3-17.2,54.12-1.08,3.33-.78,18.37-6.07,18.72Z"/>
      <path class="great_grandfather-cls-34" d="m566.53,607c5.47.97,10.75,4.67,16.19,6.07-8.79,4.07-23.48,3.75-33.89,4.05-21.09.6-42.18-.96-63.23-2.02-1.88-1.18-3.58-1.26-5.56-2.02l1.01-2.02c8.43-5.12,73.55-6.17,85.49-4.05Z"/>
      <path class="great_grandfather-cls-14" d="m579.68,671.74c-19.73,6.02-38.07,7.92-58.68,5.06-16.16-12.25,25.43-17.98,32.37-28.33.94,1.37,16.21,6.19-2.53,27.31,9.66.74,27.94-7.16,28.83-4.05Z"/>
      <path class="great_grandfather-cls-6" d="m407.7,349.02c1.74,2.81-3.46,9.49-3.03,10.62.93,2.49,5.21-.09,8.09,4.55-16.09,8.92-29.09,21.7-27.31,41.48-.52.49-1.41-1.7-2.02-.51.63,4.87-3.95,6.69-4.05,7.08-.77,3,4.3,10.49-2.02,9.61,5.49-77.62.92-67.09,23.27-144.67.12-.4,2.74-3.26,2.02-8.09,1.73-.6,6.46-3.89,9.1-5.06-1.18,30.57-6.76,61.06-10.62,91.05,2-2.27,4.27-4.13,6.58-6.07Z"/>
      <path class="great_grandfather-cls-13" d="m398.6,436.03q-12.14,12.65-24.28,25.29c1.39-13.2,2.1-26.24,3.03-39.45,6.32.88,1.25-6.61,2.02-9.61.1-.39,4.67-2.21,4.05-7.08.62-1.2,1.5,1,2.02.51,1.72-1.63,14.88-11.02,19.22-14.16l-6.07,44.51Z"/>
      <g>
        <path class="great_grandfather-cls-21" d="m579.68,533.15l-4.05,50.08c8.82,15.35,29.12,27.06,47.04,25.8,7.58-.53,19.05-8.23,18.72-4.05-21.5,17.08-34.76,14.25-58.68,8.09-5.43-1.4-10.72-5.1-16.19-6.07q-22.51-17.2-45.02-34.4c-24.61,22.44-60.96,50.04-95.1,31.36-14.29-7.82-23.65-24.28-19.73-40.47.13-.54,4.16-6.94,4.55-10.12q2.53,7.08,5.06,14.16l7.59-18.21c4.73.07,5.63-5.72,11.13-8.09,1.06-.46,13.97-4.15,17.2-5.06,4.97-1.39,28.44-6.14,32.37-6.07,3.87-2.33,11.31,12.22,27.82,18.21,22.86,8.29,40.62.9,56.65-16.19,3.55.4,7.06.71,10.62,1.01Z"/>
        <path class="great_grandfather-cls-35" d="m620.15,541.24c3.04,2.68,7.61,4.35,13.15,10.12,21.6,22.48,14.17,46.05,23.27,5.56,2.22,22.74,3.49,33.22-15.17,48.05.34-4.18-11.14,3.51-18.72,4.05-17.93,1.26-38.22-10.45-47.04-25.8l4.05-50.08c13.69,1.16,26.64,7.51,40.47,8.09Z"/>
      </g>
      <g>
        <path class="great_grandfather-cls-3" d="m526.07,281.24c-25.26,5.53-48.08-8.26-57.66,7.59.24.85,12.38,3.29,14.16,3.54-3.99,6.85-23.71-.72-37.94,9.1-14.71,10.16,3.66,4.37,11.63,6.58l-18.21,18.72h-4.55c-2.58.61-4.29,3.89-4.55,4.05-8.11,4.92-14.12,12.21-21.24,18.21-2.3,1.94-4.58,3.8-6.58,6.07,3.86-29.99,9.44-60.48,10.62-91.05,7.01-3.08,13.53-8.22,21.24-10.12,8.61.27,25.28-4.84,34.4-8.09l15.17,11.63c-15.64,9.95-47.94,14.37-6.58,15.68,8.34,6.79,32.21,4.34,46.54,6.07.68.41,3.34,1.99,3.54,2.02Z"/>
        <path class="great_grandfather-cls-26" d="m526.07,281.24c.12.02-.06.86,1.52,2.02q26.3,3.54,52.61,7.08c-16.22,6.82-43.41,5.82-61.71,5.06-4.17-.17-32.62-2.57-35.91-3.03-1.79-.25-13.92-2.69-14.16-3.54,9.59-15.85,32.41-2.06,57.66-7.59Z"/>
      </g>
      <path class="great_grandfather-cls-3" d="m633.3,551.36c-5.54-5.77-10.11-7.44-13.15-10.12-8.07-7.1-16.49-13.81-24.28-21.24.37-4.62-1.91-6.73-2.02-7.08-.98-3.14-4.23-10.45-6.07-12.14,3.26-3.67-11.91-16.8-19.22-24.28.62-2.41,1.19-4.61,1.52-7.08,21.84,24.65,42.87,49.69,62.22,76.38.22.3,3,5.51,1.01,5.56Z"/>
      <g>
        <path class="great_grandfather-cls-10" d="m428.95,330.81l-3.54,6.07c14.71.39,29.87.06,44.51,1.01,11.92.77,30.62,9.1,26.81-3.03,1.04.39,2.01,1.07,3.03,1.52l-5.06,23.77c-6.5.68-12.58,2.43-19.22,2.02-16.82-1.02-28.9-16.73-62.72,2.02-2.89-4.64-7.16-2.06-8.09-4.55-.43-1.14,4.78-7.81,3.03-10.62,7.12-6,13.14-13.29,21.24-18.21Z"/>
        <path class="great_grandfather-cls-10" d="m438.05,326.77c11.64,1.87,54.73,6.61,58.68,8.09,3.81,12.14-14.89,3.81-26.81,3.03-14.64-.95-29.81-.62-44.51-1.01l3.54-6.07c.26-.16,1.98-3.44,4.55-4.05h4.55Z"/>
      </g>
      <path class="great_grandfather-cls-4" d="m587.78,500.77c-5.1-4.71-21.64-7.02-22.26-8.6,1.06-4.86,1.87-9.83,3.03-14.67.08-.32-.08-.7,0-1.01,7.31,7.48,22.48,20.61,19.22,24.28Z"/>
      <path class="great_grandfather-cls-3" d="m509.88,484.59c-4.04,8.72-10.93,14.41-8.09,25.29,1.83,7.01,15.79,19.05,22.26,21.24,8.05,17.46-2.32,14.84-14.67,9.1-8.15-3.78-19.16-20.42-24.79-10.12-3.93-.07-27.41,4.68-32.37,6.07-4.48.82,13.34-24.59,18.21-30.35,18.94,13.69,10.52,3.85,20.23-12.14,1.7-2.8,4.47-2.12,4.05-5.06,7.71-.46,6.59,2.88,15.17-4.05Z"/>
      <path class="great_grandfather-cls-13" d="m620.15,541.24c-13.83-.58-26.78-6.93-40.47-8.09-3.56-.3-7.07-.61-10.62-1.01-16.03,17.08-33.8,24.48-56.65,16.19-16.51-5.99-23.95-20.54-27.82-18.21,5.63-10.3,16.64,6.33,24.79,10.12,12.34,5.74,22.72,8.35,14.67-9.1,12.94,4.4,23.98-1.68,13.15,7.59,9.48,6,27.98-8.59,34.9-16.69-.02,13.02,22.55,13.39,23.77-2.02,7.79,7.43,16.21,14.14,24.28,21.24Z"/>
      <path class="great_grandfather-cls-6" d="m473.46,500.77c-.21.2.55.81-3.03,5.06-4.87,5.76-22.69,31.17-18.21,30.35-3.23.91-16.14,4.6-17.2,5.06-1.36.15,3.22-8.1,5.06-11.13,14.01-23.07,21.39-26.96,29.34-36.42l4.05,7.08Z"/>
      <g>
        <path class="great_grandfather-cls-20" d="m440.07,530.11c-1.84,3.02-6.42,11.28-5.06,11.13-5.5,2.38-6.4,8.16-11.13,8.09-2.63-.23-4.92-2.92-7.08-4.05,7.12-2.79,24.19-28.85,26.81-29.34,7.63-1.42-6.13,11.09-3.54,14.16Z"/>
        <path class="great_grandfather-cls-27" d="m496.73,446.14c-.86,16.62-10.94,29.48-21.24,41.48-1.61,1.87-4,3.61-6.07,6.07-7.95,9.46-15.33,13.35-29.34,36.42-2.59-3.07,11.17-15.59,3.54-14.16-2.62.49-19.69,26.55-26.81,29.34-22.7-11.77-27.73-39.09-3.03-52.1.04-39.09.4-14.12,26.81-9.61,8.3,1.42,16.67.77,24.79-1.52-18.7,1.94-55.72-13.17-50.58-22.26.44-.78,6.98,3.32,9.61,3.54,23.35,1.96,33.56-9.76,47.04-18.21,2.89-1.81,6.12-3.27,9.1-5.06,4.43-2.66,8.67-5.54,13.15-8.09,3.54,5.91,3.41,6.92,3.03,14.16Z"/>
      </g>
      <path class="great_grandfather-cls-27" d="m475.48,362.18c-35.76,6.94-42.61,8.9-70.82,29.34-4.34,3.14-17.5,12.54-19.22,14.16-1.78-19.78,11.23-32.56,27.31-41.48,33.82-18.75,45.9-3.04,62.72-2.02Z"/>
      <path class="great_grandfather-cls-27" d="m496.73,410.74c5.77,25.75-1.42,4.1-18.72-2.02-23.54-8.33-47.38,2.65-65.25,18.21.87-6,13.45-25.36,18.21-30.35,24.67-11.96,47.61-5.65,65.76,14.16Z"/>
      <path class="great_grandfather-cls-14" d="m483.58,389.49c8.96,6.35,10.85,11,13.15,21.24-18.15-19.81-41.09-26.13-65.76-14.16,16.51-17.34,31.65-14.6,52.61-7.08Z"/>
      <path class="great_grandfather-cls-13" d="m494.7,488.63c.42,2.94-2.35,2.26-4.05,5.06-6.68.46-12.37,2.54-17.2,7.08l-4.05-7.08c2.07-2.46,4.46-4.2,6.07-6.07,6.13,1.59,12.96,1.38,19.22,1.01Z"/>
      <g>
        <path class="great_grandfather-cls-3" d="m494.7,360.15c28.01,24.23,24.25,46.39,28.33,53.11,4.27,7.04,5.25,1.22,9.1-1.52-3.78,32.9-9.28,44.84-22.26,72.84-8.58,6.93-7.47,3.59-15.17,4.05-6.26.37-13.09.58-19.22-1.01,10.3-11.99,20.38-24.86,21.24-41.48,12.46,13.62,22.61-22.95,5.06-45.02-5.39-6.78-10.71-8.94-18.21-11.63-20.96-7.52-36.09-10.26-52.61,7.08-4.76,4.99-17.34,24.35-18.21,30.35-.02.15-2.14.04-.51,3.03,26.29,3.03,20.73,19.71,59.18,15.17-13.48,8.45-23.69,20.17-47.04,18.21-2.63-.22-9.17-4.32-9.61-3.54-5.14,9.08,31.88,24.2,50.58,22.26-8.12,2.29-16.49,2.93-24.79,1.52-26.41-4.5-26.77-29.47-26.81,9.61-24.69,13.01-19.66,40.33,3.03,52.1,2.16,1.12,4.45,3.82,7.08,4.05l-7.59,18.21q-2.53-7.08-5.06-14.16c-.39,3.18-4.42,9.58-4.55,10.12-12.53-11.21-25.29-38.71-31.36-54.63,5.29-.34,4.99-15.38,6.07-18.72,5.46-16.82,29.08-48.13,17.2-54.12l6.07-44.51c28.21-20.44,35.06-22.4,70.82-29.34,6.65.4,12.72-1.34,19.22-2.02Z"/>
        <path class="great_grandfather-cls-6" d="m409.22,437.04c40.27.42,22.57,16.88,3.03,4.05-1.23-.81-3.99-3.69-3.03-4.05Z"/>
      </g>
      <g>
        <path class="great_grandfather-cls-17" d="m568.55,477.51c-1.16,4.84-1.98,9.81-3.03,14.67.61,1.58,17.15,3.89,22.26,8.6,1.84,1.69,5.09,9,6.07,12.14-14.15,19.25-13.77-9.73-27.82-11.13-3.38-.34-33.27,23.82-64.24,8.09-2.84-10.88,4.05-16.58,8.09-25.29,12.98-28,18.47-39.94,22.26-72.84.1-.07.02-.93,1.52-2.02,10.58,25.39-4.24,64.71,34.9,67.78Z"/>
        <path class="great_grandfather-cls-27" d="m593.85,512.91c.11.35,2.39,2.47,2.02,7.08-1.22,15.41-23.8,15.04-23.77,2.02-6.92,8.1-25.42,22.69-34.9,16.69,10.83-9.27-.22-3.19-13.15-7.59-6.46-2.2-20.43-14.23-22.26-21.24,30.97,15.73,60.86-8.43,64.24-8.09,14.05,1.4,13.67,30.37,27.82,11.13Z"/>
      </g>
      <g>
        <path class="great_grandfather-cls-27" d="m670.73,245.83c-3.6-1.22.51,7.27,2.02,15.17,5.46,28.45,12.64,86.34,17.2,119.38-1.86,10.99,3.45,23.76,5.06,34.9,4,27.77,4.51,56.02,6.07,83.97-1.5,9.62-5.44,31.93,0,38.95-5.95-1.02-1.94,7.44-2.02,8.09-.02.13-1.92.7-2.02,1.52-.58,4.42.02,10.59-1.01,15.17-8.81,39.06-39.49,68.8-72.84,88.52-3.39,2-9.47,5.19-13.15,7.08-9.69,4.98-19.9,9.96-30.35,13.15-.89-3.11-19.17,4.79-28.83,4.05,18.74-21.13,3.47-25.95,2.53-27.31-1.48-2.15-3.79-2.17-4.05-11.13,2.13-.56,6.21-.81,8.6-1.01v-2.02c-14.59-3.17-60.94-12.16-69.8-16.19-3.48-1.58-2.36-2.93-2.53-3.03,21.05,1.06,42.13,2.63,63.23,2.02,10.41-.3,25.1.02,33.89-4.05,23.92,6.16,37.18,8.99,58.68-8.09,18.67-14.83,17.4-25.31,15.17-48.05-9.1,40.49-1.66,16.92-23.27-5.56,1.99-.06-.79-5.26-1.01-5.56-19.35-26.69-40.38-51.73-62.22-76.38-.32,2.48-.89,4.67-1.52,7.08-.08.32.08.69,0,1.01-39.14-3.07-24.32-42.39-34.9-67.78-1.49,1.09-1.41,1.95-1.52,2.02-3.86,2.74-4.84,8.56-9.1,1.52-4.08-6.72-.31-28.88-28.33-53.11l5.06-23.77c-1.03-.45-2-1.13-3.03-1.52-3.95-1.48-47.04-6.23-58.68-8.09l18.21-18.72c-7.98-2.21-26.34,3.58-11.63-6.58,14.22-9.82,33.94-2.26,37.94-9.1,3.3.46,31.74,2.86,35.91,3.03,18.3.76,45.49,1.76,61.71-5.06q-26.3-3.54-52.61-7.08c-1.58-1.16-1.39-2-1.52-2.02-.2-.03-2.86-1.61-3.54-2.02-14.33-1.73-38.19.72-46.54-6.07-41.36-1.31-9.07-5.73,6.58-15.68l-15.17-11.63,12.65-7.08c5.3-1.52,10.37-3.57,15.68-5.06q12.39,14.67,24.79,29.34c12.79.36,25.42-.11,37.94-3.03,11.08-2.59,21.09-7.77,30.35-14.16,29.78-6.23,49.11-8.36,66.26-36.42,6.62,11.44,9.38,24.87,15.68,36.42Z"/>
        <g>
          <path class="great_grandfather-cls-10" d="m627.23,335.87c17.78,8.07,38.24,26.04,49.57,41.98,21.32,29.98-11.62-5.09-39.96-12.65-16.51-4.4-32.37-3.33-49.07-3.03-8.73.16-17.57-.36-26.3,0,.15-2.22-10.09-21.41-7.59-24.28,2.68-1.41,4.9-.78,5.56-1.01,11.29-3.93,29.71-5.31,41.98-9.1h7.08c5.76,3.84,12.5,5.27,18.72,8.09Z"/>
          <path class="great_grandfather-cls-14" d="m674.27,437.04c23.7-10.56,10.05,47.47,6.58,57.16-5.04,14.06-14.24,27.38-24.79,37.94-6.96-24.29-34.66-28.6-50.08-45.02,79.07,16.31,63.57-47.98,68.29-50.08Z"/>
          <g>
            <path class="great_grandfather-cls-4" d="m620.15,374.32c10.68,4.97,21.14,10.23,30.35,17.7-34.15-7.74-72.02-15.57-74.86,30.86-4.26,3.46-4.93,4.43-8.09,9.1-1.11-12.4,1.51-35.46,11.13-44.51,10.15-9.55,28.45-11.76,41.48-13.15Z"/>
            <path class="great_grandfather-cls-7" d="m587.78,362.18c11.71,2.38,21.75,7.19,32.37,12.14-13.02,1.39-31.33,3.6-41.48,13.15l-24.28-10.62c-.62-3.07,7.03-13.86,7.08-14.67,8.74-.36,17.58.16,26.3,0Z"/>
          </g>
          <path class="great_grandfather-cls-17" d="m627.23,335.87c-6.22-2.82-12.96-4.25-18.72-8.09h-7.08c-12.27,3.8-30.7,5.18-41.98,9.1,8.07-26.13,35.49-16.8,57.16-24.28l8.6,8.6c-28.69,6.93-13.22,2.03,2.02,14.67Z"/>
          <path class="great_grandfather-cls-3" d="m577.66,454.24l3.03-4.05c10.07,10.19,35.29,10.67,48.56,6.58-13.38,20.77-37.47,12.94-51.59-2.53Z"/>
          <path class="great_grandfather-cls-8" d="m551.86,280.23c5.35-1.72,58.83.53,68.29,5.56-13.17.65-26.83.5-39.96-.51-5.63-.43-34.09-3.21-28.33-5.06Z"/>
          <path class="great_grandfather-cls-3" d="m542.76,313.62c4.98,19.53,9.15,40.5,1.01,59.69q-.51-29.84-1.01-59.69Z"/>
          <g>
            <path class="great_grandfather-cls-6" d="m642.41,440.07c-8.23-20.9-2.24-6.4-14.16,5.06-4.67,1.36-20.84,12.83-39.45,2.02-6.85-5-.98-23.4-10.12-12.14-4.51,5.57-2.83,10.27,2.02,15.17l-3.03,4.05c-6.25-6.85-9.28-12.97-10.12-22.26,3.16-4.67,3.83-5.64,8.09-9.1,35.55-28.87,61.94-7.05,94.08,13.66-9.06.97-18.43,1.4-27.31,3.54Z"/>
            <path class="great_grandfather-cls-34" d="m642.41,440.07c-5.75,1.39-9.7,3.76-14.16,5.06,11.93-11.46,5.94-25.96,14.16-5.06Z"/>
            <path class="great_grandfather-cls-33" d="m588.79,447.16c-9.59-5.57-4.84-5.66-10.12-12.14,9.14-11.26,3.27,7.14,10.12,12.14Z"/>
            <path class="great_grandfather-cls-35" d="m619.64,420.85c6.37-1.91,8.74,8.44,5.06,10.12-7.18,3.27-10.27-8.55-5.06-10.12Z"/>
            <path class="great_grandfather-cls-35" d="m620.66,432.99c1.96-1.03,3.1,3.15,1.01,3.03-2.24-.12-1.97-2.53-1.01-3.03Z"/>
          </g>
        </g>
      </g>
      <path class="great_grandfather-cls-14" d="m490.66,493.69c-9.71,15.99-1.3,25.83-20.23,12.14,3.59-4.24,2.82-4.86,3.03-5.06,4.83-4.55,10.52-6.62,17.2-7.08Z"/>
      <g>
        <path class="great_grandfather-cls-6" d="m496.73,446.14c.38-7.25.51-8.26-3.03-14.16-7.61-12.68-29.42-12.12-16.19-7.59-6.71.57-3.64,7.3-1.52,7.59,6.84.92,3.4-10.43,4.55,8.09-2.98,1.79-6.21,3.25-9.1,5.06-38.45,4.54-32.89-12.15-59.18-15.17-1.63-2.99.48-2.88.51-3.03,17.87-15.56,41.71-26.54,65.25-18.21,17.3,6.12,24.49,27.77,18.72,2.02-2.3-10.24-4.2-14.9-13.15-21.24,7.5,2.69,12.82,4.86,18.21,11.63,17.55,22.07,7.4,58.64-5.06,45.02Z"/>
        <path class="great_grandfather-cls-35" d="m493.69,431.98c-4.49,2.56-8.72,5.44-13.15,8.09-1.15-18.52,2.29-7.18-4.55-8.09-2.12-.28-5.2-7.02,1.52-7.59-13.23-4.53,8.58-5.09,16.19,7.59Z"/>
        <path class="great_grandfather-cls-2" d="m438.56,419.84c8.76-2.04,3.89,9.94-2.02,7.08-2.75-1.33-.18-6.57,2.02-7.08Z"/>
      </g>
    </g>
  </g>
</svg>