<?xml version="1.0" encoding="UTF-8" standalone="no"?>
<!-- Created with Inkscape (http://www.inkscape.org/) -->

<svg
   xmlns:dc="http://purl.org/dc/elements/1.1/"
   xmlns:cc="http://creativecommons.org/ns#"
   xmlns:rdf="http://www.w3.org/1999/02/22-rdf-syntax-ns#"
   xmlns:svg="http://www.w3.org/2000/svg"
   xmlns="http://www.w3.org/2000/svg"
   xmlns:sodipodi="http://sodipodi.sourceforge.net/DTD/sodipodi-0.dtd"
   xmlns:inkscape="http://www.inkscape.org/namespaces/inkscape"
   width="148.31126mm"
   height="69.446854mm"
   viewBox="0 0 148.31126 69.446854"
   version="1.1"
   id="svg8"
   inkscape:version="0.92.1 r15371"
   sodipodi:docname="FX13_lizard.svg">
  <defs
     id="defs2" />
  <sodipodi:namedview
     id="base"
     pagecolor="#ffffff"
     bordercolor="#666666"
     borderopacity="1.0"
     inkscape:pageopacity="0.0"
     inkscape:pageshadow="2"
     inkscape:zoom="0.79556229"
     inkscape:cx="191.34491"
     inkscape:cy="54.930458"
     inkscape:document-units="mm"
     inkscape:current-layer="layer2"
     showgrid="false"
     inkscape:window-width="1920"
     inkscape:window-height="1016"
     inkscape:window-x="0"
     inkscape:window-y="27"
     inkscape:window-maximized="1"
     inkscape:snap-global="false"
     fit-margin-top="0"
     fit-margin-left="0"
     fit-margin-right="0"
     fit-margin-bottom="0" />
  <metadata
     id="metadata5">
    <rdf:RDF>
      <cc:Work
         rdf:about="">
        <dc:format>image/svg+xml</dc:format>
        <dc:type
           rdf:resource="http://purl.org/dc/dcmitype/StillImage" />
        <dc:title></dc:title>
      </cc:Work>
    </rdf:RDF>
  </metadata>
  <g
     inkscape:groupmode="layer"
     id="layer2"
     inkscape:label="Layer 2"
     style="display:inline;opacity:1"
     transform="translate(-27.788732,-73.079946)">
    <path
       style="fill:#6c9530;fill-opacity:1;stroke:none;stroke-width:0.26458332px;stroke-linecap:butt;stroke-linejoin:miter;stroke-opacity:1"
       d="m 109.72164,110.77552 c 0.42955,-0.42956 1.6323,-2.83505 5.756,-5.15463 4.1237,-2.31959 7.13057,-5.927824 8.16149,-5.670094 1.03093,0.257734 2.66323,2.147764 0.60138,3.006864 -2.06185,0.85911 -4.8969,3.43642 -4.8969,3.43642 z"
       id="path4630"
       inkscape:connector-curvature="0" />
    <path
       style="fill:#6c9530;fill-opacity:1;stroke:none;stroke-width:0.26458332px;stroke-linecap:butt;stroke-linejoin:miter;stroke-opacity:1"
       d="m 129.59839,105.76087 c 0,0 4.47185,13.3013 4.81815,13.37575 0.34631,0.0744 0.58425,1.14861 0.58425,1.14861 l -0.60224,1.80995 1.71561,-1.93291 -0.007,-0.96048 c 0,0 5.7881,3.61006 6.36572,3.79818 0.57761,0.18811 4.46275,0.85288 4.46275,0.85288 0,0 -0.10306,1.76808 -0.0286,1.42178 0.0745,-0.3463 0.4075,-2.19282 0.4075,-2.19282 0,0 -3.07753,-0.55508 -3.84857,-0.93396 -0.77104,-0.37889 -5.28096,-2.49935 -4.85755,-2.38701 0.42341,0.11234 5.77352,1.497 5.77352,1.497 l 2.83959,-0.51909 -0.22203,1.23102 0.60489,-1.42577 -3.30486,-0.0924 c 0,0 -6.65955,-1.83667 -6.31325,-1.76221 0.34631,0.0744 2.22541,-0.43801 2.22541,-0.43801 l 0.77502,0.95519 -0.0159,-2.30517 -2.94927,1.32668 c 0,0 -2.35234,-1.25166 -2.62552,-1.86452 -6.83505,-16.07581 2.10696,-19.302824 -5.79795,-10.60265 z"
       id="path4611"
       inkscape:connector-curvature="0"
       sodipodi:nodetypes="cscccccccccccccccccccccc" />
    <path
       style="display:inline;opacity:1;fill:#97c751;fill-opacity:1;stroke:none;stroke-width:0.26458332px;stroke-linecap:butt;stroke-linejoin:miter;stroke-opacity:1"
       d="m 174.98099,76.123605 c -0.42524,0.182242 -1.57945,-1.336454 -1.82244,-1.275705 -0.24299,0.06074 -0.91121,0.607477 -1.45795,0.364486 -0.54673,-0.242991 -6.37852,-2.55141 -7.71498,-2.065426 -1.33645,0.485982 -2.6729,3.341131 -4.49533,4.009357 -1.82244,0.668228 -6.43928,5.285064 -8.38321,8.383205 -1.94393,3.098144 -2.12617,5.345814 -4.98132,7.107504 -2.85515,1.76168 -38.27116,18.710334 -38.75714,18.953334 -0.48598,0.24299 -34.444035,13.30378 -34.808523,13.48602 -0.364487,0.18225 -44.878485,13.80999 -44.771171,14.70099 0.107315,0.89099 70.467513,-16.52342 71.439482,-16.52342 0.971962,0 8.383202,-2.06543 8.686942,-2.12618 0.30374,-0.0608 32.01412,-8.44395 35.96274,-10.32713 3.9486,-1.88319 6.50001,-3.0374 9.29442,-4.79908 2.7944,-1.76169 4.49534,-6.500024 4.49534,-6.621524 0,-0.1215 7.59348,-9.65891 9.65891,-11.724338 2.06543,-2.065427 4.85982,-6.378525 6.31778,-7.168247 1.45795,-0.789724 1.70093,-4.252351 1.70093,-4.252351 z"
       id="path4532-7"
       inkscape:connector-curvature="0"
       sodipodi:nodetypes="ccscssssszssccssccc" />
    <path
       style="fill:#97c751;fill-opacity:1;stroke:none;stroke-width:0.26458332px;stroke-linecap:butt;stroke-linejoin:miter;stroke-opacity:1"
       d="m 158.27533,77.94604 c -0.48599,0 -2.18693,0 -2.18693,0 l 0.36449,0.728975 -2.67291,0.303739 0.78973,1.154209 -2.9159,-0.121496 c 0,0 2.12617,1.943932 1.88318,1.943932 -0.24299,0 -3.21963,0.121496 -3.21963,0.121496 0,0 2.24767,2.126175 1.94392,2.004679 -0.30373,-0.121496 -3.58412,0.364488 -3.34113,0.364488 0.243,0 2.06543,1.579443 1.82244,1.457948 -0.24299,-0.121496 -2.49066,0.485983 -2.24767,0.485983 0.24299,0 1.09346,1.457948 1.09346,1.457948 l -2.61216,0.789725 2.00469,1.70094 z"
       id="path4534"
       inkscape:connector-curvature="0" />
    <ellipse
       style="display:inline;opacity:1;fill:#6e9731;fill-opacity:1;stroke:#000000;stroke-width:0;stroke-linecap:round;stroke-linejoin:round;stroke-miterlimit:4;stroke-dasharray:none;stroke-opacity:1"
       id="path4540-36"
       cx="162.0876"
       cy="80.648628"
       rx="3.0639231"
       ry="2.6165559" />
    <path
       style="fill:#6c9530;fill-opacity:1;stroke:none;stroke-width:0.26458332px;stroke-linecap:butt;stroke-linejoin:miter;stroke-opacity:1"
       d="m 159.97627,87.544201 c -0.53089,-0.608596 3.71783,-2.490661 4.4468,-2.672905 0.72897,-0.182243 8.73548,-5.771046 8.73548,-5.771046 l 1.82244,-2.976645 c 0,0 0.1215,1.275705 -0.42524,2.186923 -0.54673,0.911217 -1.88445,1.920033 -1.9452,2.163025 -0.0607,0.24299 -3.83321,2.560567 -4.0762,2.682064 -0.243,0.121494 -8.86182,4.267089 -8.55808,4.388584 z"
       id="path4536"
       inkscape:connector-curvature="0"
       sodipodi:nodetypes="ccccsccc" />
    <path
       style="fill:#6c9530;fill-opacity:1;stroke:none;stroke-width:0.26458332px;stroke-linecap:butt;stroke-linejoin:miter;stroke-opacity:1"
       d="m 155.84541,84.628305 c -0.60748,0.971965 -0.85047,3.887861 0,3.766371 0.85047,-0.1215 1.70094,-0.1215 1.76169,-0.97197 0.0234,-1.457826 -1.23645,-3.55246 -1.76169,-2.794401 z"
       id="path4538"
       inkscape:connector-curvature="0"
       sodipodi:nodetypes="cccc" />
    <ellipse
       style="opacity:1;fill:#b2d284;fill-opacity:1;stroke:#000000;stroke-width:0;stroke-linecap:round;stroke-linejoin:round;stroke-miterlimit:4;stroke-dasharray:none;stroke-opacity:1"
       id="path4540"
       cx="162.20099"
       cy="80.421852"
       rx="2.2151382"
       ry="1.827489" />
    <ellipse
       style="opacity:1;fill:#cf5400;fill-opacity:1;stroke:none;stroke-width:0;stroke-linecap:round;stroke-linejoin:round;stroke-miterlimit:4;stroke-dasharray:none;stroke-opacity:1"
       id="path4540-3"
       cx="162.12022"
       cy="80.444168"
       rx="1.3972007"
       ry="1.2282815" />
    <ellipse
       style="opacity:1;fill:#000000;fill-opacity:1;stroke:none;stroke-width:0;stroke-linecap:round;stroke-linejoin:round;stroke-miterlimit:4;stroke-dasharray:none;stroke-opacity:1"
       id="path4540-3-6"
       cx="162.1239"
       cy="80.401108"
       rx="0.70749664"
       ry="0.64435899" />
    <ellipse
       style="opacity:1;fill:#b2d284;fill-opacity:1;stroke:none;stroke-width:0;stroke-linecap:round;stroke-linejoin:round;stroke-miterlimit:4;stroke-dasharray:none;stroke-opacity:1"
       id="path4540-5"
       cx="171.21461"
       cy="78.128288"
       rx="0.95355725"
       ry="0.78668475" />
    <ellipse
       style="opacity:1;fill:#000000;fill-opacity:1;stroke:none;stroke-width:0;stroke-linecap:round;stroke-linejoin:round;stroke-miterlimit:4;stroke-dasharray:none;stroke-opacity:1"
       id="path4540-5-3"
       cx="171.21461"
       cy="78.128288"
       rx="0.28775132"
       ry="0.23739484" />
    <path
       style="fill:#6c9530;fill-opacity:1;stroke:none;stroke-width:0.26458332px;stroke-linecap:butt;stroke-linejoin:miter;stroke-opacity:1"
       d="m 170.76167,82.61277 c -1.11683,0.945013 -13.39532,10.343696 -15.11353,11.374616 -1.71821,1.03093 -2.83504,2.31958 -3.09277,1.37457 -0.25774,-0.94501 -1.11684,-0.77319 0.42955,-3.00687 1.54639,-2.23367 1.46047,-1.63229 1.37457,-2.92095 -0.0859,-1.28866 -0.65808,-3.046403 -0.65808,-3.046403 0,0 -0.13021,3.859333 -0.39746,4.180043 -0.26726,0.3207 -3.1536,4.75712 -3.1536,4.75712 0,0 2.88634,2.88635 3.10015,2.67255 0.2138,-0.21381 14.27138,-11.064333 14.27138,-11.064333 z"
       id="path4609"
       inkscape:connector-curvature="0"
       sodipodi:nodetypes="ccccccccscc" />
    <path
       style="opacity:1;fill:#97c751;fill-opacity:1;stroke:none;stroke-width:0.26458332px;stroke-linecap:butt;stroke-linejoin:miter;stroke-opacity:1"
       d="m 157.10635,103.50878 c -0.0859,-0.85911 0.77319,-5.068724 -1.46048,-3.522334 -2.23367,1.546394 -3.69414,18.814394 -3.69414,18.814394 0,0 9.87969,9.96561 10.22334,9.8797 0.34364,-0.0859 1.03092,0.7732 1.03092,0.7732 l 0.25773,1.89002 0.68729,-2.4914 -0.42955,-0.8591 c 0,0 6.78692,0.68728 7.3883,0.60137 0.60137,-0.0859 4.38143,-1.20275 4.38143,-1.20275 0,0 0.68728,1.6323 0.60137,1.28866 -0.0859,-0.34364 -0.60137,-2.14776 -0.60137,-2.14776 0,0 -3.00688,0.8591 -3.86597,0.8591 -0.85911,0 -5.84191,0.0859 -5.41236,0 0.42955,-0.0859 5.84191,-1.20274 5.84191,-1.20274 l 2.31958,-1.71821 0.34365,1.20275 -0.0859,-1.5464 -3.00685,1.37457 c 0,0 -6.78693,1.28866 -6.44329,1.20275 0.34365,-0.0859 1.80412,-1.37457 1.80412,-1.37457 l 1.11684,0.51547 -1.03093,-2.06186 -2.06185,2.49141 c 0,0 -2.66322,-0.0859 -3.17869,-0.51547 -0.51546,-0.42955 -5.49826,-7.81785 -6.18555,-8.50513 -0.68728,-0.68729 -0.60137,-0.68729 -0.68728,-1.20274 -0.0859,-0.51547 1.6323,-9.87971 1.6323,-10.82472 0,-0.94502 0.51546,-1.71821 0.51546,-1.71821 z"
       id="path4611-5"
       inkscape:connector-curvature="0" />
    <path
       style="fill:#97c751;fill-opacity:1;stroke:none;stroke-width:0.26458332px;stroke-linecap:butt;stroke-linejoin:miter;stroke-opacity:1"
       d="m 107.53829,116.75366 c 0.68729,-0.34364 3.60824,-1.97594 5.24054,1.71821 1.6323,3.69415 9.19242,10.65289 4.38143,12.02746 -4.81098,1.37457 -11.08244,0.17182 -14.17522,0.85911 -3.092775,0.68728 2.83505,5.41236 3.35051,6.01373 0.51546,0.60137 8.50513,-1.46048 8.84877,-1.28866 0.34365,0.17182 1.28866,3.09278 0.7732,3.35051 -0.12887,-0.64433 -0.68729,-2.36254 -1.11684,-2.36254 -0.42955,0 -7.17352,1.71821 -7.8608,1.46048 -0.68729,-0.25773 -3.39347,2.0189 -5.02576,2.44845 -2.145171,0.32698 -2.929942,1.11504 -3.694154,1.54639 0.613541,-1.48439 4.412114,-2.3996 4.982804,-3.00687 0.7732,-0.94501 0.85911,-1.71821 0.0859,-2.83505 -0.77319,-1.11683 -9.106507,-2.74913 -6.958745,-5.41236 2.147762,-2.66321 0.601372,-3.26459 4.123705,-3.52232 3.52233,-0.25773 13.23021,0.42955 12.71474,-0.17182 -0.51546,-0.60138 -7.73194,-6.27147 -6.87283,-7.81786 0.8591,-1.54638 1.20274,-3.00686 1.20274,-3.00686 z"
       id="path4628"
       inkscape:connector-curvature="0"
       sodipodi:nodetypes="cscssccsscccsccccc" />
    <path
       style="fill:#97c751;fill-opacity:1;stroke:none;stroke-width:0.26458332px;stroke-linecap:butt;stroke-linejoin:miter;stroke-opacity:1"
       d="m 105.906,137.02853 c 0.4725,-0.043 4.46734,-1.76117 4.85393,-1.97595 0.3866,-0.21477 2.36254,-0.98797 2.36254,-0.98797 l 0.0859,1.28866 c 0,0 -0.25773,-0.38659 -0.42955,-0.42955 -0.17182,-0.0429 -2.79209,1.2457 -3.17869,1.28866 -0.38659,0.0429 -3.3505,1.63229 -3.3505,1.63229 0,0 -2.27663,-1.54638 -2.06185,-1.7182 0.21477,-0.17182 4.16665,-2.53436 4.16665,-2.53436 0,0 0.30069,0.98797 0.12887,0.8591 -0.17182,-0.12886 -0.94502,0.30069 -1.11684,0.30069 -0.17182,0 -2.31958,1.80412 -2.31958,1.80412 z"
       id="path4531"
       inkscape:connector-curvature="0" />
    <ellipse
       style="display:inline;opacity:1;fill:#ffffff;fill-opacity:1;stroke:none;stroke-width:0;stroke-linecap:round;stroke-linejoin:round;stroke-miterlimit:4;stroke-dasharray:none;stroke-opacity:1"
       id="path4540-3-6-5"
       cx="161.80081"
       cy="80.214981"
       rx="0.1226204"
       ry="0.11167765" />
  </g>
</svg>
