<?xml version="1.0" encoding="UTF-8"?>
<svg xmlns="http://www.w3.org/2000/svg" xmlns:xlink="http://www.w3.org/1999/xlink" width="192px" height="200px" viewBox="0 0 192 199" version="1.1">
<defs>
<linearGradient id="linear0" gradientUnits="userSpaceOnUse" x1="-58.684" y1="5.9277" x2="-14.685" y2="5.9277" gradientTransform="matrix(-2.230468,-3.174204,3.18755,-2.221129,0.000346451,0.0276735)">
<stop offset="0" style="stop-color:rgb(92.156863%,92.156863%,92.156863%);stop-opacity:1;"/>
<stop offset="1" style="stop-color:rgb(85.882353%,85.882353%,85.882353%);stop-opacity:1;"/>
</linearGradient>
<radialGradient id="radial0" gradientUnits="userSpaceOnUse" cx="24.835" cy="20.3" fx="24.835" fy="20.3" r="16.912" gradientTransform="matrix(3.890578,0,-0.0490213,-4.598779,1.82896,172.030533)">
<stop offset="0" style="stop-color:rgb(85.490196%,88.235294%,57.254902%);stop-opacity:1;"/>
<stop offset="1" style="stop-color:rgb(74.117647%,76.470588%,49.411765%);stop-opacity:1;"/>
</radialGradient>
</defs>
<g id="surface1">
<path style=" stroke:none;fill-rule:evenodd;fill:rgb(61.176471%,61.176471%,61.176471%);fill-opacity:1;" d="M 158.929688 19.210938 C 160.867188 72.9375 157.769531 126.320312 149.601562 179.402344 C 149.335938 180.820312 148.6875 181.992188 147.640625 182.902344 C 146.617188 183.789062 145.441406 184.1875 144.152344 184.054688 C 108.738281 181.992188 72.816406 178.570312 36.375 173.785156 C 35.089844 173.667969 34.121094 173.140625 33.453125 172.25 C 32.808594 171.214844 32.558594 170.035156 32.695312 168.753906 C 40.597656 120.96875 43.769531 73.523438 42.210938 26.378906 C 42.210938 25.207031 42.664062 24.183594 43.578125 23.277344 C 44.359375 22.503906 45.382812 22.046875 46.695312 21.917969 C 82.484375 20.761719 118.273438 18.433594 154.066406 14.953125 C 155.375 14.824219 156.480469 15.140625 157.386719 15.917969 C 158.285156 16.808594 158.792969 17.921875 158.929688 19.210938 Z M 158.929688 19.210938 "/>
<path style=" stroke:none;fill-rule:evenodd;fill:url(#linear0);" d="M 155.035156 19.210938 C 156.988281 71.761719 153.929688 124.257812 145.898438 176.695312 C 145.765625 177.984375 145.117188 179.15625 143.960938 180.175781 C 142.914062 181.085938 141.8125 181.464844 140.652344 181.328125 C 105.488281 179.273438 70.613281 175.976562 35.976562 171.457031 C 34.820312 171.214844 33.851562 170.628906 33.074219 169.714844 C 32.429688 168.8125 32.160156 167.710938 32.296875 166.421875 C 40.0625 120.453125 43.257812 73.769531 41.832031 26.359375 C 41.832031 25.207031 42.210938 24.183594 42.992188 23.277344 C 43.769531 22.503906 44.816406 22.046875 46.101562 21.917969 C 80.851562 20.742188 115.613281 18.433594 150.378906 14.933594 C 151.675781 14.804688 152.773438 15.199219 153.6875 16.105469 C 154.464844 16.878906 154.902344 17.921875 155.035156 19.210938 Z M 155.035156 19.210938 "/>
<path style=" stroke:none;fill-rule:evenodd;fill:rgb(100%,100%,100%);fill-opacity:1;" d="M 145.898438 176.695312 C 145.765625 177.984375 145.117188 179.15625 143.960938 180.175781 C 142.914062 181.085938 141.8125 181.464844 140.652344 181.347656 C 113.925781 179.667969 88.640625 177.476562 64.777344 174.75 C 92.023438 176.054688 115.480469 176.1875 135.203125 175.144531 C 136.628906 175.144531 137.863281 174.691406 138.890625 173.785156 C 140.066406 172.894531 140.765625 171.78125 141.035156 170.492188 C 147.910156 136.535156 152.640625 102.957031 155.242188 69.753906 C 154.464844 105.28125 151.347656 140.925781 145.898438 176.695312 Z M 145.898438 176.695312 "/>
<path style=" stroke:none;fill-rule:evenodd;fill:rgb(32.156863%,32.54902%,33.333333%);fill-opacity:1;" d="M 52.90625 25.601562 C 53.175781 25.074219 53.496094 24.828125 53.875 24.828125 C 54.789062 24.695312 55.320312 25.148438 55.429688 26.167969 L 55.640625 32.378906 C 56.023438 32.507812 56.214844 32.507812 56.214844 32.378906 L 56.214844 26.167969 C 56.34375 25.792969 56.613281 25.53125 56.992188 25.394531 C 57.902344 25.28125 58.359375 25.71875 58.359375 26.761719 L 58.546875 33.152344 L 59.136719 33.339844 L 59.136719 28.894531 C 59.273438 28.367188 59.515625 28.121094 59.914062 28.121094 C 60.828125 27.984375 61.339844 28.441406 61.476562 29.460938 L 61.476562 33.738281 C 62.117188 38.902344 61.605469 42.570312 59.914062 44.765625 C 59.003906 45.808594 58.089844 46.074219 57.203125 45.539062 L 56.613281 44.386719 C 56.476562 45.429688 55.566406 45.867188 53.875 45.75 C 52.339844 45.75 50.964844 44.972656 49.789062 43.425781 L 49.21875 42.460938 L 49.011719 42.253906 C 47.074219 40.832031 45.78125 39.148438 45.136719 37.222656 C 44.605469 35.40625 44.605469 34.304688 45.136719 33.925781 C 45.78125 33.285156 46.558594 33.339844 47.476562 34.117188 C 47.71875 34.382812 47.925781 34.890625 48.042969 35.667969 C 48.3125 36.308594 48.691406 36.707031 49.21875 36.84375 L 52.128906 37.808594 L 53.304688 38.769531 C 53.304688 38.125 52.582031 37.480469 51.160156 36.84375 L 49.601562 36.253906 L 49.789062 34.890625 L 49.601562 27.535156 C 49.601562 27.269531 49.679688 27.023438 49.789062 26.761719 C 50.058594 26.378906 50.378906 26.117188 50.777344 25.980469 C 51.804688 25.851562 52.261719 26.378906 52.128906 27.535156 L 52.339844 33.738281 L 52.90625 33.550781 L 52.71875 26.378906 C 52.71875 26.117188 52.789062 25.851562 52.90625 25.601562 Z M 52.90625 25.601562 "/>
<path style=" stroke:none;fill-rule:evenodd;fill:rgb(32.156863%,32.54902%,33.333333%);fill-opacity:1;" d="M 134.027344 152.675781 L 134.425781 154.035156 C 134.554688 153.769531 134.746094 153.503906 135.011719 153.261719 C 135.523438 152.617188 136.300781 152.351562 137.328125 152.480469 C 138.890625 152.617188 140.121094 153.582031 141.035156 155.375 L 141.621094 156.550781 L 141.8125 156.738281 C 143.503906 158.421875 144.472656 160.429688 144.738281 162.757812 C 144.980469 164.816406 144.792969 166.105469 144.152344 166.613281 C 143.503906 167.144531 142.726562 166.9375 141.8125 166.046875 C 141.679688 165.914062 141.542969 165.402344 141.414062 164.496094 C 141.414062 163.722656 141.089844 163.207031 140.445312 162.945312 C 139.398438 162.699219 138.5625 162.226562 137.917969 161.582031 L 136.757812 160.429688 C 136.890625 160.578125 137.085938 160.902344 137.328125 161.390625 C 137.726562 162.035156 138.183594 162.492188 138.699219 162.757812 L 140.253906 163.53125 L 139.667969 165.0625 L 138.503906 173.40625 C 138.105469 174.429688 137.59375 175.015625 136.949219 175.144531 C 136.300781 175.144531 135.980469 174.824219 135.980469 174.183594 L 135.980469 173.21875 L 136.949219 166.234375 L 136.359375 166.421875 L 136.171875 166.421875 L 136.171875 167.007812 L 135.011719 174.371094 C 134.746094 175.523438 134.289062 176.109375 133.640625 176.109375 C 133 176.109375 132.601562 175.847656 132.464844 175.335938 L 132.464844 174.371094 L 133.4375 167.390625 L 132.652344 167.390625 L 131.894531 173.40625 C 131.765625 174.429688 131.308594 175.015625 130.527344 175.144531 C 130.011719 175.144531 129.671875 174.878906 129.5625 174.371094 L 129.5625 173.40625 L 130.527344 166.421875 L 129.941406 166.046875 L 129.371094 170.300781 C 129.371094 171.34375 128.972656 171.851562 128.191406 171.851562 C 127.679688 171.851562 127.28125 171.589844 127.03125 171.078125 L 127.03125 170.113281 L 127.601562 165.460938 C 128.246094 159.257812 129.425781 155.1875 131.117188 153.261719 C 131.765625 152.617188 132.464844 152.351562 133.242188 152.480469 C 133.511719 152.480469 133.777344 152.539062 134.027344 152.675781 Z M 134.027344 152.675781 "/>
<path style=" stroke:none;fill-rule:evenodd;fill:url(#radial0);" d="M 127.808594 91.851562 C 142.191406 103.980469 145.953125 117.21875 139.097656 131.558594 C 136.230469 137.234375 132.144531 141.8125 126.824219 145.3125 C 121.523438 148.796875 116.261719 150.214844 111.074219 149.570312 C 102.257812 148.679688 97.910156 144.859375 98.042969 138.144531 C 98.179688 135.042969 94.148438 132.203125 85.980469 129.632812 C 81.191406 127.945312 72.4375 125.8125 59.726562 123.234375 C 47.148438 120.644531 42.476562 114.519531 45.703125 104.832031 C 48.691406 95.65625 55.640625 88.882812 66.527344 84.492188 C 79.105469 79.328125 92.210938 78.417969 105.832031 81.769531 C 115.292969 84.09375 122.625 87.464844 127.808594 91.851562 Z M 127.808594 91.851562 "/>
<path style=" stroke:none;fill-rule:evenodd;fill:rgb(54.509804%,55.686275%,36.470588%);fill-opacity:1;" d="M 115.75 111.792969 L 133.242188 115.878906 C 136.113281 116.632812 136.679688 117.410156 135.011719 118.203125 C 134.746094 118.320312 132.011719 119.09375 126.824219 120.511719 C 115.421875 123.234375 106.023438 124.976562 98.613281 125.753906 C 96.945312 125.882812 92.460938 124.523438 85.203125 121.683594 C 73.785156 117.03125 67.953125 114.648438 67.6875 114.519531 C 63.410156 112.964844 60.164062 111.601562 57.960938 110.449219 C 56.15625 109.410156 55.566406 108.84375 56.214844 108.707031 L 60.886719 107.535156 C 61.929688 107.535156 70.613281 104.960938 86.949219 99.800781 Z M 115.75 111.792969 "/>
<path style=" stroke:none;fill-rule:evenodd;fill:rgb(100%,100%,100%);fill-opacity:1;" d="M 130.527344 116.257812 L 97.851562 122.648438 L 96.484375 122.648438 L 58.546875 107.722656 L 58.945312 107.535156 L 58.167969 98.039062 L 130.527344 105.230469 L 130.71875 116.066406 C 130.984375 116.199219 130.925781 116.257812 130.527344 116.257812 Z M 130.527344 116.257812 "/>
<path style=" stroke:none;fill-rule:evenodd;fill:rgb(32.156863%,32.54902%,33.333333%);fill-opacity:1;" d="M 131.6875 104.050781 L 132.085938 115.480469 L 132.273438 116.257812 C 132.273438 117.296875 131.765625 117.804688 130.71875 117.804688 L 98.042969 124.390625 L 97.644531 124.390625 L 96.296875 124.203125 L 96.105469 124.203125 L 58.167969 109.277344 C 57.253906 108.894531 56.933594 108.308594 57.203125 107.535156 L 57.390625 106.570312 L 56.800781 96.507812 L 58.167969 96.507812 L 130.71875 103.65625 Z M 130.527344 116.257812 C 130.925781 116.257812 130.984375 116.199219 130.71875 116.066406 L 130.527344 105.210938 L 58.167969 98.039062 L 58.945312 107.535156 L 58.546875 107.722656 L 96.484375 122.648438 L 97.851562 122.648438 Z M 130.527344 116.257812 "/>
<path style=" stroke:none;fill-rule:evenodd;fill:rgb(80%,80%,80%);fill-opacity:1;" d="M 116.339844 111.792969 L 99.597656 114.894531 L 97.265625 114.121094 L 97.265625 113.738281 Z M 116.339844 111.792969 "/>
<path style=" stroke:none;fill-rule:evenodd;fill:rgb(80%,80%,80%);fill-opacity:1;" d="M 130.71875 116.066406 C 130.984375 116.199219 130.925781 116.257812 130.527344 116.257812 L 97.851562 122.648438 L 97.265625 122.648438 L 97.453125 121.476562 L 97.453125 119.945312 L 98.230469 120.324219 L 99.199219 119.359375 L 113.601562 116.445312 L 98.230469 118.964844 L 97.453125 118.582031 L 97.265625 115.105469 L 98.820312 115.671875 C 99.335938 115.800781 99.597656 115.539062 99.597656 114.894531 L 122.738281 111.414062 L 130.527344 111.222656 L 130.71875 113.738281 L 121.390625 116.066406 L 130.71875 115.292969 Z M 130.71875 116.066406 "/>
<path style=" stroke:none;fill-rule:evenodd;fill:rgb(80%,80%,80%);fill-opacity:1;" d="M 60.292969 102.105469 L 99.597656 114.914062 C 99.597656 115.554688 99.335938 115.800781 98.820312 115.671875 Z M 60.292969 102.105469 "/>
<path style=" stroke:none;fill-rule:evenodd;fill:rgb(80%,80%,80%);fill-opacity:1;" d="M 71.789062 110.449219 L 97.453125 118.582031 L 98.230469 118.964844 L 97.265625 119.171875 L 89.683594 116.84375 L 97.851562 119.738281 L 99.199219 119.359375 L 98.230469 120.324219 L 97.453125 119.945312 Z M 71.789062 110.449219 "/>
<path style=" stroke:none;fill-rule:evenodd;fill:rgb(56.862745%,56.862745%,56.862745%);fill-opacity:1;" d="M 97.074219 109.277344 L 101.539062 104.644531 L 106.613281 102.878906 L 130.527344 105.210938 L 130.527344 111.222656 L 122.738281 111.414062 L 130.527344 110.261719 L 126.0625 110.050781 L 97.265625 113.738281 Z M 97.074219 109.277344 "/>
<path style=" stroke:none;fill-rule:evenodd;fill:rgb(56.862745%,56.862745%,56.862745%);fill-opacity:1;" d="M 126.0625 110.050781 L 130.527344 110.261719 L 99.597656 114.894531 Z M 126.0625 110.050781 "/>
<path style=" stroke:none;fill-rule:evenodd;fill:rgb(56.862745%,56.862745%,56.862745%);fill-opacity:1;" d="M 97.851562 119.738281 L 89.683594 116.84375 L 97.265625 119.171875 L 113.601562 116.445312 L 99.199219 119.359375 Z M 97.851562 119.738281 "/>
<path style=" stroke:none;fill-rule:evenodd;fill:rgb(56.862745%,56.862745%,56.862745%);fill-opacity:1;" d="M 130.71875 115.292969 L 121.390625 116.066406 L 130.71875 113.738281 Z M 130.71875 115.292969 "/>
<path style=" stroke:none;fill-rule:evenodd;fill:rgb(100%,100%,100%);fill-opacity:1;" d="M 130.148438 105.417969 L 97.453125 110.636719 L 96.105469 110.449219 L 58.167969 98.039062 L 58.546875 98.039062 L 89.285156 93.003906 L 90.464844 93.195312 L 130.527344 105.230469 C 130.527344 105.339844 130.394531 105.417969 130.148438 105.417969 Z M 130.148438 105.417969 "/>
<path style=" stroke:none;fill-rule:evenodd;fill:rgb(32.156863%,32.54902%,33.333333%);fill-opacity:1;" d="M 130.148438 105.417969 C 130.394531 105.417969 130.527344 105.339844 130.527344 105.210938 L 90.464844 93.195312 L 89.472656 93.003906 L 89.285156 93.003906 L 58.546875 98.039062 L 58.167969 98.039062 L 96.105469 110.449219 L 97.265625 110.636719 L 97.453125 110.636719 Z M 130.71875 103.65625 C 131.496094 103.921875 131.894531 104.507812 131.894531 105.417969 C 131.894531 106.441406 131.367188 106.949219 130.339844 106.949219 L 97.664062 112.1875 L 97.265625 112.1875 L 95.898438 112 L 57.980469 99.59375 C 57.203125 99.457031 56.800781 98.890625 56.800781 97.847656 C 56.800781 96.941406 57.3125 96.429688 58.359375 96.300781 L 89.09375 91.457031 L 89.472656 91.457031 L 90.84375 91.664062 Z M 130.71875 103.65625 "/>
<path style=" stroke:none;fill-rule:evenodd;fill:rgb(59.215686%,61.960784%,47.45098%);fill-opacity:1;" d="M 130.148438 105.417969 L 100.761719 110.261719 L 99.597656 110.050781 L 65.367188 98.433594 L 65.554688 98.246094 L 93.367188 93.78125 L 94.335938 93.78125 L 130.527344 105.210938 C 130.527344 105.339844 130.394531 105.417969 130.148438 105.417969 Z M 130.148438 105.417969 "/>
<path style=" stroke:none;fill-rule:evenodd;fill:rgb(100%,100%,100%);fill-opacity:1;" d="M 74.105469 107.34375 L 55.242188 103.863281 C 54.980469 103.734375 55.886719 103.148438 57.980469 102.105469 Z M 74.105469 107.34375 "/>
<path style=" stroke:none;fill-rule:evenodd;fill:rgb(32.156863%,32.54902%,33.333333%);fill-opacity:1;" d="M 56.214844 103.464844 L 70.417969 106.382812 L 57.980469 102.878906 Z M 58.167969 101.539062 L 79.558594 108.496094 C 65.292969 106.570312 57.125 105.210938 55.050781 104.433594 C 54.652344 104.320312 54.464844 104.050781 54.464844 103.65625 C 54.597656 103.015625 55.699219 102.3125 57.769531 101.539062 Z M 58.167969 101.539062 "/>
<path style=" stroke:none;fill-rule:evenodd;fill:rgb(100%,100%,100%);fill-opacity:1;" d="M 131.6875 104.644531 C 130.796875 105.019531 119.964844 107.027344 99.199219 110.636719 C 96.886719 110.636719 94.871094 110.3125 93.179688 109.675781 C 88.125 107.476562 85.464844 106.304688 85.203125 106.191406 C 81.570312 104.246094 78.320312 101.726562 75.476562 98.625 C 72.359375 95.277344 69.511719 90.753906 66.925781 85.078125 C 64.707031 80.03125 63.734375 77.003906 64 75.964844 C 64.246094 75.1875 64.589844 74.675781 64.96875 74.410156 C 65.234375 74.167969 65.882812 74.089844 66.925781 74.21875 C 67.707031 74.21875 71.011719 74.355469 76.84375 74.617188 C 82.804688 74.734375 87.082031 74.675781 89.683594 74.410156 C 94.472656 74.03125 97.324219 74.617188 98.230469 76.171875 C 99.65625 79.140625 101.671875 82.226562 104.273438 85.460938 C 108.925781 91.398438 113.925781 95.65625 119.246094 98.246094 C 124.3125 100.707031 128.835938 102.3125 132.863281 103.089844 C 133.128906 103.863281 132.730469 104.375 131.6875 104.644531 Z M 131.6875 104.644531 "/>
<path style=" stroke:none;fill-rule:evenodd;fill:rgb(32.156863%,32.54902%,33.333333%);fill-opacity:1;" d="M 131.6875 104.644531 C 132.730469 104.375 133.128906 103.863281 132.863281 103.089844 C 128.835938 102.3125 124.3125 100.707031 119.246094 98.246094 C 113.925781 95.65625 108.945312 91.398438 104.273438 85.460938 C 101.671875 82.226562 99.65625 79.121094 98.230469 76.152344 C 97.585938 74.863281 95.839844 74.21875 92.988281 74.21875 C 91.695312 74.21875 90.578125 74.277344 89.683594 74.410156 L 66.148438 74.21875 C 65.105469 74.21875 64.378906 74.804688 64 75.964844 C 63.734375 77.003906 64.707031 80.03125 66.925781 85.0625 C 69.511719 90.753906 72.359375 95.277344 75.476562 98.625 C 78.320312 101.726562 81.570312 104.246094 85.203125 106.191406 C 85.464844 106.304688 88.125 107.476562 93.179688 109.675781 C 95.003906 110.3125 96.429688 110.636719 97.453125 110.636719 L 99.199219 110.636719 C 119.964844 107.027344 130.796875 105.019531 131.6875 104.644531 Z M 119.644531 96.695312 C 124.5625 99.136719 129.046875 100.6875 133.054688 101.351562 L 133.835938 101.539062 L 134.027344 102.503906 C 134.289062 103.148438 134.289062 103.863281 134.027344 104.644531 C 133.511719 105.417969 132.863281 105.925781 132.085938 106.191406 C 131.175781 106.570312 120.214844 108.574219 99.199219 112.1875 L 97.453125 112.1875 C 95.761719 112.1875 94.226562 111.867188 92.78125 111.222656 L 91.035156 110.449219 C 84.289062 107.988281 78.78125 104.433594 74.503906 99.800781 C 71.65625 96.695312 68.730469 91.984375 65.75 85.648438 C 63.410156 79.839844 62.445312 76.414062 62.84375 75.378906 C 63.488281 73.445312 64.589844 72.480469 66.148438 72.480469 L 67.117188 72.671875 L 89.683594 72.859375 C 90.464844 72.730469 91.566406 72.671875 92.988281 72.671875 C 96.21875 72.671875 98.367188 73.578125 99.410156 75.378906 C 105.109375 85.839844 111.855469 92.949219 119.644531 96.695312 Z M 119.644531 96.695312 "/>
<path style=" stroke:none;fill-rule:evenodd;fill:rgb(80%,80%,80%);fill-opacity:1;" d="M 79.746094 80.996094 C 80.414062 80.351562 80.53125 79.441406 80.144531 78.289062 L 79.179688 74.597656 L 89.683594 74.410156 C 94.472656 74.03125 97.324219 74.597656 98.230469 76.152344 C 99.148438 78.214844 100.835938 80.9375 103.285156 84.285156 C 107.179688 89.449219 111.398438 93.460938 115.9375 96.300781 L 113.410156 96.507812 C 112.5 96.507812 111.796875 96.941406 111.265625 97.847656 C 110.75 98.113281 106.535156 99.265625 98.613281 101.351562 C 96.027344 102.105469 94.472656 102.371094 93.957031 102.105469 C 93.179688 101.726562 91.625 100.179688 89.285156 97.472656 C 87.480469 95.523438 86.171875 94.105469 85.394531 93.195312 C 83.832031 91.535156 82.675781 89.847656 81.898438 88.164062 C 81.25 86.480469 80.53125 84.09375 79.746094 80.996094 Z M 79.746094 80.996094 "/>
<path style=" stroke:none;fill-rule:evenodd;fill:rgb(59.215686%,61.960784%,47.45098%);fill-opacity:1;" d="M 124.699219 103.863281 C 123.914062 104.109375 115.292969 105.546875 98.820312 108.121094 C 96.753906 108.121094 95.0625 107.859375 93.769531 107.34375 C 90.269531 106.0625 87.917969 105.09375 86.761719 104.449219 C 83.640625 102.769531 80.738281 100.574219 78 97.847656 C 75.28125 94.878906 72.679688 90.890625 70.230469 85.859375 C 68.027344 81.445312 67.058594 78.820312 67.308594 77.910156 C 67.4375 76.871094 68.214844 76.359375 69.640625 76.359375 C 77.035156 77.136719 83.71875 77.195312 89.683594 76.550781 C 93.957031 76.285156 96.429688 76.871094 97.074219 78.289062 C 99.410156 82.296875 101.160156 85.078125 102.316406 86.613281 C 106.34375 91.910156 110.695312 95.730469 115.371094 98.058594 C 119.886719 100.25 123.328125 101.726562 125.664062 102.503906 C 125.796875 103.277344 125.476562 103.734375 124.699219 103.863281 Z M 124.699219 103.863281 "/>
<path style=" stroke:none;fill-rule:evenodd;fill:rgb(45.490196%,47.45098%,36.470588%);fill-opacity:1;" d="M 87.917969 93.402344 C 86.378906 91.210938 83.640625 85.648438 79.746094 76.738281 C 84.042969 77.003906 87.347656 76.925781 89.683594 76.550781 C 93.957031 76.285156 96.429688 76.871094 97.074219 78.289062 C 97.324219 78.667969 98.878906 81.203125 101.75 85.839844 C 105.246094 90.753906 109.0625 94.425781 113.203125 96.886719 L 112.234375 96.886719 C 106.402344 98.699219 101.859375 99.855469 98.613281 100.367188 C 96.429688 100.765625 94.53125 100.308594 92.988281 99.019531 C 91.695312 98.113281 90.007812 96.242188 87.917969 93.402344 Z M 87.917969 93.402344 "/>
<path style=" stroke:none;fill-rule:evenodd;fill:rgb(100%,100%,100%);fill-opacity:1;" d="M 117.683594 82.355469 C 119.378906 84.679688 121.390625 87.011719 123.726562 89.335938 C 124.75 90.492188 125.285156 91.132812 125.285156 91.265625 C 125.664062 91.910156 125.53125 92.363281 124.886719 92.628906 C 124.488281 92.746094 117.421875 93.519531 103.683594 94.957031 C 100.703125 95.464844 98.746094 95.785156 97.851562 95.921875 C 96.429688 96.167969 95.25 95.972656 94.335938 95.335938 C 92.78125 94.175781 90.707031 91.585938 88.125 87.578125 C 85.007812 82.8125 82.941406 78.289062 81.898438 74.03125 C 80.980469 69.753906 80.28125 63.628906 79.746094 55.625 C 79.367188 48.265625 79.367188 43.800781 79.746094 42.253906 C 79.882812 41.09375 80.28125 40.378906 80.929688 40.132812 C 81.308594 40 81.898438 39.921875 82.675781 39.921875 C 85.65625 39.546875 90.707031 39.605469 97.851562 40.132812 C 104.847656 40.644531 108.796875 41.230469 109.710938 41.875 C 110.238281 42.253906 110.558594 43.992188 110.695312 47.09375 C 110.808594 53.167969 111.265625 59.878906 112.042969 67.242188 C 112.691406 73.046875 114.574219 78.097656 117.683594 82.355469 Z M 117.683594 82.355469 "/>
<path style=" stroke:none;fill-rule:evenodd;fill:rgb(32.156863%,32.54902%,33.333333%);fill-opacity:1;" d="M 122.945312 86.234375 L 125.285156 88.75 C 126.445312 90.167969 126.953125 91.398438 126.824219 92.417969 C 126.574219 93.332031 126.0625 93.917969 125.285156 94.175781 C 124.621094 94.3125 118.730469 95.011719 107.578125 96.300781 L 96.675781 97.660156 C 95.917969 97.660156 94.871094 97.339844 93.558594 96.695312 C 91.890625 95.40625 89.683594 92.6875 86.949219 88.558594 C 83.71875 83.507812 81.570312 78.800781 80.53125 74.410156 C 79.503906 70.023438 78.78125 63.757812 78.398438 55.625 C 78 48.265625 78 43.671875 78.398438 41.875 C 78.78125 39.546875 80.015625 38.394531 82.085938 38.394531 L 87.347656 38.183594 C 100.703125 38.183594 108.414062 39.035156 110.488281 40.699219 C 111.398438 41.476562 111.855469 43.554688 111.855469 46.90625 C 112.234375 54.777344 112.769531 61.507812 113.410156 67.054688 C 114.1875 74.277344 117.363281 80.671875 122.945312 86.234375 Z M 124.886719 92.628906 C 125.53125 92.363281 125.664062 91.910156 125.285156 91.265625 C 125.285156 91.132812 124.75 90.492188 123.726562 89.335938 C 121.390625 87.011719 119.378906 84.679688 117.683594 82.355469 C 114.585938 78.097656 112.710938 73.046875 112.042969 67.242188 C 111.265625 59.878906 110.828125 53.167969 110.695312 47.09375 C 110.558594 43.992188 110.238281 42.253906 109.722656 41.875 C 109.0625 41.363281 106.210938 40.90625 101.160156 40.507812 C 96.105469 40 91.488281 39.734375 87.347656 39.734375 C 85.007812 39.734375 83.453125 39.8125 82.675781 39.921875 C 81.898438 39.921875 81.328125 40 80.929688 40.132812 C 80.28125 40.378906 79.882812 41.09375 79.765625 42.253906 C 79.367188 43.800781 79.367188 48.265625 79.765625 55.625 C 80.28125 63.628906 81 69.753906 81.898438 74.03125 C 82.941406 78.289062 85.007812 82.8125 88.125 87.578125 C 90.726562 91.585938 92.800781 94.175781 94.355469 95.335938 C 95.003906 95.84375 95.78125 96.109375 96.675781 96.109375 C 97.722656 96.109375 100.054688 95.730469 103.683594 94.957031 C 117.4375 93.519531 124.507812 92.746094 124.886719 92.628906 Z M 124.886719 92.628906 "/>
<path style=" stroke:none;fill-rule:evenodd;fill:rgb(59.215686%,61.960784%,47.45098%);fill-opacity:1;" d="M 114.78125 80.996094 C 116.339844 83.1875 118.140625 85.382812 120.214844 87.578125 C 121.523438 89.125 121.769531 90.113281 120.992188 90.492188 C 120.742188 90.621094 114.894531 91.398438 103.476562 92.816406 C 99.199219 93.195312 96.296875 92.875 94.734375 91.851562 C 93.425781 90.8125 91.679688 88.558594 89.472656 85.0625 C 86.890625 80.804688 85.125 76.796875 84.230469 73.046875 C 83.453125 69.304688 82.863281 63.890625 82.484375 56.78125 C 82.21875 50.460938 82.21875 46.527344 82.484375 44.972656 C 82.734375 43.671875 83.589844 43.027344 85.007812 43.027344 C 87.597656 42.648438 91.945312 42.648438 98.042969 43.027344 C 104.007812 43.425781 107.3125 43.933594 107.957031 44.578125 C 108.339844 44.972656 108.605469 46.527344 108.738281 49.230469 C 108.871094 54.660156 109.253906 60.601562 109.898438 67.054688 C 110.429688 72.214844 112.042969 76.871094 114.78125 80.996094 Z M 114.78125 80.996094 "/>
<path style=" stroke:none;fill-rule:evenodd;fill:rgb(100%,100%,100%);fill-opacity:1;" d="M 98.230469 55.226562 C 97.074219 55.757812 96.21875 56.535156 95.707031 57.554688 C 95.191406 58.460938 95.25 58.976562 95.917969 59.105469 C 96.945312 59.242188 97.265625 60.277344 96.886719 62.210938 C 96.484375 64.027344 95.132812 64.460938 92.800781 63.570312 C 92.023438 63.042969 91.296875 61.753906 90.65625 59.691406 C 90.007812 57.230469 90.199219 55.171875 91.242188 53.488281 C 92.667969 51.292969 94.546875 49.816406 96.886719 49.042969 C 99.597656 48.136719 101.617188 48.910156 102.90625 51.371094 C 104.460938 54.203125 105.296875 57.101562 105.433594 60.070312 C 105.566406 63.304688 104.730469 65.691406 102.90625 67.242188 C 101.101562 68.792969 100.246094 70.664062 100.382812 72.859375 C 100.511719 74.941406 101.023438 76.035156 101.9375 76.152344 C 102.585938 76.285156 103.042969 76.09375 103.304688 75.585938 C 103.421875 75.1875 103.304688 74.675781 102.90625 74.03125 C 102.507812 73.503906 102.585938 73.046875 103.09375 72.671875 C 103.761719 72.292969 104.410156 72.402344 105.054688 73.046875 C 105.832031 73.824219 106.210938 74.921875 106.210938 76.359375 C 106.078125 77.890625 105.246094 78.933594 103.683594 79.441406 C 101.996094 80.105469 100.453125 79.839844 99.03125 78.667969 C 97.472656 77.511719 96.753906 75.773438 96.886719 73.445312 C 96.886719 71.761719 97.664062 69.566406 99.21875 66.863281 C 100.910156 64.136719 101.691406 62.074219 101.558594 60.660156 C 101.539062 56.269531 100.433594 54.453125 98.230469 55.226562 Z M 98.230469 55.226562 "/>
<path style=" stroke:none;fill-rule:evenodd;fill:rgb(100%,100%,100%);fill-opacity:1;" d="M 104.0625 81.980469 C 106.023438 82.226562 106.933594 83 106.800781 84.285156 C 106.800781 85.195312 106.34375 85.839844 105.433594 86.234375 C 104.519531 86.480469 103.550781 86.367188 102.507812 85.839844 C 101.617188 85.324219 101.40625 84.550781 101.9375 83.507812 C 102.449219 82.488281 103.171875 81.980469 104.0625 81.980469 Z M 104.0625 81.980469 "/>
</g>
</svg>
