<?xml version="1.0" encoding="UTF-8"?>
<svg xmlns="http://www.w3.org/2000/svg" xmlns:xlink="http://www.w3.org/1999/xlink" width="200px" height="200px" viewBox="0 0 200 273" version="1.1">
<g id="surface1">
<path style="fill-rule:nonzero;fill:rgb(50.980392%,38.823529%,32.941176%);fill-opacity:1;stroke-width:1;stroke-linecap:butt;stroke-linejoin:miter;stroke:rgb(0%,0%,0%);stroke-opacity:1;stroke-miterlimit:4;" d="M 70.084717 0.498563 L 127.294758 192.060225 C 177.884522 321.233474 194.333538 421.150114 124.380028 501.033571 L 40.236982 644.80113 C -30.7107 747.550518 0.492723 835.184369 77.541002 915.996967 C 170.089315 993.704874 283.67339 1019.199594 342.510257 1138.288264 C 357.513206 1168.632647 411.876302 1235.349496 431.940487 1269.478428 C 496.96833 1369.463055 531.312431 1423.579848 622.369487 1490.659289 C 636.92054 1499.814726 649.302492 1511.349671 663.288675 1520.98101 C 676.868152 1530.295081 688.956371 1541.694053 704.953492 1547.495519 C 710.30846 1549.263152 717.22247 1550.237617 721.651051 1550.124307 L 736.247294 1550.124307 C 744.720345 1552.322519 754.639463 1550.464237 761.011198 1556.877576 C 776.172311 1565.489125 790.384442 1577.839901 807.714656 1581.692436 C 825.971257 1584.502521 844.657159 1583.120141 863.117113 1583.120141 C 871.590164 1583.120141 875.860582 1574.508591 880.60549 1568.52583 C 883.090919 1553.319646 890.863531 1565.19452 890.840936 1565.625097 C 892.964848 1568.480506 896.308878 1570.973323 899.585125 1572.899591 C 907.674064 1577.681267 916.599011 1581.103225 925.840286 1583.120141 C 941.227347 1585.273028 956.95333 1584.321225 972.475959 1583.120141 C 978.825099 1581.624451 984.699748 1578.202493 989.986932 1574.372619 C 992.223817 1572.763619 993.511721 1570.497422 995.838986 1568.52583 C 996.245692 1568.321872 1004.944691 1568.52583 1006.051837 1568.52583 L 1027.923606 1568.52583 C 1037.119691 1568.208562 1046.654698 1568.548492 1055.263318 1565.398478 C 1057.590582 1564.537323 1059.714494 1563.01897 1061.454294 1561.251336 C 1065.001678 1555.744477 1070.198482 1551.846617 1075.576045 1548.220702 C 1078.490775 1546.611702 1081.925185 1546.1358 1084.794725 1544.458814 C 1090.985701 1540.878222 1096.227695 1535.937912 1101.650448 1531.178898 C 1105.672323 1527.507658 1107.615476 1524.765559 1112.495954 1518.964094 C 1113.896831 1516.357967 1114.100185 1513.185291 1114.235753 1510.216572 C 1114.461701 1504.845685 1114.59727 1500.857177 1112.495954 1494.171895 C 1109.716793 1491.135191 1106.779468 1488.189134 1103.72917 1485.401711 C 1101.808612 1483.452782 1099.775079 1481.5945 1097.922306 1479.600246 C 1095.188334 1476.631528 1095.482067 1471.011358 1096.544023 1467.385442 C 1099.052046 1462.898372 1104.85891 1460.564188 1109.581224 1459.159146 C 1109.581224 1459.159146 1116.630803 1459.068498 1119.794075 1457.731442 C 1124.9005 1455.555892 1128.831996 1451.250117 1132.921655 1447.510892 C 1137.282452 1443.522384 1141.394707 1439.239271 1144.98728 1434.548243 C 1148.173148 1430.401102 1152.42097 1425.506115 1153.324763 1421.245664 L 1156.239492 1402.277593 L 1156.239492 1389.15631 C 1156.262087 1381.315267 1154.748235 1373.632858 1153.324763 1365.859801 C 1151.517178 1359.333153 1148.805802 1352.942477 1146.049236 1346.869068 C 1145.891072 1344.444236 1144.128678 1341.974081 1142.20812 1340.319757 C 1140.310156 1338.189532 1139.406364 1338.212194 1138.72852 1338.121546 C 1137.711754 1337.985574 1135.768601 1338.098884 1134.367723 1338.121546 L 1105.807892 1338.121546 L 1090.601589 1336.67118 L 1086.240792 1336.67118 C 1082.444866 1335.606067 1080.705066 1333.997067 1076.050536 1333.181236 C 1071.102274 1331.640221 1069.791776 1331.572236 1065.837685 1330.847052 C 1061.137966 1328.966109 1057.952099 1325.544151 1053.094216 1323.051334 C 1046.293181 1319.946643 1046.38356 1320.490531 1042.881365 1319.833333 C 1038.927275 1319.10815 1034.656857 1319.22146 1030.838335 1319.153474 C 1024.218058 1316.637995 1019.021254 1311.856319 1012.762493 1308.8876 L 972.679313 1284.344683 C 956.230296 1273.716217 935.443077 1263.903583 917.163882 1256.470456 L 904.894904 1252.685906 L 901.30233 1251.598131 C 875.43128 1181.006084 860.089409 1131.829602 848.453086 1051.130314 C 837.991692 978.589337 808.934775 878.468739 779.08704 814.018086 C 732.65472 705.421909 723.594204 573.891815 694.989184 410.227043 C 679.014658 288.056344 664.169872 137.580841 652.262411 0.589211 L 70.152501 0.589211 Z M 904.894904 1252.708568 Z M 904.894904 1252.708568 " transform="matrix(0.172883,0,0,0.17237,0.00466041,0)"/>
<path style="fill-rule:nonzero;fill:rgb(36.470588%,27.45098%,22.745098%);fill-opacity:1;stroke-width:1;stroke-linecap:butt;stroke-linejoin:miter;stroke:rgb(0%,0%,0%);stroke-opacity:1;stroke-miterlimit:4;" d="M 262.343895 473.725893 C 252.515156 500.10443 256.424057 559.546786 256.130325 585.08683 C 255.475075 643.736018 268.015191 664.471723 292.937259 700.844191 C 309.092543 724.457967 338.488382 763.708505 344.837521 752.173561 C 298.292227 672.969963 270.41024 580.418464 262.343895 473.725893 Z M 262.343895 473.725893 " transform="matrix(0.172883,0,0,0.17237,0.00466041,0)"/>
</g>
</svg>
