<?xml version="1.0" encoding="UTF-8"?>
<svg id="Layer_1" data-name="Layer 1" xmlns="http://www.w3.org/2000/svg" xmlns:xlink="http://www.w3.org/1999/xlink" viewBox="0 0 1355.89 1355.89">
  <defs>
    <style>
      .laugh-cls-1 {
        fill: url(#linear-gradient);
      }

      .laugh-cls-1, .laugh-cls-2, .laugh-cls-3, .laugh-cls-4, .laugh-cls-5, .laugh-cls-6, .laugh-cls-7, .laugh-cls-8, .laugh-cls-9, .laugh-cls-10, .laugh-cls-11, .laugh-cls-12, .laugh-cls-13, .laugh-cls-14, .laugh-cls-15, .laugh-cls-16, .laugh-cls-17, .laugh-cls-18, .laugh-cls-19, .laugh-cls-20, .laugh-cls-21, .laugh-cls-22, .laugh-cls-23, .laugh-cls-24, .laugh-cls-25, .laugh-cls-26, .laugh-cls-27, .laugh-cls-28 {
        stroke-width: 0px;
      }

      .laugh-cls-2 {
        fill: #f7f2e8;
      }

      .laugh-cls-3 {
        fill: #4f5857;
      }

      .laugh-cls-4 {
        fill: #4e3632;
      }

      .laugh-cls-5 {
        fill: #878481;
      }

      .laugh-cls-6 {
        fill: #a40f26;
      }

      .laugh-cls-7 {
        fill: #0a0a09;
      }

      .laugh-cls-8 {
        fill: #0c1713;
      }

      .laugh-cls-9 {
        fill: #062629;
      }

      .laugh-cls-10 {
        fill: #0b5548;
      }

      .laugh-cls-11 {
        fill: #180e08;
      }

      .laugh-cls-12 {
        fill: #c3dbc8;
      }

      .laugh-cls-13 {
        fill: #cc462d;
      }

      .laugh-cls-14 {
        fill: #e1515e;
      }

      .laugh-cls-15 {
        fill: #c5233b;
      }

      .laugh-cls-16 {
        fill: #a4a7a1;
      }

      .laugh-cls-17 {
        fill: #cf4152;
      }

      .laugh-cls-18 {
        fill: #93928a;
      }

      .laugh-cls-19 {
        fill: #6d1118;
      }

      .laugh-cls-20 {
        fill: #7c8e85;
      }

      .laugh-cls-21 {
        fill: #fd9e8a;
      }

      .laugh-cls-22 {
        fill: #fc8a5e;
      }

      .laugh-cls-23 {
        fill: #72c4bb;
      }

      .laugh-cls-24 {
        fill: #ea617b;
      }

      .laugh-cls-25 {
        fill: #fcfcfc;
      }

      .laugh-cls-26 {
        fill: #01917f;
      }

      .laugh-cls-27 {
        fill: #03413d;
      }

      .laugh-cls-28 {
        fill: #032e27;
      }
    </style>
    <linearGradient id="linear-gradient" x1="532.84" y1="963.7" x2="850.83" y2="1166.9" gradientUnits="userSpaceOnUse">
      <stop offset="0" stop-color="#93cfc4"/>
      <stop offset="1" stop-color="#c5dac7"/>
    </linearGradient>
  </defs>
  <path class="laugh-cls-5" d="m500.51,1149.33c-9.74.34-24.28,4.6-31.78-1.32.9-1.3,4.63-10.9,5.3-13.24l26.48,14.57Z"/>
  <path class="laugh-cls-18" d="m887.15,1144.03c1.19.8,2.35,5.19,2.65,6.62-8.62-.83-21.26,3.08-23.83-5.3,7.41.43,13.91-1.02,21.19-1.32Z"/>
  <path class="laugh-cls-21" d="m746.8,908.34c-12.28,29.76-36.92,51.79-61.57,71.5q-14.23-9.27-28.47-18.54c3.12-.43,31.64-17.7,36.41-21.19,15.21-11.11,26.13-25.13,39.06-38.4,1.33-1.37,3.97-2.6,5.3-3.97,12.2,5.73,8.74,10.02,9.27,10.59Z"/>
  <g>
    <path class="laugh-cls-1" d="m856.7,954.68c-13.28,9.85-16.94,46.6-14.57,61.57,2.2,13.87,48.25,92.08,55.61,113.21-5.02,2.19-10.31,9.36-10.59,14.57-7.28.3-13.78,1.75-21.19,1.32-2.49-.14-3.39,1.89-5.96,1.32-2.66-1.79-1.83-3.71-1.99-3.97-7.88-13.26-12.26-72.95-14.57-19.2-36.24,16.34-76.71,23.12-116.52,25.82-56.28,3.81-138-.6-201.26,0q-1.66-51.64-3.31-103.28-.99,50.32-1.99,100.63c-1.06.01,2.1,1.89-19.86,2.65l-26.48-14.57c.7-2.47,4.21-5.59,1.99-7.94-13.39-3.32-27.09-5.55-40.39-9.27,7.36-27.77,18.51-55.3,33.1-80.11,22.87-38.87,40.77-60.79,86.73-68.19q16.22,37.41,32.44,74.81c2.76,1.37,21.08-12.01,25.16-12.58,5.33-.74,15.64,7.31,37.08-6.62.89,19.16,3.75,22.59,23.83,23.83,11.7.73,33.23-1.65,39.72-12.58,3.93-6.62,1.08-12.51,5.3-13.9,12.16,9.6,24.77,13.23,38.4,5.3,19.54-11.38,42.5-64.07,44.36-87.39,15.9,5.24,41.01,9.53,54.95,14.57Z"/>
    <path class="laugh-cls-16" d="m858.02,1142.71c-43.5,3.46-87.54,8.37-131.09,6.62,39.81-2.7,80.28-9.48,116.52-25.82,2.31-53.75,6.68,5.94,14.57,19.2Z"/>
    <path class="laugh-cls-4" d="m525.67,1149.33c-7.92.08-4.93-2.65-5.3-2.65q.99-50.32,1.99-100.63,1.66,51.64,3.31,103.28Z"/>
    <path class="laugh-cls-2" d="m979.84,1112.25c-22.21,8.99-78.25,15.53-82.09,17.21-7.36-21.13-53.41-99.34-55.61-113.21-2.37-14.97,1.29-51.72,14.57-61.57,49.59,17.91,106.3,107.92,123.14,157.57Z"/>
    <path class="laugh-cls-26" d="m554.8,940.12c9.03,15.08,43.05,84.45,56.94,88.72l1.32,2.65c-4.08.57-22.39,13.95-25.16,12.58q-16.22-37.41-32.44-74.81c-45.96,7.4-63.86,29.32-86.73,68.19-14.6,24.81-25.74,52.34-33.1,80.11-21.05-5.89-29.95-7.13-50.32-18.54,12.33-38.58,64-123.93,99.97-139.03,11.88-4.99,51.25-11.87,69.52-19.86Z"/>
    <path class="laugh-cls-10" d="m746.8,887.15c102.53,74.09,116.62,19.33,190.67,114.54,24.04,30.91,43.73,65.67,58.26,101.96-.47,2.55-12.97,7.43-15.89,8.61-16.84-49.65-73.55-139.66-123.14-157.57-13.94-5.03-39.05-9.33-54.95-14.57-1.85,23.32-24.81,76.01-44.36,87.39-8.53.56-9.81,6.45-11.92-5.3,17.6-1.78,47.58-70.16,46.34-88.05l-31.78-20.52c-3.79-7.4-1.32,7.73-13.24-5.3-.53-.58,2.93-4.87-9.27-10.59.56-.58-4.2-3.43,9.27-10.59Z"/>
    <path class="laugh-cls-7" d="m618.36,888.48q-8.61,10.26-17.21,20.52,26.48,26.15,52.96,52.3c-12.93-2.26-19.93-23.68-31.78-15.89-9.73-9.06-19.18-18.31-28.47-27.81-5.76,5.06-17.67,9.09-21.85,11.92-6.98-3.21-9.99,11.77-17.21,10.59-18.26,8-57.64,14.88-69.52,19.86-35.97,15.1-87.64,100.45-99.97,139.03-5.77-3.23-12.21-5.35-17.21-9.93,10.85-27.21,28.1-59.46,45.02-83.42,56.95-80.67,70.48-54.99,141.02-86.73,17.73-7.98,40.79-23.66,58.92-33.1,6.36,2.26,5.02,2.56,5.3,2.65Z"/>
    <path class="laugh-cls-27" d="m760.04,913.63c-9.18,9.82-15.02,24.84-23.83,36.41-8.67,11.38-23.53,24.73-34.43,34.43,6.43,8.24,34.39,38.68,43.7,37.74,2.11,11.75,3.39,5.85,11.92,5.3-13.63,7.94-26.24,4.31-38.4-5.3-.59-.46-5.02-5.25-7.94-7.94-36.46-33.56-11.59-28.38-55.61,6.62-1.62,1.29-3.59,2.86-5.3,3.97-21.43,13.93-31.75,5.88-37.08,6.62l-1.32-2.65c7.39,2.27,7.71,2.78,9.27-5.3,17.48,4.47,39.29-25.31,50.32-36.41.17-2.42-21.82-14.82-38.4-29.79-3.75-3.38-6.89-8.47-10.59-11.92,11.85-7.79,18.85,13.62,31.78,15.89.87-.05,1.79.12,2.65,0q14.23,9.27,28.47,18.54c24.65-19.71,49.29-41.75,61.57-71.5,11.92,13.03,9.45-2.1,13.24,5.3Z"/>
    <path class="laugh-cls-9" d="m572.01,929.52c-2.73,1.85-5.73,3.43-7.94,5.96,14.6,19.95,35.06,70.74,54.29,84.08.35.24,2.42,3.91,2.65,3.97-1.55,8.08-1.88,7.56-9.27,5.3-13.89-4.26-47.9-73.64-56.94-88.72,7.23,1.18,10.23-13.8,17.21-10.59Z"/>
    <path class="laugh-cls-12" d="m760.04,913.63l31.78,20.52c1.24,17.89-28.74,86.28-46.34,88.05-9.31.94-37.27-29.49-43.7-37.74,10.9-9.7,25.75-23.04,34.43-34.43,8.82-11.57,14.65-26.6,23.83-36.41Z"/>
    <path class="laugh-cls-26" d="m622.33,945.41c3.71,3.45,6.84,8.53,10.59,11.92-8.96,17.32-13.44,42.94-14.57,62.23-19.23-13.34-39.69-64.14-54.29-84.08,2.21-2.53,5.22-4.11,7.94-5.96,4.17-2.82,16.09-6.85,21.85-11.92,9.29,9.5,18.74,18.75,28.47,27.81Z"/>
    <g>
      <path class="laugh-cls-20" d="m718.99,1022.21c-4.22,1.39-1.36,7.28-5.3,13.9-6.49,10.93-28.03,13.3-39.72,12.58v-2.65c20.83,2.68,40.67-8.37,37.08-31.78,2.93,2.69,7.36,7.48,7.94,7.94Z"/>
      <path class="laugh-cls-3" d="m673.97,1046.05v2.65c-20.08-1.25-22.95-4.67-23.83-23.83,1.71-1.11,3.68-2.69,5.3-3.97-.81,14.12,4.24,23.32,18.54,25.16Z"/>
      <path class="laugh-cls-12" d="m711.05,1014.27c3.6,23.41-16.24,34.46-37.08,31.78-14.29-1.84-19.34-11.03-18.54-25.16,44.02-35,19.16-40.18,55.61-6.62Z"/>
    </g>
    <path class="laugh-cls-23" d="m621.01,1023.54c-.23-.06-2.3-3.73-2.65-3.97,1.12-19.3,5.6-44.92,14.57-62.23,16.58,14.97,38.57,27.37,38.4,29.79-11.03,11.1-32.84,40.88-50.32,36.41Z"/>
  </g>
  <g>
    <path class="laugh-cls-25" d="m889.8,1150.65c-.29-1.43-1.46-5.82-2.65-6.62.28-5.2,5.57-12.37,10.59-14.57,3.85-1.68,59.89-8.23,82.09-17.21,2.92-1.18,15.42-6.06,15.89-8.61-14.53-36.28-34.22-71.05-58.26-101.96-74.05-95.2-88.14-40.44-190.67-114.54,76.52-31.68,154.31-74.86,168.16-164.19.06-.23,1.55-.55,2.65-3.97,24.21-4.88,32.39-13.47,42.37-34.43,7.91-16.59,13.35-35.42-3.97-50.32,19.06-18.04,15.48-36.06,1.32-55.61-5.88-8.12-11.27-13.96-19.86-19.2,26.6-11.06,33.87-13.44,9.27-13.24-.87-1.13,11.33-7.02,19.86-20.52,19.74-31.26,7.82-68.06-23.83-85.4,17.71-33.2,20.81-81.71-21.19-95.34-2.08-39.19-38.38-75.83-78.12-77.46-23.3-.96-36.74,6.56-56.94,15.89-24.84-56.25-100.7-74.79-152.27-46.34-23.39,12.9-36.39,32.79-38.4,34.43-1.57,1.28-3.4,2.26-4.63,3.97-13.39-9.66-30.73-14.25-47.01-13.24-38,2.36-70.91,42.52-78.12,78.12-53.27-16.57-76.16,54.69-45.02,92.03-46.14,25.33-59.83,87.54-14.57,120.49l-17.21,10.59q13.9,1.99,27.81,3.97c-25.94,22-22.76,27.84-14.57,61.57-10.1,7.02-14.17,30.92-13.24,42.37,2.3,28.5,26.57,55.76,56.94,50.98,15.17,83.95,91.17,136.66,166.84,163.53-18.14,9.45-41.19,25.12-58.92,33.1-70.54,31.74-84.07,6.06-141.02,86.73-16.92,23.96-34.17,56.21-45.02,83.42,5.01,4.58,11.44,6.7,17.21,9.93,20.37,11.4,29.27,12.65,50.32,18.54,13.29,3.72,26.99,5.95,40.39,9.27,2.22,2.35-1.29,5.48-1.99,7.94-.66,2.34-4.4,11.94-5.3,13.24-1.49,2.17-1.32,3.76-3.31,5.3-34.36.05-127.98-24.25-131.75-65.54-3.23-35.38,64.49-130.31,92.03-154.26,36.44-31.69,67.68-30.72,111.89-44.36-6.69-3.56-30.57-22.48-32.44-23.17-5.86-2.16-104.71-19.38-123.14-21.19-39.74-38.12-24.03-31.62,18.54-23.83,2.02-2.2,4.84-5.02,7.94-5.3,5.12-.45,70.06,21.92,80.77,27.81,1.18-16.62-25.88-20.3-38.4-39.72-9.3-1.07-62.46-2.08-65.54-5.96-1.35-1.7-2.03-13.27-1.32-14.57,1.92-3.5,52.97-1.34,61.57-3.31q-5.3-9.93-10.59-19.86c-7.58,10.46-55.59,7.79-67.53,5.3-13.36-2.79-48.07-20.68-38.4-37.08,23.15,13.15,49.69,19.35,76.14,20.52-44.67-26.73-62.01-74.85-46.34-124.47,1.43-4.53,6.27-5.23,6.62-6.62-4.33-16.2-1.88-33.75,5.3-48.99-34.02-47.35-40.04-106.32,6.62-146.98-18.04-49.82,6.38-113.02,62.9-119.83,26.35-57.32,80.76-89.21,143-70.18,54.04-61.25,161.36-58.15,214.51,2.65,64.91-19.03,137.81,16.57,155.58,82.76,34.12,28.57,44.43,68.08,29.13,109.9,38.18,33.79,38.17,92.54,9.27,132.41-.62,5.86,23.66,34.74,5.3,76.8,18.05,34.1-6.62,91.74-39.72,109.9,39.81,1.16,69.21-21.53,72.16-19.2,15.33,12.1-42.5,55.43-105.93,33.1q-2.98,8.94-5.96,17.88c10.5,7.06,60.32-.88,63.56,10.59.26.91.21,10.11,0,10.59-2,4.51-60.5,1.02-69.52.66-12.71,25.02-48.54,30.66-40.39,39.06,4.68,4.81,93.5-33.77,130.42-27.14,6.53,2.56-11.9,44.31-54.29,31.78-27.15,10.46-55.56,18.98-84.74,21.19-9.81,13.51-27.12,17.96-41.71,24.5,60.38,15.19,85.9,19.74,128.44,67.53,16.26,18.26,77.67,107.98,82.09,127.11,14.42,62.35-96.77,75.39-138.37,77.46q-1.66-.99-3.31-1.99c-.34-2.67.49-6.21,0-8.61Z"/>
    <g>
      <path class="laugh-cls-7" d="m843.46,267.47c-13.78,15.26-32.75,25.7-41.05,45.68,25.25-.16,81.76,7.01,60.91,43.7,32.02,24.44,48.84,63.91,51.64,103.28l15.89-5.3c.61,25.21-5.49,19.02-23.83,26.48q9.27,30.45,18.54,60.91c1.28,1.09,18.33-9.73,20.52-11.25,8.86-6.16,31.56-33.34,20.52-5.3-8.53,13.51-20.73,19.39-19.86,20.52,24.6-.2,17.34,2.19-9.27,13.24,8.59,5.24,13.98,11.08,19.86,19.2q-4.63-3.31-9.27-6.62c-4.12-5.77-18.05-17.33-19.86-13.9,1.99,13.66,8.09,59.1,6.62,66.87-.12.65-3.38,4.18-3.97,6.62-.04.16-2.39.83-2.65,1.99-1.03,4.62,1.1,18,1.32,27.14.19,7.87,1.31,11.11,1.32,11.92.18,8.17,5.99,8.24-11.92,22.51-.5-22.77-20.41-131.21-26.48-164.19-5.01-27.22-8.71-54.63-15.89-81.43-3.7-4.76-13.84-.67-14.57-.66-3.92.05-8.01.23-11.92,0l6.62-5.96c-26.53-20.15-38.41-43.16-70.84-57.6-2.71,1.28-4.81,3.8-7.28,5.3-9.53,5.77-11.88,12.75-25.16,14.57-9.17,1.26-24.66-.92-35.09,0-1.18.38-.48,2.54-.66,2.65-5.38,3.19-52.95,64.8-108.58,48.99-9.44-18.82,4.63-36.2,17.21-49.65q-17.54,4.3-35.09,8.61l-4.63,3.97c-2.36,18.5-30.67,48.11-46.34,55.61-20.44,9.78-46.19,10.12-67.53,3.31l2.65,17.21q-16.55,97.98-33.1,195.97c-9.49,4.89-8.87-1.76-9.27-27.14,0-.47,1.58-1.58,1.32-9.27-.27-8.15.2-16.34,0-24.5-.84-2-5.77-2.72-7.94-3.31-6.06-1.63-18.67-2.27-23.83,1.32-8.19-33.73-11.37-39.58,14.57-61.57q-13.9-1.99-27.81-3.97l17.21-10.59c-45.26-32.95-31.58-95.16,14.57-120.49-31.14-37.34-8.25-108.59,45.02-92.03-.04.19,1.6-.5,0,3.97-21.23-11.41-54.28,39.14-28.47,55.61,31.86,20.33,117.79-35.81,166.84-54.29,56.83-21.41,127.39-37.77,188.02-31.78,2.81-.91-5.31-28.99-5.96-30.45,20.2-9.33,33.64-16.85,56.94-15.89Z"/>
      <path class="laugh-cls-28" d="m786.52,283.36c.65,1.47,8.77,29.54,5.96,30.45-60.63-5.99-131.2,10.37-188.02,31.78-49.05,18.48-134.97,74.62-166.84,54.29-25.81-16.47,7.23-67.02,28.47-55.61,5.09,2.74,15.72,31.8,18.54,39.06h2.65c2.14-45.47,21.16-91.89,56.94-121.16,16.28-1.01,33.62,3.58,47.01,13.24,1.23-1.71,3.06-2.69,4.63-3.97-8.59,10.63,6.06,12.95,13.9,31.78-1.79-26.8,10.34-45.09,24.5-66.21,51.57-28.45,127.43-9.91,152.27,46.34Z"/>
      <path class="laugh-cls-28" d="m966.6,525.67c11.03-28.04-11.66-.87-20.52,5.3-2.2,1.53-19.25,12.34-20.52,11.25q-9.27-30.45-18.54-60.91c18.35-7.46,24.44-1.27,23.83-26.48l-15.89,5.3c-2.8-39.37-19.62-78.84-51.64-103.28,20.86-36.69-35.65-43.86-60.91-43.7,8.29-19.98,27.26-30.42,41.05-45.68,39.74,1.63,76.04,38.27,78.12,77.46,41.99,13.63,38.89,62.14,21.19,95.34,31.65,17.34,43.57,54.15,23.83,85.4Z"/>
      <path class="laugh-cls-7" d="m544.21,262.17c-35.77,29.27-54.8,75.68-56.94,121.16h-2.65c-2.82-7.26-13.44-36.32-18.54-39.06,1.6-4.47-.04-3.78,0-3.97,7.22-35.6,40.12-75.76,78.12-78.12Z"/>
      <path class="laugh-cls-7" d="m595.85,271.44c2.01-1.64,15.01-21.52,38.4-34.43-14.16,21.11-26.29,39.41-24.5,66.21-7.84-18.83-22.49-21.15-13.9-31.78Z"/>
      <path class="laugh-cls-8" d="m957.33,578.64c14.16,19.55,17.74,37.58-1.32,55.61-6.63-5.7-17.35-7.56-25.16-2.65.59-2.44,3.85-5.97,3.97-6.62,33.67,8.07,25.47-35.86,13.24-52.96q4.63,3.31,9.27,6.62Z"/>
      <path class="laugh-cls-17" d="m609.09,456.82c-21.01-5.97-7.15-27.76,1.32-39.06l-23.83,1.99,4.63-3.97q17.54-4.3,35.09-8.61c-12.59,13.46-26.65,30.83-17.21,49.65Z"/>
      <path class="laugh-cls-28" d="m948.06,572.01c12.23,17.1,20.42,61.04-13.24,52.96,1.47-7.77-4.63-53.2-6.62-66.87,1.81-3.42,15.74,8.14,19.86,13.9Z"/>
    </g>
    <g>
      <path class="laugh-cls-14" d="m426.36,627.63c5.73,7.14-4.47,2.86-7.94,23.83-12.65-.15-15.37,2.98-21.19,13.24-.11.2-2.05-.57-2.65.66-3.54,7.27,2.32,16.03-5.3,5.96-.93-11.46,3.15-35.35,13.24-42.37,5.17-3.6,17.77-2.96,23.83-1.32Z"/>
      <path class="laugh-cls-6" d="m418.42,651.46c6.88.08,9.81,1.9,15.89,3.97.25,7.69-1.33,8.8-1.32,9.27-7.72-2.65-16.78-4.74-24.5,0-6.91,4.25-13.77,39.7-11.25,0,5.81-10.26,8.54-13.39,21.19-13.24Z"/>
      <path class="laugh-cls-14" d="m434.31,655.43c-6.08-2.07-9.01-3.89-15.89-3.97,3.48-20.97,13.67-16.69,7.94-23.83,2.17.59,7.11,1.31,7.94,3.31.2,8.15-.27,16.35,0,24.5Z"/>
    </g>
    <g>
      <path class="laugh-cls-15" d="m540.24,475.35c-19.25,22.22-51.3,16.84-52.96,19.2-2.42,56.87-10.74,159.11-6.62,210.53,9.13,113.98,130.49,186.69,237.68,174.12,55.59-6.52,133.96-55.11,167.5-99.97,8.04-10.75,25.75-44.17,29.13-56.27-13.86,89.32-91.64,132.51-168.16,164.19-13.47,7.16-8.71,10.02-9.27,10.59-1.33,1.37-3.96,2.6-5.3,3.97-2.65-6.32-16.72-.33-23.17,0-38.98,1.98-53.06-3.69-87.39-14.57-1.72-.55-2.3,1.66-3.31,1.32-.28-.09,1.06-.39-5.3-2.65-75.67-26.87-151.67-79.58-166.84-163.53-30.36,4.78-54.63-22.48-56.94-50.98,7.62,10.08,1.76,1.31,5.3-5.96.6-1.23,2.54-.46,2.65-.66-2.51,39.7,4.34,4.25,11.25,0,7.72-4.74,16.77-2.65,24.5,0,.39,25.39-.22,32.03,9.27,27.14q16.55-97.98,33.1-195.97l-2.65-17.21c21.34,6.81,47.09,6.47,67.53-3.31Z"/>
      <path class="laugh-cls-15" d="m850.08,448.87c-.24-.01-1.55,2.38-4.63,1.32-4.27-1.46-32.24-45.44-66.87-59.58,2.47-1.5,4.57-4.02,7.28-5.3,32.43,14.44,44.31,37.45,70.84,57.6l-6.62,5.96Z"/>
      <g>
        <path class="laugh-cls-21" d="m956.01,634.25c17.32,14.89,11.88,33.72,3.97,50.32-.4-20.19-9.48-37-30.45-23.83-.22-9.15-2.35-22.53-1.32-27.14.26-1.16,2.61-1.83,2.65-1.99,7.81-4.91,18.53-3.05,25.16,2.65Z"/>
        <g>
          <path class="laugh-cls-6" d="m959.98,684.56c-9.98,20.95-18.16,29.54-42.37,34.43-2.66-.17-.54-3.21,0-7.94,7.63-.54,30.14-22.39,31.78-27.14,4.76-13.79-6.58-21.79-18.54-11.25-.02-.8-1.13-4.04-1.32-11.92,20.97-13.17,30.06,3.64,30.45,23.83Z"/>
          <path class="laugh-cls-15" d="m917.61,711.05c.28-2.5,1.34-15.09,1.32-15.89,17.9-14.27,12.09-14.34,11.92-22.51,11.96-10.53,23.3-2.53,18.54,11.25-1.64,4.75-24.15,26.61-31.78,27.14Z"/>
        </g>
      </g>
      <path class="laugh-cls-15" d="m892.45,530.97c-.88,0-2.28.37-2.65-.66-9.42-26.73-13.51-57.05-27.81-81.43.73,0,10.87-4.1,14.57.66,7.18,26.81,10.88,54.21,15.89,81.43Z"/>
      <path class="laugh-cls-15" d="m732.23,901.72c-12.93,13.27-23.86,27.29-39.06,38.4-4.77,3.49-33.3,20.76-36.41,21.19-.85.12-1.78-.05-2.65,0q-26.48-26.15-52.96-52.3,8.61-10.26,17.21-20.52c1.01.34,1.59-1.87,3.31-1.32,34.33,10.87,48.41,16.55,87.39,14.57,6.46-.33,20.52-6.32,23.17,0Z"/>
      <g>
        <path class="laugh-cls-21" d="m850.08,448.87c3.91.23,7.99.05,11.92,0,14.3,24.38,18.39,54.7,27.81,81.43.36,1.03,1.77.66,2.65.66,6.07,32.98,25.98,141.42,26.48,164.19.02.8-1.04,13.39-1.32,15.89-.54,4.74-2.66,7.77,0,7.94-1.1,3.43-2.58,3.74-2.65,3.97-3.38,12.11-21.09,45.52-29.13,56.27-33.54,44.86-111.91,93.45-167.5,99.97-107.19,12.57-228.55-60.15-237.68-174.12-4.12-51.43,4.2-153.67,6.62-210.53,1.67-2.36,33.71,3.02,52.96-19.2,15.67-7.5,43.99-37.11,46.34-55.61l23.83-1.99c-8.48,11.3-22.34,33.09-1.32,39.06,55.62,15.81,103.2-45.81,108.58-48.99,10.37,1.66,27.73,3.74,35.75-2.65,13.28-1.82,15.62-8.79,25.16-14.57,34.63,14.15,62.6,58.13,66.87,59.58,3.08,1.05,4.39-1.34,4.63-1.32Z"/>
        <g>
          <path class="laugh-cls-17" d="m753.42,405.18c-8.02,6.39-25.39,4.31-35.75,2.65.18-.11-.52-2.27.66-2.65,10.43-.92,25.92,1.26,35.09,0Z"/>
          <g>
            <path class="laugh-cls-7" d="m548.84,512.43c35.11-4.81,54.71,21.58,45.68,29.79-4.21,3.83-31.68-43.66-97.32,29.79,5.16-22.96,26.69-56.17,51.64-59.58Z"/>
            <path class="laugh-cls-7" d="m792.48,507.13c45.11-7.17,69.53,39.55,65.54,52.3-3.71,11.87-17.06-29.24-44.36-33.76-29.56-4.9-42.69,13.88-45.02,13.24-9.35-2.58,4.73-28.74,23.83-31.78Z"/>
            <path class="laugh-cls-11" d="m658.74,638.22c20.63-3.06-17.12,17.46,7.94,34.43,32.41,21.93,52.03-21.8,50.98-4.63-1.36,22.2-55.3,31.99-70.18,6.62-10.04-17.13,3.95-35.33,11.25-36.41Z"/>
            <g>
              <path class="laugh-cls-24" d="m847.43,652.79c9.14,2.92,19.84,4.73,25.16,13.9,17.17,29.6-22.89,68.37-45.02,35.09.44-3.52,1.75-6.34,1.32-8.61-.49-1.14-2.62-.53-2.65-.66-1.57-8.55-10.27-23.74,5.96-34.43,5.15-3.39,12.09-1.36,11.25-5.3,1.04.34,2.92-.34,3.97,0Z"/>
              <path class="laugh-cls-7" d="m847.43,652.79c-1.05-.34-2.93.34-3.97,0-.89-.29-1.41.86-1.99,1.32-32.22-42.83-48.33.17-51.64,0-5.83-.3-4.47-21.18,9.27-29.13,21.07-12.19,47.55,4.29,48.33,27.81Z"/>
            </g>
            <g>
              <path class="laugh-cls-24" d="m526.33,659.41c26.22-4.13,33.97,29.62,9.27,45.02-40.91,25.51-38.45-40.42-9.27-45.02Z"/>
              <path class="laugh-cls-7" d="m550.17,623.65c11.69-2.36,29.87,2.16,33.76,15.23,7.87,26.43-12.63.57-19.2-.66-25.65-4.83-28.58,24.55-37.08,18.54-6.44-4.56,9.45-30.46,22.51-33.1Z"/>
            </g>
            <path class="laugh-cls-22" d="m623.65,807.71c50.01,31.51,83.54,31.77,133.73-1.32-19.38,29.14-70.87,37.51-109.24,22.51-9.96-3.89-51.27-29.59-49.65-38.4,6.74,6.01,17.36,12.3,25.16,17.21Z"/>
            <path class="laugh-cls-7" d="m705.09,643.52c9.8-3.49,13.64,12.63,3.97,13.24-6.89.44-9.47-11.28-3.97-13.24Z"/>
            <g>
              <path class="laugh-cls-7" d="m826.24,692.51c.02.13,2.16-.48,2.65.66.42,2.27-.89,5.09-1.32,8.61-4.49,36.11-39.67,83.31-70.18,103.28,10.27-16.96,13.58-43.7-5.96-55.61-17.38-10.59-100.46-5.91-120.49,3.97-23.22,11.45-18.82,35.72-7.28,54.29-7.79-4.91-18.42-11.21-25.16-17.21-25.76-22.96-46.82-58.51-49.65-92.69,14.29,2.65,28.38,4.38,43.03,5.3-.16,1.27.26,2.77,0,3.97-1.93,8.76-3.36,20.05,5.96,25.16,14.67,8.05,143.65,5.64,165.51,1.32,21.37-4.22,16.29-9.57,16.55-29.13,15.33-2.45,31.05-8.8,46.34-11.92Z"/>
              <path class="laugh-cls-25" d="m779.9,704.43c-.27,19.56,4.82,24.91-16.55,29.13-21.86,4.32-150.84,6.72-165.51-1.32-9.32-5.11-7.89-16.4-5.96-25.16,49.74,3.86,124.82,4.67,173.46-1.32,4.61-.57,10.32-.65,14.57-1.32Z"/>
              <path class="laugh-cls-13" d="m765.33,705.75c-48.64,5.99-123.72,5.19-173.46,1.32.26-1.2-.16-2.7,0-3.97,29.72,1.87,59.67,2.43,89.38,0,14.04,9.8,59.79-1.35,84.08,2.65Z"/>
              <g>
                <path class="laugh-cls-6" d="m757.39,805.06c-.2.32.2,1.02,0,1.32-50.2,33.09-83.73,32.84-133.73,1.32-11.54-18.57-15.94-42.84,7.28-54.29,20.04-9.88,103.12-14.57,120.49-3.97,19.54,11.91,16.23,38.66,5.96,55.61Z"/>
                <g>
                  <path class="laugh-cls-14" d="m694.49,758.71c11.7-1.21,59,11.39,66.21,19.86,4.85,5.71-3.35,22.64-5.96,25.82-7.31,8.9-34.02,13.24-45.68,19.2-10.13-2.16-30.24,3.09-35.75-1.32-51.44.75-23.87-58.91,21.19-63.56Z"/>
                  <path class="laugh-cls-19" d="m694.49,779.9c9.32-1.65,24.95.47,31.12,8.61-.7,2.13-18.79-8.17-44.36-.66,2.42-2.69,10.3-7.42,13.24-7.94Z"/>
                </g>
              </g>
            </g>
          </g>
        </g>
      </g>
    </g>
  </g>
</svg>