<?xml version="1.0" encoding="UTF-8"?>
<svg xmlns="http://www.w3.org/2000/svg" xmlns:xlink="http://www.w3.org/1999/xlink" width="200px" height="200px" viewBox="0 0 200 200" version="1.1">
<g id="surface1">
<path style=" stroke:none;fill-rule:nonzero;fill:rgb(100%,100%,100%);fill-opacity:1;" d="M 190.402344 122.792969 L 133.867188 163.195312 L 133.191406 163.667969 L 121.976562 159.175781 L 98.195312 147.601562 L 76.65625 136.023438 L 53.324219 122.792969 L 18.546875 100.820312 L 8.675781 94.441406 L 63.417969 65.378906 L 109.636719 91.132812 L 131.847656 102.238281 L 162.359375 113.8125 Z M 190.402344 122.792969 "/>
<path style=" stroke:none;fill-rule:nonzero;fill:rgb(0%,33.333333%,0%);fill-opacity:1;" d="M 63.179688 64.441406 C 132.671875 106.109375 159.5 111.582031 193.332031 122.964844 L 133.65625 165.089844 C 88.605469 146.085938 46.914062 121.585938 6.667969 94.679688 Z M 63.578125 66.609375 L 11.175781 94.632812 C 48.496094 119.585938 91.246094 144.777344 133.023438 162.398438 L 188.347656 123.355469 C 156.976562 112.796875 128.019531 105.25 63.578125 66.609375 Z M 63.578125 66.609375 "/>
<path style=" stroke:none;fill-rule:nonzero;fill:rgb(100%,100%,100%);fill-opacity:1;" d="M 190.402344 117.5 L 133.867188 157.902344 L 133.191406 158.375 L 121.976562 153.886719 L 98.195312 142.308594 L 76.65625 130.730469 L 53.324219 117.5 L 18.546875 95.527344 L 8.675781 89.148438 L 63.417969 60.085938 L 109.636719 85.839844 L 131.847656 96.945312 L 162.359375 108.523438 Z M 190.402344 117.5 "/>
<path style=" stroke:none;fill-rule:nonzero;fill:rgb(0%,33.333333%,0%);fill-opacity:1;" d="M 63.179688 59.148438 C 132.671875 100.816406 159.5 106.289062 193.332031 117.671875 L 133.65625 159.796875 C 88.605469 140.792969 46.914062 116.292969 6.667969 89.386719 Z M 63.578125 61.316406 L 11.175781 89.34375 C 48.496094 114.296875 91.246094 139.484375 133.023438 157.105469 L 188.347656 118.0625 C 156.976562 107.503906 128.019531 99.960938 63.578125 61.316406 Z M 63.578125 61.316406 "/>
<path style=" stroke:none;fill-rule:nonzero;fill:rgb(100%,100%,100%);fill-opacity:1;" d="M 190.402344 112.207031 L 133.867188 152.609375 L 133.191406 153.082031 L 121.976562 148.59375 L 98.195312 137.015625 L 76.65625 125.4375 L 53.324219 112.207031 L 18.546875 90.234375 L 8.675781 83.855469 L 63.417969 54.792969 L 109.636719 80.546875 L 131.847656 91.652344 L 162.359375 103.230469 Z M 190.402344 112.207031 "/>
<path style=" stroke:none;fill-rule:nonzero;fill:rgb(0%,33.333333%,0%);fill-opacity:1;" d="M 63.179688 53.855469 C 132.671875 95.523438 159.5 100.996094 193.332031 112.378906 L 133.65625 154.503906 C 88.605469 135.5 46.914062 111 6.667969 84.09375 Z M 63.578125 56.023438 L 11.175781 84.050781 C 48.496094 109.003906 91.246094 134.191406 133.023438 151.816406 L 188.347656 112.769531 C 156.976562 102.210938 128.019531 94.667969 63.578125 56.023438 Z M 63.578125 56.023438 "/>
<path style=" stroke:none;fill-rule:nonzero;fill:rgb(100%,100%,100%);fill-opacity:1;" d="M 177.613281 109.890625 C 177.613281 109.890625 170.4375 115.089844 169.539062 119.34375 C 168.640625 123.59375 139.476562 141.550781 139.476562 141.550781 L 125.117188 141.550781 L 115.246094 139.1875 L 90.566406 126.902344 L 70.824219 117.925781 L 47.042969 104.222656 L 24.605469 90.046875 L 24.605469 74.925781 L 56.914062 58.859375 L 73.066406 61.222656 L 87.875 70.671875 L 124.21875 87.683594 L 171.332031 105.167969 Z M 177.613281 109.890625 "/>
<path style=" stroke:none;fill-rule:nonzero;fill:rgb(8.627451%,31.372549%,8.627451%);fill-opacity:1;" d="M 63.210938 52.703125 C 132.199219 92.417969 158.835938 97.628906 192.421875 108.480469 L 133.175781 148.628906 C 88.453125 130.515625 47.058594 107.167969 7.105469 81.523438 Z M 49.507812 63.992188 L 30.820312 74.160156 C 32.019531 76.699219 32.703125 79.503906 32.703125 82.472656 C 32.703125 85.847656 31.835938 89.03125 30.308594 91.816406 C 57.277344 110.21875 87.328125 124.566406 118.101562 137.960938 C 121.507812 134.664062 126.507812 132.585938 132.078125 132.585938 C 136.628906 132.585938 140.785156 133.996094 144.011719 136.304688 L 165.921875 121.339844 C 164.503906 118.988281 163.722656 116.300781 163.722656 113.441406 C 163.722656 110.441406 164.609375 107.648438 166.15625 105.214844 C 141.714844 98.417969 98.15625 77.453125 75.65625 65.601562 C 72.417969 67.285156 68.339844 68.289062 63.878906 68.289062 C 58.140625 68.289062 53.003906 66.621094 49.507812 63.992188 Z M 49.507812 63.992188 "/>
<path style=" stroke:none;fill-rule:nonzero;fill:rgb(8.627451%,31.372549%,8.627451%);fill-opacity:1;" d="M 134.464844 94.164062 C 136.457031 103.578125 132.953125 112.730469 123.90625 118.492188 C 114.855469 124.253906 102.332031 125.304688 90.410156 122.214844 Z M 134.464844 94.164062 "/>
<path style=" stroke:none;fill-rule:nonzero;fill:rgb(8.627451%,31.372549%,8.627451%);fill-opacity:1;" d="M 54.125 104.546875 C 52.230469 95.878906 55.558594 87.445312 64.152344 82.140625 C 72.746094 76.832031 84.644531 75.867188 95.972656 78.714844 Z M 54.125 104.546875 "/>
<path style=" stroke:none;fill-rule:nonzero;fill:rgb(0%,33.333333%,0%);fill-opacity:1;" d="M 132.96875 91.085938 L 81.816406 124.164062 L 81.628906 138.28125 L 55.773438 124.519531 L 55.566406 108.804688 L 104.925781 77.855469 Z M 132.96875 91.085938 "/>
<path style=" stroke:none;fill-rule:nonzero;fill:rgb(8.627451%,31.372549%,8.627451%);fill-opacity:1;" d="M 188.699219 109.890625 L 188.277344 113.1875 L 185.546875 115.824219 L 189.128906 118.171875 L 186.859375 121.195312 L 190.644531 123.5 L 145.621094 153.957031 L 168.316406 134.886719 L 152.804688 143.296875 L 173.675781 125.414062 L 158.175781 134.089844 L 177.710938 117.414062 L 161.777344 128.082031 Z M 188.699219 109.890625 "/>
</g>
</svg>
