<?xml version="1.0" encoding="UTF-8"?>
<svg id="Layer_1" data-name="Layer 1" xmlns="http://www.w3.org/2000/svg" viewBox="0 0 1272.25 1272.25">
  <defs>
    <style>
      .mother-cls-1 {
        fill: #620f13;
      }

      .mother-cls-1, .mother-cls-2, .mother-cls-3, .mother-cls-4, .mother-cls-5, .mother-cls-6, .mother-cls-7, .mother-cls-8, .mother-cls-9, .mother-cls-10, .mother-cls-11, .mother-cls-12, .mother-cls-13, .mother-cls-14, .mother-cls-15, .mother-cls-16, .mother-cls-17, .mother-cls-18, .mother-cls-19, .mother-cls-20, .mother-cls-21, .mother-cls-22, .mother-cls-23, .mother-cls-24, .mother-cls-25, .mother-cls-26, .mother-cls-27, .mother-cls-28 {
        stroke-width: 0px;
      }

      .mother-cls-2 {
        fill: #2d0c02;
      }

      .mother-cls-3 {
        fill: #65240c;
      }

      .mother-cls-4 {
        fill: #6bcbf3;
      }

      .mother-cls-5 {
        fill: #391f11;
      }

      .mother-cls-6 {
        fill: #451a0d;
      }

      .mother-cls-7 {
        fill: #100e0d;
      }

      .mother-cls-8 {
        fill: #a9372f;
      }

      .mother-cls-9 {
        fill: #25120b;
      }

      .mother-cls-10 {
        fill: #251709;
      }

      .mother-cls-11 {
        fill: #d17a48;
      }

      .mother-cls-12 {
        fill: #ce5552;
      }

      .mother-cls-13 {
        fill: #db6944;
      }

      .mother-cls-14 {
        fill: #bf6d17;
      }

      .mother-cls-15 {
        fill: #bd6a3a;
      }

      .mother-cls-16 {
        fill: #b35d38;
      }

      .mother-cls-17 {
        fill: #cf8519;
      }

      .mother-cls-18 {
        fill: #8c270d;
      }

      .mother-cls-19 {
        fill: #bd203b;
      }

      .mother-cls-20 {
        fill: #a24c2a;
      }

      .mother-cls-21 {
        fill: #a21628;
      }

      .mother-cls-22 {
        fill: #9eabac;
      }

      .mother-cls-23 {
        fill: #82161c;
      }

      .mother-cls-24 {
        fill: #f2b12f;
      }

      .mother-cls-25 {
        fill: #e6f8f9;
      }

      .mother-cls-26 {
        fill: #ebe8e6;
      }

      .mother-cls-27 {
        fill: #e99462;
      }

      .mother-cls-28 {
        fill: #f6c359;
      }
    </style>
  </defs>
  <g>
    <path class="mother-cls-24" d="m831.19,869.7c11.08,70.26,13.02,141.45,13.67,212.46-1.32.09-4.1,2.47-4.35,2.48-72.69,4.93-174.26,9.45-246.62,9.94v-89.46c3.79,3.68,31.97,30.39,34.17,29.82q11.49-28.58,22.98-57.15c.48,10.74,15.75,68.23,20.5,69.58,2.66.5,1.72-2.42,1.86-2.48,33.78-16.1,128.97-139.51,146.61-180.77,5.38-.74,10.64,5.28,11.18,5.59Z"/>
    <path class="mother-cls-17" d="m560.34,972.82c-19.04,39.71-40.87,78.63-54.67,120.52-27.33-1.18-55.38-2.69-82.62-4.97-4.73-.4-14.49-3.63-15.53-3.73.52-40.74.16-82.56,6.21-123,51.39,5.75,100.73-37.59,106.23-36.03,7.46,8.57,35.77,44.22,40.38,47.21Z"/>
    <path class="mother-cls-28" d="m889.58,902c75.36,39.91,101.39,63.51,152.82,132.94,1.77,3.61,12.96,22.98,11.8,23.61-47.69,8.68-95.32,15.09-143.5,19.88-3.56-59.96-14.63-119.27-31.06-177.05l9.94.62Z"/>
    <path class="mother-cls-17" d="m422.43,889.58c-26.23,55.21-26.85,134.26-24.85,195.06-28.1-2.73-158.98-16.4-175.18-24.85,11.54-2.88,48.84,12.39,56.53,4.97,6.08-5.87,26.05-82.82,93.18-139.15,15.8-13.26,34.39-22.99,50.32-36.03Z"/>
    <path class="mother-cls-24" d="m889.58,902l-9.94-.62c16.43,57.77,27.5,117.08,31.06,177.05-2.56.25-13.73,3.18-25.47,3.73-8.9.76-24.47-.44-30.44,0-.1-42.28-.8-171.42-11.18-202.52,14.92,5.93,31.1,14.49,45.97,22.36Z"/>
    <path class="mother-cls-14" d="m427.4,883.37c.14,3.3-2.93,4.54-4.97,6.21-15.93,13.05-34.52,22.77-50.32,36.03-67.13,56.34-87.1,133.28-93.18,139.15-7.69,7.42-44.99-7.85-56.53-4.97-.41-.21-1.92.14-3.11,0-2.43-3.44,20.28-37.44,24.23-43.49,18.76-28.78,39.91-55.24,67.71-75.79,39.61-29.28,76.31-39.09,116.17-57.15Z"/>
    <path class="mother-cls-17" d="m562.82,972.82c8.83,9.63,21.81,23.3,31.06,32.3v89.46c-29.56.2-58.68.04-88.21-1.24,13.8-41.89,35.63-80.81,54.67-120.52.24.15,1.48-.09,2.48,0Z"/>
    <path class="mother-cls-18" d="m438.58,878.4c-10.82,27.17-20.5,54.19-24.85,83.24-6.05,40.44-5.69,82.26-6.21,123-.91-.08-4.3.55-9.94,0-2-60.8-1.38-139.85,24.85-195.06,2.04-1.67,5.11-2.91,4.97-6.21,3.69-1.67,7.54-3.27,11.18-4.97Z"/>
    <path class="mother-cls-18" d="m842.37,875.91c1.04,2.1.78,2.36,1.24,3.73,10.38,31.1,11.08,160.24,11.18,202.52-7.17.53-9.44-.03-9.94,0-.65-71.01-2.59-142.2-13.67-212.46,3.67,2.12,7.55,3.98,11.18,6.21Z"/>
    <path class="mother-cls-17" d="m485.79,854.79c.71,28.18,56.74,95.91,77.03,118.03-1.01-.09-2.25.15-2.48,0-4.61-2.99-32.92-38.64-40.38-47.21-5.49-1.56-54.83,41.78-106.23,36.03,4.35-29.06,14.02-56.07,24.85-83.24,15.87-7.41,30.11-18.59,47.21-23.61Z"/>
  </g>
  <path class="mother-cls-18" d="m772.79,837.4c-1.88,2.15-8.79,17.85-12.42,23.61q-19.26-8.39-38.52-16.77.62-20.19,1.24-40.38c8.35,7.82,52.77,25.81,49.7,33.55Z"/>
  <g>
    <path class="mother-cls-26" d="m529.28,833.67c7.96,16.24,20.91,31.97,32.3,45.97,10.27,12.62,20.69,23.44,32.3,34.79,17.78,17.37,36.32,33.21,55.91,48.45l1.24,1.24c.15,4.54-.2,9.13,0,13.67q-11.49,28.58-22.98,57.15c-2.19.57-30.38-26.14-34.17-29.82-9.25-9-22.23-22.68-31.06-32.3-20.29-22.13-76.32-89.85-77.03-118.03-.11-4.37-1.05-8.5,1.86-12.42,1.14-1.54,31.72-19.21,33.55-18.64,1.07.34,3.37,10.87,8.08,9.94Z"/>
    <path class="mother-cls-26" d="m842.37,875.91c-3.63-2.23-7.51-4.09-11.18-6.21-.54-.31-5.8-6.34-11.18-5.59-17.64,41.26-112.83,164.67-146.61,180.77-7.66-25.87-17.55-51.59-21.12-78.27,6.43-3.17,11.6-8.4,17.39-12.42,43.99-30.54,61.84-47.53,90.7-93.18,3.64-5.76,10.54-21.45,12.42-23.61.77-.88,3.38-3.7,4.35-3.73,15.85,9.36,34.5,14.21,49.08,25.47.35.27-1.22,2.94,1.86,5.59,5.76,4.95,10.18,2.88,14.29,11.18Z"/>
    <path class="mother-cls-17" d="m652.28,966.61c3.57,26.68,13.46,52.4,21.12,78.27-.14.07.8,2.99-1.86,2.48-4.75-1.35-20.02-58.83-20.5-69.58-.2-4.54.15-9.12,0-13.67l1.24,2.48Z"/>
  </g>
  <g>
    <path class="mother-cls-7" d="m776.52,694.52c3.82-5.24,15.19-24.31,17.39-29.82,22.21-3.35,37.19-28.95,38.52-50.94,1.39-23.03-4.42-24.34-4.97-26.09-.57-1.82-3.8-1.61-4.97-12.42-.29-2.71,0-5.9,0-8.7,80.59,48.55,115.41-90.85,53.42-126.11,24.6-32.59,2.78-120.83-49.7-103.12,18.39-69.24-85.97-137.32-144.74-117.41.54,24.04-4.04,47.1-14.29,68.95,78.42,19.28,114.4,52,134.18,130.46,3.52,13.97,13.91,74.77,12.42,85.11-.25,1.71-10.23,21.25-13.67,23.61-8.11-116.3-31.7-228.87-175.18-222.4-8.46.38-16.57,2.11-24.85,3.73-8.46,1.65-14.28,3.07-22.36,6.21-73.18,28.4-88.18,111.74-93.18,181.39-.95,13.25-1.08,26.48-1.24,39.76-5.72-4.65-5.59-29.97-14.91-32.3,1.37-58.56,9.36-143.1,57.15-183.88,19.59-16.72,51.69-29.26,77.03-32.3,7.7-.93,39.48-.42,42.24-3.11,3.44-12.74,17.88-42.44,18.64-52.18,3.33-42.8-57.49-37.03-84.49-31.68-28.46,5.64-88.11,31.91-96.91,62.12-5.94,20.39,1.34,33.75,7.45,52.8-30.65,4.53-14.93-19.58-32.92-15.53-9.48,2.14-30.13,18.61-36.65,26.71-22.55,28-26.12,67.34-14.91,100.64-3.23,2.18-4.33,4.93-6.21,8.08-.57.95-6.55,6-8.7,11.8-16.28,43.9,16.14,115,64.61,126.11l1.24,1.24c5.39,14.4,2.16,41.21,19.88,38.52,4.24-.64,8.18-3.05,12.42-3.73.96,6.5,2.27,13.46,3.73,19.88,5.92,26,19.42,53.39,37.27,73.3-62.6-10.3-85.31-50.28-70.82-111.2-1.72-4.78-34.97,7.1-64.61-32.3-24.17-32.13-43.71-103.63-8.7-134.18-18.29-66.27,4.64-127.09,73.3-147.85-2.14-80.15,166.11-132.63,216.8-75.17,58.52-26.31,173.42,47.65,167.11,113.68,48.13,7.82,68.86,77.28,52.18,118.03,51.15,43.28,27.42,157.45-45.97,160.27,7.02,48.48-25.27,89.14-72.06,100.02Z"/>
    <path class="mother-cls-3" d="m822.49,566.55c.06-16.95,9.33-50.51-8.7-62.12,1.48-10.33-8.9-71.13-12.42-85.11-19.78-78.46-55.76-111.18-134.18-130.46,10.25-21.85,14.82-44.92,14.29-68.95,58.77-19.91,163.14,48.17,144.74,117.41,52.48-17.71,74.3,70.53,49.7,103.12,61.98,35.26,27.17,174.66-53.42,126.11Z"/>
    <path class="mother-cls-6" d="m525.55,320.55c-47.79,40.78-55.78,125.32-57.15,183.88-8.46-2.12-9.71,1.08-12.42,7.45-19.67-24.91-43.37-46.57-57.15-75.79,1.88-3.14,2.98-5.89,6.21-8.08-11.21-33.3-7.64-72.64,14.91-100.64,6.52-8.1,27.17-24.58,36.65-26.71,17.99-4.05,2.28,20.06,32.92,15.53-6.11-19.05-13.39-32.41-7.45-52.8,13.54,19.69,26.25,40.4,43.49,57.15Z"/>
    <g>
      <path class="mother-cls-3" d="m602.58,288.24c-25.34,3.05-57.44,15.59-77.03,32.3-17.24-16.75-29.94-37.46-43.49-57.15,8.8-30.21,68.45-56.48,96.91-62.12,2.27,14.08,9.13,31.98,14.91,45.35,7.87,18.21,20.61,35.29,19.88,37.27-1.2,3.24-12.39-.19-11.18,4.35Z"/>
      <path class="mother-cls-3" d="m602.58,288.24c-1.2-4.54,9.99-1.1,11.18-4.35.73-1.98-12-19.06-19.88-37.27-5.78-13.37-12.64-31.26-14.91-45.35,26.99-5.35,87.82-11.12,84.49,31.68-.76,9.74-15.2,39.44-18.64,52.18-2.76,2.69-34.54,2.18-42.24,3.11Z"/>
    </g>
    <path class="mother-cls-2" d="m455.97,511.88c-8.21,19.29-3.14,42.24-1.24,62.12-48.47-11.11-80.89-82.21-64.61-126.11,2.15-5.8,8.13-10.86,8.7-11.8,13.79,29.22,37.48,50.88,57.15,75.79Z"/>
    <g>
      <path class="mother-cls-9" d="m827.46,587.67c-5.7-.46-8.61,33.54,4.97,26.09-1.33,21.99-16.31,47.59-38.52,50.94,7.22-18.01,7.71-34.81,9.94-53.42,1.66.6,3.32,1.93,4.97,2.48,16.12,5.42,13.75-19.12,12.42-36.03-.09-1.15,1.38-1.36,1.24-2.48,1.17,10.81,4.4,10.6,4.97,12.42Z"/>
      <path class="mother-cls-5" d="m827.46,587.67c.55,1.75,6.36,3.07,4.97,26.09-13.58,7.45-10.67-26.55-4.97-26.09Z"/>
    </g>
  </g>
  <g>
    <path class="mother-cls-18" d="m652.28,770.31c8.64.59,16.49-.45,24.85-2.48,22.25-5.43,51.88-33.05,39.14-18.64-8.98,10.16-45.6,32.77-59.02,36.03-10.5,2.55-25.48,3.84-36.03,1.24-5.03-1.24-19.21-11.6-19.88-10.56,2.67,23.1-.94,124.73-3.73,136.67-.23,1-2.44,2.28-3.73,1.86-11.61-11.34-22.04-22.17-32.3-34.79,4.46-23.73,4.62-48.44,4.97-72.68,0-.42-2.49-4.1-2.48-4.35.17-21.83,2.1-43.99,2.48-65.85,26.15,20.18,57.33,39.1,91.32,37.27l-5.59-3.73Z"/>
    <path class="mother-cls-20" d="m510.64,644.82c4.02,4.16,6.82,12.57,14.91,17.39l-2.48.62c5.31,1.4,26.02,30.3,28.58,26.09l1.24-19.26c4.47.61,9.14,1.19,13.67,1.24,3.42,2.35,6.94,5.81,9.94,8.7,16.06,15.46,27.54,33.1,47.21,44.73,13.07,7.73,20.07,12.35,36.03,9.94-3.77,2.41-8.1,3.94-12.42,4.97-11.37,2.72-23.28,2.6-34.79,4.35,13.04,14.63,18.5,25.26,39.76,26.71l5.59,3.73c-33.99,1.82-65.16-17.1-91.32-37.27-4.87-3.75-33.75-29.62-37.27-33.55-17.85-19.92-31.35-47.3-37.27-73.3,7.16,3.55,12.2,8.26,18.64,14.91Z"/>
    <path class="mother-cls-18" d="m564.06,802.61c0,.25,2.49,3.93,2.48,4.35-.35,24.25-.51,48.96-4.97,72.68-11.39-14-24.35-29.73-32.3-45.97-1.32-2.69-6.43-7.89-4.35-11.18q19.57-9.94,39.14-19.88Z"/>
    <path class="mother-cls-27" d="m624.94,305.64l18.64,1.86c.56,56.98-.2,113.87-1.24,170.83-10.24-1.38-28.81-12.52-37.27-9.94,2.45-14.88-2.12-14.35-27.33-14.91,5.93-48.25,11.35-96.73,22.36-144.12,8.28-1.62,16.39-3.35,24.85-3.73Z"/>
    <path class="mother-cls-11" d="m657.25,785.22q6.21,84.49,12.42,168.97c-5.79,4.02-10.97,9.25-17.39,12.42l-1.24-2.48-1.24-1.24q-14.29-88.21-28.58-176.43c10.55,2.6,25.53,1.31,36.03-1.24Z"/>
    <path class="mother-cls-11" d="m642.34,478.34c-.51,27.76-2.01,55.48-2.48,83.24-7.46-13.04-11.98-27.53-19.88-40.38-5.95-9.68-16.68-24.22-14.91-15.53-9.13-20.65-39.97-19.79-58.39-16.15,6.2-9.48,40.71-10.24,46.59-12.42,12.5-4.64-10.01-2.95-9.32-7.45,4.63.22,18.19,3.4,20.5,2.48,1.2-.48.39-3.66.62-3.73,8.47-2.58,27.03,8.56,37.27,9.94Z"/>
    <path class="mother-cls-16" d="m772.79,656c.97-5.29-5.32,1.51-22.98,0-14.1-1.2-25.23-9.54-37.89-14.91-10.56-18.7-12.92-40-24.23-58.39,37.48,18.12,43.27,75.53,98.15,59.64-3.23,5.67-7.8,9.88-13.05,13.67Z"/>
    <path class="mother-cls-16" d="m822.49,566.55c0,2.8-.29,5.98,0,8.7.13,1.12-1.33,1.33-1.24,2.48l-18.64-9.94c.99-6.01-.98-12.08-1.24-17.39,6.53-9.23,22.68-22.11,0-11.18-.25-3.84-.98-7.44-1.24-11.18,3.43-2.36,13.42-21.89,13.67-23.61,18.03,11.61,8.76,45.17,8.7,62.12Z"/>
    <path class="mother-cls-11" d="m647.31,739.25c7.97,11.35,15.7,24.68,29.82,28.58-8.36,2.04-16.21,3.08-24.85,2.48-21.26-1.45-26.72-12.08-39.76-26.71,11.51-1.75,23.42-1.63,34.79-4.35Z"/>
    <path class="mother-cls-16" d="m766.58,660.97q-20.19,19.26-40.38,38.52l.62-23.61c.72-.35,5.51-6.66,12.42-9.94,8.4-2.66,19.3-1.71,27.33-4.97Z"/>
    <path class="mother-cls-20" d="m772.79,656c-.32.23-.81,2.78-6.21,4.97-8.04,3.26-18.93,2.31-27.33,4.97-.05-2.31-3.14-.72-4.97-1.24-9.8-2.79-17.79-15.51-22.36-23.61,12.66,5.37,23.79,13.71,37.89,14.91,17.66,1.51,23.95-5.29,22.98,0Z"/>
    <path class="mother-cls-5" d="m654.76,636.12c-11.43-4.02,18.82-12.99,24.85-14.91,9.69-3.09,13.93-5.75,11.8,9.94-7.6-.6-31.32,1.49-36.65,4.97Z"/>
    <g>
      <path class="mother-cls-27" d="m802.61,567.79l18.64,9.94c1.33,16.91,3.69,41.45-12.42,36.03,8.46-.57,11.54-41.63-3.73-32.92,2.92,7.8-.2,20.14-1.24,29.2-26.99,32.8-77.47,10.32-49.7-32.92,10.01-15.59,36.48-29.63,48.45-9.32Z"/>
      <path class="mother-cls-13" d="m808.82,613.76c-1.65-.56-3.31-1.88-4.97-2.48.05-.41-.05-.83,0-1.24,1.04-9.06,4.16-21.4,1.24-29.2,15.27-8.71,12.18,32.35,3.73,32.92Z"/>
    </g>
    <path class="mother-cls-3" d="m801.37,550.4c-.18-3.71.24-7.48,0-11.18,22.68-10.92,6.53,1.95,0,11.18Z"/>
    <path class="mother-cls-20" d="m500.7,487.03l-2.48,4.97c-4.85,6.32-6.74-6.16-13.67,4.97,5-69.65,20.01-152.99,93.18-181.39-8.48,24.8-13.77,119.42-17.39,131.08-.13.42-4.35,6.34-5.59,6.83-18.43-1.42-52.2,14.08-54.05,33.55Z"/>
    <path class="mother-cls-8" d="m498.21,492c-10.41,30.53,10.67,119.69,26.09,143.5,5.27,8.14,14.2,13.38,19.88,20.5.77.96,1.47,2.39,1.24,3.73-1.57-.44-3.36-1.95-4.97-2.48-10.48-3.45-19.22-9.74-29.82-12.42-6.44-6.65-11.48-11.36-18.64-14.91-1.46-6.41-2.77-13.38-3.73-19.88-.75-5.1,1.06-23.42-1.24-26.71-2.28-3.26-11.5-1.04-13.67-1.86-1.55-.59-3.57-5.52-3.73-7.45.41,0,.83,0,1.24,0,4.35-.08,8.7.06,13.05,0l1.86-2.48c-2.99-11.4-2.62-23.16-2.48-34.79.16-13.28.29-26.51,1.24-39.76,6.93-11.13,8.82,1.35,13.67-4.97Z"/>
    <path class="mother-cls-16" d="m600.09,309.37c-11.01,47.39-16.44,95.87-22.36,144.12-26.83-.59-61.35,4.17-74.55,31.06-.12.12-2.3.6-2.48,2.48,1.84-19.47,35.62-34.97,54.05-33.55,1.25-.5,5.46-6.41,5.59-6.83,3.62-11.66,8.92-106.28,17.39-131.08,8.08-3.14,13.91-4.56,22.36-6.21Z"/>
    <path class="mother-cls-3" d="m468.4,504.43c9.32,2.33,9.19,27.65,14.91,32.3-.14,11.63-.51,23.39,2.48,34.79-6.54,3.57-10.1-23.71-19.26-38.52-4.52,13.49,1.46,27.77,4.35,41-.41,0-.83,0-1.24,0-5.7-.1-10.4-3.69-13.67,1.24l-1.24-1.24c-1.9-19.88-6.97-42.83,1.24-62.12,2.71-6.37,3.96-9.57,12.42-7.45Z"/>
    <path class="mother-cls-18" d="m469.64,574c.16,1.93,2.18,6.87,3.73,7.45-4.39,6.13,2.79,21.48,2.48,32.3-17.72,2.7-14.48-24.12-19.88-38.52,3.27-4.93,7.96-1.34,13.67-1.24Z"/>
    <path class="mother-cls-23" d="m488.28,610.03c-4.24.68-8.19,3.08-12.42,3.73.3-10.83-6.87-26.18-2.48-32.3,2.17.82,11.39-1.39,13.67,1.86,2.31,3.3.49,21.61,1.24,26.71Z"/>
    <path class="mother-cls-20" d="m621.22,786.46q14.29,88.21,28.58,176.43c-19.59-15.25-38.13-31.09-55.91-48.45,1.29.42,3.49-.86,3.73-1.86,2.79-11.94,6.39-113.56,3.73-136.67.66-1.04,14.85,9.32,19.88,10.56Z"/>
    <path class="mother-cls-18" d="m540.46,657.25c-.47,7.79,15.19,9.35,21.74,8.7,1.73,1.07,4.08,4.78,4.35,4.97-4.53-.06-9.2-.63-13.67-1.24-8.3-1.13-20.14-3.17-27.33-7.45-8.09-4.82-10.88-13.24-14.91-17.39,10.6,2.68,19.34,8.98,29.82,12.42Z"/>
    <path class="mother-cls-15" d="m525.55,662.22c7.2,4.29,19.03,6.33,27.33,7.45l-1.24,19.26c-2.55,4.21-23.27-24.7-28.58-26.09l2.48-.62Z"/>
    <path class="mother-cls-7" d="m577.73,453.49c25.21.56,29.78.03,27.33,14.91-.23.07.58,3.25-.62,3.73-2.31.91-15.87-2.26-20.5-2.48-23.54-1.13-62.48-3.2-80.76,14.91,13.19-26.89,47.72-31.65,74.55-31.06Z"/>
    <path class="mother-cls-20" d="m583.94,469.64c-.69,4.5,21.82,2.81,9.32,7.45-5.88,2.19-40.39,2.94-46.59,12.42-44.21,8.72-.68,5.85,13.05,8.7,2.58.53,23.23,8.31,19.26,12.42-24.22-5.57-47.41,9.07-68.33,19.26.44.89,17.54.98,19.88.62-4.97,8.66,37.35,17.74,54.67,11.8-12.12,12.9-59.28,4.67-62.12,11.18-4.62,38.95,28.76,116.4,69.58,59.02-2.66,23.72-26.68,39.64-48.45,43.49-5.68-7.12-14.61-12.36-19.88-20.5-15.42-23.81-36.5-112.97-26.09-143.5l2.48-4.97c.19-1.88,2.36-2.36,2.48-2.48,18.27-18.11,57.22-16.03,80.76-14.91Z"/>
    <path class="mother-cls-27" d="m597.61,530.52c10.03,30.89,15.04,53.87-4.97,82-40.82,57.38-74.2-20.07-69.58-59.02,2.84-6.51,50,1.72,62.12-11.18-17.31,5.93-59.63-3.14-54.67-11.8,2.37-.37,5.15,1.09,6.21-2.48,4.94,3.11,8.01-.02,8.7,0,45.01,1.15,30.01-8.28,35.41-9.94,1.45-.45,14.21,10.79,16.77,12.42Z"/>
    <path class="mother-cls-27" d="m605.06,505.67c2.3,5.2,4.02,24.58,5.59,32.3-1.01-.96-1.66-2.04-3.11-2.48-3.81-11.31-17.37-22.27-28.58-24.85,3.97-4.12-16.68-11.89-19.26-12.42-13.72-2.85-57.26.02-13.05-8.7,18.42-3.63,49.26-4.49,58.39,16.15Z"/>
    <g>
      <path class="mother-cls-20" d="m639.85,561.58c-.36,21.13-10.45,56.31,20.5,58.39,6.39.43,29.56-8.45,19.26,1.24-6.03,1.92-36.28,10.89-24.85,14.91-5.51,3.59-8.4,15.21-1.24,19.26-19.25,7.03-33.99,2.64-22.36,13.05-18.22-.64-39.22-1.18-57.15-3.73-7.42-1.05-22.1-3.13-28.58-4.97.23-1.34-.47-2.76-1.24-3.73,21.77-3.84,45.8-19.77,48.45-43.49,20.01-28.13,15-51.11,4.97-82,4.29,2.74,4.79,3.39,9.94,4.97,1.45.44,2.09,1.52,3.11,2.48-1.57-7.72-3.29-27.1-5.59-32.3-1.78-8.69,8.96,5.85,14.91,15.53,7.9,12.85,12.42,27.34,19.88,40.38Z"/>
      <path class="mother-cls-6" d="m624.32,618.73c15.01-1.03,17.61,12.88,16.15,13.67-5.88.25-38.8-.97-39.14-8.08l.62-1.86c6.69,6.53,15.42-3.25,22.36-3.73Z"/>
    </g>
    <g>
      <path class="mother-cls-21" d="m631.15,668.43c6.99.25,14.51,3.32,21.74,2.48,2.28-.26,12.66-6.02,17.39-6.21,6.62-.26,33.39,8.87,45.35,6.21-4.84,2-9.77,5.81-14.91,7.45-35.3,11.28-72.9,9.64-108.09-1.24-6.27-5.16-12.43-7.58-18.64-12.42,17.93,2.54,38.93,3.09,57.15,3.73Z"/>
      <path class="mother-cls-19" d="m721.85,678.37c-3.78,4.93-8.51,8.82-12.42,13.67-5.26-4.83-9.58,9.09-26.71,18.64-4.61,2.57-22.08,9.37-26.71,9.94-6.82.84-18.78.55-24.85-2.48,2.11-1.74,3.87-3.43,6.21-4.97,3.07-2.02,8.52-2.27,7.45-7.45,29.69,1.09,39.26-9.83,57.15-18.64,6.45-3.18,13.45-5.54,19.88-8.7Z"/>
      <path class="mother-cls-8" d="m631.15,718.13c6.07,3.04,18.03,3.33,24.85,2.48,12.12,9.41,19.32,2.59,18.64,7.45-4.72,2.47-9.54,5.4-14.91,6.21-15.96,2.41-22.96-2.21-36.03-9.94,2.98-1.55,4.91-4.11,7.45-6.21Z"/>
      <path class="mother-cls-12" d="m709.43,692.03c-11.75,14.55-15.89,26.12-34.79,36.03.69-4.86-6.52,1.95-18.64-7.45,4.63-.57,22.1-7.37,26.71-9.94,17.13-9.55,21.45-23.47,26.71-18.64Z"/>
      <path class="mother-cls-23" d="m739.25,665.94c-6.91,3.28-11.71,9.59-12.42,9.94-1.72.83-3.28,1.66-4.97,2.48-6.43,3.16-13.43,5.52-19.88,8.7l-1.24-8.7c5.14-1.64,10.07-5.46,14.91-7.45,6.19-2.55,12.17-4.53,18.64-6.21,1.83.52,4.92-1.06,4.97,1.24Z"/>
      <path class="mother-cls-21" d="m600.09,692.03c12.94,9.74,12.02,17.59,37.27,21.12-2.34,1.54-4.1,3.22-6.21,4.97-2.55,2.1-4.48,4.66-7.45,6.21-19.67-11.63-31.15-29.27-47.21-44.73,2.57-2.11,19.99,9.71,23.61,12.42Z"/>
      <path class="mother-cls-1" d="m545.43,659.73c6.47,1.84,21.16,3.92,28.58,4.97,6.2,4.85,12.37,7.26,18.64,12.42,2.73,2.25,8.71,10.54,11.18,12.42l-3.73,2.48c-3.61-2.72-21.04-14.53-23.61-12.42-3-2.88-6.52-6.35-9.94-8.7-.27-.19-2.61-3.9-4.35-4.97-6.55.65-22.22-.91-21.74-8.7,1.61.53,3.4,2.04,4.97,2.48Z"/>
      <path class="mother-cls-26" d="m700.73,678.37l1.24,8.7c-17.89,8.81-27.47,19.72-57.15,18.64-16.61-.61-27.98-6.19-41-16.15-2.47-1.89-8.46-10.18-11.18-12.42,35.2,10.88,72.8,12.52,108.09,1.24Z"/>
      <path class="mother-cls-21" d="m644.82,705.7c1.06,5.18-4.38,5.44-7.45,7.45-25.25-3.53-24.33-11.38-37.27-21.12l3.73-2.48c13.02,9.96,24.39,15.54,41,16.15Z"/>
    </g>
    <g>
      <path class="mother-cls-27" d="m800.13,528.03c.26,3.74.99,7.34,1.24,11.18.24,3.7-.18,7.48,0,11.18.26,5.32,2.24,11.38,1.24,17.39-11.98-20.31-38.45-6.27-48.45,9.32-27.77,43.24,22.71,65.73,49.7,32.92-.05.41.05.83,0,1.24-2.23,18.62-2.72,35.41-9.94,53.42-2.21,5.51-13.58,24.58-17.39,29.82-12.38,17.01-37.63,39.24-55.91,50.32l-1.24,55.91c1.13,1.27,2.47,1.93,3.73,3.11q-.62,20.19-1.24,40.38,19.26,8.39,38.52,16.77c-28.86,45.65-46.71,62.64-90.7,93.18q-6.21-84.49-12.42-168.97c13.41-3.26,50.03-25.87,59.02-36.03,12.74-14.41-16.89,13.21-39.14,18.64-14.12-3.89-21.84-17.22-29.82-28.58,4.33-1.03,8.66-2.56,12.42-4.97,5.37-.81,10.19-3.74,14.91-6.21,18.9-9.91,23.04-21.48,34.79-36.03,3.91-4.84,8.64-8.73,12.42-13.67,1.69-.83,3.25-1.66,4.97-2.48l-.62,23.61q20.19-19.26,40.38-38.52c5.4-2.19,5.89-4.74,6.21-4.97,5.24-3.78,9.82-8,13.05-13.67-54.89,15.89-60.67-41.51-98.15-59.64,11.31,18.39,13.67,39.7,24.23,58.39,4.57,8.09,12.56,20.81,22.36,23.61-6.46,1.68-12.44,3.66-18.64,6.21-11.96,2.65-38.73-6.48-45.35-6.21-4.74.19-15.11,5.95-17.39,6.21-7.23.84-14.75-2.24-21.74-2.48-11.63-10.41,3.12-6.01,22.36-13.05-7.16-4.05-4.27-15.67,1.24-19.26,5.34-3.48,29.06-5.57,36.65-4.97,2.13-15.69-2.11-13.03-11.8-9.94,10.3-9.69-12.87-.81-19.26-1.24-30.95-2.09-20.86-37.27-20.5-58.39.47-27.77,1.98-55.48,2.48-83.24,1.05-56.97,1.8-113.86,1.24-170.83l-18.64-1.86c143.48-6.48,167.07,106.09,175.18,222.4Z"/>
      <path class="mother-cls-7" d="m691.41,454.73c5.47-1.85,86.44-4.92,88.83,24.23-26.08-23.64-77.01-3.01-90.08-8.08-5.5-2.14-3.2-14.65,1.24-16.15Z"/>
      <path class="mother-cls-16" d="m723.09,511.88c-10.46,1.81-15.5,4.67-23.61,11.18-3.32,2.67-9.34,7.24-9.94,11.18-.19.04-2.3,2.17-3.11,2.48l-1.86-1.86c4.82-58.27,42.13-51.56,79.52-21.12-.98,2.68-42.2-26.86-41-1.86Z"/>
      <path class="mother-cls-2" d="m742.97,511.88c-6.03,8.53-9.28,3.28-10.56,3.73-13.51,22.56-12.07,5.03-13.67,3.73-3.51-2.85-13.56,10.59-19.26,3.73,8.11-6.52,13.15-9.37,23.61-11.18,8.56-1.48,11.23-1.66,19.88,0Z"/>
      <path class="mother-cls-16" d="m707.56,537.97c13.25-1.9,20.32,4.84,31.68,9.32-5.15,1.21-43.72,1.75-43.49-3.73,2.33-1.59,10.73-5.44,11.8-5.59Z"/>
      <g>
        <path class="mother-cls-10" d="m716.88,526.79c4.45-9.09-9.85-1.59-14.91,3.73-3.26.66-7.62,2.67-12.42,3.73.6-3.94,6.62-8.51,9.94-11.18,5.69,6.87,15.75-6.58,19.26-3.73,1.6,1.3.16,18.83,13.67-3.73,1.28-.44,4.54,4.8,10.56-3.73,7.65,1.47,27.93,10.13,29.2,18.64-8.14-4.75-46.94-4.72-55.29-3.73Z"/>
        <path class="mother-cls-25" d="m716.88,526.79c-.76.09-6.53,2.02-14.91,3.73,5.06-5.31,19.36-12.82,14.91-3.73Z"/>
        <path class="mother-cls-25" d="m732.41,518.09c2.25-.75,11.08,3.96,6.21,7.45-5.12,3.67-12.15-5.47-6.21-7.45Z"/>
      </g>
    </g>
    <path class="mother-cls-6" d="m485.79,571.52l-1.86,2.48c-4.35.06-8.7-.08-13.05,0-2.89-13.23-8.87-27.51-4.35-41,9.16,14.81,12.72,42.08,19.26,38.52Z"/>
    <g>
      <path class="mother-cls-9" d="m578.97,510.64c11.21,2.58,24.77,13.54,28.58,24.85-5.15-1.58-5.65-2.23-9.94-4.97-2.56-1.64-15.32-12.87-16.77-12.42-5.4,1.66,9.6,11.09-35.41,9.94-1.02-7.56-8.62-6.31-8.7,0-1.06,3.58-3.84,2.12-6.21,2.48-2.34.36-19.44.27-19.88-.62,20.92-10.18,44.12-24.83,68.33-19.26Z"/>
      <path class="mother-cls-26" d="m545.43,528.03c-.69-.02-3.76,3.11-8.7,0,.08-6.31,7.68-7.56,8.7,0Z"/>
      <path class="mother-cls-4" d="m566.55,521.82c9.92-6.81,11.53,4.79,3.11,3.73-1.52-.19-1.73-4.05-3.11-3.73Z"/>
      <path class="mother-cls-22" d="m566.55,521.82c-.29.07.89,1.98-3.11,4.97-1.7-2.55,1.63-3.96,3.11-4.97Z"/>
    </g>
  </g>
</svg>