<?xml version="1.0" encoding="UTF-8"?>
<svg id="Layer_1" data-name="Layer 1" xmlns="http://www.w3.org/2000/svg" xmlns:xlink="http://www.w3.org/1999/xlink" viewBox="0 0 1227.97 1228">
  <defs>
    <style>
      .newborn-cls-1 {
        fill: url(#linear-gradient);
      }

      .newborn-cls-1, .newborn-cls-2, .newborn-cls-3, .newborn-cls-4, .newborn-cls-5, .newborn-cls-6, .newborn-cls-7, .newborn-cls-8, .newborn-cls-9, .newborn-cls-10, .newborn-cls-11, .newborn-cls-12, .newborn-cls-13, .newborn-cls-14, .newborn-cls-15, .newborn-cls-16, .newborn-cls-17, .newborn-cls-18, .newborn-cls-19, .newborn-cls-20, .newborn-cls-21, .newborn-cls-22, .newborn-cls-23, .newborn-cls-24, .newborn-cls-25, .newborn-cls-26, .newborn-cls-27, .newborn-cls-28, .newborn-cls-29, .newborn-cls-30, .newborn-cls-31, .newborn-cls-32, .newborn-cls-33, .newborn-cls-34, .newborn-cls-35, .newborn-cls-36, .newborn-cls-37, .newborn-cls-38, .newborn-cls-39 {
        stroke-width: 0px;
      }

      .newborn-cls-2 {
        fill: url(#linear-gradient-4);
      }

      .newborn-cls-3 {
        fill: url(#linear-gradient-2);
      }

      .newborn-cls-4 {
        fill: url(#linear-gradient-3);
      }

      .newborn-cls-5 {
        fill: #f3edee;
      }

      .newborn-cls-6 {
        fill: #61a085;
      }

      .newborn-cls-7 {
        fill: #622f28;
      }

      .newborn-cls-8 {
        fill: #551a1c;
      }

      .newborn-cls-9 {
        fill: #88a166;
      }

      .newborn-cls-10 {
        fill: #6e1e24;
      }

      .newborn-cls-11 {
        fill: #963437;
      }

      .newborn-cls-12 {
        fill: #3e5c39;
      }

      .newborn-cls-13 {
        fill: #356c5f;
      }

      .newborn-cls-14 {
        fill: #160909;
      }

      .newborn-cls-15 {
        fill: #22514b;
      }

      .newborn-cls-16 {
        fill: #cd4f6a;
      }

      .newborn-cls-17 {
        fill: #c87c41;
      }

      .newborn-cls-18 {
        fill: #dd7465;
      }

      .newborn-cls-19 {
        fill: #dc8d49;
      }

      .newborn-cls-20 {
        fill: #d7d19d;
      }

      .newborn-cls-21 {
        fill: #9bb470;
      }

      .newborn-cls-22 {
        fill: #c3564f;
      }

      .newborn-cls-23 {
        fill: #bb5f47;
      }

      .newborn-cls-24 {
        fill: #300f0f;
      }

      .newborn-cls-25 {
        fill: #a06132;
      }

      .newborn-cls-26 {
        fill: #9fc5a4;
      }

      .newborn-cls-27 {
        fill: #6b6e72;
      }

      .newborn-cls-28 {
        fill: #72915c;
      }

      .newborn-cls-29 {
        fill: #739170;
      }

      .newborn-cls-30 {
        fill: #e3cbc8;
      }

      .newborn-cls-31 {
        fill: #ec9979;
      }

      .newborn-cls-32 {
        fill: #ea866f;
      }

      .newborn-cls-33 {
        fill: #f0b778;
      }

      .newborn-cls-34 {
        fill: #fbc4aa;
      }

      .newborn-cls-35 {
        fill: #e5ca7b;
      }

      .newborn-cls-36 {
        fill: #efd4c2;
      }

      .newborn-cls-37 {
        fill: #f1a993;
      }

      .newborn-cls-38 {
        fill: #f1b85f;
      }

      .newborn-cls-39 {
        fill: #06060a;
      }
    </style>
    <linearGradient id="linear-gradient" x1="314.56" y1="260.01" x2="543.85" y2="656.59" gradientUnits="userSpaceOnUse">
      <stop offset="0" stop-color="#fccb7f"/>
      <stop offset="1" stop-color="#ea8d66"/>
    </linearGradient>
    <linearGradient id="linear-gradient-2" x1="998.63" y1="498.58" x2="1062.2" y2="674.52" gradientUnits="userSpaceOnUse">
      <stop offset="0" stop-color="#639173"/>
      <stop offset="1" stop-color="#4c7963"/>
    </linearGradient>
    <linearGradient id="linear-gradient-3" x1="470.72" y1="519.67" x2="713.56" y2="642.68" gradientUnits="userSpaceOnUse">
      <stop offset="0" stop-color="#f8d078"/>
      <stop offset="1" stop-color="#f0b25d"/>
    </linearGradient>
    <linearGradient id="linear-gradient-4" x1="576.06" y1="298.43" x2="611.78" y2="392.61" gradientUnits="userSpaceOnUse">
      <stop offset="0" stop-color="#ed9a76"/>
      <stop offset="1" stop-color="#dc7566"/>
    </linearGradient>
  </defs>
  <path class="newborn-cls-29" d="m1001.32,411.32c.53,1.41.14,3.88,1.2,5.4,3.74,1.83,6.49,5.17,9.59,7.79-1.5,6.75,11.4,24.1,16.79,36.58,13.85,32.07,27.84,85.35,29.98,119.92,6.46,104.55-38.81,168.89-40.77,179.88-.55,3.06.16,3.4,2.4,1.8-56.3,83.08-104.64,170.52-197.27,219.45-89.67,47.38-230.57,63.55-330.38,53.96l-8.39-10.19c26.49,1.12,1.19-9.41,1.2-10.79.02-3.21,10.12-1.85,10.79-5.4,21.1,1.14,43.14.76,64.16-2.4,7.84-1.18,40.09-6.51,28.18-11.99,138.19,12.99,286.68-59.09,336.97-193.67,20.76-55.54,30.89-149.59,28.78-208.66-3.18-89.14-49.55-227.23-119.92-287.21,1.22-16.33,3.7-26.1-10.79-37.77-.31-1.92.46-5.68,0-6.6,57.15,24.64,139.49,83.29,170.28,137.31,2.08,3.64,3.44,13.01,7.2,12.59Z"/>
  <path class="newborn-cls-1" d="m726.71,173.88c-12.26-4.1-30.8-12.79-40.17-1.2-23.35-9.35-76-18-89.94,8.39-49.27.47-42.95,20.35-44.37,22.78-1.49,2.56-35.42,12.86-41.37,39.57-104.7,28.95-201.61,93.05-254.23,190.07-28.78,53.07-56,136.22-61.16,196.07-7.6,88.2,4.43,147.2,43.17,225.45,5.14,10.38,17.39,34.62,22.78,43.17-31.41-18.62-59.51-42.95-80.35-73.15-2.63-3.82-5.62-7.65-8.39-11.39-3.34-10.72-10.15-20.34-14.39-30.58-25.74-94.68-51.53-209.91,16.79-293.2-1.7-35.02,11.96-61.67,37.17-85.14,20.61-96.96,95.68-191.57,203.26-184.08,74.06-77.37,184.26-83.51,283.01-58.76,6.38,1.6,26.1,7.05,28.18,11.99Z"/>
  <path class="newborn-cls-15" d="m1090.06,643.96c-1.53,26.69-3.65,45.8-9.59,71.95-9.95,43.8-28.61,85.06-56.36,120.52-10.41,13.3-44.86,44.53-47.97,54.56-82.94,158.62-214.85,204.96-387.94,188.27-103.62,21.81-218.88-33.67-277.61-119.92,4.97,4.27,9.3,9.07,14.39,13.19,50.51,40.89,103.5,57.37,167.89,63.56,99.81,9.59,240.7-6.59,330.38-53.96,92.62-48.93,140.97-136.37,197.27-219.45,16.13-23.81,44.27-51.98,58.76-88.14,4.57-11.39,6.39-28.71,10.79-30.58Z"/>
  <path class="newborn-cls-39" d="m726.71,173.88c.36.12.84-.13,1.2,0,15.96,6.87,15.66,20.43,18.59,21.59,6.97-.25,13.15-.33,19.79,2.4,4.97,2.05,11.74,10.12,15.59,14.39,6.36,7.05,14.73,14.26,14.39,24.58,14.76,10.53,19.25,7.95,27.58,24.58.46.91-.31,4.68,0,6.6,14.49,11.68,12.01,21.44,10.79,37.77-.03.44-2.2,5.48-2.4,8.39-4.01,7.16,4.42,8.99,3.6,22.78-.27,4.61-8.62,31.58-14.39,34.18-1.37,23.58-19.6,42.09-22.78,65.36-1.95-.9-3.99-1.66-6-2.4-5.05-1.87-17.41.07-19.79,1.2-4.69,2.22-15.42,15.39-19.79,20.39-.13-.14-1.72.22-3.6-1.2,11.75-40.85-14.15-45.35-16.79-47.97-3.44-3.41-8.59-15.48-7.2-19.79,1.35-4.17,44.11-18.85,21.59-76.15-6.77-17.23-12.55-20.83-26.38-31.18-9.59-7.18-20.3-11.53-29.98-17.99-1.52-1.02-14.11-14.52-28.18-22.78-2.39-.3-3.97,3.44-4.2,3.6-3.05,2.15-4.84,4.39-7.2,7.2-1.37,1.63-6.94,7.9-7.2,8.39-4.81.87-1.13-6.78-1.8-7.2-6.24-3.82-15.68,13.7-13.79-3.6.66-5.98,4.46-12.42,3-13.19-17.51.24-27.81,3.1-42.57,11.99-2.01,1.21-4.13,2.07-6,3.6-.86-.28-2.46.17-3.6,0-1.83-1.83-3.21-4.43-5.4-6-45.95,10.04-58.32,75.26-62.96,115.72q-2.4,6.9-4.8,13.79l-2.4,3.6c-3.43-12.56-3.4-25.56-4.8-38.37-.45-4.09-2.82-8.6,0-12.59-8.7,8.97-2.63-31.29-1.2-35.98.3-.99,3.69,2.71,8.39-17.39,1.21-3.02,3.08-6.2,4.8-8.99-1.58-5.39-1.17-14.54,0-19.79,5.96-26.71,39.88-37.02,41.37-39.57,1.42-2.43-4.9-22.32,44.37-22.78,13.94-26.39,66.59-17.74,89.94-8.39,9.37-11.59,27.91-2.9,40.17,1.2Z"/>
  <path class="newborn-cls-6" d="m1001.32,411.32c-3.76.42-5.12-8.95-7.2-12.59-30.8-54.02-113.13-112.66-170.28-137.31-8.33-16.63-12.82-14.05-27.58-24.58.34-10.32-8.03-17.54-14.39-24.58,101.23-10.48,180.99,52.82,208.66,148.1,4.31,14.83,7.82,42.97,10.79,50.97Z"/>
  <path class="newborn-cls-3" d="m1090.06,643.96c-4.4,1.86-6.23,19.18-10.79,30.58-14.49,36.16-42.63,64.33-58.76,88.14-2.23,1.6-2.95,1.26-2.4-1.8,1.97-10.99,47.23-75.33,40.77-179.88-2.14-34.57-16.13-87.85-29.98-119.92-5.39-12.47-18.29-29.83-16.79-36.58,3.12,2.64,15.37,9.3,23.38,16.79,56.67,52.9,58.72,130.25,54.56,202.66Z"/>
  <path class="newborn-cls-35" d="m766.28,197.87c-6.63-2.73-12.82-2.64-19.79-2.4-2.93-1.15-2.62-14.71-18.59-21.59,13.16,4.66,29.45,13.03,38.37,23.98Z"/>
  <path class="newborn-cls-23" d="m261.42,898.19c7.63,12.09,17.44,22.53,26.38,33.58,3.86,4.77,10.22,12.35,11.99,17.99-8.67-7.3-17.77-14.63-27.58-20.39-23.82-25.46-65.76-53.04-91.14-104.33,20.83,30.2,48.94,54.53,80.35,73.15Z"/>
  <path class="newborn-cls-9" d="m444.9,925.77c29.8,31.07,65.54,54.87,107.93,64.76,12.29,2.87,23.57,3.63,35.98,4.8,11.91,5.49-20.34,10.81-28.18,11.99-21.02,3.16-43.05,3.54-64.16,2.4-34.64-1.87-67.88-10.12-100.13-22.78-16.52-6.49-30.8-19.61-49.17-20.39-6.38,8.56-12.48,11.79-22.18,6-5.09-4.12-9.42-8.93-14.39-13.19-3.68-3.16-7.09-6.48-10.79-9.59-1.77-5.64-8.13-13.22-11.99-17.99-10.07-26.27-1.66-15.42,0-19.79.61-1.62-7.49-6.62,3-7.79,16.18,13.3,88.26,74.45,101.93,76.75,7.27,1.22,26.97-7.49,28.78,2.4,2.08-14.11,16.48-12.42,17.39-13.79-7.62-16.87,36.48-16.92,6-43.77Z"/>
  <path class="newborn-cls-29" d="m496.46,1009.71c-.67,3.55-10.77,2.19-10.79,5.4,0,1.39,25.29,11.91-1.2,10.79l8.39,10.19c-64.38-6.19-117.37-22.67-167.89-63.56,9.7,5.79,15.8,2.56,22.18-6,18.37.78,32.64,13.9,49.17,20.39,32.25,12.67,65.49,20.91,100.13,22.78Z"/>
  <path class="newborn-cls-21" d="m498.86,338.17c-93.78,93.83-161.32,197.41-159.49,334.57.8,60.21,10.76,102.74,39.57,155.89-9.13-3.93,6.88,22.52-8.99,3.6-.45.04-.99,3.21-2.4,3.6-1.18.32-5.71-6.15-13.79,16.19-21.04,4.42-17.81,21.9-31.78,13.79-3.05,20.23-15.43,2.75-29.98,20.39-21.87-18.25-20.46-28.27-53.36-31.18-38.74-78.25-50.77-137.24-43.17-225.45,2.32,12.76,7.37,2.33,7.2.6-.47-4.53-10.83.84,5.4-14.99,6.2,3.37-6.87,4.37,1.2,11.99,1.57-5.92,7.24-1.8,14.39-6,1.28-.75,18.68-20.72,20.39-21.59,6.75-3.41,6.54,4,10.19-.6,7.67-17.94,12.62-36.36,17.99-55.16,12.68-22.14,21.3-45.71,29.98-69.55,44.9-77.62,115.11-150.36,197.27-187.67,2.91-12.28,6.3-13.66,6.6-14.39-4.7,20.1-8.09,16.4-8.39,17.39-1.43,4.69-7.5,44.95,1.2,35.98-2.82,3.99-.45,8.5,0,12.59Z"/>
  <path class="newborn-cls-21" d="m510.85,243.43c-1.17,5.25-1.58,14.4,0,19.79-1.72,2.8-3.58,5.97-4.8,8.99-.29.73-3.69,2.11-6.6,14.39-82.16,37.32-152.37,110.05-197.27,187.67-8.68,23.85-17.3,47.41-29.98,69.55-5.37,18.81-10.31,37.22-17.99,55.16-3.66,4.6-3.44-2.81-10.19.6-1.7.86-19.11,20.83-20.39,21.59-7.15,4.19-12.82.07-14.39,6-8.07-7.62,5-8.62-1.2-11.99-16.22,15.83-5.86,10.46-5.4,14.99.18,1.73-4.87,12.16-7.2-.6,5.15-59.85,32.38-143,61.16-196.07,52.62-97.02,149.53-161.12,254.23-190.07Z"/>
  <path class="newborn-cls-9" d="m378.94,828.64c6.11,11.28,12.52,22.21,20.39,32.38-1.84.34,5.82,13.07,9.59,19.19,9.02,14.61,24.08,33.17,35.98,45.57,30.48,26.85-13.61,26.9-6,43.77-.91,1.37-15.31-.32-17.39,13.79-1.81-9.89-21.51-1.18-28.78-2.4-13.67-2.3-85.75-63.45-101.93-76.75-10.49,1.17-2.38,6.18-3,7.79-1.66,4.36-10.07-6.48,0,19.79-8.94-11.05-18.75-21.49-26.38-33.58-5.4-8.55-17.64-32.79-22.78-43.17,32.91,2.91,31.5,12.93,53.36,31.18,14.55-17.63,26.93-.15,29.98-20.39,13.97,8.1,10.74-9.37,31.78-13.79,8.08-22.34,12.61-15.86,13.79-16.19,1.41-.39,1.94-3.56,2.4-3.6,15.88,18.92-.13-7.52,8.99-3.6Z"/>
  <path class="newborn-cls-28" d="m498.86,338.17c1.4,12.81,1.37,25.81,4.8,38.37-6.62,14.7-8.26,27.97-9.59,32.38-16.67,7.63-68.78,79.49-80.35,98.93-20.14,33.85-69.3,128.06-74.35,164.89-1.83-137.17,65.72-240.74,159.49-334.57Z"/>
  <path class="newborn-cls-13" d="m820.24,587.6c-5.32-2.38-8.69-23.46-11.99-32.98-9.38-27.06-22.63-52.82-32.38-79.75.37-2.75,19-22.69,22.78-38.37,3.19-23.27,21.41-41.78,22.78-65.36,5.77-2.6,14.12-29.56,14.39-34.18l7.2,32.98c11.48,5.72,2.93,39.6,7.2,56.36-2.53,20.47-14.81,37.99-20.39,57.56-9.26,32.54-11.16,70.15-9.59,103.73Z"/>
  <path class="newborn-cls-12" d="m494.06,408.92c-6.22,20.54-15.3,34.77-11.99,57.56.21,1.43,3.25,12.6,3.6,13.19-33.39,40.94-60.24,92.24-58.76,146.3l-2.4,6c-54.99,64.38-64.62,154.45-7.2,220.65,21.39,24.65,40.53,36.82,70.75,49.17-21.92-6.57-34.21-13.37-52.16-27.58-.15-.12-.89,1.82-3.6,1.2-7.22-10.62-32.88-47.39-23.98-9.59,4.53-4.59,2.94-1.03.6,3,9.47-.62,9.44,10.12,11.99,13.79-7.7-4.05-16.16-14.58-21.59-21.59-7.87-10.17-14.27-21.1-20.39-32.38-28.82-53.15-38.77-95.68-39.57-155.89,5.05-36.83,54.21-131.04,74.35-164.89,11.57-19.44,63.68-91.3,80.35-98.93Z"/>
  <g>
    <path class="newborn-cls-33" d="m588.8,995.32c-12.4-1.17-23.69-1.93-35.98-4.8,10.46-2.48,22.25,2.85,32.98,3.6,11.34.79,45.67.68,57.56,0,101.1-5.81,213.82-64.17,263.22-155.29,4.38-8.07,30.99-62.68,11.99-52.16,2.14-6.58,4.69-13.32,7.2-19.79,8.41-40.93,12.13-81.38,14.39-122.32.01-.22,2.39-3.38,2.4-3.6.68-13.94.88-53.18,0-65.96-.01-.22-2.38-3.38-2.4-3.6-1.31-16.1-2.65-31.95-4.8-47.97-20.53-74.76-44.88-154.57-103.13-209.26.2-2.91,2.37-7.96,2.4-8.39,70.37,59.98,116.74,198.07,119.92,287.21,2.11,59.07-8.02,153.12-28.78,208.66-50.29,134.57-198.78,206.66-336.97,193.67Z"/>
    <path class="newborn-cls-26" d="m918.58,786.67c-19.44,59.83-60.05,112.58-113.32,146.3-31.88,20.18-84.09,41.46-121.12,47.97-56.81,9.99-131.84,6.54-183.48-21.59-30.52-16.63-52.85-43.88-76.15-68.35l1.2-3.6c23.3,20.15,79.35,34.9,109.73,38.37,72.02,8.23,144.28-6.02,202.66-50.37,90.58-68.8,95.2-183.96,82.14-287.8-1.56-33.58.33-71.19,9.59-103.73,5.57-19.57,17.85-37.09,20.39-57.56-4.27-16.76,4.28-50.65-7.2-56.36l-7.2-32.98c.82-13.8-7.6-15.62-3.6-22.78,58.25,54.69,82.6,134.49,103.13,209.26,2.15,16.01,3.48,31.86,4.8,47.97.02.22,2.38,3.38,2.4,3.6.88,12.78.68,52.02,0,65.96-.01.22-2.39,3.38-2.4,3.6-2.26,40.94-5.98,81.39-14.39,122.32-2.51,6.47-5.06,13.2-7.2,19.79Z"/>
    <path class="newborn-cls-33" d="m552.82,990.53c-42.39-9.88-78.12-33.69-107.93-64.76-11.89-12.4-26.95-30.96-35.98-45.57-.29-5.1,9.31,4.2,15.59,10.79,23.3,24.47,45.63,51.73,76.15,68.35,51.64,28.13,126.67,31.58,183.48,21.59,37.02-6.51,89.24-27.79,121.12-47.97,53.28-33.72,93.88-86.47,113.32-146.3,19-10.51-7.61,44.09-11.99,52.16-49.4,91.13-162.12,149.48-263.22,155.29-11.89.68-46.22.79-57.56,0-10.73-.74-22.52-6.08-32.98-3.6Z"/>
    <path class="newborn-cls-20" d="m420.91,882.6c1.56,2.25,2.81,3.08,4.8,4.8l-1.2,3.6c-6.28-6.59-15.88-15.89-15.59-10.79-3.78-6.11-11.43-18.85-9.59-19.19,5.42,7.01,13.88,17.53,21.59,21.59Z"/>
  </g>
  <path class="newborn-cls-15" d="m775.87,474.88c9.75,26.93,23,52.68,32.38,79.75,3.3,9.52,6.67,30.59,11.99,32.98,13.05,103.84,8.44,219-82.14,287.8-58.39,44.35-130.65,58.59-202.66,50.37-30.38-3.47-86.43-18.22-109.73-38.37-1.98-1.71-3.23-2.55-4.8-4.8-2.55-3.67-2.52-14.41-11.99-13.79,2.34-4.03,3.93-7.58-.6-3-8.9-37.79,16.76-1.03,23.98,9.59,2.71.62,3.45-1.32,3.6-1.2,17.95,14.21,30.24,21.01,52.16,27.58,86.08,25.8,186.79,9.98,249.43-58.16,82.62-89.88,77.97-254.18,27.58-359.16.1-.09,1.07-2.28,1.2-2.4,2.91-2.65,4.56-4.17,7.2-7.2.1-.12,1.43.07,2.4,0Z"/>
  <g>
    <path class="newborn-cls-25" d="m488.07,901.79c-30.22-12.35-49.36-24.51-70.75-49.17,39.41,17.58,117.95,22.04,159.49,16.79,1.2,3.46-4.22,4.31-2.4,7.79,2.14,4.08,57.29-9.07,64.16-11.39,95.06-32.17,141.86-143.92,138.51-238.04,20.7-6.36-.98,24.54,17.99,0-3.87-14.25.36-6.71,2.4-9.59,1.36-1.93-4.83-41.83-6-46.77-1.52-6.4-5.54-9.57-3.6-14.39l-13.19-5.4c-.23-4.18-1.77-8.3-6.6-9.59-7.63-2.05-89.26,8.84-122.92,9.59,8.6-5.24,22.79-8.2,33.58-13.19,20.43-9.44,36.03-22.4,50.37-39.57,11.16,4.38,27.19-6.91,35.98-14.39,50.39,104.98,55.04,269.28-27.58,359.16-62.64,68.14-163.35,83.96-249.43,58.16Z"/>
    <path class="newborn-cls-38" d="m576.81,869.41c-41.55,5.25-120.08.79-159.49-16.79-57.43-66.2-47.79-156.27,7.2-220.65,22.3,12.14,48.21,15,73.15,16.79,57.47,4.11,134.34-3.81,191.87-13.19,12.01-1.96,23.92-4.89,35.98-6.6-62.61,73.9-131.84,141.6-203.86,206.26,14.97,12.72,57.24,28.87,61.76,31.78,5.17,3.34-2.6,1.89-6.6,2.4Z"/>
    <path class="newborn-cls-4" d="m488.07,480.87c7.75,15.72,48.22,52.8,62.36,59.96,25.4,12.86,66.18,11.43,94.74,10.79,33.66-.75,115.29-11.64,122.92-9.59,4.83,1.29,6.37,5.41,6.6,9.59.69,12.73-24.67,49.12-35.38,56.36-12.12,8.19-35.38,12.36-49.77,15.59-53.18,11.94-135.33,18.77-189.47,15.59-24.82-1.46-49.32-6.33-73.15-13.19-1.48-54.06,25.37-105.36,58.76-146.3.07.11,2.32,1.09,2.4,1.2Z"/>
    <path class="newborn-cls-19" d="m500.06,639.17c-.27,4.23,1.39,7.22-2.4,9.59-24.94-1.78-50.85-4.65-73.15-16.79l2.4-6c23.83,6.86,48.33,11.73,73.15,13.19Z"/>
    <path class="newborn-cls-25" d="m576.81,869.41c4-.5,11.77.94,6.6-2.4-4.52-2.91-46.79-19.06-61.76-31.78,72.02-64.66,141.25-132.36,203.86-206.26-12.06,1.7-23.96,4.64-35.98,6.6v-11.99c14.39-3.23,37.65-7.4,49.77-15.59,10.71-7.24,36.07-43.64,35.38-56.36l13.19,5.4c-1.94,4.82,2.08,7.99,3.6,14.39,1.17,4.94,7.36,44.84,6,46.77-2.03,2.88-6.27-4.66-2.4,9.59-18.97,24.54,2.72-6.36-17.99,0,3.36,94.12-43.45,205.86-138.51,238.04-6.86,2.32-62.02,15.48-64.16,11.39-1.82-3.49,3.6-4.33,2.4-7.79Z"/>
    <path class="newborn-cls-17" d="m689.53,635.57c-57.53,9.38-134.4,17.3-191.87,13.19,3.79-2.37,2.13-5.36,2.4-9.59,54.14,3.18,136.29-3.65,189.47-15.59v11.99Z"/>
  </g>
  <g>
    <path class="newborn-cls-11" d="m720.71,279.41c13.83,10.35,19.61,13.94,26.38,31.18-4.41.34-13-20.98-14.99-20.39-1.12.54-.4,3.54-.6,3.6-12.57,3.58-4.72-13.5-17.99,10.19,1.81,7.84-2.72,27.11-8.39,29.98,4.38,4.28-4.52,12.47-4.8,13.19-1.95,5.05.14,6.86,0,7.2-3.95,9.6-14.31,22.8-16.79,39.57-8.98,6.09-9.83-.88-14.99-3-.36-.15-2.21,3-7.79-1.2-6.52-4.91,3.61-9.73,1.2-14.99,7.87-2.68,21.53-16.74,13.19-23.98,11.8-10.84,1.77,1.16,9.59,2.4.19-10.86,5.3-22.33,6-25.78,5.07,8.71,11.3,8.24,11.99-1.8.71-1.33,2.41,1.72,3,.6,6.59-12.62-6.19-18.67-6.6-19.79-1.94-5.27,6.32-7.43-6-11.39.96-14.15-8.71-5.54-16.79-4.8-.65.06-4.42,1.58-5.4,2.4-1.51-1.42-3.33-2.18-5.4-2.4.91-6.81,3.04-.39,6.6-1.2,1.02-.23-.13-2.11,1.8-2.4,17.16-2.59,27.13-.45,17.99-8.39,4.74.34,10.99-4.81,29.38,3.6l-.6-2.4Z"/>
    <path class="newborn-cls-8" d="m747.09,310.59c22.52,57.3-20.24,71.98-21.59,76.15-1.39,4.3,3.75,16.37,7.2,19.79-37.52-4.95-7.19-34.72-7.2-64.16,17.67-30.3.79-29.16,6-48.57.2-.06-.52-3.06.6-3.6,1.99-.59,10.58,20.73,14.99,20.39Z"/>
    <path class="newborn-cls-24" d="m753.09,455.69c1.36,1.39.93,7.35,10.79,1.2,1.6,6.65,5.78,10.93,9.59,17.99-2.64,3.03-4.29,4.54-7.2,7.2-9.05-.93-4.18-9.25-7.79-10.79-12.99,12.84-9.98,2.34-11.99,2.4-1.27.04-11.8,21.18-12.59,22.18-.59.75-2.99.83-4.8,3-14.33,17.17-29.93,30.13-50.37,39.57-4.68-1.93-4.26-2.04,2.4-7.2.64-.49,9.02-4.39,13.79-8.39,17.25-14.49,48.43-47.02,54.56-68.35,1.88,1.42,3.47,1.06,3.6,1.2Z"/>
    <path class="newborn-cls-14" d="m798.66,436.5c-3.78,15.69-22.41,35.63-22.78,38.37-.97.07-2.3-.12-2.4,0-3.82-7.06-7.99-11.33-9.59-17.99.92-.57,7.84-8.05,16.19-14.39,5.65-2.93,21.14-.27,12.59-8.39,2.01.74,4.05,1.5,6,2.4Z"/>
    <path class="newborn-cls-8" d="m792.66,434.11c8.55,8.12-6.94,5.46-12.59,8.39-8.35,6.34-15.27,13.82-16.19,14.39-9.87,6.15-9.43.19-10.79-1.2,4.37-5,15.1-18.17,19.79-20.39,2.38-1.12,14.73-3.07,19.79-1.2Z"/>
    <path class="newborn-cls-31" d="m525.24,372.95v1.2c-5.48,2.33-14.26,2.07-15.59,3-1.03.72-10.51,21.56-10.79,22.78-.98,4.31,4.41,23.43-3,6.6-1,1.11-.02,1.58-1.8,2.4,1.34-4.41,2.97-17.68,9.59-32.38l2.4-3.6c6.91,4.87,6.23.82,10.79,0,7.25-1.3,7.64.05,8.39,0Z"/>
    <path class="newborn-cls-11" d="m681.14,531.24c-6.66,5.16-7.08,5.27-2.4,7.2-10.79,4.99-24.98,7.95-33.58,13.19-28.56.64-69.33,2.06-94.74-10.79q10.49,1.2,20.99,2.4c1.25-4.7,18.03-7.98,23.38-8.39,10.85-.84,22.08,1.63,32.98,1.2,16.27-9.84,25.11-28.08,37.77-40.17-2.94-10.05,6.3-20.2,15.59-22.78-4.31-4.62,3.43-11.33,3.6-11.99.13-.54-4.47-4.19,2.4-9.59-.17-1.45-12.59-4.02-14.39-4.2,3.29-1.15-3.05-2.82-4.8-6-.07-.13,3.83.13,2.4-1.8-6.98-9.44-24.11-13.32-35.38-11.39-.98.17.17,1.77-1.8,2.4-.61.19-2.81-2.95-9.59,6-3.12,2.77-5.28-1.09-7.2-1.2,9.84-17.25,72.09-1.1,28.18-13.19l1.8-2.4c9.22,1.86,10.61,2.82,20.39,1.2,2.55-.42,5.6-1.3,7.2-3.6,2.32,1.87,10.37,5.17,12.59,1.2,4.27,7.19,14.98,4.72,14.99,24.58,26.21,10.85-13.16,54.36-20.39,88.14Z"/>
    <path class="newborn-cls-31" d="m525.24,374.15c50.33,29.26-8.53,12.28-18.59,23.98-1.89,2.2.62,2.28.6,2.4-1,7.78,3.59,4.14,4.8,6.6,3.63,7.38-1.19,15.88,16.79,18.59,3.04.46,5.05,1.3,8.39,1.2-6.43,5.95-21.06.22-25.18,7.79-.29.54-2.58,11.41-2.4,11.99,2.64,8.63,14.11-.67,14.99-.6,3.17.25,1.15,3.69,2.4,3.6,2-.15,15.9-11.18,19.19-13.19,6.32,4.08,34.77-4.35,35.38-10.19.04-.4-3.26-6.98-3.6-7.2-1.49-.93-15.5,6.9-18.59,4.2,1.51-4.53-1.68-4.57-1.8-4.8-.35-.69.34-3.06,0-3.6,6.66-2.92,6.12-1.18,10.19-8.39,6.02,6.77,17.11-3.51,22.18,5.4,3.97,6.96.03,12.48,0,13.19-.32,8.08,3.62,8.67-2.4,11.99.44.75,2.79.26,6,1.8-8.68-.65-6.37,5.36-11.99,11.99,5.27-13.51-5.08-7.29-12.59-7.2-.27,0-3.36-2.76-4.8-2.4-2.2.55-4.69,7-.6,11.99-43.49-3.5,17.02,33.8,40.77,22.78-6.64,8.82,3.65,2.86,7.79,3.6.25.04.76,2.77,3.6,3.6.56.16,5.98-5.09,7.79,3.6,2.77,13.29-22.44,4.78-21.59,11.99-3.51-3.22-11.48-14.41-8.99-19.19-11.47,1.12-11.35,4.7-11.99,4.8-.71.11-1.47-9.71-8.39,3.6-.97-.42-.07-3.97-2.4-4.8-11.99-4.27-12.22-.28-6.6,8.39-11.02-3.26-22.98-5.18-32.38-11.99-2.49-4.18,1.68-6.55-2.4-17.99-1.4-3.93,1.6-2.56,1.2-3-7.85-6.97-13.45,7.49-16.19,8.99-.68.38-14.82.15-15.59,0-5.28-1.05-14.39-11.87-16.19-1.2-3.31-22.79,5.77-37.02,11.99-57.56,1.78-.82.8-1.29,1.8-2.4,7.41,16.83,2.01-2.29,3-6.6.28-1.23,9.76-22.06,10.79-22.78,1.33-.93,10.11-.67,15.59-3Z"/>
    <path class="newborn-cls-22" d="m693.13,295c-.29,4.29-3.59,10.8-3.6,11.39-.01.68,3.62,12.46,3.6,13.19-.03.92-2.33.27-2.4,1.2-.03.41,1.78-2.25,0,6.6-.7,3.45-5.81,14.93-6,25.78-7.83-1.24,2.21-13.24-9.59-2.4,8.34,7.25-5.32,21.31-13.19,23.98,2.41,5.26-7.72,10.08-1.2,14.99-6.23,6.33-27.88,1.64-40.77,4.8-8.91-10.15,7.74-3.4,10.19-3.6,1.82-.15,7.27-7.27,13.19-1.2,5.65-10.38,16.24,2.55,7.79-12.59,10.76-8.24-6.29-1.64-7.2-7.2-1.87-11.5,28.15-1.56,20.39-20.39,10.1.29,3.7-10.09,12.59-22.18.38-.52-.85,3.82,8.99-6.6q-1.8-7.2-3.6-14.39c-15.01-7.69,11.05-13.73-6-16.19,8.08-.74,17.75-9.35,16.79,4.8Z"/>
    <path class="newborn-cls-37" d="m616.38,435.3c1.92.11,4.08,3.96,7.2,1.2.27,3.34,7.71,5.94,10.79,7.2-.03,7.25-8.12,1.52-3,7.2,8.08,3.53,14.64,5.03,23.38,6-.69,12.91-5.68,11.91-6,12.59-.53,1.13,1.2,7.8-4.8,11.39,1.73-31.19-14.66-15.72-25.78-15.59-4.08.05-6.53-7.57-8.99,0l-10.79-25.18.6-7.2c5.91,1.16,11.3,2.06,17.39,2.4Z"/>
    <path class="newborn-cls-31" d="m590,261.42c3.37,2.67,13.39,6.97,16.79,9.59,15.92,12.26,18.46,17,1.8,16.79-5.03-2.09,10.7-8.52-11.99-8.39-.9,0-.29,2.35-1.2,2.4-5.97-5.81-14.16,4.92-22.78,0-2.23,3.5-11.53,15.45-15.59,9.59-6.22-8.98,11.13-17.42,11.39-18.59,1.15-5.21-10.23-4.29-6.6-8.99.65-1.68,14.61,2.72,15.59,2.4,2.08-.69,2.28-6.7,3.6-7.2,2.33-.88,2.85,5.44,8.99,2.4Z"/>
    <g>
      <path class="newborn-cls-7" d="m610.39,245.83c8.27,8.91,8.17,4.89,8.39,5.4.43.95-2.8,4.37-.6,5.4,3.25,1.52,1.93-10.71,10.19-9.59-1.89,17.3,7.55-.22,13.79,3.6.67.41-3.02,8.07,1.8,7.2-9.55,18.44-1.92,8.72,22.78,9.59.85.48,7.44,1.7,16.19,9.59,6.07-.78,8.54,1.17,8.99,1.2,9.15,7.94-.83,5.8-17.99,8.39-1.75-12.23-12.23,6.99-14.99-9.59-23.12,7.33-8.96-1.59-16.79-4.8-.53-.22-10.69-.05-11.39,1.8-.74,1.96,4.05,5.43,2.4,7.79-16.2-6.17-24.79-14.14-26.38-10.79-3.4-2.62-13.42-6.92-16.79-9.59-8.87-7.04-10.22-11.42-10.79-11.99,1.14.17,2.74-.28,3.6,0,7.81,2.54,6.21,6.88,7.79,7.2,7.03,1.39,14.2-7.27,19.79-10.79Z"/>
      <path class="newborn-cls-24" d="m690.73,261.42c9.68,6.45,20.39,10.81,29.98,17.99l.6,2.4c-18.39-8.41-24.64-3.26-29.38-3.6-.45-.03-2.93-1.97-8.99-1.2-8.75-7.89-15.34-9.11-16.19-9.59-2.38-1.34-2.94-9.72-17.99-5.4,5.73-6.97.98-6.54,1.2-7.2.54-1.61,8.5.54,1.2-5.4,2.35-2.8,4.15-5.04,7.2-7.2,5.19,5.35,13.16,13.71,20.99,13.19,4.28,5.81,7.02,13.11,11.39,6Z"/>
      <path class="newborn-cls-24" d="m628.37,247.03c-8.26-1.12-6.95,11.11-10.19,9.59-2.2-1.03,1.03-4.44.6-5.4-.23-.51-.13,3.51-8.39-5.4-.33-.36.64-3.06-.6-3.6-2.65-1.14-16.62,11.46-20.99,3.6,14.76-8.89,25.06-11.75,42.57-11.99,1.46.77-2.34,7.21-3,13.19Z"/>
      <path class="newborn-cls-24" d="m690.73,261.42c-4.38,7.11-7.11-.19-11.39-6-7.83.52-15.79-7.84-20.99-13.19.23-.16,1.81-3.9,4.2-3.6,14.07,8.26,26.66,21.77,28.18,22.78Z"/>
      <path class="newborn-cls-8" d="m666.75,267.42c-24.7-.87-32.33,8.85-22.78-9.59.25-.49,5.82-6.76,7.2-8.39,7.3,5.94-.66,3.79-1.2,5.4-.22.65,4.53.23-1.2,7.2,15.05-4.32,15.61,4.06,17.99,5.4Z"/>
      <path class="newborn-cls-8" d="m610.39,245.83c-5.58,3.52-12.75,12.19-19.79,10.79-1.58-.31.02-4.65-7.79-7.2,1.87-1.53,3.99-2.39,6-3.6,4.36,7.86,18.33-4.74,20.99-3.6,1.23.53.26,3.24.6,3.6Z"/>
      <path class="newborn-cls-7" d="m673.94,286.61c-1.93.29-.78,2.17-1.8,2.4-3.55.81-5.68-5.61-6.6,1.2-13.22-1.42-20.41-3.83-32.38-8.39,1.66-2.37-3.14-5.84-2.4-7.79.7-1.84,10.86-2.02,11.39-1.8,7.83,3.21-6.34,12.13,16.79,4.8,2.76,16.58,13.24-2.64,14.99,9.59Z"/>
    </g>
    <path class="newborn-cls-37" d="m666.75,420.91c-9.78,1.62-11.16.66-20.39-1.2-4.15-.84-11.51,2.36-10.79-4.2.82-7.53,28.66-10.96,31.18,5.4Z"/>
    <g>
      <path class="newborn-cls-2" d="m579.21,249.43c.57.57,1.92,4.95,10.79,11.99-6.15,3.04-6.66-3.28-8.99-2.4-1.32.5-1.51,6.51-3.6,7.2-.98.32-14.94-4.08-15.59-2.4-3.64,4.7,7.74,3.78,6.6,8.99-.26,1.17-17.62,9.6-11.39,18.59,4.06,5.85,13.36-6.09,15.59-9.59,8.62,4.92,16.82-5.81,22.78,0,.91-.04.3-2.39,1.2-2.4,22.69-.12,6.96,6.31,11.99,8.39,16.66.21,14.12-4.52-1.8-16.79,1.59-3.34,10.18,4.62,26.38,10.79,11.97,4.56,19.16,6.98,32.38,8.39,2.06.22,3.88.98,5.4,2.4.98-.81,4.75-2.34,5.4-2.4,17.05,2.46-9.02,8.5,6,16.19q1.8,7.2,3.6,14.39c-9.85,10.42-8.61,6.08-8.99,6.6-8.89,12.09-2.49,22.48-12.59,22.18,7.77,18.82-22.25,8.89-20.39,20.39.9,5.56,17.95-1.04,7.2,7.2,8.44,15.14-2.14,2.21-7.79,12.59-5.92-6.07-11.37,1.05-13.19,1.2-2.46.2-19.11-6.55-10.19,3.6.23.27-.51,1.89.6,2.4,18.45.59,34.19,4.79,49.17,11.99,2.51,1.64-.88,4.31,4.2,8.39-1.59,2.29-4.64,3.17-7.2,3.6-2.52-16.36-30.36-12.93-31.18-5.4-.71,6.55,6.64,3.36,10.79,4.2l-1.8,2.4c43.91,12.09-18.34-4.06-28.18,13.19-6.09-.34-11.48-1.24-17.39-2.4l-.6,7.2c-6.61,2.63-4.49-1.05-4.8-1.2-3.2-1.54-5.55-1.05-6-1.8,6.02-3.32,2.08-3.92,2.4-11.99.03-.71,3.97-6.23,0-13.19-5.08-8.91-16.17,1.38-22.18-5.4-4.07,7.21-3.53,5.47-10.19,8.39-13.15-20.5-29-16.47-50.37-14.39.02-.12-2.49-.2-.6-2.4,10.06-11.7,68.92,5.27,18.59-23.98v-1.2c.12,0-.39-2.35.6-2.4,1.02-.05,19.38,1.02,20.39,1.2.38.07,4.64,4.86,6,4.8,12.59-.63-25.27-21.93-34.18-12.59-1.32,1.38-5.07,8.24-1.2,8.99-4.56.82-3.88,4.87-10.79,0q2.4-6.9,4.8-13.79c4.64-40.46,17.01-105.69,62.96-115.72,2.19,1.57,3.57,4.17,5.4,6Z"/>
      <path class="newborn-cls-36" d="m587,302.19c7.95-1.94,12.32,12.75,8.99,18.59-1.88,3.3-23.44,13.88-26.38,0-.74-3.48,16-18.25,17.39-18.59Z"/>
      <path class="newborn-cls-10" d="m525.24,372.95c-.76.05-1.14-1.3-8.39,0-3.87-.75-.12-7.61,1.2-8.99,8.9-9.33,46.77,11.96,34.18,12.59-1.36.07-5.62-4.73-6-4.8-1-.18-19.37-1.25-20.39-1.2-.99.05-.48,2.39-.6,2.4Z"/>
      <path class="newborn-cls-31" d="m551.03,267.42c5.66,9.4-8.73,19.92-10.19,22.18-.16.25,2.9,2.45,0,6-3.94,4.82-8.45-4.18-8.39-4.8.18-2.2,15.04-23.28,18.59-23.38Z"/>
    </g>
    <g>
      <path class="newborn-cls-10" d="m731.5,293.8c-5.2,19.41,11.67,18.27-6,48.57,0,29.44-30.33,59.2,7.2,64.16,2.63,2.61,28.54,7.12,16.79,47.97-6.14,21.33-37.31,53.86-54.56,68.35-4.77,4.01-13.15,7.9-13.79,8.39,7.23-33.78,46.6-77.3,20.39-88.14,0-19.86-10.72-17.4-14.99-24.58-2.22,3.97-10.27.67-12.59-1.2-5.08-4.09-1.69-6.76-4.2-8.39-14.98-7.2-30.71-11.4-49.17-11.99-1.11-.51-.37-2.13-.6-2.4,12.89-3.16,34.54,1.54,40.77-4.8,5.59,4.2,7.43,1.05,7.79,1.2,5.16,2.12,6.01,9.09,14.99,3,2.48-16.77,12.83-29.98,16.79-39.57.14-.33-1.95-2.15,0-7.2.28-.72,9.18-8.91,4.8-13.19,5.67-2.87,10.21-22.14,8.39-29.98,13.27-23.69,5.41-6.62,17.99-10.19Z"/>
      <path class="newborn-cls-24" d="m680.54,404.13c2.78-2.2,20.77,10.56,19.79,13.79-1.82,5.97-25.23-9.48-19.79-13.79Z"/>
    </g>
    <path class="newborn-cls-11" d="m690.73,327.38c1.78-8.84-.03-6.19,0-6.6.07-.93,2.37-.28,2.4-1.2.02-.73-3.61-12.51-3.6-13.19,0-.6,3.31-7.1,3.6-11.39,12.31,3.97,4.06,6.12,6,11.39.41,1.12,13.18,7.17,6.6,19.79-.58,1.12-2.29-1.92-3-.6-.69,10.04-6.92,10.5-11.99,1.8Z"/>
    <path class="newborn-cls-8" d="m766.28,482.07c-.12.11-1.1,2.31-1.2,2.4-8.79,7.48-24.82,18.77-35.98,14.39,1.81-2.17,4.21-2.25,4.8-3,.79-1,11.32-22.15,12.59-22.18,2.01-.06-1,10.44,11.99-2.4,3.61,1.54-1.25,9.86,7.79,10.79Z"/>
    <path class="newborn-cls-32" d="m528.84,461.69c-6.23,7.28-9.19,8.47-9.59,8.99-10.41,13.62-14.58,33.67-31.18,10.19-.08-.11-2.33-1.08-2.4-1.2-.35-.59-3.39-11.76-3.6-13.19,1.8-10.67,10.91.15,16.19,1.2.76.15,14.91.38,15.59,0,2.74-1.51,8.34-15.97,16.19-8.99.4.44-2.6-.93-1.2,3Z"/>
    <path class="newborn-cls-22" d="m659.55,447.3c4.94.52,8.59-.45,13.19,0,1.8.18,14.23,2.74,14.39,4.2-6.86,5.41-2.26,9.05-2.4,9.59-.16.66-7.91,7.37-3.6,11.99-9.29,2.59-18.53,12.73-15.59,22.78-12.66,12.09-21.5,30.33-37.77,40.17-10.9.43-22.13-2.04-32.98-1.2-.76-1.85-8.64-3.26-8.99-3.6-1.39-1.33,1.75-2.26,1.8-2.4,4.59-6.14,36.08,2.16,37.17-5.4.16-1.11-10.73-3.94,6.6-16.19,9.65,6.42,24.38-12.2,24.58-13.79.44-3.43-3.34-1.69-3.6-1.8,1.99-7.02,7.71-9.16,4.8-19.79,7.44-3.22,11.15-8.92,16.79-14.39-.39-1.98-14.36-.07-19.19-.6-8.74-.96-15.31-2.47-23.38-6-5.12-5.68,2.96.06,3-7.2.34.14.85-.13,1.2,0,19.69,7.44,18.1,2.98,23.98,3.6Z"/>
    <path class="newborn-cls-22" d="m531.24,479.67c-7.24,1.93-7.58,14.35-10.79,20.99,2.32,3.77,7.85-8.26,14.39-10.19-11.07,15.97,2.91,31.89,12.59,45.57,9.19.97,23.09.46,31.18-3.6,3.16-1.58,2.76-4.65,3-4.8,11.07-6.9,7.98-4.81,6,1.2-.05.14-3.19,1.06-1.8,2.4.35.34,8.23,1.75,8.99,3.6-5.36.41-22.13,3.69-23.38,8.39q-10.49-1.2-20.99-2.4c-14.14-7.16-54.61-44.24-62.36-59.96,16.6,23.48,20.77,3.43,31.18-10.19.4-.52,3.37-1.72,9.59-8.99,4.08,11.44-.09,13.81,2.4,17.99Z"/>
    <path class="newborn-cls-14" d="m667.95,441.3l-8.39,6c-5.88-.61-4.3,3.84-23.98-3.6l-2.4-13.19c1.97-.63.82-2.23,1.8-2.4,11.27-1.93,28.4,1.95,35.38,11.39,1.43,1.93-2.47,1.67-2.4,1.8Z"/>
    <path class="newborn-cls-5" d="m633.17,430.51l2.4,13.19c-.35-.13-.86.14-1.2,0-3.08-1.26-10.52-3.85-10.79-7.2,6.78-8.94,8.99-5.8,9.59-6Z"/>
    <path class="newborn-cls-30" d="m667.95,441.3c1.75,3.18,8.08,4.85,4.8,6-4.6-.45-8.25.52-13.19,0l8.39-6Z"/>
    <path class="newborn-cls-32" d="m601.99,498.86c.53.49,1.71-1.27,1.8-1.2,2.08,1.63,7.45,8.12,8.39,8.39,15.1,4.39,19.33-5.5,20.39-6,2.23-1.04,8.76,7.9,11.39-16.79,6.43-1.2,2.89,6.74,3.6,7.79.91,1.36,3.69.11,4.8.6.26.11,4.04-1.63,3.6,1.8-.2,1.59-14.93,20.21-24.58,13.79-17.33,12.25-6.44,15.08-6.6,16.19-1.09,7.55-32.59-.74-37.17,5.4,1.98-6,5.07-8.1-6-1.2-7.6-8.35-9.55-2.61-13.79-4.8-2.47-1.27-1.91-2.92-.6-4.8,20.1,3.65,26.27-12.07,44.97-2.4l1.8-1.8q-11.09-8.69-22.18-17.39c-8.86-.35-19.73-2.3-28.18-4.8-5.62-8.67-5.4-12.67,6.6-8.39,2.33.83,1.43,4.38,2.4,4.8,6.92-13.31,7.69-3.49,8.39-3.6.64-.1.52-3.67,11.99-4.8-2.49,4.77,5.49,15.96,8.99,19.19Z"/>
    <path class="newborn-cls-34" d="m537.24,426.91c4.27-.13,9-1.52,13.19-2.4,1.57-.33,5.06.7,6-.6,1.62-2.24-4.87-.89-3.6-4.2,2.6-.04,4.93.57,4.8-1.2.12.23,3.31.27,1.8,4.8,3.08,2.71,17.1-5.13,18.59-4.2.34.21,3.64,6.8,3.6,7.2-.61,5.84-29.06,14.27-35.38,10.19-3.29,2.01-17.18,13.04-19.19,13.19-1.25.09.77-3.35-2.4-3.6-.88-.07-12.35,9.23-14.99.6-.18-.58,2.11-11.45,2.4-11.99,4.12-7.57,18.75-1.84,25.18-7.79Z"/>
    <path class="newborn-cls-11" d="m531.24,479.67c9.4,6.82,21.35,8.74,32.38,11.99,8.45,2.5,19.32,4.45,28.18,4.8q11.09,8.69,22.18,17.39l-1.8,1.8c-18.7-9.68-24.87,6.05-44.97,2.4-.5-.09-9.16-3.32-9.59-3.6,12.57-1.75,42.48,1.14,20.39-6.6,10.36-4.7-15.98-8.9-32.38-13.79-.39-.12-5.51-3.63-6.6-4.8-2.51-.38-2.85.8-4.2,1.2-6.54,1.93-12.07,13.96-14.39,10.19,3.22-6.64,3.55-19.06,10.79-20.99Z"/>
    <path class="newborn-cls-37" d="m643.96,480.87c-.04.79.08,1.61,0,2.4-.53.1-7.86,5.98-8.99,6-3.59.04-3.53-4.65-11.39-2.4-1.81-8.69-7.24-3.43-7.79-3.6-2.83-.83-3.35-3.55-3.6-3.6-4.14-.74-14.43,5.22-7.79-3.6,5.03-2.33,5.09-5.87,4.8-10.79,2.46-7.57,4.91.05,8.99,0,11.12-.13,27.51-15.61,25.78,15.59Z"/>
    <path class="newborn-cls-32" d="m601.99,498.86c-.86-7.21,24.35,1.3,21.59-11.99,7.86-2.25,7.8,2.44,11.39,2.4,1.13-.01,8.46-5.9,8.99-6-2.63,24.69-9.16,15.75-11.39,16.79-1.05.49-5.28,10.38-20.39,6-.95-.27-6.31-6.76-8.39-8.39-.09-.07-1.26,1.69-1.8,1.2Z"/>
    <path class="newborn-cls-32" d="m518.05,407.72c.26.19,2.51,3.9,4.2,4.8,5.67,2.99,6.28,1.08,6.6,1.2,3.34,1.28,7.59,6.22,23.98,6-1.27,3.31,5.21,1.95,3.6,4.2-.94,1.3-4.42.27-6,.6-7.02-4.44-17.41-3.26-25.78-4.8l4.2,6c-17.98-2.71-13.16-11.21-16.79-18.59-1.21-2.45-5.8,1.18-4.8-6.6,7.25,7.28,10.27,6.82,10.79,7.2Z"/>
    <path class="newborn-cls-36" d="m581.61,450.89c-5.16,6.09-11.78,9.96-17.99,2.4-4.09-4.99-1.6-11.44.6-11.99,1.44-.36,4.53,2.4,4.8,2.4,7.52-.09,17.86-6.31,12.59,7.2Z"/>
    <path class="newborn-cls-18" d="m550.43,424.51c-4.19.87-8.92,2.27-13.19,2.4-3.35.1-5.35-.74-8.39-1.2l-4.2-6c8.38,1.54,18.77.36,25.78,4.8Z"/>
    <g>
      <path class="newborn-cls-22" d="m593.6,438.9c.31.15-1.81,3.83,4.8,1.2l10.79,25.18c.29,4.93.23,8.46-4.8,10.79-23.75,11.01-84.26-26.28-40.77-22.78,6.2,7.56,12.83,3.7,17.99-2.4,5.62-6.63,3.31-12.64,11.99-11.99Z"/>
      <path class="newborn-cls-37" d="m589.4,449.69c2.11-.2,4.22,10.45,4.2,11.39-.34,11.97-11.07,6.5-4.2-11.39Z"/>
    </g>
    <path class="newborn-cls-32" d="m652.36,491.67c-1.11-.49-3.89.76-4.8-.6-.7-1.06,2.84-8.99-3.6-7.79.08-.78-.04-1.61,0-2.4,5.99-3.59,4.27-10.26,4.8-11.39.32-.68,5.3.32,6-12.59,4.82.53,18.8-1.38,19.19.6-5.64,5.47-9.35,11.17-16.79,14.39,2.91,10.63-2.81,12.77-4.8,19.79Z"/>
    <g>
      <path class="newborn-cls-14" d="m557.62,414.92c.34.53-.35,2.91,0,3.6.13,1.77-2.2,1.16-4.8,1.2-16.4.22-20.65-4.71-23.98-6-.11-11.86-.55-15.26-10.79-6-.53-.38-3.54.08-10.79-7.2,21.36-2.08,37.21-6.11,50.37,14.39Z"/>
      <path class="newborn-cls-5" d="m528.84,413.72c-.31-.12-.93,1.8-6.6-1.2-1.69-.89-3.94-4.61-4.2-4.8,10.24-9.26,10.68-5.87,10.79,6Z"/>
      <path class="newborn-cls-27" d="m543.83,405.32c.57-.2,4.26,1.56,4.2,1.8-.61,2.27-6.32-1.05-4.2-1.8Z"/>
    </g>
    <path class="newborn-cls-31" d="m545.63,494.06c1.82,6.08,6.75,16.96,11.99,20.39.43.28,9.09,3.51,9.59,3.6-1.31,1.88-1.87,3.53.6,4.8,4.24,2.18,6.19-3.55,13.79,4.8-.24.15.16,3.21-3,4.8-8.08,4.05-21.99,4.56-31.18,3.6-9.68-13.68-23.66-29.6-12.59-45.57,1.35-.4,1.69-1.58,4.2-1.2,1.09,1.16,6.2,4.68,6.6,4.8Z"/>
    <path class="newborn-cls-16" d="m557.62,514.45c-5.24-3.43-10.17-14.31-11.99-20.39,16.39,4.89,42.74,9.09,32.38,13.79,22.1,7.73-7.81,4.84-20.39,6.6Z"/>
  </g>
</svg>