<?xml version="1.0" encoding="UTF-8"?>
<svg xmlns="http://www.w3.org/2000/svg" xmlns:xlink="http://www.w3.org/1999/xlink" width="200px" height="200px" viewBox="0 0 200 166" version="1.1">
<defs>
<linearGradient id="linear0" gradientUnits="userSpaceOnUse" x1="365.20911" y1="685.28619" x2="338.44745" y2="667.00024" gradientTransform="matrix(0.76151,0,0,0.647733,-135.362648,-290.944141)">
<stop offset="0" style="stop-color:rgb(0%,0%,0%);stop-opacity:1;"/>
<stop offset="0" style="stop-color:rgb(0%,0%,0%);stop-opacity:0.74902;"/>
<stop offset="1" style="stop-color:rgb(0%,0%,0%);stop-opacity:0.34902;"/>
</linearGradient>
<linearGradient id="linear1" gradientUnits="userSpaceOnUse" x1="275.04892" y1="691.70447" x2="247.71193" y2="673.02106" gradientTransform="matrix(0.761568,0,0,0.647683,-135.362648,-290.944141)">
<stop offset="0" style="stop-color:rgb(0%,0%,0%);stop-opacity:1;"/>
<stop offset="0" style="stop-color:rgb(0%,0%,0%);stop-opacity:0.74902;"/>
<stop offset="1" style="stop-color:rgb(0%,0%,0%);stop-opacity:0.34902;"/>
</linearGradient>
<linearGradient id="linear2" gradientUnits="userSpaceOnUse" x1="267.56619" y1="720.72784" x2="298.64755" y2="729.12732" gradientTransform="matrix(0.796102,0,0,0.619588,-135.362648,-290.944141)">
<stop offset="0" style="stop-color:rgb(0%,0%,0%);stop-opacity:1;"/>
<stop offset="0" style="stop-color:rgb(0%,0%,0%);stop-opacity:0.74902;"/>
<stop offset="1" style="stop-color:rgb(0%,0%,0%);stop-opacity:0.34902;"/>
</linearGradient>
<linearGradient id="linear3" gradientUnits="userSpaceOnUse" x1="226.26041" y1="585.16559" x2="268.7962" y2="576.11353" gradientTransform="matrix(0.732365,0,0,0.67351,-135.362648,-290.944141)">
<stop offset="0" style="stop-color:rgb(95.294118%,56.078431%,42.352941%);stop-opacity:1;"/>
<stop offset="0.62996" style="stop-color:rgb(95.686275%,62.352941%,55.294118%);stop-opacity:1;"/>
<stop offset="1" style="stop-color:rgb(96.078431%,69.019608%,68.235294%);stop-opacity:1;"/>
</linearGradient>
<linearGradient id="linear4" gradientUnits="userSpaceOnUse" x1="376.57681" y1="692.71765" x2="406.10092" y2="675.65869" gradientTransform="matrix(0.76199,0,0,0.647325,-135.362648,-290.944141)">
<stop offset="0" style="stop-color:rgb(0%,0%,0%);stop-opacity:1;"/>
<stop offset="0" style="stop-color:rgb(0%,0%,0%);stop-opacity:0.74902;"/>
<stop offset="1" style="stop-color:rgb(0%,0%,0%);stop-opacity:0.34902;"/>
</linearGradient>
</defs>
<g id="surface1">
<path style=" stroke:none;fill-rule:evenodd;fill:url(#linear0);" d="M 142.019531 144.460938 C 139.777344 150.441406 138.523438 154.363281 138.523438 154.363281 L 132.777344 148.703125 L 124.847656 150.582031 L 126.347656 139.757812 Z M 142.019531 144.460938 "/>
<path style="fill-rule:evenodd;fill:rgb(95.686275%,70.588235%,66.27451%);fill-opacity:1;stroke-width:2.4469;stroke-linecap:butt;stroke-linejoin:miter;stroke:rgb(65.882353%,8.627451%,4.705882%);stroke-opacity:1;stroke-miterlimit:4;" d="M 210.292109 191.86326 C 210.292109 191.86326 197.850469 217.299936 197.401172 229.959716 C 196.951875 242.613919 177.094063 223.953292 177.094063 223.953292 C 177.094063 223.953292 171.924375 209.994072 176.090078 200.044712 C 180.261328 190.089775 182.280391 179.850411 182.280391 179.850411 Z M 210.292109 191.86326 " transform="matrix(0.704225,0,0,0.700422,2.332746,-17.353987)"/>
<path style=" stroke:none;fill-rule:evenodd;fill:url(#linear1);" d="M 73.320312 148.402344 C 71.023438 154.515625 69.742188 158.523438 69.742188 158.523438 L 63.875 152.738281 L 55.777344 154.65625 L 57.3125 143.605469 Z M 73.320312 148.402344 "/>
<path style="fill-rule:evenodd;fill:rgb(95.686275%,69.019608%,67.843137%);fill-opacity:1;stroke-width:2.4469;stroke-linecap:butt;stroke-linejoin:miter;stroke:rgb(65.882353%,5.882353%,5.882353%);stroke-opacity:1;stroke-miterlimit:4;" d="M 112.545078 197.830645 C 112.545078 197.830645 100.103438 223.272898 99.654141 235.932678 C 99.204844 248.581304 79.341484 229.920677 79.341484 229.920677 C 79.341484 229.920677 74.171797 215.961457 78.343047 206.012097 C 82.514297 196.062737 84.533359 185.823374 84.533359 185.823374 Z M 112.545078 197.830645 " transform="matrix(0.704225,0,0,0.700422,2.332746,-17.353987)"/>
<path style=" stroke:none;fill-rule:evenodd;fill:url(#linear2);" d="M 84.519531 150.0625 C 81.828125 155.828125 79.898438 159.457031 79.898438 159.457031 L 88.59375 159.265625 L 93.40625 165.914062 L 100.265625 157.199219 Z M 84.519531 150.0625 "/>
<path style="fill-rule:nonzero;fill:rgb(95.686275%,69.019608%,68.235294%);fill-opacity:1;stroke-width:2.59265;stroke-linecap:butt;stroke-linejoin:miter;stroke:rgb(65.882353%,5.882353%,5.882353%);stroke-opacity:1;stroke-miterlimit:4;" d="M 263.115 135.624837 C 265.483516 172.789935 231.004141 208.047701 186.102188 214.372013 C 141.194688 220.690749 102.871328 195.683502 100.502813 158.512827 C 98.12875 121.342152 132.613672 86.084386 177.515625 79.76565 C 222.423125 73.441338 260.746484 98.454162 263.115 135.624837 Z M 263.115 135.624837 " transform="matrix(0.704225,0,0,0.700422,2.332746,-17.353987)"/>
<path style="fill-rule:nonzero;fill:rgb(95.686275%,69.019608%,68.235294%);fill-opacity:1;stroke-width:2.5;stroke-linecap:butt;stroke-linejoin:miter;stroke:rgb(66.27451%,5.882353%,5.882353%);stroke-opacity:1;stroke-miterlimit:4;" d="M 108.024375 201.193573 C 102.272266 202.559937 92.160313 200.914723 87.262422 198.260073 C 84.533359 196.793324 81.404922 194.852529 80.312188 193.971364 C 77.261406 191.500755 74.732031 191.19402 65.984609 192.264803 C 54.962969 193.603282 39.104453 193.012121 35.504531 191.132673 C 31.283359 188.924183 28.654141 185.544524 26.834766 180.023298 C 24.355313 172.4832 24.721406 167.274287 28.210391 161.05036 C 30.761953 156.493954 32.071016 155.311631 36.974453 153.091987 C 42.521328 150.582339 42.770938 150.314643 43.891406 145.390156 C 44.540391 142.584928 45.344688 137.732941 45.671953 134.620978 C 46.004766 131.503438 47.424766 125.424512 48.833672 121.124649 C 51.024688 114.460139 51.191094 113.160699 49.970781 112.340881 C 47.63 110.784899 43.053828 112.234918 38.555313 115.94362 C 30.872891 122.27351 26.429844 122.914864 20.622266 118.520192 C 14.032578 113.534358 12.174375 111.203174 8.202813 103.004991 C 6.095 98.632626 3.260547 93.914488 1.92375 92.503508 C 0.542578 91.053489 -0.799766 88.114413 -1.176953 85.710728 L -1.848125 81.472211 L 2.994297 81.561443 C 5.65125 81.600482 9.173516 81.12086 10.809844 80.473929 C 16.800469 78.120437 28.715156 71.929972 29.7025 70.65284 C 30.284922 69.899945 32.914141 69.292053 35.842891 69.225129 C 43.830391 69.041088 51.812344 73.524993 61.480547 83.613777 C 67.620938 90.021745 70.061563 91.912347 72.374609 92.062925 C 74.010938 92.163311 75.791484 91.884462 76.340625 91.432725 C 76.895313 90.980988 80.461953 89.402699 84.28375 87.924795 C 90.174531 85.654958 92.903594 85.214375 102.161328 85.091681 C 110.964219 84.974564 113.709922 85.292453 116.333594 86.731318 L 119.584063 88.521533 L 122.573828 85.231106 C 126.772813 80.624508 127.050156 78.343517 124.515234 69.609942 C 122.063516 61.210986 121.514375 48.071585 123.4225 43.130367 C 124.010469 41.579962 124.504141 37.274522 124.504141 33.554666 C 124.504141 29.823656 124.742656 26.533229 125.042188 26.232071 C 126.001797 25.261674 132.802266 27.910746 137.849922 31.223482 C 140.55125 32.991389 143.075078 34.441408 143.452266 34.441408 C 143.835 34.441408 147.540313 38.702233 151.700469 43.911146 C 155.860625 49.12006 161.23 55.422065 163.631797 57.914982 C 169.600234 64.094293 172.173984 72.219976 171.242109 81.962987 C 170.881563 85.79996 170.055078 89.921359 169.400547 91.103682 C 167.825234 93.981412 162.760938 97.00972 157.263984 98.370507 C 149.354141 100.33361 144.911094 101.822668 142.193125 103.45115 L 139.525078 105.040594 L 141.921328 108.994684 C 146.020469 115.765156 149.304219 122.853518 149.315313 124.995084 C 149.320859 126.121637 149.714688 127.47127 150.180625 127.98993 C 152.305078 130.332268 153.281328 143.884368 152.033281 153.482377 C 150.951641 161.714022 150.180625 164.073091 146.369922 170.782217 C 143.940391 175.059772 140.029844 180.820809 137.694609 183.581421 C 137.694609 183.581421 129.030391 191.589987 123.311563 194.791182 C 115.784453 198.99066 108.224063 201.14338 108.024375 201.193573 Z M 108.024375 201.193573 " transform="matrix(0.704225,0,0,0.700422,2.332746,-17.353987)"/>
<path style=" stroke:none;fill-rule:evenodd;fill:url(#linear3);" d="M 28.722656 89.792969 L 42.164062 85.46875 C 42.164062 85.46875 67.6875 85.40625 62.40625 100.386719 C 57.128906 115.371094 42.652344 117.109375 42.652344 117.109375 C 42.652344 117.109375 48.144531 95.378906 29.363281 93.550781 "/>
<path style="fill-rule:nonzero;fill:rgb(92.54902%,54.509804%,65.882353%);fill-opacity:1;stroke-width:2.1639;stroke-linecap:butt;stroke-linejoin:miter;stroke:rgb(62.745098%,37.647059%,4.705882%);stroke-opacity:1;stroke-miterlimit:4;" d="M 41.561719 173.381097 C 41.617188 174.652652 40.890547 175.851706 39.653594 176.504214 C 38.422188 177.156723 36.89125 177.156723 35.659844 176.504214 C 34.428438 175.851706 33.69625 174.652652 33.751719 173.381097 C 33.69625 172.109542 34.428438 170.910488 35.659844 170.257979 C 36.89125 169.605471 38.422188 169.605471 39.653594 170.257979 C 40.890547 170.910488 41.617188 172.109542 41.561719 173.381097 Z M 41.561719 173.381097 " transform="matrix(0.704225,0,0,0.700422,2.332746,-17.353987)"/>
<path style="fill-rule:nonzero;fill:rgb(92.54902%,54.117647%,66.27451%);fill-opacity:1;stroke-width:2.1639;stroke-linecap:butt;stroke-linejoin:miter;stroke:rgb(62.745098%,37.647059%,4.705882%);stroke-opacity:1;stroke-miterlimit:4;" d="M 56.471719 174.251108 C 56.527188 175.522663 55.800547 176.721717 54.563594 177.374225 C 53.332188 178.021157 51.80125 178.021157 50.569844 177.374225 C 49.338438 176.721717 48.60625 175.522663 48.661719 174.251108 C 48.60625 172.973976 49.338438 171.774922 50.569844 171.122413 C 51.80125 170.475482 53.332188 170.475482 54.563594 171.122413 C 55.800547 171.774922 56.527188 172.973976 56.471719 174.251108 Z M 56.471719 174.251108 " transform="matrix(0.704225,0,0,0.700422,2.332746,-17.353987)"/>
<path style="fill:none;stroke-width:2.1;stroke-linecap:butt;stroke-linejoin:miter;stroke:rgb(65.882353%,5.882353%,5.882353%);stroke-opacity:1;stroke-miterlimit:4;" d="M 74.781953 191.651334 C 104.025078 181.813514 111.552188 172.260121 105.76125 158.362248 " transform="matrix(0.704225,0,0,0.700422,2.332746,-17.353987)"/>
<path style="fill-rule:nonzero;fill:rgb(0%,0%,0%);fill-opacity:1;stroke-width:0.519435;stroke-linecap:butt;stroke-linejoin:miter;stroke:rgb(0%,0%,0%);stroke-opacity:1;stroke-miterlimit:4;" d="M 59.239609 136.712351 C 60.626328 136.712351 61.746797 137.833327 61.746797 139.221999 C 61.746797 140.605094 60.620781 141.72607 59.239609 141.72607 C 57.852891 141.72607 56.732422 140.605094 56.732422 139.221999 C 56.732422 137.833327 57.852891 136.712351 59.234063 136.712351 " transform="matrix(0.704225,0,0,0.700422,2.332746,-17.353987)"/>
<path style="fill-rule:nonzero;fill:rgb(0%,0%,0%);fill-opacity:1;stroke-width:0.519435;stroke-linecap:butt;stroke-linejoin:miter;stroke:rgb(0%,0%,0%);stroke-opacity:1;stroke-miterlimit:4;" d="M 83.84 139.891239 C 85.226719 139.891239 86.347188 141.017792 86.347188 142.400887 C 86.341641 143.783982 85.221172 144.904958 83.84 144.904958 C 82.453281 144.904958 81.332813 143.783982 81.332813 142.400887 C 81.332813 141.017792 82.453281 139.891239 83.834453 139.891239 " transform="matrix(0.704225,0,0,0.700422,2.332746,-17.353987)"/>
<path style="fill-rule:evenodd;fill:rgb(96.078431%,69.411765%,68.235294%);fill-opacity:1;stroke-width:2.5135;stroke-linecap:butt;stroke-linejoin:miter;stroke:rgb(66.27451%,5.882353%,5.882353%);stroke-opacity:1;stroke-miterlimit:4;" d="M 136.490938 202.911288 C 136.490938 202.911288 127.421797 229.41317 118.424766 238.73233 C 109.411094 248.051489 138.754063 248.12399 138.754063 248.12399 C 138.754063 248.12399 153.114922 241.660252 157.214063 231.761085 C 161.302109 221.873072 167.292734 213.211998 167.292734 213.211998 Z M 136.490938 202.911288 " transform="matrix(0.704225,0,0,0.700422,2.332746,-17.353987)"/>
<path style=" stroke:none;fill-rule:evenodd;fill:url(#linear4);" d="M 153.519531 148.949219 C 154.976562 155.085938 155.707031 159.097656 155.707031 159.097656 L 162.371094 153.640625 L 170.222656 155.882812 L 170.195312 144.90625 Z M 153.519531 148.949219 "/>
<path style="fill-rule:evenodd;fill:rgb(95.686275%,69.019608%,67.843137%);fill-opacity:1;stroke-width:2.5135;stroke-linecap:butt;stroke-linejoin:miter;stroke:rgb(65.882353%,5.882353%,5.882353%);stroke-opacity:1;stroke-miterlimit:4;" d="M 207.723906 197.41237 C 207.723906 197.41237 216.970547 223.841752 215.661484 236.730188 C 214.352422 249.624202 237.455156 231.532429 237.455156 231.532429 C 237.455156 231.532429 243.994922 217.762827 241.842734 207.261344 C 239.712734 196.904864 238.104141 186.492613 238.104141 186.492613 Z M 207.723906 197.41237 " transform="matrix(0.704225,0,0,0.700422,2.332746,-17.353987)"/>
<path style="fill:none;stroke-width:8;stroke-linecap:butt;stroke-linejoin:miter;stroke:rgb(65.882353%,5.882353%,5.882353%);stroke-opacity:1;stroke-miterlimit:4;" d="M 247.445078 105.949644 C 261.800391 91.031181 264.851172 79.531417 255.970625 74.27231 C 248.371406 69.760521 234.615156 78.611212 245.975156 88.660958 " transform="matrix(0.704225,0,0,0.700422,2.332746,-17.353987)"/>
<path style="fill:none;stroke-width:4.25;stroke-linecap:butt;stroke-linejoin:miter;stroke:rgb(96.078431%,69.411765%,68.235294%);stroke-opacity:1;stroke-miterlimit:4;" d="M 247.361875 106.172724 C 261.711641 91.254261 264.840078 79.615072 255.965078 74.344811 C 248.360313 69.844175 234.604063 78.694867 245.964063 88.744613 " transform="matrix(0.704225,0,0,0.700422,2.332746,-17.353987)"/>
<path style="fill:none;stroke-width:8;stroke-linecap:butt;stroke-linejoin:miter;stroke:rgb(65.882353%,5.882353%,5.882353%);stroke-opacity:1;stroke-miterlimit:4;" d="M 245.703359 88.432301 C 260.890703 102.503061 271.840234 87.662676 276.943359 78.683713 " transform="matrix(0.704225,0,0,0.700422,2.332746,-17.353987)"/>
<path style="fill:none;stroke-width:4.25;stroke-linecap:butt;stroke-linejoin:miter;stroke:rgb(96.078431%,69.019608%,68.627451%);stroke-opacity:1;stroke-miterlimit:4;" d="M 245.520313 88.443455 C 260.702109 102.514215 271.651641 87.67383 276.754766 78.694867 " transform="matrix(0.704225,0,0,0.700422,2.332746,-17.353987)"/>
<path style="fill-rule:evenodd;fill:rgb(0%,0%,0%);fill-opacity:1;stroke-width:1.875;stroke-linecap:butt;stroke-linejoin:miter;stroke:rgb(65.882353%,5.882353%,5.882353%);stroke-opacity:1;stroke-miterlimit:4;" d="M 273.459922 77.824856 L 279.483828 81.282593 " transform="matrix(0.704225,0,0,0.700422,2.332746,-17.353987)"/>
</g>
</svg>
