<?xml version="1.0" encoding="UTF-8"?>
<svg id="Layer_1" data-name="Layer 1" xmlns="http://www.w3.org/2000/svg" xmlns:xlink="http://www.w3.org/1999/xlink" viewBox="0 0 1640.27 1266.71">
  <defs>
    <style>
      .son-daughter-cls-1 {
        fill: url(#linear-gradient);
      }

      .son-daughter-cls-1, .son-daughter-cls-2, .son-daughter-cls-3, .son-daughter-cls-4, .son-daughter-cls-5, .son-daughter-cls-6, .son-daughter-cls-7, .son-daughter-cls-8, .son-daughter-cls-9, .son-daughter-cls-10, .son-daughter-cls-11, .son-daughter-cls-12, .son-daughter-cls-13, .son-daughter-cls-14, .son-daughter-cls-15, .son-daughter-cls-16, .son-daughter-cls-17, .son-daughter-cls-18, .son-daughter-cls-19, .son-daughter-cls-20, .son-daughter-cls-21, .son-daughter-cls-22, .son-daughter-cls-23, .son-daughter-cls-24, .son-daughter-cls-25, .son-daughter-cls-26, .son-daughter-cls-27, .son-daughter-cls-28, .son-daughter-cls-29, .son-daughter-cls-30, .son-daughter-cls-31, .son-daughter-cls-32, .son-daughter-cls-33, .son-daughter-cls-34, .son-daughter-cls-35, .son-daughter-cls-36, .son-daughter-cls-37, .son-daughter-cls-38, .son-daughter-cls-39, .son-daughter-cls-40, .son-daughter-cls-41, .son-daughter-cls-42, .son-daughter-cls-43, .son-daughter-cls-44, .son-daughter-cls-45, .son-daughter-cls-46, .son-daughter-cls-47 {
        stroke-width: 0px;
      }

      .son-daughter-cls-2 {
        fill: #f7e1c2;
      }

      .son-daughter-cls-3 {
        fill: #f8a58d;
      }

      .son-daughter-cls-4 {
        fill: #f7f1e9;
      }

      .son-daughter-cls-5 {
        fill: #f6ecd7;
      }

      .son-daughter-cls-6 {
        fill: #f8d186;
      }

      .son-daughter-cls-7 {
        fill: #f7c644;
      }

      .son-daughter-cls-8 {
        fill: #271815;
      }

      .son-daughter-cls-9 {
        fill: #5b5455;
      }

      .son-daughter-cls-10 {
        fill: #89b173;
      }

      .son-daughter-cls-11 {
        fill: #701722;
      }

      .son-daughter-cls-12 {
        fill: #575753;
      }

      .son-daughter-cls-13 {
        fill: #1a1a1f;
      }

      .son-daughter-cls-14 {
        fill: #35785d;
      }

      .son-daughter-cls-15 {
        fill: #1c191a;
      }

      .son-daughter-cls-16 {
        fill: #1d2e2e;
      }

      .son-daughter-cls-17 {
        fill: #090d0e;
      }

      .son-daughter-cls-18 {
        fill: #411817;
      }

      .son-daughter-cls-19 {
        fill: #428b6e;
      }

      .son-daughter-cls-20 {
        fill: #141311;
      }

      .son-daughter-cls-21 {
        fill: #143a3b;
      }

      .son-daughter-cls-22 {
        fill: #13483c;
      }

      .son-daughter-cls-23 {
        fill: #c94b5c;
      }

      .son-daughter-cls-24 {
        fill: #e19a45;
      }

      .son-daughter-cls-25 {
        fill: #cc615b;
      }

      .son-daughter-cls-26 {
        fill: #c86965;
      }

      .son-daughter-cls-27 {
        fill: #c5c991;
      }

      .son-daughter-cls-28 {
        fill: #e3745e;
      }

      .son-daughter-cls-29 {
        fill: #dd6680;
      }

      .son-daughter-cls-30 {
        fill: #d55056;
      }

      .son-daughter-cls-31 {
        fill: #bbd6c6;
      }

      .son-daughter-cls-32 {
        fill: #c2415a;
      }

      .son-daughter-cls-33 {
        fill: #ab504f;
      }

      .son-daughter-cls-34 {
        fill: #ad3d43;
      }

      .son-daughter-cls-35 {
        fill: #9f3a48;
      }

      .son-daughter-cls-36 {
        fill: #9b2239;
      }

      .son-daughter-cls-37 {
        fill: #fdfcfc;
      }

      .son-daughter-cls-38 {
        fill: #e5776b;
      }

      .son-daughter-cls-39 {
        fill: #e5958b;
      }

      .son-daughter-cls-40 {
        fill: #e58d73;
      }

      .son-daughter-cls-41 {
        fill: #f0d3d3;
      }

      .son-daughter-cls-42 {
        fill: #e79d7d;
      }

      .son-daughter-cls-43 {
        fill: #fcbf66;
      }

      .son-daughter-cls-44 {
        fill: #fbfdfe;
      }

      .son-daughter-cls-45 {
        fill: #fbe6ad;
      }

      .son-daughter-cls-46 {
        fill: #f1b2a4;
      }

      .son-daughter-cls-47 {
        fill: #e8a9a0;
      }
    </style>
    <linearGradient id="linear-gradient" x1="717.93" y1="227.73" x2="515.23" y2="543.01" gradientUnits="userSpaceOnUse">
      <stop offset="0" stop-color="#3f323b"/>
      <stop offset="1" stop-color="#121013"/>
    </linearGradient>
  </defs>
  <g>
    <g>
      <g>
        <g>
          <path class="son-daughter-cls-33" d="m1165.33,1045.29c7.12-2.56,12.55-7.83,18.72-11.82,24.88-16.1,49.11-33.05,73.9-49.27,2.23-1.46,4.74-2.57,6.9-3.94,4.17-2.66,8.33-5.25,12.81-7.39l-24.63-61.09,31.53-34.98c17.52,38.23,39.32,74.74,50.25,115.78-39.71,26.71-84.32,48.28-132.53,52.72-12.3,1.13-24.73-.2-36.95,0Z"/>
          <path class="son-daughter-cls-35" d="m1284.56,876.79l-31.53,34.98,24.63,61.09c-4.48,2.14-8.64,4.73-12.81,7.39.29-1.46,2.04-1.66,1.97-3.45-.18-4.53-28.99-71.32-27.59-86.22,5.44-5.43,12.32-10.41,16.75-16.75,6.87-4.78,13.25-10.44,19.71-15.77,5.17,4.98,6.07,12.63,8.87,18.72Z"/>
        </g>
        <g>
          <path class="son-daughter-cls-33" d="m1005.71,978.29c1.82,2.48,8.95,7.11,11.82,9.85,19.69,18.76,40.14,36.72,60.11,55.18-43.83-6.02-97.31-25.56-136.96-45.82,8.01-43.16,25.84-83.01,41.38-123.66.73-1.9,1.26-3.96,1.97-5.91l37.44,34.98c-4.5,8.94-28.38,65.46-25.13,70.45.68,1.04,7.88,3.66,9.36,4.93Z"/>
          <path class="son-daughter-cls-35" d="m1019.5,874.82c4.35,4.08,7.77,9.39,12.81,12.81-6.51,30.04-16.88,59.3-29.56,87.2,1.25.97,2.03,2.19,2.96,3.45-1.48-1.26-8.68-3.89-9.36-4.93-3.25-4.99,20.62-61.51,25.13-70.45l-37.44-34.98c1.97-5.41,4.71-10.45,6.9-15.77,9.84,6.94,19.8,14.43,28.58,22.66Z"/>
        </g>
      </g>
      <g>
        <path class="son-daughter-cls-6" d="m1088.48,739.83c14.04,18.81,30.03,36.01,44.83,54.19,17.88-18.07,34.08-37.26,49.76-57.15,2.96-3.75,5.37-8.61,8.87-11.82,34.45,34.81,64.35,74.02,86.71,117.75,1.84,3.61,4.53,7.79,2.96,11.33-.74.63-1.4,1.51-1.97,1.97-.17.14-1.33-.18-3.94,1.97-6.46,5.32-12.83,10.99-19.71,15.77,1.17-1.68.96-4.18,3.94-4.43-17.13-41.26-32.93-83.55-54.69-122.68,8.24,48.08,23.88,95.71,33.99,143.86-1.4,14.9,27.41,81.69,27.59,86.22.07,1.79-1.68,1.99-1.97,3.45-2.15,1.37-4.67,2.48-6.9,3.94-30.55-24.42-48.74-45.1-61.58-82.77,1.94,44.32,5.75,90.23-12.32,132.04-6.18,4-11.6,9.26-18.72,11.82-28.4.47-56.83-.35-85.23,0-.8-.64-1.34-1.82-2.46-1.97-19.97-18.46-40.42-36.42-60.11-55.18,57.73-42.31,105.05-97.4,94.59-174.9-17.35-18.23-30.27-40.78-47.3-58.63,2.02-9.02,7.94-27.23,3.94-26.6,1.22-.84,5.15-6.3,8.38-5.91,1.02.28,7.31,12.34,11.33,17.74Z"/>
        <path class="son-daughter-cls-45" d="m1017.53,988.14c-2.88-2.74-10.01-7.37-11.82-9.85-.92-1.26-1.71-2.48-2.96-3.45,12.68-27.9,23.05-57.16,29.56-87.2,10.09-44.53,22.53-88.46,32.52-133.02,17.02,17.85,29.95,40.4,47.3,58.63,10.45,77.5-36.87,132.59-94.59,174.9Z"/>
        <path class="son-daughter-cls-6" d="m1257.96,984.2c-24.79,16.22-49.02,33.17-73.9,49.27,18.06-41.81,14.25-87.71,12.32-132.04,12.85,37.67,31.03,58.35,61.58,82.77Z"/>
        <path class="son-daughter-cls-43" d="m1255.99,873.84c-4.43,6.34-11.31,11.32-16.75,16.75-10.12-48.15-25.75-95.78-33.99-143.86,21.76,39.13,37.56,81.42,54.69,122.68-2.99.25-2.77,2.76-3.94,4.43Z"/>
        <path class="son-daughter-cls-6" d="m1068.77,728.01c4-.63-1.92,17.59-3.94,26.6-9.99,44.56-22.43,88.49-32.52,133.02-5.04-3.42-8.46-8.73-12.81-12.81,12.5-42.23,24.22-84.78,39.41-126.12,2.04-5.56,6.83-10.87,4.93-16.75,1.98-1.59,2.48-2.25,4.93-3.94Z"/>
        <path class="son-daughter-cls-5" d="m1281.61,854.13c1.57-3.55-1.11-7.72-2.96-11.33-22.36-43.73-52.26-82.94-86.71-117.75.7-.64,1.57-3.25,3.45-2.96,47.25,40.43,64.09,71.93,92.13,125.63.46,3.65-3.56,4.4-5.91,6.4Z"/>
        <path class="son-daughter-cls-45" d="m1019.5,874.82c-8.78-8.23-18.74-15.72-28.58-22.66-3.85-2.72-10.64-5.4-10.84-6.4,5.96-9.83,12.76-19.26,18.72-29.07.96-.03,1.33,1.46,2.46.99,4.81-2.02,47.36-60.95,57.64-68.97-15.2,41.35-26.91,83.9-39.41,126.12Z"/>
        <path class="son-daughter-cls-5" d="m1058.92,748.7c-10.28,8.03-52.83,66.96-57.64,68.97-1.13.48-1.5-1.02-2.46-.99,18.36-30.21,37.16-62.29,65.03-84.74,1.9,5.88-2.88,11.19-4.93,16.75Z"/>
      </g>
    </g>
    <g>
      <path class="son-daughter-cls-17" d="m1358.46,579.22c-2.86,7.54-4.7,15.65-7.88,23.16-4.91,11.58-15.47,26.92-14.78,33.01-4.88-.32-14.39,3.61-13.79,9.36,5.24,34.06,9.11,20.07,11.82,23.65.65.85-14.48,10.69,7.88,8.38v4.93c-3.17-.55-4.2.89-4.93.99-1.71.23-4.65-.57-5.91.49-2.8,2.37-16.83,61.49-23.65,69.47l-.99,2.46c10.62,12.74,20.34,28.56,34.49,37.94,22.72,15.06,50.34,9.38,67.99-10.84-4.73,20.24-13.43,27.73-30.55,38.92,9.2,46.14-53.17,59.6-88.19,52.72l-10.35-17.74c.57-.46,1.23-1.34,1.97-1.97,2.35-2.01,6.38-2.76,5.91-6.4-28.04-53.7-44.88-85.21-92.13-125.63-1.88-.3-2.75,2.31-3.45,2.96-3.5,3.21-5.91,8.07-8.87,11.82-3.73-12.58-4.14-27.74-5.91-41.38,20.28-6.6,38.27-15.75,55.18-28.58,17.19-13.03,33-30.03,41.38-50.25,6.42,2.35,19.14,5.86,25.13,3.94,1.61-.52,21.32-20.67,24.14-23.65,14.34-9.94,25.42-27.74,23.65-45.33,1.26.18,1.22-2.13.99-3.94,9.74,6.46,1.25,21.44,10.84,31.53Z"/>
      <path class="son-daughter-cls-17" d="m963.34,616.66c11.76,6.65,20.11,2.83,32.52,0,.86,2.29.94,1.87.99,1.97,6.05,14.99,14.91,31.95,28.58,41.38,14.44,15.15,52.05,35.1,71.93,40.4l-8.87,39.41c-4.02-5.39-10.31-17.46-11.33-17.74-3.23-.38-7.16,5.07-8.38,5.91-2.45,1.69-2.95,2.35-4.93,3.94-27.87,22.45-46.67,54.53-65.03,84.74-5.96,9.81-12.77,19.24-18.72,29.07.19,1,6.99,3.69,10.84,6.4-2.19,5.31-4.93,10.36-6.9,15.77-.71,1.95-1.24,4.01-1.97,5.91-17.93,2.32-42.75,1.34-59.61-4.93-17.15-6.37-41.8-28.61-28.08-47.79-18.63-11.31-28.66-22.98-31.53-44.83,6.33,10.34,66.06,15.97,69.47,14.78.76-.26.5-1.29.49-1.97,20.87,12.97,34.84-21.08,46.31-33.99l-.99-2.46c-7.38-8.37-23.17-65.77-25.62-68.48-1.97-2.18-6.22-1.7-8.87-1.48-1.47.13-1.74.31-2.96.99l.99-4.93c17.35.85,8.01-1.94,7.88-12.81,17.6-.25,2.9-8.74,2.96-12.32.07-4.09,20.34-15.26-14.78-16.26,1.45-.81,4.75-2.63,5.91-2.96,1.62-.45,3.15,2.16,4.93.49-1.91-13.07-.62-26.48-5.91-38.92.07.05.34-1.88,1.48-.99,7.32,5.76,13.51,10.73,15.27,20.2,2.81,3.82,3.42,1.19,3.94,1.48Z"/>
      <path class="son-daughter-cls-17" d="m1253.03,285.58c29.16,12.14,54.17,25.33,74.39,50.25.15.18,1.76-.1,2.96,0-3.54,2.6,2.51,6.61,2.46,7.39-.04.68-6.95,4.97-6.9,11.33-4.64-6.22-10.53-12.95-15.77-18.72-24.6-27.12-44.19-37.09-81.78-41.38-7.66-3.21-15.87-5.06-23.65-7.88-.4-.14-4.01-5.29-6.9-.99-12.34-19.64-44.17-40.31-55.67-7.88-58.28,1.03-120.76,9.98-162.09,55.18-34.78,38.03-49.01,92.59-41.38,142.88,1.2,7.91,9.03,42.21,13.79,46.31,4.1,3.53,25.43,3.52,33.01,2.96,49.9-3.7,83.56-47.5,123.17-72.92,34.11-21.88,85.14-41.44,115.78-64.05,2.2-1.62,21.78-16.69,19.71-19.21-32.33-.38-36.76-47.28-40.89-48.77-7.49.56-17.03,4.42-20.2,1.97,7.08-1.49,14.43-2.65,21.68-2.96.08.28,1.96,1.88,2.96,4.93,7.81,23.96,17.66,52.93,48.28,38.43-.63,1.28-3.96,6.97-3.94,7.39.19,3.96,27.46,35.13,41.38,67.5,12.99,30.19,21.66,66.86,18.23,99.52,10.63-23.35,20.13-47.93,20.2-73.9.1-34.52-15.31-67.69-34.49-95.58,9.72,3.59,19.71,18.56,25.62,28.08,49.43,79.69,13.05,129.79,13.79,136.96.24,2.32,5.46,2.6,2.96,5.42-8.98-7.93-21.27-6.29-29.56,1.97-1.48,1.48-22.7,32.62-23.65,34.49,1.09-2.83,1.99-7.41,2.96-9.85,11.87-30.1,13.73-46.63,6.9-79.32-7.49-35.86-29.2-63.64-50.75-92.13-8.05,4.91-18.55,13.36-26.11,17.74-11.47,6.65-23.78,12.42-35.47,18.72-21.68,11.69-44.48,21.56-65.53,34.49-32.42,19.91-63.01,50.17-98.54,63.06-12.72,4.62-24.98,6.03-31.04,7.88-1.08.33-5.45.62-5.91,1.48-.84,6.44.7,12.89.99,19.21.26,5.95.24,11.8.99,17.74-12.97-16.92-9.97-22.54-28.58-35.47-3.52-2.45-9.24-7.92-10.35-7.88-6.64,4.71-15.1,11.5-17.24,19.71-8.12,31.14,25.81,50.9,28.58,54.69.4.55.69,6.93,5.91,12.32-.52-.29-1.13,2.34-3.94-1.48-1.76-9.47-7.95-14.44-15.27-20.2-1.14-.89-1.41,1.04-1.48.99-.85-.63-2.63-.98-2.96-1.48,1.07-4.47-11.79-20.27-17.74-25.62-2.42-12.78,2.12-21.35,1.97-25.62-15.28-48.19-15.68-74.64-11.82-124.65,3.37-9.99,8.78-20.02,10.84-26.6,1.42-4.54,2.59-9.21,3.94-13.79,5.7-3.28,9.96-17.54,13.79-24.14,16.79-28.92,19.41-15.25,5.91-33.99,21.03,5.81,27.48-8.49,42.86-17.74,10.77-6.47,22.67-13.34,33.99-18.72,20.53-9.76,43.21-18.12,65.53-22.66,9.73-1.98,58.22-8.58,66.02-8.87,28.4-1.03,76.11,14.75,95.58,36.46,1.23-.89,1.25-2,2.46-2.96Z"/>
      <path class="son-daughter-cls-15" d="m1310.18,335.84c5.24,5.77,11.13,12.5,15.77,18.72,9.28,12.43,18.41,25.69,25.62,39.41,4.96,9.44,8.89,19.64,12.81,29.56l-4.93-5.42c3.76,28.75,7.62,59.05.99,87.7-2.8,12.1-14.17,31.24-12.81,41.88.23,1.81.27,4.12-.99,3.94-.06-.64.11-1.35,0-1.97-.65-3.6-4.04-9.3-6.9-11.82,2.51-2.82-2.72-3.1-2.96-5.42-.74-7.17,35.64-57.27-13.79-136.96-5.9-9.52-15.9-24.49-25.62-28.08-2.86-5-28.33-31.79-28.58-33.99-.03-.31,1.72-1.14,1.97-2.46.15-.77,6.25-5.17-2.46-13.79-9.25-9.16-48.47-14.79-24.63-12.81,24.22,2.02,49.23,14.79,66.51,31.53Z"/>
      <path class="son-daughter-cls-16" d="m1351.57,393.97c-7.21-13.72-16.34-26.98-25.62-39.41-.05-6.37,6.86-10.65,6.9-11.33.05-.78-6-4.79-2.46-7.39-1.2-.1-2.81.18-2.96,0-20.22-24.92-45.24-38.12-74.39-50.25,20.24-15.92,31.34-17.2,52.72.99,33.29-9.89,53.32,27.77,24.14,47.79,36.6-1.53,62.27,51.78,21.68,59.61Z"/>
      <g>
        <path class="son-daughter-cls-16" d="m943.63,634.4c-1.17.32-4.46,2.15-5.91,2.96-.73.41-2.28,2.81-6.9,4.43,1.74,7.43,4.17,14.75,5.91,22.17,1.2,5.1,3.01,9.92,4.93,14.78l-.99,4.93-37.44,68.97c1.82,5.98,27.56,35.21,29.56,36.46,0,.68.26,1.71-.49,1.97-3.4,1.19-63.14-4.44-69.47-14.78-7.41-56.33,35.69-145.8,41.38-208.89,6.9-6.08,14.09,21.27,19.71,32.02,6.17,11.8,14.37,22.68,19.71,34.98Z"/>
        <path class="son-daughter-cls-16" d="m942.64,595.97c5.3,12.44,4,25.85,5.91,38.92-1.78,1.66-3.31-.94-4.93-.49-5.33-12.3-13.54-23.18-19.71-34.98-5.62-10.75-12.81-38.1-19.71-32.02,5.68-62.98-16.04-69.44-1.97-122.68,2.32-8.76,6.98-17.57,9.85-26.11-3.86,50.01-3.46,76.46,11.82,124.65.15,4.26-4.4,12.84-1.97,25.62,5.94,5.35,18.8,21.15,17.74,25.62.33.5,2.1.85,2.96,1.48Z"/>
      </g>
      <g>
        <path class="son-daughter-cls-16" d="m1374.23,550.64c3.31,67.03,48.86,170.01,34.49,231.56-17.65,20.22-45.27,25.9-67.99,10.84,9.77,2.56,39.54-35.36,40.4-40.4,1.88-.2.6-1.52,0-3.45-1.16-3.73-35.82-55.09-39.41-67.5v-4.93l9.85-35.97c-.27-.79-14.93-5.37-15.77-5.42-.69-6.08,9.87-21.42,14.78-33.01,3.18-7.5,5.02-15.62,7.88-23.16,1.04-2.75,11.46-33.39,13.3-32.52,1.27.6-.87,4.57,2.46,3.94Z"/>
        <path class="son-daughter-cls-16" d="m1364.38,423.53c26.2,66.25,6.92,67.64,9.85,127.11-3.34.63-1.19-3.34-2.46-3.94-1.85-.88-12.26,29.77-13.3,32.52-9.58-10.09-1.1-25.07-10.84-31.53-1.36-10.64,10.01-29.78,12.81-41.88,6.63-28.64,2.77-58.95-.99-87.7l4.93,5.42Z"/>
      </g>
      <g>
        <path class="son-daughter-cls-16" d="m1023.44,283.61c-11.32,5.38-23.23,12.25-33.99,18.72-15.38,9.24-21.83,23.55-42.86,17.74-.21-.06-2.86-1.8-3.94-1.97-.03-1.55-9.13-13.6,9.36-25.62,15.06-9.8,58.42-29.18,71.44-8.87Z"/>
        <g>
          <path class="son-daughter-cls-16" d="m926.88,378.21c-1.35,4.59-2.52,9.26-3.94,13.79-19.18,5.72-32.11-.91-27.59-22.17,2.44-11.48,12.86-16.33,9.85-25.62,8.9-13.6,22.5-17.94,37.44-22.17-.52,5.88-9.42,23.2-11.82,32.02-2.27,8.33-3.3,21.95-3.94,24.14Z"/>
          <path class="son-daughter-cls-17" d="m946.59,320.07c13.5,18.74,10.88,5.07-5.91,33.99-3.83,6.6-8.1,20.86-13.79,24.14.64-2.19,1.67-15.81,3.94-24.14,2.4-8.82,11.3-26.15,11.82-32.02,2.2-.38.05-1.67,0-3.94,1.08.17,3.73,1.91,3.94,1.97Z"/>
        </g>
      </g>
      <path class="son-daughter-cls-35" d="m1177.16,695.49c1.77,13.64,2.18,28.81,5.91,41.38-15.68,19.89-31.89,39.08-49.76,57.15-14.8-18.18-30.8-35.38-44.83-54.19l8.87-39.41c12.26,3.27,27.8,4.68,40.4,3.94,13.27-.77,26.79-4.76,39.41-8.87Z"/>
      <g>
        <path class="son-daughter-cls-35" d="m1354.52,752.64h26.6c-.86,5.04-30.63,42.96-40.4,40.4-14.14-9.37-23.86-25.2-34.49-37.94l.99-2.46h47.3Z"/>
        <path class="son-daughter-cls-38" d="m1336.79,682.68l17.74,69.96h-47.3c6.82-7.98,20.84-67.1,23.65-69.47,1.26-1.07,4.2-.26,5.91-.49Z"/>
        <path class="son-daughter-cls-3" d="m1341.71,681.69c3.59,12.41,38.25,63.77,39.41,67.5.6,1.93,1.88,3.25,0,3.45h-26.6l-17.74-69.96c.73-.1,1.76-1.53,4.93-.99Z"/>
        <path class="son-daughter-cls-26" d="m1335.8,635.38c.83.05,15.5,4.63,15.77,5.42l-9.85,35.97c-22.36,2.31-7.24-7.52-7.88-8.38-2.72-3.58-6.59,10.41-11.82-23.65-.6-5.75,8.91-9.68,13.79-9.36Z"/>
      </g>
      <g>
        <path class="son-daughter-cls-35" d="m933.78,752.64h44.34l.99,2.46c-11.47,12.91-25.45,46.97-46.31,33.99-2-1.24-27.74-30.47-29.56-36.46h30.55Z"/>
        <path class="son-daughter-cls-38" d="m978.12,752.64h-44.34l9.85-69.96c2.65-.23,6.9-.7,8.87,1.48,2.45,2.72,18.24,60.11,25.62,68.48Z"/>
        <path class="son-daughter-cls-3" d="m943.63,682.68l-9.85,69.96h-30.55l37.44-68.97c1.21-.67,1.49-.86,2.96-.99Z"/>
        <g>
          <path class="son-daughter-cls-30" d="m949.54,665.93c-3.46.05-9.13-1.56-12.81-1.97-1.74-7.42-4.17-14.74-5.91-22.17,4.62-1.63,6.17-4.03,6.9-4.43,35.12,1,14.85,12.17,14.78,16.26-.06,3.58,14.64,12.07-2.96,12.32Z"/>
          <path class="son-daughter-cls-33" d="m949.54,665.93c.13,10.87,9.47,13.65-7.88,12.81-1.92-4.86-3.73-9.68-4.93-14.78,3.68.41,9.35,2.02,12.81,1.97Z"/>
        </g>
      </g>
      <path class="son-daughter-cls-17" d="m1224.46,388.06l-51.24-56.17c-.14-1.92-.39-4.53-1.97-5.91.62-.1,8.1-3.16,11.82-3.94,3.17,2.45,12.71-1.41,20.2-1.97,4.13,1.49,8.57,48.4,40.89,48.77,2.07,2.52-17.51,17.59-19.71,19.21Z"/>
      <g>
        <path class="son-daughter-cls-24" d="m1204.75,319.09c-7.25.31-14.6,1.46-21.68,2.96-3.72.78-11.21,3.84-11.82,3.94-22.66,3.62-50.73,6.18-38.43-26.6,21.62,10.61,47.07,13.72,70.45,6.9,2.91.99,1.14,11.64,1.48,12.81Z"/>
        <path class="son-daughter-cls-24" d="m1255.99,362.44c-30.63,14.5-40.47-14.47-48.28-38.43,15.1,13.93,31.9,26.24,51.73,32.52,1.58,1.87-2.29,3.55-3.45,5.91Z"/>
        <g>
          <path class="son-daughter-cls-24" d="m1329.89,461.96c.09.07-.31,1.35,1.97.99-.07,25.97-9.57,50.55-20.2,73.9,3.43-32.67-5.24-69.33-18.23-99.52,12.1,8.22,24.71,15.92,36.46,24.63Z"/>
          <path class="son-daughter-cls-2" d="m1270.77,330.91c-.25,1.32-2,2.16-1.97,2.46.24,2.21,25.71,28.99,28.58,33.99,19.18,27.89,34.58,61.06,34.49,95.58-2.28.36-1.88-.92-1.97-.99-6.38-78.63-63.74-117.58-65.03-124.65-.44-2.42,3.4-6.29,5.91-6.4Z"/>
        </g>
        <g>
          <path class="son-daughter-cls-6" d="m1197.85,285.58c1.68,2.67,10.42,26.67,8.87,7.88,6.92,2.71,14.78.2,21.68.99,37.59,4.29,57.18,14.26,81.78,41.38-17.28-16.74-42.29-29.51-66.51-31.53-23.83-1.98,15.39,3.65,24.63,12.81,8.71,8.63,2.61,13.03,2.46,13.79-2.51.12-6.36,3.99-5.91,6.4,1.3,7.07,58.65,46.02,65.03,124.65-11.75-8.71-24.36-16.42-36.46-24.63-13.92-32.37-41.19-63.54-41.38-67.5-.02-.42,3.31-6.11,3.94-7.39,1.16-2.36,5.03-4.04,3.45-5.91-19.84-6.28-36.63-18.59-51.73-32.52-.99-3.05-2.88-4.65-2.96-4.93-.34-1.17,1.43-11.82-1.48-12.81-23.39,6.82-48.83,3.71-70.45-6.9-21.9,2.1-42.77,7.63-63.06,15.77-81.82,32.82-148.94,115.41-117.26,206.92-4.77-4.1-12.6-38.4-13.79-46.31.05-55.36,8.63-97.67,41.38-142.88,41.33-45.2,103.81-54.15,162.09-55.18,11.5-32.43,43.34-11.76,55.67,7.88Z"/>
          <path class="son-daughter-cls-45" d="m938.7,475.76c-7.62-50.29,6.61-104.85,41.38-142.88-32.75,45.2-41.33,87.52-41.38,142.88Z"/>
        </g>
        <path class="son-daughter-cls-45" d="m1228.4,294.45c-6.9-.79-14.76,1.73-21.68-.99-.03-.36-3.63-5.69-1.97-6.9,7.78,2.82,15.99,4.67,23.65,7.88Z"/>
        <path class="son-daughter-cls-21" d="m1204.75,286.57c-1.66,1.21,1.94,6.54,1.97,6.9,1.55,18.78-7.19-5.21-8.87-7.88,2.89-4.3,6.5.84,6.9.99Z"/>
      </g>
      <g>
        <path class="son-daughter-cls-16" d="m1069.76,315.14c-16.66,10.89-33.63,29.93-40.4,48.77-37.54,104.59,150.26,57.39,143.86-32.02l51.24,56.17c-30.64,22.61-81.67,42.16-115.78,64.05-39.61,25.41-73.27,69.22-123.17,72.92-7.58.56-28.91.57-33.01-2.96-31.68-91.52,35.43-174.11,117.26-206.92Z"/>
        <path class="son-daughter-cls-21" d="m1132.82,299.38c-12.3,32.78,15.76,30.22,38.43,26.6,1.58,1.38,1.83,3.99,1.97,5.91,6.4,89.42-181.4,136.61-143.86,32.02,6.77-18.85,23.74-37.88,40.4-48.77,20.29-8.14,41.16-13.66,63.06-15.77Z"/>
      </g>
      <g>
        <g>
          <path class="son-daughter-cls-26" d="m938.7,550.64c-8.13,26.23,25.69,54.8,51.24,49.27,1.39,5.48,3.91,11.41,5.91,16.75-12.41,2.83-20.75,6.65-32.52,0-5.22-5.39-5.51-11.77-5.91-12.32-2.77-3.79-36.69-23.54-28.58-54.69,5.12-4.06,2.77-2.12,9.85.99Z"/>
          <path class="son-daughter-cls-35" d="m985.02,573.31c.56,4.48,3.85,22.34,4.93,26.6-25.55,5.54-59.37-23.03-51.24-49.27,2.86-9.22,10.9-8.52,17.74-12.81,18.61,12.94,15.61,18.55,28.58,35.47Z"/>
          <path class="son-daughter-cls-39" d="m956.44,537.83c-6.84,4.28-14.88,3.59-17.74,12.81-7.09-3.11-4.74-5.05-9.85-.99,2.14-8.21,10.6-15,17.24-19.71,1.1-.04,6.82,5.43,10.35,7.88Z"/>
        </g>
        <g>
          <path class="son-daughter-cls-26" d="m1322.99,596.95c-2.82,2.98-22.53,23.13-24.14,23.65-5.98,1.92-18.71-1.59-25.13-3.94,2.36-5.69,3.5-13.38,5.91-19.71,17.16,5.73,31.63.55,44.34-11.82,1.13,6.24,14.52-4.54-.99,11.82Z"/>
          <path class="son-daughter-cls-26" d="m1346.64,549.66c.11.62-.06,1.33,0,1.97,1.77,17.59-9.3,35.38-23.65,45.33,15.51-16.36,2.11-5.58.99-11.82,12.03-11.71,22.03-32.47,4.93-44.34,9.1,2.4,9.91,6.67,17.74,8.87Z"/>
          <path class="son-daughter-cls-35" d="m1328.9,540.79c17.11,11.87,7.1,32.63-4.93,44.34-12.71,12.38-27.19,17.56-44.34,11.82.95-2.48,2.56-14.11,6.9-22.66.94-1.87,22.17-33.01,23.65-34.49,8.02-.45,10.58-1.16,18.72.99Z"/>
          <path class="son-daughter-cls-3" d="m1339.74,537.83c2.86,2.53,6.25,8.22,6.9,11.82-7.82-2.2-8.64-6.47-17.74-8.87-8.14-2.14-10.7-1.44-18.72-.99,8.29-8.26,20.58-9.9,29.56-1.97Z"/>
        </g>
        <g>
          <path class="son-daughter-cls-26" d="m1268.8,613.71c-10.32,25.19-18,33.19-36.46,53.21-16.91,12.82-34.9,21.98-55.18,28.58-12.63,4.11-26.15,8.09-39.41,8.87,1.37-15.74,3.03-31.78-.99-47.3,5.41-1.22,4.67-1.89,4.93-1.97,9.15-2.98,17.67-7.24,25.62-12.81,2.09-1.47,6.17-4.42,7.88-5.91-.61,5.79,21.92-1.35,32.02,0,10.59-5.95,23.5-6.67,34.49-10.84,1.4-.53,14.7-10.28,27.1-11.82Z"/>
          <path class="son-daughter-cls-39" d="m1289.49,564.44c-.96,2.45-1.87,7.03-2.96,9.85-4.33,8.55-5.95,20.18-6.9,22.66-2.42,6.33-3.55,14.01-5.91,19.71-8.39,20.23-24.2,37.22-41.38,50.25,18.46-20.01,26.14-28.02,36.46-53.21,3.15-7.68,18.22-52.78,18.72-55.67.43-2.46-.55-4.17-.99-6.4,5.44-2.43,1,8.62,2.96,12.81Z"/>
          <path class="son-daughter-cls-38" d="m1075.67,633.41c4.08,4.45,6.57,4.65,6.9,4.93,16.83,14.16,31.29,23.87,54.19,18.72,4.02,15.51,2.35,31.56.99,47.3-12.6.74-28.14-.67-40.4-3.94-19.88-5.3-57.49-25.25-71.93-40.4-7.35-7.71-12.7-17.47-17.74-26.6,4.32-8.41,11.88,11.17,45.82,9.85,11.01-5.93,22.74-1.91,22.17-9.85Z"/>
          <path class="son-daughter-cls-47" d="m1007.68,633.41c5.04,9.14,10.39,18.89,17.74,26.6-13.67-9.43-22.52-26.4-28.58-41.38l3.45,4.93c.56-6.42,2.45.89,7.39,9.85Z"/>
          <path class="son-daughter-cls-26" d="m1289.49,564.44c-1.95-4.19,2.48-15.24-2.96-12.81-4.19,3.59-8.8,4.38-13.79,5.91l-14.78-1.48c19.31-19.17,10.13-6.95-.49-5.42-18.62,2.69-22.51-27.03-52.22-23.65-16.83,1.91-29.49,22.46-28.08,38.43-19.08-5.5,15.88-33.06-9.85-51.73,2.17-23.2,36.91-35.59,56.66-33.99,6.96.56,17.42,11.36,23.16-10.84,9.49,2.58,29.27,16.76,11.82-4.43-8.36-10.15-21.59-16.42-34.49-18.23-4.1-8.15,2.5-15.86-4.93-35.47,7.56-4.38,18.07-12.83,26.11-17.74,21.54,28.49,43.26,56.27,50.75,92.13,6.83,32.69,4.97,49.22-6.9,79.32Z"/>
          <path class="son-daughter-cls-35" d="m1068.77,519.11l-13.79,8.87c-26.26-5.65-36.03,22.04-48.28,22.66l-2.46.99-15.27-16.75c6.05-1.86,18.32-3.27,31.04-7.88,35.52-12.89,66.11-43.15,98.54-63.06,21.05-12.92,43.85-22.79,65.53-34.49l-115.29,89.67Z"/>
          <path class="son-daughter-cls-33" d="m988.96,534.88l15.27,16.75,2.46-.99c2.5,2.6-7.25,6.24-8.87,10.84-5.06.25.07,5.4-13.79-5.91-.28-6.33-1.83-12.78-.99-19.21.46-.86,4.83-1.15,5.91-1.48Z"/>
          <path class="son-daughter-cls-38" d="m1268.8,613.71c-12.4,1.55-25.7,11.29-27.1,11.82-10.99,4.17-23.9,4.89-34.49,10.84-10.1-1.35-32.63,5.79-32.02,0,9.32-8.17.4-2.58-11.82-.99-10.23-2.14-24.02,3.03-9.85-11.33,13.11-13.29,25.41-9.75,27.1-10.35,6.7-2.38,23.65-23.54,25.13-32.02,2.82-.44,5.07-.67,7.88-1.48,5.27-1.52,11.97-.9,16.75-3.94-.1,8.73,14.67-10.62,16.75-11.82,2.19-1.27,16.48-4.1,25.62-6.9,4.99-1.53,9.61-2.32,13.79-5.91.44,2.24,1.41,3.95.99,6.4-.51,2.89-15.57,47.99-18.72,55.67Z"/>
          <path class="son-daughter-cls-32" d="m1092.42,638.34c17.56,9.58,33.97,16.67,53.21,6.9,2.27,4.07-.82,7.82-3.94,9.85-.25.08.48.75-4.93,1.97-22.91,5.15-37.37-4.56-54.19-18.72,3.28.59,6.61.03,9.85,0Z"/>
          <path class="son-daughter-cls-11" d="m1175.19,636.37c-1.71,1.5-5.79,4.45-7.88,5.91,3.24-5.66-6.72-.11-17.74.99.21-.16.96-2.52,3.94-3.45-2.09-1.44-3.86.28-5.91.49l3.94-3.94c3.94-.3,7.9-.47,11.82-.99,12.22-1.59,21.14-7.18,11.82.99Z"/>
          <path class="son-daughter-cls-35" d="m1167.31,642.28c-7.95,5.57-16.47,9.83-25.62,12.81,3.13-2.03,6.21-5.78,3.94-9.85.8-.41,3.77-1.84,3.94-1.97,11.01-1.09,20.98-6.65,17.74-.99Z"/>
          <path class="son-daughter-cls-11" d="m1224.46,446.2c12.9,1.81,26.13,8.08,34.49,18.23,17.45,21.2-2.34,7.01-11.82,4.43-11.88-3.23-24.68-4.82-36.95-3.94-25.06,1.78-44.85,20.25-35.97-3.45,4.48-11.95,30.2-18.08,50.25-15.27Z"/>
          <path class="son-daughter-cls-26" d="m1084.54,564.44c-.52-3.88-3.31-10.62-5.91-13.79-1.23-9.85-14.22-20.63-23.65-22.66l13.79-8.87c4.26,9.62,13.41,21.52,16.75,31.04,2.06,5.88,4.99,14.8-.99,14.29Z"/>
          <path class="son-daughter-cls-35" d="m1151.54,636.37l-3.94,3.94c-24.94,2.61-24.04,1.7-47.3-.99,2.7-3.76-3.04.04-2.96-3.94,18.62,2.75,35.39,2.41,54.19.99Z"/>
          <g>
            <path class="son-daughter-cls-39" d="m1219.53,410.72c7.42,19.62.83,27.32,4.93,35.47-20.05-2.81-45.77,3.32-50.25,15.27-8.89,23.69,10.91,5.23,35.97,3.45,12.27-.87,25.07.71,36.95,3.94-5.74,22.2-16.19,11.4-23.16,10.84-19.74-1.6-54.49,10.8-56.66,33.99,25.74,18.67-9.22,46.23,9.85,51.73.17,1.98-.33,1.98.99,3.94.43.65,8.22,5.15,9.85,5.91,3.21,1.5,4.2,2,7.88,2.96.31.08.67-.07.99,0,5.52,1.24,11.04,2.35,16.75,1.97-2.81.81-5.07,1.04-7.88,1.48-1.48,8.48-18.43,29.64-25.13,32.02-1.69.6-13.99-2.94-27.1,10.35-14.17,14.36-.38,9.19,9.85,11.33-3.93.51-7.88.69-11.82.99-18.8,1.42-35.58,1.76-54.19-.99-9.2-1.36-17.34-3.2-25.62-6.4,1.62,1.19,2.63,3.01,3.94,4.43.57,7.95-11.17,3.93-22.17,9.85-33.94,1.31-41.5-18.27-45.82-9.85-4.94-8.97-6.83-16.28-7.39-9.85l-3.45-4.93c-.04-.1-.12.32-.99-1.97-2.01-5.34-4.52-11.27-5.91-16.75-1.08-4.26-4.36-22.12-4.93-26.6-.75-5.93-.72-11.79-.99-17.74,13.86,11.31,8.73,6.16,13.79,5.91,7.41-.36,15.53-1.85,22.66,1.97.58,5.38,5.91,11.55,10.84,13.79,8.32,3.78,29.43,4.44,37.44,0,1.35,2.2,17.48-.09,15.77-12.81,5.98.52,3.05-8.41.99-14.29-3.34-9.52-12.49-21.42-16.75-31.04l115.29-89.67c11.69-6.3,24-12.07,35.47-18.72Z"/>
            <path class="son-daughter-cls-33" d="m1138.73,591.04c1.74-1.17,4.17-1.49,4.93-3.94,1.66.4,3.13-2.13,4.93-.49-3.93,22.86-36.9,25.04-41.88,1.48,11.9,8.59,19.19,11.59,32.02,2.96Z"/>
            <path class="son-daughter-cls-3" d="m1143.66,587.1c-.76,2.45-3.18,2.77-4.93,3.94-37.6,6.89-31.48-12.77,4.93-3.94Z"/>
            <path class="son-daughter-cls-11" d="m1097.35,635.38c-.09,3.98,5.65.18,2.96,3.94-3.19-.37-4.17-1.02-7.88-.99-3.24.03-6.57.59-9.85,0-.32-.27-2.82-.48-6.9-4.93-1.31-1.43-2.33-3.24-3.94-4.43,8.28,3.2,16.42,5.05,25.62,6.4Z"/>
          </g>
          <path class="son-daughter-cls-37" d="m1100.3,639.32c23.26,2.69,22.35,3.6,47.3.99,2.05-.21,3.82-1.93,5.91-.49-2.98.93-3.73,3.29-3.94,3.45-.17.13-3.14,1.57-3.94,1.97-19.24,9.77-35.65,2.68-53.21-6.9,3.72-.03,4.69.62,7.88.99Z"/>
        </g>
        <g>
          <path class="son-daughter-cls-18" d="m1196.87,578.23c-.31-.07-.68.08-.99,0-5.75-3.45-10.52-8.52-6.4-15.77,3.82,1.68,46.95-1.86,46.8.49-5.51,20.77-22.72,13.22-39.41,15.27Z"/>
          <path class="son-daughter-cls-37" d="m1188,575.28c-1.64-.76-9.42-5.27-9.85-5.91.97-8.4,3.76-16.66,8.38-23.65l1.48,29.56Z"/>
          <g>
            <path class="son-daughter-cls-17" d="m1272.74,557.54c-9.14,2.8-23.43,5.63-25.62,6.9l-8.38-13.79c-.95,8.12-.92,20.87-8.38,25.62-4.78,3.05-11.48,2.42-16.75,3.94-5.71.38-11.23-.73-16.75-1.97,16.7-2.06,33.91,5.49,39.41-15.27.15-2.36-42.99,1.19-46.8-.49-4.12,7.24.66,12.31,6.4,15.77-3.69-.95-4.67-1.46-7.88-2.96l-1.48-29.56c-4.62,6.98-7.4,15.25-8.38,23.65-1.32-1.96-.81-1.96-.99-3.94-1.41-15.97,11.25-36.51,28.08-38.43,29.71-3.38,33.6,26.34,52.22,23.65,10.62-1.54,19.8-13.75.49,5.42l14.78,1.48Z"/>
            <path class="son-daughter-cls-37" d="m1247.12,564.44c-2.08,1.21-16.85,20.56-16.75,11.82,7.46-4.75,7.42-17.5,8.38-25.62l8.38,13.79Z"/>
            <path class="son-daughter-cls-37" d="m1221.99,541.77c6.02-.18,8.04,10.51,1.97,11.82-8.79,1.91-9.84-11.59-1.97-11.82Z"/>
          </g>
        </g>
        <g>
          <path class="son-daughter-cls-18" d="m1068.77,577.25c-8.01,4.44-29.13,3.78-37.44,0l-3.94-12.81c2.67-5.35,15.81-.02,22.17,0,22.44.08,33.62-10.43,19.21,12.81Z"/>
          <path class="son-daughter-cls-37" d="m1084.54,564.44c1.71,12.71-14.42,15.01-15.77,12.81,7.53-4.18,10.85-18.57,9.85-26.6,2.6,3.18,5.39,9.92,5.91,13.79Z"/>
          <path class="son-daughter-cls-37" d="m1027.39,564.44l3.94,12.81c-4.93-2.24-10.26-8.42-10.84-13.79-1.08-10.02,10.04-32.57,6.9.99Z"/>
          <g>
            <path class="son-daughter-cls-17" d="m1054.97,527.98c9.43,2.03,22.42,12.81,23.65,22.66,1,8.03-2.33,22.43-9.85,26.6,14.4-23.24,3.23-12.73-19.21-12.81-6.36-.02-19.5-5.35-22.17,0,3.14-33.55-7.98-11-6.9-.99-7.14-3.82-15.26-2.33-22.66-1.97,1.61-4.6,11.37-8.24,8.87-10.84,12.26-.62,22.02-28.31,48.28-22.66Z"/>
            <path class="son-daughter-cls-37" d="m1058.42,541.77c10.68-2.74,11.39,13.69.99,11.82-5.3-.95-6.67-10.37-.99-11.82Z"/>
          </g>
        </g>
      </g>
    </g>
  </g>
  <g>
    <g>
      <path class="son-daughter-cls-1" d="m843.65,358.74c.28,11.51-4.86,21.91-7.42,32.78-22.86-1.91-24.16-2.38-38.35,16.08-.04,4.33,17.16,10.99,18.56,35.26,2.14,37.23-25.04,28.9-28.45,34.02-.76,6.28-4.17,30.15-4.95,31.54-.96,1.73-14.39,8.06-16.08,6.19.25-3.6-3.76-40.61-4.95-46.39-7.08-34.49-25.71-55.66-60-64.94-.31-35.56-3.81-.27-47.01-4.95-26.42-2.86-18.55-20.52-23.5-21.03-5.01,7.42-24.84,12.25-25.98,13.61-3.76,4.49,6.59,15.95-30.93,24.74-14.41,3.38-21.35-3.09-20.41,6.19-2.04,1.77-15.11,20.99-23.5,28.45-3.21.89-9.78,4.46-16.08,5.57q-5.26,42.99-10.51,85.97c-12.28-20.97-42.47-41.02-61.23-17.32-1.37.38-1.96,1.75-3.71,1.24-.17-8.25,2.22-17.1,1.24-19.17-13.41-6.61-30.65-4.07-38.35-19.17-13.16-25.82,10.82-44.66,11.13-48.86-8.19-12.66,1.01-25.96,4.95-38.35-7.98-3.32-10.94-1.97-18.56-8.04-10.68-26.77-3.12-77.82,34.02-75.46,14.49-18.51,1.22-29.8,11.75-47.63,4.78-8.08,23.5-19.15,32.78-20.41,20.67-2.8,23.76,9.16,47.01,1.24,3.83-45.85,76.67-55.39,95.25-16.08,5.47,2.24,77.74-54.34,101.44,6.19,11.6,2.67,20.54,9.81,28.45,18.56,44.32-23.79,75.56,26.22,67.42,67.42,15.17,7.28,25.53,14.34,25.98,32.78Z"/>
      <path class="son-daughter-cls-20" d="m694.59,377.29c22.96-1.73-9.78,17.06-23.5,18.56-8.6.93-36.53.2-33.4-12.37,27.58,5.94,54.01-5.97,56.9-6.19Z"/>
      <path class="son-daughter-cls-20" d="m549.85,415.64c8.96-1.96-14.22,35.95-35.87,37.11-.58-.6.34-15.91.62-16.7.69-1.92,32.76-19.87,35.26-20.41Z"/>
      <path class="son-daughter-cls-13" d="m599.34,394.61c18.84,4.29-40.5,27.15-45.15,17.94,5.91-1.65,42.78-18.48,45.15-17.94Z"/>
    </g>
    <g>
      <path class="son-daughter-cls-28" d="m750.87,781.8c18.27,26.21,16.45,69.94,12.37,100.82-2.86,3.8-4.72,2.91-4.95,3.09-5.78-31.82-16.96-61.49-28.45-91.54,4.48-2.71,20.12-11.54,21.03-12.37Z"/>
      <path class="son-daughter-cls-34" d="m627.17,653.15c12.32,1.74,24.86,1.5,37.11,3.71-4.49,3.98-3.55,7-3.71,7.42-2.29,5.98-2.29,8.2-2.47,8.66-.88,2.22-3.66,9.35-5.57,9.9l-31.54-6.19-9.9-9.9q5.57-7.42,11.13-14.84c1.86.31,3.09.97,4.95,1.24Z"/>
      <g>
        <path class="son-daughter-cls-40" d="m707.57,977.24c-4.38,25.39-3.03,65.2-27.21,77.93q1.24-37.11,2.47-74.22l1.24-1.24c5.66-1.4,22.36-2.19,23.5-2.47Z"/>
        <path class="son-daughter-cls-34" d="m682.83,980.96q-1.24,37.11-2.47,74.22c-10.45-.77-10.51-62.38-12.37-71.75,2.13-12.18,5.61-.85,14.84-2.47Z"/>
      </g>
      <g>
        <path class="son-daughter-cls-41" d="m726.13,1045.28c.96,1.23,1.87,3.89,2.47,1.24,2.4,1.32,5.19,2.44,7.42,3.71.71.4-2.01,1.7-.62,2.47,16.95,9.46,36.2,15.29,46.39,29.69-.73,2.06-1.02,5.38-1.24,5.57-5.24,4.36-95.05,8.11-109.48,6.8l-1.86-2.47c16.47-1.44,93.37-3.02,102.05-7.42,17.89-9.08-56.53-34.38-60.61-40.82-5.81-9.15,12.59-.13,15.46,1.24Z"/>
        <path class="son-daughter-cls-29" d="m726.13,1045.28c-2.87-1.37-21.27-10.39-15.46-1.24,4.08,6.44,78.5,31.74,60.61,40.82-8.68,4.41-85.59,5.99-102.05,7.42-.63-11.59-3.56-14.09-3.71-14.84-.94-4.65-1.52-11.18-1.24-16.08,18.78,16.54,12.41,9.22,45.77-12.99-9.63-3.19-.48-19.07.62-19.17,1.11-.11,13.81,13.97,15.46,16.08Z"/>
        <path class="son-daughter-cls-29" d="m728.6,1046.52c-.61,2.65-1.51,0-2.47-1.24.96.46,1.5.7,2.47,1.24Z"/>
      </g>
      <g>
        <g>
          <path class="son-daughter-cls-23" d="m692.73,830.04q1.24,4.33,2.47,8.66c.55,4.45-1.22,9.67,2.47,13.61,0,1.63-.12,3.33,0,4.95.31,4.29-.48,9.75,2.47,13.61.1,1.64-.15,3.32,0,4.95.28,3.03.89,5.79,1.24,8.66.72,5.94,1.57,11.92,1.24,17.94,8.66,2.18,10.58-.57,11.13-.62,2.18-.2,8.49-.92,9.9-1.24l7.42,67.42c-.95,2.62-19.99,8.4-23.5,9.28-1.15.28-17.84,1.08-23.5,2.47-3.93-51.02-14.95-101.14-24.12-150.92,11.36-1.33,21.83,3.23,20.41-1.24,5.88-.02,11.28.7,11.13-1.24.03.19.36-1.15,1.24,3.71Z"/>
          <path class="son-daughter-cls-36" d="m680.36,827.57c1.42,4.47-9.05-.09-20.41,1.24,9.18,49.78,20.19,99.9,24.12,150.92l-1.24,1.24c-9.23,1.63-12.72-9.7-14.84,2.47-1.99-9.99-16.29-16.65-25.98-18.56q-1.24-37.11-2.47-74.22c3.78-21.16,4-42.92,3.71-64.32,12.35.78,24.73,1.27,37.11,1.24Z"/>
        </g>
        <g>
          <path class="son-daughter-cls-23" d="m642.01,964.87c-1.49-.29-2.98-1.09-3.71-.62-4.97,11.4,11.15,11.84-21.03,14.23-8.77.65-17.8-.48-26.6,0-2.95,1.94-1.53,4.79-1.86,7.42.05-2.29-3.72-7.01-3.71-7.42,0-.13,2.41.4,2.47-.62,4.86-79.6-10.05-57.38,50.72-87.21h1.24q1.24,37.11,2.47,74.22Z"/>
          <path class="son-daughter-cls-36" d="m602.43,891.89c12.08.2,24.73,3.13,35.87-1.24-60.76,29.83-45.86,7.61-50.72,87.21-.06,1.02-2.47.49-2.47.62-3.97,0-9.89-.24-13.61-1.24-2.55-.68-34.06-13.66-34.64-15.46l17.32-72.37c16.72,2.6,31.87,2.2,48.24,2.47Z"/>
        </g>
      </g>
      <path class="son-daughter-cls-28" d="m554.18,791.69c-11.46,29.68-16.69,61.64-22.27,92.78-7.57-2.11-9.9-1.43-17.32-6.19-2.97-31.76-6.25-65.06,9.9-94.01,9.78,2.92,20,4.18,29.69,7.42Z"/>
      <path class="son-daughter-cls-34" d="m524.5,784.27c-16.14,28.95-12.86,62.25-9.9,94.01-22.61-14.47-21.26-76.01-6.19-97.72.93.49,12.17,2.54,16.08,3.71Z"/>
      <g>
        <path class="son-daughter-cls-40" d="m617.27,978.48c-1.35,8.51-2.02,59.92-6.8,61.85-6.77-.05-14.01-.31-20.41,2.47-.81.35-1.75.78-2.47,1.24,2.1-16.81-.59-43.51,1.24-58.14.33-2.64-1.09-5.48,1.86-7.42,8.8-.48,17.82.65,26.6,0Z"/>
        <path class="son-daughter-cls-34" d="m585.11,978.48c0,.41,3.76,5.13,3.71,7.42-1.83,14.63.87,41.33-1.24,58.14-.58.37-5.93,6.73-6.8,8.66-3.83-.03-9.61-67.99-9.28-75.46,3.72,1,9.64,1.24,13.61,1.24Z"/>
      </g>
      <g>
        <path class="son-daughter-cls-4" d="m617.27,1079.92c.76,6.63-.55,14.78,0,21.65-2.98,8.09-40.93,1.75-48.86,1.86-3.52-2.39-1.57-20.56-.62-24.74.17-.73,5.69-12.84,6.19-13.61,2.86-4.39,6.67-6.18,11.13-8.66-4.02,1.48,0,12.11.62,12.37,1.25.52,8.15-13.58,10.51-14.84,6.47-3.47,19.63,13.75,21.03,25.98Z"/>
        <path class="son-daughter-cls-46" d="m595.01,1051.47c.07.12,1.69-.41,1.24,2.47-2.36,1.27-9.26,15.37-10.51,14.84-.63-.26-4.64-10.89-.62-12.37,3.13-1.74,6.55-3.63,9.9-4.95Z"/>
      </g>
      <g>
        <path class="son-daughter-cls-7" d="m750.87,781.8c-.91.83-16.55,9.66-21.03,12.37-6.71-17.54-18.83-37.15-24.74-56.28-6.74-21.82-10.05-44.74-12.37-67.42,12.54,1.91,16.62-8.47,44.53,21.65,25.71,27.75,48.64,57.74,13.61,89.68Z"/>
        <g>
          <path class="son-daughter-cls-22" d="m592.53,663.04c18.1,69.8,10.34,143.31,7.42,214.62-.34,8.38-.82,15.76,2.47,14.23-16.37-.28-31.52.13-48.24-2.47-1.13-.18-21-4.59-22.27-4.95,5.57-31.13,10.81-63.09,22.27-92.78,1.93-4.99,7.44-14.24,9.9-19.79,27.98-1.04,30.75-90.94,11.13-106.38,6.09-.95,10.95-2.55,17.32-2.47Z"/>
          <path class="son-daughter-cls-14" d="m611.09,666.75l9.9,9.9c3.51,11.14,10.08,25.97,12.37,37.11,4.54,22.09,9.57,88.27,9.9,112.57.28,21.4.07,43.16-3.71,64.32h-1.24c-11.14,4.37-23.79,1.44-35.87,1.24-3.29,1.54-2.82-5.84-2.47-14.23,2.91-71.31,10.68-144.83-7.42-214.62,6.82.08,13.7-1.72,18.56,3.71Z"/>
        </g>
        <g>
          <path class="son-daughter-cls-27" d="m575.21,665.52c19.61,15.45,16.85,105.34-11.13,106.38-9.18.34-58.87-26.43-72.98-29.69,1.37-22.19,40.81-69.93,84.12-76.7Z"/>
          <path class="son-daughter-cls-10" d="m564.08,771.9c-2.46,5.56-7.97,14.8-9.9,19.79-9.69-3.24-19.9-4.5-29.69-7.42-3.91-1.17-15.15-3.22-16.08-3.71-10.71-5.67-18.02-26.97-17.32-38.35,14.11,3.26,63.81,30.03,72.98,29.69Z"/>
        </g>
        <g>
          <path class="son-daughter-cls-19" d="m692.73,670.46c2.32,22.67,5.63,45.6,12.37,67.42,5.91,19.13,18.03,38.74,24.74,56.28,11.49,30.05,22.68,59.72,28.45,91.54-4.91,3.9-28.21,13.41-34.64,14.84-1.41.31-7.72,1.04-9.9,1.24-2.12.87-3.45-3.2-3.71-4.33-2.02-8.64-4.94-40.21-7.42-56.28-6.72-43.47-15.25-86.7-19.79-130.51-3.24-14.35-17.13-34.68-11.13-43.91,7.04,1.44,13.93,2.63,21.03,3.71Z"/>
          <path class="son-daughter-cls-14" d="m671.7,666.75c-5.99,9.24,7.9,29.56,11.13,43.91,4.55,43.8,13.07,87.03,19.79,130.51-8.5-2.58-4.92,5.83-4.95,11.13-3.69-3.94-1.92-9.16-2.47-13.61-1.41-11.31-2.39-8.17-2.47-8.66-.88-4.87-1.2-3.52-1.24-3.71-6.66-36.92-10.15-74.71-18.56-111.33-2.63-11.47-10.12-41.48-14.84-42.06.18-.46.18-2.68,2.47-8.66,3.67,1.1,7.4,1.71,11.13,2.47Z"/>
          <path class="son-daughter-cls-14" d="m702.63,841.17c2.49,16.07,5.4,47.64,7.42,56.28.26,1.12,1.59,5.2,3.71,4.33-.56.05-2.48,2.8-11.13.62.33-6.02-.52-12-1.24-17.94l-1.24-8.66c-.15-1.63.1-3.31,0-4.95-.24-4.07-.12-10.08-2.47-13.61-.12-1.62,0-3.31,0-4.95.03-5.3-3.55-13.71,4.95-11.13Z"/>
          <path class="son-daughter-cls-9" d="m700.15,870.86c-2.95-3.86-2.16-9.32-2.47-13.61,2.36,3.53,2.23,9.53,2.47,13.61Z"/>
          <path class="son-daughter-cls-9" d="m695.2,838.7q-1.24-4.33-2.47-8.66c.09.49,1.06-2.65,2.47,8.66Z"/>
          <path class="son-daughter-cls-12" d="m701.39,884.47c-.35-2.87-.96-5.62-1.24-8.66l1.24,8.66Z"/>
        </g>
      </g>
      <g>
        <path class="son-daughter-cls-31" d="m672.94,715c8.4,36.62,11.9,74.42,18.56,111.33.15,1.94-5.25,1.22-11.13,1.24-12.38.03-24.76-.46-37.11-1.24-.32-24.3-5.35-90.48-9.9-112.57q19.79.62,39.58,1.24Z"/>
        <path class="son-daughter-cls-4" d="m672.94,715q-19.79-.62-39.58-1.24c-2.29-11.14-8.86-25.97-12.37-37.11l31.54,6.19c1.9-.55,4.69-7.68,5.57-9.9,4.72.58,12.21,30.59,14.84,42.06Z"/>
      </g>
      <g>
        <path class="son-daughter-cls-40" d="m765.71,517.07c.1.64,3.05,7.87,3.71,12.37,2.31,15.7,1.95,31.31,3.71,47.01-15.64,47.72-62.79,70.46-108.86,80.41-12.25-2.21-24.79-1.97-37.11-3.71,3.76-12.11-36.92-10.18-43.3-32.78-3.15-11.15.9-17.06,0-23.5-.1-.7-3.48-6.67-3.71-8.66-1.48-12.87-.18-26.44-4.95-38.97,9.55-.96,11.18-.7,17.32-6.19,4.08,2.94,7.44-.14,11.13-1.24.61-.18,1.67.09,2.47,0,.06,5.17-2.46.7-2.47,4.33,4.34,6.44,1.76,21.75,9.9,35.26,6.09,10.11,30.55,24.99,42.06,24.74,21.08,6.53,40.77-3.96,51.95-22.27,9.04-14.8,4.5-14.2,4.95-30.31,6.35.62-3.83-4.5,3.71-8.04,29.47,9.73,40.16-20.15,17.32-42.06,2.58.34,4.14,2.37,6.19-.62-1.91-2.11-3.88-3.88-6.19-5.57,4.37-22.65,13.33-18.06,14.84-19.79.18-.2-.14-.81,0-1.24,2.49-7.55-3.57-11.85-2.47-16.7.12-.51,6.28-7.97,6.8-8.04,5.67-.82,11.37,56.18,10.51,62.47.27.77,2.44,2.9,2.47,3.09Z"/>
        <g>
          <path class="son-daughter-cls-25" d="m799.11,528.21c2.35,19.78-9.45,37.63-25.98,48.24-1.76-15.7-1.4-31.31-3.71-47.01,18.12-5.45,25.38,10.01,29.69-1.24Z"/>
          <path class="son-daughter-cls-25" d="m799.11,528.21c-4.31,11.24-11.56-4.22-29.69,1.24-.66-4.5-3.62-11.73-3.71-12.37-.46-2.93,1.23-2.34,1.24-2.47,1.69,1.87,15.12-4.46,16.08-6.19,9.69,4.32,14.74,8.53,16.08,19.79Z"/>
        </g>
        <path class="son-daughter-cls-28" d="m552.95,458.93c-6.08,5.56-7.97,10.27-9.9,16.08-2.01,6.06-7.51,18.4-1.24,19.79,8.93,1.98,22.98-4.04,24.74,8.66-.6,1.07-3.65,8.78-3.71,9.28-2.1,17.68,3.18-4.3,14.84-8.04-13.37,10.56-16.48,29.37-13.61,45.15,4.14,2.01,8.17-.32,11.13-.62,4.77,12.52,3.47,26.1,4.95,38.97.23,1.99,3.61,7.96,3.71,8.66.9,6.45-3.15,12.35,0,23.5,6.38,22.6,47.06,20.68,43.3,32.78-1.86-.26-3.08-.92-4.95-1.24-40.4-6.77-83.85-23.81-107.62-59.38-2.91-4.36-4.85-10.17-7.42-14.84-15.05-27.38-18.76-65.82-64.32-53.19,18.76-23.71,48.95-3.65,61.23,17.32q5.26-42.99,10.51-85.97c6.3-1.11,12.87-4.68,16.08-5.57,11.92-3.31,6.87-6.62,22.27,8.66Z"/>
        <path class="son-daughter-cls-40" d="m552.95,458.93c-15.4-15.28-10.35-11.96-22.27-8.66,8.4-7.46,21.46-26.68,23.5-28.45,1.45-1.26,1.61-2.57,3.09-3.71q13.61-1.86,27.21-3.71l1.86,29.07-1.86,3.09c-11.54.07-22.91,4.48-31.54,12.37Z"/>
        <path class="son-daughter-cls-4" d="m707.57,583.87c-11.18,18.31-30.88,28.8-51.95,22.27-10.24-3.17-18.18-12.42-25.98-17.32,26.09,3.38,53.21,5.58,77.93-4.95Z"/>
        <path class="son-daughter-cls-28" d="m733.55,497.28c2.31,1.69,4.28,3.46,6.19,5.57-2.04,2.98-3.61.96-6.19.62-2.7-.36-16.23-9.61-24.74,7.42-13.9,14.32-1.03-32.44,24.74-13.61Z"/>
        <path class="son-daughter-cls-34" d="m629.64,588.82c7.79,4.9,15.74,14.15,25.98,17.32-11.51.25-35.96-14.63-42.06-24.74,5.15,1.89,11.48,4.53,16.08,7.42Z"/>
        <path class="son-daughter-cls-40" d="m578.92,494.81c-.65.45-7.56.11-12.37,8.66-1.76-12.7-15.81-6.68-24.74-8.66,3.98-9.85,16.53-23,25.98-27.21,25.77-6.35,16.49,4.36,17.32,24.12-8.2.39-5.85,2.86-6.19,3.09Z"/>
        <path class="son-daughter-cls-20" d="m567.79,467.59c-9.45,4.22-21.99,17.36-25.98,27.21-6.27-1.39-.78-13.73,1.24-19.79,29.81-45.55,71.34-16.76,65.56-8.04-14.21-4.39-26.9-5.6-40.82.62Z"/>
        <path class="son-daughter-cls-25" d="m578.92,494.81c10.24-2.5,22.77,5.75,22.27,16.08-7.19-10.02-13.08-9.53-23.5-6.19-11.66,3.74-16.94,25.72-14.84,8.04.06-.5,3.11-8.21,3.71-9.28,4.81-8.55,11.72-8.21,12.37-8.66Z"/>
        <g>
          <path class="son-daughter-cls-25" d="m463.88,571.5c16.09,8.5,23.71,11.9,43.3,6.19,2.57,4.67,4.51,10.49,7.42,14.84-29.85,7.95-59.05-3.98-70.51-33.4,1.26-1.31.82-3.21,1.24-4.95,1.78,5.02,10.31,14.75,14.23,17.32,2.84,1.87,3.86-.25,4.33,0Z"/>
          <g>
            <path class="son-daughter-cls-23" d="m507.18,577.69c-19.59,5.71-27.2,2.31-43.3-6.19-11.22-12.09,2.84-25.07-5.57-28.45-8.38-3.38-11.53,5.06-12.99,11.13-.42,1.74.03,3.64-1.24,4.95-6.21-15.94-4.61-17.17-4.95-33.4,1.75.51,2.34-.86,3.71-1.24,45.57-12.63,49.27,25.81,64.32,53.19Z"/>
            <path class="son-daughter-cls-42" d="m463.88,571.5c-.47-.25-1.49,1.87-4.33,0-3.92-2.57-12.44-12.3-14.23-17.32,1.46-6.07,4.61-14.51,12.99-11.13,8.4,3.38-5.66,16.36,5.57,28.45Z"/>
          </g>
        </g>
        <g>
          <path class="son-daughter-cls-42" d="m766.95,514.6c0,.14-1.7-.46-1.24,2.47-.03-.2-2.2-2.32-2.47-3.09.85-6.29-4.84-63.29-10.51-62.47-.52.08-6.69,7.53-6.8,8.04-1.09,4.85,4.96,9.15,2.47,16.7-5.62-37.96-43.67-29.73-44.53-11.75-.49,10.28,4.52-4.08,25.36-.62,6.95,1.15,14.92,8.17,19.17,13.61-1.52,1.73-10.47-2.86-14.84,19.79-25.77-18.84-38.64,27.92-24.74,13.61-5.37,10.74-6.38,30.08,7.42,34.64-7.54,3.55,2.64,8.66-3.71,8.04-.45,16.11,4.09,15.51-4.95,30.31-24.72,10.53-51.85,8.33-77.93,4.95-4.6-2.89-10.93-5.53-16.08-7.42-8.14-13.5-5.56-28.81-9.9-35.26.01-3.63,2.54.84,2.47-4.33-.15-12.16,3.23-19.52-4.95-30.93.5-10.33-12.03-18.58-22.27-16.08.33-.23-2.01-2.7,6.19-3.09-.83-19.76,8.45-30.47-17.32-24.12,13.92-6.21,26.62-5.01,40.82-.62,5.77-8.71-35.76-37.5-65.56,8.04,1.93-5.81,3.82-10.52,9.9-16.08,8.63-7.89,20.01-12.3,31.54-12.37l1.86-3.09-1.86-29.07q-13.61,1.86-27.21,3.71c-1.48,1.14-1.64,2.45-3.09,3.71-.93-9.28,6-2.81,20.41-6.19,37.51-8.79,27.17-20.25,30.93-24.74,1.13-1.36,20.97-6.19,25.98-13.61,4.96.51-2.92,18.17,23.5,21.03,43.19,4.67,46.69-30.61,47.01,4.95,34.28,9.29,52.91,30.46,60,64.94,1.19,5.78,5.2,42.79,4.95,46.39Z"/>
          <path class="son-daughter-cls-20" d="m748.4,476.25c-.14.42.18,1.04,0,1.24-4.25-5.44-12.23-12.45-19.17-13.61-20.84-3.46-25.85,10.9-25.36.62.86-17.98,38.91-26.21,44.53,11.75Z"/>
          <path class="son-daughter-cls-28" d="m659.95,545.53c18.81,30.62,36.22-2.98,34.02,9.28-1.95,10.87-32.78,17.96-34.02-9.28Z"/>
        </g>
        <g>
          <path class="son-daughter-cls-8" d="m601.19,510.89c8.18,11.4,4.8,18.77,4.95,30.93-.8.09-1.87-.18-2.47,0-9.61-9.69-8.12-1.46-11.13,1.24-6.14,5.49-7.77,5.22-17.32,6.19-2.97.3-6.99,2.63-11.13.62-2.87-15.78.24-34.59,13.61-45.15,10.42-3.34,16.31-3.84,23.5,6.19Z"/>
          <path class="son-daughter-cls-4" d="m603.67,541.81c-3.69,1.1-7.05,4.18-11.13,1.24,3.01-2.69,1.52-10.93,11.13-1.24Z"/>
          <path class="son-daughter-cls-44" d="m588.2,512.13c7.92-2.54,12.71,9.23,6.19,11.13-5.69,1.66-13.28-8.86-6.19-11.13Z"/>
          <path class="son-daughter-cls-44" d="m583.25,530.68c8.41-3.5,11.21,7.66,6.19,9.9-7.85,3.49-11.97-7.49-6.19-9.9Z"/>
        </g>
        <g>
          <path class="son-daughter-cls-8" d="m733.55,503.47c22.84,21.91,12.16,51.79-17.32,42.06-13.8-4.56-12.79-23.89-7.42-34.64,8.51-17.03,22.04-7.78,24.74-7.42Z"/>
          <path class="son-daughter-cls-44" d="m726.75,512.13c6.48-3.12,13.01,9.01,6.19,11.13-7.45,2.32-11.05-8.79-6.19-11.13Z"/>
          <path class="son-daughter-cls-44" d="m720.56,530.68c5.74-.7,7.75,8.28,2.47,9.9-7.11,2.18-9.65-9.02-2.47-9.9Z"/>
          <path class="son-daughter-cls-44" d="m734.17,530.68c8.6-2.63,6.18,8.89,2.47,9.9-6.13,1.67-6.74-8.59-2.47-9.9Z"/>
        </g>
      </g>
    </g>
  </g>
</svg>