<?xml version="1.0" encoding="UTF-8"?>
<svg xmlns="http://www.w3.org/2000/svg" xmlns:xlink="http://www.w3.org/1999/xlink" width="px" height="150px" viewBox="0 0 157 150" version="1.1">
<defs>
<linearGradient id="linear0" gradientUnits="userSpaceOnUse" x1="408.06" y1="492.11" x2="414.69" y2="492.11" gradientTransform="matrix(0.271653,0,0,-0.273878,-110.74905,255.181546)">
<stop offset="0" style="stop-color:rgb(80.392157%,69.411765%,41.568627%);stop-opacity:1;"/>
<stop offset="0.0944" style="stop-color:rgb(67.843137%,61.568627%,37.254902%);stop-opacity:1;"/>
<stop offset="0.1416" style="stop-color:rgb(71.764706%,63.137255%,32.941176%);stop-opacity:1;"/>
<stop offset="0.1652" style="stop-color:rgb(76.078431%,53.72549%,27.843137%);stop-opacity:1;"/>
<stop offset="0.1888" style="stop-color:rgb(78.823529%,67.45098%,27.45098%);stop-opacity:1;"/>
<stop offset="0.1888" style="stop-color:rgb(75.294118%,53.72549%,12.156863%);stop-opacity:1;"/>
<stop offset="0.1888" style="stop-color:rgb(72.941176%,53.333333%,22.745098%);stop-opacity:1;"/>
<stop offset="0.1888" style="stop-color:rgb(74.117647%,66.27451%,46.27451%);stop-opacity:1;"/>
<stop offset="0.7132" style="stop-color:rgb(77.254902%,67.843137%,29.019608%);stop-opacity:1;"/>
<stop offset="0.7263" style="stop-color:rgb(80.392157%,66.27451%,33.333333%);stop-opacity:1;"/>
<stop offset="0.7263" style="stop-color:rgb(83.529412%,67.843137%,26.27451%);stop-opacity:1;"/>
<stop offset="0.7394" style="stop-color:rgb(84.313725%,63.137255%,23.529412%);stop-opacity:1;"/>
<stop offset="0.7525" style="stop-color:rgb(70.980392%,58.431373%,35.686275%);stop-opacity:1;"/>
<stop offset="0.7656" style="stop-color:rgb(74.509804%,70.588235%,34.901961%);stop-opacity:1;"/>
<stop offset="0.8173" style="stop-color:rgb(72.156863%,64.313725%,42.352941%);stop-opacity:1;"/>
<stop offset="0.869" style="stop-color:rgb(63.921569%,61.960784%,20.784314%);stop-opacity:1;"/>
<stop offset="1" style="stop-color:rgb(65.882353%,62.745098%,33.72549%);stop-opacity:1;"/>
</linearGradient>
<linearGradient id="linear1" gradientUnits="userSpaceOnUse" x1="768.13" y1="119.42" x2="779.9" y2="113.92" gradientTransform="matrix(0.413041,0.000766015,0.140626,-0.111483,-314.926913,92.717931)">
<stop offset="0" style="stop-color:rgb(80.392157%,69.411765%,41.568627%);stop-opacity:1;"/>
<stop offset="0.0944" style="stop-color:rgb(67.843137%,61.568627%,37.254902%);stop-opacity:1;"/>
<stop offset="0.1416" style="stop-color:rgb(71.764706%,63.137255%,32.941176%);stop-opacity:1;"/>
<stop offset="0.1652" style="stop-color:rgb(76.078431%,53.72549%,27.843137%);stop-opacity:1;"/>
<stop offset="0.1888" style="stop-color:rgb(78.823529%,67.45098%,27.45098%);stop-opacity:1;"/>
<stop offset="0.1888" style="stop-color:rgb(75.294118%,53.72549%,12.156863%);stop-opacity:1;"/>
<stop offset="0.1888" style="stop-color:rgb(72.941176%,53.333333%,22.745098%);stop-opacity:1;"/>
<stop offset="0.1888" style="stop-color:rgb(74.117647%,66.27451%,46.27451%);stop-opacity:1;"/>
<stop offset="0.7132" style="stop-color:rgb(77.254902%,67.843137%,29.019608%);stop-opacity:1;"/>
<stop offset="0.7263" style="stop-color:rgb(80.392157%,66.27451%,33.333333%);stop-opacity:1;"/>
<stop offset="0.7263" style="stop-color:rgb(83.529412%,67.843137%,26.27451%);stop-opacity:1;"/>
<stop offset="0.7394" style="stop-color:rgb(84.313725%,63.137255%,23.529412%);stop-opacity:1;"/>
<stop offset="0.7525" style="stop-color:rgb(70.980392%,58.431373%,35.686275%);stop-opacity:1;"/>
<stop offset="0.7656" style="stop-color:rgb(74.509804%,70.588235%,34.901961%);stop-opacity:1;"/>
<stop offset="0.8173" style="stop-color:rgb(72.156863%,64.313725%,42.352941%);stop-opacity:1;"/>
<stop offset="0.869" style="stop-color:rgb(63.921569%,61.960784%,20.784314%);stop-opacity:1;"/>
<stop offset="1" style="stop-color:rgb(65.882353%,62.745098%,33.72549%);stop-opacity:1;"/>
</linearGradient>
<linearGradient id="linear2" gradientUnits="userSpaceOnUse" x1="861.95" y1="508.59" x2="864.96" y2="528.35" gradientTransform="matrix(-0.00000904486,0.413758,-0.14147,0.111674,153.018423,-316.35333)">
<stop offset="0" style="stop-color:rgb(80.392157%,69.411765%,41.568627%);stop-opacity:1;"/>
<stop offset="0.0944" style="stop-color:rgb(67.843137%,61.568627%,37.254902%);stop-opacity:1;"/>
<stop offset="0.1416" style="stop-color:rgb(71.764706%,63.137255%,32.941176%);stop-opacity:1;"/>
<stop offset="0.1652" style="stop-color:rgb(76.078431%,53.72549%,27.843137%);stop-opacity:1;"/>
<stop offset="0.1888" style="stop-color:rgb(78.823529%,67.45098%,27.45098%);stop-opacity:1;"/>
<stop offset="0.1888" style="stop-color:rgb(75.294118%,53.72549%,12.156863%);stop-opacity:1;"/>
<stop offset="0.1888" style="stop-color:rgb(72.941176%,53.333333%,22.745098%);stop-opacity:1;"/>
<stop offset="0.1888" style="stop-color:rgb(74.117647%,66.27451%,46.27451%);stop-opacity:1;"/>
<stop offset="0.7132" style="stop-color:rgb(77.254902%,67.843137%,29.019608%);stop-opacity:1;"/>
<stop offset="0.7263" style="stop-color:rgb(80.392157%,66.27451%,33.333333%);stop-opacity:1;"/>
<stop offset="0.7263" style="stop-color:rgb(83.529412%,67.843137%,26.27451%);stop-opacity:1;"/>
<stop offset="0.7394" style="stop-color:rgb(84.313725%,63.137255%,23.529412%);stop-opacity:1;"/>
<stop offset="0.7525" style="stop-color:rgb(70.980392%,58.431373%,35.686275%);stop-opacity:1;"/>
<stop offset="0.7656" style="stop-color:rgb(74.509804%,70.588235%,34.901961%);stop-opacity:1;"/>
<stop offset="0.8173" style="stop-color:rgb(72.156863%,64.313725%,42.352941%);stop-opacity:1;"/>
<stop offset="0.869" style="stop-color:rgb(63.921569%,61.960784%,20.784314%);stop-opacity:1;"/>
<stop offset="1" style="stop-color:rgb(65.882353%,62.745098%,33.72549%);stop-opacity:1;"/>
</linearGradient>
<linearGradient id="linear3" gradientUnits="userSpaceOnUse" x1="1345.8" y1="-403.68" x2="1352.3" y2="-404.12" gradientTransform="matrix(0.413041,0.000766015,0.140626,-0.111483,-488.190344,36.437701)">
<stop offset="0" style="stop-color:rgb(80.392157%,69.411765%,41.568627%);stop-opacity:1;"/>
<stop offset="0.0944" style="stop-color:rgb(67.843137%,61.568627%,37.254902%);stop-opacity:1;"/>
<stop offset="0.1416" style="stop-color:rgb(71.764706%,63.137255%,32.941176%);stop-opacity:1;"/>
<stop offset="0.1652" style="stop-color:rgb(76.078431%,53.72549%,27.843137%);stop-opacity:1;"/>
<stop offset="0.1888" style="stop-color:rgb(78.823529%,67.45098%,27.45098%);stop-opacity:1;"/>
<stop offset="0.1888" style="stop-color:rgb(75.294118%,53.72549%,12.156863%);stop-opacity:1;"/>
<stop offset="0.1888" style="stop-color:rgb(72.941176%,53.333333%,22.745098%);stop-opacity:1;"/>
<stop offset="0.1888" style="stop-color:rgb(74.117647%,66.27451%,46.27451%);stop-opacity:1;"/>
<stop offset="0.7132" style="stop-color:rgb(77.254902%,67.843137%,29.019608%);stop-opacity:1;"/>
<stop offset="0.7263" style="stop-color:rgb(80.392157%,66.27451%,33.333333%);stop-opacity:1;"/>
<stop offset="0.7263" style="stop-color:rgb(83.529412%,67.843137%,26.27451%);stop-opacity:1;"/>
<stop offset="0.7394" style="stop-color:rgb(84.313725%,63.137255%,23.529412%);stop-opacity:1;"/>
<stop offset="0.7525" style="stop-color:rgb(70.980392%,58.431373%,35.686275%);stop-opacity:1;"/>
<stop offset="0.7656" style="stop-color:rgb(74.509804%,70.588235%,34.901961%);stop-opacity:1;"/>
<stop offset="0.8173" style="stop-color:rgb(72.156863%,64.313725%,42.352941%);stop-opacity:1;"/>
<stop offset="0.869" style="stop-color:rgb(63.921569%,61.960784%,20.784314%);stop-opacity:1;"/>
<stop offset="1" style="stop-color:rgb(65.882353%,62.745098%,33.72549%);stop-opacity:1;"/>
</linearGradient>
<clipPath id="clip1">
  <rect x="0" y="0" width="157" height="150"/>
</clipPath>
<g id="surface5" clip-path="url(#clip1)">
<path style=" stroke:none;fill-rule:nonzero;fill:rgb(0%,59.607843%,8.235294%);fill-opacity:1;" d="M 21.230469 124.238281 C 20.828125 125.195312 18.359375 131.429688 18.359375 132.886719 C 18.359375 133.890625 18.8125 134.980469 20.324219 134.980469 L 22.085938 134.980469 C 22.589844 134.980469 22.640625 135.164062 22.640625 135.347656 L 22.640625 136.347656 C 22.640625 136.710938 22.589844 136.847656 22.1875 136.847656 C 21.53125 136.847656 19.46875 136.710938 15.339844 136.710938 C 11.664062 136.710938 10.554688 136.847656 9.851562 136.847656 C 9.546875 136.847656 9.5 136.574219 9.5 136.257812 L 9.5 135.390625 C 9.5 135.117188 9.546875 134.980469 9.851562 134.980469 L 11.160156 134.980469 C 12.367188 134.980469 13.578125 134.34375 14.582031 132.980469 C 15.289062 132.023438 18.863281 124.101562 20.523438 120.097656 C 20.929688 119.1875 25.007812 109.398438 25.460938 108.171875 C 25.609375 107.714844 25.863281 107.125 25.511719 106.625 C 25.359375 106.441406 25.15625 106.214844 25.15625 106.03125 C 25.15625 105.894531 25.257812 105.714844 25.660156 105.621094 C 27.273438 105.304688 30.546875 104.121094 31.300781 103.347656 C 31.550781 103.117188 31.703125 102.9375 31.957031 102.9375 C 32.257812 102.9375 32.359375 103.210938 32.507812 103.710938 C 33.464844 106.578125 37.394531 116.773438 38.351562 119.6875 C 39.507812 123.238281 42.78125 131.703125 43.484375 132.933594 C 44.34375 134.433594 45.652344 134.980469 46.40625 134.980469 L 48.117188 134.980469 C 48.421875 134.980469 48.472656 135.164062 48.472656 135.390625 L 48.472656 136.257812 C 48.472656 136.527344 48.421875 136.847656 48.015625 136.847656 C 47.0625 136.847656 46.003906 136.710938 39.558594 136.710938 C 35.378906 136.710938 33.617188 136.847656 32.609375 136.847656 C 32.105469 136.847656 32.054688 136.574219 32.054688 136.257812 L 32.054688 135.390625 C 32.054688 135.164062 32.105469 134.980469 32.359375 134.980469 L 33.769531 134.980469 C 35.128906 134.980469 35.582031 134.527344 35.277344 133.34375 C 34.824219 131.703125 32.863281 125.878906 32.257812 124.238281 Z M 31.804688 122.421875 C 31.351562 121.054688 28.378906 111.496094 28.027344 110.359375 C 27.824219 109.675781 27.726562 109.355469 27.472656 109.355469 C 27.171875 109.355469 27.019531 109.539062 26.871094 109.949219 C 26.617188 110.539062 22.289062 121.28125 21.882812 122.421875 Z M 31.804688 122.421875 "/>
</g>
<clipPath id="clip2">
  <rect x="0" y="0" width="157" height="150"/>
</clipPath>
<g id="surface8" clip-path="url(#clip2)">
<path style=" stroke:none;fill-rule:nonzero;fill:rgb(0%,59.607843%,8.235294%);fill-opacity:1;" d="M 30.015625 83.417969 C 29.359375 83.625 25.238281 84.96875 24.851562 85.285156 C 24.585938 85.5 24.75 85.734375 26.261719 85.734375 L 28.023438 85.734375 C 28.527344 85.734375 28.53125 85.773438 28.480469 85.8125 L 28.214844 86.03125 C 28.121094 86.109375 28.03125 86.136719 27.628906 86.136719 C 26.976562 86.136719 24.945312 86.109375 20.820312 86.109375 C 17.144531 86.109375 16 86.136719 15.292969 86.136719 C 14.992188 86.136719 15.015625 86.078125 15.097656 86.011719 L 15.328125 85.824219 C 15.398438 85.765625 15.488281 85.734375 15.789062 85.734375 L 17.097656 85.734375 C 18.304688 85.734375 19.683594 85.597656 21.050781 85.304688 C 22.011719 85.097656 27.683594 83.390625 30.40625 82.527344 C 31.050781 82.328125 37.722656 80.21875 38.503906 79.953125 C 38.773438 79.855469 39.183594 79.726562 38.960938 79.621094 C 38.859375 79.582031 38.71875 79.53125 38.765625 79.492188 C 38.804688 79.464844 38.953125 79.421875 39.378906 79.402344 C 41.074219 79.335938 44.660156 79.082031 45.621094 78.914062 C 45.933594 78.863281 46.132812 78.824219 46.382812 78.824219 C 46.6875 78.824219 46.714844 78.882812 46.734375 78.992188 C 46.929688 79.609375 48.15625 81.808594 48.339844 82.4375 C 48.558594 83.203125 49.585938 85.03125 49.964844 85.292969 C 50.425781 85.617188 51.589844 85.734375 52.34375 85.734375 L 54.054688 85.734375 C 54.359375 85.734375 54.359375 85.773438 54.300781 85.824219 L 54.070312 86.011719 C 53.996094 86.070312 53.863281 86.136719 53.460938 86.136719 C 52.503906 86.136719 51.480469 86.109375 45.035156 86.109375 C 40.859375 86.109375 39.058594 86.136719 38.050781 86.136719 C 37.550781 86.136719 37.570312 86.078125 37.65625 86.011719 L 37.882812 85.824219 C 37.945312 85.773438 38.042969 85.734375 38.296875 85.734375 L 39.707031 85.734375 C 41.0625 85.734375 41.636719 85.636719 41.648438 85.382812 C 41.632812 85.027344 41.210938 83.773438 41.042969 83.417969 Z M 41.070312 83.023438 C 40.980469 82.730469 40.542969 80.667969 40.492188 80.421875 C 40.472656 80.277344 40.457031 80.207031 40.203125 80.207031 C 39.902344 80.207031 39.703125 80.246094 39.441406 80.335938 C 39.035156 80.460938 31.855469 82.78125 31.152344 83.023438 Z M 41.070312 83.023438 "/>
</g>
<clipPath id="clip3">
  <rect x="0" y="0" width="157" height="150"/>
</clipPath>
<g id="surface11" clip-path="url(#clip3)">
<path style=" stroke:none;fill-rule:nonzero;fill:rgb(0%,59.607843%,8.235294%);fill-opacity:1;" d="M 66.425781 118.671875 C 66.277344 119.738281 65.355469 126.648438 65.324219 128.105469 C 65.300781 129.109375 65.421875 130.078125 65.898438 129.664062 L 66.457031 129.179688 C 66.617188 129.042969 66.628906 129.210938 66.625 129.394531 L 66.601562 130.394531 C 66.59375 130.757812 66.574219 130.910156 66.445312 131.019531 C 66.238281 131.199219 65.589844 131.625 64.28125 132.757812 C 63.121094 133.761719 62.765625 134.203125 62.542969 134.394531 C 62.445312 134.480469 62.4375 134.21875 62.445312 133.902344 L 62.464844 133.035156 C 62.46875 132.761719 62.488281 132.613281 62.585938 132.53125 L 63 132.171875 C 63.378906 131.839844 63.777344 130.871094 64.125 129.230469 C 64.371094 128.082031 65.679688 119.183594 66.296875 114.722656 C 66.441406 113.703125 67.953125 102.796875 68.125 101.445312 C 68.179688 100.949219 68.273438 100.289062 68.175781 99.882812 C 68.128906 99.742188 68.070312 99.570312 68.074219 99.390625 C 68.078125 99.253906 68.113281 99.042969 68.246094 98.839844 C 68.761719 98.082031 69.824219 96.003906 70.082031 95.023438 C 70.164062 94.726562 70.21875 94.5 70.296875 94.433594 C 70.390625 94.351562 70.417969 94.597656 70.453125 95.054688 C 70.695312 97.660156 71.710938 106.78125 71.945312 109.433594 C 72.234375 112.667969 73.082031 120.238281 73.277344 121.273438 C 73.515625 122.542969 73.917969 122.730469 74.15625 122.523438 L 74.695312 122.054688 C 74.792969 121.972656 74.804688 122.140625 74.800781 122.367188 L 74.78125 123.230469 C 74.773438 123.503906 74.75 123.835938 74.625 123.949219 C 74.320312 124.210938 73.988281 124.363281 71.949219 126.125 C 70.625 127.269531 70.066406 127.890625 69.746094 128.164062 C 69.585938 128.304688 69.578125 128.042969 69.585938 127.726562 L 69.605469 126.859375 C 69.609375 126.632812 69.628906 126.4375 69.707031 126.367188 L 70.15625 125.980469 C 70.585938 125.609375 70.738281 125.03125 70.667969 123.929688 C 70.5625 122.414062 70.070312 117.125 69.917969 115.652344 L 66.433594 118.664062 Z M 69.816406 113.957031 C 69.703125 112.714844 68.972656 103.96875 68.886719 102.929688 C 68.839844 102.300781 68.816406 102.011719 68.734375 102.078125 C 68.640625 102.164062 68.589844 102.386719 68.53125 102.835938 C 68.4375 103.496094 66.828125 115.425781 66.675781 116.675781 Z M 69.816406 113.957031 "/>
</g>
<filter id="alpha" filterUnits="objectBoundingBox" x="0%" y="0%" width="100%" height="100%">
  <feColorMatrix type="matrix" in="SourceGraphic" values="0 0 0 0 1 0 0 0 0 1 0 0 0 0 1 0 0 0 1 0"/>
</filter>
<mask id="mask0">
  <g filter="url(#alpha)">
<rect x="0" y="0" width="157" height="150" style="fill:rgb(0%,0%,0%);fill-opacity:0.388235;stroke:none;"/>
  </g>
</mask>
<clipPath id="clip4">
  <rect x="0" y="0" width="157" height="150"/>
</clipPath>
<g id="surface14" clip-path="url(#clip4)">
<path style=" stroke:none;fill-rule:nonzero;fill:rgb(0%,0%,0%);fill-opacity:1;" d="M 58.300781 91.144531 L 58.300781 150 L 78.421875 134.117188 L 78.421875 75.261719 Z M 58.300781 91.144531 "/>
</g>
<mask id="mask1">
  <g filter="url(#alpha)">
<rect x="0" y="0" width="157" height="150" style="fill:rgb(0%,0%,0%);fill-opacity:0.152941;stroke:none;"/>
  </g>
</mask>
<clipPath id="clip5">
  <rect x="0" y="0" width="157" height="150"/>
</clipPath>
<g id="surface17" clip-path="url(#clip5)">
<path style=" stroke:none;fill-rule:nonzero;fill:rgb(0%,0%,0%);fill-opacity:1;" d="M 20.339844 74.707031 L 78.871094 74.816406 L 58.9375 90.613281 L 0.40625 90.507812 Z M 20.339844 74.707031 "/>
</g>
<linearGradient id="linear4" gradientUnits="userSpaceOnUse" x1="408.06" y1="492.11" x2="414.69" y2="492.11" gradientTransform="matrix(0.271653,0,0,-0.273878,-32.414866,239.149942)">
<stop offset="0" style="stop-color:rgb(80.392157%,69.411765%,41.568627%);stop-opacity:1;"/>
<stop offset="0.0944" style="stop-color:rgb(67.843137%,61.568627%,37.254902%);stop-opacity:1;"/>
<stop offset="0.1416" style="stop-color:rgb(71.764706%,63.137255%,32.941176%);stop-opacity:1;"/>
<stop offset="0.1652" style="stop-color:rgb(76.078431%,53.72549%,27.843137%);stop-opacity:1;"/>
<stop offset="0.1888" style="stop-color:rgb(78.823529%,67.45098%,27.45098%);stop-opacity:1;"/>
<stop offset="0.1888" style="stop-color:rgb(75.294118%,53.72549%,12.156863%);stop-opacity:1;"/>
<stop offset="0.1888" style="stop-color:rgb(72.941176%,53.333333%,22.745098%);stop-opacity:1;"/>
<stop offset="0.1888" style="stop-color:rgb(74.117647%,66.27451%,46.27451%);stop-opacity:1;"/>
<stop offset="0.7132" style="stop-color:rgb(77.254902%,67.843137%,29.019608%);stop-opacity:1;"/>
<stop offset="0.7263" style="stop-color:rgb(80.392157%,66.27451%,33.333333%);stop-opacity:1;"/>
<stop offset="0.7263" style="stop-color:rgb(83.529412%,67.843137%,26.27451%);stop-opacity:1;"/>
<stop offset="0.7394" style="stop-color:rgb(84.313725%,63.137255%,23.529412%);stop-opacity:1;"/>
<stop offset="0.7525" style="stop-color:rgb(70.980392%,58.431373%,35.686275%);stop-opacity:1;"/>
<stop offset="0.7656" style="stop-color:rgb(74.509804%,70.588235%,34.901961%);stop-opacity:1;"/>
<stop offset="0.8173" style="stop-color:rgb(72.156863%,64.313725%,42.352941%);stop-opacity:1;"/>
<stop offset="0.869" style="stop-color:rgb(63.921569%,61.960784%,20.784314%);stop-opacity:1;"/>
<stop offset="1" style="stop-color:rgb(65.882353%,62.745098%,33.72549%);stop-opacity:1;"/>
</linearGradient>
<linearGradient id="linear5" gradientUnits="userSpaceOnUse" x1="768.13" y1="119.42" x2="779.9" y2="113.92" gradientTransform="matrix(0.413041,0.000766015,0.140626,-0.111483,-236.591098,76.691799)">
<stop offset="0" style="stop-color:rgb(80.392157%,69.411765%,41.568627%);stop-opacity:1;"/>
<stop offset="0.0944" style="stop-color:rgb(67.843137%,61.568627%,37.254902%);stop-opacity:1;"/>
<stop offset="0.1416" style="stop-color:rgb(71.764706%,63.137255%,32.941176%);stop-opacity:1;"/>
<stop offset="0.1652" style="stop-color:rgb(76.078431%,53.72549%,27.843137%);stop-opacity:1;"/>
<stop offset="0.1888" style="stop-color:rgb(78.823529%,67.45098%,27.45098%);stop-opacity:1;"/>
<stop offset="0.1888" style="stop-color:rgb(75.294118%,53.72549%,12.156863%);stop-opacity:1;"/>
<stop offset="0.1888" style="stop-color:rgb(72.941176%,53.333333%,22.745098%);stop-opacity:1;"/>
<stop offset="0.1888" style="stop-color:rgb(74.117647%,66.27451%,46.27451%);stop-opacity:1;"/>
<stop offset="0.7132" style="stop-color:rgb(77.254902%,67.843137%,29.019608%);stop-opacity:1;"/>
<stop offset="0.7263" style="stop-color:rgb(80.392157%,66.27451%,33.333333%);stop-opacity:1;"/>
<stop offset="0.7263" style="stop-color:rgb(83.529412%,67.843137%,26.27451%);stop-opacity:1;"/>
<stop offset="0.7394" style="stop-color:rgb(84.313725%,63.137255%,23.529412%);stop-opacity:1;"/>
<stop offset="0.7525" style="stop-color:rgb(70.980392%,58.431373%,35.686275%);stop-opacity:1;"/>
<stop offset="0.7656" style="stop-color:rgb(74.509804%,70.588235%,34.901961%);stop-opacity:1;"/>
<stop offset="0.8173" style="stop-color:rgb(72.156863%,64.313725%,42.352941%);stop-opacity:1;"/>
<stop offset="0.869" style="stop-color:rgb(63.921569%,61.960784%,20.784314%);stop-opacity:1;"/>
<stop offset="1" style="stop-color:rgb(65.882353%,62.745098%,33.72549%);stop-opacity:1;"/>
</linearGradient>
<linearGradient id="linear6" gradientUnits="userSpaceOnUse" x1="861.95" y1="508.59" x2="864.96" y2="528.35" gradientTransform="matrix(-0.00000904486,0.413758,-0.14147,0.111674,231.340641,-332.379462)">
<stop offset="0" style="stop-color:rgb(80.392157%,69.411765%,41.568627%);stop-opacity:1;"/>
<stop offset="0.0944" style="stop-color:rgb(67.843137%,61.568627%,37.254902%);stop-opacity:1;"/>
<stop offset="0.1416" style="stop-color:rgb(71.764706%,63.137255%,32.941176%);stop-opacity:1;"/>
<stop offset="0.1652" style="stop-color:rgb(76.078431%,53.72549%,27.843137%);stop-opacity:1;"/>
<stop offset="0.1888" style="stop-color:rgb(78.823529%,67.45098%,27.45098%);stop-opacity:1;"/>
<stop offset="0.1888" style="stop-color:rgb(75.294118%,53.72549%,12.156863%);stop-opacity:1;"/>
<stop offset="0.1888" style="stop-color:rgb(72.941176%,53.333333%,22.745098%);stop-opacity:1;"/>
<stop offset="0.1888" style="stop-color:rgb(74.117647%,66.27451%,46.27451%);stop-opacity:1;"/>
<stop offset="0.7132" style="stop-color:rgb(77.254902%,67.843137%,29.019608%);stop-opacity:1;"/>
<stop offset="0.7263" style="stop-color:rgb(80.392157%,66.27451%,33.333333%);stop-opacity:1;"/>
<stop offset="0.7263" style="stop-color:rgb(83.529412%,67.843137%,26.27451%);stop-opacity:1;"/>
<stop offset="0.7394" style="stop-color:rgb(84.313725%,63.137255%,23.529412%);stop-opacity:1;"/>
<stop offset="0.7525" style="stop-color:rgb(70.980392%,58.431373%,35.686275%);stop-opacity:1;"/>
<stop offset="0.7656" style="stop-color:rgb(74.509804%,70.588235%,34.901961%);stop-opacity:1;"/>
<stop offset="0.8173" style="stop-color:rgb(72.156863%,64.313725%,42.352941%);stop-opacity:1;"/>
<stop offset="0.869" style="stop-color:rgb(63.921569%,61.960784%,20.784314%);stop-opacity:1;"/>
<stop offset="1" style="stop-color:rgb(65.882353%,62.745098%,33.72549%);stop-opacity:1;"/>
</linearGradient>
<linearGradient id="linear7" gradientUnits="userSpaceOnUse" x1="1345.8" y1="-403.68" x2="1352.3" y2="-404.12" gradientTransform="matrix(0.413041,0.000766015,0.140626,-0.111483,-409.868126,20.414305)">
<stop offset="0" style="stop-color:rgb(80.392157%,69.411765%,41.568627%);stop-opacity:1;"/>
<stop offset="0.0944" style="stop-color:rgb(67.843137%,61.568627%,37.254902%);stop-opacity:1;"/>
<stop offset="0.1416" style="stop-color:rgb(71.764706%,63.137255%,32.941176%);stop-opacity:1;"/>
<stop offset="0.1652" style="stop-color:rgb(76.078431%,53.72549%,27.843137%);stop-opacity:1;"/>
<stop offset="0.1888" style="stop-color:rgb(78.823529%,67.45098%,27.45098%);stop-opacity:1;"/>
<stop offset="0.1888" style="stop-color:rgb(75.294118%,53.72549%,12.156863%);stop-opacity:1;"/>
<stop offset="0.1888" style="stop-color:rgb(72.941176%,53.333333%,22.745098%);stop-opacity:1;"/>
<stop offset="0.1888" style="stop-color:rgb(74.117647%,66.27451%,46.27451%);stop-opacity:1;"/>
<stop offset="0.7132" style="stop-color:rgb(77.254902%,67.843137%,29.019608%);stop-opacity:1;"/>
<stop offset="0.7263" style="stop-color:rgb(80.392157%,66.27451%,33.333333%);stop-opacity:1;"/>
<stop offset="0.7263" style="stop-color:rgb(83.529412%,67.843137%,26.27451%);stop-opacity:1;"/>
<stop offset="0.7394" style="stop-color:rgb(84.313725%,63.137255%,23.529412%);stop-opacity:1;"/>
<stop offset="0.7525" style="stop-color:rgb(70.980392%,58.431373%,35.686275%);stop-opacity:1;"/>
<stop offset="0.7656" style="stop-color:rgb(74.509804%,70.588235%,34.901961%);stop-opacity:1;"/>
<stop offset="0.8173" style="stop-color:rgb(72.156863%,64.313725%,42.352941%);stop-opacity:1;"/>
<stop offset="0.869" style="stop-color:rgb(63.921569%,61.960784%,20.784314%);stop-opacity:1;"/>
<stop offset="1" style="stop-color:rgb(65.882353%,62.745098%,33.72549%);stop-opacity:1;"/>
</linearGradient>
<clipPath id="clip6">
  <rect x="0" y="0" width="157" height="150"/>
</clipPath>
<g id="surface20" clip-path="url(#clip6)">
<path style=" stroke:none;fill-rule:nonzero;fill:rgb(79.215686%,9.411765%,0%);fill-opacity:1;" d="M 95.988281 100.882812 C 95.988281 99.199219 95.890625 93.648438 95.839844 92.917969 C 95.6875 90.277344 94.882812 90.1875 93.21875 90.1875 L 91.609375 90.1875 C 91.257812 90.1875 91.257812 90.140625 91.257812 89.777344 L 91.257812 88.730469 C 91.257812 88.457031 91.308594 88.320312 91.660156 88.320312 C 92.3125 88.320312 94.730469 88.457031 99.515625 88.457031 C 101.125 88.457031 104.148438 88.320312 107.570312 88.320312 C 111.195312 88.320312 114.417969 88.640625 116.179688 89.550781 C 119.050781 90.960938 120.058594 93.054688 120.058594 95.742188 C 120.058594 98.746094 118.042969 101.65625 112.707031 103.25 L 112.707031 103.34375 C 118.949219 104.796875 122.222656 107.53125 122.222656 112.355469 C 122.222656 114.8125 120.710938 118.179688 118.296875 119.273438 C 116.230469 120.230469 112.707031 120.957031 106.464844 120.957031 C 106.011719 120.957031 104.699219 120.867188 103.289062 120.820312 C 101.832031 120.730469 100.269531 120.683594 99.3125 120.683594 C 96.796875 120.683594 95.132812 120.730469 94.027344 120.730469 C 92.96875 120.777344 92.414062 120.820312 92.0625 120.820312 C 91.558594 120.820312 91.507812 120.683594 91.507812 120.320312 L 91.507812 119.320312 C 91.507812 119.046875 91.558594 118.953125 92.011719 118.953125 L 93.773438 118.953125 C 95.285156 118.953125 95.535156 118.410156 95.738281 117.042969 C 95.890625 115.996094 95.988281 109.988281 95.988281 106.253906 Z M 103.339844 102.75 C 105.40625 102.933594 108.628906 102.660156 110.089844 101.476562 C 111.75 100.15625 112.503906 98.105469 112.503906 96.105469 C 112.503906 94.375 111.902344 92.554688 110.441406 91.507812 C 108.730469 90.277344 106.261719 89.867188 105.707031 89.867188 C 104.648438 89.867188 103.542969 89.914062 103.492188 90.640625 C 103.390625 91.550781 103.339844 95.511719 103.339844 99.289062 Z M 103.339844 113.3125 C 103.339844 117.636719 104.449219 119.414062 107.117188 119.414062 C 110.691406 119.414062 114.066406 117.820312 114.066406 112.128906 C 114.066406 108.441406 112.253906 106.03125 109.535156 105.074219 C 107.015625 104.210938 104.601562 104.300781 103.339844 104.300781 Z M 103.339844 113.3125 "/>
</g>
<clipPath id="clip7">
  <rect x="0" y="0" width="157" height="150"/>
</clipPath>
<g id="surface23" clip-path="url(#clip7)">
<path style=" stroke:none;fill-rule:nonzero;fill:rgb(79.215686%,9.411765%,0%);fill-opacity:1;" d="M 106.714844 65.8125 C 107.164062 65.449219 108.53125 64.25 108.675781 64.09375 C 109.222656 63.523438 108.441406 63.503906 106.78125 63.503906 L 105.167969 63.503906 C 104.816406 63.503906 104.828125 63.496094 104.925781 63.417969 L 105.203125 63.191406 C 105.277344 63.132812 105.363281 63.101562 105.714844 63.101562 C 106.371094 63.101562 108.75 63.132812 113.535156 63.132812 C 115.144531 63.132812 118.203125 63.101562 121.625 63.101562 C 125.25 63.101562 128.390625 63.171875 129.910156 63.367188 C 132.40625 63.671875 132.859375 64.125 132.148438 64.703125 C 131.351562 65.351562 128.566406 65.980469 122.804688 66.324219 L 122.78125 66.34375 C 128.640625 66.65625 131.1875 67.246094 129.910156 68.285156 C 129.257812 68.816406 126.855469 69.542969 124.148438 69.777344 C 121.832031 69.984375 118.113281 70.140625 111.871094 70.140625 C 111.414062 70.140625 110.132812 70.121094 108.734375 70.113281 C 107.296875 70.09375 105.75 70.082031 104.792969 70.082031 C 102.273438 70.082031 100.601562 70.09375 99.492188 70.09375 C 98.421875 70.101562 97.855469 70.113281 97.503906 70.113281 C 97 70.113281 96.988281 70.082031 97.082031 70.003906 L 97.347656 69.789062 C 97.421875 69.730469 97.496094 69.710938 97.949219 69.710938 L 99.710938 69.710938 C 101.222656 69.710938 101.617188 69.589844 102.183594 69.296875 C 102.609375 69.070312 104.304688 67.773438 105.292969 66.96875 Z M 110.773438 68.492188 C 109.628906 69.425781 110.265625 69.808594 112.933594 69.808594 C 116.507812 69.808594 120.304688 69.464844 121.8125 68.238281 C 122.789062 67.441406 121.617188 66.921875 119.148438 66.714844 C 116.863281 66.53125 114.421875 66.550781 113.160156 66.550781 Z M 113.570312 66.214844 C 115.589844 66.253906 118.882812 66.195312 120.65625 65.9375 C 122.667969 65.65625 123.964844 65.210938 124.496094 64.78125 C 124.957031 64.40625 124.832031 64.015625 123.652344 63.789062 C 122.265625 63.523438 119.90625 63.4375 119.351562 63.4375 C 118.292969 63.4375 117.175781 63.445312 116.933594 63.601562 C 116.589844 63.800781 115.488281 64.652344 114.488281 65.46875 L 113.574219 66.210938 Z M 113.570312 66.214844 "/>
</g>
<clipPath id="clip8">
  <rect x="0" y="0" width="157" height="150"/>
</clipPath>
<g id="surface26" clip-path="url(#clip8)">
<path style=" stroke:none;fill-rule:nonzero;fill:rgb(79.215686%,9.411765%,0%);fill-opacity:1;" d="M 143.792969 96.296875 C 143.828125 94.613281 143.921875 89.085938 143.921875 88.371094 C 143.933594 85.773438 143.679688 85.902344 143.152344 86.359375 L 142.644531 86.796875 C 142.53125 86.894531 142.53125 86.851562 142.542969 86.484375 L 142.566406 85.4375 C 142.570312 85.164062 142.589844 85.015625 142.699219 84.917969 C 142.910156 84.738281 143.671875 84.214844 145.183594 82.90625 C 145.695312 82.464844 146.652344 81.5 147.738281 80.5625 C 148.886719 79.570312 149.898438 79.007812 150.4375 79.433594 C 151.3125 80.0625 151.585938 81.878906 151.523438 84.566406 C 151.457031 87.570312 150.753906 91.035156 149.03125 94.085938 L 149.027344 94.179688 C 150.972656 93.925781 151.945312 95.761719 151.839844 100.585938 C 151.785156 103.042969 151.230469 106.828125 150.441406 108.582031 C 149.765625 110.101562 148.632812 111.796875 146.660156 113.503906 C 146.515625 113.628906 146.101562 113.894531 145.65625 114.234375 C 145.195312 114.542969 144.703125 114.925781 144.402344 115.1875 C 143.605469 115.878906 143.078125 116.378906 142.726562 116.679688 C 142.390625 117.015625 142.214844 117.210938 142.101562 117.308594 C 141.945312 117.449219 141.929688 117.324219 141.9375 116.960938 L 141.960938 115.957031 C 141.96875 115.6875 141.984375 115.582031 142.128906 115.457031 L 142.6875 114.972656 C 143.164062 114.5625 143.257812 113.945312 143.351562 112.523438 C 143.421875 111.4375 143.585938 105.402344 143.671875 101.667969 L 143.796875 96.296875 Z M 145.839844 106.710938 C 145.746094 111.035156 146.054688 112.507812 146.902344 111.777344 C 148.03125 110.796875 149.136719 108.28125 149.261719 102.59375 C 149.34375 98.90625 148.824219 96.988281 147.984375 96.777344 C 147.207031 96.601562 146.441406 97.355469 146.042969 97.699219 Z M 146.078125 96.152344 C 146.726562 95.769531 147.753906 94.613281 148.242188 93.03125 C 148.796875 91.253906 149.082031 89 149.128906 86.996094 C 149.167969 85.265625 149.015625 83.613281 148.578125 82.964844 C 148.0625 82.203125 147.289062 82.46875 147.113281 82.621094 C 146.78125 82.910156 146.429688 83.261719 146.394531 84.003906 C 146.34375 84.941406 146.238281 88.914062 146.15625 92.691406 L 146.070312 96.148438 Z M 146.078125 96.152344 "/>
</g>
<mask id="mask2">
  <g filter="url(#alpha)">
<rect x="0" y="0" width="157" height="150" style="fill:rgb(0%,0%,0%);fill-opacity:0.388235;stroke:none;"/>
  </g>
</mask>
<clipPath id="clip9">
  <rect x="0" y="0" width="157" height="150"/>
</clipPath>
<g id="surface29" clip-path="url(#clip9)">
<path style=" stroke:none;fill-rule:nonzero;fill:rgb(0%,0%,0%);fill-opacity:1;" d="M 136.648438 74.953125 L 136.648438 133.804688 L 156.769531 117.925781 L 156.769531 59.070312 Z M 136.648438 74.953125 "/>
</g>
<mask id="mask3">
  <g filter="url(#alpha)">
<rect x="0" y="0" width="157" height="150" style="fill:rgb(0%,0%,0%);fill-opacity:0.152941;stroke:none;"/>
  </g>
</mask>
<clipPath id="clip10">
  <rect x="0" y="0" width="157" height="150"/>
</clipPath>
<g id="surface32" clip-path="url(#clip10)">
<path style=" stroke:none;fill-rule:nonzero;fill:rgb(0%,0%,0%);fill-opacity:1;" d="M 98.066406 58.992188 L 156.609375 59.101562 L 136.667969 74.902344 L 78.136719 74.792969 Z M 98.066406 58.992188 "/>
</g>
<linearGradient id="linear8" gradientUnits="userSpaceOnUse" x1="408.06" y1="492.11" x2="414.69" y2="492.11" gradientTransform="matrix(0.271653,0,0,-0.273878,-91.113017,180.358276)">
<stop offset="0" style="stop-color:rgb(80.392157%,69.411765%,41.568627%);stop-opacity:1;"/>
<stop offset="0.0944" style="stop-color:rgb(67.843137%,61.568627%,37.254902%);stop-opacity:1;"/>
<stop offset="0.1416" style="stop-color:rgb(71.764706%,63.137255%,32.941176%);stop-opacity:1;"/>
<stop offset="0.1652" style="stop-color:rgb(76.078431%,53.72549%,27.843137%);stop-opacity:1;"/>
<stop offset="0.1888" style="stop-color:rgb(78.823529%,67.45098%,27.45098%);stop-opacity:1;"/>
<stop offset="0.1888" style="stop-color:rgb(75.294118%,53.72549%,12.156863%);stop-opacity:1;"/>
<stop offset="0.1888" style="stop-color:rgb(72.941176%,53.333333%,22.745098%);stop-opacity:1;"/>
<stop offset="0.1888" style="stop-color:rgb(74.117647%,66.27451%,46.27451%);stop-opacity:1;"/>
<stop offset="0.7132" style="stop-color:rgb(77.254902%,67.843137%,29.019608%);stop-opacity:1;"/>
<stop offset="0.7263" style="stop-color:rgb(80.392157%,66.27451%,33.333333%);stop-opacity:1;"/>
<stop offset="0.7263" style="stop-color:rgb(83.529412%,67.843137%,26.27451%);stop-opacity:1;"/>
<stop offset="0.7394" style="stop-color:rgb(84.313725%,63.137255%,23.529412%);stop-opacity:1;"/>
<stop offset="0.7525" style="stop-color:rgb(70.980392%,58.431373%,35.686275%);stop-opacity:1;"/>
<stop offset="0.7656" style="stop-color:rgb(74.509804%,70.588235%,34.901961%);stop-opacity:1;"/>
<stop offset="0.8173" style="stop-color:rgb(72.156863%,64.313725%,42.352941%);stop-opacity:1;"/>
<stop offset="0.869" style="stop-color:rgb(63.921569%,61.960784%,20.784314%);stop-opacity:1;"/>
<stop offset="1" style="stop-color:rgb(65.882353%,62.745098%,33.72549%);stop-opacity:1;"/>
</linearGradient>
<linearGradient id="linear9" gradientUnits="userSpaceOnUse" x1="768.13" y1="119.42" x2="779.9" y2="113.92" gradientTransform="matrix(0.413041,0.000766015,0.140626,-0.111483,-295.289249,17.902869)">
<stop offset="0" style="stop-color:rgb(80.392157%,69.411765%,41.568627%);stop-opacity:1;"/>
<stop offset="0.0944" style="stop-color:rgb(67.843137%,61.568627%,37.254902%);stop-opacity:1;"/>
<stop offset="0.1416" style="stop-color:rgb(71.764706%,63.137255%,32.941176%);stop-opacity:1;"/>
<stop offset="0.1652" style="stop-color:rgb(76.078431%,53.72549%,27.843137%);stop-opacity:1;"/>
<stop offset="0.1888" style="stop-color:rgb(78.823529%,67.45098%,27.45098%);stop-opacity:1;"/>
<stop offset="0.1888" style="stop-color:rgb(75.294118%,53.72549%,12.156863%);stop-opacity:1;"/>
<stop offset="0.1888" style="stop-color:rgb(72.941176%,53.333333%,22.745098%);stop-opacity:1;"/>
<stop offset="0.1888" style="stop-color:rgb(74.117647%,66.27451%,46.27451%);stop-opacity:1;"/>
<stop offset="0.7132" style="stop-color:rgb(77.254902%,67.843137%,29.019608%);stop-opacity:1;"/>
<stop offset="0.7263" style="stop-color:rgb(80.392157%,66.27451%,33.333333%);stop-opacity:1;"/>
<stop offset="0.7263" style="stop-color:rgb(83.529412%,67.843137%,26.27451%);stop-opacity:1;"/>
<stop offset="0.7394" style="stop-color:rgb(84.313725%,63.137255%,23.529412%);stop-opacity:1;"/>
<stop offset="0.7525" style="stop-color:rgb(70.980392%,58.431373%,35.686275%);stop-opacity:1;"/>
<stop offset="0.7656" style="stop-color:rgb(74.509804%,70.588235%,34.901961%);stop-opacity:1;"/>
<stop offset="0.8173" style="stop-color:rgb(72.156863%,64.313725%,42.352941%);stop-opacity:1;"/>
<stop offset="0.869" style="stop-color:rgb(63.921569%,61.960784%,20.784314%);stop-opacity:1;"/>
<stop offset="1" style="stop-color:rgb(65.882353%,62.745098%,33.72549%);stop-opacity:1;"/>
</linearGradient>
<linearGradient id="linear10" gradientUnits="userSpaceOnUse" x1="861.95" y1="508.59" x2="864.96" y2="528.35" gradientTransform="matrix(-0.00000904486,0.413758,-0.14147,0.111674,172.653368,-391.171128)">
<stop offset="0" style="stop-color:rgb(80.392157%,69.411765%,41.568627%);stop-opacity:1;"/>
<stop offset="0.0944" style="stop-color:rgb(67.843137%,61.568627%,37.254902%);stop-opacity:1;"/>
<stop offset="0.1416" style="stop-color:rgb(71.764706%,63.137255%,32.941176%);stop-opacity:1;"/>
<stop offset="0.1652" style="stop-color:rgb(76.078431%,53.72549%,27.843137%);stop-opacity:1;"/>
<stop offset="0.1888" style="stop-color:rgb(78.823529%,67.45098%,27.45098%);stop-opacity:1;"/>
<stop offset="0.1888" style="stop-color:rgb(75.294118%,53.72549%,12.156863%);stop-opacity:1;"/>
<stop offset="0.1888" style="stop-color:rgb(72.941176%,53.333333%,22.745098%);stop-opacity:1;"/>
<stop offset="0.1888" style="stop-color:rgb(74.117647%,66.27451%,46.27451%);stop-opacity:1;"/>
<stop offset="0.7132" style="stop-color:rgb(77.254902%,67.843137%,29.019608%);stop-opacity:1;"/>
<stop offset="0.7263" style="stop-color:rgb(80.392157%,66.27451%,33.333333%);stop-opacity:1;"/>
<stop offset="0.7263" style="stop-color:rgb(83.529412%,67.843137%,26.27451%);stop-opacity:1;"/>
<stop offset="0.7394" style="stop-color:rgb(84.313725%,63.137255%,23.529412%);stop-opacity:1;"/>
<stop offset="0.7525" style="stop-color:rgb(70.980392%,58.431373%,35.686275%);stop-opacity:1;"/>
<stop offset="0.7656" style="stop-color:rgb(74.509804%,70.588235%,34.901961%);stop-opacity:1;"/>
<stop offset="0.8173" style="stop-color:rgb(72.156863%,64.313725%,42.352941%);stop-opacity:1;"/>
<stop offset="0.869" style="stop-color:rgb(63.921569%,61.960784%,20.784314%);stop-opacity:1;"/>
<stop offset="1" style="stop-color:rgb(65.882353%,62.745098%,33.72549%);stop-opacity:1;"/>
</linearGradient>
<linearGradient id="linear11" gradientUnits="userSpaceOnUse" x1="1345.8" y1="-403.68" x2="1352.3" y2="-404.12" gradientTransform="matrix(0.413041,0.000766015,0.140626,-0.111483,-468.555399,-38.377361)">
<stop offset="0" style="stop-color:rgb(80.392157%,69.411765%,41.568627%);stop-opacity:1;"/>
<stop offset="0.0944" style="stop-color:rgb(67.843137%,61.568627%,37.254902%);stop-opacity:1;"/>
<stop offset="0.1416" style="stop-color:rgb(71.764706%,63.137255%,32.941176%);stop-opacity:1;"/>
<stop offset="0.1652" style="stop-color:rgb(76.078431%,53.72549%,27.843137%);stop-opacity:1;"/>
<stop offset="0.1888" style="stop-color:rgb(78.823529%,67.45098%,27.45098%);stop-opacity:1;"/>
<stop offset="0.1888" style="stop-color:rgb(75.294118%,53.72549%,12.156863%);stop-opacity:1;"/>
<stop offset="0.1888" style="stop-color:rgb(72.941176%,53.333333%,22.745098%);stop-opacity:1;"/>
<stop offset="0.1888" style="stop-color:rgb(74.117647%,66.27451%,46.27451%);stop-opacity:1;"/>
<stop offset="0.7132" style="stop-color:rgb(77.254902%,67.843137%,29.019608%);stop-opacity:1;"/>
<stop offset="0.7263" style="stop-color:rgb(80.392157%,66.27451%,33.333333%);stop-opacity:1;"/>
<stop offset="0.7263" style="stop-color:rgb(83.529412%,67.843137%,26.27451%);stop-opacity:1;"/>
<stop offset="0.7394" style="stop-color:rgb(84.313725%,63.137255%,23.529412%);stop-opacity:1;"/>
<stop offset="0.7525" style="stop-color:rgb(70.980392%,58.431373%,35.686275%);stop-opacity:1;"/>
<stop offset="0.7656" style="stop-color:rgb(74.509804%,70.588235%,34.901961%);stop-opacity:1;"/>
<stop offset="0.8173" style="stop-color:rgb(72.156863%,64.313725%,42.352941%);stop-opacity:1;"/>
<stop offset="0.869" style="stop-color:rgb(63.921569%,61.960784%,20.784314%);stop-opacity:1;"/>
<stop offset="1" style="stop-color:rgb(65.882353%,62.745098%,33.72549%);stop-opacity:1;"/>
</linearGradient>
<clipPath id="clip11">
  <rect x="0" y="0" width="157" height="150"/>
</clipPath>
<g id="surface35" clip-path="url(#clip11)">
<path style=" stroke:none;fill-rule:nonzero;fill:rgb(14.117647%,28.235294%,63.921569%);fill-opacity:1;" d="M 37.746094 58.390625 C 34.019531 55.386719 32.257812 50.152344 32.257812 46.238281 C 32.257812 41.550781 33.917969 37.316406 37.445312 33.902344 C 40.3125 31.128906 44.492188 28.988281 50.738281 28.988281 C 55.320312 28.988281 59.09375 30.035156 60.855469 30.898438 C 61.5625 31.21875 61.8125 31.171875 61.914062 30.855469 L 62.316406 29.714844 C 62.417969 29.441406 62.519531 29.441406 63.273438 29.441406 C 64.03125 29.441406 64.128906 29.535156 64.128906 30.171875 C 64.128906 31.035156 65.035156 38.773438 65.289062 40.140625 C 65.339844 40.457031 65.289062 40.683594 65.035156 40.730469 L 63.929688 41.003906 C 63.675781 41.09375 63.476562 40.914062 63.324219 40.503906 C 62.769531 38.683594 61.410156 36.363281 59.296875 34.40625 C 57.132812 32.492188 54.460938 30.992188 50.636719 30.992188 C 43.285156 30.992188 40.164062 37.042969 40.214844 43.78125 C 40.214844 46.648438 41.121094 52.246094 44.695312 55.660156 C 47.96875 58.710938 50.835938 59.074219 52.550781 59.074219 C 58.289062 59.074219 62.570312 56.707031 64.433594 54.203125 C 64.683594 53.839844 64.9375 53.660156 65.1875 53.839844 L 66.042969 54.523438 C 66.195312 54.613281 66.246094 54.796875 66.042969 55.070312 C 63.121094 58.894531 58.238281 62.582031 51.140625 62.582031 C 44.433594 62.578125 40.910156 60.941406 37.738281 58.390625 Z M 37.746094 58.390625 "/>
</g>
<clipPath id="clip12">
  <rect x="0" y="0" width="157" height="150"/>
</clipPath>
<g id="surface38" clip-path="url(#clip12)">
<path style=" stroke:none;fill-rule:nonzero;fill:rgb(14.117647%,28.235294%,63.921569%);fill-opacity:1;" d="M 44.425781 10.539062 C 41.496094 9.890625 41.121094 8.761719 42.160156 7.917969 C 43.402344 6.90625 46.183594 5.992188 50.613281 5.257812 C 54.21875 4.65625 58.964844 4.195312 65.207031 4.195312 C 69.789062 4.195312 73.289062 4.421875 74.824219 4.609375 C 75.441406 4.675781 75.707031 4.667969 75.890625 4.597656 L 76.597656 4.351562 C 76.769531 4.292969 76.871094 4.292969 77.625 4.292969 C 78.382812 4.292969 78.457031 4.3125 78.289062 4.453125 C 78.058594 4.636719 76.914062 6.308594 76.804688 6.601562 C 76.773438 6.671875 76.660156 6.71875 76.398438 6.730469 L 75.21875 6.789062 C 74.941406 6.808594 74.789062 6.769531 74.746094 6.679688 C 74.675781 6.285156 73.929688 5.785156 72.335938 5.363281 C 70.675781 4.953125 68.40625 4.628906 64.578125 4.628906 C 57.226562 4.628906 52.5 5.933594 50.765625 7.386719 C 50.003906 8.003906 49.429688 9.210938 52.097656 9.949219 C 54.5625 10.605469 57.335938 10.683594 59.046875 10.683594 C 64.789062 10.683594 69.695312 10.175781 72.222656 9.632812 C 72.570312 9.554688 72.871094 9.515625 73.074219 9.554688 L 73.75 9.703125 C 73.875 9.722656 73.878906 9.761719 73.605469 9.820312 C 69.671875 10.644531 63.808594 11.441406 56.710938 11.441406 C 50.015625 11.445312 46.925781 11.085938 44.429688 10.539062 Z M 44.425781 10.539062 "/>
</g>
<clipPath id="clip13">
  <rect x="0" y="0" width="157" height="150"/>
</clipPath>
<g id="surface41" clip-path="url(#clip13)">
<path style=" stroke:none;fill-rule:nonzero;fill:rgb(14.117647%,28.235294%,63.921569%);fill-opacity:1;" d="M 84.761719 53.578125 C 83.648438 51.59375 83.207031 46.84375 83.296875 42.929688 C 83.398438 38.238281 84.019531 33.550781 85.210938 29.171875 C 86.183594 25.609375 87.554688 22.328125 89.53125 20.617188 C 90.980469 19.363281 92.152344 19.378906 92.691406 19.761719 C 92.90625 19.886719 92.988281 19.769531 93.027344 19.425781 L 93.179688 18.175781 C 93.21875 17.875 93.25 17.847656 93.488281 17.640625 C 93.726562 17.433594 93.757812 17.5 93.742188 18.136719 C 93.722656 19 93.835938 26.492188 93.886719 27.789062 C 93.894531 28.09375 93.875 28.332031 93.792969 28.449219 L 93.4375 29.023438 C 93.355469 29.183594 93.296875 29.058594 93.257812 28.6875 C 93.121094 27.019531 92.742188 25.070312 92.117188 23.691406 C 91.476562 22.371094 90.664062 21.601562 89.453125 22.648438 C 87.125 24.660156 86.003906 31.570312 85.867188 38.292969 C 85.804688 41.160156 85.964844 46.511719 87.019531 48.945312 C 87.988281 51.101562 88.890625 50.679688 89.429688 50.210938 C 91.246094 48.640625 92.65625 45.101562 93.300781 42.085938 C 93.386719 41.652344 93.472656 41.402344 93.546875 41.515625 L 93.804688 41.964844 C 93.847656 42.015625 93.863281 42.183594 93.792969 42.511719 C 92.78125 47.132812 91.152344 52.15625 88.90625 54.101562 C 86.785156 55.9375 85.707031 55.265625 84.757812 53.582031 Z M 84.761719 53.578125 "/>
</g>
<mask id="mask4">
  <g filter="url(#alpha)">
<rect x="0" y="0" width="157" height="150" style="fill:rgb(0%,0%,0%);fill-opacity:0.388235;stroke:none;"/>
  </g>
</mask>
<clipPath id="clip14">
  <rect x="0" y="0" width="157" height="150"/>
</clipPath>
<g id="surface44" clip-path="url(#clip14)">
<path style=" stroke:none;fill-rule:nonzero;fill:rgb(0%,0%,0%);fill-opacity:1;" d="M 77.863281 16.261719 L 77.863281 75.117188 L 97.984375 59.234375 L 97.984375 0.378906 Z M 77.863281 16.261719 "/>
</g>
<mask id="mask5">
  <g filter="url(#alpha)">
<rect x="0" y="0" width="157" height="150" style="fill:rgb(0%,0%,0%);fill-opacity:0.152941;stroke:none;"/>
  </g>
</mask>
<clipPath id="clip15">
  <rect x="0" y="0" width="157" height="150"/>
</clipPath>
<g id="surface47" clip-path="url(#clip15)">
<path style=" stroke:none;fill-rule:nonzero;fill:rgb(0%,0%,0%);fill-opacity:1;" d="M 40.015625 0 L 98.550781 0.105469 L 78.621094 15.910156 L 20.089844 15.800781 Z M 40.015625 0 "/>
</g>
</defs>
<g id="surface1">
<path style=" stroke:none;fill-rule:nonzero;fill:url(#linear0);" d="M 0.101562 90.90625 L 58.621094 90.90625 L 58.621094 149.90625 L 0.101562 149.90625 Z M 0.101562 90.90625 "/>
<path style=" stroke:none;fill-rule:nonzero;fill:url(#linear1);" d="M 20.027344 75.109375 L 78.558594 75.21875 L 58.625 91.023438 L 0.09375 90.914062 Z M 20.027344 75.109375 "/>
<path style=" stroke:none;fill-rule:nonzero;fill:url(#linear2);" d="M 58.445312 91.078125 L 58.445312 149.933594 L 78.570312 134.050781 L 78.570312 75.195312 Z M 58.445312 91.078125 "/>
<path style=" stroke:none;fill-rule:nonzero;fill:rgb(0%,59.607843%,8.235294%);fill-opacity:1;" d="M 7.214844 93.675781 C 4.871094 93.675781 2.980469 95.566406 2.980469 97.925781 L 2.980469 141.988281 C 2.980469 144.34375 4.871094 146.234375 7.214844 146.234375 L 51.519531 146.234375 C 53.859375 146.234375 55.75 144.34375 55.75 141.988281 L 55.75 97.925781 C 55.75 95.566406 53.859375 93.675781 51.519531 93.675781 Z M 11.441406 98.351562 L 46.785156 98.351562 C 49.128906 98.351562 51.019531 100.242188 51.019531 102.601562 L 51.019531 137.140625 C 51.019531 139.496094 49.128906 141.386719 46.785156 141.386719 L 11.441406 141.386719 C 9.097656 141.386719 7.214844 139.496094 7.214844 137.140625 L 7.214844 102.601562 C 7.214844 100.246094 9.09375 98.351562 11.441406 98.351562 Z M 11.441406 98.351562 "/>
<path style=" stroke:none;fill-rule:nonzero;fill:url(#linear3);" d="M 20.027344 75.109375 L 78.558594 75.21875 L 58.625 91.023438 L 0.09375 90.914062 Z M 20.027344 75.109375 "/>
<path style=" stroke:none;fill-rule:nonzero;fill:rgb(0%,59.607843%,8.235294%);fill-opacity:1;" d="M 24.875 76.75 C 22.5625 76.75 20.164062 77.195312 19.503906 77.753906 L 7.113281 88.160156 C 6.449219 88.714844 7.78125 89.164062 10.09375 89.164062 L 53.8125 89.164062 C 56.125 89.164062 58.523438 88.714844 59.183594 88.160156 L 71.574219 77.753906 C 72.238281 77.195312 70.90625 76.75 68.59375 76.75 Z M 27.726562 77.855469 L 62.609375 77.855469 C 64.917969 77.855469 66.253906 78.300781 65.589844 78.859375 L 55.878906 87.011719 C 55.214844 87.570312 52.816406 88.015625 50.507812 88.015625 L 15.625 88.015625 C 13.316406 88.015625 11.992188 87.570312 12.652344 87.011719 L 22.367188 78.855469 C 23.027344 78.300781 25.417969 77.855469 27.726562 77.855469 Z M 27.726562 77.855469 "/>
<path style=" stroke:none;fill-rule:nonzero;fill:rgb(0%,59.607843%,8.235294%);fill-opacity:1;" d="M 60.980469 96.175781 C 60.972656 93.800781 61.539062 91.4375 62.25 90.878906 L 75.515625 80.425781 C 76.222656 79.867188 76.796875 81.332031 76.800781 83.707031 L 76.894531 128.597656 C 76.898438 130.96875 76.335938 133.332031 75.625 133.894531 L 62.359375 144.347656 C 61.652344 144.90625 61.078125 143.441406 61.070312 141.066406 Z M 62.394531 99.347656 L 62.46875 135.160156 C 62.476562 137.535156 63.046875 139 63.757812 138.441406 L 74.15625 130.246094 C 74.863281 129.6875 75.429688 127.324219 75.425781 124.949219 L 75.351562 89.136719 C 75.347656 86.761719 74.773438 85.304688 74.0625 85.863281 L 63.667969 94.058594 C 62.960938 94.621094 62.390625 96.976562 62.394531 99.351562 Z M 62.394531 99.347656 "/>
<use xlink:href="#surface5"/>
<use xlink:href="#surface8"/>
<use xlink:href="#surface11"/>
<use xlink:href="#surface14" mask="url(#mask0)"/>
<use xlink:href="#surface17" mask="url(#mask1)"/>
<path style=" stroke:none;fill-rule:nonzero;fill:url(#linear4);" d="M 78.4375 74.878906 L 136.953125 74.878906 L 136.953125 133.878906 L 78.4375 133.878906 Z M 78.4375 74.878906 "/>
<path style=" stroke:none;fill-rule:nonzero;fill:url(#linear5);" d="M 98.359375 59.085938 L 156.878906 59.195312 L 136.960938 74.996094 L 78.425781 74.886719 Z M 98.359375 59.085938 "/>
<path style=" stroke:none;fill-rule:nonzero;fill:url(#linear6);" d="M 136.78125 75.054688 L 136.78125 133.90625 L 156.90625 118.023438 L 156.90625 59.167969 Z M 136.78125 75.054688 "/>
<path style=" stroke:none;fill-rule:nonzero;fill:rgb(79.215686%,9.411765%,0%);fill-opacity:1;" d="M 85.550781 77.648438 C 83.207031 77.648438 81.316406 79.542969 81.316406 81.898438 L 81.316406 125.960938 C 81.316406 128.316406 83.207031 130.210938 85.550781 130.210938 L 129.855469 130.210938 C 132.195312 130.210938 134.085938 128.316406 134.085938 125.960938 L 134.085938 81.898438 C 134.085938 79.542969 132.195312 77.648438 129.855469 77.648438 Z M 89.773438 82.324219 L 125.117188 82.324219 C 127.460938 82.324219 129.351562 84.21875 129.351562 86.574219 L 129.351562 121.113281 C 129.351562 123.46875 127.460938 125.363281 125.117188 125.363281 L 89.773438 125.363281 C 87.429688 125.363281 85.550781 123.46875 85.550781 121.113281 L 85.550781 86.574219 C 85.550781 84.21875 87.429688 82.324219 89.773438 82.324219 Z M 89.773438 82.324219 "/>
<path style=" stroke:none;fill-rule:nonzero;fill:url(#linear7);" d="M 98.359375 59.085938 L 156.878906 59.195312 L 136.960938 74.996094 L 78.425781 74.886719 Z M 98.359375 59.085938 "/>
<path style=" stroke:none;fill-rule:nonzero;fill:rgb(79.215686%,9.411765%,0%);fill-opacity:1;" d="M 103.207031 60.722656 C 100.894531 60.722656 98.5 61.171875 97.835938 61.726562 L 85.445312 72.132812 C 84.78125 72.691406 86.117188 73.136719 88.425781 73.136719 L 132.144531 73.136719 C 134.457031 73.136719 136.855469 72.691406 137.519531 72.132812 L 149.910156 61.726562 C 150.570312 61.171875 149.238281 60.722656 146.925781 60.722656 L 103.195312 60.722656 Z M 106.058594 61.828125 L 140.941406 61.828125 C 143.253906 61.828125 144.585938 62.277344 143.921875 62.832031 L 134.210938 70.988281 C 133.546875 71.546875 131.148438 71.992188 128.839844 71.992188 L 93.957031 71.992188 C 91.648438 71.992188 90.324219 71.546875 90.984375 70.988281 L 100.699219 62.832031 C 101.359375 62.273438 103.75 61.828125 106.058594 61.828125 Z M 106.058594 61.828125 "/>
<path style=" stroke:none;fill-rule:nonzero;fill:rgb(79.215686%,9.411765%,0%);fill-opacity:1;" d="M 139.3125 80.148438 C 139.308594 77.777344 139.871094 75.414062 140.582031 74.855469 L 153.847656 64.398438 C 154.554688 63.839844 155.128906 65.304688 155.136719 67.679688 L 155.226562 112.570312 C 155.234375 114.941406 154.667969 117.308594 153.957031 117.867188 L 140.691406 128.320312 C 139.984375 128.878906 139.410156 127.414062 139.40625 125.042969 L 139.355469 80.148438 Z M 140.730469 83.320312 L 140.804688 119.132812 C 140.808594 121.507812 141.382812 122.972656 142.089844 122.414062 L 152.488281 114.21875 C 153.199219 113.660156 153.765625 111.296875 153.757812 108.921875 L 153.683594 73.109375 C 153.679688 70.738281 153.105469 69.277344 152.398438 69.835938 L 142 78.03125 C 141.269531 78.589844 140.703125 80.945312 140.703125 83.320312 Z M 140.730469 83.320312 "/>
<use xlink:href="#surface20"/>
<use xlink:href="#surface23"/>
<use xlink:href="#surface26"/>
<use xlink:href="#surface29" mask="url(#mask2)"/>
<use xlink:href="#surface32" mask="url(#mask3)"/>
<path style=" stroke:none;fill-rule:nonzero;fill:url(#linear8);" d="M 19.738281 16.089844 L 78.257812 16.089844 L 78.257812 75.089844 L 19.738281 75.089844 Z M 19.738281 16.089844 "/>
<path style=" stroke:none;fill-rule:nonzero;fill:url(#linear9);" d="M 39.660156 0.296875 L 98.191406 0.40625 L 78.265625 16.207031 L 19.730469 16.097656 Z M 39.660156 0.296875 "/>
<path style=" stroke:none;fill-rule:nonzero;fill:url(#linear10);" d="M 78.085938 16.265625 L 78.085938 75.117188 L 98.207031 59.234375 L 98.210938 0.378906 Z M 78.085938 16.265625 "/>
<path style=" stroke:none;fill-rule:nonzero;fill:rgb(14.117647%,28.235294%,63.921569%);fill-opacity:1;" d="M 26.851562 18.859375 C 24.507812 18.859375 22.621094 20.753906 22.621094 23.109375 L 22.621094 67.171875 C 22.621094 69.527344 24.507812 71.421875 26.851562 71.421875 L 71.15625 71.421875 C 73.496094 71.421875 75.386719 69.527344 75.386719 67.171875 L 75.386719 23.109375 C 75.386719 20.753906 73.496094 18.859375 71.15625 18.859375 Z M 31.074219 23.535156 L 66.421875 23.535156 C 68.761719 23.535156 70.652344 25.429688 70.652344 27.785156 L 70.652344 62.324219 C 70.652344 64.679688 68.761719 66.574219 66.421875 66.574219 L 31.074219 66.574219 C 28.734375 66.574219 26.851562 64.679688 26.851562 62.324219 L 26.851562 27.785156 C 26.851562 25.429688 28.734375 23.535156 31.074219 23.535156 Z M 31.074219 23.535156 "/>
<path style=" stroke:none;fill-rule:nonzero;fill:url(#linear11);" d="M 39.660156 0.296875 L 98.191406 0.40625 L 78.265625 16.207031 L 19.730469 16.097656 Z M 39.660156 0.296875 "/>
<path style=" stroke:none;fill-rule:nonzero;fill:rgb(14.117647%,28.235294%,63.921569%);fill-opacity:1;" d="M 44.511719 1.933594 C 42.199219 1.933594 39.804688 2.382812 39.140625 2.9375 L 26.75 13.34375 C 26.085938 13.902344 27.421875 14.347656 29.730469 14.347656 L 73.449219 14.347656 C 75.761719 14.347656 78.160156 13.902344 78.824219 13.34375 L 91.214844 2.9375 C 91.875 2.382812 90.542969 1.933594 88.230469 1.933594 Z M 47.363281 3.035156 L 82.246094 3.035156 C 84.558594 3.035156 85.890625 3.484375 85.226562 4.039062 L 75.515625 12.199219 C 74.851562 12.753906 72.453125 13.199219 70.144531 13.199219 L 35.261719 13.199219 C 32.953125 13.199219 31.628906 12.753906 32.289062 12.199219 L 42.003906 4.039062 C 42.664062 3.484375 45.054688 3.035156 47.363281 3.035156 Z M 47.363281 3.035156 "/>
<path style=" stroke:none;fill-rule:nonzero;fill:rgb(14.117647%,28.235294%,63.921569%);fill-opacity:1;" d="M 80.617188 21.359375 C 80.613281 18.988281 81.175781 16.625 81.886719 16.0625 L 95.152344 5.609375 C 95.859375 5.050781 96.433594 6.515625 96.441406 8.890625 L 96.53125 53.78125 C 96.539062 56.15625 95.972656 58.519531 95.261719 59.078125 L 81.996094 69.53125 C 81.289062 70.089844 80.714844 68.625 80.710938 66.253906 Z M 82.035156 24.53125 L 82.109375 60.34375 C 82.113281 62.71875 82.6875 64.183594 83.394531 63.625 L 93.792969 55.429688 C 94.503906 54.871094 95.066406 52.507812 95.0625 50.132812 L 94.988281 14.320312 C 94.984375 11.945312 94.410156 10.488281 93.703125 11.046875 L 83.304688 19.242188 C 82.59375 19.800781 82.027344 22.15625 82.035156 24.53125 Z M 82.035156 24.53125 "/>
<use xlink:href="#surface35"/>
<use xlink:href="#surface38"/>
<use xlink:href="#surface41"/>
<use xlink:href="#surface44" mask="url(#mask4)"/>
<use xlink:href="#surface47" mask="url(#mask5)"/>
</g>
</svg>
