<?xml version="1.0" encoding="UTF-8"?>
<svg id="Layer_1" data-name="Layer 1" xmlns="http://www.w3.org/2000/svg" viewBox="0 0 1224 1224">
  <defs>
    <style>
      .cry-cls-1 {
        fill: #f8c29c;
      }

      .cry-cls-1, .cry-cls-2, .cry-cls-3, .cry-cls-4, .cry-cls-5, .cry-cls-6, .cry-cls-7, .cry-cls-8, .cry-cls-9, .cry-cls-10, .cry-cls-11, .cry-cls-12, .cry-cls-13, .cry-cls-14, .cry-cls-15, .cry-cls-16, .cry-cls-17, .cry-cls-18, .cry-cls-19, .cry-cls-20, .cry-cls-21, .cry-cls-22 {
        stroke-width: 0px;
      }

      .cry-cls-2 {
        fill: #4a929c;
      }

      .cry-cls-3 {
        fill: #722928;
      }

      .cry-cls-4 {
        fill: #550e1c;
      }

      .cry-cls-5 {
        fill: #a34b49;
      }

      .cry-cls-6 {
        fill: #395d78;
      }

      .cry-cls-7 {
        fill: #196f81;
      }

      .cry-cls-8 {
        fill: #08161b;
      }

      .cry-cls-9 {
        fill: #3f7490;
      }

      .cry-cls-10 {
        fill: #0b192b;
      }

      .cry-cls-11 {
        fill: #062e4e;
      }

      .cry-cls-12 {
        fill: #c7d2d1;
      }

      .cry-cls-13 {
        fill: #d63d3d;
      }

      .cry-cls-14 {
        fill: #bf6457;
      }

      .cry-cls-15 {
        fill: #cde5e7;
      }

      .cry-cls-16 {
        fill: #923b36;
      }

      .cry-cls-17 {
        fill: #331015;
      }

      .cry-cls-18 {
        fill: #7c8899;
      }

      .cry-cls-19 {
        fill: #fdfdfd;
      }

      .cry-cls-20 {
        fill: #72b1b5;
      }

      .cry-cls-21 {
        fill: #fafbfc;
      }

      .cry-cls-22 {
        fill: #045360;
      }
    </style>
  </defs>
  <g>
    <g>
      <path class="cry-cls-21" d="m572.55,961.03q5.38-13.15,10.76-26.3c36.81,6.65,99.82-1.19,124.31-32.87,12.66-16.37,9.06-24.64,9.56-28.09l26.89,5.98c5.45,3.76-11.24,34.95-14.94,40.04-33.73,46.36-105.36,55.39-156.59,41.24Z"/>
      <path class="cry-cls-18" d="m513.98,874.97c6.33,30.6,39.94,54.46,69.33,59.77q-5.38,13.15-10.76,26.3c-1.32-.36-3.55.39-4.78,0-36.08-11.46-70.93-41.8-80.09-79.49l26.3-6.57Z"/>
    </g>
    <g>
      <path class="cry-cls-15" d="m993.3,1106.86c-41.8,2.14-83.68.98-125.51,2.39,6.16-.94,5.18,1.93,11.95-5.38,10.25-11.08,18.93-47.84,12.55-50.8-11.36-5.27-8.62,13.11-14.94,29.29-4.94,12.64-17.36,23.33-14.34,26.89-3.39.63-3.97-1.24-4.18-1.2-10.61,2.26-49.42,17.06-74.11,22.71-131.17,30.03-277.27,12.96-405.81-22.71-4.74-6.64-14.56-21.34-16.73-28.09-5.96-18.45-.51-33.76-10.16-32.87-13.8,1.27.59,56.28,12.55,60.96-43.78,0-87.74,1.28-131.48-1.2,3.88-17.44,10.07-33.67,16.73-50.2,92.46-27.54,188.4-41.21,280.9-68.13,90.54,43.85,226.95,15.59,252.21-91.44-.02-6.23,39.95,10.62,49.61,14.94,91.5,40.94,133.95,99.51,160.77,194.84Z"/>
      <path class="cry-cls-11" d="m993.3,1106.86c-26.82-95.33-69.27-153.9-160.77-194.84-9.66-4.32-49.62-21.17-49.61-14.94-25.26,107.03-161.67,135.29-252.21,91.44-.81-.39-1.59-.79-2.39-1.2,13.13-2.03,28.78-16.85,39.45-26.3,1.23.39,3.46-.36,4.78,0,51.23,14.16,122.85,5.12,156.59-41.24,3.71-5.09,20.39-36.29,14.94-40.04l-26.89-5.98c.62-4.3,1.91-8.84,2.39-13.15,145.86,33.92,253.68,90.64,286.28,247.43-3.65,1.21-11.92-1.23-12.55-1.2Z"/>
      <path class="cry-cls-10" d="m511.59,861.82c3.79,3.76,1.52,8.94,2.39,13.15l-26.3,6.57c9.15,37.69,44.01,68.03,80.09,79.49-10.67,9.45-26.32,24.27-39.45,26.3-3.56-1.8-5.69-2.23-5.98-2.39-35.3-19.53-62.74-54.55-73.51-93.23-35.42,11.2-69.29,24.8-101,44.23-51.81,31.74-75.5,64.87-98.02,120.73-6.66,16.53-12.85,32.76-16.73,50.2-.63-.04-4,2.1-12.55,1.2-.12-.89-1.74-2.74-1.79-2.99-.68-3.41,19.58-58.59,22.71-65.74,50.15-114.77,155.55-153.5,270.14-177.5Z"/>
      <path class="cry-cls-11" d="m378.91,1108.05h-14.34c-11.96-4.68-26.35-59.69-12.55-60.96,9.65-.89,4.2,14.42,10.16,32.87,2.18,6.75,11.99,21.45,16.73,28.09Z"/>
      <path class="cry-cls-11" d="m867.8,1109.25c-1.53.23-3.27-.28-4.78,0-3.02-3.57,9.4-14.25,14.34-26.89,6.32-16.17,3.58-34.56,14.94-29.29,6.38,2.96-2.3,39.72-12.55,50.8-6.77,7.31-5.79,4.44-11.95,5.38Z"/>
      <g>
        <path class="cry-cls-9" d="m347.84,935.93c58.57,13.52,115.08,34.48,172.72,51.4l1.79-2.39c.28.16,2.42.59,5.98,2.39.8.4,1.58.8,2.39,1.2-92.5,26.92-188.44,40.59-280.9,68.13,22.51-55.86,46.2-88.99,98.02-120.73Z"/>
        <path class="cry-cls-6" d="m522.35,984.94l-1.79,2.39c-57.64-16.92-114.15-37.88-172.72-51.4,31.71-19.43,65.59-33.02,101-44.23,10.77,38.69,38.21,73.7,73.51,93.23Z"/>
      </g>
    </g>
    <g>
      <path class="cry-cls-16" d="m510.4,793.69c-9.14,15.62-4.62,7.08-23.91-8.37-32.02-39.88-49.81-85.25-57.37-135.67-49.29,43-98.91-83.51-63.35-106.98-21.49,35.94,19.67,109.65,49.61,106.38,21.2-2.31,5.06-23.02,8.96-35.26,11.56,58.13,46.43,135.5,86.06,179.89Z"/>
      <path class="cry-cls-14" d="m805.64,647.86c.34-1.18,1.33-2.37,1.79-3.59,3.03.9,3.11,2.83,6.57,3.59,4.42.97,7.64,3.05,12.55,2.39,30.71-4.1,62.57-79.9,47.21-107.58,26.5,28.87-20.16,149.65-68.13,105.19Z"/>
      <path class="cry-cls-17" d="m837.91,527.13c-1.02,2.61-2.35,5.48-2.39,8.37-8.72,2.02-24.4,34.32-29.29,43.03-.01-13.19,1.82-26.24,1.79-39.45,21.52-14.5,28.53-46.93,29.88-11.95Z"/>
      <g>
        <path class="cry-cls-17" d="m701.65,320.34c-64.39,37.95-146.28,36.54-218.14,26.3-2.58,1.48-3.24,5.05-4.18,5.98-48.69,47.8-55.97,169.33-52.59,233.68-11.85-13.79-16.45-34.4-32.27-46.02-11.78-46.93-68.54-198.25-16.14-229.5,15.49-9.24,32.69-2.07,32.87-5.38-13.08-19.07-11.79-40.86-3.59-61.56,17.57,40.72,52.59,74.96,96.22,86.06,54.36,13.84,138.03,8.24,190.05-13.15,18.84-7.75,34.53-22.18,7.77,3.59Z"/>
        <g>
          <path class="cry-cls-3" d="m837.91,527.13c-1.36-34.98-8.36-2.55-29.88,11.95-.11-51.78-13.06-138.84-44.23-181.09-14.01-18.99-24.36-24.2-46.62-29.29,2.22-2.53,23.5-35.86,20.92-37.05q-17.63,16.73-35.26,33.47c-.53-1.52,1.06-4.71-1.2-4.78,26.76-25.76,11.07-11.33-7.77-3.59-52.03,21.39-135.7,26.99-190.05,13.15-43.63-11.11-78.65-45.34-96.22-86.06,8.85-22.31,34.96-46.34,49.61-27.49,13.51-54.44,141.39-61.07,179.3-31.08,59.62-32.11,158.51-3.66,161.96,72.32,110.58,10.79,66.02,201.22,39.45,269.54Z"/>
          <path class="cry-cls-4" d="m717.19,328.71c-2.45-.56-11.96-.59-13.15-1.2-1.96-1-.8-1.26-1.2-2.39q17.63-16.73,35.26-33.47c2.58,1.2-18.7,34.52-20.92,37.05Z"/>
        </g>
      </g>
      <g>
        <path class="cry-cls-14" d="m723.16,817.59c-.82,1.47-1.04,1.8-1.2,3.59-35.84,48.57-86.54,84.24-138.66,113.55-29.39-5.3-63-29.17-69.33-59.77-.87-4.21,1.4-9.38-2.39-13.15q.6-20.92,1.2-41.84c47.44,57.45,96.94,79.34,163.16,33.47,4.47-3.09,13.21-12.49,17.33-15.54,7.6-5.62,14.82-11.92,22.11-17.93,2.28-1.88,7.45-2.13,7.77-2.39Z"/>
        <path class="cry-cls-1" d="m719.58,860.63c-.48,4.31-1.77,8.84-2.39,13.15-.5,3.45,3.09,11.72-9.56,28.09-24.49,31.68-87.5,39.52-124.31,32.87,52.12-29.32,102.82-64.98,138.66-113.55-1.03,12.2-1.08,27.65-2.39,39.45Z"/>
        <path class="cry-cls-16" d="m686.11,835.52c.29.24,6.39,2.33,7.17,2.39-4.12,3.05-12.87,12.44-17.33,15.54-66.22,45.87-115.72,23.98-163.16-33.47v-5.98c51.86,44.48,112.76,61.16,173.32,21.52Z"/>
        <path class="cry-cls-3" d="m510.4,793.69c15.24,17.07,39.77,37.4,62.16,41.84,35.58,16.63,76.67,12.88,111.16-4.78-.31,1.39,1.57,4.1,2.39,4.78-60.56,39.64-121.46,22.97-173.32-21.52-10.15-8.7-17.97-18.32-26.3-28.69,19.29,15.44,14.76,23.99,23.91,8.37Z"/>
        <path class="cry-cls-5" d="m701.65,320.34c2.26.07.66,3.26,1.2,4.78.4,1.13-.76,1.39,1.2,2.39-50.77,28.46-119.62,36.61-176.91,32.27-16.12-1.22-32.01-3.81-47.81-7.17.94-.93,1.61-4.5,4.18-5.98,71.86,10.25,153.75,11.65,218.14-26.3Z"/>
        <g>
          <path class="cry-cls-14" d="m527.13,359.79q-11.36,47.21-22.71,94.43c-17.52,4.13-26.31,4.42-44.23.6,7.23,11.23,24.47,16.98,37.05,17.33q-2.99,27.49-5.98,54.98c-2.96,1.23-27.85,18.07-27.49,19.72q8.96,2.69,17.93,5.38c-22.5,46.28-19.22,157.27,13.15,212.17,13.97,23.7,52.85,59.5,77.7,71.12-22.39-4.43-46.92-24.77-62.16-41.84-39.64-44.39-74.5-121.76-86.06-179.89-3.9,12.24,12.23,32.95-8.96,35.26-29.93,3.27-71.1-70.44-49.61-106.38,11.26-7.44,16.66-3.73,28.69-2.39,15.83,11.62,20.42,32.23,32.27,46.02-3.38-64.36,3.9-185.88,52.59-233.68,15.8,3.36,31.69,5.95,47.81,7.17Z"/>
          <path class="cry-cls-4" d="m380.71,562.99c19.75-3.56,24.72,13.13,40.04,20.92,12.51,86.89-69.27,14.81-15.54-5.98-25.75-18.01-32.08,3.01-34.07,2.99-4.84-.06-1.81-15.88,9.56-17.93Z"/>
        </g>
        <g>
          <path class="cry-cls-16" d="m814.01,647.86c-3.46-.76-3.55-2.68-6.57-3.59-.46,1.22-1.45,2.4-1.79,3.59-.83,2.86-3.12,32.11-7.17,48.41-10.44,41.97-41.48,93.9-75.3,121.32-.32.26-5.49.51-7.77,2.39-7.3,6.01-14.51,12.31-22.11,17.93-.78-.06-6.88-2.15-7.17-2.39-.82-.69-2.7-3.39-2.39-4.78,69.71-35.7,123.75-143.28,123.12-220.54,4.5,13.14-6.03,27.76,7.17,37.65Z"/>
          <path class="cry-cls-4" d="m497.25,472.15c-12.58-.36-29.82-6.11-37.05-17.33,17.92,3.82,26.71,3.54,44.23-.6,40.53-9.56,58.94-47.14,49.01-12.55-5.74,20-37.62,31.01-56.18,30.48Z"/>
          <path class="cry-cls-10" d="m481.71,552.23q-8.96-2.69-17.93-5.38c-.36-1.65,24.53-18.49,27.49-19.72,39.88-16.55,64.95,12.06,60.96,28.09-4.4,17.68-10.52-7.27-11.95-9.56-13.2-21.08-47.6-15.99-58.57,6.57Z"/>
          <g>
            <path class="cry-cls-1" d="m717.19,328.71c22.26,5.08,32.61,10.3,46.62,29.29,31.17,42.25,44.12,129.31,44.23,181.09.03,13.2-1.8,26.25-1.79,39.45,4.88-8.71,20.57-41.01,29.29-43.03,12.53.67,28.76-3.16,38.25,7.17,15.35,27.67-16.51,103.47-47.21,107.58-4.92.66-8.13-1.42-12.55-2.39-13.21-9.89-2.67-24.51-7.17-37.65.63,77.26-53.41,184.84-123.12,220.54-34.49,17.67-75.59,21.41-111.16,4.78-24.85-11.62-63.72-47.43-77.7-71.12-32.37-54.9-35.65-165.88-13.15-212.17,10.97-22.57,45.37-27.66,58.57-6.57,1.44,2.3,7.55,27.25,11.95,9.56,3.99-16.03-21.08-44.64-60.96-28.09q2.99-27.49,5.98-54.98c18.56.52,50.44-10.48,56.18-30.48,9.93-34.59-8.47,2.99-49.01,12.55q11.36-47.21,22.71-94.43c57.29,4.34,126.13-3.81,176.91-32.27,1.19.61,10.7.64,13.15,1.2Z"/>
            <g>
              <path class="cry-cls-16" d="m839.71,559.41c6.37-.91,19.45,1.49,20.92,8.96,2.81,14.34-13.07-5.32-32.87,7.77-15.77,10.43,10.59-.04,13.75,11.36,3.25,11.75-7.63,37.18-19.72,35.26-7.38-1.17-17.61-26.74-13.75-40.04,1.44-4.97,25.96-22.49,31.68-23.31Z"/>
              <g>
                <path class="cry-cls-3" d="m673.56,423.14c10.07-1.41,64.35,67.25,109.37,35.26-12.65,31.53-71.41,23.16-93.83,7.77-18.57-12.74-28.13-41.27-15.54-43.03Z"/>
                <path class="cry-cls-3" d="m586.3,494.86c6.07-.31,11.18,37.88,10.16,55.58-1.92,33.42-20.39,52.12,5.38,57.97,40.7,9.24,38.67-12.86,40.64-14.34,8.18-6.14,10.19,16.62-3.59,22.71-6.28,2.78-28.68,3.39-35.86,2.39-42.57-5.89-11.22-37.39-14.94-97.42-.38-6.19-8.28-26.56-1.79-26.89Z"/>
                <path class="cry-cls-10" d="m705.83,522.35c26.67-2.8,40.59,21.25,59.77,20.32-4.96,37.44-45.37-38.89-78.29,4.18-1.55,2.02-1.83,13.79-8.96,11.36-8.52-2.91,5.42-33.54,27.49-35.86Z"/>
                <path class="cry-cls-3" d="m552.83,606.02c2.46-.22,1.47.65.6,2.99-2.83,7.54-30.64,32.77-41.84,75.3-2.36,8.97-2.78,31.17-6.57,30.48-6.27-39.87,18.81-82.58,47.81-108.77Z"/>
                <path class="cry-cls-3" d="m684.32,601.24c20.12,16.62,45.76,45.35,54.39,69.93,1.02,2.9,9.06,30.04,0,21.52-1.61-1.51-2.48-16.42-16.73-40.64-5.76-9.79-40.71-49.89-37.65-50.8Z"/>
                <path class="cry-cls-3" d="m612.6,767.39c17.36-1.83,42.1,2.81,53.19,17.33l-1.79,1.79c-29.47-18.5-60.69-17.11-88.45,3.59-4.85-8.53,25.38-21.48,37.05-22.71Z"/>
                <g>
                  <path class="cry-cls-4" d="m665.79,670.57c15.8,12.05,28.64,49.73,21.52,69.33-26.36-30.31-103.5-31.95-129.09,2.39-3.06-5.95-5.79-12.58-7.17-19.13,3.67-3.15-3.64-13.3,2.39-11.36,1.62,19.91-1.46-17.98,10.76-32.87,16.09-19.6,82.3-23.09,101.6-8.37Z"/>
                  <path class="cry-cls-13" d="m687.3,739.9c.17.19-.58,3.8,3.59,3.59-.25.51.25,4.72-2.99,7.17-4.43,1.74-25.76-5.63-41.84,11.95-8.45-15.91-35.35-18.83-49.01-8.37-31.5-6.64-24.63,15.69-38.85-11.95,25.6-34.34,102.73-32.7,129.09-2.39Z"/>
                  <path class="cry-cls-17" d="m674.16,656.23c22.31,20,29.83,60.64,16.73,87.26-4.16.22-3.42-3.39-3.59-3.59,7.13-19.59-5.72-57.28-21.52-69.33,3.02.82,3.91-7.97,3.59-10.76l4.78-3.59Z"/>
                  <path class="cry-cls-3" d="m674.16,656.23l-4.78,3.59c-.2-1.7.29-3.73,0-4.18-2.8-4.36-62.6-18.55-100.41,2.99-1.3.74-4.41,1.94-5.98,2.39,25.32-29.51,94.93-17.6,108.18-9.56,3.41,2.07,2.78,4.59,2.99,4.78Z"/>
                  <path class="cry-cls-17" d="m568.97,658.62c-6.43,6.92-9.64,11.01-4.78,20.32-12.22,14.89-9.14,52.79-10.76,32.87-6.03-1.95,1.28,8.21-2.39,11.36-4.61-21.9-2.95-44.79,11.95-62.16,1.57-.45,4.67-1.65,5.98-2.39Z"/>
                  <path class="cry-cls-21" d="m669.38,659.81c.33,2.78-.56,11.58-3.59,10.76-19.3-14.72-85.52-11.23-101.6,8.37-4.86-9.31-1.65-13.4,4.78-20.32,37.8-21.54,97.6-7.35,100.41-2.99.29.45-.2,2.48,0,4.18Z"/>
                </g>
              </g>
            </g>
          </g>
        </g>
      </g>
    </g>
  </g>
  <g>
    <path class="cry-cls-8" d="m763.16,570.5c4.01,11.2,15.08,27.24,17.1,37.94.94,4.98,1.02,11.25-.1,16.19-2.01,8.85-8.43,15.22-16.58,16.6-3.69.62-8.75-.25-12.02-2.29-4.56-2.84-8.36-8.97-9.54-14.54-1-4.75-.85-10.98.1-15.74,2.05-10.29,12.8-27.79,17-38.4.81-2.04,1.48-4.11,2.23-6.18.42,2.2,1.07,4.32,1.81,6.41Z"/>
    <g>
      <path class="cry-cls-12" d="m765.54,585.26c.71,2.07,1.59,4.04,2.38,6.07,1.67,4.28,6.25,14.29,6.53,18.26.25,3.53-1.35,6.76-3.78,8.98-7.62,6.98-19.28,1.84-19.64-9.27-.04-1.11,0-2.27.1-3.38.63-6.18,6.9-21.88,9.12-28.84.21-.67.59-1.98.41-2.12.31-.77.54-1.61.83-2.4-.47,9.86,1.87,12.85,3.52,19.86,3.26,13.82-1.93,14.55-2.69,16.14-1.36,2.8,2.34,7.07,5.49,2.75,2-2.75,2.59-7.25,2.07-10.64-.72-4.7-4.63-10.15-5.29-16.71-.19-1.92.34.63.93,1.32Z"/>
      <path class="cry-cls-19" d="m763.37,577.25c.41,2.64,1.29,5.42,2.18,8.01-.6-.68-1.12-3.23-.93-1.32.65,6.56,4.56,12.01,5.29,16.71.52,3.39-.07,7.9-2.07,10.64-3.15,4.32-6.85.05-5.49-2.75.77-1.58,5.95-2.32,2.69-16.14-1.65-7.01-3.99-9.99-3.52-19.86.04-.11.12-.66.21-.97.02-.11.18.04.21.11.1.27.32,2.6,1.45,5.55Z"/>
      <g>
        <path class="cry-cls-7" d="m769.58,591.33c.96,2.13,3.09,5.52,4.15,7.9,3.34,7.53,5,17.09,2.18,25.12-.54,1.52-1.48,3.33-2.49,4.52-1.04,1.23-2.76,2.34-2.8,2.58-.1.53.7,1.45,2.07.63-2.18,3.28-7.16,5.03-10.68,5.15-.87-.87-2.09-1.51-3.06-2.4-6.06-5.55-10.34-17.57-8.24-26.15.26-.08-.1.71.31.63.37,11.11,12.03,16.25,19.64,9.27,2.43-2.23,4.03-5.45,3.78-8.98-.28-3.97-4.86-13.98-6.53-18.26.37-.02.38.89.57.92.07.01.45-.57,1.09-.92Z"/>
        <path class="cry-cls-22" d="m751.03,609.3c-.41.08-.06-.71-.31-.63-2.1,8.58,2.18,20.6,8.24,26.15.97.89,2.19,1.53,3.06,2.4-10.32.35-17-8.36-17.31-19.29-.21-7.21,1.71-13.8,4.87-20.03,2.89-6.2,8.8-17.22,11.09-22.95.18.14-.2,1.45-.41,2.12-2.22,6.96-8.49,22.66-9.12,28.84-.11,1.11-.14,2.26-.1,3.38Z"/>
        <path class="cry-cls-20" d="m773.63,631.04l-.21-2.17c1.01-1.19,1.95-3,2.49-4.52,2.82-8.03,1.17-17.59-2.18-25.12.57,0-.4-.58,0-1.03.73,1.63,1.58,3.28,2.18,4.98,2.8,8.01,3.58,21.25-2.28,27.87Z"/>
        <path class="cry-cls-2" d="m769.27,589.15c-.84.03.05,1.6.31,2.17-.63.34-1.02.93-1.09.92-.19-.03-.2-.94-.57-.92-.79-2.03-1.68-3.99-2.38-6.07-.88-2.59-1.77-5.38-2.18-8.01.69,1.8,4.41,8.82,5.91,11.9Z"/>
        <path class="cry-cls-2" d="m769.27,589.15c1.46,3.02,3.08,5.97,4.46,9.04-.4.45.57,1.02,0,1.03-1.05-2.37-3.19-5.77-4.15-7.9-.26-.58-1.15-2.14-.31-2.17Z"/>
        <path class="cry-cls-19" d="m773.63,631.04c-.29.33-.56.8-.93,1.03-1.38.82-2.17-.1-2.07-.63.04-.23,1.76-1.35,2.8-2.58l.21,2.17Z"/>
      </g>
    </g>
  </g>
  <g>
    <path class="cry-cls-8" d="m461.46,571.47c1.83,11.96,10.2,30.41,9.99,41.39-.1,5.11-1.42,11.27-3.74,15.83-4.15,8.17-12.52,12.82-21.66,12.15-4.13-.31-9.41-2.41-12.49-5.22-4.29-3.91-7.03-10.86-7.05-16.6-.02-4.9,1.55-10.96,3.64-15.39,4.53-9.57,20.07-24.05,26.99-33.4,1.33-1.8,2.52-3.66,3.8-5.5-.04,2.26.18,4.5.52,6.73Z"/>
    <g>
      <path class="cry-cls-12" d="m460.73,586.52c.3,2.2.82,4.35,1.22,6.53.84,4.6,3.55,15.54,2.97,19.5-.52,3.52-2.98,6.28-6.11,7.86-9.8,4.95-21.26-2.97-19.16-13.94.21-1.1.5-2.22.87-3.28,2.06-5.9,12.37-19.72,16.33-25.99.38-.6,1.09-1.79.92-1.97.51-.68.94-1.44,1.44-2.15-2.72,9.54-.86,13.05-.64,20.32.42,14.34-5.35,13.78-6.53,15.14-2.09,2.4.95,7.5,5.32,4.05,2.78-2.19,4.43-6.46,4.63-9.91.27-4.78-2.74-11.08-1.97-17.67.22-1.92.22.7.71,1.52Z"/>
      <path class="cry-cls-19" d="m460.17,578.13c-.15,2.68.18,5.63.56,8.39-.49-.82-.49-3.44-.71-1.52-.77,6.59,2.24,12.89,1.97,17.67-.2,3.45-1.84,7.72-4.63,9.91-4.38,3.45-7.42-1.65-5.32-4.05,1.19-1.36,6.96-.79,6.53-15.14-.22-7.27-2.07-10.78.64-20.32.07-.1.28-.62.44-.9.05-.1.18.08.2.16.05.29-.24,2.63.32,5.8Z"/>
      <g>
        <path class="cry-cls-7" d="m463.74,593.46c.56,2.33,2.11,6.18,2.71,8.76,1.93,8.21,1.58,17.97-3.28,25.14-.92,1.36-2.34,2.89-3.7,3.81-1.4.94-3.51,1.61-3.6,1.83-.22.5.43,1.59,2.1,1.13-3.09,2.67-8.87,3.15-12.7,2.4-.75-1.07-1.92-2-2.77-3.11-5.31-6.94-7.24-19.77-3.05-27.65.29-.01-.26.67.2.69-2.1,10.97,9.36,18.89,19.16,13.94,3.13-1.58,5.59-4.34,6.11-7.86.58-3.96-2.12-14.89-2.97-19.5.4.07.21.96.41,1.04.07.03.62-.45,1.38-.63Z"/>
        <path class="cry-cls-22" d="m439.65,606.47c-.46-.02.1-.71-.2-.69-4.2,7.88-2.26,20.71,3.05,27.65.85,1.11,2.02,2.04,2.77,3.11-11.24-2.21-16.5-12.4-14.39-23.17,1.39-7.11,4.94-13.09,9.76-18.41,4.52-5.36,13.38-14.69,17.14-19.73.16.18-.54,1.37-.92,1.97-3.97,6.27-14.27,20.09-16.33,25.99-.37,1.06-.66,2.18-.87,3.28Z"/>
        <path class="cry-cls-20" d="m459.21,633.36l.26-2.18c1.36-.92,2.78-2.45,3.7-3.81,4.86-7.17,5.2-16.94,3.28-25.14.62.13-.3-.67.23-1.01.42,1.78.98,3.61,1.24,5.41,1.23,8.54-.89,21.7-8.72,26.73Z"/>
        <path class="cry-cls-2" d="m463.89,591.25c-.91-.18-.3,1.58-.15,2.21-.76.18-1.31.65-1.38.63-.2-.08,0-.97-.41-1.04-.4-2.18-.92-4.33-1.22-6.53-.37-2.75-.7-5.7-.56-8.39.35,1.94,2.79,9.73,3.72,13.12Z"/>
        <path class="cry-cls-2" d="m463.89,591.25c.91,3.32,2,6.61,2.79,9.96-.53.34.39,1.14-.23,1.01-.61-2.59-2.15-6.44-2.71-8.76-.15-.63-.76-2.38.15-2.21Z"/>
        <path class="cry-cls-19" d="m459.21,633.36c-.39.25-.78.65-1.24.78-1.67.47-2.32-.63-2.1-1.13.1-.22,2.21-.89,3.6-1.83l-.26,2.18Z"/>
      </g>
    </g>
  </g>
</svg>