<?xml version="1.0" encoding="utf-8"?>
<svg width="30mm" height="32mm" viewBox="6.618 4.82 92.382 103.705" id="svg2" version="1.1" xmlns="http://www.w3.org/2000/svg" xmlns:xlink="http://www.w3.org/1999/xlink">
  <title id="title4136">duck - coloured</title>
  <defs id="defs4">
    <linearGradient id="linearGradient6537">
      <stop style="stop-color:#443620;stop-opacity:1;" offset="0" id="stop6539"/>
      <stop id="stop6545" offset="0.6091" style="stop-color:#443620;stop-opacity:0.65490196;"/>
      <stop style="stop-color:#443620;stop-opacity:0;" offset="1" id="stop6541"/>
    </linearGradient>
    <linearGradient id="linearGradient6372">
      <stop style="stop-color:#367b4f;stop-opacity:1;" offset="0" id="stop6374"/>
      <stop id="stop6380" offset="0.2539" style="stop-color:#367b4f;stop-opacity:1;"/>
      <stop style="stop-color:#205e3f;stop-opacity:1" offset="0.5991" id="stop6382"/>
      <stop style="stop-color:#185139;stop-opacity:1" offset="1" id="stop6376"/>
    </linearGradient>
    <linearGradient id="linearGradient6050">
      <stop style="stop-color:#010a3e;stop-opacity:1" offset="0" id="stop6052"/>
      <stop id="stop6062" offset="0.0967" style="stop-color:#202130;stop-opacity:1"/>
      <stop style="stop-color:#3e1301;stop-opacity:1;" offset="0.4302" id="stop6064"/>
      <stop id="stop6060" offset="0.6304" style="stop-color:#3e1301;stop-opacity:1;"/>
      <stop id="stop6058" offset="0.6936" style="stop-color:#013e0c;stop-opacity:1"/>
      <stop style="stop-color:#013e20;stop-opacity:1" offset="1" id="stop6054"/>
    </linearGradient>
    <pattern id="pattern5999" patternTransform="matrix(0.13975423,0.27950849,-3.2422986,1.6211492,3.6445634,-1.6816811)" xlink:href="#Strips1_1"/>
    <pattern id="Strips1_1" patternTransform="translate(0,0) scale(10,10)" height="1" width="2" patternUnits="userSpaceOnUse">
      <rect id="rect4953" height="2" width="1" y="-0.5" x="0" style="fill:black;stroke:none"/>
    </pattern>
    <pattern id="pattern5903" patternTransform="matrix(0.76249999,0,0,0.94999999,3.5195636,-1.5566808)" xlink:href="#Polkadots-large"/>
    <pattern id="pattern5807" patternTransform="matrix(1.1,0,0,1.175,3.6445634,-1.6816811)" xlink:href="#Polkadots-large"/>
    <pattern id="pattern5713" patternTransform="matrix(0.96671086,0,0,0.8252895,3.8767964,-1.5678911)" xlink:href="#Polkadots-large"/>
    <pattern id="Polkadots-large" patternTransform="translate(0,0) scale(10,10)" height="10" width="10" patternUnits="userSpaceOnUse">
      <circle id="circle5403" r="0.45" cy="0.810" cx="2.567" style="fill:black;stroke:none"/>
      <circle id="circle5405" r="0.45" cy="2.33" cx="3.048" style="fill:black;stroke:none"/>
      <circle id="circle5407" r="0.45" cy="2.415" cx="4.418" style="fill:black;stroke:none"/>
      <circle id="circle5409" r="0.45" cy="3.029" cx="1.844" style="fill:black;stroke:none"/>
      <circle id="circle5411" r="0.45" cy="1.363" cx="6.08" style="fill:black;stroke:none"/>
      <circle id="circle5413" r="0.45" cy="4.413" cx="5.819" style="fill:black;stroke:none"/>
      <circle id="circle5415" r="0.45" cy="4.048" cx="4.305" style="fill:black;stroke:none"/>
      <circle id="circle5417" r="0.45" cy="3.045" cx="5.541" style="fill:black;stroke:none"/>
      <circle id="circle5419" r="0.45" cy="5.527" cx="4.785" style="fill:black;stroke:none"/>
      <circle id="circle5421" r="0.45" cy="5.184" cx="2.667" style="fill:black;stroke:none"/>
      <circle id="circle5423" r="0.45" cy="1.448" cx="7.965" style="fill:black;stroke:none"/>
      <circle id="circle5425" r="0.45" cy="5.049" cx="7.047" style="fill:black;stroke:none"/>
      <circle id="circle5427" r="0.45" cy="0.895" cx="4.340" style="fill:black;stroke:none"/>
      <circle id="circle5429" r="0.45" cy="0.340" cx="7.125" style="fill:black;stroke:none"/>
      <circle id="circle5431" r="0.45" cy="1.049" cx="9.553" style="fill:black;stroke:none"/>
      <circle id="circle5433" r="0.45" cy="2.689" cx="7.006" style="fill:black;stroke:none"/>
      <circle id="circle5435" r="0.45" cy="2.689" cx="8.909" style="fill:black;stroke:none"/>
      <circle id="circle5437" r="0.45" cy="4.407" cx="9.315" style="fill:black;stroke:none"/>
      <circle id="circle5439" r="0.45" cy="3.870" cx="7.820" style="fill:black;stroke:none"/>
      <circle id="circle5441" r="0.45" cy="5.948" cx="8.270" style="fill:black;stroke:none"/>
      <circle id="circle5443" r="0.45" cy="7.428" cx="7.973" style="fill:black;stroke:none"/>
      <circle id="circle5445" r="0.45" cy="8.072" cx="9.342" style="fill:black;stroke:none"/>
      <circle id="circle5447" r="0.45" cy="9.315" cx="8.206" style="fill:black;stroke:none"/>
      <circle id="circle5449" r="0.45" cy="9.475" cx="9.682" style="fill:black;stroke:none"/>
      <circle id="circle5451" r="0.45" cy="6.186" cx="9.688" style="fill:black;stroke:none"/>
      <circle id="circle5453" r="0.45" cy="6.296" cx="3.379" style="fill:black;stroke:none"/>
      <circle id="circle5455" r="0.45" cy="8.204" cx="2.871" style="fill:black;stroke:none"/>
      <circle id="circle5457" r="0.45" cy="8.719" cx="4.59" style="fill:black;stroke:none"/>
      <circle id="circle5459" r="0.45" cy="9.671" cx="3.181" style="fill:black;stroke:none"/>
      <circle id="circle5461" r="0.45" cy="7.315" cx="5.734" style="fill:black;stroke:none"/>
      <circle id="circle5463" r="0.45" cy="6.513" cx="6.707" style="fill:black;stroke:none"/>
      <circle id="circle5465" r="0.45" cy="9.670" cx="5.730" style="fill:black;stroke:none"/>
      <circle id="circle5467" r="0.45" cy="8.373" cx="6.535" style="fill:black;stroke:none"/>
      <circle id="circle5469" r="0.45" cy="7.154" cx="4.37" style="fill:black;stroke:none"/>
      <circle id="circle5471" r="0.45" cy="7.25" cx="0.622" style="fill:black;stroke:none"/>
      <circle id="circle5473" r="0.45" cy="5.679" cx="0.831" style="fill:black;stroke:none"/>
      <circle id="circle5475" r="0.45" cy="8.519" cx="1.257" style="fill:black;stroke:none"/>
      <circle id="circle5477" r="0.45" cy="6.877" cx="1.989" style="fill:black;stroke:none"/>
      <circle id="circle5479" r="0.45" cy="3.181" cx="0.374" style="fill:black;stroke:none"/>
      <circle id="circle5481" r="0.45" cy="1.664" cx="1.166" style="fill:black;stroke:none"/>
      <circle id="circle5483" r="0.45" cy="0.093" cx="1.151" style="fill:black;stroke:none"/>
      <circle id="circle5485" r="0.45" cy="10.093" cx="1.151" style="fill:black;stroke:none"/>
      <circle id="circle5487" r="0.45" cy="4.451" cx="1.302" style="fill:black;stroke:none"/>
      <circle id="circle5489" r="0.45" cy="3.763" cx="3.047" style="fill:black;stroke:none"/>
    </pattern>
    <linearGradient id="linearGradient6056" x1="14.006" y1="65.975929" x2="81.922455" y2="2.1595364" gradientUnits="userSpaceOnUse" xlink:href="#linearGradient6050"/>
    <radialGradient id="radialGradient6378" cx="131.97603" cy="48.984322" r="10.03208" gradientTransform="matrix(0.57709217,-1.1277522,1.3575329,0.69467533,-65.838465,128.52981)" gradientUnits="userSpaceOnUse" xlink:href="#linearGradient6372"/>
    <linearGradient id="linearGradient6543" x1="140.14436" y1="84.966461" x2="171.06253" y2="78.841461" gradientUnits="userSpaceOnUse" gradientTransform="translate(-118.44039,-28.284273)" xlink:href="#linearGradient6537"/>
  </defs>
  <g id="layer2" transform="translate(-1.1612747,5.4420818)">
    <path style="fill:#ffba68;fill-rule:evenodd;stroke:#88aa00;stroke-width:0.29055119;stroke-linecap:butt;stroke-linejoin:miter;stroke-miterlimit:4;stroke-dasharray:none;stroke-opacity:1;fill-opacity:1" d="m 61.582063,82.617529 c 0.258888,1.875924 0.30338,3.394522 0.0625,4.4375 l -1.25,2.5625 0.125,1.0625 1.6875,-0.75 c 1.783026,2.150833 2.77369,5.728116 6.375,5 l 2.75,0.25 3.5,-1 1.9375,-1.375 1.25,-4.5 -6.125,1.0625 -4.3125,0.0625 -1.125,-1.25 c -0.130434,-2.020833 -0.04415,-4.041667 -1.125,-6.0625 z" id="path6007"/>
    <path style="fill:#ffffff;fill-rule:evenodd;stroke:#ffcc00;stroke-width:0.29055119;stroke-linecap:butt;stroke-linejoin:miter;stroke-miterlimit:4;stroke-dasharray:none;stroke-opacity:1" d="m 11.769563,61.992529 11,5.625 6.375,6.125 c 5.546397,2.945299 11.514154,7.049342 15.8125,6.5625 0.957988,-0.686118 1.768658,-0.782965 2.5625,-0.8125 0.938985,0.03123 1.896723,0.193728 3,1.375 1.461384,1.19918 3.209703,1.537559 5,1.75 5.480817,-0.372317 10.979926,-0.945851 16.625,-3.125 l 9.375,-2.5 9.5,-6.5 c 3.677689,-2.957109 3.331407,-6.361325 4.25,-9.625 0.45047,-5.51642 -0.617545,-8.839473 -1.625,-12.25 l -8.125,-13.250001 -3.625,-9.5 -0.25,-5.875 -1.25,-2.25 2.125,-1.625 1,-3 0.4375,-2.1875 3.3125,2.1875 1.125,-1.375 -0.5,-5.8749997 c -1.952114,-2.0389309 -3.806261,-4.1660315 -7.375,-4.75 -3.980956,-0.89762279 -5.747416,0.4192511 -7.625,1.625 -1.085029,1.7632017 -2.341767,2.7537154 -3.125,5.8749996 -1.52326,4.2407971 -1.068486,8.2738261 -0.9375,11.6875001 l 1.4375,14.5625 -1,5.25 c -2.730631,-1.543462 -5.480072,-2.842391 -8.375,-2.25 -6.366844,-0.323643 -8.573117,1.523446 -11.25,3.125 l -13.75,4.250001 -11.625,5.9375 -5.875,-1.5625 -0.9375,2.3125 c -1.815114,-0.811765 -3.616623,-1.835082 -4.3125,-1.6875 l 1.625,3.5 -1.75,1.625 0.625,1.375 -3.9374996,1.6875 2.9374996,1.75 z" id="path6001"/>
    <path style="fill:#000437;fill-opacity:1;fill-rule:evenodd;stroke:none;stroke-width:0.29055119;stroke-linecap:butt;stroke-linejoin:miter;stroke-miterlimit:4;stroke-dasharray:none;stroke-opacity:1" d="m 13.661271,56.756248 c 1.563505,1.749118 1.74507,3.953618 3.375001,5.000001 l -3.500001,0.875 6.375001,3 c 2.786542,-2.480439 2.232965,-5.670227 4.125001,-7.125001 -0.676308,-1.313017 -1.182661,-2.739338 -2.875001,-3.375 -0.794903,-0.258252 -1.417008,-0.965778 -1.625,-2.75 1.40038,-0.356515 1.621701,-1.184653 1.875,-2 l -2.375,-0.625 -1.5,2.75 c -1.309511,-1.428624 -2.837397,-1.983747 -4.500001,-2 l 1.875001,3.75 c -1.439206,0.06005 -1.709842,0.607011 -1.750001,1.25 z" id="path5905-4"/>
    <path style="fill:url(#linearGradient6543);fill-opacity:1;fill-rule:evenodd;stroke:none;stroke-width:0.29055119;stroke-linecap:butt;stroke-linejoin:miter;stroke-miterlimit:4;stroke-dasharray:none;stroke-opacity:1" d="m 57.122137,50.080034 c -6.793,-0.06602 -15.80097,1.150824 -19.2797,2.505203 l -5.12652,6.187186 -5.48008,1.944543 -2.65165,-1.414213 c -0.6927,-1.084883 -1.05158,-1.87767 -3.00521,-4.065864 1.18854,-0.936124 1.50507,-2.974423 3.41238,-3.910535 1.63374,-1.344745 3.31454,-2.595372 5.60323,-2.630204 2.87629,-0.320461 5.82227,-0.478293 9.19239,0.353554 1.62525,-0.564598 9.254261,-2.736083 11.000961,-2.707433 3.208996,0.05264 4.893316,1.655769 6.334199,3.737763 z" id="path5811-1"/>
    <path style="fill:url(#pattern5903);fill-opacity:1;fill-rule:evenodd;stroke:none;stroke-width:0.29055119;stroke-linecap:butt;stroke-linejoin:miter;stroke-miterlimit:4;stroke-dasharray:none;stroke-opacity:1;opacity:0.317" d="m 50.718941,49.5882 c -6.793001,-0.06602 -9.42597,1.650824 -12.904699,3.005203 l -5.126524,6.187185 -5.480078,1.944543 -2.65165,-1.414213 c -0.6927,-1.084883 -1.051577,-1.87767 -3.005204,-4.065864 1.188539,-0.936124 1.505066,-2.974422 3.412374,-3.910534 1.633741,-1.344745 3.31454,-2.595372 5.603237,-2.630204 2.876282,-0.320461 5.822261,-0.478293 9.192389,0.353554 4.611115,-1.601865 7.383709,0.210667 10.960155,0.53033 z" id="path5811"/>
    <path style="fill:url(#radialGradient6378);fill-opacity:1;fill-rule:evenodd;stroke:none;stroke-width:0.29055119;stroke-linecap:butt;stroke-linejoin:miter;stroke-miterlimit:4;stroke-dasharray:none;stroke-opacity:1" d="m 82.876308,30.154776 c 0,0 -1.87486,1.069513 -2.91682,1.149049 -2.25919,0.172451 -4.37742,-1.250605 -6.62913,-1.502602 -1.22976,-0.137627 -3.71231,0 -3.71231,0 l -1.59099,-15.02602 c 0.598,-2.868823 1.30112,-5.8690447 2.82843,-9.8994967 3.69528,-4.49007698 6.20126,-3.628347 9.01561,-4.15425198 3.28318,1.27778898 6.43568,2.66991898 7.86657,5.56846598 l 0.35355,5.1265237 -1.06066,1.237437 -3.35876,-1.944543 c -0.28191,2.203508 -0.48552,4.504895 -1.67938,5.568466 l -1.85615,1.590991 1.5026,3.535534 z" id="path5715-9"/>
    <path style="display:inline;fill:#7b5836;fill-opacity:1;fill-rule:evenodd;stroke:none;stroke-width:0.29055119;stroke-linecap:butt;stroke-linejoin:miter;stroke-miterlimit:4;stroke-dasharray:none;stroke-opacity:1" d="m 51.774681,39.524449 c 4.77297,1.5026 8.31506,1.71147 9.50152,3.78401 3.64639,6.36961 3.38505,14.670701 4.74112,21.883901 1.00699,5.3563 5.98354,13.361001 10.86244,13.012501 4.41667,-1.0868 8.47978,-2.2226 12.89645,-6.2714 2.37999,-2.906701 4.92919,-5.475001 5.375,-12.250001 -0.464,-4.3689 0.5226,-8.157631 -3,-13.750001 l -7.625,-12.750001 c -1.26045,1.31244 -2.44267,1.674401 -4.375,1.375 -2.28439,-0.35395 -4.44782,-2.8127 -7.375,-2.125 -1.69922,0.39921 -2.43773,-0.0176 -2.125,1.75 l -1.25,5.750001 c -4.16667,-1.44767 -13.45986,-0.94217 -17.62653,-0.40901 z" id="path4230-0"/>
    <path style="display:inline;fill:url(#pattern5713);fill-opacity:1;fill-rule:evenodd;stroke:none;stroke-width:0.29055119;stroke-linecap:butt;stroke-linejoin:miter;stroke-miterlimit:4;stroke-dasharray:none;stroke-opacity:1;opacity:0.312" d="m 51.768039,39.458519 c 4.772971,1.5026 8.315063,1.71147 9.501524,3.78401 3.646385,6.36961 3.38504,14.6707 4.741117,21.8839 1.006984,5.3563 5.983537,13.361 10.862436,13.0125 4.416667,-1.0868 8.47978,-2.2226 12.896447,-6.2714 2.379997,-2.9067 4.929189,-5.475 5.375,-12.25 -0.463999,-4.3689 0.5226,-8.15763 -3,-13.75 l -7.625,-12.75 c -1.260446,1.31244 -2.442669,1.6744 -4.375,1.375 -2.284389,-0.35395 -4.447816,-2.8127 -7.375,-2.125 -1.699217,0.39921 -2.437729,-0.0176 -2.125,1.75 l -1.25,5.75 c -4.166667,-1.44767 -13.459857,-0.94217 -17.626524,-0.40901 z" id="path4230"/>
    <path style="fill:url(#pattern5999);fill-opacity:1;fill-rule:evenodd;stroke:none;stroke-width:0.29055119;stroke-linecap:butt;stroke-linejoin:miter;stroke-miterlimit:4;stroke-dasharray:none;stroke-opacity:1;opacity:0.312" d="m 13.644563,56.742529 c 1.563504,1.749118 1.745069,3.953617 3.375,5 l -3.5,0.875 6.375,3 c 2.786542,-2.480439 2.232965,-5.670226 4.125,-7.125 -0.676308,-1.313017 -1.18266,-2.739338 -2.875,-3.375 -0.794903,-0.258252 -1.417008,-0.965778 -1.625,-2.75 1.40038,-0.356515 1.621701,-1.184653 1.875,-2 l -2.375,-0.625 -1.5,2.75 c -1.309511,-1.428624 -2.837397,-1.983747 -4.5,-2 l 1.875,3.75 c -1.439205,0.06005 -1.709841,0.607011 -1.75,1.25 z" id="path5905"/>
    <path style="color:#000000;font-style:normal;font-variant:normal;font-weight:normal;font-stretch:normal;font-size:medium;line-height:normal;font-family:sans-serif;text-indent:0;text-align:start;text-decoration:none;text-decoration-line:none;text-decoration-style:solid;text-decoration-color:#000000;letter-spacing:normal;word-spacing:normal;text-transform:none;direction:ltr;block-progression:tb;writing-mode:lr-tb;baseline-shift:baseline;text-anchor:start;white-space:normal;clip-rule:nonzero;display:inline;overflow:visible;visibility:visible;opacity:1;isolation:auto;mix-blend-mode:normal;color-interpolation:sRGB;color-interpolation-filters:linearRGB;solid-color:#000000;solid-opacity:1;fill:url(#linearGradient6056);fill-opacity:1;fill-rule:evenodd;stroke:none;stroke-width:2.83464575;stroke-linecap:butt;stroke-linejoin:miter;stroke-miterlimit:4;stroke-dasharray:none;stroke-dashoffset:0;stroke-opacity:1;color-rendering:auto;image-rendering:auto;shape-rendering:auto;text-rendering:auto;enable-background:accumulate" d="m 78.378938,-0.19925919 c -2.320734,0.1469197 -4.461135,1.1743702 -5.929687,2.37499999 -1.821074,1.4888348 -3.087516,3.2582276 -3.044922,5.2402343 -0.938657,1.6158168 -1.133213,2.8592479 -1.501954,5.0332029 -0.569031,3.354814 -0.536874,5.675671 -0.08008,10.722657 0.24007,2.652457 0.358397,5.385128 0.916016,7.865234 0.716569,3.187067 0.593924,5.428852 -0.488319,7.039447 -2.013783,-0.77985 -4.252522,-1.211883 -6.265625,-1.449181 -2.992999,-0.352805 -4.804033,-0.314465 -7.251991,0.08445 -2.577044,0.419944 -5.161887,2.467696 -7.095243,3.202665 -4.151175,1.578076 -5.960787,1.737662 -10.031672,3.07326 -1.446861,0.474695 -4.160723,2.745489 -5.978478,3.439989 -2.20352,0.841886 -3.426779,1.884721 -5.09375,2.701172 -0.876784,0.429432 -1.950743,1.358804 -2.339844,1.388672 -1.350814,-0.321206 -2.737719,-1.452521 -5.609375,-1.773438 -0.639961,0.04925 -1.056987,1.813586 -1.421875,2.189453 -0.729346,-0.370482 -3.311059,-1.618887 -4.664062,-1.476562 -0.478003,1.829826 1.016536,2.411466 1.179687,3.876953 -0.281361,0.767177 -1.757601,1.496972 -1.61914,2.162109 0.04172,0.200415 0.753709,0.901964 0.810547,1.087891 -0.613803,0.240789 -1.38207,0.750585 -1.919922,0.839844 -0.574593,0.132646 -2.1877617,-1.010686 -2.5195314,-0.638672 -0.3317693,0.372014 0.4404529,1.983444 0.875,2.183594 0.7962934,0.366768 2.0793434,1.244224 2.2675784,1.410156 l -1.8808596,1.150391 0.6640626,0.701171 c 1.815506,1.916837 3.918585,2.227213 5.501953,2.669922 0.086,0.04079 1.323994,0.627652 2.800781,1.388672 1.527128,0.786962 3.326098,1.845725 3.65039,2.126953 1.325508,1.149479 2.424411,3.038284 4.330079,4.544922 2.05328,1.623342 4.346849,2.656971 6.410156,3.746094 1.744772,0.920983 3.385215,1.443751 5.277344,2.679687 1.892129,1.235936 3.064697,2.022006 5.673828,1.84961 1.15043,-0.07601 3.205541,-1.073628 3.253906,-2.414063 -1.191635,0.483472 -2.628121,0.784561 -2.371094,0.767578 -1.746586,0.115402 -3.264245,-0.573889 -4.95117,-1.675786 -1.686924,-1.101897 -3.726159,-1.978957 -5.841797,-3.095703 -2.161124,-1.140757 -4.56195,-2.178358 -6.255859,-3.517578 -1.343368,-1.062075 -2.596809,-2.898827 -4.400391,-4.462891 -0.997595,-0.865114 -2.462207,-1.380771 -4.039062,-2.193359 -1.576855,-0.812588 -3.53125,-1.736328 -3.53125,-1.736328 -0.86038,-0.257319 -1.685098,-1.431366 -2.689453,-2.136719 l 0.990234,-0.896484 -2.914062,-1.357422 3.617187,-1.705078 c -0.251063,-0.575917 -0.830915,-1.021302 -0.908203,-1.392579 -0.07729,-0.371273 1.444302,-0.480676 1.482422,-1.302734 0.03812,-0.822059 -1.263137,-2.236676 -0.998047,-2.84375 0.754966,0.298463 2.692476,1.617667 3.552734,2.222656 0.334437,-0.645297 0.933608,-2.041969 1.28125,-2.675781 1.366204,-0.08765 3.699323,0.746404 5.0625,1.236328 0.557239,-0.433786 1.63481,-0.725978 2.882813,-1.363281 2.084329,-1.06438 3.636869,-1.523817 5.353516,-2.179688 1.380485,-0.527433 4.896874,-2.42302 6.703125,-3.015624 4.261211,-1.398042 6.352842,-1.776514 10.398437,-3.314454 2.263416,-0.860441 4.489452,-2.113847 6.34375,-2.416015 2.700644,-0.440085 3.695439,-0.39251 6.246094,-0.267578 2.177725,0.106666 3.462799,0.542898 5.319777,1.121553 0.242351,0.723594 -0.375584,1.403658 -1.392043,2.899931 0,0 -2.472258,1.916095 -2.829524,2.946636 1.072752,0.04332 2.661743,-0.722214 3.604915,-1.665386 1.776445,-1.776445 2.303745,-2.61821 3.195312,-4.322266 0.343753,-0.657017 1.034643,-2.394634 1.16211,-4.185547 0.232904,-3.272314 -0.03388,-3.84038 -0.333985,-6.609374 -0.277081,-2.556596 -0.567806,-4.071828 -0.849609,-6.50586 -0.663813,-5.733581 -0.812742,-7.468745 -0.349609,-10.199219 0.307306,-1.811762 0.671805,-2.974757 1.359375,-4.7832029 0.655375,-1.7237676 1.593501,-3.2682709 3.033203,-4.4453124 0.977028,-0.7987777 2.695709,-1.4293029 4.326172,-1.5136719 0.543487,-0.028123 1.077161,0.00421 1.570312,0.1113281 2.110223,0.4583594 4.938775,2.0629148 5.873047,3.4824219 0.376745,0.5724153 1.434691,2.5255801 1.611328,3.6171871 0.148209,0.9159241 0.189934,2.3855501 -0.652344,2.4667971 l -1.851562,-1.21875 c -0.261057,-0.107513 -0.677011,-0.624049 -1.330078,-0.38476 -0.653067,0.239281 -0.745126,0.85538 -1.00586,2.15625 -0.260733,1.30087 0.183055,2.171394 -0.742187,3.396484 -0.351106,0.07104 -1.04543,0.08341 -1.466797,0.328125 -0.344859,0.200281 -0.580472,0.388523 -0.794922,0.886719 -0.223065,0.944386 0.29574,1.570909 0.701172,2.265625 -0.613677,-0.02713 -3.234208,-0.21391 -4.066406,-0.978516 -1.758202,-0.294194 -2.243379,-1.192957 -3.814453,-2.833984 -0.782838,0.273259 0.271232,2.419905 1.410156,3.423828 0.97456,0.82639 2.520781,1.5983 3.791015,1.755859 1.152891,0.178601 2.039356,0.359972 3.431641,0.732422 -0.13181,1.137949 -0.07865,3.087121 -0.01172,4.367188 0.149429,2.858042 1.265464,5.224744 1.929688,7.191406 1.230564,3.643506 3.670719,6.536058 5.578125,9.382812 1.907406,2.846754 3.280004,5.633909 4.011719,8.833985 1.028803,4.499362 1.34677,10.446811 -0.269532,14.40625 -1.552678,3.803579 -6.055143,7.223027 -10.009765,9.628906 -2.451232,1.491259 -5.872648,1.826173 -9.291016,2.75 -3.915649,1.058219 -7.358785,2.495009 -10.964844,2.908203 -4.195865,0.480776 -7.485087,1.334796 -10.759765,-0.06055 0.135096,0.05756 -1.526086,-1.158089 -2.501953,-1.882812 -0.22913,1.150842 1.473028,2.816879 2.460937,3.138672 4.485084,1.460931 6.84303,1.453655 10.785156,1.001953 4.12218,-0.472333 7.817535,-1.880855 11.496094,-2.875 3.071234,-0.830013 6.908977,-1.21407 10.136719,-3.177735 4.122185,-2.507819 9.253066,-5.410092 11.273437,-10.359375 2.01629,-4.939285 1.519899,-11.238951 0.40625,-16.109375 -0.866053,-3.787594 -2.822252,-6.83875 -4.755859,-9.724609 -1.933607,-2.885859 -2.576966,-3.998922 -4.177734,-6.910156 -1.218823,-2.216612 -2.60975,-5.41593 -3.19336,-7.109375 -0.53791,-1.56084 -0.968892,-3.735193 -0.912109,-5.138672 0.02816,-0.696081 0.282906,-1.42625 0.490234,-1.904297 -1.933742,-0.893177 -1.829606,-3.527129 -0.304687,-2.833984 1.591409,-1.435263 1.442592,-4.799809 1.5625,-5.38086 0.101699,-0.492813 2.236956,1.726445 2.6875,1.865235 0.450545,0.138783 0.827422,0.0016 1.1875,-0.513672 0.551321,-0.789016 0.731257,-0.282377 0.898437,-1.123047 0.139683,-1.261359 0.183907,-2.2213921 0.06836,-3.0117191 C 88.798432,7.5335634 88.997114,6.2267153 88.156282,4.9491783 86.6554,2.668781 83.786946,0.63591071 80.742219,-0.02543109 c -0.795586,-0.1728085 -1.589703,-0.2228014 -2.363281,-0.1738281 z" id="path4169"/>
    <path style="fill:#f6db35;fill-rule:evenodd;stroke:#aad400;stroke-width:0.29055119;stroke-linecap:butt;stroke-linejoin:miter;stroke-miterlimit:4;stroke-dasharray:none;stroke-opacity:1;fill-opacity:1" d="m 80.269563,17.617528 c 0.384911,1.503698 1.019863,2.650195 2.5625,2.5 l 4.6875,3.5 c 1.538297,0.694239 2.963387,1.614893 4.8125,1.6875 l 4,0.9375 c 0.604167,0.555181 1.208333,0.442111 1.8125,0 l 1.3125,-1.125 c -0.143999,-0.854429 0.318254,-2.054393 -0.9375,-2.75 l -4.375,-2.4375 -4.4375,-5.1875 -1,-3 -1.3125,1.3125 c -1.33027,0.127456 -2.380742,-1.423879 -3.5625,-2.1875 l -0.5,3.9375 -1.1875,1.8125 c -1.079228,-0.302586 -1.627624,0.137994 -1.875,1 z" id="path6003"/>
    <path style="fill:url(#pattern5807);fill-opacity:1;fill-rule:evenodd;stroke:none;stroke-width:0.29055119;stroke-linecap:butt;stroke-linejoin:miter;stroke-miterlimit:4;stroke-dasharray:none;stroke-opacity:1;opacity:0.31" d="m 83.105688,30.282928 c 0,0 -1.874852,1.069513 -2.916816,1.149049 -2.25919,0.172451 -4.37742,-1.250605 -6.629126,-1.502602 -1.229759,-0.137627 -3.71231,0 -3.71231,0 L 68.256445,14.903356 c 0.598001,-2.868822 1.301122,-5.8690441 2.828427,-9.8994955 3.695276,-4.49007669 6.201263,-3.6283475 9.015612,-4.15425229 3.283177,1.27778919 6.43568,2.66991919 7.866563,5.56846589 l 0.353553,5.1265239 -1.06066,1.237437 -3.358757,-1.944543 c -0.281911,2.203508 -0.485519,4.504894 -1.679379,5.568465 l -1.856155,1.590991 1.502602,3.535534 z" id="path5715"/>
    <path style="fill:#ffffff;fill-rule:evenodd;stroke:#ffcc00;stroke-width:0.29055119;stroke-linecap:butt;stroke-linejoin:miter;stroke-miterlimit:4;stroke-dasharray:none;stroke-opacity:1" d="m 75.19493,7.1251808 c 1.712128,-0.3535534 2.177633,-0.5745243 3.181981,-0.8396893 0.496754,0.122634 0.980605,0.16785 1.59099,0.9722718 L 80.144678,9.5558599 77.890775,10.130385 76.962698,9.6000539 76.211397,8.3626179 C 75.843112,8.3594179 75.563215,7.9531698 75.19493,7.1251808 Z" id="path5809"/>
    <path style="color:#000000;font-style:normal;font-variant:normal;font-weight:normal;font-stretch:normal;font-size:medium;line-height:normal;font-family:sans-serif;text-indent:0;text-align:start;text-decoration:none;text-decoration-line:none;text-decoration-style:solid;text-decoration-color:#000000;letter-spacing:normal;word-spacing:normal;text-transform:none;direction:ltr;block-progression:tb;writing-mode:lr-tb;baseline-shift:baseline;text-anchor:start;white-space:normal;clip-rule:nonzero;display:inline;overflow:visible;visibility:visible;opacity:1;isolation:auto;mix-blend-mode:normal;color-interpolation:sRGB;color-interpolation-filters:linearRGB;solid-color:#000000;solid-opacity:1;fill:#0e0e4d;fill-opacity:1;fill-rule:evenodd;stroke:none;stroke-width:1.77165353;stroke-linecap:butt;stroke-linejoin:miter;stroke-miterlimit:4;stroke-dasharray:none;stroke-dashoffset:0;stroke-opacity:1;color-rendering:auto;image-rendering:auto;shape-rendering:auto;text-rendering:auto;enable-background:accumulate" d="m 41.925813,75.642536 c 0,0 1.898086,0.86646 2.808594,1.523439 0.910507,0.656979 1.460869,1.388202 2.552734,1.667969 1.179515,0.302226 2.240954,0.04679 3.46875,-0.10547 1.227796,-0.152258 2.032226,-0.981445 2.032226,-0.981445 0,0 -1.107888,-0.35562 -2.250976,-0.213866 -1.143088,0.141754 -1.941138,0.313202 -3.029297,0.11523 -0.571809,-0.104031 -2.084492,-0.875388 -2.925781,-1.482422 -0.841289,-0.607034 -2.65625,-0.523439 -2.65625,-0.523435 z" id="path4187"/>
    <path style="color:#000000;font-style:normal;font-variant:normal;font-weight:normal;font-stretch:normal;font-size:medium;line-height:normal;font-family:sans-serif;text-indent:0;text-align:start;text-decoration:none;text-decoration-line:none;text-decoration-style:solid;text-decoration-color:#000000;letter-spacing:normal;word-spacing:normal;text-transform:none;direction:ltr;block-progression:tb;writing-mode:lr-tb;baseline-shift:baseline;text-anchor:start;white-space:normal;clip-rule:nonzero;display:inline;overflow:visible;visibility:visible;opacity:1;isolation:auto;mix-blend-mode:normal;color-interpolation:sRGB;color-interpolation-filters:linearRGB;solid-color:#000000;solid-opacity:1;fill:#e8ba15;fill-opacity:1;fill-rule:evenodd;stroke:none;stroke-width:1.77165353;stroke-linecap:butt;stroke-linejoin:miter;stroke-miterlimit:4;stroke-dasharray:none;stroke-dashoffset:0;stroke-opacity:1;color-rendering:auto;image-rendering:auto;shape-rendering:auto;text-rendering:auto;enable-background:accumulate" d="m 83.67386,10.630819 c -0.08221,-4.58e-4 -0.15836,0.01383 -0.224609,0.04492 -0.605796,0.284342 -0.64076,1.18191 -0.707032,1.970703 -0.149532,1.779793 -0.216286,1.912246 -0.714844,3.240234 0,0 -1.845786,0.135268 -2.121093,0.763672 -0.486841,1.111242 -0.149434,2.143925 0.486328,2.970703 0.392303,0.510171 1.125318,1.01971 1.654297,1.082032 l 1.167968,0.138672 c 1.406155,1.41203 4.791855,4.004658 6.642767,4.606309 1.850915,0.601651 1.648011,0.117645 4.146485,0.705078 1.295386,0.304567 1.66395,0.242351 2.339844,0.708985 0.675894,0.466634 1.198189,0.287142 1.607421,0.201172 0.409234,-0.08597 0.956604,-0.252122 1.199219,-0.507813 0.48523,-0.511381 1.149399,-1.181395 1.121129,-2.020527 -0.0272,-0.808938 -0.318581,-1.523703 -0.806676,-2.092754 -0.488092,-0.569049 -1.081264,-0.899715 -1.314453,-1.056641 -0.466123,-0.313679 -1.189505,-0.350693 -2.138672,-1.039062 -0.949166,-0.688369 -2.14683,-1.650011 -2.634765,-2.244141 -0.452956,-0.551538 -2.787022,-2.688087 -3.248236,-3.690294 -0.442754,-0.962093 -0.453794,-1.445743 -0.787109,-2.240234 -0.12773,-0.217274 0.04776,-0.864894 -0.275391,-0.986328 -0.864834,-0.123363 -0.807595,0.224587 -1.242187,0.6875 -0.38784,0.410031 -0.208477,0.925766 -0.730469,0.919921 -1.012159,-0.600764 -1.254393,-0.820643 -1.962891,-1.478515 0,0 -0.881549,-0.680388 -1.457031,-0.683592 z m 0.595703,1.0625 c 0.556225,0.285037 1.794886,1.515658 2.673828,1.837891 0.878942,0.322233 1.322839,-0.840915 1.625,-1.101563 0.131282,0.326206 0.32529,1.422066 0.451172,2.222656 0.205344,1.305955 2.549131,3.014564 3.240423,3.85631 0.72627,0.884337 1.740737,1.775489 2.744141,2.490234 0.991297,0.706121 2.21344,1.261221 3.146484,2.001954 0.202625,0.236233 0.9718,0.903684 0.796875,1.287109 -0.225882,0.495119 -0.682145,1.078141 -0.796875,1.158203 -0.114731,0.08006 -0.919283,0.534893 -1.171875,0.490234 -1.0267,-0.181524 -2.157318,-0.809665 -3.296875,-0.986328 -0.706746,-0.335271 -3.362881,-1.601562 -4.152343,-2.15625 -1.878567,-1.319908 -6.060451,-4.242338 -7.091986,-5.844591 0.824969,-0.331798 1.186643,-1.363156 1.38345,-2.067604 0.308965,-1.131081 0.449416,-2.435245 0.448581,-3.188255 z m -2.519531,5.611328 c 0.642015,1.049709 5.400252,4.671468 7.38886,5.952013 0.686156,0.441843 1.992944,1.017022 3.09961,1.482422 -0.457667,-0.07925 -0.892476,-0.181338 -1.447266,-0.373047 -2.137837,-0.738734 -4.067741,-1.828418 -5.506048,-3.172716 -0.571177,-0.533844 -1.382948,-0.922546 -1.875,-1.556641 -0.242783,-0.03585 -1.168237,-0.225345 -1.474609,-0.533203 -0.656902,-0.864833 -0.55375,-1.383452 -0.185547,-1.798828 z" id="path4191"/>
    <path style="fill:#8c7f13;fill-rule:evenodd;stroke:#5f5210;stroke-width:0.29055119;stroke-linecap:butt;stroke-linejoin:miter;stroke-miterlimit:4;stroke-dasharray:none;stroke-opacity:1;fill-opacity:1" d="m 85.550813,15.336278 c 0.372479,0.836742 0.859665,1.729599 2.625,2 -0.07575,-0.451741 -0.443939,-1.082442 -0.90625,-1.6875 -0.36093,-0.472374 -1.125,-0.3125 -1.71875,-0.3125 z" id="path4200"/>
    <path style="fill:#ffba68;fill-rule:evenodd;stroke:#ff00ff;stroke-width:0.29055119;stroke-linecap:butt;stroke-linejoin:miter;stroke-miterlimit:4;stroke-dasharray:none;stroke-opacity:1;fill-opacity:1" d="m 45.457063,80.555029 1.625,6.9375 c 1.007972,3.104783 0.419371,5.251622 0.625,7.875 l 4.4375,5.812501 4.75,1.125 3.25,-1.1875 5.125,-0.625 -1.25,-2.562501 -1.1875,-1.375 0.375,-1.1875 -1.6875,-0.25 -5.5625,0.5625 -4.5625,-2.3125 c -0.269946,-2.232787 -0.395164,-4.489695 -1.625,-6.5625 0.03293,-1.760075 0.497491,-2.764808 -0.0625,-5.5625 -0.167101,-0.797495 -0.552018,-1.532757 -1.875,-2 -0.852904,0.284406 -1.831052,0.255703 -2.375,1.3125 z" id="path6005"/>
    <path style="color:#000000;font-style:normal;font-variant:normal;font-weight:normal;font-stretch:normal;font-size:medium;line-height:normal;font-family:sans-serif;text-indent:0;text-align:start;text-decoration:none;text-decoration-line:none;text-decoration-style:solid;text-decoration-color:#000000;letter-spacing:normal;word-spacing:normal;text-transform:none;direction:ltr;block-progression:tb;writing-mode:lr-tb;baseline-shift:baseline;text-anchor:start;white-space:normal;clip-rule:nonzero;display:inline;overflow:visible;visibility:visible;opacity:1;isolation:auto;mix-blend-mode:normal;color-interpolation:sRGB;color-interpolation-filters:linearRGB;solid-color:#000000;solid-opacity:1;fill:#ff6600;fill-opacity:1;fill-rule:evenodd;stroke:none;stroke-width:1px;stroke-linecap:butt;stroke-linejoin:miter;stroke-miterlimit:4;stroke-dasharray:none;stroke-dashoffset:0;stroke-opacity:1;color-rendering:auto;image-rendering:auto;shape-rendering:auto;text-rendering:auto;enable-background:accumulate" d="m 47.511751,78.941366 c -0.498773,0.03345 -0.994766,0.196817 -1.447266,0.412109 -0.484185,0.24878 -0.893379,0.736269 -0.996094,1.212891 0,0 1.568453,5.974346 1.875,8.597656 0.196695,1.683231 0.0122,4.793675 0.0122,4.793675 0.05808,1.270159 0.600273,2.772015 1.782451,4.467982 1.246251,2.047931 2.72235,3.333211 4.219478,3.703171 0.806027,0.19918 1.864225,0.071 2.527001,0.0759 0.568277,0.004 1.040794,0.50662 1.343633,0.51401 l 3.507812,-1.23437 c 0.926211,0.008 1.633952,-0.11391 2.388672,-0.15821 0.797318,-0.0468 1.397211,-0.49542 2.329313,-0.30254 0.932102,0.19287 1.327331,0.70071 1.50808,0.62604 0.739007,-0.54191 0.463076,-0.88492 0.01222,-1.46608 -0.460487,-0.377241 -1.129989,-0.406411 -1.300782,-0.584671 -0.580391,-1.1094 -1.178215,-2.581681 -1.990234,-3.227824 0.454655,-0.42787 0.63077,-0.464258 0.576172,-0.955078 -0.102985,-0.165367 -0.552283,-0.495326 -0.695313,-0.576172 -0.572119,-0.323382 -1.316797,-0.355514 -3.046875,-0.111328 -1.730078,0.244185 -3.200996,0.314381 -4.126953,0.106465 -1.144174,-0.282446 -2.288348,-0.620171 -3.432523,-1.597746 0.02082,-0.877051 -0.01162,-1.793061 -0.699448,-2.572266 -0.209215,-2.282141 -1.453901,-3.167575 -1.301317,-4.909889 0.152489,-1.741236 -0.127413,-3.46954 -0.301087,-4.528569 -0.173675,-1.05903 -0.725985,-1.675861 -1.28125,-1.919922 -0.462564,-0.302214 -0.964118,-0.398685 -1.46289,-0.365234 z m 0.154296,0.892578 c 0.393054,0.03579 0.687957,0.211575 0.90625,0.388672 0.248335,0.109153 0.493721,0.343773 0.716797,1.130859 0.148227,1.105625 0.227581,2.113749 0.07031,3.916016 -0.157269,1.802268 0.298454,3.444428 0.835937,5.082031 0.537483,1.637603 0.570361,2.410619 0.523438,3.105469 1.768901,2.015791 3.276139,2.421651 4.93164,2.623047 0.957701,0.216971 2.745323,0.184215 5.259766,-0.332031 0.788563,0.04302 1.507323,-0.142441 1.708984,-0.04492 -0.163666,0.273645 -0.10815,0.713118 -0.370826,0.978553 1.060078,0.766762 1.593322,1.273289 2.184245,2.861079 -2.266387,-0.91872 -9.174874,-3.616843 -13.825137,-4.413851 -1.14448,0.392087 -0.240798,1.5523 0.429687,2.625 3.791291,0.713211 7.051426,1.541321 10.842717,2.599612 -0.739505,0.0601 -1.474865,0.47177 -1.923599,0.45975 l -3.014821,1.13204 c -0.687237,-1.03827 -0.901071,-1.18687 -2.152344,-1.49609 -1.28443,-0.31742 -2.157007,-0.616941 -3.03125,-1.349611 -1.38447,-1.160268 -0.929006,-1.40392 -1.697688,-2.502947 -0.322606,-0.461247 -1.093564,-1.602787 -1.406695,-2.396088 -0.482011,-0.938005 -0.447497,-1.643109 -0.490095,-2.638224 -6.2e-5,-0.02043 -0.100344,-1.572161 -0.313725,-3.398286 -0.316245,-2.706312 -1.505348,-5.589036 -1.474609,-5.832031 0.05565,-0.439957 -0.433855,-1.926424 -0.207031,-2.042969 0.61384,-0.385816 1.104993,-0.490865 1.498049,-0.45508 z" id="path4206"/>
    <path style="color:#000000;font-style:normal;font-variant:normal;font-weight:normal;font-stretch:normal;font-size:medium;line-height:normal;font-family:sans-serif;text-indent:0;text-align:start;text-decoration:none;text-decoration-line:none;text-decoration-style:solid;text-decoration-color:#000000;letter-spacing:normal;word-spacing:normal;text-transform:none;direction:ltr;block-progression:tb;writing-mode:lr-tb;baseline-shift:baseline;text-anchor:start;white-space:normal;clip-rule:nonzero;display:inline;overflow:visible;visibility:visible;opacity:1;isolation:auto;mix-blend-mode:normal;color-interpolation:sRGB;color-interpolation-filters:linearRGB;solid-color:#000000;solid-opacity:1;fill:#ff6600;fill-opacity:1;fill-rule:evenodd;stroke:none;stroke-width:1.0629921;stroke-linecap:butt;stroke-linejoin:miter;stroke-miterlimit:4;stroke-dasharray:none;stroke-dashoffset:0;stroke-opacity:1;color-rendering:auto;image-rendering:auto;shape-rendering:auto;text-rendering:auto;enable-background:accumulate" d="m 65.847688,82.382772 -0.808594,0.232422 0.447266,2.75 c 0.652338,1.177981 0.383154,2.180435 0.189453,3.197266 l 0.763672,0.388675 c 0.124039,0.235144 0.455984,0.461226 0.613281,0.867187 l 3.941406,0.296875 c 1.647833,0.124118 2.913043,-0.741529 5.166016,-0.943359 0.439949,-0.03941 0.948793,-0.157936 1.248047,-0.136715 -0.07024,0.197944 -0.02023,0.343313 -0.28125,0.507808 -0.327789,0.666669 -0.228084,1.10138 -0.394531,1.720703 0.09916,0.801093 -0.27689,0.784665 -0.41211,1.455079 -2.293052,-1.072463 -3.726413,-1.794868 -6.708257,-2.232734 l -3.81518,-0.560235 c -1.162206,-0.223146 -0.467032,0.880386 -0.196021,1.651662 3.019525,0.764885 5.736975,1.337093 8.830786,2.399119 -1.542642,0.468844 -3.018327,1.033342 -5.123047,0.699219 -0.204427,-0.117347 -0.842999,0.0032 -1.783203,-0.363281 -1.380763,-0.538155 -2.269403,-1.194425 -2.62607,-1.544654 -0.927726,-0.910979 -1.087166,-1.613604 -1.256586,-2.552008 -0.397695,-0.535234 -0.976718,-0.938495 -0.976718,-0.938495 -0.375509,-0.902366 -0.372869,-0.69795 -0.804687,0.06055 -0.229569,0.269573 -0.71732,0.83845 -0.982422,0.824219 -0.198545,-0.01066 -0.19363,-0.682916 0.03907,-1.03125 l 1.055904,-1.580641 c 0.430905,-1.02986 0.293026,-3.370894 0.153078,-4.481862 l -1.085478,0.101562 c 0.07045,1.420667 0.229293,2.323324 -0.217797,3.762944 l -0.5271,2.04508 c -0.106347,0.412614 -0.316183,0.908858 -0.23603,1.301352 0.04008,0.196248 0.135594,0.54579 0.308593,0.714843 0.172999,0.169054 0.453729,0.03893 0.654297,-0.0059 0.47879,-0.106923 0.70573,-0.223942 1.00586,-0.503906 0.140698,0.312896 0.246462,0.516564 0.314453,0.732422 0.05044,0.160143 -0.02903,0.224919 -0.08398,0.640624 -0.05495,0.415706 0.07936,0.991144 0.621094,1.65625 1.181634,1.450728 2.570936,2.332285 4.089844,2.777344 0.738834,0.216488 1.427429,0.236123 2.484375,0.4375 -0.07711,-0.565638 -0.112478,-1.147977 -0.591797,-1.552734 2.039877,0.563688 3.966103,0.189751 5.839844,-0.617188 l 1.992187,-0.134765 c 0.955283,-0.06462 1.357269,0.22786 2.242188,0.39648 0.209991,-0.81496 -0.212034,-1.097113 -0.853516,-1.402344 l -1.009765,-0.480468 c 0.06914,-0.435452 0.50559,-1.128148 0.44336,-1.714844 0.15537,-0.434268 0.3911,-1.604114 0.547143,-1.967065 0.584844,0.343799 1.247116,0.479625 1.589965,0.255654 0.342849,-0.223971 -0.318223,-0.901513 -0.737857,-1.241894 -0.298217,-0.285464 -0.858366,-0.493955 -1.354321,-0.529118 -0.495956,-0.03516 -0.92261,0.05984 -1.279297,0.0918 -2.434887,0.218127 -4.192461,0.932955 -5.476563,0.970703 l -3.006779,0.08839 c -0.0733,-0.379222 -0.486374,-0.770618 -0.714613,-1.021752 0.204601,-0.999576 0.25126,-1.808276 -0.08372,-2.724839 0.08235,-1.241352 -0.425578,-1.987385 -1.153893,-2.761681 z" id="path4215"/>
    <path style="color:#000000;font-style:normal;font-variant:normal;font-weight:normal;font-stretch:normal;font-size:medium;line-height:normal;font-family:sans-serif;text-indent:0;text-align:start;text-decoration:none;text-decoration-line:none;text-decoration-style:solid;text-decoration-color:#000000;letter-spacing:normal;word-spacing:normal;text-transform:none;direction:ltr;block-progression:tb;writing-mode:lr-tb;baseline-shift:baseline;text-anchor:start;white-space:normal;clip-rule:nonzero;display:inline;overflow:visible;visibility:visible;opacity:1;isolation:auto;mix-blend-mode:normal;color-interpolation:sRGB;color-interpolation-filters:linearRGB;solid-color:#000000;solid-opacity:1;fill:#370000;fill-opacity:1;fill-rule:evenodd;stroke:none;stroke-width:2.83464575;stroke-linecap:butt;stroke-linejoin:miter;stroke-miterlimit:4;stroke-dasharray:none;stroke-dashoffset:0;stroke-opacity:1;color-rendering:auto;image-rendering:auto;shape-rendering:auto;text-rendering:auto;enable-background:accumulate" d="m 46.802766,48.578085 c -4.434355,0.173173 -7.078156,1.456272 -10.482422,3.886718 -2.055747,1.467684 -2.560381,3.425895 -3.642578,4.597657 -1.082197,1.171761 -2.668933,1.926067 -3.164062,2.138671 -1.459297,0.62661 -2.728983,0.53798 -3.566407,0.226563 -0.837423,-0.311418 -1.41171,-1.800512 -2.073881,-2.574984 -0.836074,-0.977867 -1.301329,-2.100567 -3.041353,-1.798063 1.150514,0.934323 2.004083,1.686999 2.40625,2.773438 0.627529,1.695245 0.647962,1.707587 1.845703,2.505859 1.618295,1.078563 3.286782,1.141709 4.691406,0.636719 1.752799,-0.630166 2.519892,-0.984938 3.673829,-2.234375 1.153936,-1.249438 2.106024,-3.170076 3.832031,-4.402344 3.869701,-2.76274 6.021103,-3.425416 11.566406,-3.935547 3.90913,-0.359614 12.588807,1.422647 14.314907,1.315489 -2.400432,-2.032406 -6.050999,-2.41356 -10.346157,-2.940489 -1.526495,-0.18727 -4.535554,-0.253037 -6.013672,-0.195312 z" id="path4219"/>
    <path style="color:#000000;font-style:normal;font-variant:normal;font-weight:normal;font-stretch:normal;font-size:medium;line-height:normal;font-family:sans-serif;text-indent:0;text-align:start;text-decoration:none;text-decoration-line:none;text-decoration-style:solid;text-decoration-color:#000000;letter-spacing:normal;word-spacing:normal;text-transform:none;direction:ltr;block-progression:tb;writing-mode:lr-tb;baseline-shift:baseline;text-anchor:start;white-space:normal;clip-rule:nonzero;display:inline;overflow:visible;visibility:visible;opacity:1;isolation:auto;mix-blend-mode:normal;color-interpolation:sRGB;color-interpolation-filters:linearRGB;solid-color:#000000;solid-opacity:1;fill:#142d4e;fill-opacity:1;fill-rule:evenodd;stroke:none;stroke-width:1.77165353;stroke-linecap:butt;stroke-linejoin:miter;stroke-miterlimit:4;stroke-dasharray:none;stroke-dashoffset:0;stroke-opacity:1;color-rendering:auto;image-rendering:auto;shape-rendering:auto;text-rendering:auto;enable-background:accumulate" d="m 25.144563,66.179648 c 0.436394,0.282362 3.043674,1.020564 3.597654,1.93884 0.34367,0.569665 0.293843,0.919608 0.521447,1.23449 0.338955,0.468933 0.505446,1.094797 1.119141,1.211205 0.49581,0.09405 1.122009,-0.118143 1.839653,-0.22526 0.717645,-0.107117 1.868549,-0.370804 2.286803,-0.276387 0.968703,0.218678 2.066571,0.67151 3.358954,1.35727 1.292383,0.685759 4.026348,2.697341 4.026348,2.697341 0.243068,-0.37565 -2.551404,-3.053401 -3.367953,-3.613396 -1.257446,-0.862366 -1.958044,-1.452235 -3.307293,-1.756817 -0.902674,-0.203772 -2.06188,-0.143498 -2.733877,-0.0432 -0.671997,0.100304 -1.389612,0.760079 -1.647901,0.477751 -0.327615,-0.358106 -0.346482,-0.954272 -0.538679,-1.218635 -0.192198,-0.264362 -0.611567,-0.658218 -1.0625,-0.99414 -0.967597,-0.72081 -3.981312,-1.098421 -4.091797,-0.789062 z" id="path4223"/>
    <path style="color:#000000;font-style:normal;font-variant:normal;font-weight:normal;font-stretch:normal;font-size:medium;line-height:normal;font-family:sans-serif;text-indent:0;text-align:start;text-decoration:none;text-decoration-line:none;text-decoration-style:solid;text-decoration-color:#000000;letter-spacing:normal;word-spacing:normal;text-transform:none;direction:ltr;block-progression:tb;writing-mode:lr-tb;baseline-shift:baseline;text-anchor:start;white-space:normal;clip-rule:nonzero;display:inline;overflow:visible;visibility:visible;opacity:1;isolation:auto;mix-blend-mode:normal;color-interpolation:sRGB;color-interpolation-filters:linearRGB;solid-color:#000000;solid-opacity:1;fill:#214420;fill-opacity:1;fill-rule:evenodd;stroke:none;stroke-width:1px;stroke-linecap:butt;stroke-linejoin:miter;stroke-miterlimit:4;stroke-dasharray:none;stroke-dashoffset:0;stroke-opacity:1;color-rendering:auto;image-rendering:auto;shape-rendering:auto;text-rendering:auto;enable-background:accumulate" d="m 77.86136,5.8808189 c -0.44781,0.035311 -1.545779,0.4536747 -1.736475,0.6782313 -0.169001,0.1990087 -1.374857,0.3237212 -1.374857,0.3237212 0.29149,0.7898254 0.692115,1.4472935 1.130859,1.7226565 0.436664,0.274058 0.374249,1.09711 0.847736,1.351432 0.811914,0.4360981 1.293375,0.5947981 2.18504,0.5249411 0.224561,-0.01759 1.22961,-0.449921 1.859802,-0.5365311 -0.256187,-0.665177 -0.11353,-1.12404 -0.216343,-2.0237044 -0.10582,-0.9259792 -0.437956,-1.2368537 -1.23186,-1.6881556 -0.52655,-0.299322 -1.103404,-0.381017 -1.463902,-0.352591 z m 1.113281,1.1269531 c 0.495896,0.2476715 0.580136,0.7450962 0.638878,1.3299339 0.03011,0.299745 -0.04466,0.781029 -0.320518,0.88491 -0.678319,0.255439 -1.412775,0.132294 -2.077154,-0.231505 -0.304043,-0.166487 -0.67709,-0.615085 -0.678317,-0.9520547 -0.3772,-0.3489134 -0.789856,-0.3675564 -0.848002,-0.6037511 0.311674,-0.1280655 0.812644,-0.049795 0.952187,-0.087985 0.299099,-0.081857 0.693787,-0.4450766 0.983636,-0.5391637 0.309853,-0.1005803 1.053401,0.051836 1.34929,0.1996156 z" id="path4175"/>
    <path style="display:inline;opacity:1;fill:#000000;fill-opacity:1;stroke:none;stroke-width:0.35433072;stroke-linecap:round;stroke-linejoin:round;stroke-miterlimit:4;stroke-dasharray:none;stroke-dashoffset:0;stroke-opacity:1" d="m 77.028737,7.3486389 c -0.364542,0.59842 -0.252826,1.3714 0.266227,1.84214 0.519093,0.47067 1.299247,0.5066 1.859313,0.0855 0.560069,-0.42112 0.742241,-1.18059 0.434162,-1.80995 -0.308091,-0.62935 -1.019662,-0.9513 -1.695778,-0.76726 0.382542,0.53937 0.981544,0.94302 0.72713,1.88174 -0.439012,-0.47918 -0.675083,-1.11045 -1.591054,-1.23216 z" id="path4227"/>
  </g>
</svg>