<?xml version="1.0" encoding="UTF-8"?>
<svg id="Layer_1" data-name="Layer 1" xmlns="http://www.w3.org/2000/svg" viewBox="0 0 1186.94 1186.94">
  <defs>
    <style>
      .great_grandmother-cls-1 {
        fill: #f7ce96;
      }

      .great_grandmother-cls-1, .great_grandmother-cls-2, .great_grandmother-cls-3, .great_grandmother-cls-4, .great_grandmother-cls-5, .great_grandmother-cls-6, .great_grandmother-cls-7, .great_grandmother-cls-8, .great_grandmother-cls-9, .great_grandmother-cls-10, .great_grandmother-cls-11, .great_grandmother-cls-12, .great_grandmother-cls-13, .great_grandmother-cls-14, .great_grandmother-cls-15, .great_grandmother-cls-16, .great_grandmother-cls-17, .great_grandmother-cls-18, .great_grandmother-cls-19, .great_grandmother-cls-20, .great_grandmother-cls-21, .great_grandmother-cls-22, .great_grandmother-cls-23, .great_grandmother-cls-24, .great_grandmother-cls-25, .great_grandmother-cls-26, .great_grandmother-cls-27, .great_grandmother-cls-28, .great_grandmother-cls-29, .great_grandmother-cls-30, .great_grandmother-cls-31, .great_grandmother-cls-32, .great_grandmother-cls-33, .great_grandmother-cls-34, .great_grandmother-cls-35, .great_grandmother-cls-36, .great_grandmother-cls-37, .great_grandmother-cls-38, .great_grandmother-cls-39, .great_grandmother-cls-40, .great_grandmother-cls-41, .great_grandmother-cls-42 {
        stroke-width: 0px;
      }

      .great_grandmother-cls-2 {
        fill: #5f976c;
      }

      .great_grandmother-cls-3 {
        fill: #46240d;
      }

      .great_grandmother-cls-4 {
        fill: #74a897;
      }

      .great_grandmother-cls-5 {
        fill: #612f20;
      }

      .great_grandmother-cls-6 {
        fill: #76c5bf;
      }

      .great_grandmother-cls-7 {
        fill: #2a190f;
      }

      .great_grandmother-cls-8 {
        fill: #873927;
      }

      .great_grandmother-cls-9 {
        fill: #461317;
      }

      .great_grandmother-cls-10 {
        fill: #9b4c31;
      }

      .great_grandmother-cls-11 {
        fill: #95baab;
      }

      .great_grandmother-cls-12 {
        fill: #a36133;
      }

      .great_grandmother-cls-13 {
        fill: #322313;
      }

      .great_grandmother-cls-14 {
        fill: #258566;
      }

      .great_grandmother-cls-15 {
        fill: #448279;
      }

      .great_grandmother-cls-16 {
        fill: #3f6630;
      }

      .great_grandmother-cls-17 {
        fill: #22211c;
      }

      .great_grandmother-cls-18 {
        fill: #123439;
      }

      .great_grandmother-cls-19 {
        fill: #dcefe8;
      }

      .great_grandmother-cls-20 {
        fill: #d89c5b;
      }

      .great_grandmother-cls-21 {
        fill: #e2b179;
      }

      .great_grandmother-cls-22 {
        fill: #e1c6a0;
      }

      .great_grandmother-cls-23 {
        fill: #c8e6d8;
      }

      .great_grandmother-cls-24 {
        fill: #dc848a;
      }

      .great_grandmother-cls-25 {
        fill: #be9167;
      }

      .great_grandmother-cls-26 {
        fill: #af702d;
      }

      .great_grandmother-cls-27 {
        fill: #b1a997;
      }

      .great_grandmother-cls-28 {
        fill: #b7ccc3;
      }

      .great_grandmother-cls-29 {
        fill: #b97f4a;
      }

      .great_grandmother-cls-30 {
        fill: #33280e;
      }

      .great_grandmother-cls-31 {
        fill: #811f31;
      }

      .great_grandmother-cls-32 {
        fill: #854931;
      }

      .great_grandmother-cls-33 {
        fill: #83c086;
      }

      .great_grandmother-cls-34 {
        fill: #855635;
      }

      .great_grandmother-cls-35 {
        fill: #655c3f;
      }

      .great_grandmother-cls-36 {
        fill: #ecded1;
      }

      .great_grandmother-cls-37 {
        fill: #edbcb6;
      }

      .great_grandmother-cls-38 {
        fill: #fefbf4;
      }

      .great_grandmother-cls-39 {
        fill: #060605;
      }

      .great_grandmother-cls-40 {
        fill: #681c21;
      }

      .great_grandmother-cls-41 {
        fill: #66a8a5;
      }

      .great_grandmother-cls-42 {
        fill: #683719;
      }
    </style>
  </defs>
  <g>
    <g>
      <path class="great_grandmother-cls-5" d="m878.62,775.45c2.28,8.96,10.41,16.75,12.75,21.44,4.15,8.3,9.13,17.72,11.59,26.66,9.89,35.97,20.33,155.02,24.34,199.37.23,2.54,1.09,8.14,3.48,9.85-24.27.7-48.73-.12-73.02,0-3.45-57.99-10.05-116.62-13.33-175.03-5.66,52.17-11.08,109.32-11.01,161.7,0,1.98-.33,11.12,0,11.59,1.28,1.82,7.78-1,9.27,1.74-153.76.55-307.58-1.19-461.33,0,3.16-16.7-3.75-123.32-1.16-129.24.4-.91,12.67-4.28,13.33-4.06,2.37.79,17.39,37.39,22.6,44.63,24.29,33.69,108.32,25.42,160.54,45.79,2.78,1.09,37.97,19.95,41.15,22.02,9.72,6.33,10.81,11.46,15.07,12.17-2.57-9.14-5.32-18.17-8.11-27.24-3.24-14.4-7.6-28.38-10.43-42.89,4.4-6.5,29.58-2.82,41.73-4.64,47.83,7,55.67-35.24,51.58-74.18,5.91.1,35.56,14.9,37.67,12.17-3.36-22.11-4.71-44.67-11.59-66.07,1.18-4.74,26.93,12.98,38.25-8.11,4.41-8.21,5.52-53.47,6.95-68.39.74-7.67,2.79-15.34,3.48-23.18.08-.9,2.31-1.59,2.32-1.74,23.35,10.94,79.62,37.12,93.89,55.64Z"/>
      <path class="great_grandmother-cls-32" d="m918.03,839.21c17.42,49.95,29.68,139.59,30.72,193.57-5.98.12-11.99-.17-17.97,0-2.39-1.71-3.25-7.31-3.48-9.85-4.01-44.35-14.45-163.4-24.34-199.37-2.46-8.94-7.44-18.36-11.59-26.66-2.35-4.69-10.47-12.48-12.75-21.44,19.95,14.73,31.48,41,39.41,63.75Z"/>
      <path class="great_grandmother-cls-32" d="m857.75,1032.78c-5.02.02-10.05-.02-15.07,0-1.5-2.74-7.99.08-9.27-1.74-.33-.47,0-9.61,0-11.59-.07-52.38,5.35-109.53,11.01-161.7,3.28,58.4,9.88,117.04,13.33,175.03Z"/>
      <path class="great_grandmother-cls-13" d="m656.06,949.32c-12.15,1.81-37.33-1.87-41.73,4.64-.09-.48-3.03-4.59-2.9-9.27,23.04-2.3,33.93,3.07,44.63,4.64Z"/>
    </g>
    <g>
      <path class="great_grandmother-cls-17" d="m248.05,1032.78c-2.22-.26-10.68.71-11.59-.58-3.99-45.75,17.7-156.67,31.3-198.79,8.82-27.34,23.77-54.86,46.36-73.02.24-.19.92.19,1.16,0,3.96,6.85-10.3,16.34-17.39,28.4-25.26,42.95-46.56,153.78-48.68,204.01-.75,17.81,3.86,34.78-1.16,39.99Z"/>
      <g>
        <path class="great_grandmother-cls-39" d="m397.58,712.86c.27.62,8.09,7.9,9.27,9.85-15.85,23.23-7.01,39.61,4.64,60.85,11.56,21.09,12.2,26.99,37.09,28.98,2.43.19,11.8-.67,12.75.58-9.55,14.79-13.29,36.55-12.75,53.9,1.25,40.15,22.49,51.23,57.96,32.46-3.59,9.47-3.59,19.17-2.32,28.98.06.43-2.19,3.22,1.16,8.69,6.78,11.08,69.99,29.87,85.78,37.67,8.51,5.25,19.97,27.75,26.66,37.09-3.18-2.07-38.36-20.94-41.15-22.02-52.22-20.36-136.25-12.1-160.54-45.79-5.22-7.23-20.23-43.83-22.6-44.63-.66-.22-12.93,3.15-13.33,4.06-2.59,5.92,4.32,112.54,1.16,129.24-5.54.04-39.84,3.66-41.73-.58,6.38-37.56,3.7-75.14,4.06-113.01-3.99,37.85,2.23,75.5-6.38,113.01-2.74,3.53-79.39,1.76-89.25.58,5.01-5.21.4-22.18,1.16-39.99,2.13-50.22,23.43-161.05,48.68-204.01,7.09-12.06,21.35-21.55,17.39-28.4,24.92-19.55,55.13-31.54,82.3-47.52Z"/>
        <path class="great_grandmother-cls-27" d="m337.88,794c31.18,91.95-10.74,112.37,0,194.73-15.17-78.52,26.93-93.66,0-194.73Z"/>
      </g>
    </g>
  </g>
  <path class="great_grandmother-cls-6" d="m441.63,556.38c24.63,18.66,22.19,54.68-1.16,54.48-28.5-.24-46.94-46.06-12.75-62.59,4.34,3.3,9.55,4.81,13.91,8.11Z"/>
  <path class="great_grandmother-cls-38" d="m645.63,842.68c-16.34,29.94-29.64,61.36-35.93,95.05-.44-.52-1.67,1.24-1.74,1.16-5.27-5.84-11.79-10.29-17.97-15.07,5.1-22.42-31.8-76.18-44.05-97.37q13.04,11.59,26.08,23.18,36.8-3.48,73.6-6.95Z"/>
  <g>
    <path class="great_grandmother-cls-36" d="m368.6,398.74c3.33,7.12,13.52,20.25,20.86,23.18,1.82,3.64-7.43,13.62-9.27,22.6-7.13,34.71,23.6,71.82,45.79,95.63,7.09-10.15,2.99,2.5,1.74,8.11-34.19,16.53-15.75,62.35,12.75,62.59,6.7,19.8,19.76,37.76,24.34,57.96-10.51-.48-22.92,6.28-33.04,11.59-6.72,3.53-34.82,20.33-30.72,23.18-7.27,3.8-3.74,3.24-3.48,5.8.13,1.31-.23,2.97,0,3.48-27.17,15.98-57.38,27.98-82.3,47.52-.24.19-.92-.19-1.16,0-53.03-101.71-58.08-205.04,1.16-305.43-30.54,30.59-33.37,78.06-63.75,108.38.57-1.98,1.97-13.4,4.64-21.44,20.99-63.3,54.38-122.12,102.58-168.65,2.15,1.45,3.27,26.01,9.85,25.5Z"/>
    <path class="great_grandmother-cls-38" d="m918.03,839.21c-7.93-22.76-19.46-49.02-39.41-63.75-14.27-18.52-70.54-44.69-93.89-55.64.04-.67-2.51.37-1.16-12.17-16.28-15.09-39.77-18.05-60.27-24.92,53.97-8.61,128.68-41.18,143.73-99.11,12.2-46.96-6.94-155.65-55.64-181.4-.42-4.44,15.89-15.54,19.71-22.02,101.57,125.47,153.11,305.21,86.93,459.01Z"/>
    <path class="great_grandmother-cls-38" d="m314.12,760.39c-22.6,18.16-37.54,45.69-46.36,73.02-34.26-67.65-42.49-161.38-27.82-234.72,3.15-15.75,10.3-30.87,11.59-35.35,30.39-30.32,33.21-77.79,63.75-108.38-59.24,100.39-54.19,203.72-1.16,305.43Z"/>
    <path class="great_grandmother-cls-38" d="m506.54,634.04c4.42,4,8.13,9.16,13.91,11.59-1.03,1.36-3.99,5.3-4.64,5.8-3.31,2.55-31.1,20.58-33.04,20.86-2.26.33-2.97-1.07-5.22-1.16-2.8-.11-8.75-2.14-12.75-2.32-4.59-20.2-17.64-38.15-24.34-57.96,23.35.2,25.79-35.82,1.16-54.48q6.95-8.11,13.91-16.23c5.23,17.15,6.62,46.25,16.23,65.49,10.12,11.16,23.73,18.39,34.77,28.4Z"/>
    <g>
      <path class="great_grandmother-cls-36" d="m723.29,682.72c-.33-2.21-6.54-.75-12.75-1.16-3.76-.25-6.63,1.77-10.43,1.16-18.13-1.36-30.23-17.09-39.41-32.46-.1-2.25.38-3.76-1.16-5.8,1.58-.66,5.52-2.62,6.95-3.48.18-.11-1.06-.75,2.32-3.48,20.63-16.61,29.43-47.86,39.41-71.87,15.86-31.5,22.84-3.41,32.46-12.75,5.79-5.62,35.39-81.68,33.61-86.35-.55-1.45-1.38.88-2.32.58q4.06-11.3,8.11-22.6l-21.44-6.38c-2.05,2.75-4.13,5.51-6.38,8.11-1.48,1.72-3.3,2.34-4.64,4.64-1.48-.85-3.22-1.38-4.64-2.32,7.17-.98,13.36-11.32,19.71-17.39,8.09-1.62,51.59-14.27,52.16-23.18.28-4.41-3.05-1.29-3.48-5.8,48.69,25.75,67.84,134.45,55.64,181.4-15.05,57.92-89.76,90.5-143.73,99.11Z"/>
      <path class="great_grandmother-cls-19" d="m727.93,614.34c-9.6-39,16.35-47.72,17.39-50.42.67-1.73-1.15-1.63-1.16-1.74-.23-3.52-2.49-2.13-2.32-2.9,3-4.42,14.55,5.18,17.39,9.27,18.95,27.38-7.12,69.92-31.3,45.79Z"/>
      <path class="great_grandmother-cls-6" d="m744.16,562.18c0,.1,1.83,0,1.16,1.74-1.04,2.7-26.99,11.42-17.39,50.42-17.95-17.92-11.8-55.28,16.23-52.16Z"/>
    </g>
  </g>
  <g>
    <path class="great_grandmother-cls-15" d="m454.38,230.67c-13.06,32.25-22.36,67.09-35.35,98.53,9.32-11.7,18.58-23.65,27.24-35.93-1.43,8.83-3.1,17.82-4.64,26.66-2.57-7.25-13.14,14.23-28.4,27.82-16,14.25-23.32,14.29-23.76,15.65,6.91,25.39,23.61,44.51,51.58,33.04-13.84,17.26-40.34,2.98-59.69,1.16-6.23-18.75-5.82-37.61-3.48-57.38-1.87-4.35-4.47-2.67-4.64-2.9-21.15-30.32-16.94-45.87-2.32-79.98,10.76,10.23,28.52,12.22,41.73,4.64-2.82,10.82-4.59,22.25-6.95,33.04,22.72-24.18,31.67-58.42,42.89-89.25,4.54,8.81-15,38.1-7.53,37.67,14.07-22.48,22.65-50.62,45.79-66.07-18.11,16.34-23.74,31.8-32.46,53.32Z"/>
    <path class="great_grandmother-cls-41" d="m412.65,261.96c-13.21,7.58-30.97,5.6-41.73-4.64-3.75-20.48,4.11-30.48,5.8-35.93,4.85,28.65,17.75-4.43,34.19-15.07,12.07-7.8,12.89,12.01,12.17,21.44-.87,11.38-7.59,23.29-10.43,34.19Z"/>
    <path class="great_grandmother-cls-18" d="m381.35,397.58c2.6,7.82,7.7,19.17,12.75,25.5-1.3-.22-3.51-.71-4.64-1.16-7.35-2.93-17.54-16.07-20.86-23.18-10.09-21.58-8.21-41.53,4.64-61.43.16.23,2.76-1.45,4.64,2.9-2.34,19.77-2.75,38.62,3.48,57.38Z"/>
    <path class="great_grandmother-cls-41" d="m441.63,319.92c-.35,2-2.01,6.16-2.32,8.11-.54,3.41-4.9,25.71-2.9,26.66,4.19-5.3,7.6-13.76,11.01-18.55,4.36-6.12,3.55-10.6,11.59-3.48-3.37,8.65-6.74,17.13-9.27,26.08,1.43,36.08,4.11,73.02-4.64,108.38l-11.59,24.34h-1.16c3-18.12,5.16-36.31,11.59-53.9-19.95,17.33-21.74,24.52-25.5,12.17-.55-1.82.58-6.38,0-7.53-1.04-2.07-16.56-9.36-24.34-19.13-5.05-6.33-10.15-17.68-12.75-25.5,19.36,1.82,45.85,16.1,59.69-1.16-27.97,11.48-44.67-7.65-51.58-33.04.44-1.35,7.76-1.4,23.76-15.65,15.25-13.59,25.83-35.07,28.4-27.82Z"/>
    <path class="great_grandmother-cls-11" d="m621.29,265.44c-.36.15-2.33,2.27-6.95,3.48-4.52,1.18-7.02,1.61-11.59,2.32-54.76,8.44-78.83,1.46-113.59-38.25-2.54-6.63,10.77,1.8,27.24,3.48,29.14,2.97,75.18.32,99.68-17.39q2.61,23.18,5.22,46.36Z"/>
    <path class="great_grandmother-cls-4" d="m709.38,357.01c-1.78-14.95-.18-18.25-6.95-44.05-6.54-24.91-26.96-76.34-31.3-99.68-.34-1.86-3.21-21.86,0-17.97,2.82,3.43,14.3,56.13,26.66,84.62,5.47,12.6,42.15,78.02,49.84,88.09,12.61,16.52,29.73,32.15,51,34.77-37.21,9.48-67.85-19.24-89.25-45.79Z"/>
    <path class="great_grandmother-cls-15" d="m489.15,232.98c34.76,39.71,58.84,46.7,113.59,38.25-38.85,10.83-81.43,7.44-118.23,25.5-1.31.64-2.23,1.56-3.48,2.32-.32.19-2.47-.6-5.8,4.64-.25-.83.6-2.38-1.16-2.32.16-.5-2.34-.5,3.48-9.85-2.81-23.52-8.76-48.66.58-71.29,4.92,3.49,8.09,9.42,11.01,12.75Z"/>
    <path class="great_grandmother-cls-23" d="m446.26,293.26c-8.66,12.28-17.92,24.23-27.24,35.93,12.99-31.43,22.29-66.28,35.35-98.53,5.29-.2-3.3,16.87-4.64,24.92-1.81,10.87-1.49,25.46-3.48,37.67Z"/>
    <path class="great_grandmother-cls-11" d="m447.42,336.15c-3.42,4.79-6.82,13.25-11.01,18.55-2-.95,2.36-23.25,2.9-26.66,4.14,1.68-.12,7.25,8.11,8.11Z"/>
    <g>
      <path class="great_grandmother-cls-19" d="m832.25,328.03c-3-7.89-17.22-8.03-30.14-23.76-3.34-4.06-12.83-20.99-15.07-26.08-9.34-21.24-9.96-38.43-24.34-63.75-11.74-20.67-30.79-44.95-57.38-40.57-6.2-1.8-24-38.59-74.76-41.73-6.98-.43-26.69-.14-31.88,3.48-14.13,9.85,27.36,9.36,32.46,10.43,5.23,1.1,18.61,8.93,17.39,5.8-.53-1.37-11.07-5.17-13.33-6.95,29.12,5.45,43.84,23.24,62.01,34.77,20.99,13.32,39.16,16.64,57.38,40.57,22.97,30.17,20.61,66.84,33.61,84.62,7.93,10.84,31.5,23.74,44.05,23.18,5.56,14.61,6.99,38.32-1.16,52.16-3.82,6.49-20.13,17.59-19.71,22.02.43,4.51,3.76,1.39,3.48,5.8-7.54-2.28-21.78,11.14-41.15,16.23-24.25,6.37-37.95,5.72-57.38-11.59-1.18-5.3-2.16-10.74-4.64-15.65.67-13.46-.73-26.66-2.32-39.99,21.41,26.54,52.04,55.26,89.25,45.79-21.27-2.63-38.39-18.26-51-34.77-7.69-10.07-44.38-75.5-49.84-88.09-12.36-28.48-23.84-81.19-26.66-84.62-3.21-3.9-.34,16.11,0,17.97-5.31-10.23-4.03,8.99-17.39,27.24-4.72,6.45-23.61,22.78-30.72,26.08-.16.08-.95-1.48-1.74-1.16q-2.61-23.18-5.22-46.36c-24.5,17.71-70.54,20.35-99.68,17.39-16.47-1.68-29.78-10.1-27.24-3.48-2.92-3.33-6.1-9.26-11.01-12.75-9.34,22.63-3.39,47.77-.58,71.29-5.81,9.35-3.31,9.36-3.48,9.85-1.93,5.86-10.67,19.99-15.07,31.3-8.04-7.13-7.23-2.64-11.59,3.48-8.23-.86-3.98-6.44-8.11-8.11.31-1.95,1.97-6.11,2.32-8.11,1.54-8.84,3.2-17.83,4.64-26.66,1.98-12.21,1.67-26.8,3.48-37.67,1.34-8.06,9.93-25.13,4.64-24.92,8.72-21.52,14.35-36.98,32.46-53.32.33-.22,3.95-.15,6.95-4.06-2.53-1.32-5.52,2.76-6.95,4.06-23.13,15.45-31.72,43.59-45.79,66.07-7.46.43,12.07-28.86,7.53-37.67-11.21,30.84-20.17,65.07-42.89,89.25,2.36-10.79,4.13-22.22,6.95-33.04,2.84-10.9,9.56-22.81,10.43-34.19.72-9.43-.11-29.24-12.17-21.44-16.45,10.63-29.34,43.71-34.19,15.07,17.47-56.65,31.89-84.31,94.47-93.89,10.31-7.95,21.71-17.75,33.61-23.18,35.18-16.06,140.67-22.29,169.23-9.27,4.41,2.01,15.25,12.02,18.55,12.75,11.52,2.55,24.25-4.69,46.36,6.95,13.88,7.31,61.34,62.97,66.65,77.08,6.74,46.78,38.99,87.15,26.66,136.2Z"/>
      <g>
        <g>
          <path class="great_grandmother-cls-11" d="m762.7,214.44l-8.11,5.8c-18.21-23.93-36.38-27.25-57.38-40.57-18.18-11.53-32.9-29.33-62.01-34.77-5.23-4.14-8.53-5.99-4.64-12.75,50.77,3.14,68.56,39.93,74.76,41.73,26.58-4.38,45.63,19.9,57.38,40.57Z"/>
          <path class="great_grandmother-cls-4" d="m762.7,214.44c14.39,25.32,15,42.51,24.34,63.75-7.96-3.01,5.09,12.81,1.16,26.66-13-17.78-10.65-54.44-33.61-84.62l8.11-5.8Z"/>
          <path class="great_grandmother-cls-15" d="m787.05,278.19c2.24,5.09,11.73,22.02,15.07,26.08,12.92,15.73,27.14,15.87,30.14,23.76-12.55.56-36.12-12.34-44.05-23.18,3.93-13.85-9.12-29.67-1.16-26.66Z"/>
          <path class="great_grandmother-cls-11" d="m630.56,132.14c-3.89,6.76-.6,8.61,4.64,12.75,2.26,1.79,12.8,5.58,13.33,6.95,1.22,3.14-12.16-4.7-17.39-5.8-5.09-1.07-46.58-.58-32.46-10.43,5.18-3.61,24.9-3.91,31.88-3.48Z"/>
        </g>
        <path class="great_grandmother-cls-15" d="m562.75,153c35.33-1.22,74.19,5.37,64.33,50.42,10.48-68.16-92.79-50.82-130.4-31.88,13.52-11.6,48.85-17.95,66.07-18.55Z"/>
        <path class="great_grandmother-cls-11" d="m658.38,161.12c1.35,1.41,2.88,3.14,4.64,4.06,7.03,19.8.38,3.03-4.64-4.06Z"/>
        <path class="great_grandmother-cls-11" d="m658.38,161.12c-.3-.31-2.16.63-6.95-5.22,6.63.32,6.7,4.86,6.95,5.22Z"/>
        <path class="great_grandmother-cls-15" d="m486.83,177.35c1.44-1.3,4.43-5.38,6.95-4.06-3.01,3.91-6.62,3.83-6.95,4.06Z"/>
        <path class="great_grandmother-cls-28" d="m624.19,208.64c1.71.3-1.62,5.92-2.32,5.8-1.71-.3,1.62-5.92,2.32-5.8Z"/>
      </g>
    </g>
    <path class="great_grandmother-cls-4" d="m733.73,434.67c.56.65,1.47,8.75,9.27,13.91,1.41.94,3.15,1.46,4.64,2.32-.18.32-2.16,6.19-2.32,6.95l-12.75-3.48c-5.19-4.5-10.43-21.65-12.75-28.98,4.98,3.11,9.92,4.67,13.91,9.27Z"/>
    <g>
      <path class="great_grandmother-cls-11" d="m814.86,408.01c-.57,8.91-44.07,21.56-52.16,23.18-9.63,1.93-19.14,3.44-28.98,3.48-3.99-4.6-8.93-6.16-13.91-9.27-1.76-5.55-2.18-6.94-3.48-12.75,19.43,17.31,33.13,17.96,57.38,11.59,19.37-5.09,33.61-18.5,41.15-16.23Z"/>
      <path class="great_grandmother-cls-19" d="m743,448.58c-7.8-5.16-8.71-13.26-9.27-13.91,9.84-.03,19.35-1.55,28.98-3.48-6.34,6.07-12.54,16.41-19.71,17.39Z"/>
    </g>
  </g>
  <g>
    <path class="great_grandmother-cls-3" d="m394.1,423.08c7.78,9.76,23.3,17.06,24.34,19.13.58,1.15-.55,5.71,0,7.53l-8.11,29.56c8.6,9.38,17.43,39.92,22.02,12.17h1.16c5.12,11.5,19.26,39.62,22.02,48.68q-6.95,8.11-13.91,16.23c-4.36-3.3-9.56-4.82-13.91-8.11,1.25-5.61,5.35-18.26-1.74-8.11-22.18-23.81-52.91-60.92-45.79-95.63,1.85-8.99,11.09-18.96,9.27-22.6,1.12.45,3.34.93,4.64,1.16Z"/>
    <path class="great_grandmother-cls-39" d="m432.35,491.47c-4.6,27.75-13.43-2.79-22.02-12.17l8.11-29.56c3.76,12.35,5.55,5.16,25.5-12.17-6.43,17.59-8.59,35.77-11.59,53.9Z"/>
  </g>
  <g>
    <path class="great_grandmother-cls-19" d="m609.7,937.73c.06.07-.24,1.29,1.16,1.16-3.32,14.16,8.98,34.6,9.27,50.42.8,1.17,4.51,7.11,4.64,7.53,2.79,9.07,5.54,18.1,8.11,27.24-4.26-.72-5.34-5.84-15.07-12.17-6.69-9.34-18.15-31.84-26.66-37.09-12.15-15.42-30.07-25.77-45.21-38.25q16.52,3.48,33.04,6.95c1.39-.49,10.51-17.48,11.01-19.71,6.18,4.77,12.69,9.23,17.97,15.07.07.08,1.29-1.68,1.74-1.16Z"/>
    <g>
      <path class="great_grandmother-cls-33" d="m499.58,784.73c.59,2.24,24.28,21.5,28.98,22.02,1.42.03,1.73,1.41,2.32,2.32,6.26,9.76,12.27,10.11,15.07,17.39,12.24,21.19,49.14,74.95,44.05,97.37-.51,2.22-9.63,19.21-11.01,19.71q-16.52-3.48-33.04-6.95c-10.12-8.34-10.99-23.13-41.73-8.11-1.27-9.81-1.27-19.51,2.32-28.98,3.19-8.4,21.06-21.08,6.38-28.98-20.5-11.02-37.46,25.8-64.33-3.48-.54-17.35,3.2-39.11,12.75-53.9-.95-1.24-10.32-.39-12.75-.58-2.44-8.57-9.97-16.91-13.91-23.76-.07-.12,1.55-1.07,1.16-1.74,11.81-.73,24.8-4.62,36.51-4.64,10.51-.02,24.68,6.36,27.24,2.32Z"/>
      <path class="great_grandmother-cls-2" d="m506.54,899.48c-35.47,18.78-56.7,7.7-57.96-32.46,26.87,29.28,43.83-7.54,64.33,3.48,14.69,7.9-3.19,20.58-6.38,28.98Z"/>
      <path class="great_grandmother-cls-33" d="m430.04,782.41q-9.27.58-18.55,1.16c-11.65-21.25-20.49-37.62-4.64-60.85-1.18-1.95-9-9.23-9.27-9.85-.23-.51.13-2.17,0-3.48,9.28-2.23,24.2,27.92,27.24,28.98,3.68,1.29,23.85-2.12,24.92,1.74q-11.59,17.39-23.18,34.77c-.1.69,2.76,6.15,3.48,7.53Z"/>
      <path class="great_grandmother-cls-2" d="m545.95,936.57c15.14,12.48,33.05,22.83,45.21,38.25-15.79-7.81-79-26.59-85.78-37.67-3.35-5.48-1.1-8.26-1.16-8.69,30.74-15.01,31.6-.23,41.73,8.11Z"/>
      <path class="great_grandmother-cls-2" d="m435.83,787.05c.39.66-1.23,1.62-1.16,1.74,3.94,6.85,11.46,15.2,13.91,23.76-24.89-1.99-25.53-7.89-37.09-28.98q9.27-.58,18.55-1.16c1.79,3.47,5.61,4.32,5.8,4.64Z"/>
      <path class="great_grandmother-cls-14" d="m500.74,765.02c0,7.03-2.2,15.77-1.16,19.71-2.55,4.05-16.73-2.34-27.24-2.32-11.72.02-24.7,3.9-36.51,4.64-.19-.32-4.01-1.17-5.8-4.64-.72-1.39-3.57-6.84-3.48-7.53q11.59-17.39,23.18-34.77c-1.08-3.86-21.24-.45-24.92-1.74-3.04-1.06-17.96-31.21-27.24-28.98-.26-2.56-3.79-2,3.48-5.8,6.69-3.5,35.43-11.17,46.94-16.23l-7.53,24.92c28.41,8.7,38.84,33.77,60.27,52.74Z"/>
      <path class="great_grandmother-cls-41" d="m464.81,668.81c4,.18,9.95,2.21,12.75,2.32-31.59,13.7,3.09,54.85,15.07,75.34,1.9,3.25,3.96,6.17,5.8,9.27.51.86,1.82,4.98,2.32,5.8v3.48c-21.44-18.97-31.87-44.04-60.27-52.74l7.53-24.92c-11.52,5.06-40.25,12.73-46.94,16.23-4.1-2.85,24-19.65,30.72-23.18,10.11-5.31,22.52-12.07,33.04-11.59Z"/>
    </g>
    <g>
      <path class="great_grandmother-cls-23" d="m723.29,682.72c20.5,6.87,43.99,9.83,60.27,24.92-1.35,12.54,1.2,11.5,1.16,12.17,0,.14-2.24.84-2.32,1.74-.69,7.85-2.74,15.51-3.48,23.18-1.44,14.92-2.55,60.18-6.95,68.39-11.32,21.1-37.07,3.37-38.25,8.11,6.88,21.4,8.24,43.96,11.59,66.07-2.11,2.73-31.76-12.07-37.67-12.17,4.09,38.95-3.75,81.18-51.58,74.18-10.7-1.57-21.58-6.93-44.63-4.64-.14,4.69,2.8,8.8,2.9,9.27,2.83,14.51,7.19,28.49,10.43,42.89-.13-.42-3.84-6.37-4.64-7.53-.3-15.82-12.59-36.26-9.27-50.42,18.12-10.44,65.91-3.35,76.5-17.97,12.41-17.13-3.58-29.28-1.16-45.21.48-3.15,12.33-24.75,15.07-31.3.67-1.6-5.35-3.49,13.91-30.14-7.62-51.86,34.17-18.88,44.63-22.6.98-.35,9.7-14.65,12.17-16.81-1.99-4.11-18.19-18.4-18.55-19.71-1.78-6.52,4.71-14.19,0-19.71-13.5-15.75-28.37-31.34-40.57-48.1-1.05-1.44-2.18-3.96-2.32-5.8,6.21.41,12.42-1.05,12.75,1.16Z"/>
      <path class="great_grandmother-cls-33" d="m610.86,938.89c-1.4.13-1.1-1.09-1.16-1.16,6.3-33.69,19.59-65.11,35.93-95.05,9.94-18.21,22.41-35.04,32.46-53.32,17.88-32.54,31.84-59.48,33.61-97.37.09-1.97-.11-2.88,1.16-4.64,12.2,16.76,27.06,32.36,40.57,48.1,4.71,5.51-1.78,13.19,0,19.71.36,1.31,16.56,15.59,18.55,19.71-2.47,2.16-11.19,16.46-12.17,16.81-10.46,3.73-52.24-29.26-44.63,22.6-19.26,26.64-13.24,28.54-13.91,30.14-2.74,6.55-14.59,28.15-15.07,31.3-2.42,15.93,13.57,28.07,1.16,45.21-10.59,14.62-58.38,7.53-76.5,17.97Z"/>
    </g>
    <path class="great_grandmother-cls-16" d="m710.54,681.57c.13,1.84,1.27,4.36,2.32,5.8-1.27,1.76-1.07,2.66-1.16,4.64l-11.59-9.27c3.8.61,6.67-1.4,10.43-1.16Z"/>
    <path class="great_grandmother-cls-19" d="m511.17,775.45c2.42,3.79,4.52,7.78,6.95,11.59,3.92,6.13,6.98,13.28,10.43,19.71-4.7-.52-28.39-19.78-28.98-22.02-1.04-3.93,1.16-12.68,1.16-19.71v-3.48c2.96,4.87,7.39,9.15,10.43,13.91Z"/>
  </g>
  <g>
    <path class="great_grandmother-cls-22" d="m671.13,213.28c4.33,23.34,24.75,74.77,31.3,99.68-6.65-3.46-9.72-30.72-14.49-33.61-10.84-1.45-23.01-5.55-33.61-6.95-12.69-1.69-34.05.93-39.99-3.48,4.62-1.21,6.6-3.33,6.95-3.48.79-.32,1.58,1.23,1.74,1.16,7.11-3.3,26-19.63,30.72-26.08,13.36-18.25,12.08-37.47,17.39-27.24Z"/>
    <path class="great_grandmother-cls-3" d="m771.98,467.13c-.95-.31-1.64,2.28-3.48.58-1.01-.93-1.07-10.15-16.23-21.44,2.24-2.6,4.33-5.36,6.38-8.11l21.44,6.38q-4.06,11.3-8.11,22.6Z"/>
    <path class="great_grandmother-cls-39" d="m506.54,630.56c1.75,1.32,3.28,1.06,3.48,1.16,2.57,1.36,7.11,8.05,26.66,15.07,22.48,8.07,73.55,18.73,93.89,4.64.38-.06.78.06,1.16,0,1.99,4.77.2,4.22-4.64,8.11-.96.77-1.09,1.11-1.16,1.16-18.24,14.17-16.49,4.75-28.98,33.61-24.06-13.72-68.76-19.37-76.5-48.68-5.78-2.44-9.49-7.59-13.91-11.59-4.29-4.89-.01-3.17,0-3.48Z"/>
    <g>
      <path class="great_grandmother-cls-21" d="m700.11,682.72l11.59,9.27c-1.77,37.89-15.74,64.83-33.61,97.37-35.35,6.19-101.38,4.5-135.62-3.48.76-.19,1.71-.74,2.32-1.16,7.48-5.11,13.21-9.98,19.71-16.23,9.74-.31,13.46,2.71,15.07-8.11,2.43,1.37,3.32,1.07,3.48,1.16,5.28,3.06,13.29,9.71,24.34,13.91,2.04.78,12.62,4.85,13.33,4.64.43-.13,6.31-5.93,6.38-6.38.11-.8-11.03-8.69-12.75-9.85,1.53-3.31,3.05-6.57,4.64-9.85q-13.33-25.79-26.66-51.58c1.6-1,1.43-3.09,2.32-4.64.1-.18.56.58,2.32-3.48,12.49-28.86,10.74-19.45,28.98-33.61-3.76,11.76-18.32,76.8-8.69,82.3,4.93-2.26,11.21,3.26,14.49,2.32,10.52-3.02,17.24-29.95,18.55-39.41.2-1.47-.09-3.12,0-4.64,6.95,1.47,3.96,15.66,9.27,20.28,2.57-26.07,4.15-37.99,1.16-64.33-.26-2.26.1-4.67,0-6.95,9.18,15.36,21.28,31.1,39.41,32.46Z"/>
      <path class="great_grandmother-cls-3" d="m659.54,644.47c1.54,2.04,1.06,3.54,1.16,5.8.1,2.29-.26,4.7,0,6.95-8.67,1.61-17.61-2.3-18.55-2.32-6.59-.14-9.28,2.63-15.07,4.64,4.84-3.89,6.62-3.35,4.64-8.11,2.67-.46,26.5-6.4,27.82-6.95Z"/>
      <g>
        <path class="great_grandmother-cls-20" d="m542.47,785.89c34.24,7.98,100.26,9.67,135.62,3.48-10.04,18.28-22.51,35.11-32.46,53.32q-36.8,3.48-73.6,6.95-13.04-11.59-26.08-23.18c-2.8-7.28-8.8-7.63-15.07-17.39,19.93,4.99,41.42,13.98,61.43,11.01-25.96-8.12-50.43-19.99-74.18-33.04-2.44-3.81-4.53-7.8-6.95-11.59,10.77,2.89,20.35,7.88,31.3,10.43Z"/>
        <path class="great_grandmother-cls-42" d="m530.88,809.07c-.59-.91-.89-2.29-2.32-2.32-3.45-6.43-6.51-13.58-10.43-19.71,23.76,13.04,48.23,24.92,74.18,33.04-20.01,2.97-41.5-6.02-61.43-11.01Z"/>
      </g>
      <path class="great_grandmother-cls-3" d="m596.95,694.32c-1.75,4.05-2.21,3.3-2.32,3.48-4.99-1.6-8.84-6.83-13.91-4.64-17.6-11.32-19.93-10.53-22.02,0-3.97,3.29-4.7-3.11-9.27-2.9-2.27,23.81,4.64,56.26,4.64,74.76-9.61-1.09-16.92-8.19-25.5-11.59,2.38-9.45,5.02-24.65,5.8-34.19,1.46-17.97,1.38-48.61-4.64-17.39-2.67,13.87-2.56,34.38-5.8,49.26-12.86-3.76-10.65-.21-22.02,4.64q8.69-47.81,17.39-95.63l-3.48-1.74c.32-.99,1.93-6.83,0-6.95.65-.5,3.61-4.44,4.64-5.8,7.75,29.31,52.44,34.96,76.5,48.68Z"/>
      <path class="great_grandmother-cls-3" d="m515.81,651.43c1.93.12.32,5.96,0,6.95-9.35,28.8-19.97,58.05-23.18,88.09-11.98-20.49-46.66-61.65-15.07-75.34,2.25.09,2.95,1.49,5.22,1.16,1.93-.28,29.72-18.32,33.04-20.86Z"/>
      <path class="great_grandmother-cls-3" d="m523.92,751.11c.25.07.75.78,4.64,2.32,8.58,3.4,15.89,10.5,25.5,11.59,0,8.1,1.38,9.41,1.16,9.85-.36.75-10.56,5.08-10.43,9.85-.61.42-1.56.97-2.32,1.16-10.95-2.55-20.53-7.54-31.3-10.43-3.04-4.76-7.47-9.04-10.43-13.91-.5-.82-1.81-4.93-2.32-5.8,3.63,2.5,3.32.07,3.48,0,11.37-4.85,9.16-8.39,22.02-4.64Z"/>
      <path class="great_grandmother-cls-3" d="m501.9,755.75c-.16.07.16,2.5-3.48,0-1.83-3.1-3.9-6.03-5.8-9.27,3.22-30.05,13.84-59.29,23.18-88.09l3.48,1.74q-8.69,47.81-17.39,95.63Z"/>
      <path class="great_grandmother-cls-22" d="m642.16,654.91c-2.26,7.27-3.08,14.44-3.48,22.02-.46,8.74.73,18.01,0,26.66-1.19,14.07-4.15,27.92-6.95,41.73-3.28.94-9.56-4.58-14.49-2.32-9.63-5.5,4.94-70.54,8.69-82.3.06-.05.2-.39,1.16-1.16,5.78-2,8.48-4.77,15.07-4.64Z"/>
      <path class="great_grandmother-cls-3" d="m558.7,693.16c3.01.85,3.27,5.53,3.48,5.8l-2.32.58c13.81,20.12,13.7,39.16,23.18,62.01-.16-.09-1.04.21-3.48-1.16-1.7-.96-3.44-2.63-4.06-4.64-1.25-.18-9.24,11.05-11.01,12.75-6.5,6.25-12.23,11.11-19.71,16.23-.12-4.77,10.07-9.1,10.43-9.85.22-.45-1.16-1.76-1.16-9.85,0-18.5-6.91-50.95-4.64-74.76,4.58-.21,5.3,6.19,9.27,2.9Z"/>
      <path class="great_grandmother-cls-29" d="m660.7,657.22c2.99,26.35,1.41,38.26-1.16,64.33-5.31-4.63-2.32-18.82-9.27-20.28.09-1.55,2.85-1.89,2.32-5.22q-6.95-9.56-13.91-19.13c.4-7.58,1.21-14.75,3.48-22.02.93.02,9.87,3.93,18.55,2.32Z"/>
      <path class="great_grandmother-cls-3" d="m562.18,698.95c9.99,13.07,27.35,53.92,46.36,73.02-.65,1.11-1.44,2.05-1.16,3.48-11.05-4.2-19.06-10.85-24.34-13.91-9.48-22.85-9.37-41.89-23.18-62.01l2.32-.58Z"/>
      <path class="great_grandmother-cls-12" d="m650.27,705.91c-1.31,9.46-8.03,36.39-18.55,39.41,2.81-13.81,5.77-27.66,6.95-41.73,2.85-5.11,3.3,3.25,11.59,2.32Z"/>
      <path class="great_grandmother-cls-12" d="m650.27,701.27c-.09,1.52.2,3.16,0,4.64-8.29.93-8.74-7.43-11.59-2.32.73-8.65-.46-17.92,0-26.66q6.95,9.56,13.91,19.13c.53,3.32-2.22,3.67-2.32,5.22Z"/>
      <path class="great_grandmother-cls-29" d="m607.38,775.45c-.28-1.43.51-2.36,1.16-3.48,1.47-2.53,5.26-6.96,5.8-8.11,1.72,1.16,12.86,9.05,12.75,9.85-.06.45-5.94,6.25-6.38,6.38-.71.21-11.29-3.86-13.33-4.64Z"/>
      <path class="great_grandmother-cls-29" d="m579.56,760.39c-1.61,10.82-5.33,7.8-15.07,8.11,1.77-1.7,9.76-12.93,11.01-12.75.62,2.01,2.35,3.68,4.06,4.64Z"/>
      <g>
        <path class="great_grandmother-cls-39" d="m580.72,693.16c3.44,2.21,11.07,5.85,11.59,9.27q13.33,25.79,26.66,51.58c-1.59,3.28-3.11,6.54-4.64,9.85-.53,1.16-4.32,5.58-5.8,8.11-19.02-19.1-36.37-59.95-46.36-73.02-.21-.27-.47-4.95-3.48-5.8,2.1-10.53,4.42-11.32,22.02,0Z"/>
        <path class="great_grandmother-cls-12" d="m594.63,697.79c-.88,1.54-.72,3.64-2.32,4.64-.52-3.42-8.15-7.06-11.59-9.27,5.07-2.19,8.92,3.04,13.91,4.64Z"/>
      </g>
      <path class="great_grandmother-cls-3" d="m528.56,753.43c-3.89-1.54-4.39-2.25-4.64-2.32,3.24-14.88,3.12-35.39,5.8-49.26,6.02-31.22,6.09-.59,4.64,17.39-.77,9.54-3.42,24.75-5.8,34.19Z"/>
    </g>
    <g>
      <path class="great_grandmother-cls-3" d="m475.24,303.69c6.61,22.22,17.02,47.23,39.99,56.8,8.14,3.39,20.4,3.72,22.6,6.95-18.01,1.56-41.97,15.91-47.52,33.61-5.67,18.1,1.57,5.78,2.9,5.8,4.04.04-3.6,8.92-.58,15.07-.26.35-1.55-1.91-6.95,5.22-.4,4.22-21.82,30.3-15.65,30.72,2.82-3.71,6.05-5.62,9.85-8.11l-6.38,8.11c22.35,1.2,2.84-4.76,12.75-9.27.89-.17.46,2.33.58,2.32-6.07,1.09.29,2.44,1.16,3.48,1.04,1.23,1.39,3.27,2.32,4.64-8.9.76-17.82,1.02-26.66,2.32-9.52,1.4-6.4,2.82-10.43,4.64-.51.23-3.62-1.79-8.11,1.16,8.75-35.36,6.07-72.3,4.64-108.38,2.54-8.95,5.9-17.43,9.27-26.08,4.4-11.3,13.14-25.43,15.07-31.3,1.76-.06.91,1.48,1.16,2.32Z"/>
      <path class="great_grandmother-cls-21" d="m574.93,372.08c-1.1-.15-2.52.25-3.48,0-4.21-1.12-14.57-10.99-18.55-6.95-9.12-6.25-33.83-14.46-45.79-16.23-13.02-13.88-20.45-31.92-26.08-49.84,1.25-.76,2.17-1.68,3.48-2.32q16.52,18.55,33.04,37.09c11.46,5.43,53.27,21.66,57.38,31.88,1.71,4.96-.06,5.96,0,6.38Z"/>
      <path class="great_grandmother-cls-7" d="m569.13,507.7c3.72.38,12.74,7.81,22.02,8.11,9.19.3,20.48-2.61,29.56-4.64,3.79,5.49,9.95,5.48,15.65,8.11.05.65-2.16,1.33-2.32,4.64-2.14-.28-3.76.74-5.8,1.16-10.56,2.16-21.29,2.91-31.88,4.64-6.43,1.05-4.91,3.43-5.22,3.48-7.46,1.17-16.27-2.97-17.39,1.16-1.46-4.6-11.16-4.1-23.18-5.8-.18-3.14-.02-6.33,1.16-9.27,2.42-6.04,10.78-12.27,17.39-11.59Z"/>
      <path class="great_grandmother-cls-3" d="m641,504.22c12.13,28.96,12.42,52.04,34.77,76.5-3.24,8.61.44,18.14,2.32,26.66-3.05-4.59-14.52-14.15-15.07-15.07-.52-.86-2.27-3.27-2.32-3.48-.9-3.68.43-9.51,1.16-13.33-1.54-2.58-4.28-1.47-4.64-1.74-2.92-2.21-5.7-4.11-8.11-6.95-4.73-5.57-8.37-16.12-10.43-23.18-1.74-5.95-2-13.89-4.64-19.71.16-3.31,2.37-3.99,2.32-4.64-.4-5.19-.49-10.46-1.16-15.65-29.4-16.51-9.92-12.47,5.8.58Z"/>
      <path class="great_grandmother-cls-10" d="m659.54,526.24c.23.32-.58,3.35,2.32,7.53,3.51,5.07,28.48,37.09,27.82,39.41-.47,1.65-12.21,4.72-13.91,7.53-22.35-24.46-22.65-47.54-34.77-76.5,7.75,6.43,12.87,13.9,18.55,22.02Z"/>
      <path class="great_grandmother-cls-20" d="m678.09,607.38c-1.88-8.52-5.56-18.05-2.32-26.66,1.7-2.82,13.44-5.88,13.91-7.53.66-2.32-24.31-34.34-27.82-39.41-2.9-4.19-2.09-7.21-2.32-7.53q18.55,22.31,37.09,44.63c-3.26,4.95-15.74,38.78-17.97,38.83l-.58-2.32Z"/>
      <path class="great_grandmother-cls-29" d="m578.4,403.38c1.98,4.82,4.49,9.33,6.95,13.91,2.47,4.59,5.61,8.7,6.95,13.91-.74,2.27-2.53,4.92-4.64,10.43-16.65-9.03-15.69-27.44-12.75-44.05,2.94-.61,1.92,2.01,3.48,5.8Z"/>
      <path class="great_grandmother-cls-42" d="m663.02,592.31c-.01,1.18-1.6,1.43-1.16,2.9.75,2.49,14.64,15.53,6.95,42.31-3.38,2.72-2.14,3.37-2.32,3.48-.69.13-2.32-1.52-2.32-1.74.32-42.4-13.18-44.92-3.48-50.42.05.2,1.8,2.61,2.32,3.48Z"/>
      <path class="great_grandmother-cls-21" d="m592.31,431.19c-1.35-5.21-4.48-9.32-6.95-13.91,3.22-6.1,6.96-18.33,5.8-24.34.26-.35-1.71.38,2.9-6.95,2.57,16.68,3.46,29.2-1.74,45.21Z"/>
      <path class="great_grandmother-cls-22" d="m585.36,417.28c-2.46-4.57-4.97-9.09-6.95-13.91,4.29-.84,10.26-7.17,12.75-10.43,1.16,6.01-2.57,18.25-5.8,24.34Z"/>
      <g>
        <path class="great_grandmother-cls-22" d="m614.34,268.92c5.94,4.41,27.3,1.79,39.99,3.48,10.6,1.41,22.78,5.5,33.61,6.95,4.77,2.89,7.84,30.15,14.49,33.61,6.78,25.8,5.17,29.1,6.95,44.05,1.59,13.33,2.99,26.53,2.32,39.99,2.47,4.9,3.45,10.35,4.64,15.65,1.3,5.81,1.72,7.2,3.48,12.75,2.32,7.33,7.56,24.48,12.75,28.98,2.68,2.32,4.26,2.09,4.64,2.32-1.68,3.46,15.43,15.01,19.13,10.43,1.22-1.47-2.81-3.27-2.9-3.48-2.75-6.36-3.51-9.74-1.16-17.39,15.15,11.3,15.22,20.51,16.23,21.44,1.84,1.7,2.52-.89,3.48-.58.94.3,1.77-2.03,2.32-.58,1.78,4.68-27.83,80.73-33.61,86.35q-11.3-5.8-22.6-11.59c-3.75,7.92-6.49,16.26-9.85,24.34-9.98,24-18.78,55.25-39.41,71.87,7.68-26.78-6.2-39.81-6.95-42.31-.44-1.46,1.15-1.72,1.16-2.9.55.92,12.02,10.47,15.07,15.07l.58,2.32c2.22-.05,14.71-33.88,17.97-38.83q-18.55-22.31-37.09-44.63c-5.68-8.12-10.8-15.59-18.55-22.02-15.71-13.05-35.2-17.09-5.8-.58.67,5.19.76,10.46,1.16,15.65-5.69-2.63-11.85-2.63-15.65-8.11-9.07,2.02-20.37,4.93-29.56,4.64.15-7.51-18.59-14.27-20.86-18.55-5.57-10.49,13.09-44.41,17.39-55.64,2.11-5.51,3.9-8.16,4.64-10.43,5.2-16,4.3-28.53,1.74-45.21-4.61,7.33-2.63,6.61-2.9,6.95-2.49,3.26-8.46,9.59-12.75,10.43-1.56-3.79-.53-6.4-3.48-5.8,2.19-7.36,1.16-17.93,0-25.5-.06-.41,1.71-1.41,0-6.38-4.11-10.22-45.92-26.45-57.38-31.88q-16.52-18.55-33.04-37.09c36.8-18.06,79.38-14.67,118.23-25.5,4.58-.71,7.07-1.13,11.59-2.32Z"/>
        <g>
          <path class="great_grandmother-cls-42" d="m614.34,369.76c1.61,9.74,2.15,21.01,12.75,25.5,10.3,4.37,6.05-5.7,20.28-8.11,8.13-1.38,17.94.4,25.5,3.48,1.3,1.16.14,3.4.58,4.64,3.65,10.31,2.32,17.71,19.71,34.77-8.48-2.89-13.98-6.06-23.18-8.11-5.46-1.22-10.11-1.5-15.65-1.16-1.57-.11,3.06-2.09-2.9-2.32-12.75-.48-14.59,2.89-24.34,9.27,2.02-6.52,2.73-15.65,3.48-22.6-1.68-3.72-28.3,3.14-16.23-35.35Z"/>
          <path class="great_grandmother-cls-21" d="m627.09,395.26c-10.6-4.49-11.14-15.76-12.75-25.5,46.45-24.48,94.94,17.91,85.2,25.5-14.73-11.14-33.46-17.74-52.16-15.07-4.68.67-28.52,10.03-20.28,15.07Z"/>
          <path class="great_grandmother-cls-32" d="m669.97,421.92c-1.74,2.99-4.17,6.08-6.95,8.11-.91.66-14.37,6.57-18.55,12.75-.05.07-.57-.47-1.16,1.16-2.28,6.27,3.59,13.44,10.43,11.59,1.51,1.05,30.76,12.93,13.33,10.43-6.86-.98-27.81-8.9-31.88-15.07-10.77-16.35,3.36-24.73,16.23-32.46,5.95.22,1.33,2.21,2.9,2.32,5.54-.34,10.18-.06,15.65,1.16Z"/>
          <path class="great_grandmother-cls-42" d="m735.46,467.13c24.93-4.04,22.05,38.33,11.59,51-.99-8.74-.85-18.89-4.06-27.24-2.5-6.51-20.78-21.62-7.53-23.76Z"/>
          <path class="great_grandmother-cls-29" d="m651.43,418.44c-12.87,7.73-27,16.1-16.23,32.46l-16.23,4.06c1.82-2,6.55-5.96,6.95-8.11,2.4-12.81-7.24-.01-6.95-4.64,1.87-3.65,7.3-11.85,8.11-14.49,9.75-6.38,11.59-9.75,24.34-9.27Z"/>
          <path class="great_grandmother-cls-21" d="m693.16,430.04c-17.38-17.06-16.06-24.46-19.71-34.77,5.49-1.01,21.74,29.67,22.02,31.88,1.16,8.94-1.96,3.02-2.32,2.9Z"/>
          <path class="great_grandmother-cls-29" d="m591.15,515.81c-9.28-.3-18.3-7.73-22.02-8.11,2.8-1.5.64-6.2-1.16-9.27,1.3-.04,2.41.36,2.32-1.16,2.27,4.28,21.01,11.03,20.86,18.55Z"/>
          <path class="great_grandmother-cls-42" d="m740.68,552.9c-9.62,9.34-16.59-18.75-32.46,12.75,3.36-8.08,6.1-16.42,9.85-24.34q11.3,5.8,22.6,11.59Z"/>
          <path class="great_grandmother-cls-25" d="m745.32,460.17c2.64,1.21,5.14,3.12,8.11,3.48.09.21,4.12,2.01,2.9,3.48-3.7,4.58-20.81-6.98-19.13-10.43,1.6.98,5.28,2.18,8.11,3.48Z"/>
          <path class="great_grandmother-cls-30" d="m753.43,463.65c-2.97-.36-5.47-2.27-8.11-3.48,1.78-1.57-.02-2.2,0-2.32.16-.76,2.13-6.64,2.32-6.95,1.34-2.3,3.15-2.91,4.64-4.64-2.35,7.65-1.6,11.03,1.16,17.39Z"/>
          <g>
            <path class="great_grandmother-cls-7" d="m663.02,430.04c15,4.6,28.46,13.95,38.25,26.08,18.98,23.51-.88,3.49-11.01.58-9.87-2.84-21.22-2.39-31.3-1.16-9.27-7.32-7.92-16.29-14.49-12.75,4.18-6.19,17.64-12.09,18.55-12.75Z"/>
            <path class="great_grandmother-cls-3" d="m653.75,455.54c-6.84,1.85-12.71-5.32-10.43-11.59,3.7,3.76,5.95,8.47,10.43,11.59Z"/>
          </g>
        </g>
      </g>
      <path class="great_grandmother-cls-35" d="m745.32,457.85c-.02.11,1.78.75,0,2.32-2.84-1.3-6.52-2.5-8.11-3.48-.38-.23-1.96,0-4.64-2.32l12.75,3.48Z"/>
      <path class="great_grandmother-cls-22" d="m657.22,573.77c.36.27,3.1-.84,4.64,1.74-.73,3.82-2.06,9.65-1.16,13.33-9.71,5.51,3.8,8.02,3.48,50.42,0,.22,1.63,1.87,2.32,1.74-1.44.86-5.38,2.82-6.95,3.48-1.32.55-25.15,6.5-27.82,6.95-.38.06-.78-.06-1.16,0-2.46.41-5.65.9-8.11,1.16-.81-4.32,5.35-1.38,9.85-2.32,1.49-.31,20.92-9.28,28.98-9.27,1.28-12.97-11.24-41.71-22.02-47.52-13.68-7.37-30.7,6.05-29.56-2.32,5.29-1.96,10.39-3.67,15.07-6.95.41-.02,2.07,3.47,5.8-3.48,1.13-.15,2.36.18,3.48,0,5.5-.87,16.06-5.86,23.18-6.95Z"/>
      <path class="great_grandmother-cls-22" d="m571.45,372.08c3.57,4.65,1.62,10.87,0,16.23-3.09-6.16-30.15-27.2-23.18-5.8-7.91-3.17-25.93,1.94-32.46,6.95-1.14-7.04-2.74-2.11-5.8-1.16-8.38,2.62-14.49,5.28-18.55,13.91-.57-.16-1.28.12-1.16-1.16,5.55-17.71,29.51-32.05,47.52-33.61,13.39-1.16,13.81,3.39,26.08,8.11-13.72-8.52-10.36-9.98-11.01-10.43,3.98-4.04,14.34,5.83,18.55,6.95Z"/>
      <path class="great_grandmother-cls-12" d="m481.04,299.05c5.63,17.92,13.06,35.96,26.08,49.84,11.95,1.77,36.66,9.98,45.79,16.23.66.45-2.71,1.91,11.01,10.43-12.27-4.73-12.69-9.27-26.08-8.11-2.2-3.23-14.47-3.57-22.6-6.95-22.97-9.57-33.38-34.58-39.99-56.8,3.32-5.24,5.48-4.44,5.8-4.64Z"/>
      <path class="great_grandmother-cls-7" d="m541.31,439.31c1.13.88,4.46,3.25,4.64,3.48,7.23,9.58-1.46,2.57-4.64,4.64-18.74-7.4-18.93.31-23.18,1.16-1.57.31-2.37,2.23-2.9,2.32-1.4.23-6.41-2.15-28.4,0-.12.01.32-2.49-.58-2.32-9.91,4.51,9.6,10.48-12.75,9.27l6.38-8.11c.67-.44,2.38-2.8,3.48-3.48,18.83-11.63,38.21-22.36,57.96-6.95Z"/>
      <path class="great_grandmother-cls-29" d="m515.81,389.47c-7.13,5.48-15.25,25.44-16.23,26.66-.89,1.11-6.68,5.43-6.95,5.8-3.03-6.15,4.62-15.03.58-15.07-1.32-.01-8.57,12.3-2.9-5.8-.12,1.28.59,1,1.16,1.16,2.17.6,15.93-11.74,18.55-13.91,3.05-.95,4.65-5.88,5.8,1.16Z"/>
      <path class="great_grandmother-cls-42" d="m504.22,417.28c-4.2,3.26-17.45,22.51-20.86,28.98-1.1.68-2.8,3.04-3.48,3.48-3.8,2.49-7.04,4.41-9.85,8.11-6.17-.41,15.25-26.5,15.65-30.72,5.41-7.13,6.7-4.87,6.95-5.22.27-.36,6.06-4.68,6.95-5.8-.22,4.23,2.06,1.21,4.64,1.16Z"/>
      <path class="great_grandmother-cls-20" d="m530.88,588.84c4.03,9.29,26.44,13.52,35.35,13.91,12.11.52,14.86-2.3,15.65-2.32,7.36-.2,14.71.41,22.02,0,.98,2.22-4.05,3.09-6.38,3.48-9.09,1.51-57.09,3.38-59.69,12.17.51,2.74,1.98,14.93,2.32,15.65h-1.16c-10.16-8.83-23.85-21.71-17.39-35.93,4.11-9.04,8.69-6.74,9.27-6.95Z"/>
      <path class="great_grandmother-cls-42" d="m550.58,528.56c12.02,1.7,21.72,1.2,23.18,5.8.17.55-.09,1.57,0,2.32-1.43.14-25.97,8.6-27.24,9.27-6.77,3.59-11.51,11.04-16.81,16.23-3.53,3.45-8,5.68-11.59,10.43-1.39-.7-5.59-2.27-5.8-4.06-.35-3.09,23.86-35.6,25.5-42.89,2.49-1.51,9.25,2.4,12.75,2.9Z"/>
      <path class="great_grandmother-cls-22" d="m541.31,439.31c-19.74-15.4-39.12-4.67-57.96,6.95,3.42-6.47,16.66-25.72,20.86-28.98,3.81-2.96,13.83-7.01,18.55-8.11,14.57,3.92,22.37,15.48,18.55,30.14Z"/>
      <path class="great_grandmother-cls-42" d="m538.99,631.72h1.16c4.52,9.42,48.3,24.46,82.3,20.86,2.47-.26,5.65-.75,8.11-1.16-20.34,14.09-71.41,3.43-93.89-4.64,5.39-9.63-8.03-14.29,2.32-15.07Z"/>
      <path class="great_grandmother-cls-29" d="m545.95,442.79c-.17-.23-3.5-2.59-4.64-3.48,3.82-14.66-3.98-26.21-18.55-30.14,28.38-6.64,30.99,9.84,23.18,33.61Z"/>
      <path class="great_grandmother-cls-21" d="m571.45,388.31c-1.13,3.75-2.61,7.44-5.22,10.43-4.58-2.97-15.26-15.14-17.97-16.23-6.97-21.4,20.1-.37,23.18,5.8Z"/>
      <path class="great_grandmother-cls-1" d="m567.97,498.42c1.8,3.08,3.96,7.77,1.16,9.27-6.61-.68-14.97,5.55-17.39,11.59-1.09-.3-4.58-3.7-4.64-4.06-2.69-16.57,9.04-16.4,20.86-16.81Z"/>
      <path class="great_grandmother-cls-5" d="m532.04,586.52v1.16c-1.43-.13-1.08,1.13-1.16,1.16-.58.21-5.17-2.09-9.27,6.95l-16.23,2.32,5.8-17.39c7.27.51,13.48,5.76,20.86,5.8Z"/>
      <g>
        <path class="great_grandmother-cls-22" d="m541.31,447.42c2.56,1.01,4.24,4.17,6.38,5.8,33.33-4.99,30.43-2.77,17.97,15.07-5.83,8.34-19.73,21.94-23.18,28.98-3.34,17.57-9.22,26.06-19.71,39.41q-8.4,4.64-16.81,9.27c-10.16-15.81-15.23-35.57-30.72-47.52-3.39-6.07-7.5-9.52-8.11-10.43-.23-.35.23-1.99,0-2.32l9.27-7.53c-.36-1.18-10.76,5.92-12.75-16.81,8.84-1.3,17.76-1.56,26.66-2.32,2.06-.18,37.11.36,34.77-4.64-2.27-4.85-6.56.13-6.95-5.8,4.25-.85,4.45-8.56,23.18-1.16Z"/>
        <path class="great_grandmother-cls-20" d="m463.65,461.33c1.99,22.73,12.39,15.62,12.75,16.81l-9.27,7.53c-2.76-3.94-13.99-12.55-13.91-19.71,4.04-1.82.92-3.24,10.43-4.64Z"/>
        <path class="great_grandmother-cls-29" d="m525.08,454.38c2.34,4.99-32.71,4.46-34.77,4.64-.92-1.37-1.28-3.41-2.32-4.64h37.09Z"/>
        <path class="great_grandmother-cls-22" d="m525.08,454.38h-37.09c-.87-1.04-7.23-2.38-1.16-3.48,21.99-2.15,27,.23,28.4,0,.52-.09,1.33-2.01,2.9-2.32.4,5.93,4.68.95,6.95,5.8Z"/>
        <path class="great_grandmother-cls-8" d="m467.13,487.99c.62.91,4.73,4.36,8.11,10.43,6.23,11.16,19.75,52.08,22.02,53.9,1.79,1.43,7.75-9.37,9.27,1.74-5.57,3.94-24.45,13.71-30.14,6.38-1.89-2.43-12.18-54.14-12.75-60.27-1.07-11.53-1.56-16.17,3.48-12.17Z"/>
        <path class="great_grandmother-cls-26" d="m522.77,536.67c-4.97,6.34-9.54,12.66-16.23,17.39-1.53-11.11-7.48-.31-9.27-1.74-2.27-1.82-15.8-42.74-22.02-53.9,15.49,11.95,20.56,31.72,30.72,47.52q8.4-4.64,16.81-9.27Z"/>
        <path class="great_grandmother-cls-32" d="m542.47,497.26c3.45-7.04,17.35-20.63,23.18-28.98,5.15-.24-14.92,34.71-23.18,28.98Z"/>
      </g>
      <g>
        <path class="great_grandmother-cls-3" d="m574.93,372.08c1.16,7.57,2.19,18.14,0,25.5-2.94,16.61-3.9,35.02,12.75,44.05-4.3,11.23-22.96,45.15-17.39,55.64.09,1.51-1.02,1.11-2.32,1.16-11.82.41-23.55.24-20.86,16.81.06.35,3.54,3.76,4.64,4.06-1.18,2.95-1.34,6.14-1.16,9.27-3.5-.49-10.26-4.41-12.75-2.9-1.64,7.28-25.86,39.79-25.5,42.89.2,1.79,4.41,3.36,5.8,4.06,7.4,3.71,10.2,1.64,18.55,0-.95,5.22,5.99,8.43,0,12.75.14,1.67-2.13,1.17-4.64,1.16-7.39-.03-13.6-5.29-20.86-5.8-1.51.49-10.57,21.27-8.69,22.02l2.9-4.64,16.23-2.32c-6.46,14.22,7.23,27.1,17.39,35.93-10.35.78,3.07,5.43-2.32,15.07-19.55-7.02-24.09-13.71-26.66-15.07-4.66-8.78-5.66-23.3-6.95-26.08-.39-.84-10.41-10.65-12.75-13.33-1.66-1.9-4.85-8.93-8.11-9.85,5.26,18.55,5.34,36.36,24.34,46.94.05.36.01.79,0,1.16-.01.3-4.29-1.42,0,3.48-11.04-10.01-24.65-17.24-34.77-28.4-9.6-19.24-11-48.34-16.23-65.49-2.76-9.06-16.91-37.19-22.02-48.68l11.59-24.34c4.49-2.95,7.61-.93,8.11-1.16-.08,7.15,11.15,15.77,13.91,19.71.23.33-.23,1.97,0,2.32-5.04-4-4.55.64-3.48,12.17.57,6.13,10.86,57.84,12.75,60.27,5.69,7.33,24.56-2.44,30.14-6.38,6.69-4.73,11.25-11.05,16.23-17.39,10.48-13.35,16.36-21.84,19.71-39.41,8.26,5.74,28.33-29.22,23.18-28.98,12.46-17.84,15.36-20.06-17.97-15.07-2.13-1.63-3.82-4.79-6.38-5.8,3.17-2.07,11.87,4.94,4.64-4.64,7.81-23.78,5.2-40.25-23.18-33.61-4.71,1.1-14.74,5.15-18.55,8.11-2.58.05-4.86,3.07-4.64-1.16.98-1.22,9.1-21.18,16.23-26.66,6.52-5.01,24.54-10.12,32.46-6.95,2.7,1.08,13.39,13.26,17.97,16.23,2.61-2.99,4.08-6.68,5.22-10.43,1.62-5.36,3.57-11.58,0-16.23.96.25,2.38-.15,3.48,0Z"/>
        <path class="great_grandmother-cls-25" d="m490.31,592.31c-2.29,11.58,14.57,26.03,16.23,37.09-19-10.59-19.08-28.4-24.34-46.94,3.27.92,6.45,7.95,8.11,9.85Z"/>
        <path class="great_grandmother-cls-1" d="m510.01,631.72c-.2-.1-1.72.16-3.48-1.16.01-.37.05-.8,0-1.16-1.65-11.06-18.52-25.51-16.23-37.09,2.34,2.68,12.36,12.49,12.75,13.33,1.29,2.78,2.3,17.3,6.95,26.08Z"/>
        <path class="great_grandmother-cls-34" d="m505.38,598.11l-2.9,4.64c-1.87-.75,7.18-21.53,8.69-22.02l-5.8,17.39Z"/>
        <path class="great_grandmother-cls-38" d="m512.91,556.38c1.73.81-1.97,10.2-3.48,10.43-8.98,1.41,2.38-10.95,3.48-10.43Z"/>
      </g>
      <path class="great_grandmother-cls-22" d="m628.25,525.08q5.22,9.27,10.43,18.55c2.07,7.06,5.71,17.61,10.43,23.18-.02,3.15-14.12,11.48-15.07,11.59-5.71.67-24.71-9.85-30.72-13.91-5-.87-7.33,2.46-17.97,2.32-25.98-18.74-27.26-19.4-55.64-4.64,5.3-5.18,10.04-12.64,16.81-16.23,1.27-.67,25.81-9.14,27.24-9.27,5.46-.52,19.76,7.99,17.39-3.48.31-.05-1.21-2.43,5.22-3.48,10.58-1.72,21.32-2.48,31.88-4.64Z"/>
      <path class="great_grandmother-cls-26" d="m591.15,533.2c2.38,11.46-11.93,2.96-17.39,3.48-.09-.75.17-1.77,0-2.32,1.11-4.13,9.92,0,17.39-1.16Z"/>
      <path class="great_grandmother-cls-12" d="m634.04,523.92c2.64,5.81,2.9,13.75,4.64,19.71q-5.22-9.27-10.43-18.55c2.04-.42,3.65-1.43,5.8-1.16Z"/>
      <path class="great_grandmother-cls-29" d="m657.22,573.77c-7.13,1.09-17.69,6.08-23.18,6.95v-2.32c.94-.11,15.04-8.44,15.07-11.59,2.41,2.85,5.19,4.75,8.11,6.95Z"/>
      <path class="great_grandmother-cls-21" d="m622.45,652.59c-33.99,3.6-77.78-11.45-82.3-20.86-.34-.71-1.81-12.91-2.32-15.65,2.6-8.79,50.61-10.66,59.69-12.17,2.32-.39,7.35-1.26,6.38-3.48,12.05-.67-.09-2.49-10.43-3.48,5.05-2.88,10.81-3.79,16.23-5.8-1.14,8.37,15.87-5.06,29.56,2.32,10.79,5.81,23.31,34.56,22.02,47.52-8.06,0-27.49,8.96-28.98,9.27-4.5.94-10.66-2-9.85,2.32Z"/>
      <path class="great_grandmother-cls-42" d="m510.01,388.31c-2.62,2.17-16.37,14.51-18.55,13.91,4.05-8.63,10.17-11.29,18.55-13.91Z"/>
      <path class="great_grandmother-cls-12" d="m565.65,596.95c2.9.53,4.37,1.12,4.64,1.16,6.18.84,12.48-1.91,11.59,2.32-.79.02-3.54,2.84-15.65,2.32-8.91-.39-31.32-4.62-35.35-13.91.08-.03-.27-1.28,1.16-1.16,11.1,3.22,22.23,7.18,33.61,9.27Z"/>
      <g>
        <path class="great_grandmother-cls-9" d="m634.04,578.4v2.32c-1.12.18-2.35-.15-3.48,0-22.07,2.9-45.01.54-67.23,1.16-9.05.25-17.66,3-26.66,3.48,5.99-4.32-.95-7.54,0-12.75,24.69-4.85,11.56-6.3,48.68-5.8,10.64.15,12.97-3.18,17.97-2.32,6.01,4.06,25.01,14.57,30.72,13.91Z"/>
        <path class="great_grandmother-cls-40" d="m585.36,566.81c-37.12-.51-23.99.94-48.68,5.8-8.35,1.64-11.14,3.71-18.55,0,3.59-4.75,8.07-6.98,11.59-10.43,28.38-14.77,29.65-14.11,55.64,4.64Z"/>
        <path class="great_grandmother-cls-31" d="m563.33,581.88v1.16q1.16,6.95,2.32,13.91c-11.39-2.09-22.52-6.05-33.61-9.27v-1.16c2.51.01,4.78.51,4.64-1.16,9-.48,17.61-3.23,26.66-3.48Z"/>
        <path class="great_grandmother-cls-24" d="m624.77,584.2c-4.68,3.28-9.78,5-15.07,6.95-5.42,2-11.18,2.92-16.23,5.8-4.16-.4-8.55.17-12.75,0,9.31-16.61,28.17-11.95,44.05-12.75Z"/>
        <path class="great_grandmother-cls-37" d="m630.56,580.72c-3.72,6.94-5.38,3.46-5.8,3.48-15.87.8-34.74-3.86-44.05,12.75-2.87-.12-5.38-.11-8.11-1.16,1.45-1.11,11.44-9.77,10.43-11.01q-9.85-.87-19.71-1.74v-1.16c22.21-.62,45.16,1.74,67.23-1.16Z"/>
        <path class="great_grandmother-cls-8" d="m580.72,596.95c4.2.17,8.59-.4,12.75,0,10.34.99,22.48,2.8,10.43,3.48-7.31.41-14.66-.2-22.02,0,.89-4.23-5.41-1.48-11.59-2.32-.08-1.42,1.68-1.83,2.32-2.32,2.73,1.05,5.24,1.04,8.11,1.16Z"/>
        <path class="great_grandmother-cls-31" d="m572.61,595.79c-.64.49-2.4.9-2.32,2.32-.27-.04-1.74-.63-4.64-1.16q-1.16-6.95-2.32-13.91,9.85.87,19.71,1.74c1.01,1.25-8.98,9.9-10.43,11.01Z"/>
      </g>
    </g>
  </g>
</svg>