<?xml version="1.0" encoding="UTF-8"?>
<svg id="Layer_1" data-name="Layer 1" xmlns="http://www.w3.org/2000/svg" viewBox="0 0 1272.25 1272.29">
  <defs>
    <style>
      .look-cls-1 {
        fill: #632c33;
      }

      .look-cls-1, .look-cls-2, .look-cls-3, .look-cls-4, .look-cls-5, .look-cls-6, .look-cls-7, .look-cls-8, .look-cls-9, .look-cls-10, .look-cls-11, .look-cls-12, .look-cls-13, .look-cls-14, .look-cls-15, .look-cls-16, .look-cls-17, .look-cls-18, .look-cls-19, .look-cls-20, .look-cls-21, .look-cls-22, .look-cls-23, .look-cls-24, .look-cls-25, .look-cls-26, .look-cls-27, .look-cls-28, .look-cls-29 {
        stroke-width: 0px;
      }

      .look-cls-2 {
        fill: #5f201f;
      }

      .look-cls-3 {
        fill: #4b261c;
      }

      .look-cls-4 {
        fill: #281116;
      }

      .look-cls-5 {
        fill: #5abae3;
      }

      .look-cls-6 {
        fill: #302a37;
      }

      .look-cls-7 {
        fill: #576071;
      }

      .look-cls-8 {
        fill: #081f34;
      }

      .look-cls-9 {
        fill: #23191b;
      }

      .look-cls-10 {
        fill: #10151e;
      }

      .look-cls-11 {
        fill: #dedad5;
      }

      .look-cls-12 {
        fill: #c87012;
      }

      .look-cls-13 {
        fill: #df851a;
      }

      .look-cls-14 {
        fill: #aad7e2;
      }

      .look-cls-15 {
        fill: #aa3952;
      }

      .look-cls-16 {
        fill: #ac5442;
      }

      .look-cls-17 {
        fill: #8b3f25;
      }

      .look-cls-18 {
        fill: #b8def2;
      }

      .look-cls-19 {
        fill: #923c33;
      }

      .look-cls-20 {
        fill: #c36147;
      }

      .look-cls-21 {
        fill: #881a35;
      }

      .look-cls-22 {
        fill: #f08c94;
      }

      .look-cls-23 {
        fill: #ea9720;
      }

      .look-cls-24 {
        fill: #f0a4a9;
      }

      .look-cls-25 {
        fill: #eaad26;
      }

      .look-cls-26 {
        fill: #024668;
      }

      .look-cls-27 {
        fill: #02a796;
      }

      .look-cls-28 {
        fill: #042c46;
      }

      .look-cls-29 {
        fill: #01576b;
      }
    </style>
  </defs>
  <g>
    <path class="look-cls-22" d="m515.61,1038.71c-.97,2.53-1.73,4.86-2.48,7.45-1.05,3.6-16.71,24.81,5.59,42.24,24.68,19.29,125.47,28.7,121.76-11.18,18.8,8.51,108.18,12.79,116.17-6.83,2.75-6.76.8-9.73-1.24-15.53-.67-1.91-11.51-23.56-12.42-24.85,28.99,2.96,170.61,15.08,185.74,23.61.62.35,7.93,7.52,8.08,8.08,6.71,24.83-129.81,50.86-150.96,46.59l-6.21,3.73c-35.4-.37-70.01,5.22-105.61,8.7-53.83-5.24-109.76-1.22-164-7.45-20.3-2.33-40.39-8.52-60.88-9.94-16.81-10.72-13.35-3.63-23.61-4.97-3.5-.46-11.5-4.45-12.42-8.7-8.3,1.13-25.46-3.69-20.5-14.29,6.7-14.32,103.76-30.71,123-36.65Z"/>
    <path class="look-cls-21" d="m515.61,1049.89c-24.2,47.13,109.67,60.17,115.55,31.68,1.91-9.26-2.3-10-2.48-10.56-.42-1.3.28-4.19,0-6.21,26.87,16.17,133.7,21.31,124.24-9.94h2.48c2.04,5.8,3.99,8.77,1.24,15.53-7.98,19.62-97.37,15.35-116.17,6.83,3.71,39.88-97.08,30.47-121.76,11.18-22.3-17.43-6.64-38.64-5.59-42.24,1.4.54,2,2.5,2.48,3.73Z"/>
  </g>
  <g>
    <path class="look-cls-4" d="m718.13,270.89c-1.06-2.05-9-14.06-10.56-14.91-10.98-5.97-96.19-1.74-111.82,2.48-31.72,8.58-29.87,37.95-35.41,65.23-2.3,11.3-11.69,16.28-2.48,44.73,2.86,8.84,15.35,27.31,22.36,34.17l-3.73,2.48c-.83-6.56-23.22-29.42-23.61-47.83-2.99-2.9-2.27,7.64-2.48,8.08-4.6-4.06-5.87-28.68-8.08-29.82-2.81-1.44-19.37-3.67-15.53,14.91-2.7,3.23,2.67,8.34-1.24,11.18-12.52,9.12-7.55-16.88-8.7-19.26-1.48-3.06-8.84-.79-11.18-4.97-3.16-5.66,4.02-21.67-16.15-32.3,5.19-20.99-11.55-53.83,12.42-65.85,5.46-32.89,20.39-11.65,23.61-31.06,18.79-8.13,3.91-24.23,34.17-14.29,7.94-11.27,20.59-5.11,23.61-6.21,6.04-9.31,13.74-14.92,24.85-12.42,5.83,10.18,18.94-1.78,33.55,7.45,10.76-15.79,32.7-5.92,41,7.45,20.23-8.16,17.52,7.73,18.64,8.7.96.83,19.13-2.24,10.56,15.53,19.27,4.45,2.16,13.5,14.91,24.85-10.17,17.05,13,22.07-8.7,31.68Z"/>
    <path class="look-cls-11" d="m578.97,431.16c8.81,15.52,33.44,15.65,49.08,14.91l3.11-19.88c.91.05,1.03-1.2,3.73-1.24,10.78,8.95,14.7,6.4,22.36,19.88,6.59,11.58,8,24.67,11.18,37.27,5.43,21.5,10.24,54.5,12.42,60.88,3.76,10.96,7-1.03,13.05,0,2.33.4,13.57,15.11,39.14,26.09,3.29,1.41,7.19,2.63,9.94,4.97-5.74-.7-8.16-2.69-11.8,2.48-4.91-1.3-32.56-14.19-34.17-11.8-3.72,21.98-5.13,117.17-7.45,124.24-.95,2.89-7.35,3.19-8.7,8.08.42-1.29-.86-3.49-1.86-3.73-5.31-1.24-46.23.68-62.74-2.48,5.41-33.85,2.07-68.08-2.48-101.88,1.64-12.21-5.17-44.13-8.7-57.77-4.26-16.47-34.76-100.05-34.79-105.61-.01-1.91-.52-3.42,1.86-3.11.68.39.74,9.6,6.83,8.7Z"/>
    <g>
      <path class="look-cls-19" d="m795.16,575.29c-5.65-4.84-19.54-.45-23.61-11.8-3.93-10.96-.96-131.19-24.85-179.53,2.33-1.78,4.11-4.28,4.97-4.97.28-.23,1.07-.01,6.21-3.73,17.49,30.87,38.1,76.6,43.49,111.2,3.05,19.61,6.06,73.56-6.21,88.83Z"/>
      <path class="look-cls-2" d="m795.16,575.29c-11.88,14.78-42.18-.02-52.18-1.24-2.75-2.34-6.65-3.56-9.94-4.97,6.12-14.54,11.2-53.91,21.12-62.12.58-.48,4.93,1.03,6.21-1.86-5.52-28.37-6.38-94.68-19.88-117.41,2.23-.93,4.3-2.27,6.21-3.73,23.89,48.34,20.92,168.57,24.85,179.53,4.07,11.35,17.96,6.97,23.61,11.8Z"/>
    </g>
    <path class="look-cls-2" d="m447.28,540.5c-34.08,55.77,31.64,97.87,53.42,143.5,2.74,3.78,2.87-.53,6.21-3.11,1.72,2.1,24.65,17.96,27.33,18.64,5.59,24.6-12.04,3.47-21.12,3.73-123.59-114.32-73.53-153.19-77.03-162.14-.75-1.91-7.43-.71-6.21-5.59,15.47,3.98,3.23-4.28,17.39,4.97Z"/>
    <path class="look-cls-2" d="m631.15,426.19l-3.11,19.88c-15.64.74-40.27.61-49.08-14.91-5.78-10.19-2.73-12.06-3.73-21.12-.03-.25,2.25-1.63,1.24-4.97l3.73-2.48c5.21,5.1,16.37,13.47,22.98,16.15,2.57,1.04,26.51,7.38,27.95,7.45Z"/>
    <path class="look-cls-9" d="m550.4,365.31c.21-.44-.5-10.97,2.48-8.08.39,18.42,22.78,41.27,23.61,47.83,1,3.34-1.27,4.72-1.24,4.97-21.48-13.08-36.33-27.2-49.7-48.45,3.91-2.85-1.45-7.96,1.24-11.18.88,4.26,9.94,19.53,11.8,19.88.63.12,11.23-3.79,11.8-4.97Z"/>
    <path class="look-cls-16" d="m550.4,365.31c-.57,1.17-11.17,5.09-11.8,4.97-1.86-.34-10.92-15.62-11.8-19.88-3.84-18.58,12.73-16.35,15.53-14.91,2.2,1.13,3.48,25.76,8.08,29.82Z"/>
    <path class="look-cls-19" d="m485.79,577.77c-1.31,1.9-3.04.91-2.48,3.73-3.04-.13-13.67-6.76-14.91-4.35,9.92,26.98,18.47,55.61,36.03,78.89,5.73,7.6,2.43,5.32,12.42,12.42l-4.97,8.7c-1.07-.54-7.38-2.85-8.08-2.48-.77.91,1.44,4.18,3.11,6.21-3.35,2.57-3.47,6.89-6.21,3.11-21.78-45.64-87.51-87.73-53.42-143.5,14.87,9.72,27.28,23.43,38.52,37.27Z"/>
    <path class="look-cls-17" d="m514.37,652.32q21.74,13.05,43.49,26.09c-1.37,2.31-8.46,15.27-8.7,16.15-.27,1.03.16,2.55,0,3.73-1.24-.04-2.79,4.01-12.42-2.48-1.59-2.38-21.97-17.17-24.85-18.64l4.97-8.7c3.24,2.3,33.42,21.29,33.55,15.53-13.52-6.65-34.03-22.56-43.49-27.95.13-1.43,1.33-1.98,2.48-2.48.98-.43,4.25-.86,4.97-1.24Z"/>
    <g>
      <path class="look-cls-20" d="m718.13,270.89c.18.35-.31,3.45,2.48,7.45-4.81.58-10.39-1.28-14.91,1.24.23-1.66-5.52-1.58-9.94-1.24-36.45,2.79-59.87-5.14-72.68,39.76-35.2,2.66-46.85,16.09-1.24,4.97,16.59,52.23,42.53,29.9,70.2,32.3,2.82.24,5.97.52,8.7,1.24,4.35,1.15,4.68,3.63,4.97,3.73-.13.54-1.13,2.4-1.24,2.48-6.23,5.07-2.03,4.59-3.73,9.32-8.91,24.87-23.35,43.37-49.7,50.32-5.78,1.52-10.11,2.38-16.15,2.48-2.7.05-2.82,1.29-3.73,1.24-1.44-.08-25.38-6.41-27.95-7.45-6.62-2.68-17.77-11.05-22.98-16.15-7.01-6.86-19.5-25.32-22.36-34.17-9.2-28.45.19-33.43,2.48-44.73,5.54-27.28,3.68-56.65,35.41-65.23,15.63-4.23,100.84-8.46,111.82-2.48,1.57.85,9.5,12.86,10.56,14.91Z"/>
      <path class="look-cls-3" d="m654.14,370.28c4.96.2-6.81,16.03-23.61,12.42-3.43-.74-9.13-6.51-11.8-9.32l.62-1.86c11.84,7.77,23.9,8.46,34.79-1.24Z"/>
    </g>
    <path class="look-cls-1" d="m735.52,370.28c12.88,4.8,1.22,3.02-3.73,7.45-3.03-2.48-21.21-10.86-27.33-14.91.11-.09,1.11-1.94,1.24-2.48,9.55,3.31,19.61,9.88,29.82,9.94Z"/>
    <path class="look-cls-3" d="m511.88,677.16c2.88,1.46,23.26,16.26,24.85,18.64.64.95,2.95,3.39,2.48,4.35-.8,1.19-2.55-.02-4.97-.62-2.69-.67-25.61-16.53-27.33-18.64-1.67-2.03-3.88-5.3-3.11-6.21.69-.37,7.01,1.94,8.08,2.48Z"/>
    <path class="look-cls-9" d="m751.67,378.98c-.86.69-2.64,3.19-4.97,4.97-1.91,1.46-3.98,2.79-6.21,3.73-.34-.57-8.08-9.44-8.7-9.94,4.95-4.43,16.61-2.66,3.73-7.45,4.61.02,9.21,1.43,10.56-3.73l11.18,2.48-5.59,9.94Z"/>
    <g>
      <path class="look-cls-28" d="m680.85,698.29c-.88,6.62,16.84,80.75,14.91,122.38-2.06,44.25-26.95,123.06-26.09,172.08-1.45.1-12.4,3.72-28.58,4.97q4.35-76.72,8.7-153.44-14.91-59.02-29.82-118.03c-3-3.28-13.17,23.21-13.67,29.2l-2.48,1.86q-16.15,122.07-32.3,244.14c-8.99,2.85-18.11,2.76-27.33,3.73-.32-33.61-.1-67.73-2.48-101.26-4.03-56.75-24.2-144.72,3.11-198.17l59.64-6.21c5.38,6.74,6.61,5.81,6.83,6.21.32.57.98,7.77,3.11,12.42q.31-6.83.62-13.67c25.05-4.91,58.57,4.49,65.85-6.21Z"/>
      <path class="look-cls-8" d="m616.25,690.83c16.51,3.16,57.43,1.24,62.74,2.48,1,.23,2.28,2.44,1.86,3.73-.1.37.05.84,0,1.24-7.28,10.7-40.8,1.3-65.85,6.21-1.7.33-3.77-.8-3.73,1.24-.23-.4-1.45.53-6.83-6.21l-59.64,6.21c-27.31,53.45-7.14,141.42-3.11,198.17,2.38,33.53,2.17,67.65,2.48,101.26-4.8.5-8.97,2.98-13.67,1.24-5.44-51.66-11.98-103.95-13.67-155.93-1.18-36.22,3.04-118.05,2.48-124.24-.11-1.21-4.32-4.9-6.21-22.98,9.08-.26,26.71,20.87,21.12-3.73,2.42.61,4.16,1.81,4.97.62.47-.96-1.85-3.4-2.48-4.35,9.63,6.49,11.19,2.45,12.42,2.48,22.73.68,44.88-3.21,67.09-7.45Z"/>
      <path class="look-cls-8" d="m641.09,997.71c-1.52.12-10.66,1.45-11.18,1.24-2.12-.86-3.31-2.93-4.97-4.35-2.45-51.18,1.2-102.98-1.24-154.06-.01-.28,2.65-3.09,2.48-4.97-8.24-12.69-20.86-68.17-19.88-80.14.49-5.99,10.67-32.48,13.67-29.2q14.91,59.02,29.82,118.03-4.35,76.72-8.7,153.44Z"/>
      <path class="look-cls-18" d="m615,704.5q-.31,6.83-.62,13.67c-2.12-4.65-2.79-11.85-3.11-12.42-.04-2.04,2.03-.91,3.73-1.24Z"/>
      <g>
        <path class="look-cls-8" d="m571.52,1001.44c5.26,7.18,7.32,3.84,9.94,6.21-.36,6.88-5.56,2.32-9.32,3.73-8.88,3.31-15.68,14.22-32.3,8.7-14.63-23.26-2.65,21.59-11.8,45.97-7.83-6.16-8.57-6.36-12.42-16.15-.48-1.22-1.08-3.19-2.48-3.73.76-2.6,1.51-4.93,2.48-7.45,3.69-9.6,4.04-21.21,14.91-26.71v-5.59c4.69,1.73,8.87-.74,13.67-1.24,9.22-.96,18.34-.88,27.33-3.73Z"/>
        <path class="look-cls-28" d="m618.73,1043.68c.07.18,1.82-.52,1.24,3.73-2.65,8.95-.11,7.66,1.24,9.94,1.13,1.91,6.07,6.62,7.45,7.45.28,2.02-.42,4.91,0,6.21-23.67,17.7-78.97,12.07-100.64-4.97,9.15-24.38-2.82-69.23,11.8-45.97,16.62,5.52,23.42-5.38,32.3-8.7,3.76-1.4,8.96,3.15,9.32-3.73,6.44,5.83,6.46,8.66,8.08,9.94.52.42,8.27,1.56,12.42,4.97,1.76,1.44,16.29,19.86,16.77,21.12Z"/>
        <path class="look-cls-22" d="m528.03,1066.05c21.66,17.04,76.97,22.67,100.64,4.97.18.56,4.4,1.3,2.48,10.56-5.88,28.48-139.75,15.45-115.55-31.68,3.86,9.79,4.59,9.99,12.42,16.15Z"/>
      </g>
    </g>
    <g>
      <path class="look-cls-28" d="m742.97,1030.01c.91,1.29,11.75,22.94,12.42,24.85h-2.48c-2.32-7.66-9.48,3-30.44,6.21-22.35,3.42-66.5,2.23-86.35-8.7-.65-3.46,1.29-4.13,1.24-4.35-.41-1.97-9.95-7.48-8.7-38.52,1.77-4.16,11.1,1.64,14.29,1.86,26.45,1.89,44.8,2.18,36.65-16.15,1.84.02,21.58-8.56,29.2,12.42,12.96,4.84,25.92,10.65,34.17,22.36Z"/>
      <path class="look-cls-8" d="m679.61,995.23c8.15,18.33-10.2,18.04-36.65,16.15-3.19-.23-12.51-6.03-14.29-1.86-1.25,31.03,8.28,36.54,8.7,38.52.05.22-1.89.89-1.24,4.35-.29-.16-3.55-.46-6.21-2.48-2.53-1.93-4.37-14.76-9.94-2.48.58-4.25-1.17-3.54-1.24-3.73,2.88-9.62-.02-23.32,1.24-29.2,1.65-7.7,8.92-6.5,9.94-15.53.52.21,9.66-1.13,11.18-1.24,16.17-1.25,27.13-4.87,28.58-4.97,2.32-.15,3.71,2.41,9.94,2.48Z"/>
      <path class="look-cls-24" d="m636.12,1052.38c19.85,10.93,64,12.12,86.35,8.7,20.96-3.21,28.12-13.87,30.44-6.21,9.46,31.25-97.38,26.11-124.24,9.94-1.38-.83-6.32-5.54-7.45-7.45l8.7-7.45c2.66,2.03,5.92,2.32,6.21,2.48Z"/>
      <path class="look-cls-15" d="m629.91,1049.89l-8.7,7.45c-1.35-2.28-3.9-.99-1.24-9.94,5.57-12.28,7.41.56,9.94,2.48Z"/>
    </g>
    <g>
      <path class="look-cls-25" d="m613.76,588.95c4.56,33.8,7.9,68.03,2.48,101.88-22.21,4.25-44.36,8.13-67.09,7.45.16-1.18-.27-2.7,0-3.73,6.65,2.77,52.66-2.8,55.29-3.73,8.14-2.86-8.96-5.7-10.56-6.21-5.77-8.34-12.68-16.44-17.39-25.47-21.15-40.52-22.1-88.91-31.06-132.94-1.47-1.39-6.69,6.16-7.45,6.83-2.38,2.1-4.04,4.01-6.21,6.21-8.74,8.85-17.02,18.18-26.09,26.71,5.25,1.97,1.25,4.04,1.24,4.35-.75-8.35-11.08,11.71-23.61,11.18-.56-2.82,1.18-1.83,2.48-3.73,1.94-2.82,4.66-8.3,4.97-8.7,1.31-1.69,8.26-7.7,11.18-11.8-12.92-8.72-24.73-18.45-36.03-29.2,6.48-13.33,10.04-28.2,16.15-41.62,6.67-14.65,24.29-35.94,14.91-35.41,26.95-22.55,35.78-16.73,67.71-27.33l4.35,1.86c17.48,58.72,36.35,101.19,44.73,163.38Z"/>
      <path class="look-cls-23" d="m465.91,528.07c-6.11-5.81-14.94-11.38-16.15-19.88,14.29-20.35,27.91-41,47.21-57.15,9.38-.53-8.24,20.76-14.91,35.41-6.11,13.42-9.67,28.29-16.15,41.62Z"/>
      <path class="look-cls-13" d="m465.91,528.07c11.3,10.75,23.11,20.47,36.03,29.2-2.92,4.11-9.87,10.12-11.18,11.8-13.13-15.53-46.66-42.36-44.73-55.91,1.21-1.73,2.51-3.24,3.73-4.97,1.21,8.5,10.04,14.06,16.15,19.88Z"/>
      <path class="look-cls-23" d="m490.76,569.07c-.31.4-3.02,5.88-4.97,8.7-11.23-13.84-23.65-27.56-38.52-37.27-14.16-9.25-1.92-.99-17.39-4.97.99-3.94,12.62-17.3,16.15-22.36-1.93,13.55,31.6,40.38,44.73,55.91Z"/>
      <path class="look-cls-13" d="m549.15,634.92c6.44,8.65,13.03,17.14,19.88,25.47-4.51,12.85-8.33,12.35-8.7,13.05-4.34-3.69-34.41-25.86-36.65-26.09-4.8-.5-8.85,4.72-9.32,4.97-.72.38-3.99.82-4.97,1.24,2.51-27.64-3.12-55.78-2.48-83.24,0-.31,4.01-2.38-1.24-4.35,9.07-8.53,17.35-17.86,26.09-26.71-2.64,29.39,4.77,58.47,7.45,87.59,2.33,1.33,8.82,6.57,9.94,8.08Z"/>
      <path class="look-cls-23" d="m593.88,684.62c-11.06-3.54-22.29-5.94-33.55-8.7.25-.45-.25-2.02,0-2.48.37-.69,4.19-.2,8.7-13.05-6.85-8.33-13.44-16.82-19.88-25.47q-5.59-50.94-11.18-101.88c.77-.68,5.98-8.23,7.45-6.83,8.96,44.03,9.91,92.42,31.06,132.94,4.71,9.03,11.62,17.13,17.39,25.47Z"/>
      <path class="look-cls-23" d="m549.15,634.92c-1.12-1.51-7.61-6.75-9.94-8.08-2.69-29.12-10.09-58.2-7.45-87.59,2.17-2.2,3.83-4.11,6.21-6.21q5.59,50.94,11.18,101.88Z"/>
      <path class="look-cls-23" d="m593.88,684.62c1.6.51,18.7,3.35,10.56,6.21-2.63.92-48.63,6.5-55.29,3.73.24-.89,7.33-13.85,8.7-16.15.1-.16,2.4-2.33,2.48-2.48,11.25,2.76,22.48,5.15,33.55,8.7Z"/>
      <g>
        <path class="look-cls-23" d="m726.82,561.62c12.41-49.08,12.93-35.24-14.29-21.12-7.44-5.47-19.81-13.3-25.47-19.88-1.69-1.97-2.93-.22-4.97-4.35-.98-2.73-7.6-37.46-9.32-36.65-2.32,1.09,2.48,7.15-4.35,2.48-3.18-12.6-4.6-25.69-11.18-37.27,3.62-2.2-5.6-9.79-3.11-11.18,12.44-6.97,77.29,78.69,88.83,87.59q-5.59,21.74-11.18,43.49c-2.32,1.17-4.69-3.03-4.97-3.11Z"/>
        <path class="look-cls-25" d="m754.16,506.95c-9.92,8.22-15,47.58-21.12,62.12-25.57-10.98-36.81-25.7-39.14-26.09-6.05-1.03-9.29,10.96-13.05,0,8.74,3.44,6.97-2.39,7.45-2.48,8.2-1.66,22.74,16.63,38.52,21.12.28.08,2.65,4.28,4.97,3.11q5.59-21.74,11.18-43.49c-11.54-8.9-76.39-94.56-88.83-87.59-2.49,1.4,6.72,8.98,3.11,11.18-7.66-13.48-11.58-10.93-22.36-19.88,6.04-.1,10.37-.96,16.15-2.48,9.17,5.92,24.16,8.91,35.41,14.91,28.85,15.38,49.61,43.26,67.71,69.58Z"/>
        <path class="look-cls-25" d="m687.06,520.62c-3.64.03-.16,10.68,1.24,19.88-.48.1,1.28,5.93-7.45,2.48-2.19-6.38-7-39.38-12.42-60.88,6.83,4.66,2.03-1.39,4.35-2.48,1.72-.81,8.34,33.92,9.32,36.65,2.03,4.13,3.28,2.38,4.97,4.35Z"/>
        <path class="look-cls-12" d="m726.82,561.62c-15.78-4.5-30.31-22.78-38.52-21.12-1.4-9.2-4.88-19.85-1.24-19.88,5.66,6.58,18.03,14.4,25.47,19.88,27.22-14.12,26.7-27.96,14.29,21.12Z"/>
      </g>
    </g>
    <path class="look-cls-2" d="m506.91,656.04c9.46,5.39,29.97,21.3,43.49,27.95-.13,5.76-30.31-13.23-33.55-15.53-10-7.1-6.69-4.82-12.42-12.42.99.09,2.2-.16,2.48,0Z"/>
    <path class="look-cls-3" d="m560.34,673.44c-.25.46.25,2.03,0,2.48-.08.15-2.39,2.32-2.48,2.48q-21.74-13.05-43.49-26.09c.47-.25,4.52-5.47,9.32-4.97,2.24.23,32.32,22.4,36.65,26.09Z"/>
  </g>
  <g>
    <path class="look-cls-18" d="m783.97,270.89c23.71,13.42,27.85,32.91,22.36,58.39-2.49-3.55-7.18-3.42-7.45-3.73,16.62-72.44-78.24-56.6-69.58,6.83,3.23,23.66,28.89,32.06,49.7,26.71.44,2.06-7.85,5.69,9.94,4.35-14.31-1.74-3.73-2.09,6.83-1.86,2.87-3.83,1.44-7.57,1.86-8.7,14.83-.87,31.39,1.18,45.97,0,2.41-.19,5.17.35,7.45,0,57.74-8.75,16.94-103.78-19.88-54.67-5.52,7.37-5.47,12.72-8.7,13.67.19-11.92,10.22-26.76,19.88-33.55,34.92-1.91,54.13,32.71,38.52,62.74-19.2,36.93-83.12,16.11-115.55,26.71-16.52,1.11-33.7-6.42-41-22.36-9-19.66-4.19-43.37,9.94-59.64,5.48-6.31,13.52-11.46,21.12-14.91,9.38-.78,19.17.77,28.58,0Z"/>
    <path class="look-cls-10" d="m755.4,270.89c-7.6,3.45-15.64,8.6-21.12,14.91-2.69-8.8-20.77,16.13-22.36,27.95-1.93,14.31,4.09,35.22,12.42,31.68,7.3,15.94,24.48,23.47,41,22.36-1.63.79-6.56,6.81-7.45,7.45-5.14,3.72-5.93,3.5-6.21,3.73l5.59-9.94-11.18-2.48c-1.35,5.16-5.95,3.75-10.56,3.73-10.21-.06-20.27-6.63-29.82-9.94-.29-.1-.62-2.58-4.97-3.73-20.74-24.3-20.32-56.39,4.97-77.03,4.52-2.52,10.1-.67,14.91-1.24,12.42-1.49,21.79-6.37,34.79-7.45Z"/>
    <path class="look-cls-10" d="m842.37,278.34c-9.65,6.79-19.69,21.63-19.88,33.55,0,.51,2.12,8.54,2.48,9.94,3.26,12.5,12.16,20.42,18.64,31.06-14.58,1.18-31.14-.87-45.97,0,2.94-7.86,6.91-15.31,8.7-23.61,5.48-25.49,1.35-44.97-22.36-58.39,49.72,18.67,38.48,8.54,58.39,7.45Z"/>
    <path class="look-cls-26" d="m705.7,279.59c-25.29,20.64-25.71,52.73-4.97,77.03-2.72-.72-5.88-1-8.7-1.24-1.88-3.49-5.48-5.49-8.7-7.45-15.94-22.11-12.54-46.65,7.45-64.61,2.39-1.05,5.42-1.9,4.97-4.97,4.42-.34,10.17-.42,9.94,1.24Z"/>
    <path class="look-cls-10" d="m798.88,325.56c-1.93-2.18,1.35-33.15-23.61-34.79-28.32-1.86-36.5,39.87-3.73,64.61,1.64,1.24,7.14,2.26,7.45,3.73-20.81,5.35-46.47-3.05-49.7-26.71-8.66-63.44,86.19-79.28,69.58-6.83Z"/>
    <path class="look-cls-14" d="m798.88,325.56c.28.31,4.97.17,7.45,3.73-1.78,8.3-5.76,15.74-8.7,23.61-.42,1.13,1.01,4.86-1.86,8.7-10.57-.22-21.14.13-6.83,1.86-17.79,1.34-9.5-2.29-9.94-4.35-.31-1.47-5.82-2.49-7.45-3.73,13.03.1-11.84-9.97-9.94-36.65.76-10.73,6.29-20.4,13.67-27.95,24.96,1.64,21.67,32.6,23.61,34.79Z"/>
    <path class="look-cls-10" d="m851.07,352.89c-3.83-13.88,1.61-42.09-2.48-53.42-3.56-9.86-11.2-6.95-17.39-1.24,36.82-49.11,77.61,45.91,19.88,54.67Z"/>
    <path class="look-cls-28" d="m734.28,285.8c-14.13,16.26-18.94,39.98-9.94,59.64-8.34,3.54-14.35-17.37-12.42-31.68,1.6-11.83,19.67-36.75,22.36-27.95Z"/>
    <g>
      <path class="look-cls-29" d="m851.07,352.89c-2.29.35-5.05-.19-7.45,0-6.48-10.64-15.38-18.56-18.64-31.06q11.8-11.18,23.61-22.36c4.09,11.34-1.35,39.55,2.48,53.42Z"/>
      <path class="look-cls-27" d="m848.58,299.47q-11.8,11.18-23.61,22.36c-.36-1.4-2.49-9.43-2.48-9.94,3.23-.95,3.17-6.3,8.7-13.67,6.19-5.71,13.83-8.62,17.39,1.24Z"/>
    </g>
    <path class="look-cls-28" d="m690.79,283.31c-19.99,17.96-23.39,42.5-7.45,64.61-13.31-8.11-21.43-17.44-19.88-35.41,1.61-18.67,12.97-22.91,27.33-29.2Z"/>
    <g>
      <path class="look-cls-10" d="m695.76,278.34c.45,3.07-2.58,3.92-4.97,4.97-14.36,6.29-25.72,10.52-27.33,29.2-1.55,17.97,6.57,27.3,19.88,35.41,3.22,1.96,6.81,3.97,8.7,7.45-27.66-2.4-53.61,19.93-70.2-32.3-45.61,11.12-33.96-2.31,1.24-4.97,12.81-44.9,36.23-36.96,72.68-39.76Z"/>
      <path class="look-cls-6" d="m641.09,304.44c-3.19,8.13-4.98,16.68-3.73,25.47,1.28,8.99,15.37,24.55,0,9.94-4.82-15.53-5.8-21.94,2.48-36.65l1.24,1.24Z"/>
      <path class="look-cls-7" d="m641.09,304.44l-1.24-1.24c5.33-9.46,10.61-19.8,22.36-20.5-9.68,5.34-17,11.24-21.12,21.74Z"/>
    </g>
    <path class="look-cls-5" d="m775.28,290.77c-7.38,7.56-12.9,17.22-13.67,27.95-1.9,26.68,22.97,36.75,9.94,36.65-32.78-24.73-24.6-66.47,3.73-64.61Z"/>
  </g>
</svg>