<?xml version="1.0" encoding="UTF-8"?>
<svg xmlns="http://www.w3.org/2000/svg" xmlns:xlink="http://www.w3.org/1999/xlink" width="px" height="150px" viewBox="0 0 204 150" version="1.1">
<g id="surface1">
<path style=" stroke:none;fill-rule:nonzero;fill:rgb(99.607843%,0%,0%);fill-opacity:1;" d="M 44.089844 46.292969 L 1.972656 46.292969 C 0.882812 46.292969 0 45.40625 0 44.3125 L 0 2.734375 C 0 1.640625 0.882812 0.753906 1.972656 0.753906 L 44.089844 0.753906 C 45.179688 0.753906 46.066406 1.640625 46.066406 2.734375 L 46.066406 44.3125 C 46.066406 45.40625 45.179688 46.292969 44.089844 46.292969 Z M 44.089844 46.292969 "/>
<path style=" stroke:none;fill-rule:nonzero;fill:rgb(80%,0%,100%);fill-opacity:1;" d="M 44.089844 97.769531 L 1.972656 97.769531 C 0.882812 97.769531 0 96.882812 0 95.789062 L 0 54.210938 C 0 53.117188 0.882812 52.230469 1.972656 52.230469 L 44.089844 52.230469 C 45.179688 52.230469 46.066406 53.117188 46.066406 54.210938 L 46.066406 95.789062 C 46.066406 96.882812 45.179688 97.769531 44.089844 97.769531 Z M 44.089844 97.769531 "/>
<path style=" stroke:none;fill-rule:nonzero;fill:rgb(98.823529%,45.098039%,0%);fill-opacity:1;" d="M 44.089844 149.246094 L 1.972656 149.246094 C 0.882812 149.246094 0 148.359375 0 147.265625 L 0 105.6875 C 0 104.59375 0.882812 103.707031 1.972656 103.707031 L 44.089844 103.707031 C 45.179688 103.707031 46.066406 104.59375 46.066406 105.6875 L 46.066406 147.265625 C 46.066406 148.359375 45.179688 149.246094 44.089844 149.246094 Z M 44.089844 149.246094 "/>
<path style=" stroke:none;fill-rule:nonzero;fill:rgb(12.54902%,70.980392%,1.568627%);fill-opacity:1;" d="M 96.734375 46.292969 L 54.617188 46.292969 C 53.527344 46.292969 52.644531 45.40625 52.644531 44.3125 L 52.644531 2.734375 C 52.644531 1.640625 53.527344 0.753906 54.617188 0.753906 L 96.734375 0.753906 C 97.824219 0.753906 98.710938 1.640625 98.710938 2.734375 L 98.710938 44.3125 C 98.710938 45.40625 97.824219 46.292969 96.734375 46.292969 Z M 96.734375 46.292969 "/>
<path style=" stroke:none;fill-rule:nonzero;fill:rgb(100%,83.137255%,1.176471%);fill-opacity:1;" d="M 96.734375 97.769531 L 54.617188 97.769531 C 53.527344 97.769531 52.644531 96.882812 52.644531 95.789062 L 52.644531 54.210938 C 52.644531 53.117188 53.527344 52.230469 54.617188 52.230469 L 96.734375 52.230469 C 97.824219 52.230469 98.710938 53.117188 98.710938 54.210938 L 98.710938 95.789062 C 98.710938 96.882812 97.824219 97.769531 96.734375 97.769531 Z M 96.734375 97.769531 "/>
<path style=" stroke:none;fill-rule:nonzero;fill:rgb(0%,47.058824%,94.901961%);fill-opacity:1;" d="M 96.734375 149.246094 L 54.617188 149.246094 C 53.527344 149.246094 52.644531 148.359375 52.644531 147.265625 L 52.644531 105.6875 C 52.644531 104.59375 53.527344 103.707031 54.617188 103.707031 L 96.734375 103.707031 C 97.824219 103.707031 98.710938 104.59375 98.710938 105.6875 L 98.710938 147.265625 C 98.710938 148.359375 97.824219 149.246094 96.734375 149.246094 Z M 96.734375 149.246094 "/>
<path style=" stroke:none;fill-rule:nonzero;fill:rgb(98.823529%,45.098039%,0%);fill-opacity:1;" d="M 149.382812 46.292969 L 107.265625 46.292969 C 106.175781 46.292969 105.289062 45.40625 105.289062 44.3125 L 105.289062 2.734375 C 105.289062 1.640625 106.175781 0.753906 107.265625 0.753906 L 149.382812 0.753906 C 150.472656 0.753906 151.355469 1.640625 151.355469 2.734375 L 151.355469 44.3125 C 151.355469 45.40625 150.472656 46.292969 149.382812 46.292969 Z M 149.382812 46.292969 "/>
<path style=" stroke:none;fill-rule:nonzero;fill:rgb(99.607843%,0%,0%);fill-opacity:1;" d="M 149.382812 97.769531 L 107.265625 97.769531 C 106.175781 97.769531 105.289062 96.882812 105.289062 95.789062 L 105.289062 54.210938 C 105.289062 53.117188 106.175781 52.230469 107.265625 52.230469 L 149.382812 52.230469 C 150.472656 52.230469 151.355469 53.117188 151.355469 54.210938 L 151.355469 95.789062 C 151.355469 96.882812 150.472656 97.769531 149.382812 97.769531 Z M 149.382812 97.769531 "/>
<path style=" stroke:none;fill-rule:nonzero;fill:rgb(0%,47.058824%,94.901961%);fill-opacity:1;" d="M 202.027344 46.292969 L 159.910156 46.292969 C 158.820312 46.292969 157.933594 45.40625 157.933594 44.3125 L 157.933594 2.734375 C 157.933594 1.640625 158.820312 0.753906 159.910156 0.753906 L 202.027344 0.753906 C 203.117188 0.753906 204 1.640625 204 2.734375 L 204 44.3125 C 204 45.40625 203.117188 46.292969 202.027344 46.292969 Z M 202.027344 46.292969 "/>
<path style=" stroke:none;fill-rule:nonzero;fill:rgb(11.764706%,71.372549%,0.392157%);fill-opacity:1;" d="M 202.027344 97.769531 L 159.910156 97.769531 C 158.820312 97.769531 157.933594 96.882812 157.933594 95.789062 L 157.933594 54.210938 C 157.933594 53.117188 158.820312 52.230469 159.910156 52.230469 L 202.027344 52.230469 C 203.117188 52.230469 204 53.117188 204 54.210938 L 204 95.789062 C 204 96.882812 203.117188 97.769531 202.027344 97.769531 Z M 202.027344 97.769531 "/>
<path style=" stroke:none;fill-rule:nonzero;fill:rgb(0%,0%,0%);fill-opacity:1;" d="M 21.433594 36.898438 L 21.433594 16.394531 L 14.292969 16.394531 L 14.292969 12.183594 L 14.75 12.183594 C 17.355469 12.183594 19.253906 11.777344 20.441406 10.96875 C 21.632812 10.160156 22.332031 8.804688 22.542969 6.90625 L 27.324219 6.90625 L 27.324219 36.898438 Z M 21.433594 36.898438 "/>
<path style=" stroke:none;fill-rule:nonzero;fill:rgb(0%,0%,0%);fill-opacity:1;" d="M 64.535156 36.898438 C 64.5625 34.21875 65.132812 31.945312 66.246094 30.082031 C 67.359375 28.21875 69.339844 26.328125 72.179688 24.414062 C 72.609375 24.121094 73.238281 23.71875 74.058594 23.199219 C 77.816406 20.785156 79.699219 18.460938 79.699219 16.226562 C 79.699219 14.898438 79.300781 13.851562 78.507812 13.085938 C 77.714844 12.316406 76.628906 11.933594 75.25 11.933594 C 73.746094 11.933594 72.585938 12.402344 71.773438 13.347656 C 70.957031 14.289062 70.550781 15.632812 70.550781 17.378906 L 70.550781 17.628906 L 65.035156 17.628906 C 65.035156 14.195312 65.953125 11.546875 67.792969 9.691406 C 69.632812 7.832031 72.25 6.90625 75.644531 6.90625 C 78.722656 6.90625 81.179688 7.746094 83.019531 9.429688 C 84.855469 11.113281 85.777344 13.351562 85.777344 16.140625 C 85.777344 18.140625 85.296875 19.871094 84.335938 21.335938 C 83.375 22.804688 81.515625 24.472656 78.757812 26.34375 C 78.171875 26.75 77.367188 27.277344 76.335938 27.933594 C 73.71875 29.625 72.242188 30.910156 71.90625 31.789062 L 85.484375 31.789062 L 85.484375 36.898438 Z M 64.535156 36.898438 "/>
<path style=" stroke:none;fill-rule:nonzero;fill:rgb(0%,0%,0%);fill-opacity:1;" d="M 117.390625 27.765625 L 123.132812 27.765625 C 123.144531 29.441406 123.550781 30.703125 124.34375 31.546875 C 125.136719 32.394531 126.3125 32.816406 127.875 32.816406 C 129.378906 32.816406 130.535156 32.421875 131.351562 31.632812 C 132.164062 30.84375 132.574219 29.707031 132.574219 28.226562 C 132.574219 26.75 132.097656 25.628906 131.140625 24.867188 C 130.1875 24.105469 128.773438 23.726562 126.890625 23.726562 C 126.792969 23.726562 126.644531 23.730469 126.441406 23.746094 C 126.242188 23.761719 126.089844 23.765625 125.992188 23.765625 L 125.992188 19.621094 L 126.640625 19.621094 C 128.367188 19.621094 129.644531 19.28125 130.472656 18.601562 C 131.300781 17.925781 131.714844 16.890625 131.714844 15.492188 C 131.714844 14.335938 131.363281 13.414062 130.660156 12.738281 C 129.957031 12.0625 129 11.722656 127.789062 11.722656 C 126.46875 11.722656 125.445312 12.113281 124.71875 12.894531 C 123.996094 13.679688 123.632812 14.789062 123.632812 16.226562 L 123.632812 16.476562 L 117.996094 16.476562 C 118.0625 13.40625 118.964844 11.050781 120.699219 9.40625 C 122.433594 7.765625 124.878906 6.945312 128.039062 6.945312 C 131.035156 6.945312 133.410156 7.679688 135.164062 9.144531 C 136.917969 10.613281 137.792969 12.589844 137.792969 15.074219 C 137.792969 16.386719 137.496094 17.539062 136.894531 18.53125 C 136.296875 19.523438 135.398438 20.339844 134.203125 20.980469 C 135.734375 21.652344 136.894531 22.578125 137.679688 23.757812 C 138.464844 24.9375 138.859375 26.34375 138.859375 27.976562 C 138.859375 30.980469 137.878906 33.359375 135.914062 35.121094 C 133.953125 36.878906 131.269531 37.757812 127.875 37.757812 C 124.519531 37.757812 121.933594 36.902344 120.113281 35.191406 C 118.296875 33.480469 117.390625 31.050781 117.390625 27.894531 Z M 117.390625 27.765625 "/>
<path style=" stroke:none;fill-rule:nonzero;fill:rgb(0%,0%,0%);fill-opacity:1;" d="M 182.441406 36.898438 L 182.441406 30.425781 L 169.824219 30.425781 L 169.824219 25.148438 L 180.851562 7.761719 L 188.265625 7.761719 L 188.265625 25.652344 L 191.734375 25.652344 L 191.734375 30.425781 L 188.265625 30.425781 L 188.265625 36.898438 Z M 182.566406 25.796875 L 182.566406 12.957031 L 174.441406 25.796875 Z M 182.566406 25.796875 "/>
<path style=" stroke:none;fill-rule:nonzero;fill:rgb(0%,0%,0%);fill-opacity:1;" d="M 11.972656 80.3125 L 17.820312 80.3125 C 17.917969 81.625 18.355469 82.640625 19.136719 83.359375 C 19.917969 84.078125 20.960938 84.4375 22.269531 84.4375 C 23.886719 84.4375 25.121094 83.964844 25.976562 83.015625 C 26.832031 82.066406 27.261719 80.703125 27.261719 78.929688 C 27.261719 77.269531 26.824219 75.960938 25.945312 75.003906 C 25.070312 74.046875 23.859375 73.566406 22.3125 73.566406 C 21.449219 73.566406 20.691406 73.742188 20.035156 74.089844 C 19.378906 74.441406 18.824219 74.957031 18.363281 75.640625 L 12.976562 75.328125 L 14.917969 59.242188 L 32.105469 59.242188 L 32.105469 64.308594 L 19.136719 64.308594 L 18.363281 70.320312 C 19.019531 69.804688 19.769531 69.417969 20.621094 69.160156 C 21.46875 68.902344 22.417969 68.769531 23.460938 68.769531 C 26.441406 68.769531 28.84375 69.679688 30.675781 71.496094 C 32.507812 73.308594 33.421875 75.691406 33.421875 78.636719 C 33.421875 81.863281 32.414062 84.4375 30.394531 86.355469 C 28.375 88.277344 25.667969 89.234375 22.269531 89.234375 C 19.179688 89.234375 16.71875 88.441406 14.886719 86.859375 C 13.054688 85.273438 12.085938 83.089844 11.972656 80.3125 Z M 11.972656 80.3125 "/>
<path style=" stroke:none;fill-rule:nonzero;fill:rgb(0%,0%,0%);fill-opacity:1;" d="M 71.175781 71.011719 C 71.859375 70.3125 72.679688 69.785156 73.640625 69.429688 C 74.601562 69.074219 75.671875 68.898438 76.859375 68.898438 C 79.78125 68.898438 82.125 69.789062 83.886719 71.578125 C 85.648438 73.367188 86.527344 75.746094 86.527344 78.71875 C 86.527344 81.875 85.566406 84.425781 83.644531 86.367188 C 81.722656 88.308594 79.191406 89.277344 76.042969 89.277344 C 72.410156 89.277344 69.648438 88.019531 67.761719 85.507812 C 65.875 82.992188 64.929688 79.3125 64.929688 74.46875 C 64.929688 69.261719 65.941406 65.277344 67.960938 62.519531 C 69.980469 59.761719 72.890625 58.382812 76.691406 58.382812 C 79.335938 58.382812 81.46875 59.074219 83.09375 60.457031 C 84.714844 61.839844 85.601562 63.710938 85.753906 66.070312 L 79.699219 66.070312 C 79.558594 65.105469 79.183594 64.378906 78.570312 63.890625 C 77.957031 63.402344 77.101562 63.15625 76 63.15625 C 74.496094 63.15625 73.339844 63.808594 72.535156 65.117188 C 71.726562 66.421875 71.273438 68.386719 71.175781 71.011719 Z M 71.261719 78.847656 C 71.261719 80.5625 71.6875 81.925781 72.542969 82.929688 C 73.402344 83.9375 74.566406 84.4375 76.042969 84.4375 C 77.421875 84.4375 78.5 83.949219 79.28125 82.972656 C 80.058594 81.996094 80.449219 80.632812 80.449219 78.886719 C 80.449219 77.28125 80.046875 76.03125 79.238281 75.136719 C 78.429688 74.246094 77.296875 73.796875 75.835938 73.796875 C 74.398438 73.796875 73.277344 74.246094 72.472656 75.136719 C 71.664062 76.03125 71.261719 77.269531 71.261719 78.847656 Z M 71.261719 78.847656 "/>
<path style=" stroke:none;fill-rule:nonzero;fill:rgb(0%,0%,0%);fill-opacity:1;" d="M 128.082031 88.375 L 121.835938 88.375 C 122.058594 84.285156 123.046875 80.230469 124.792969 76.207031 C 126.539062 72.183594 129.035156 68.234375 132.28125 64.351562 L 117.578125 64.351562 L 117.578125 59.242188 L 138.777344 59.242188 L 138.777344 63.746094 C 135.488281 67.375 132.964844 71.214844 131.203125 75.265625 C 129.441406 79.3125 128.402344 83.683594 128.082031 88.375 Z M 128.082031 88.375 "/>
<path style=" stroke:none;fill-rule:nonzero;fill:rgb(0%,0%,0%);fill-opacity:1;" d="M 174.609375 72.625 C 173.355469 71.925781 172.449219 71.109375 171.894531 70.175781 C 171.335938 69.238281 171.058594 68.046875 171.058594 66.59375 C 171.058594 64.023438 171.933594 62.003906 173.6875 60.539062 C 175.445312 59.074219 177.867188 58.339844 180.957031 58.339844 C 184.078125 58.339844 186.515625 59.070312 188.277344 60.527344 C 190.039062 61.988281 190.917969 64.007812 190.917969 66.59375 C 190.917969 67.976562 190.621094 69.171875 190.023438 70.183594 C 189.421875 71.199219 188.523438 72.011719 187.328125 72.625 C 188.789062 73.308594 189.890625 74.253906 190.628906 75.464844 C 191.367188 76.671875 191.734375 78.140625 191.734375 79.871094 C 191.734375 82.792969 190.777344 85.082031 188.863281 86.742188 C 186.949219 88.40625 184.3125 89.234375 180.957031 89.234375 C 177.558594 89.234375 174.921875 88.410156 173.042969 86.765625 C 171.160156 85.117188 170.222656 82.820312 170.222656 79.871094 C 170.222656 78.15625 170.574219 76.714844 171.277344 75.546875 C 171.980469 74.382812 173.089844 73.40625 174.609375 72.625 Z M 176.277344 79.664062 C 176.277344 81.128906 176.6875 82.261719 177.5 83.054688 C 178.316406 83.851562 179.480469 84.25 181 84.25 C 182.445312 84.25 183.585938 83.84375 184.414062 83.035156 C 185.242188 82.226562 185.65625 81.101562 185.65625 79.664062 C 185.65625 78.28125 185.230469 77.171875 184.382812 76.332031 C 183.53125 75.496094 182.40625 75.074219 181 75.074219 C 179.59375 75.074219 178.453125 75.503906 177.585938 76.355469 C 176.714844 77.207031 176.277344 78.308594 176.277344 79.664062 Z M 176.757812 66.800781 C 176.757812 67.960938 177.121094 68.851562 177.84375 69.472656 C 178.570312 70.09375 179.605469 70.40625 180.957031 70.40625 C 182.308594 70.40625 183.347656 70.089844 184.078125 69.460938 C 184.8125 68.832031 185.175781 67.949219 185.175781 66.800781 C 185.175781 65.683594 184.800781 64.804688 184.046875 64.164062 C 183.296875 63.519531 182.265625 63.199219 180.957031 63.199219 C 179.675781 63.199219 178.65625 63.527344 177.898438 64.183594 C 177.136719 64.839844 176.757812 65.714844 176.757812 66.800781 Z M 176.757812 66.800781 "/>
<path style=" stroke:none;fill-rule:nonzero;fill:rgb(0%,0%,0%);fill-opacity:1;" d="M 27.429688 128.101562 C 26.730469 128.800781 25.910156 129.324219 24.964844 129.675781 C 24.015625 130.023438 22.953125 130.199219 21.769531 130.199219 C 18.832031 130.199219 16.476562 129.3125 14.710938 127.539062 C 12.941406 125.765625 12.058594 123.390625 12.058594 120.414062 C 12.058594 117.261719 13.015625 114.710938 14.9375 112.769531 C 16.859375 110.828125 19.394531 109.859375 22.542969 109.859375 C 26.1875 109.859375 28.964844 111.121094 30.863281 113.640625 C 32.765625 116.160156 33.714844 119.835938 33.714844 124.667969 C 33.714844 129.863281 32.699219 133.84375 30.664062 136.605469 C 28.632812 139.371094 25.707031 140.753906 21.894531 140.753906 C 19.261719 140.753906 17.140625 140.066406 15.523438 138.691406 C 13.910156 137.316406 13.023438 135.441406 12.871094 133.066406 L 18.90625 133.089844 C 19.046875 134.050781 19.421875 134.769531 20.035156 135.246094 C 20.648438 135.71875 21.511719 135.957031 22.625 135.957031 C 24.128906 135.957031 25.277344 135.300781 26.070312 133.988281 C 26.863281 132.675781 27.316406 130.714844 27.429688 128.101562 Z M 27.324219 120.289062 C 27.324219 118.574219 26.894531 117.214844 26.039062 116.214844 C 25.183594 115.21875 24.015625 114.71875 22.542969 114.71875 C 21.148438 114.71875 20.066406 115.199219 19.292969 116.164062 C 18.519531 117.128906 18.132812 118.476562 18.132812 120.207031 C 18.132812 121.828125 18.539062 123.089844 19.347656 123.996094 C 20.152344 124.90625 21.289062 125.359375 22.75 125.359375 C 24.183594 125.359375 25.304688 124.914062 26.113281 124.019531 C 26.921875 123.125 27.324219 121.882812 27.324219 120.289062 Z M 27.324219 120.289062 "/>
<path style=" stroke:none;fill-rule:nonzero;fill:rgb(0%,0%,0%);fill-opacity:1;" d="M 64.871094 125.273438 C 64.871094 120.121094 65.765625 116.265625 67.554688 113.703125 C 69.34375 111.140625 72.046875 109.859375 75.667969 109.859375 C 79.273438 109.859375 81.976562 111.148438 83.78125 113.722656 C 85.585938 116.300781 86.484375 120.164062 86.484375 125.316406 C 86.484375 130.46875 85.589844 134.316406 83.800781 136.859375 C 82.011719 139.398438 79.300781 140.671875 75.667969 140.671875 C 72.046875 140.671875 69.34375 139.394531 67.554688 136.835938 C 65.765625 134.28125 64.871094 130.429688 64.871094 125.273438 Z M 71.074219 125.273438 C 71.074219 128.921875 71.4375 131.566406 72.167969 133.214844 C 72.898438 134.863281 74.066406 135.6875 75.667969 135.6875 C 77.269531 135.6875 78.4375 134.855469 79.175781 133.191406 C 79.914062 131.53125 80.28125 128.890625 80.28125 125.273438 C 80.28125 121.644531 79.914062 119.003906 79.175781 117.359375 C 78.4375 115.710938 77.269531 114.886719 75.667969 114.886719 C 74.066406 114.886719 72.898438 115.707031 72.167969 117.347656 C 71.4375 118.988281 71.074219 121.628906 71.074219 125.273438 Z M 71.074219 125.273438 "/>
</g>
</svg>
