<?xml version="1.0" encoding="UTF-8"?>
<svg id="Layer_1" data-name="Layer 1" xmlns="http://www.w3.org/2000/svg" xmlns:xlink="http://www.w3.org/1999/xlink" viewBox="0 0 1222 1222">
  <defs>
    <style>
      .play-cls-1 {
        fill: url(#linear-gradient);
      }

      .play-cls-1, .play-cls-2, .play-cls-3, .play-cls-4, .play-cls-5, .play-cls-6, .play-cls-7, .play-cls-8, .play-cls-9, .play-cls-10, .play-cls-11, .play-cls-12, .play-cls-13, .play-cls-14, .play-cls-15, .play-cls-16, .play-cls-17, .play-cls-18, .play-cls-19, .play-cls-20, .play-cls-21, .play-cls-22, .play-cls-23, .play-cls-24, .play-cls-25, .play-cls-26, .play-cls-27, .play-cls-28, .play-cls-29, .play-cls-30, .play-cls-31, .play-cls-32, .play-cls-33, .play-cls-34, .play-cls-35, .play-cls-36, .play-cls-37, .play-cls-38, .play-cls-39, .play-cls-40, .play-cls-41, .play-cls-42, .play-cls-43, .play-cls-44, .play-cls-45, .play-cls-46, .play-cls-47, .play-cls-48, .play-cls-49, .play-cls-50, .play-cls-51, .play-cls-52, .play-cls-53, .play-cls-54, .play-cls-55, .play-cls-56, .play-cls-57, .play-cls-58, .play-cls-59, .play-cls-60, .play-cls-61, .play-cls-62, .play-cls-63, .play-cls-64, .play-cls-65, .play-cls-66, .play-cls-67, .play-cls-68 {
        stroke-width: 0px;
      }

      .play-cls-2 {
        fill: #f59468;
      }

      .play-cls-3 {
        fill: #f8b83b;
      }

      .play-cls-4 {
        fill: #f7d154;
      }

      .play-cls-5 {
        fill: #75e5cb;
      }

      .play-cls-6 {
        fill: #795f2a;
      }

      .play-cls-7 {
        fill: #27171d;
      }

      .play-cls-8 {
        fill: #4e7958;
      }

      .play-cls-9 {
        fill: #7c1c29;
      }

      .play-cls-10 {
        fill: #5b8a65;
      }

      .play-cls-11 {
        fill: #4b2a23;
      }

      .play-cls-12 {
        fill: #4b3122;
      }

      .play-cls-13 {
        fill: #64494a;
      }

      .play-cls-14 {
        fill: #54d2b3;
      }

      .play-cls-15 {
        fill: #5b9560;
      }

      .play-cls-16 {
        fill: #314137;
      }

      .play-cls-17 {
        fill: #3b6454;
      }

      .play-cls-18 {
        fill: #3b2529;
      }

      .play-cls-19 {
        fill: #3b5944;
      }

      .play-cls-20 {
        fill: #32bd98;
      }

      .play-cls-21 {
        fill: #58231c;
      }

      .play-cls-22 {
        fill: #364b2f;
      }

      .play-cls-23 {
        fill: #45393d;
      }

      .play-cls-24 {
        fill: #067269;
      }

      .play-cls-25 {
        fill: #10846f;
      }

      .play-cls-26 {
        fill: #0b4441;
      }

      .play-cls-27 {
        fill: #233634;
      }

      .play-cls-28 {
        fill: #1db3a1;
      }

      .play-cls-29 {
        fill: #252720;
      }

      .play-cls-30 {
        fill: #d4352c;
      }

      .play-cls-31 {
        fill: #ca6551;
      }

      .play-cls-32 {
        fill: #de8869;
      }

      .play-cls-33 {
        fill: #c9f1e6;
      }

      .play-cls-34 {
        fill: #afecc9;
      }

      .play-cls-35 {
        fill: #e1b396;
      }

      .play-cls-36 {
        fill: #d5464b;
      }

      .play-cls-37 {
        fill: #db6b2c;
      }

      .play-cls-38 {
        fill: #c0e6f7;
      }

      .play-cls-39 {
        fill: #af4241;
      }

      .play-cls-40 {
        fill: #aaefe1;
      }

      .play-cls-41 {
        fill: #cdcb78;
      }

      .play-cls-42 {
        fill: #b7242d;
      }

      .play-cls-43 {
        fill: #b65f3d;
      }

      .play-cls-44 {
        fill: #b86a67;
      }

      .play-cls-45 {
        fill: #a25346;
      }

      .play-cls-46 {
        fill: #b85a4e;
      }

      .play-cls-47 {
        fill: #b6dcb7;
      }

      .play-cls-48 {
        fill: #bc4426;
      }

      .play-cls-49 {
        fill: #9a3a32;
      }

      .play-cls-50 {
        fill: #a0be7e;
      }

      .play-cls-51 {
        fill: #7f4d3d;
      }

      .play-cls-52 {
        fill: #7fb68b;
      }

      .play-cls-53 {
        fill: #7dd6cb;
      }

      .play-cls-54 {
        fill: #fae296;
      }

      .play-cls-55 {
        fill: #e7992e;
      }

      .play-cls-56 {
        fill: #fdd39e;
      }

      .play-cls-57 {
        fill: #fdc392;
      }

      .play-cls-58 {
        fill: #e5f4fd;
      }

      .play-cls-59 {
        fill: #fcac7d;
      }

      .play-cls-60 {
        fill: #fefcf9;
      }

      .play-cls-61 {
        fill: #f28b28;
      }

      .play-cls-62 {
        fill: #ed792b;
      }

      .play-cls-63 {
        fill: #f1d3ba;
      }

      .play-cls-64 {
        fill: #f5efbf;
      }

      .play-cls-65 {
        fill: #e6eed7;
      }

      .play-cls-66 {
        fill: #039e8f;
      }

      .play-cls-67 {
        fill: #018080;
      }

      .play-cls-68 {
        fill: #69322e;
      }
    </style>
    <linearGradient id="linear-gradient" x1="537.98" y1="154.81" x2="495.68" y2="409.08" gradientUnits="userSpaceOnUse">
      <stop offset="0" stop-color="#744334"/>
      <stop offset="1" stop-color="#552e27"/>
    </linearGradient>
  </defs>
  <g>
    <g>
      <path class="play-cls-47" d="m668.28,220.77c5.19-19.72-4.1-35.22-23.87-39.38,14.8-2.57,17.52-4.75,18.5-4.77,20.57-.51,20.24,35.69,5.37,44.15Z"/>
      <path class="play-cls-47" d="m510.76,174.23c-4.17,14.53-.86,13.09-1.19,13.72-.44.83-9.2,1.14-10.74,4.18-3.83-10.13-14.9-16.94-25.06-19.09,16.95,2.79,17.07-2.25,18.5-2.39,9.79-.92,15.63,3.11,19.69-1.19-.19,1.61-.75,3.22-1.19,4.77Z"/>
    </g>
    <path class="play-cls-31" d="m601.45,529.85q.6,4.18,1.19,8.35c-38.69,11.44-48.03,13.62-87.12-1.19-1.64-.62-3.16-1.69-4.77-2.39-14.98-6.44-30.56-13.9-41.77-26.25-5.21-5.74-9.13-14.8-13.13-21.48,3.16-3.16,7.25-17.55,8.95-17.9,5,5.99,12.57,9.04,20.29,8.35,5.77,51.3,73.42,65.14,116.35,52.51Z"/>
    <g>
      <path class="play-cls-31" d="m379.49,891.44c1.48,18.88,4.59,36.64,19.09,50.12,4.03,3.74,8.67,6.42,13.13,9.55-2.99,1.43-20.03,7.28-23.87,8.35-14.3,3.99-27.05,8.36-41.77,3.58-13.54-9.47-21.73-19.83-17.9-36.99,2.89-12.97,20.21-31.2,33.41-34.61,1.82.62.76,3.29,4.18,2.39,9.75-4.09,13.04-2.23,13.72-2.39Z"/>
      <path class="play-cls-39" d="m384.26,889.05c.72,19.78,6.64,34.67,14.32,52.51-14.5-13.48-17.61-31.24-19.09-50.12.26-.06.04-.99,4.77-2.39Z"/>
      <path class="play-cls-68" d="m386.65,889.05c-.2,19.45,9.85,49.18,26.25,60.86.12,1.44-.89,1.05-1.19,1.19-4.46-3.13-9.1-5.8-13.13-9.55-7.68-17.84-13.6-32.73-14.32-52.51.64-.19,1.77.2,2.39,0Z"/>
    </g>
    <path class="play-cls-57" d="m737.5,627.71c-3.15,2.16-6.29,4.86-9.55,7.16-22.27.15-44.71-7.44-60.86-22.67-1.34-1.26-1.91-4.2-4.77-3.58,3.88-8.2,6.2-12.26,8.35-21.48,11.42,3.36,23.08,16.19,35.2,23.87,9.42,5.96,21.85,10.84,31.62,16.71Z"/>
    <path class="play-cls-32" d="m664.7,502.4c-14.75,14.38-31.67,26.74-51.31,33.41-1.9.74-4.09,1.77-5.97,2.39-.61.2-1.76-.2-2.39,0-.62.19-1.75-.19-2.39,0q-.6-4.18-1.19-8.35c40.63-11.95,64.53-58.01,63.25-27.45Z"/>
    <path class="play-cls-31" d="m646.8,695.73c3.79,12.37,12.96,40.26,21.48,48.93-4.29.14,1.93,10.54,4.77,20.29-1.12.23-2.43-.14-3.58,0-3.39-4.14-11.37-6.94-15.51-11.93-.68-3.34-1-6.6-2.98-9.55-12.16,6.44-21.85,6.62-35.2,5.97-1.58-.08-3.21.15-4.77,0-20.38-1.91-52.45-14.05-69.21-26.25-5.02-3.66-12.24-11.51-16.11-16.71-5.1-.8-5.09,2.3-5.37,2.39-8.4,2.06-.86-3.84,2.39-5.97,1.51-.99,2.98-3.94,5.37-3.58,6.27.96,44.86,48.93,116.35,34.01-2.15-1.78-1.92-4.22-2.39-6.56-1.56-7.83-5.33-19.82-8.35-27.45v-1.19c3.42-.4,10.41-1.37,13.13-2.39Z"/>
    <path class="play-cls-31" d="m630.09,354.43l1.79,2.39c-55.05,14.91-59.91-28.99-65.63-27.45-10.24,19.16-37.08,34.43-58.47,26.25-4.53,18.8-18.53,27.15-35.2,34.61-.46-3.64-1.19-7.2-3.58-10.14.94-2.98,36.36-.33,35.8-31.62q2.98-4.18,5.97-8.35c12.45,19.17,34.3,8.55,46.54-5.37,7.03-8-3.27-9.3,23.27-11.34,2.99,29.18,23.38,35.02,49.52,31.03Z"/>
    <path class="play-cls-46" d="m447.51,442.74c-.02-.08-.91.45-1.19-1.19-4.58-26.95,16.75-22.19,27.45-41.77-.52,19.28-10.94,16.95-19.09,29.24-3.35,5.05-3.9,14.38-7.16,13.72Z"/>
    <path class="play-cls-39" d="m501.21,638.45q-.6,5.37-1.19,10.74c-36.62,25.4-12.15,51.5-8.95,52.51,7.39,2.32,20.13-2.15,25.66-8.35,1.89,3.27,3.73,6.5,5.97,9.55-3.25,2.13-10.78,8.03-2.39,5.97-7.99,2.5-11.55,4.06-20.29,4.77-24.32-17.27-34.19-27.23-26.25-58.47,1.88-1.94,6.64-6.8,7.16-7.16,4.19-2.92,15.05-7.48,20.29-9.55Z"/>
    <g>
      <path class="play-cls-9" d="m317.43,897.41c-4.63,6.89-9.68,16.6-9.55,25.06-10.51,18.38,27.5,60.4,45.94,62.05,8.04.72,22.38-3.83,29.24-8.35,4.16-2.74,4.67-5.15,7.16-5.97.09,1.82.24,4.24,0,5.97-.81,5.85-3.29,8.03-8.35,10.74-12.87,6.88-36.42,5.33-50.12,0-4.07-3.54-10.52-6.01-16.71-13.72-12.11-15.09-21.87-48.48-15.51-67.42,2-1.37,6.61-9.52,17.9-8.35Z"/>
      <path class="play-cls-36" d="m346.07,886.67c-22.8,12.98-19.07,30.05-21.48,36.99-9.27,26.71-16.51,11.19-16.71-1.19-.14-8.46,4.92-18.17,9.55-25.06,9.2-13.7,11.64-12.57,28.64-10.74Z"/>
      <path class="play-cls-9" d="m361.59,891.44c-13.2,3.4-30.52,21.63-33.41,34.61l-3.58-2.39c2.41-6.94-1.32-24.02,21.48-36.99,18.5,1.99,14.7,4.49,15.51,4.77Z"/>
      <path class="play-cls-39" d="m324.59,923.66l3.58,2.39c-3.83,17.17,4.36,27.52,17.9,36.99,27.4,19.17,29.06-1.51,36.99,13.13-6.85,4.52-21.2,9.08-29.24,8.35-18.44-1.66-56.45-43.67-45.94-62.05.2,12.39,7.44,27.9,16.71,1.19Z"/>
      <path class="play-cls-42" d="m387.84,959.46c-.12,1.4.76,1.04,1.19,1.19-.79,6.51,1.17,9.07,1.19,9.55-2.49.81-3,3.23-7.16,5.97-7.93-14.63-9.59,6.04-36.99-13.13,14.72,4.78,27.47.41,41.77-3.58Z"/>
      <g>
        <path class="play-cls-63" d="m331.75,986.91c8.27,7.2-.5,7.8,12.53,10.74,4.41,1,27.15,2.96,31.03,2.39,3-1.38,3.01-3.3,4.18-3.58,6.44-1.52,12.63-3.44,19.09-4.77-.66,9.52-.09,21.85-1.19,31.03-67.56,35.52-114.58-49.11-105.02-107.4.37-2.25-.5-6.79,0-7.76,1.74-3.34,3.97,1.89,4.18,1.79.51-.26.1-1.6,2.98-3.58-6.36,18.94,3.41,52.33,15.51,67.42,6.19,7.71,12.64,10.18,16.71,13.72Z"/>
        <path class="play-cls-35" d="m292.37,915.31c-9.56,58.29,37.46,142.92,105.02,107.4-1.53,12.75.58,16.41-13.13,21.48-18.5,6.84-42.02,2.98-58.47-7.16-5.99-3.69-22.51-20.16-26.25-26.25-6.28-10.22-8.45-26.09-13.13-27.45,4.09-9.36-4.79-33.98-2.39-53.1.41-3.3,4.15-19.22,8.35-14.92Z"/>
        <path class="play-cls-63" d="m381.88,986.91l-2.39,9.55c-1.17.28-1.17,2.2-4.18,3.58-3.87.57-26.62-1.39-31.03-2.39-13.03-2.94-4.26-3.54-12.53-10.74,13.7,5.33,37.25,6.88,50.12,0Z"/>
      </g>
    </g>
    <path class="play-cls-39" d="m602.65,538.21c.64-.19,1.76.19,2.39,0q-2.39,6.56-4.77,13.13c-1.16-.3-1.38-1.18-2.39-1.19-54.49,17.27-91.72-7.44-52.51,19.69l-10.74,4.18c-1.15-.66-2.1-1.49-3.58-1.19-6.62-5.62-12.3-12.46-19.09-17.9.42-1.24-1.07-8.77,3.58-17.9,39.08,14.81,48.42,12.63,87.12,1.19Z"/>
    <path class="play-cls-31" d="m679.02,348.46c-4.76,1.01-6.04,8.26-6.56,8.35-1.19.22-7.68-20.2-11.34-21.48,3-5.61,3.1-11.22,5.97-16.71,4.1,10.66,11.38,20.44,11.93,29.83Z"/>
    <g>
      <path class="play-cls-1" d="m644.41,181.39c19.77,4.16,29.05,19.66,23.87,39.38-15.89,28.25,7.8-8.69,37.59,5.97,18.44,9.07,18.95,37.9,6.56,52.51-5.4-2.13-7.12,3.22-10.74,8.95,6.26.69,8.34,1.66,13.13,5.37-4.73.54,3.23,10.72-1.19,24.46-1.18,3.67-7.96,10.77-11.34,11.34-14.26,2.37-20.18-25.38-39.38-27.45-1.13.63.87,5.56-.6,10.74-4.49,15.86-15.55,33.42-34.01,22.67-15.84-9.22-15.23-43.77-16.11-8.95,16.92,25.05-26.77,4.94-28.64-2.39-1.48-5.78,4.32-19.44,5.97-25.66.05-.18,2.55-.27.6-3.58-1.23.88-.27,3.19-.6,3.58-34.42,41.33-54.22-39.84-35.8,22.08-10.34,28.39-39.65,16.03-47.73-5.97-3.48-1.91-3.41.53-3.58.6-2.72,1.08-8.9,8.07-11.93,10.14.08.91,6.73,3.16,10.74,10.14-10.6-5.38-3.24.42-4.77,10.14-4.27,27.12-33.1,32.75-42.96-13.13-6.02,41.12,27.11,63.8-1.79,74.58-32.69,12.2-45.51-14.69-45.35-42.96-14.16,77.67-63.03,34.65-43.56-20.88-13.22,11.04-40.15,34.47-53.7,10.74-14.07-24.64,6.94-23.48,8.35-24.46.07-.05-.26-1.33,1.19-1.19q7.46,8.35,14.92,16.71c3.85-1.95-10.39-27.58,22.67-22.67,6.64.99,12.7,6.1,15.51,11.93,4.06-14.11-28.69-18.07-40.57-27.45l-14.92-26.25c-.81-13.72,3.37-24.01,11.93-34.61,6.25-7.74,9.93-10.51,19.09-14.32l-.6,2.39c9-1.76,21.8-2.15,29.83,2.39,4.64,2.62,23.6,39.99,17.3,11.93,12.73-7.02,16-16.85,32.22-18.5-9.51-10.66-15.69-21.79-11.93-36.4,10.8-17.01,34.57-23.26,53.7-21.48-7.69,11.75,23.09-2.12,23.27,35.8,27.8,3.4,47.62-7.36,30.43-11.93.08-3.77-6.16-21.25-10.74-21.48.44-1.55,1.01-3.17,1.19-4.77,33.78-38.8,99.09-25.22,85.33,33.41,23.52-21.48,30.6-18.6,47.14-21.48Z"/>
      <path class="play-cls-51" d="m473.76,173.04c10.17,2.15,21.23,8.96,25.06,19.09.16.42-3.41,4.04.6,7.16,13.1-6.52,21.88,5.29,22.08-3.58,17.18,4.57-2.64,15.33-30.43,11.93-.18-37.92-30.96-24.05-23.27-35.8,2.4.22,3.76.73,5.97,1.19Z"/>
      <path class="play-cls-51" d="m712.44,279.25c1.52.6,16.79,11.21,19.09,21.48,2.69,12.01-1.41,18.94-8.35,27.45-5.47,4.06,3.22-8.97,0-22.08-1.22-4.97-4.22-9.33-8.35-12.53-4.79-3.71-6.86-4.68-13.13-5.37,3.62-5.73,5.34-11.08,10.74-8.95Z"/>
      <path class="play-cls-11" d="m393.81,248.22c-.46-2.03-3.33-6.33-4.77-8.35q11.34-6.86,22.67-13.72c-6.7-11.57-4.47-22.02,2.39-32.82-3.75,14.6,2.42,25.74,11.93,36.4-16.22,1.64-19.49,11.48-32.22,18.5Z"/>
      <path class="play-cls-51" d="m389.04,239.87c1.45,2.02,4.32,6.32,4.77,8.35,6.3,28.05-12.67-9.31-17.3-11.93-8.04-4.54-20.83-4.14-29.83-2.39l.6-2.39c16.37-6.8,30.39-7.55,41.77,8.35Z"/>
      <path class="play-cls-11" d="m317.43,329.37c-1.41.99-22.43-.17-8.35,24.46,13.55,23.73,40.48.3,53.7-10.74-19.47,55.54,29.4,98.55,43.56,20.88-.16,28.27,12.65,55.16,45.35,42.96,28.9-10.79-4.23-33.46,1.79-74.58,9.86,45.87,38.69,40.25,42.96,13.13,1.53-9.72-5.82-15.52,4.77-10.14,2.65,4.61,3.49,7.79,3.58,13.13.56,31.3-34.86,28.65-35.8,31.62,2.39,2.94,3.12,6.5,3.58,10.14.06.48,1.4,1.69,1.19,9.55-10.69,19.58-32.03,14.82-27.45,41.77-52.08-27.07-56.64,33.43-23.87,47.73,9.72,4.24,25.03,6.02,33.41-2.39,4,6.68,7.92,15.74,13.13,21.48-7.89-.17-14.48-4.3-20.88-8.35-29.76,11.59-42.94-5.71-45.35-5.97-3.65-.39-22.37,12.23-34.01-5.37-8.47-12.8-2.13-27.02-5.37-28.04-36.89,2.98-66.24-27.67-45.94-63.84-42.19-3.08-42.57-67.54,0-67.42Z"/>
      <path class="play-cls-11" d="m318.63,328.17l9.55-22.08c-7.41-6.74-11.35-15.78-11.93-25.66l14.92,26.25c11.88,9.38,44.63,13.34,40.57,27.45-2.82-5.84-8.87-10.95-15.51-11.93-33.07-4.91-18.83,20.72-22.67,22.67q-7.46-8.35-14.92-16.71Z"/>
      <path class="play-cls-11" d="m589.52,298.34c-1.64,6.22-7.44,19.88-5.97,25.66,1.87,7.33,45.56,27.43,28.64,2.39.88-34.82.27-.27,16.11,8.95,18.46,10.74,29.52-6.81,34.01-22.67,5.61.55,4.45,5.13,4.77,5.97-2.87,5.49-2.96,11.09-5.97,16.71-6.16,11.52-18.73,17.22-31.03,19.09-26.15,3.99-46.53-1.84-49.52-31.03-26.54,2.03-16.24,3.34-23.27,11.34-12.24,13.92-34.09,24.54-46.54,5.37-3.76-5.78-7.86-17.92-8.35-25.06.17-.07.1-2.51,3.58-.6,8.08,22,37.4,34.36,47.73,5.97-18.42-61.92,1.38,19.25,35.8-22.08Z"/>
      <path class="play-cls-11" d="m521.5,195.71c-.2,8.87-8.98-2.94-22.08,3.58-4-3.12-.44-6.74-.6-7.16,1.54-3.04,10.3-3.34,10.74-4.18.33-.63-2.97.81,1.19-13.72,4.58.23,10.82,17.71,10.74,21.48Z"/>
      <path class="play-cls-32" d="m510.76,340.11q-2.98,4.18-5.97,8.35c-.09-5.33-.93-8.52-3.58-13.13-4.01-6.98-10.66-9.23-10.74-10.14,3.03-2.08,9.21-9.06,11.93-10.14.49,7.14,4.6,19.28,8.35,25.06Z"/>
      <path class="play-cls-11" d="m589.52,298.34c.33-.39-.64-2.7.6-3.58,1.96,3.31-.55,3.4-.6,3.58Z"/>
      <path class="play-cls-68" d="m707.66,381.88c-13.52,3.95,7.64-18.4-8.35-37.59.04-.32,2.81-1.3,3.58-1.79,18.57,8.68,18.69,30.59,4.77,39.38Z"/>
      <g>
        <path class="play-cls-11" d="m723.18,328.17c-8.42,10.32-10.89,8.36-20.29,14.32-.77.49-3.54,1.47-3.58,1.79,15.99,19.19-5.16,41.54,8.35,37.59-3.38,2.14-4.63,3.13-8.95,2.39-1.04,23.75-6.42,16.06-8.95,15.51-7.48-1.61-4.39,17.98-2.39,22.67-3.41,4.31-15.04,6.1-20.29,8.35-4.14-12.08,4.83-40.3,7.16-53.7,3.17,2.21-2.32,12.26-.6,13.13.88.44,4.25-4.59,18.5-6.56-15.15-5.2-8.61-19.19-15.51-14.92,1.02-6.17,2.74-14.31,2.39-20.29-.55-9.39-7.83-19.17-11.93-29.83-.32-.84.84-5.42-4.77-5.97,1.47-5.18-.54-10.11.6-10.74,19.2,2.07,25.12,29.82,39.38,27.45,3.38-.56,10.16-7.67,11.34-11.34,4.42-13.74-3.54-23.93,1.19-24.46,4.13,3.2,7.14,7.56,8.35,12.53,3.22,13.11-5.47,26.13,0,22.08Z"/>
        <path class="play-cls-45" d="m689.76,399.78c-.7,7.21,2.52,16.47-2.39,22.67-2.01-4.69-5.1-24.28,2.39-22.67Z"/>
        <path class="play-cls-9" d="m674.25,377.1c.65-3.76,2.23-7.42,2.39-8.35,6.9-4.27.36,9.72,15.51,14.92-14.24,1.97-17.62,7.01-18.5,6.56-1.72-.87,3.76-10.92.6-13.13Z"/>
        <path class="play-cls-44" d="m674.84,395c.76-.15,1.56-.11,1.79.6-9.71,11-4.91,0-1.79-.6Z"/>
      </g>
    </g>
    <g>
      <path class="play-cls-59" d="m446.32,441.54c.28,1.64,1.17,1.11,1.19,1.19,1.11,4.62,7.1,4.57,1.19,10.74-11.27-15.97-44.9-19.17-35.2,8.35,1.01.07,6.81-14.19,16.11-7.76-19.94,6.02-6.8,23.91-4.18,24.46,4.52.95,9.46-13.52,14.92-8.95,3.05,2.55-3.96,12.01-5.97,14.92-3.74,5.41,3.68,6.07-11.93,4.77-32.78-14.3-28.21-74.81,23.87-47.73Z"/>
      <path class="play-cls-32" d="m448.7,453.48c10.4,14.74,2.78,28.76-14.32,31.03,2.01-2.91,9.01-12.36,5.97-14.92-5.45-4.57-10.4,9.9-14.92,8.95-2.63-.55-15.76-18.45,4.18-24.46-9.3-6.43-15.1,7.83-16.11,7.76-9.7-27.53,23.94-24.32,35.2-8.35Z"/>
    </g>
    <path class="play-cls-39" d="m700.5,653.96c-7.78,5.44-21.61,9.43-14.32,21.48-.56,0-2.27-.02-2.39,0q-10.74-13.13-21.48-26.25c-2.3-7.37-7.7-16.03-8.35-25.06,2.24-2.93,4.35-6.26,5.97-9.55,3.79,21.72,19.73,34.77,40.57,39.38Z"/>
    <path class="play-cls-59" d="m727.95,634.87c-5.21,3.68-10.33,7.12-15.51,10.74-16.24,5.09-47.86-23.12-45.35-33.41,16.15,15.24,38.6,22.82,60.86,22.67Z"/>
    <path class="play-cls-32" d="m667.09,612.19c-2.52,10.29,29.1,38.5,45.35,33.41-3.97,2.78-7.96,5.57-11.93,8.35-20.84-4.61-36.78-17.66-40.57-39.38.14-.29.89-2.8,2.39-5.97,2.86-.62,3.44,2.32,4.77,3.58Z"/>
    <g>
      <path class="play-cls-2" d="m867.57,563.27c1.54.48,1.78-.73,3.58,1.19-4.52,32.47-7.88,23.1-8.35,24.46-.25.73-.22,2.49.6,2.98,1.79.06,3.59-.09,5.37,0-17.3,16.99-15.22-23.09-47.73,0-6.53-.95-14.97.86-21.48-2.39,5.29-2.96,10.04-6.96,15.51-9.55,1.78,8.47,12.56-1.36,28.04,0,1.32.12,30.5,11.42,15.51-2.39-7.56-6.96-24.35-2.52-24.46-7.16,10.78-4.5,20.24-11.23,33.41-7.16Z"/>
      <path class="play-cls-59" d="m912.92,576.39c.4,6.08-9.1,24.55-28.64,25.06-13.98.36-12.43-2.33-13.13-2.39,7.74-2.67,15.72-7.24,19.09-14.92-7.46,1.56-13.26,8.18-21.48,7.76-1.78-.09-3.59.06-5.37,0-.81-.49-.85-2.25-.6-2.98.47-1.36,3.84,8.01,8.35-24.46,6.27,6.69-4.93,18.77,11.34,13.13,20.11-6.98,6.46-23.35,13.72-22.08-1.11,13.3,5.59,19.29-3.58,31.03l1.79,1.79c8.53-3.15,11.35-13.01,18.5-11.93Z"/>
      <path class="play-cls-57" d="m912.92,576.39c-7.15-1.08-9.97,8.79-18.5,11.93l-1.79-1.79c9.17-11.74,2.47-17.73,3.58-31.03-7.26-1.27,6.39,15.1-13.72,22.08-16.27,5.64-5.07-6.44-11.34-13.13-1.8-1.93-2.04-.72-3.58-1.19,12.65-18.68,31.81-23.06,32.22,5.37.69,2.09,12.37-3.79,13.13,7.76Z"/>
      <path class="play-cls-56" d="m815.06,579.97c11.71-4.42,18.09-9.13,19.09-9.55.11,4.64,16.9.2,24.46,7.16,14.99,13.81-14.2,2.5-15.51,2.39-15.49-1.36-26.26,8.47-28.04,0Z"/>
      <path class="play-cls-31" d="m868.77,591.91c8.22.43,14.02-6.2,21.48-7.76-3.37,7.68-11.35,12.25-19.09,14.92-19.31-1.59-32.2-4.55-50.12-7.16,32.51-23.09,30.43,16.99,47.73,0Z"/>
    </g>
    <path class="play-cls-12" d="m607.42,538.21c.93,2.39,2.69,4.81,3.58,7.16.43,1.14,2.32,5.65,2.39,5.97.48,2.26-.33,5.78,0,8.35-2.8-3.14-8.92-7.27-13.13-8.35q2.39-6.56,4.77-13.13c.63-.2,1.78.2,2.39,0Z"/>
    <path class="play-cls-57" d="m551.33,637.25c8.24,20.01,39.89,36.78,59.07,47.73,3.14,1.79,17.46,4.9,23.27,13.13v1.19c-1.7,3.01-2.19,6.35-3.58,9.55-43.83-2.43-90.73-22.74-114.56-60.86.77-2.26,1.46-4.71,1.19-7.16,11.96-3.89,22.13-5.57,34.61-3.58Z"/>
    <path class="play-cls-32" d="m516.72,640.83c.27,2.45-.42,4.9-1.19,7.16-.34.99-4.89.95,0,14.92,9.48,27.1,36.19,38.8,59.67,49.52,24.5,11.19,30.62,19.57,66.83,14.32.47,2.35.24,4.78,2.39,6.56-71.49,14.92-110.08-33.05-116.35-34.01-2.39-.36-3.86,2.59-5.37,3.58-2.24-3.05-4.07-6.28-5.97-9.55-7.85-13.53-16.3-27.84-15.51-44.15,5.79-3.78,8.4-6.04,15.51-8.35Z"/>
    <path class="play-cls-32" d="m642.03,726.76c-36.21,5.25-42.32-3.13-66.83-14.32,16.19,1.32,33.24,8.47,50.72,5.97,5.31-4.18,3.87-8.84,4.18-9.55,1.39-3.2,1.88-6.53,3.58-9.55,3.03,7.63,6.79,19.61,8.35,27.45Z"/>
    <path class="play-cls-31" d="m516.72,693.34c-5.53,6.2-18.27,10.67-25.66,8.35-3.2-1-27.67-27.11,8.95-52.51.27-.19.91.18,1.19,0-.78,16.32,7.67,30.62,15.51,44.15Z"/>
    <g>
      <path class="play-cls-63" d="m743.46,947.53c-16.37,18.57-24.08,47.43-38.19,66.83-.15.2-1.34.76-3.58,3.58-.21-9.94-3.7-4.53-5.37-5.97-7.88-6.8,40.46-70.67,38.78-74.58-7.93-18.52-43.39,52.03-47.73,57.88-1.3-2.32-2.22-4.88-3.58-7.16-1.57-2.63-3.15-5.9-4.77-8.35,13.02-12.74,17.01-47.08,36.99-54.89,19.5-7.62,26.79,5.13,27.45,22.67Z"/>
      <path class="play-cls-13" d="m735.11,1009.58c-4.16,14-15.58,36.63-25.06,47.73l-4.77-42.96c14.11-19.4,21.82-48.26,38.19-66.83.63,16.72-3.54,45.86-8.35,62.05Z"/>
      <path class="play-cls-63" d="m716.02,924.85c-19.99,7.81-23.97,42.16-36.99,54.89-1.49-2.26-9.58-8.93-9.55-11.34l20.29-32.82c5.72-4.03,19.64-14.13,26.25-10.74Z"/>
      <path class="play-cls-68" d="m679.02,979.75c1.62,2.46,3.21,5.72,4.77,8.35-1.73.37-5.94-3.6-7.16-4.77-5.87-5.66-9.93-13.1-16.71-17.9.29-.83.76-1.65,1.19-2.39,1.89-3.2,21.96-22.74,28.64-27.45l-20.29,32.82c-.03,2.41,8.05,9.07,9.55,11.34Z"/>
      <path class="play-cls-18" d="m710.05,1057.32c-12.33,14.44-19.81,16.39-35.8,23.87-9.35,4.37-19.2,7.63-28.04,13.13-7.34.22-14.74-.3-22.08,0-4.64-9.73-12.93-8.5-5.97-17.9,3.68,1.65,7.82,2.7,11.34,4.77l1.79-1.79c-3.75-4.57-3.35-8.52-3.58-8.95.08-2.06,1.36-4.75,2.98-5.97,5.73-4.3,40.7-8.38,71-46.54,2.24-2.82,3.43-3.38,3.58-3.58l4.77,42.96Z"/>
      <path class="play-cls-63" d="m701.7,1017.94c-30.31,38.16-65.28,42.24-71,46.54-1.62,1.22-2.91,3.91-2.98,5.97-4.98-9.42-13.88-8.35-21.48-16.71-2.47-2.71-10.25-18.09-11.93-22.67-.47-1.27-.81-2.26-1.19-3.58,23.96,19.73,74.12-5.08,94.28-32.22,4.34-5.85,39.81-76.4,47.73-57.88,1.67,3.91-46.66,67.79-38.78,74.58,1.67,1.44,5.16-3.97,5.37,5.97Z"/>
      <path class="play-cls-35" d="m627.71,1070.44c.23.43-.17,4.38,3.58,8.95l-1.79,1.79c-3.52-2.08-7.65-3.12-11.34-4.77-1.41-.63-11.58-6.56-11.93-7.16-.6-1-2.39-9.05-2.39-9.55,0-.32,1.48-5.66,2.39-5.97,7.6,8.36,16.5,7.29,21.48,16.71Z"/>
      <g>
        <path class="play-cls-9" d="m683.79,988.1c1.36,2.28,2.28,4.84,3.58,7.16-20.16,27.14-70.31,51.95-94.28,32.22-1.11-3.78-3.2-8.06-3.58-11.93,25.27,4.09,28.85,3.84,51.31-4.77,14.12-5.41,42.1-20.56,35.8-27.45,1.22,1.17,5.43,5.14,7.16,4.77Z"/>
        <path class="play-cls-36" d="m630.09,995.26c5.24-.3,8.37-1.76,13.13-3.58,2.33-.89,2.66-1.08,4.77-2.39,1.09-.67,2.68-1.55,3.58-2.39-3.14,8.57-20.4,15.46-10.74,23.87-22.46,8.61-26.04,8.86-51.31,4.77-.94-9.72-.42-19.75,3.58-28.64l2.39-1.19c8.8,9.31,31.1,16.03,34.61,9.55Z"/>
        <path class="play-cls-36" d="m676.63,983.33c6.3,6.89-21.68,22.04-35.8,27.45-9.66-8.41,7.61-15.3,10.74-23.87,11.37-10.62,4.28-9.94,8.35-21.48,6.78,4.8,10.84,12.24,16.71,17.9Z"/>
        <path class="play-cls-42" d="m619.35,995.26c1.35.36,8.11.15,10.74,0-3.51,6.49-25.81-.24-34.61-9.55l9.55-9.55c2.87,4.89,9.6,17.82,14.32,19.09Z"/>
      </g>
    </g>
    <path class="play-cls-57" d="m600.26,551.33c4.21,1.08,10.33,5.21,13.13,8.35.69.78,3.38,1.19,3.58,1.79,1.5,4.5,1.08,21.45-16.71,28.04-.13.05.44,2.11-.6,2.39-20.07.96-40.18-3.43-57.88-13.13,17.94-10.57,42.79-11.2,56.09-28.64,1.01.01,1.23.9,2.39,1.19Z"/>
    <path class="play-cls-32" d="m597.87,550.14c-13.3,17.44-38.15,18.07-56.09,28.64-2.49-1.36-4.7-3.35-7.16-4.77l10.74-4.18c-39.21-27.13-1.98-2.42,52.51-19.69Z"/>
    <path class="play-cls-34" d="m683.79,675.44c-.58.08-9.02,3.99-10.74,4.77-6.28-9.36-7.5-20.66-10.74-31.03q10.74,13.13,21.48,26.25Z"/>
    <g>
      <g>
        <path class="play-cls-37" d="m445.12,786.42c6.9,2.12,14.47,4.35,21.48,5.97,6.18,1.42,13.89,2.47,20.29,3.58-9,20.47-21.68,38.85-35.8,56.09-1.12-.57-14.96-4.59-23.27-9.55-3.48-2.08-17.48-12.81-19.69-15.51-2.68-3.27-5.27-6.3-7.16-10.14,1.72-14.85,5.55-29.71,7.16-44.75,12.54,4.77,24.07,10.35,36.99,14.32Z"/>
        <path class="play-cls-55" d="m646.8,786.42c2.67,6.17,12.88,35.93,10.74,39.98-2.81,3.01-6.81,3.96-7.16,4.18-1.48.9-28.87,14.6-31.03,15.51-4.03,1.7-8.93,3.21-13.13,4.77,9.58-7.79-36.44,8.06-56.68,8.35-8.29-18.08-4.59-38.04-5.37-57.28,37.61.72,66.9-3.82,102.63-15.51Z"/>
        <path class="play-cls-41" d="m646.8,786.42c-35.73,11.7-65.02,16.23-102.63,15.51-22.92-.44-34.99-2.12-57.28-5.97-6.4-1.11-14.11-2.16-20.29-3.58l2.39-2.39c49.93,12.27,116.28,17.39,164.68-2.39,3.53-1.44,7.59-2.56,10.74-4.77,2.87,1.95,1.84,2.33,2.39,3.58Z"/>
        <path class="play-cls-55" d="m544.17,801.94c.78,19.24-2.92,39.2,5.37,57.28,20.24-.3,66.26-16.15,56.68-8.35-8.3,3.09-31.22,10.74-38.19,11.93-20.41,3.49-41.49,2.07-62.05,2.39-16.54-2.12-32.74-5.62-48.93-9.55-1.99-.94-4.08-2.62-5.97-3.58,14.12-17.24,26.81-35.62,35.8-56.09,22.29,3.85,34.36,5.53,57.28,5.97Z"/>
        <path class="play-cls-50" d="m468.99,790l-2.39,2.39c-7.01-1.61-14.58-3.85-21.48-5.97l2.39-2.39c7.94,2.75,13.52,4.01,21.48,5.97Z"/>
      </g>
      <g>
        <path class="play-cls-8" d="m451.09,852.06c1.88.96,3.97,2.64,5.97,3.58,7.29,3.43,14.69,8.72,21.48,13.13-7.98-4.54,3.89,20.39-3.58,41.17-2.85,7.93-14.64,17.61-22.67,19.69-12.11-2.81-49.89-38.18-53.7-46.54-.29-.64,3.03-3.69-3.58-12.53v-8.35q6.56-17.6,13.13-35.2c2.21,2.7,16.21,13.44,19.69,15.51,8.31,4.95,22.15,8.97,23.27,9.55Z"/>
        <path class="play-cls-8" d="m392.62,886.67c.18,7.46,5.22,16.6,9.55,22.67-9.54,6.75-4,9.2,1.19,14.32,30.42,30.02,85.15,15.94,116.95-20.29.43.87,2.22,3.44,2.39,3.58-21.6,34.6-69.43,71.68-109.79,42.96-16.41-11.68-26.45-41.41-26.25-60.86,1.25-.4,4.57-1.77,5.97-2.39Z"/>
        <path class="play-cls-19" d="m452.28,929.63c-14.43,3.73-30.56-1.44-41.77-10.74-1.4-1.16-6.97-7.61-8.35-9.55-4.33-6.07-9.37-15.22-9.55-22.67,2.05-.91,3.65-3.01,5.97-3.58,3.81,8.36,41.59,43.73,53.7,46.54Z"/>
        <path class="play-cls-52" d="m478.54,868.77c20.5,4.32,41.22,3.72,62.05,3.58-1.74,4.38-16.6,26.83-20.29,31.03-31.8,36.22-86.53,50.3-116.95,20.29.02-4.69,3.16-4.59,7.16-4.77,11.21,9.3,27.34,14.47,41.77,10.74,8.03-2.08,19.82-11.76,22.67-19.69,7.47-20.78-4.4-45.71,3.58-41.17Z"/>
        <path class="play-cls-17" d="m505.98,865.19c37.27,4.78,38.48-2.61,34.61,7.16-20.84.14-41.55.74-62.05-3.58-6.8-4.41-14.19-9.69-21.48-13.13,16.19,3.92,32.39,7.42,48.93,9.55Z"/>
        <path class="play-cls-10" d="m410.52,918.89c-4,.18-7.14.08-7.16,4.77-5.19-5.12-10.73-7.57-1.19-14.32,1.38,1.94,6.95,8.38,8.35,9.55Z"/>
        <g>
          <path class="play-cls-52" d="m605.03,877.12c-.51,7.49.37,15.16,0,22.67-9.09,6.11-16.9,13.03-25.06,20.29-3.47,3.08-6.5,8.12-8.35,6.56-4.23-25.36,18.32-42.45,34.61-59.07,1.76,2.23-.86,4.62-1.19,9.55Z"/>
          <path class="play-cls-47" d="m605.03,877.12c.34-4.93,2.95-7.31,1.19-9.55,6.59-6.73,11.48-14.2,19.09-20.29,4.86-3.89,11.35-7.43,16.71-10.74q1.19,11.64,2.39,23.27-19.69,8.65-39.38,17.3Z"/>
          <path class="play-cls-51" d="m656.35,880.7c-5.47.06-10.42,1.84-15.51,3.58-5.46,1.86-11.65,4.42-16.71,7.16-9.43,5.11-12.96,10.24-20.29,15.51-2.23,1.6-4.83,3.1-7.16,4.77-3.58,2.58-11.07,8.58-14.32,9.55-1.92.57-2.43,2.57-2.39-1.19,8.16-7.26,15.97-14.18,25.06-20.29,15.8-10.62,32.3-21.43,51.91-21.48,3.83,3.15-.64,2.14-.6,2.39Z"/>
          <path class="play-cls-6" d="m650.38,830.58c-2.05,2.77-5.52,4.22-8.35,5.97-5.36,3.31-11.85,6.86-16.71,10.74l-5.97-1.19c2.16-.91,29.54-14.62,31.03-15.51Z"/>
          <path class="play-cls-16" d="m568.04,862.8c-10.13,13.42-24.06,23.41-36.99,34.01,10.2,8.71,33.14,17.92,31.03,24.46-2.82-1.39-29.84-6.61-39.38-14.32-.17-.14-1.95-2.71-2.39-3.58,3.68-4.2,18.55-26.65,20.29-31.03,3.87-9.77,2.67-2.38-34.61-7.16,20.57-.32,41.64,1.11,62.05-2.39Z"/>
          <path class="play-cls-8" d="m619.35,846.09l5.97,1.19c-7.61,6.09-12.51,13.56-19.09,20.29-16.29,16.63-38.84,33.71-34.61,59.07,1.85,1.56,4.89-3.48,8.35-6.56-.04,3.76.46,1.77,2.39,1.19v1.19c-18.81,16.8-9.44,4.16-20.29-1.19,2.11-6.54-20.82-15.76-31.03-24.46,12.93-10.6,26.87-20.6,36.99-34.01,6.97-1.19,29.89-8.85,38.19-11.93,4.2-1.56,9.1-3.07,13.13-4.77Z"/>
        </g>
      </g>
      <g>
        <path class="play-cls-24" d="m500.02,713.63c8.74-.72,12.3-2.28,20.29-4.77.28-.09.27-3.18,5.37-2.39,3.87,5.2,11.09,13.05,16.11,16.71-19.16,17.44-43.31,31.03-68.62,36.99-23.56,5.55-49.97-.65-10.14,15.51-3.71,15.04-12.1,5.04-20.29,7.16-14.4-5.44-27.42-13.68-40.57-21.48-4-12.05,6.82-18.63,14.32-38.78,6.49-17.46,13.07-40.85,17.9-59.07,5.28,44.87,22.3,53.67,65.63,50.12Z"/>
        <path class="play-cls-25" d="m458.25,577.59c-4.89,18.14,1.6,62.2,13.13,78.76-9.67,11.72-10.57,26.26,0,37.59l-1.79,1.79c-9.29.7-27.71-33.59-30.43-51.31-3.29-21.46,3.62-52.67,16.71-70.41l2.39,3.58Z"/>
        <path class="play-cls-26" d="m471.38,656.35c1.52-1.84,2.27-1.07,2.39-1.19-7.94,31.25,1.93,41.21,26.25,58.47-43.33,3.55-60.35-5.25-65.63-50.12,1.69-6.37,3.5-12.62,4.77-19.09,2.72,17.72,21.14,52.01,30.43,51.31l1.79-1.79c-10.57-11.33-9.67-25.87,0-37.59Z"/>
        <path class="play-cls-24" d="m515.53,537.01c-4.65,9.13-3.16,16.66-3.58,17.9-.27.79-7.12,10.46-8.35,14.32-2.91-1.19-11.6-1.98-15.51-2.39-7.67-.8-15.32-2.42-22.67,1.19-3.86,1.9-6.06,5.46-7.16,9.55l-2.39-3.58c1.05-1.42,2.26-5.22,6.56-8.35,20.2-14.68,30.83,4.51,48.33-31.03,1.62.69,3.14,1.77,4.77,2.39Z"/>
        <path class="play-cls-15" d="m442.74,782.84c1.26.47,3.48.75,4.77,1.19l-2.39,2.39c-12.93-3.97-24.46-9.55-36.99-14.32-.6-3.64-3.78-4.16-5.97-10.74,13.16,7.8,26.17,16.04,40.57,21.48Z"/>
        <path class="play-cls-20" d="m630.09,545.37c-1.13-.13-1.63.98-1.19,1.79,1.24,2.31,22.08,22.82,28.64,34.61,5.1,9.17,2.14,13.95,7.16,12.53-3.34,9.64-7.82,18.85-10.74,28.64-8.98-26.07-9.49-71.28-42.96-77.57-.89-2.35-2.65-4.77-3.58-7.16,1.88-.61,4.07-1.65,5.97-2.39,5.54,3.14,11.13,6.5,16.71,9.55Z"/>
        <path class="play-cls-14" d="m670.67,574.01c-1.93,6.68-3.69,13.73-5.97,20.29-5.02,1.42-2.06-3.36-7.16-12.53-6.56-11.79-27.4-32.29-28.64-34.61-.44-.81.07-1.92,1.19-1.79,8.3,4.54,36.25,22.29,40.57,28.64Z"/>
        <path class="play-cls-65" d="m670.67,587.13c-2.15,9.22-4.48,13.28-8.35,21.48-1.5,3.17-2.24,5.68-2.39,5.97-1.62,3.29-3.73,6.62-5.97,9.55v-1.19c2.92-9.79,7.4-19,10.74-28.64,2.27-6.56,4.04-13.61,5.97-20.29.08.12,1.09.02,2.39,1.79,1.11,6.78-1.97,9.55-2.39,11.34Z"/>
        <path class="play-cls-20" d="m611,749.43c1.76,7.14,30.04,28.98,38.19,29.83-.11.89-3.7,2.82-4.77,3.58-3.15,2.21-7.21,3.33-10.74,4.77-.23-5.45-10.61-.1-11.34,0-47.04,6.46-114.87,6.11-159.31-11.93-39.82-16.17-13.42-9.96,10.14-15.51,25.31-5.96,49.46-19.56,68.62-36.99,16.77,12.2,48.84,24.34,69.21,26.25Z"/>
        <path class="play-cls-14" d="m615.77,749.43c-.83,4.95,10.7,1,14.92,2.39,3,.99,14.96,23.17,18.5,27.45-8.14-.85-36.43-22.69-38.19-29.83,1.57.15,3.19-.08,4.77,0Z"/>
        <path class="play-cls-25" d="m633.67,787.62c-48.41,19.78-114.75,14.65-164.68,2.39-7.96-1.95-13.54-3.22-21.48-5.97-1.29-.45-3.52-.72-4.77-1.19,8.18-2.12,16.58,7.88,20.29-7.16,44.44,18.04,112.28,18.39,159.31,11.93.73-.1,11.11-5.45,11.34,0Z"/>
        <path class="play-cls-20" d="m479.73,644.41c.36,1.48-.82,3.6,1.19,3.58-.52.36-5.28,5.22-7.16,7.16-.12.12-.87-.65-2.39,1.19-11.53-16.57-18.02-60.62-13.13-78.76,1.1-4.09,3.3-7.65,7.16-9.55-6.32,32.79,8.17,50.93,14.32,76.38Z"/>
        <path class="play-cls-20" d="m653.96,622.93v1.19c.66,9.03,6.05,17.69,8.35,25.06,3.24,10.36,4.46,21.67,10.74,31.03-.54.25-2.77,3.89-9.55,7.16-4.41,2.13-15.83,8.03-16.71,8.35-2.71,1.02-9.7,1.98-13.13,2.39-5.81-8.23-20.13-11.33-23.27-13.13-19.18-10.95-50.83-27.73-59.07-47.73-.33-.81.34-2.82,0-3.58-.34-.76.34-2.84,0-3.58-7.59-16.73-30.61-53.89-47.73-60.86,1.23-3.86,8.09-13.53,8.35-14.32,6.8,5.45,12.47,12.28,19.09,17.9,20.21,17.17,48.86,29.9,75.18,17.9,15.94-7.27,18.04-27.17,7.16-39.38-.07-.31-1.95-4.83-2.39-5.97,33.47,6.29,33.98,51.49,42.96,77.57Z"/>
        <path class="play-cls-20" d="m488.08,566.85c-1.04,9,8.02,39.93,11.93,45.94,7.12,10.94,19.88,7.63,27.45,13.72-18.86-1-34.74,4.23-47.73,17.9-6.15-25.45-20.64-43.59-14.32-76.38,7.35-3.62,15.01-1.99,22.67-1.19Z"/>
        <path class="play-cls-14" d="m503.6,569.23c17.12,6.97,40.14,44.13,47.73,60.86-4.85,2.01-11.21-2.91-23.87-3.58-7.57-6.09-20.33-2.78-27.45-13.72-3.91-6.02-12.97-36.95-11.93-45.94,3.91.41,12.6,1.2,15.51,2.39Z"/>
        <path class="play-cls-5" d="m527.46,626.51c12.65.67,19.02,5.59,23.87,3.58.34.74-.34,2.82,0,3.58-20.42-5.88-31.51-2.58-50.12,4.77-5.23,2.07-16.09,6.63-20.29,9.55-2.01.02-.84-2.1-1.19-3.58,12.99-13.67,28.87-18.9,47.73-17.9Z"/>
        <path class="play-cls-39" d="m551.33,633.67c.34.76-.33,2.77,0,3.58-12.48-1.99-22.64-.31-34.61,3.58-7.11,2.31-9.72,4.57-15.51,8.35-.28.18-.93-.19-1.19,0q.6-5.37,1.19-10.74c18.62-7.36,29.7-10.66,50.12-4.77Z"/>
        <path class="play-cls-53" d="m534.62,574.01c2.46,1.42,4.67,3.41,7.16,4.77,17.7,9.7,37.8,14.09,57.88,13.13,1.03-.28.47-2.34.6-2.39l5.97,1.19c-26.32,12-54.97-.73-75.18-17.9,1.48-.29,2.43.53,3.58,1.19Z"/>
        <path class="play-cls-33" d="m606.23,590.71l-5.97-1.19c17.79-6.59,18.21-23.55,16.71-28.04-.2-.6-2.89-1.01-3.58-1.79-.33-2.58.48-6.09,0-8.35,10.88,12.21,8.78,32.11-7.16,39.38Z"/>
      </g>
    </g>
    <g>
      <path class="play-cls-59" d="m630.09,354.43c12.29-1.88,24.86-7.57,31.03-19.09,3.65,1.28,10.14,21.71,11.34,21.48.52-.1,1.8-7.35,6.56-8.35.35,5.98-1.37,14.11-2.39,20.29-.15.93-1.73,4.59-2.39,8.35-2.33,13.4-11.3,41.62-7.16,53.7.11.35-.16.89,0,1.19-3-1.03-11.97,4.05-12.53,4.77-9.73,12.6,15.09-5.71,25.66,11.34,9.56,15.41-2.5,38.84-11.93,51.91-.51.54-2.99,1.81-3.58,2.39,1.28-30.56-22.62,15.49-63.25,27.45-42.93,12.63-110.58-1.21-116.35-52.51-7.72.69-15.28-2.36-20.29-8.35-1.7.35-5.79,14.74-8.95,17.9-8.38,8.4-23.7,6.63-33.41,2.39,15.61,1.29,8.2.63,11.93-4.77,17.1-2.27,24.72-16.29,14.32-31.03,5.9-6.17-.09-6.13-1.19-10.74,3.26.66,3.81-8.67,7.16-13.72,8.15-12.29,18.58-9.95,19.09-29.24.21-7.86-1.13-9.07-1.19-9.55,16.67-7.46,30.67-15.81,35.2-34.61,21.39,8.18,48.24-7.1,58.47-26.25,5.73-1.54,10.58,42.36,65.63,27.45l-1.79-2.39Z"/>
      <g>
        <path class="play-cls-63" d="m667.09,432c1.82,3.58,41.8,25.26,1.19,68.02,9.43-13.07,21.49-36.5,11.93-51.91-10.57-17.05-35.39,1.27-25.66-11.34.56-.73,9.53-5.8,12.53-4.77Z"/>
        <path class="play-cls-21" d="m531.64,366.36c6.62-.62,17.84,3.03,19.69,10.14,5.4,20.8-5.67-1.45-22.08,1.79-14.92,2.95-8.77,28.32-17.9,23.87-7.95-3.88,1.54-34.04,20.29-35.8Z"/>
        <path class="play-cls-31" d="m553.72,423.64c-19.19-34.28-46.46,3.18-39.38,30.43l-2.39.6c-15.07-55.32,47.67-75.41,49.52-11.93-2.62-6.27-4.42-13.13-7.76-19.09Z"/>
        <path class="play-cls-11" d="m635.46,360.39c16.62-5.62,25.78,16.86,21.48,29.83-5.95-14.89-14.31-24.98-28.64-11.93l-1.79-1.79c1.05-3.55,5.87-15.07,8.95-16.11Z"/>
        <path class="play-cls-43" d="m650.38,421.26c-15.03-32.77-34.88-20.35-34.61,9.55-10.96-24.98,17.32-50.75,33.41-25.66,3.09,4.82,12.18,40.06,1.19,16.11Z"/>
        <g>
          <path class="play-cls-60" d="m553.72,423.64l-2.39,3.58c-1.42-2.17-9.3-7.01-11.93-7.16-15.95-.93-21.91,24.96-8.35,32.22-25.09,5.33-40.57,15.27-19.09,2.39l2.39-.6c-7.08-27.25,20.19-64.71,39.38-30.43Z"/>
          <path class="play-cls-18" d="m551.33,427.22c1.5,2.28,2,6.84,2.39,9.55-12.88-11.07-16.19,11.67-3.58,11.93-7.4,5.62-5.9,2.25-13.13,3.58-11.87-3.92-13.27-22.55-2.98-28.64,2.31-1.37,8.08,2.94,5.37-3.58,2.63.15,10.51,4.99,11.93,7.16Z"/>
          <path class="play-cls-60" d="m553.72,436.77c2.13,14.94-1.01,9.98-3.58,11.93-12.61-.26-9.3-23,3.58-11.93Z"/>
          <path class="play-cls-23" d="m539.4,420.06c2.71,6.52-3.06,2.21-5.37,3.58-10.28,6.09-8.88,24.72,2.98,28.64-1.8.33-4.23-.37-5.97,0-13.56-7.26-7.59-33.15,8.35-32.22Z"/>
        </g>
        <path class="play-cls-31" d="m605.63,459.44c11.74-.36,6.39,7.06,1.19,8.35-16.83,4.19-19.87-7.78-1.19-8.35Z"/>
        <g>
          <path class="play-cls-49" d="m576.39,511.95l.6-2.39c6.12,6.37,6.48.48,13.72-1.19,18.65,4.06,29.51-11.97,29.83-29.24-13.5,10.64-29.67,14.64-46.54,8.95.18-.61-.09-1.62,0-2.39,24.45,2.46,31.65-.46,51.31-14.92,2.7,29.36-18.67,58.04-48.93,41.17Z"/>
          <path class="play-cls-11" d="m574.01,485.7c-.09.77.18,1.78,0,2.39-2.55,8.83,9.25,18.66,16.71,20.29-7.24,1.68-7.6,7.57-13.72,1.19l-.6,2.39c-3.73-2.08-9.79-6.7-11.93-10.14-16.78-26.98,2.98-16.77,9.55-16.11Z"/>
          <path class="play-cls-60" d="m590.71,508.37c-7.46-1.62-19.26-11.45-16.71-20.29,16.87,5.69,33.04,1.69,46.54-8.95-.32,17.26-11.18,33.3-29.83,29.24Z"/>
        </g>
        <g>
          <path class="play-cls-60" d="m650.38,421.26l-1.19,16.71q-6.56.3-13.13.6c30.39-31.81-34.14-40.71-11.93.6-4.13-1.93-6.59-4.34-8.35-8.35-.28-29.89,19.58-42.31,34.61-9.55Z"/>
          <g>
            <path class="play-cls-7" d="m649.19,437.96l-1.79,3.58c-9.3-.16-14.52,1.7-23.27-2.39-22.21-41.31,42.33-32.41,11.93-.6q6.56-.3,13.13-.6Z"/>
            <path class="play-cls-38" d="m636.66,428.42c2.74-1.9,6.15,3.99,2.39,4.77-2.38.5-4.19-3.52-2.39-4.77Z"/>
            <path class="play-cls-58" d="m640.24,418.87c.43,0,2.62,1.72.6,2.98-2.27,1.42-2.66-2.98-.6-2.98Z"/>
          </g>
        </g>
      </g>
    </g>
    <g>
      <path class="play-cls-57" d="m714.82,683.79c3.32,1.46,7.17,2.79,10.74,3.58,1.06,1.42,4.59,5.41,4.77,6.56.5,3.07-.69,5.02-1.19,7.76-20.02-13.14-4.37-1.24-2.39,5.97,2.84,10.36-4.84,15.25-7.16,19.09-7.25-2.77-12.21-11.6-16.11-17.9,4.85,19.26,1.42,39.24-12.53,15.51-1.69-2.88-9.67-21.52-8.35-23.27,27.14,8.59-13.36-14.83,8.95-18.5,8.43-1.38,17.29,3.9,23.27,1.19Z"/>
      <path class="play-cls-59" d="m686.18,675.44c2.35,0,2.41.92,3.58,1.19.35.08-.67,1.86,7.16,1.19,10.63,1.85,9.23,2.14,17.9,5.97-5.98,2.71-14.84-2.58-23.27-1.19-22.31,3.66,18.19,27.09-8.95,18.5-1.32,1.75,6.66,20.39,8.35,23.27-4.9-.32-.44,6.88,0,9.55.84,5.06.42,10.53,2.39,15.51-9.67,3.86-6.92,7.01-13.13,0-6.79-7.67-9.87-20.34-14.32-29.24l-2.39-32.82c6.77-3.27,9-6.91,9.55-7.16,1.72-.78,10.16-4.69,10.74-4.77.12-.02,1.83,0,2.39,0Z"/>
      <path class="play-cls-32" d="m719.6,726.76c-.18.29.18.9,0,1.19-3.87,6.29-9.59,11.44-13.13,17.9-.45-.24-1.99.24-2.39,0-5.1-3.05-7.9-9.06-13.13-11.93-.44-2.66-4.9-9.87,0-9.55,13.95,23.73,17.38,3.75,12.53-15.51,3.9,6.3,8.86,15.13,16.11,17.9Z"/>
      <path class="play-cls-48" d="m729.14,701.7c-.11.6-.68,1.53-1.19,3.58-.24.94.59,2.45-1.19,2.39-1.98-7.21-17.63-19.1,2.39-5.97Z"/>
      <path class="play-cls-32" d="m663.51,687.37l2.39,32.82c4.45,8.9,7.53,21.57,14.32,29.24-5.18,2.6-8.04-.81-11.93-4.77-8.52-8.67-17.69-36.56-21.48-48.93.87-.33,12.3-6.23,16.71-8.35Z"/>
      <path class="play-cls-32" d="m680.21,749.43c6.21,7.01,3.45,3.86,13.13,0,.08.2,1.41.55,2.39,3.58-5.38,3.36-14.58,8.83-20.29,10.74-1.05.35-1.37.99-2.39,1.19-2.85-9.75-9.06-20.15-4.77-20.29,3.89,3.96,6.75,7.37,11.93,4.77Z"/>
      <path class="play-cls-48" d="m704.08,745.85c-1.8,3.38-5.27,5.23-8.35,7.16-.97-3.03-2.31-3.38-2.39-3.58-1.96-4.98-1.54-10.45-2.39-15.51,5.22,2.88,8.03,8.88,13.13,11.93Z"/>
    </g>
    <path class="play-cls-59" d="m630.09,708.86c-.3.7,1.13,5.37-4.18,9.55-17.47,2.5-34.52-4.64-50.72-5.97-23.48-10.73-50.19-22.42-59.67-49.52-4.89-13.97-.34-13.93,0-14.92,23.83,38.12,70.73,58.43,114.56,60.86Z"/>
    <g>
      <path class="play-cls-57" d="m656.35,880.7c4.9,28.68.41,73.45,2.39,81.75.21.89,1.58.61,2.39.6-.44.74-.9,1.55-1.19,2.39-4.07,11.54,3.01,10.86-8.35,21.48-.9.84-2.49,1.71-3.58,2.39-5.1-29.68-16.71-79.59-7.16-105.02,5.1-1.74,10.04-3.52,15.51-3.58Z"/>
      <path class="play-cls-59" d="m640.83,884.28c-9.55,25.43,2.06,75.34,7.16,105.02-2.11,1.31-2.44,1.5-4.77,2.39-4.55-2.45-6.21-6.4-8.35-10.74-5.61-11.39-23.26-68.96-20.29-78.17,1.21-3.75,11.57-5.36,9.55-11.34,5.06-2.74,11.25-5.3,16.71-7.16Z"/>
      <path class="play-cls-31" d="m608.61,941.56c.61,2.39,9.25,23.72,10.74,26.25-4.83,9.89,18.34,25.43,0,27.45-4.72-1.27-11.45-14.2-14.32-19.09-9.87-16.83-15.56-35.69-22.67-53.7v-1.19c3.25-.97,10.74-6.97,14.32-9.55,2.98,9.99,2.43,24.89,11.93,29.83Z"/>
      <path class="play-cls-32" d="m634.87,980.94c-10.79-5.46-9.63-3.13-15.51-13.13-1.49-2.53-10.13-23.86-10.74-26.25-2.88-11.26-2.79-23.22-4.77-34.61,7.33-5.27,10.86-10.41,20.29-15.51,2.03,5.97-8.33,7.58-9.55,11.34-2.98,9.2,14.68,66.78,20.29,78.17Z"/>
      <path class="play-cls-31" d="m603.84,906.95c1.99,11.39,1.89,23.35,4.77,34.61-9.51-4.95-8.95-19.84-11.93-29.83,2.33-1.68,4.93-3.17,7.16-4.77Z"/>
      <path class="play-cls-31" d="m634.87,980.94c2.14,4.34,3.81,8.29,8.35,10.74-4.75,1.82-7.88,3.28-13.13,3.58-2.63.15-9.39.36-10.74,0,18.34-2.02-4.83-17.55,0-27.45,5.88,10,4.72,7.67,15.51,13.13Z"/>
    </g>
  </g>
  <g>
    <path class="play-cls-54" d="m1021.52,659.93c21.66,34.5,24.16,76.01,20.29,115.76-1.63,2.89-2.82,9.88-5.97,17.9,15.63-122.55-47.23-128.95-46.54-136.64.18-1.95,7.45-.99,7.16-11.34,8.31.17,17.51,15.63,25.06,14.32Z"/>
    <path class="play-cls-64" d="m984.52,625.32c16.83,7.79,27.34,19.23,36.99,34.61-7.55,1.31-16.75-14.15-25.06-14.32-.47-16.55-30.83-26.04-44.15-29.83,9.75,1.4,23.29,5.41,32.22,9.55Z"/>
    <path class="play-cls-55" d="m875.93,892.63c-30.74-14.95-34.53-35.79-51.31-14.32-10.38-10.33-24.22-20.52-36.99-27.45-6.13-3.32-7.97-5.33-15.51-7.16-19.37-4.7-18.18,5.31-23.87,13.13-.87,1.19-1.94,2.5-2.98,3.58-2.17.48-2.8-2.32-2.98-2.39-.14-1.1.26-2.47,0-2.98-1.45-2.9-16.06-10.85-44.15-47.14,10.77-2.45,3.47-2.15,1.19-11.93l2.39-1.19c2.27,14.21,49.89,26.84,57.28,21.48,7.51,3.63,16.02,6.75,23.87,9.55,8.82,3.14,41.95,17.59,44.75,17.9,14.31,1.59,14.21-6.29,14.92-16.71.93-13.65,1.32-28.23-4.77-40.57,24.65,11.63,38.94,71.16,40.57,96.07.26,3.93.98,8.03-2.39,10.14Z"/>
    <path class="play-cls-30" d="m1027.48,813.87q-1.79,3.28-3.58,6.56c-4.2,6.14-11.73,9.9-16.71,14.92-5.7-10.5-6.26-16.1-17.9-21.48-11.04-5.1-13.28-4.33-25.06,1.19-1.56.73-3.34,1.46-4.77,2.39l-2.39-1.19c11.88-11.51,28.06-33.43,47.14-23.87,5.87,2.95,14.57,19.84,23.27,21.48Z"/>
    <path class="play-cls-55" d="m669.47,764.94c1.64,2.01,6.68,14.6,28.64,42.96,28.09,36.28,42.7,44.24,44.15,47.14.26.51-.14,1.89,0,2.98-20.8-7.18-79.14-65.77-85.92-86.52-1.93-5.9-1.21-12.75-2.39-18.5,4.14,5,12.13,7.8,15.51,11.93Z"/>
    <path class="play-cls-30" d="m875.93,892.63c.15.07,2.3,1.83,2.39,2.39-28.63,9.47-28.85.09-40.57-2.39-14.86-10.23-12.41-13.6-13.13-14.32,16.79-21.47,20.58-.63,51.31,14.32Z"/>
    <path class="play-cls-55" d="m832.96,785.23c-29.31-11.62-100.74-25.65-126.5-39.38,3.54-6.46,9.25-11.61,13.13-17.9,39,16.55,80.96,23.32,122.32,31.03,3.2,3.87-6.9,21.69-8.95,26.25Z"/>
    <g>
      <path class="play-cls-3" d="m923.66,643.22c11.28,7.18,16.03,14.21,17.9,27.45-11.69,10.39-45.22,39.54-55.49,46.54-30.33,20.67-37.68,17.76-77.57,10.74-22.45-3.95-58.68-14.52-80.55-22.67.52-2.05,1.08-2.98,1.19-3.58.51-2.74,1.69-4.69,1.19-7.76-.19-1.16-3.71-5.15-4.77-6.56-2.54-3.38-5.37-4.34-9.55-9.55,6.37-23.37,70.92-64.68,91.29-66.83,16.6-1.75,101.52,22.78,116.35,32.22Z"/>
      <g>
        <path class="play-cls-61" d="m918.89,621.74c-15.72,18.27,5.48,10.29,4.77,21.48-14.83-9.44-99.75-33.98-116.35-32.22-20.37,2.15-84.92,43.45-91.29,66.83-2.13-2.66-8.03-4.72-5.97-13.72,1.76-7.65,75.85-59.1,92.49-62.65,21.58-4.6,92.08,13.13,116.35,20.29Z"/>
        <path class="play-cls-62" d="m941.56,670.67c-1.87-13.24-6.62-20.27-17.9-27.45.71-11.19-20.49-3.21-4.77-21.48,67.11,19.78,50.93,23.8,22.67,48.93Z"/>
      </g>
    </g>
    <g>
      <path class="play-cls-4" d="m799.55,589.52c6.51,3.24,14.95,1.44,21.48,2.39,17.92,2.61,30.81,5.57,50.12,7.16.7.06-.86,2.75,13.13,2.39-.06.75,1.4,2.3,1.79,2.39,14.91,3.33,40.69,5.47,56.68,9.55,2.48,3.54,6.32,1.92,9.55,2.39,13.32,3.8,43.69,13.28,44.15,29.83.29,10.35-6.99,9.39-7.16,11.34-.69,7.69,62.18,14.09,46.54,136.64-2.67,6.8-4.33,14.08-8.35,20.29-8.7-1.64-17.4-18.53-23.27-21.48-19.08-9.57-35.25,12.36-47.14,23.87-6.17,5.98-11.02,11.55-16.71,17.9-15.47,17.27-28.25,36.66-45.35,52.51-4.95,1.51-8.19,5.47-13.13,7.16-1.17.4-2.4.8-3.58,1.19-.08-.56-2.23-2.31-2.39-2.39,3.37-2.11,2.64-6.21,2.39-10.14-1.64-24.91-15.93-84.44-40.57-96.07-.88-.42-3.72-.78-4.77-1.19,2.05-4.57,12.15-22.38,8.95-26.25-41.36-7.7-83.32-14.47-122.32-31.03.18-.29-.18-.9,0-1.19,2.32-3.84,10-8.74,7.16-19.09,1.79.06.96-1.45,1.19-2.39,21.88,8.16,58.1,18.72,80.55,22.67,39.89,7.02,47.24,9.93,77.57-10.74,10.27-7,43.81-36.15,55.49-46.54,28.26-25.12,44.44-29.15-22.67-48.93-24.27-7.15-94.77-24.89-116.35-20.29-16.64,3.55-90.73,55-92.49,62.65-2.07,9,3.83,11.06,5.97,13.72,4.18,5.21,7.01,6.17,9.55,9.55-3.57-.79-7.42-2.12-10.74-3.58-8.67-3.83-7.27-4.11-17.9-5.97-.36-.06.7-1.87-7.16-1.19-1.17-.27-1.23-1.2-3.58-1.19-7.29-12.05,6.54-16.04,14.32-21.48,3.98-2.78,7.96-5.58,11.93-8.35,5.18-3.62,10.31-7.06,15.51-10.74,3.25-2.3,6.4-5,9.55-7.16,20.35-13.98,40.63-26.21,62.05-38.19Z"/>
      <g>
        <g>
          <path class="play-cls-64" d="m952.3,615.77c-3.23-.46-7.07,1.16-9.55-2.39,3.27.83,6.23,1.44,9.55,2.39Z"/>
          <path class="play-cls-54" d="m983.92,657.54c2.56.21,6.35,9.3,2.39,14.32-1.55,1.96-22.39,12.37-41.77,27.45-9.81,7.63-69.11,59.13-73.99,59.67-4.53.5-10.77-8.09-5.97-11.93,16.13-7.77,111.9-90.12,119.34-89.5Z"/>
          <g>
            <path class="play-cls-3" d="m985.71,743.46c-7.24-4.2-6.2-11.83-16.11-8.35-6.35,2.23-41.09,36.2-42.36,38.78-9.2,18.68,8.93,19.61,22.08,14.92.66-.24,1.65-2.61,11.34-8.35,6.18-3.67,10.33-8.81,9.55-2.98-.55,4.13-54.63,44.32-70.41,39.98,19.43-2.73-21.95-12.16-3.58-38.78,2.48-3.6,62.72-47.16,70.41-51.91,2.08-1.28,8.57-6.36,10.14-5.97,4.53,5.73,8.62,15.47,8.95,22.67Z"/>
            <path class="play-cls-28" d="m985.71,743.46c.38,8.28-.72,9.39-3.58,16.71-7.32,6.45-16.2,11.71-21.48,20.29-9.69,5.74-10.67,8.12-11.34,8.35-13.14,4.7-31.28,3.76-22.08-14.92,1.27-2.59,36.01-36.55,42.36-38.78,9.91-3.48,8.87,4.15,16.11,8.35Z"/>
            <path class="play-cls-55" d="m966.62,726.76c-7.69,4.75-67.92,48.31-70.41,51.91-18.37,26.63,23.01,36.05,3.58,38.78-13-3.58-16.07-22.67-14.32-34.01,2.89-18.71,54.61-56.53,71.6-67.42,2.56,1.98,2.06,4.36,5.37,7.16.86.73,5.13-4.66,4.18,3.58Z"/>
            <path class="play-cls-61" d="m982.13,760.17c2.86-7.32,3.96-8.42,3.58-16.71-.33-7.21-4.42-16.94-8.95-22.67-1.58-.39-8.07,4.68-10.14,5.97.95-8.24-3.32-2.85-4.18-3.58-3.31-2.8-2.81-5.18-5.37-7.16,14.87-9.54,21.82-20.32,32.22-6.56,1.67,2.21,8.03,18.76,8.35,21.48,2.53,21.32-5.54,20.45-15.51,29.24Z"/>
          </g>
          <path class="play-cls-22" d="m959.46,817.45c-2.37,1.53-15.27,13.85-17.9,16.71h-1.19c5.69-6.35,10.53-11.92,16.71-17.9l2.39,1.19Z"/>
        </g>
        <path class="play-cls-55" d="m696.92,677.83c-7.83.67-6.81-1.11-7.16-1.19,7.86-.68,6.8,1.13,7.16,1.19Z"/>
      </g>
    </g>
    <path class="play-cls-67" d="m842.51,827c-.71,10.42-.6,18.3-14.92,16.71-2.8-.31-35.93-14.76-44.75-17.9,6.01-34.09,28.54-13.68,59.67,1.19Z"/>
    <g>
      <path class="play-cls-37" d="m706.47,745.85c25.76,13.73,97.19,27.76,126.5,39.38,1.05.42,3.89.78,4.77,1.19,6.1,12.35,5.7,26.93,4.77,40.57-31.13-14.87-53.65-35.28-59.67-1.19-7.85-2.79-16.36-5.92-23.87-9.55-.89-7.04,2.94-15.36-4.18-19.09-32.44-6.69-57.31-28.69-53.1-2.39l-2.39,1.19c-10.88-1.29-15.16-24.88-23.87-32.22,5.71-1.91,14.9-7.38,20.29-10.74,3.08-1.93,6.55-3.78,8.35-7.16.4.24,1.94-.24,2.39,0Z"/>
      <path class="play-cls-67" d="m758.98,816.26c-7.4,5.36-55.01-7.27-57.28-21.48-4.2-26.31,20.67-4.3,53.1,2.39,7.11,3.73,3.29,12.05,4.18,19.09Z"/>
      <path class="play-cls-61" d="m699.31,795.97c2.27,9.78,9.57,9.48-1.19,11.93-21.96-28.36-27-40.95-28.64-42.96,1.16-.14,2.46.23,3.58,0,1.02-.21,1.34-.84,2.39-1.19,8.71,7.35,12.98,30.93,23.87,32.22Z"/>
    </g>
    <g>
      <path class="play-cls-24" d="m824.61,878.31c.72.72-1.73,4.09,13.13,14.32-15.38-3.26-23.85-.03-48.93-15.51,5.27-4.88-5.16-18.33-1.19-26.25,12.77,6.92,26.61,17.12,36.99,27.45Z"/>
      <path class="play-cls-42" d="m772.1,843.71c-2.72,13.16,8.97,21.93,8.35,34.61-14.34-3.47-25.02-7.6-32.22-21.48,5.69-7.81,4.5-17.83,23.87-13.13Z"/>
      <path class="play-cls-29" d="m787.62,850.87c-3.96,7.92,6.46,21.38,1.19,26.25-2.63-.57-4.95,2.02-8.35,1.19.62-12.68-11.08-21.45-8.35-34.61,7.54,1.83,9.39,3.84,15.51,7.16Z"/>
      <g>
        <path class="play-cls-66" d="m967.81,858.03c.06,8.22-14.3,16.28-5.97,22.67-1.57,1.33-3.15,2.37-4.77,3.58-1.68-2.78-7.62,2.17-10.74,3.58q-16.41-6.56-32.82-13.13c-2.6-4.01,1.41-4.6,2.98-7.16,1.2,4.96,34.11-5.93,22.67-8.35,9.78.22,18.94-.4,28.64-1.19Z"/>
        <path class="play-cls-24" d="m957.07,884.28c-41.23,30.61-83.54,19.39-83.54,14.92,0-1.01,8.03-3.07,8.35-5.37,4.93-1.69,8.17-5.65,13.13-7.16l4.18-1.19c17.3,11.53,29.39,10.39,47.14,2.39,3.12-1.41,9.06-6.36,10.74-3.58Z"/>
        <path class="play-cls-28" d="m989.29,813.87c11.64,5.38,12.2,10.98,17.9,21.48-1.19,1.2-5.6,15.14-25.06,21.48.29-.8.51-5.79,1.19-8.35,5.67-4.06,7.18-5.02,8.35-12.53,3.38-21.61-11.72-21.4-2.39-22.08Z"/>
        <path class="play-cls-27" d="m983.33,848.48c-.68,2.57-.9,7.56-1.19,8.35-1.9,5.14-15.58,19.88-20.29,23.87-8.34-6.4,6.02-14.45,5.97-22.67,3.97.21,3.84-4.26,5.97-5.97.4-.32,7.71-2.26,9.55-3.58Z"/>
        <path class="play-cls-25" d="m941.56,834.16c-6.24,6.76-11.28,16.42-16.71,23.87-.37.51-3.78,2.12-8.35,9.55-1.58,2.56-5.59,3.15-2.98,7.16q16.41,6.56,32.82,13.13c-17.75,8-29.84,9.14-47.14-2.39l-4.18,1.19c17.1-15.85,29.88-35.24,45.35-52.51h1.19Z"/>
        <path class="play-cls-28" d="m964.23,829.38c-5.83,1.32-15.26,18.29,5.97,21.48,1.3.2,1.78,1.77,3.58,1.19-2.13,1.71-2,6.17-5.97,5.97-9.7.79-18.86,1.41-28.64,1.19-4.7-.11-10.18.89-14.32-1.19,5.43-7.44,10.47-17.11,16.71-23.87,2.63-2.86,15.53-15.18,17.9-16.71,1.44-.93,3.21-1.65,4.77-2.39v14.32Z"/>
        <path class="play-cls-14" d="m989.29,813.87c-9.33.67,5.77.47,2.39,22.08-1.18,7.51-2.69,8.47-8.35,12.53-1.84,1.32-9.15,3.26-9.55,3.58-1.8.57-2.28-1-3.58-1.19,9-6.65,7.52-24.53-5.97-21.48v-14.32c11.78-5.52,14.02-6.29,25.06-1.19Z"/>
        <path class="play-cls-66" d="m939.17,859.22c11.44,2.43-21.48,13.31-22.67,8.35,4.57-7.43,7.98-9.03,8.35-9.55,4.14,2.09,9.62,1.09,14.32,1.19Z"/>
        <path class="play-cls-40" d="m970.2,850.87c-21.23-3.19-11.79-20.16-5.97-21.48,13.49-3.05,14.97,14.83,5.97,21.48Z"/>
      </g>
    </g>
  </g>
</svg>