<?xml version="1.0" encoding="UTF-8"?>
<svg id="Layer_1" data-name="Layer 1" xmlns="http://www.w3.org/2000/svg" viewBox="0 0 1144.44 1144.56">
  <defs>
    <style>
      .rest-cls-1 {
        fill: #613d29;
      }

      .rest-cls-1, .rest-cls-2, .rest-cls-3, .rest-cls-4, .rest-cls-5, .rest-cls-6, .rest-cls-7, .rest-cls-8, .rest-cls-9, .rest-cls-10, .rest-cls-11, .rest-cls-12, .rest-cls-13, .rest-cls-14, .rest-cls-15, .rest-cls-16, .rest-cls-17, .rest-cls-18, .rest-cls-19, .rest-cls-20, .rest-cls-21, .rest-cls-22, .rest-cls-23, .rest-cls-24, .rest-cls-25, .rest-cls-26, .rest-cls-27, .rest-cls-28, .rest-cls-29, .rest-cls-30, .rest-cls-31, .rest-cls-32, .rest-cls-33, .rest-cls-34 {
        stroke-width: 0px;
      }

      .rest-cls-2 {
        fill: #2a7f73;
      }

      .rest-cls-3 {
        fill: #5d1312;
      }

      .rest-cls-4 {
        fill: #896863;
      }

      .rest-cls-5 {
        fill: #2e4f51;
      }

      .rest-cls-6 {
        fill: #3c171e;
      }

      .rest-cls-7 {
        fill: #26444c;
      }

      .rest-cls-8 {
        fill: #581d30;
      }

      .rest-cls-9 {
        fill: #0693aa;
      }

      .rest-cls-10 {
        fill: #40190d;
      }

      .rest-cls-11 {
        fill: #404657;
      }

      .rest-cls-12 {
        fill: #074b63;
      }

      .rest-cls-13 {
        fill: #13a3b5;
      }

      .rest-cls-14 {
        fill: #07647c;
      }

      .rest-cls-15 {
        fill: #2384a0;
      }

      .rest-cls-16 {
        fill: #c62d3b;
      }

      .rest-cls-17 {
        fill: #d34e63;
      }

      .rest-cls-18 {
        fill: #cb3931;
      }

      .rest-cls-19 {
        fill: #b16450;
      }

      .rest-cls-20 {
        fill: #e38d10;
      }

      .rest-cls-21 {
        fill: #d79475;
      }

      .rest-cls-22 {
        fill: #d66f1b;
      }

      .rest-cls-23 {
        fill: #dd6426;
      }

      .rest-cls-24 {
        fill: #dca80b;
      }

      .rest-cls-25 {
        fill: #dc4d31;
      }

      .rest-cls-26 {
        fill: #a64d38;
      }

      .rest-cls-27 {
        fill: #b0bbc3;
      }

      .rest-cls-28 {
        fill: #ced4d6;
      }

      .rest-cls-29 {
        fill: #b67256;
      }

      .rest-cls-30 {
        fill: #e9a99f;
      }

      .rest-cls-31 {
        fill: #e77c14;
      }

      .rest-cls-32 {
        fill: #fcceaf;
      }

      .rest-cls-33 {
        fill: #f0f0ef;
      }

      .rest-cls-34 {
        fill: #017694;
      }
    </style>
  </defs>
  <path class="rest-cls-33" d="m1144.44,1134.5v10.06H0v-10.06h1144.44Z"/>
  <g>
    <path class="rest-cls-8" d="m909.74.12l-.56,182.17q9.78-91.09,19.56-182.17c3.73,0,7.45,0,11.18,0-7.62,70.46-13.58,141.23-24.59,211.23-3.39-2.81-11.17-4.55-15.65-4.47q-.56-103.38-1.12-206.76c3.73,0,7.45,0,11.18,0Z"/>
    <path class="rest-cls-8" d="m197.82.12q36.32,103.94,72.65,207.88c-.47.2-7.25,6.04-7.82,6.71L186.64.12c3.73,0,7.45,0,11.18,0Z"/>
    <path class="rest-cls-8" d="m849.39.12q17.88,105.62,35.76,211.23c-5.2,2.72-7.42,6.9-10.06,6.71.8-15.79-32.56-181.73-36.88-217.94,3.73,0,7.45,0,11.18,0Z"/>
    <g>
      <path class="rest-cls-8" d="m306.23.12c.31,27.01-10.43,196.75-7.82,206.76-2.52,1.02-10.94-1.03-10.06-3.35q3.35-101.7,6.71-203.41c3.73,0,7.45,0,11.18,0Z"/>
      <path class="rest-cls-17" d="m298.4,206.88c.97,3.71,20.7,12.39,13.41,43.03-1.03,4.34-8.83,16.9-12.29,19.56-.2.15-3.64,1.82-4.47,2.24-1.98.99-8.36,3.36-10.06,3.35-20.05-.06-42.95-36.28-22.35-60.35.57-.67,7.35-6.5,7.82-6.71,6.95-2.99,14.22-.68,17.88-4.47-.88,2.33,7.54,4.38,10.06,3.35Z"/>
    </g>
    <path class="rest-cls-17" d="m899.68,206.88c4.48-.08,12.25,1.66,15.65,4.47,18.21,15.07,6.69,58.55-16.76,63.7-.33.07-6.37.05-6.71,0-1.24-.2-1.83-1.6-3.35-2.24-30.87-13-13.57-51.62-13.41-54.76,2.64.2,4.86-3.98,10.06-6.71,4.51-2.36,9.37-4.37,14.53-4.47Z"/>
    <g>
      <path class="rest-cls-33" d="m640.4,865.16c109.71-11.24,183.03-153.59,201.17-250.91,14.92-87.9,37.57-174.76,49.18-263.2.19-1.45-.19-3.02,0-4.47,1.52-11.88,3.15-23.88,4.47-35.76q2.79,2.51,5.59,5.03c-2.28,158.78-13.27,493.55-206.2,544.84-12.03,3.2-56.41,12.71-54.2,4.47Z"/>
      <path class="rest-cls-8" d="m300.64,284c.74,1.58,1.51,2.97,2.24,4.47,5.94,12.37,18.98,35.48,17.88,48.06-.07.76-3.26,10-4.47,14.53-1.25,4.68-4.1,9.83-5.59,14.53-2.23,7.03-3.31,14.58-6.71,21.23-5.43-28.21-9.63-56.63-14.53-84.94-1.54-8.93-3.08-17.87-4.47-26.82,1.7,0,8.08-2.36,10.06-3.35,1.08,4.42,3.7,8.23,5.59,12.29Z"/>
      <path class="rest-cls-8" d="m898.57,275.05c-1.79,11.83-2.04,23.91-3.35,35.76-1.32,11.89-2.95,23.89-4.47,35.76-7.12-3.09-15.09-4.19-22.35-6.71-1.66-.58-4.32-1.93-5.59-3.35,9.84-20.38,18.28-41.52,29.06-61.47.33.05,6.38.07,6.71,0Z"/>
      <g>
        <path class="rest-cls-33" d="m303.99,386.82l2.24,4.47c35.88,122.26,77.76,247.91,159.82,347.58-2.41,4.28-5.61,11.02-7.82,15.65-.37.77,1.49,1.47,1.12,2.24-4.58,9.47-9,19.46-13.41,29.06-1.21-.03-2.26.35-3.35-.56-1.95-1.62-28.72-34.32-32.41-39.12-61.09-79.38-98.28-194.42-111.76-292.82-2.29-16.74-13.53-141.29-12.29-148.64.19-1.11,1.48,2.32,3.35-2.79,4.9,28.31,9.1,56.73,14.53,84.94Z"/>
        <g>
          <path class="rest-cls-33" d="m299.52,269.47c34.66,45.31,137.1,71.93,192.79,80.47,110.7,16.97,319.7,18.91,396.2-77.12,1.52.64,2.11,2.03,3.35,2.24-10.78,19.95-19.22,41.09-29.06,61.47-39.18,81.16-82.98,160.08-122.94,240.85-16.27,28.3-33.8,55.79-51.41,83.26.76-13.45-.81-26.83-1.12-40.23-1.02-45.02,5.77-79.51-35.76-107.29-2.35-1.57-4.22-.66-6.71-2.24-.23-.15-3.15-.96-5.03-2.24-4.99-3.38-5.85-7.43-6.15-7.82,2.98-3.35,1.28-7.69,3.35-11.18,8.64,29.2,66.08-4.75,45.82-23.47.11-.45,1.01-2.18,1.12-2.24,2.19-1.13,7.63-1.32-6.15-5.59-3.76-1.17-13.25-.66-13.97-1.68,6.26-34.37-8.8-84.45-49.18-88.85-19.78-2.15-28.09,5.53-29.62,5.59-2.73.1-21.52-16.6-44.15,19.56-24.69,39.45-24.75,123.93,17.32,119.03,7.26-.85,20.89-11.12,27.38-13.41,2.37-.84,5.86-2.91,5.59,1.12.19,5.37-5.4,14.84-5.59,15.65l-3.35-1.12c.25-1.81.07-3.71.56-5.59-2.16.29-3.54,2.7-6.15,4.47-35.3,24.01-39.33,103.56-49.18,143.06-6.35-4.77-11.33-9.32-16.76-15.09-36.39-38.63-162.46-243.56-190-304.55,1.1-12.58-11.95-35.69-17.88-48.06,2.07-3.02,10.21,6.33,20.12,14.53,6.17,6.18,11.48,14.04,20.12,17.32-5.65-6.99-13.31-11.69-20.12-17.32-6.76-6.76-20.75-24.54-22.35-19-1.89-4.06-4.5-7.87-5.59-12.29.83-.42,4.27-2.08,4.47-2.24Z"/>
          <g>
            <path class="rest-cls-27" d="m369.93,339.88c-.34-.19-3.87-.2-6.71-3.91,2.19-1.65,5.76,3.29,6.71,3.91Z"/>
            <g>
              <path class="rest-cls-28" d="m322.99,303c-9.9-8.2-18.04-17.54-20.12-14.53-.72-1.5-1.5-2.89-2.24-4.47,1.6-5.54,15.59,12.23,22.35,19Z"/>
              <path class="rest-cls-27" d="m387.26,348.82c27.57,13.09,56.64,21.14,86.62,26.26-25.55-.73-49.52-9.98-73.2-18.44l-13.41-7.82Z"/>
              <path class="rest-cls-28" d="m873.42,297.41c-12.93,17.05-29.15,33.09-47.5,44.15q23.75-22.07,47.5-44.15Z"/>
              <path class="rest-cls-28" d="m322.99,303c6.81,5.63,14.46,10.33,20.12,17.32-8.64-3.28-13.94-11.14-20.12-17.32Z"/>
              <path class="rest-cls-27" d="m816.42,346.58c7.15-2.18-3.13,4.15-8.94,7.82-33.34,15.53,2.85-5.97,8.94-7.82Z"/>
              <path class="rest-cls-28" d="m347.02,323.11c23.03,13.33,9.13,13.79,1.12,3.35-.62-.8-1.81-3.03-1.12-3.35Z"/>
              <path class="rest-cls-27" d="m374.4,342.11c10.61,5.05,8.88,6.33,2.79,3.35-1.41-.69-2.61-3.23-2.79-3.35Z"/>
              <path class="rest-cls-27" d="m374.4,342.11c-1.66-.79-2.82-1.33-4.47-2.24.21.14.45-.38,4.47,2.24Z"/>
            </g>
          </g>
        </g>
      </g>
      <g>
        <g>
          <path class="rest-cls-18" d="m321.87,418.11c22.97,54.55,28.65,93.62,70.41,141.38,12.92,14.77,28.24,25.54,42.47,38.56,3.93,3.59,8.37,5.97,12.29,9.5,13.97,18.64,37.68,65.03,54.76,69.85,4.12,2.81,8.65,5.24,13.41,6.71,5.26,4.55-6.72,11.18-12.29,10.06.14-5.09-19.16-15.1-29.62-23.47-4.53-3.63-43.34-36.23-34.65-35.76,1.68.09,18.9,12.96,30.73,12.85-53.8-40.24-65.71-53.43-98.91-112.32-7.68-.8,24.64,54.1,27.38,58.12-6.48,3.08,2.42,13.33,8.94,23.47-11.13-5.64,10.77,27.28,16.76,35.21,8.82,11.67,46.51,50.25,58.12,55.32,4.87,4.16-7.37,15.68-8.38,15.65-3.01-.1-34.17-41.17-38.56-46.38,8.25,20.62,25.36,35.28,38,53.09-2.41,3.46-6.43,8.45-6.71,8.94-82.06-99.67-123.94-225.32-159.82-347.58,4.58,6.44,12.83,20.12,15.65,26.82Z"/>
          <path class="rest-cls-31" d="m321.87,387.93c2.58,10.35,3.56,20.96,6.71,31.29l-6.71-1.12c-2.82-6.7-11.07-20.38-15.65-26.82l-2.24-4.47c3.4-6.66,4.47-14.21,6.71-21.23,7.03-3.63,8.14,10.17,11.18,22.35Z"/>
          <path class="rest-cls-24" d="m527.52,656.16c6.78,5.09,18.12,9.44,19,10.06.06.05-.25,1.24,1.12,1.12v1.12c-8.46,4.67-16.04,17.75-25.71,17.88-3.61.05-4.45-1.54-6.71-2.24-4.77-1.47-9.3-3.9-13.41-6.71-8.25-5.63-12.97-11.9-19-19.56-19.5-24.79-103.07-163.8-119.59-195.58-9.86-18.96-24.95-52.29-32.41-72.09-4.72-12.52-7.6-29.35-14.53-39.12,1.21-4.53,4.4-13.77,4.47-14.53,27.53,60.99,153.6,265.92,190,304.55,5.43,5.77,10.41,10.32,16.76,15.09Z"/>
          <path class="rest-cls-31" d="m330.82,390.17c-3.51-4.45-4.35-5.26-8.94-2.24-3.03-12.19-4.15-25.98-11.18-22.35,1.49-4.7,4.34-9.85,5.59-14.53,6.93,9.77,9.81,26.6,14.53,39.12Z"/>
          <path class="rest-cls-25" d="m330.82,390.17c7.47,19.8,22.55,53.12,32.41,72.09,16.52,31.78,100.08,170.8,119.59,195.58,6.03,7.66,10.74,13.93,19,19.56-17.09-4.82-40.79-51.21-54.76-69.85-3.92-3.53-8.37-5.91-12.29-9.5-39.15-44.88-89.02-122.41-106.17-178.82-3.14-10.34-4.13-20.94-6.71-31.29,4.59-3.02,5.43-2.22,8.94,2.24Z"/>
          <path class="rest-cls-18" d="m502.93,694.16c5.58,1.12,17.56-5.51,12.29-10.06,2.26.7,3.09,2.29,6.71,2.24-.12,1,.3.98,1.12,1.12-25.33,15.69-32.84,17.4-50.29,42.47-12.64-17.81-29.75-32.47-38-53.09,4.39,5.21,35.54,46.28,38.56,46.38,1.02.03,13.25-11.49,8.38-15.65,3.97,1.73,2,3.6,7.82-.56-27.4-18.32-65.02-62.47-82.7-89.97-6.52-10.14-15.42-20.39-8.94-23.47,8.45,12.39,16.91,20.09,25.71,30.73.44.53-.44,3.95,0,4.47,13.11,15.61,61.12,61.71,79.35,65.38Z"/>
          <path class="rest-cls-31" d="m328.58,419.23c17.15,56.41,67.03,133.93,106.17,178.82-14.23-13.02-29.55-23.78-42.47-38.56-41.76-47.76-47.44-86.83-70.41-141.38l6.71,1.12Z"/>
          <path class="rest-cls-22" d="m502.93,694.16c-18.23-3.67-66.24-49.77-79.35-65.38-.44-.52.44-3.94,0-4.47-8.8-10.64-17.26-18.35-25.71-30.73-2.74-4.02-35.06-58.91-27.38-58.12,33.2,58.89,45.11,72.08,98.91,112.32-11.83.1-29.05-12.76-30.73-12.85-8.69-.47,30.11,32.13,34.65,35.76,10.46,8.37,29.75,18.38,29.62,23.47Z"/>
          <path class="rest-cls-23" d="m406.81,617.05c17.69,27.5,55.3,71.65,82.7,89.97-5.82,4.15-3.86,2.29-7.82.56-11.61-5.07-49.3-43.66-58.12-55.32-5.99-7.93-27.89-40.84-16.76-35.21Z"/>
        </g>
        <g>
          <path class="rest-cls-24" d="m795.75,632.69c-24.91,69.72-61.86,175.31-138.03,203.41-15.5,5.72-51.95,12.67-67.62,10.06-4.11-.69-7.55,1.95-6.71-3.35,120.79,3.01,166.32-98.91,202.29-196.7,1.27,12.68,3.56-8.39,10.06-13.41Z"/>
          <path class="rest-cls-23" d="m881.8,348.82c-8.77,35.38-19.97,70.08-30.18,105.06l-4.47-5.59c2.19-9.1,8.54-35.2,8.94-40.79.76-10.76-1-17.47-7.82-6.15,4.17-19.77,11.54-38.32,19-57,4.83,1.52,9.67,3.05,14.53,4.47Z"/>
          <path class="rest-cls-31" d="m851.63,453.87c-17.52,60.07-34.81,119.83-55.88,178.82-6.5,5.03-8.79,26.09-10.06,13.41,16.42-44.65,50.7-153.03,61.47-197.82l4.47,5.59Z"/>
          <path class="rest-cls-31" d="m890.74,346.58c-.19,1.45.19,3.02,0,4.47-3.09-.15-6.02-1.38-8.94-2.24-4.85-1.42-9.7-2.95-14.53-4.47.43-1.08.9-3.22,1.12-4.47,7.27,2.51,15.23,3.62,22.35,6.71Z"/>
          <g>
            <path class="rest-cls-16" d="m890.74,351.05c-11.61,88.44-34.26,175.3-49.18,263.2-18.14,97.31-91.46,239.66-201.17,250.91-30.09,3.08-58.88-2.06-87.17-12.29-2.33-2.19,3.53-6.3,6.71-10.06,9.41,2.24,20.83,5.04,30.18,3.35,15.66,2.62,52.11-4.34,67.62-10.06,76.17-28.1,113.12-133.68,138.03-203.41,21.07-58.99,38.36-118.75,55.88-178.82,10.2-34.98,21.4-69.68,30.18-105.06,2.93.85,5.85,2.08,8.94,2.24Z"/>
            <path class="rest-cls-25" d="m716.95,815.98c8.58,2.14-29.12,23.65-30.73,20.68,6.25-1.8,28.94-21.12,30.73-20.68Z"/>
            <path class="rest-cls-23" d="m583.4,842.81c-.85,5.3,2.6,2.67,6.71,3.35-9.35,1.68-20.77-1.12-30.18-3.35.74-.88,1.66-1.54,2.24-2.24,6.9,2.04,14.13,2.06,21.23,2.24Z"/>
          </g>
          <path class="rest-cls-24" d="m868.39,339.88c-.22,1.25-.69,3.39-1.12,4.47-7.46,18.68-14.83,37.23-19,57-3.68,6.1-21.32,57.82-29.06,75.44-26.66,60.71-153.7,279.1-195.58,321.87-14.13,14.43-31.78,25.57-51.41,30.73,15.94-20.49,27.6-44.34,43.59-64.82,3.12-2.05,4.67-6.09,6.71-8.94,2.93-4.12,10.54-11.6,14.53-17.32,11.86-17,23.1-34.73,34.65-51.97,5.79-8.65,11.15-16.95,16.76-25.71,17.61-27.48,35.14-54.96,51.41-83.26,39.96-80.77,83.76-159.69,122.94-240.85,1.27,1.42,3.92,2.78,5.59,3.35Z"/>
          <g>
            <path class="rest-cls-18" d="m847.16,448.29c-10.77,44.79-45.05,153.17-61.47,197.82-35.97,97.79-81.5,199.71-202.29,196.7-7.1-.18-14.34-.2-21.23-2.24,3.47-4.17,8.71-9.44,10.06-11.18,19.63-5.17,37.28-16.31,51.41-30.73,41.89-42.78,168.93-261.17,195.58-321.87,7.74-17.62,25.38-69.34,29.06-75.44,6.82-11.32,8.59-4.61,7.82,6.15-.4,5.6-6.75,31.7-8.94,40.79Z"/>
            <path class="rest-cls-20" d="m661.07,786.92c.76.41.8,2.15.56,2.79-2.55,6.91-56.51,41.27-69.29,41.35,23.39-9.72,41-26.76,54.2-35.21.34-.22.6,3.25,2.24,2.24,3.79-2.34,8.77-7.96,12.29-11.18Z"/>
            <path class="rest-cls-20" d="m665.54,782.45c.4,0,2.46,1.61.56,2.79-2.13,1.33-2.49-2.79-.56-2.79Z"/>
          </g>
        </g>
      </g>
    </g>
    <g>
      <g>
        <path class="rest-cls-3" d="m614.69,367.82c-8.61,3.35-.35,5.08,5.59,16.21,7.73,14.47,12.23,32.01,20.12,45.82.88,1.54,11.53,8.29,13.41,17.88-3.38,11.38-2.3,28.39-3.35,31.29-2.63,7.22-11.25,6.99-13.41,10.62-2.08,3.49-.37,7.83-3.35,11.18-10.16-13.39-10.32-18.98-8.94-35.76,16.96,7.3,30.21-23.05,12.85-26.82-15.06-3.27-6.63,12.31-13.41,12.29-2.25,0-17.11-18.53-36.88-21.23.63-5.06,12.45,1.74,17.32,2.79-30.2-25.19-13.82-48-34.09-34.09-6.54,4.49-15.77,22.26-13.97,26.26,17.11,8.23,20.51,16.35.56,2.79l-1.68,1.68c-6.64,36.26-6.42,53.78,30.18,69.85-6.49,2.29-20.12,12.57-27.38,13.41-42.07,4.9-42.01-79.58-17.32-119.03,22.63-36.16,41.41-19.45,44.15-19.56,1.53-.06,9.83-7.74,29.62-5.59Z"/>
        <path class="rest-cls-3" d="m683.98,463.93c-7.64.31-3.28.24-1.12,2.24,20.26,18.72-37.18,52.67-45.82,23.47,2.16-3.63,10.78-3.4,13.41-10.62,1.06-2.91-.02-19.91,3.35-31.29-1.88-9.59-12.53-16.34-13.41-17.88-7.89-13.81-12.39-31.35-20.12-45.82-5.94-11.13-14.2-12.86-5.59-16.21,40.37,4.4,55.44,54.48,49.18,88.85.72,1.02,10.21.51,13.97,1.68,13.77,4.27,8.34,4.46,6.15,5.59Z"/>
        <path class="rest-cls-30" d="m683.98,463.93c-.11.06-1,1.78-1.12,2.24-2.16-2-6.52-1.93,1.12-2.24Z"/>
      </g>
      <g>
        <g>
          <path class="rest-cls-33" d="m552.1,923.27c2.11.19,6.39-.64,7.82.56.12,2.74,2.23,10.07,2.24,10.62.03,1.6-1.49,5.89-2.24,7.82-1.03,2.69-.87,1.59-2.24,3.35-41.81-3.27-83.6-7.63-124.61-16.76-1.95.75,3.09,6.19,2.79,13.41-.1,2.36-.18,2.49-1.12,4.47-1.12,2.37-6.29,6.26-8.38,6.71-8.93,1.91-75.84-5.73-85.5-16.76-2.83-4.41-8.69-22.04-3.35-20.12,23.23,8.3,58.03,17.71,82.15,19,11.96.64-12.22-6.02-12.85-7.26-1.76-3.43,5.48-16.41,8.38-17.32,9.57-3,94.82,10.68,112.88,12.29,7.89.7,16.14-.71,24.03,0Z"/>
          <path class="rest-cls-11" d="m434.75,946.74c6.17,4.69,3.45,10.11-2.24,13.41-5.37-.02-11.07,1.36-16.76,1.12-19.09-.82-37.13-1.99-54.76-10.06-6.66-3.05-16.19-8.41-20.12-14.53,9.66,11.03,76.57,18.68,85.5,16.76,2.09-.45,7.26-4.34,8.38-6.71Z"/>
          <g>
            <path class="rest-cls-6" d="m473.87,885.28c2.08.4,3.33,1.01,5.59,1.12q4.75,5.59,9.5,11.18l-1.68-8.94c6.69,1.33,16.39.86,23.47,4.47.56,3.58,6.53,16.77,7.82,18.44,9.81,12.71,26.4,5.36,33.53,11.74-7.89-.71-16.14.7-24.03,0-18.06-1.61-103.31-15.3-112.88-12.29-2.91.91-10.14,13.9-8.38,17.32.64,1.24,24.81,7.9,12.85,7.26-24.12-1.29-58.91-10.7-82.15-19,1.29-4.12,34.5-6.16,39.12-5.59.89.11,14.06,10.24,8.94-4.47,5.83-1.92,8.53-2.19,13.41-6.71,6.67,1.27,7.3-5.62,8.94-10.06q10.06,6.15,20.12,12.29c47.73-1.57,32.22-3.18,42.47-16.21.9-1.15,3.16-.29,3.35-.56Z"/>
            <path class="rest-cls-33" d="m487.28,888.63l1.68,8.94q-4.75-5.59-9.5-11.18c9.12.44,6.09,1.89,7.82,2.24Z"/>
            <path class="rest-cls-33" d="m385.58,906.51c5.12,14.71-8.05,4.58-8.94,4.47.31-4.09,6.32-3.6,8.94-4.47Z"/>
            <path class="rest-cls-33" d="m415.2,899.8c1.27-.66,8.07.54,7.26,2.79-.39,1.09-9.76-1.49-7.26-2.79Z"/>
          </g>
        </g>
        <g>
          <path class="rest-cls-4" d="m557.69,945.63c-.16.21.64,1.89-2.79,4.47-9.39-2.93-6.82,1.04-7.26,1.12-.36.06-.75-.05-1.12,0,.97-1.81-3.37-3.28-3.91-3.35-11.81-1.65-53.69-1.35-68.73,0-12.78-1.16-25.4-3.19-38-5.59.3-7.22-4.75-12.66-2.79-13.41,41.01,9.14,82.81,13.5,124.61,16.76Z"/>
          <path class="rest-cls-7" d="m546.52,951.22c-11,1.36-57.9-2.01-72.65-3.35,15.05-1.35,56.93-1.65,68.73,0,.54.08,4.88,1.55,3.91,3.35Z"/>
        </g>
      </g>
      <g>
        <path class="rest-cls-21" d="m687.34,620.4l-10.06,53.09c-1.46,5.18-4.21,6.94-6.71,10.62-12.52,18.46-33.88,32.75-51.41,45.82-1.49,1.11-2.98,2.27-4.47,3.35-14.88,10.82-31.83,19.36-45.26,32.41-3.02,1.15-7.44-.32-10.62-1.12-.88-.22-1.88-.71-3.35-1.12-.7-2.77-4.3-2.75-5.59-3.35-3.03-1.4-5.65-4.05-9.5-3.35-2.38-1.58-1.36-2.89-1.68-4.47,3.24-.95,7.1-1.76,10.06-3.35,15.59-8.4,81.12-64.35,95-84.38v-3.91c.29-8.54-.39-17.17,0-25.71,1.97-43.18-3.8-86.95,7.82-121.82,41.54,27.78,34.75,62.27,35.76,107.29Z"/>
        <path class="rest-cls-29" d="m614.69,733.28c1.09,5.04-.03,4.25,0,4.47-18.82,8.78-49.15,39.72-55.88,26.82,3.18.8,7.6,2.26,10.62,1.12,13.44-13.05,30.39-21.59,45.26-32.41Z"/>
        <g>
          <path class="rest-cls-21" d="m615.81,764.57c-15.99,20.48-27.65,44.33-43.59,64.82-1.35,1.73-6.58,7.01-10.06,11.18-.58.69-1.49,1.35-2.24,2.24-3.18,3.76-9.03,7.87-6.71,10.06q-20.12,19.56-40.23,39.12-1.12.56-2.24,1.12c-7.08-3.61-16.78-3.14-23.47-4.47-1.73-.34,1.3-1.8-7.82-2.24-2.26-.11-3.51-.71-5.59-1.12,3.83-5.19,35.71-65.93,35.76-69.85.06-4.67-6.03-4.76-8.94-2.79.23-.3,2.58-6.24,3.35-6.71,3.96-2.36,8.37-.1,11.18-1.68,2.14-1.2,18.41-37.82,25.15-41.91,1.66-1.01,6.47-.81,8.38-1.12,3.44,2.4,5.85,2,6.71,2.24,1.47.41,2.47.9,3.35,1.12,6.73,12.9,37.06-18.04,55.88-26.82,1.22,9.01,3.54,17.71,1.12,26.82Z"/>
          <path class="rest-cls-21" d="m500.69,800.34v2.24c-10.72,11.75-18.37,25.94-27.94,38.56-13.31,17.54-33.64,34.35-41.35,54.2-1.28,3.31-2.92,3.89-3.35,6.71q-10.06-6.15-20.12-12.29c4.46-12.03,10.69-46.21,16.76-62.03,3.09-8.04,15.47-29.36,21.23-41.91,4.41-9.59,8.83-19.59,13.41-29.06,19.45,7.79,28.63,28.29,41.35,43.59Z"/>
          <path class="rest-cls-19" d="m500.69,802.57l3.35,3.35c-.78.46-3.13,6.41-3.35,6.71-21.74,28.73-42.81,57.96-69.29,82.7,7.72-19.86,28.04-36.66,41.35-54.2,9.58-12.62,17.22-26.81,27.94-38.56Z"/>
          <path class="rest-cls-1" d="m555.46,763.45c-.86-.24-3.26.17-6.71-2.24.08-.01-.27-1.24,1.12-1.12,1.29.6,4.89.58,5.59,3.35Z"/>
        </g>
        <path class="rest-cls-21" d="m574.46,524.28c-9.68,27.96-21.63,57.52-12.29,87.17-2.53,18.97-8.21,37.22-15.65,54.76-.88-.62-12.22-4.97-19-10.06,9.85-39.5,13.87-119.05,49.18-143.06,1.22,2.08-.97,7.53-2.24,11.18Z"/>
        <path class="rest-cls-21" d="m643.75,517.58c-6.81,29.52-12.19,44.7-41.91,39.12-21.57-4.05-23.38-13.42-22.91-26.82.2-5.82,2.6-10.26,3.35-15.65l3.35,1.12c-3.11,13.54,7.22,12.94,24.03,6.71,7.06-2.62,13.89-9.09,19-14.53,8.53,3.34,11.79,12.9,15.09,10.06Z"/>
        <path class="rest-cls-29" d="m633.69,500.81c.3.4,1.16,4.45,6.15,7.82,1.88,1.27,4.8,2.09,5.03,2.24.41,2.44-.59,4.43-1.12,6.71-3.3,2.84-6.55-6.72-15.09-10.06-5.11,5.44-11.94,11.91-19,14.53-16.8,6.24-27.14,6.83-24.03-6.71.19-.81,5.78-10.28,5.59-15.65,2.36-3.59,10.55-1.65,18.44-6.71,11.36-7.28,12.31-26.16,15.09-27.94-1.38,16.78-1.22,22.37,8.94,35.76Z"/>
        <path class="rest-cls-21" d="m572.22,676.28c-16.41-4.5-18.8-1.96-31.29,8.38.82,1.67,22.62-.99,25.71-1.68l-1.12,7.82c-3.25.94-9.48,0-12.85-1.12-3.52,17.01,22.97,22.89,24.03,26.26,1.68,5.34-5.97,5.44-11.18,3.91-9.1-2.67-17.95-18.34-3.35,8.38-2.44,3.91-11.03-12.52-12.29-15.09-1.27-2.59-1.68-8.92-2.24-10.06-5.75-11.84-12.45-13.63-24.59-15.65-.82-.14-1.24-.12-1.12-1.12,9.66-.14,17.24-13.22,25.71-17.88q12.29,3.91,24.59,7.82Z"/>
        <path class="rest-cls-26" d="m565.52,617.05c1.87,5.2,4.46,9.63,7.82,13.97l-1.12,2.79q-12.29,16.76-24.59,33.53c-1.36.13-1.05-1.07-1.12-1.12,7.43-17.54,13.12-35.8,15.65-54.76.21.66,2.89,4.29,3.35,5.59Z"/>
        <g>
          <path class="rest-cls-32" d="m624.75,465.05c-2.78,1.78-3.73,20.66-15.09,27.94-7.89,5.06-16.09,3.11-18.44,6.71.28-4.03-3.22-1.95-5.59-1.12-36.6-16.07-36.81-33.59-30.18-69.85l1.68-1.68c19.95,13.56,16.55,5.44-.56-2.79-1.8-4.01,7.43-21.78,13.97-26.26,20.27-13.91,3.89,8.89,34.09,34.09-4.87-1.05-16.69-7.86-17.32-2.79,19.77,2.7,34.63,21.23,36.88,21.23,6.78.01-1.65-15.57,13.41-12.29,17.36,3.77,4.1,34.12-12.85,26.82Z"/>
          <path class="rest-cls-1" d="m599.6,446.05c11.41-2.48,21.59,8.72,4.47,1.12-10.58,4.3-9.36-.05-4.47-1.12Z"/>
          <path class="rest-cls-10" d="m572.78,451.64c10.06-1.96,6.98,5.32-3.91,1.68,1.5-.1,3.7-1.64,3.91-1.68Z"/>
        </g>
        <path class="rest-cls-19" d="m572.22,676.28c9.78,2.68,7.94,3.01-1.12,5.59-1.28.36-3.17.83-4.47,1.12-3.08.69-24.89,3.34-25.71,1.68,12.5-10.35,14.88-12.88,31.29-8.38Z"/>
      </g>
      <g>
        <path class="rest-cls-7" d="m622.51,755.63c-2.03,2.85-3.59,6.89-6.71,8.94,2.42-9.11.1-17.81-1.12-26.82-.03-.22,1.09.57,0-4.47,1.49-1.08,2.99-2.24,4.47-3.35q1.68,12.85,3.35,25.71Z"/>
        <path class="rest-cls-14" d="m688.45,660.63c-5.61,8.75-10.97,17.06-16.76,25.71l-1.12-2.24c2.49-3.68,5.24-5.44,6.71-10.62l10.06-53.09c.3,13.41,1.88,26.78,1.12,40.23Z"/>
        <path class="rest-cls-13" d="m671.69,686.34c-11.55,17.24-22.79,34.97-34.65,51.97-3.99,5.72-11.6,13.21-14.53,17.32q-1.68-12.85-3.35-25.71c17.53-13.08,38.89-27.36,51.41-45.82l1.12,2.24Z"/>
        <path class="rest-cls-13" d="m643.75,660.63v3.91c-13.88,20.03-79.4,75.98-95,84.38-3.62-7.34,16.02-14.2,16.76-17.32.61-2.56-7.92-9.08,0-11.74,5.2,1.53,12.86,1.43,11.18-3.91-1.06-3.37-27.55-9.26-24.03-26.26,3.37,1.12,9.6,2.06,12.85,1.12.86-.25,9.18-7.4,5.59-8.94,9.06-2.58,10.9-2.91,1.12-5.59q-12.29-3.91-24.59-7.82v-1.12q12.29-16.76,24.59-33.53c13.03,9.44,25.88,18.73,39.68,5.59,23.03,25.05,29.57-16.49,31.85,21.23Z"/>
        <path class="rest-cls-12" d="m643.75,634.93c-.39,8.53.29,17.16,0,25.71-2.29-37.72-8.82,3.82-31.85-21.23-13.8,13.14-26.65,3.85-39.68-5.59l1.12-2.79c-3.36-4.34-5.96-8.77-7.82-13.97,18.16,27.61,50.12,12.22,78.23,17.88Z"/>
        <g>
          <path class="rest-cls-13" d="m547.63,703.1c-8.45,12.17-12.91,28.21-20.12,41.91-5.99,11.38-22.09,36.93-30.18,47.5-6.08-11.4-25.32-36.22-39.12-38,2.22-4.62,5.41-11.37,7.82-15.65.27-.49,4.3-5.48,6.71-8.94,17.46-25.07,24.96-26.78,50.29-42.47,12.13,2.02,18.84,3.81,24.59,15.65Z"/>
          <path class="rest-cls-5" d="m497.34,792.51c1.05,1.98,1.99,3.79,3.35,5.59v2.24c-12.72-15.29-21.9-35.8-41.35-43.59.37-.76-1.49-1.47-1.12-2.24,13.79,1.78,33.04,26.6,39.12,38Z"/>
          <path class="rest-cls-34" d="m538.69,752.28c.32,1.58-.7,2.89,1.68,4.47,3.85-.7,6.47,1.95,9.5,3.35-1.39-.12-1.04,1.11-1.12,1.12-1.91.31-6.72.11-8.38,1.12-6.73,4.09-23.01,40.71-25.15,41.91-2.81,1.58-7.22-.68-11.18,1.68l-3.35-3.35v-4.47c10.96-12,29.63-40.7,36.88-54.76,4.02,2.73.94,8.08,1.12,8.94Z"/>
          <path class="rest-cls-9" d="m547.63,703.1c.55,1.14.96,7.47,2.24,10.06-4.05,12.5-6.36,18.66-12.29,30.18-7.25,14.07-25.92,42.77-36.88,54.76-1.36-1.8-2.3-3.61-3.35-5.59,8.09-10.57,24.19-36.12,30.18-47.5,7.2-13.7,11.67-29.74,20.12-41.91Z"/>
          <path class="rest-cls-14" d="m565.52,719.87c-7.92,2.66.61,9.18,0,11.74-.75,3.13-20.38,9.98-16.76,17.32-2.95,1.59-6.82,2.4-10.06,3.35-.17-.86,2.9-6.22-1.12-8.94,5.93-11.51,8.24-17.68,12.29-30.18,1.26,2.57,9.86,19,12.29,15.09-14.6-26.72-5.75-11.05,3.35-8.38Z"/>
        </g>
        <g>
          <path class="rest-cls-2" d="m582.28,514.23c-.76,5.39-3.15,9.82-3.35,15.65l-4.47-5.59c1.26-3.64,3.46-9.09,2.24-11.18,2.61-1.77,3.99-4.18,6.15-4.47-.49,1.88-.3,3.78-.56,5.59Z"/>
          <g>
            <path class="rest-cls-13" d="m651.57,513.11c-11.62,34.87-5.85,78.64-7.82,121.82-28.12-5.66-60.08,9.73-78.23-17.88-.47-1.3-3.14-4.93-3.35-5.59-9.33-29.66,2.61-59.21,12.29-87.17l4.47,5.59c-.47,13.41,1.34,22.77,22.91,26.82,29.72,5.58,35.1-9.6,41.91-39.12.52-2.27,1.53-4.26,1.12-6.71,2.49,1.57,4.35.66,6.71,2.24Z"/>
            <path class="rest-cls-9" d="m640.96,621.52c2.32,1.67,5.76,15.9-20.68,10.62-1.41-1.82,19.71-11.31,20.68-10.62Z"/>
          </g>
        </g>
        <path class="rest-cls-15" d="m571.1,681.87c3.59,1.54-4.73,8.69-5.59,8.94l1.12-7.82c1.3-.29,3.19-.75,4.47-1.12Z"/>
      </g>
    </g>
  </g>
</svg>