<?xml version="1.0" encoding="UTF-8"?>
<svg id="Layer_1" data-name="Layer 1" xmlns="http://www.w3.org/2000/svg" viewBox="0 0 1235.08 1235.91">
  <defs>
    <style>
      .run-cls-1 {
        fill: #f3b859;
      }

      .run-cls-1, .run-cls-2, .run-cls-3, .run-cls-4, .run-cls-5, .run-cls-6, .run-cls-7, .run-cls-8, .run-cls-9, .run-cls-10, .run-cls-11, .run-cls-12, .run-cls-13, .run-cls-14, .run-cls-15, .run-cls-16, .run-cls-17, .run-cls-18, .run-cls-19, .run-cls-20, .run-cls-21, .run-cls-22, .run-cls-23 {
        stroke-width: 0px;
      }

      .run-cls-2 {
        fill: #76b586;
      }

      .run-cls-3 {
        fill: #2b231e;
      }

      .run-cls-4 {
        fill: #38a283;
      }

      .run-cls-5 {
        fill: #3d8960;
      }

      .run-cls-6 {
        fill: #1c2023;
      }

      .run-cls-7 {
        fill: #090807;
      }

      .run-cls-8 {
        fill: #05695b;
      }

      .run-cls-9 {
        fill: #1e7556;
      }

      .run-cls-10 {
        fill: #158d73;
      }

      .run-cls-11 {
        fill: #e28254;
      }

      .run-cls-12 {
        fill: #d47247;
      }

      .run-cls-13 {
        fill: #bd613a;
      }

      .run-cls-14 {
        fill: #8fd0ae;
      }

      .run-cls-15 {
        fill: #ffc989;
      }

      .run-cls-16 {
        fill: #f2a25b;
      }

      .run-cls-17 {
        fill: #fceed3;
      }

      .run-cls-18 {
        fill: #ecda4e;
      }

      .run-cls-19 {
        fill: #fcdab4;
      }

      .run-cls-20 {
        fill: #f5b573;
      }

      .run-cls-21 {
        fill: #023e35;
      }

      .run-cls-22 {
        fill: #048d85;
      }

      .run-cls-23 {
        fill: #015255;
      }
    </style>
  </defs>
  <g>
    <path class="run-cls-17" d="m541.55,194.19c-9.71,26.01-.92,43.23,8.44,66.34.35.87.36,1.7,1.21,3.62,8.33,18.89,16.16,34.13,32.57,48.25-.58,4.29.55,16.23-4.82,18.09-16.02-7.1-27.09,7.68-31.96,8.44-1.61.25-23.14-2.05-32.57-1.21-32.53,2.92-26.48,12.36-54.28,25.33-8.76,6.69-15.63,15.4-23.52,22.92-.28.27-.11-1.27-6.03,4.82-9.12,9.39-18.61,16.48-24.12,28.95-32.33,45.73-84.07,153.08-61.51,206.85,6.24,14.87,9.54,17.48,24.12,12.66,7.49-2.47,11.46-6.88,12.06-7.24,1.82-1.08,2.68-1.83,3.62-2.41,2.38-1.48,7.6-.75,8.44-1.81l-3.62-11.46c13.58-11.82,4.61-48.64,0-66.34,22.8-27.01,49.94-52.58,65.13-84.43,4.51.27,43.1-15.99,46.44-14.47q4.52,25.33,9.05,50.66v4.82c-2.07,6.34-5.51,12.14-8.44,18.09-19.59,39.68-46.2,64.91-34.98,119.41,6.87,33.33,35.7,74.8,57.89,100.71-13.29,33.09-27.89,66.55-33.77,101.92-27.91-6.76-55.79-13.15-84.43-15.68,7.1-4.89,21.87-.13,21.71-6.63-.06-2.27-31.73-24.58-35.58-28.34-39.87,13.68-53.75,75.19-47.64,112.17-2.5.62-3.73-2.45-4.22-2.41-6.25.48-54.12,56.23-51.26,69.96-8.74-13.08-11.81-36.12-8.44-51.26,6.28-28.24,35.43-26.66,42.21-51.86,2.44-9.07.16-41.8,21.71-64.53,5.1,5.74,3.73,16.92,10.25,20.5,21.68-39.66,36.35-23.62,22.31-41.01-49.52-61.35-91.7-111.01-97.7-194.79-8.96-125.16,49.56-221.15,135.69-305.75,28.47-27.96,89.81-78.44,126.04-92.87Z"/>
    <path class="run-cls-17" d="m886.51,396.82c11.15,124.26-78.18,276.29-165.24,361.84-2.9-7.73-8.45-14.52-12.06-21.71-13.29-26.48-33.46-62.48-55.48-82.02,8.34-36.41,15.69-72.89,21.71-109.76.97-5.96,4-14.32,1.21-19.3,5.61-12.9,5.32-20.04,7.24-26.53,1.67-5.66,3.48-11.12,4.82-16.89,8.58,11.3,18.66,21.97,26.53,33.77,22.76,34.09,25.33,71.32,72.97,30.15,38.43-33.2,52.01-92.31,56.09-97.09,2.14-2.51,5.5-.87,16.89-13.87,5.36-6.12,5.52-8.9,6.03-9.65,6.59-9.69,11.39-20.3,19.3-28.95Z"/>
    <path class="run-cls-17" d="m841.88,369.08c-.68.45-4.62,5.8-6.03,7.24-3.24,3.3-7.26,5.91-9.65,10.25-4.1,7.44-3.44,10.89-3.62,11.46-2.15,6.78-3.24,13.61-4.82,20.5-1.93,8.38-2.26,17.43-3.62,25.93-10.4,6.14-30.87,20.5-32.57,16.28-18.15-49.42-45.13-91.28-92.27-116.99-1.62-.88-1.71,1.26-1.81,1.21-.91-.48-1.37-2.48-18.09-9.65-2.03-.87-4.01-1.6-6.03-2.41-7.77-3.14-15.7-5.65-14.47-7.24,13.42-4.28,24.49-14.21,31.36-26.53,14.82-16.02,19.72-60.86,7.24-79.6,3.31-9.27,4.4-19.16,3.62-28.95,60.6,49.36,115.26,108.4,150.77,178.51Z"/>
  </g>
  <g>
    <path class="run-cls-7" d="m607.89,747.8c-3.39,1.08-18.77,3.61-19.3,6.63,9.69,16.76,21.18,32.42,31.36,48.85-2.03,1.52-1.74,6.31-2.41,8.44-10.43,33.1-40.59,75.49-61.51,103.73-19.47-2.38-57.98-7.92-69.96-19.3,1.84-16.38,2.12-33.19,4.82-49.45,5.88-35.36,20.48-68.83,33.77-101.92-22.19-25.92-51.03-67.38-57.89-100.71,8.45-9.74,16.84-19.16,26.53-27.74,7.75,12.78,11.15,27.73,19.3,40.41,16.48,25.62,69.46,70.35,95.28,91.06Z"/>
    <g>
      <path class="run-cls-18" d="m882.89,1031.24c-5.19,3.44-57.55,15.72-107.95,60.31-10.7,9.47-28.59,31.18-30.76,32.57-1.51.97-.95,1.15-1.81,2.41-2.18.17-4.47-.24-6.63,0-4.57-4.24-14.47-12.73-12.06-16.89,27.21-5.15,83.67-83.28,121.22-96.49,42.4-14.92,50.82,9.59,37.99,18.09Z"/>
      <path class="run-cls-3" d="m757.45,1011.95c10.82.47,28.34,3.43,38.6,7.24-27.8,32.53-23.2,59.89-78.4,83.22-3.6-11.12-9.92-36.5-6.03-47.04,7.61-7.47,12.45-17.25,19.3-25.33,5.26-6.2,10.18-12.65,16.28-18.09,6.2-2.95,9.56-.03,10.25,0Z"/>
      <path class="run-cls-17" d="m870.83,1050.54c4.68-4.85,9.51-12.94,12.06-19.3,12.82-8.51,4.4-33.01-37.99-18.09-37.55,13.21-94.01,91.34-121.22,96.49-1.26.24-2.73,2.45-4.82.6-2.7-7.2-1.08-7.46-1.21-7.84,55.2-23.33,50.6-50.69,78.4-83.22,40.64-47.56,103.73-55.42,97.7-.6-1.35,12.26-10.54,29.02-22.92,31.96Z"/>
      <path class="run-cls-10" d="m882.89,1031.24c-2.55,6.36-7.38,14.45-12.06,19.3-17.35,17.98-68,41.29-92.27,55.48-7.98,4.66-15.37,11.32-23.52,15.68-2.63,1.41-9.64,4.63-10.86,2.41,2.17-1.38,20.05-23.1,30.76-32.57,50.4-44.58,102.76-56.87,107.95-60.31Z"/>
    </g>
    <g>
      <path class="run-cls-15" d="m747.8,920.28c6.21,27.78,8.32,63.01,9.65,91.67-.69-.03-4.05-2.95-10.25,0-6.1,5.44-11.03,11.89-16.28,18.09-54.13-74.48-114.54-139.32-68.75-235.2.25.29,2.56-.63,3.62.6,32.98,38.62,70.52,73.36,82.02,124.83Z"/>
      <path class="run-cls-15" d="m709.21,736.95c3.61,7.19,9.16,13.98,12.06,21.71,15.95,42.53,18.8,115.12,26.53,161.62-11.5-51.47-49.03-86.21-82.02-124.83-1.05-1.23-3.37-.31-3.62-.6-13.77-16.17-25.56-35.03-38.6-51.86,34.99-10.6,45.06-15.07,85.64-6.03Z"/>
      <path class="run-cls-16" d="m662.17,794.84c-45.8,95.88,14.62,160.72,68.75,235.2-6.85,8.08-11.69,17.86-19.3,25.33-19.39-31.12-40.37-61.16-56.69-94.08-19.37-44.76-27.63-93.06-22.92-141.72-3.94-5.36-8.56-10.64-12.06-16.28-10.18-16.43-21.67-32.09-31.36-48.85.53-3.02,15.91-5.55,19.3-6.63,5.21-1.66,10.45-3.24,15.68-4.82,13.04,16.83,24.82,35.69,38.6,51.86Z"/>
      <path class="run-cls-17" d="m654.93,961.29c-33.14-52.5-25.78-117.63-30.15-138.1-.51-2.4-4.04-11.64-7.24-11.46.67-2.13.39-6.92,2.41-8.44,3.5,5.65,8.12,10.92,12.06,16.28-4.72,48.66,3.54,96.96,22.92,141.72Z"/>
    </g>
    <g>
      <path class="run-cls-3" d="m406.47,831.03c-.11.08-1,2.2-1.21,2.41-27.07,27.99-.1,37.19-2.41,48.25-8.49,17.37-21.38,31.56-32.57,47.04-17.01,7.7-22.95-6.1-25.33-20.5-6.1-36.98,7.77-98.49,47.64-112.17,3.85,3.77,35.53,26.07,35.58,28.34.16,6.5-14.61,1.75-21.71,6.63Z"/>
      <path class="run-cls-19" d="m344.95,908.22c2.38,14.41,8.32,28.2,25.33,20.5-14.58,20.18-53.71,87.58-80.81,47.04-2.86-13.73,45.01-69.48,51.26-69.96.49-.04,1.72,3.03,4.22,2.41Z"/>
      <path class="run-cls-19" d="m344.95,808.11c9.39-9.91,21.71-13.21,32.57-20.5,14.03,17.39-.64,1.35-22.31,41.01-6.53-3.59-5.15-14.76-10.25-20.5Z"/>
    </g>
    <g>
      <g>
        <path class="run-cls-11" d="m483.66,898.57c10.01,23.23,10.55,52.86,12.06,78.4-45.65-13.42-67.39-59.32-92.87-95.28,2.32-11.05-24.66-20.26,2.41-48.25,8.67,12.46,53.4,57.49,60.91,62.72,9.59,6.67,5.02,2.69,17.49,2.41Z"/>
        <path class="run-cls-11" d="m556.03,915.45c-9.27,12.51-43.68,61.63-60.31,61.51-1.51-25.54-2.06-55.17-12.06-78.4l2.41-2.41c11.98,11.37,50.48,16.91,69.96,19.3Z"/>
      </g>
      <path class="run-cls-15" d="m490.9,846.7c-2.7,16.26-2.98,33.07-4.82,49.45l-2.41,2.41c-12.47.28-7.9,4.26-17.49-2.41-7.51-5.22-52.24-50.26-60.91-62.72.2-.21,1.1-2.34,1.21-2.41,28.64,2.53,56.52,8.92,84.43,15.68Z"/>
    </g>
    <path class="run-cls-13" d="m640.46,328.07q-6.63,15.68-13.27,31.36c-32.31,1.21-31.63-7.51-38.6-8.44-2.33-7.42-10.84-12.37-9.65-20.5,5.37-1.86,4.25-13.8,4.82-18.09.94-6.96,2.43-11.93,2.41-19.3,14.47,18.5,27.57,37.63,54.28,34.98Z"/>
    <path class="run-cls-20" d="m576.53,252.08c.71,10.8,6.31,20.99,8.44,31.36-14.5-1.17-24.77-8.49-33.77-19.3-.85-1.92-.85-2.75-1.21-3.62,3.98-15.28,14.35-11.31,26.53-8.44Z"/>
    <g>
      <path class="run-cls-7" d="m691.11,190.57c.78,9.78-.31,19.68-3.62,28.95-18.07-38.89-32.97-41.02-68.15-18.09-19.04,12.41-33.59,30.71-29.55,54.28-4.5-.75-8.86-2.58-13.27-3.62-12.19-2.86-22.56-6.83-26.53,8.44-9.36-23.11-18.15-40.32-8.44-66.34,21.27-57.01,158.24-65.62,133.88-28.34,11.79,8.6,14.47,9.58,15.68,24.73Z"/>
      <path class="run-cls-7" d="m584.97,283.44c.38,1.86,1.52.75,2.41,1.81.75,5.22-1.21,7.43-1.21,7.84.02,7.37-1.47,12.34-2.41,19.3-16.41-14.11-24.23-29.35-32.57-48.25,9,10.81,19.27,18.13,33.77,19.3Z"/>
    </g>
    <g>
      <path class="run-cls-15" d="m406.47,419.73c-7.45,16.85-10.63,42.78-7.24,60.91,6.86,1.88,41.24-16.66,41.01-9.65-.45,13.4-41.55,59.7-55.48,68.75.05,3.62,4.68,9.7,4.82,10.25,4.61,17.7,13.58,54.52,0,66.34-10.51-22.08-18.61-41.53-12.06-4.22.61,3.49,4.34,14.88,7.24,17.49-.94.58-1.8,1.33-3.62,2.41q-8.74-16.28-17.49-32.57c-3.85,13.86-1.83,27.47,5.43,39.8-14.58,4.81-17.89,2.2-24.12-12.66-22.56-53.77,29.18-161.12,61.51-206.85Z"/>
      <path class="run-cls-13" d="m381.14,632.01c-.6.36-4.57,4.76-12.06,7.24-7.25-12.34-9.28-25.94-5.43-39.8q8.74,16.28,17.49,32.57Z"/>
      <g>
        <path class="run-cls-11" d="m446.27,459.54c1.98,2.35,5.13,5.83,8.44,6.03-15.19,31.85-42.33,57.42-65.13,84.43-.14-.55-4.77-6.64-4.82-10.25,13.93-9.05,55.03-55.35,55.48-68.75.24-7.01-34.15,11.53-41.01,9.65-3.39-18.13-.22-44.06,7.24-60.91,5.52-12.47,15-19.56,24.12-28.95,2.56,17.49,5.38,56.51,15.68,68.75Z"/>
        <path class="run-cls-1" d="m436.62,385.96c2.01,24.27,3.84,48.6,9.65,72.37v1.21c-10.3-12.24-13.12-51.26-15.68-68.75,5.92-6.09,5.75-4.56,6.03-4.82Z"/>
      </g>
      <path class="run-cls-13" d="m389.58,616.33l3.62,11.46c-.85,1.06-6.06.33-8.44,1.81-2.9-2.61-6.62-14-7.24-17.49-6.55-37.3,1.55-17.85,12.06,4.22Z"/>
    </g>
    <path class="run-cls-6" d="m589.8,616.33c17.62,8.21,49.82,26.08,63.93,38.6,22.02,19.54,42.2,55.54,55.48,82.02-40.57-9.03-50.64-4.57-85.64,6.03-5.23,1.58-10.47,3.16-15.68,4.82-25.83-20.71-78.81-65.45-95.28-91.06-8.15-12.67-11.54-27.63-19.3-40.41,16.72-14.81,21.81-22.36,47.64-19.3,8.09.96,39.21,14.81,48.85,19.3Z"/>
    <path class="run-cls-11" d="m589.8,255.7c10.98,27.44,35.48,60.46,69.35,55.48,5.69-.84,17.13-7.76,21.11-12.06-6.87,12.33-17.94,22.25-31.36,26.53-.99.31-4.65.96-6.03,1.21-1.18.21-1.3,1.1-2.41,1.21-26.71,2.65-39.81-16.48-54.28-34.98,0-.41,1.95-2.62,1.21-7.84-.89-1.06-2.03.06-2.41-1.81-2.14-10.37-7.73-20.56-8.44-31.36,4.41,1.04,8.76,2.86,13.27,3.62Z"/>
    <g>
      <path class="run-cls-15" d="m886.51,396.82c-7.91,8.65-12.71,19.25-19.3,28.95-2.22-7.69-4.83-11.64-2.41-19.9-2.83,1.39-4.58,7.66-7.24,3.62-3.87-9.83,20.35-30.86-12.66-16.28-6.01-11.52,1.13-18.85-9.05-16.89,1.41-1.43,5.35-6.79,6.03-7.24,19.82-13.03,16.24,1.99,16.89,3.02,1.02,1.62,16.56,1.39,27.74,24.73Z"/>
      <path class="run-cls-11" d="m861.18,435.41c-11.39,13.01-14.75,11.36-16.89,13.87-4.08,4.78-17.66,63.89-56.09,97.09-47.64,41.16-50.21,3.93-72.97-30.15,7.74-7.64,7.86-17.21,21.71-27.74,1.11-.84,2.46-1.62,3.62-2.41,6.74-4.62,40.37-18.48,41.01-25.33,1.69,4.21,22.17-10.15,32.57-16.28,1.36-8.5,1.69-17.56,3.62-25.93q13.57,10.25,27.14,20.5,1.51-13.27,3.02-26.53c7.12,7.6,9.39,12.99,13.27,22.92Z"/>
      <path class="run-cls-16" d="m867.21,425.76c-.51.75-.67,3.53-6.03,9.65-3.88-9.92-6.14-15.31-13.27-22.92-.31-.33.63-2.54-.6-3.62-1.42-1.23-20.13-9.71-24.73-10.86.18-.57-.48-4.02,3.62-11.46,2.39-4.34,6.41-6.95,9.65-10.25,10.17-1.96,3.03,5.37,9.05,16.89,33.01-14.58,8.79,6.45,12.66,16.28,2.66,4.04,4.41-2.23,7.24-3.62-2.42,8.26.2,12.21,2.41,19.9Z"/>
      <path class="run-cls-13" d="m847.91,412.5q-1.51,13.27-3.02,26.53-13.57-10.25-27.14-20.5c1.59-6.89,2.68-13.73,4.82-20.5,4.59,1.15,23.31,9.62,24.73,10.86,1.24,1.08.3,3.29.6,3.62Z"/>
    </g>
    <path class="run-cls-1" d="m634.43,360.63c-.36.04-1.35-1.43-7.24-1.21q6.63-15.68,13.27-31.36c1.11-.11,1.24-1,2.41-1.21,1.28,10.35-4.31,24.13-8.44,33.77Z"/>
    <g>
      <path class="run-cls-8" d="m578.94,330.48c-1.19,8.14,7.32,13.09,9.65,20.5-27.09,3.29-46.39-9.54-57.89,30.76-6.1,21.38-4.59,49.5-4.82,71.76-8.45-2.33-26.46-10.98-33.17-10.86-6.34.12-36.73,13.52-46.44,15.68-5.81-23.77-7.64-48.09-9.65-72.37,7.89-7.52,14.76-16.23,23.52-22.92,27.79-12.97,21.74-22.41,54.28-25.33,9.43-.84,30.96,1.46,32.57,1.21,4.88-.76,15.95-15.54,31.96-8.44Z"/>
      <path class="run-cls-8" d="m569.29,480.04c10.21,19.58,15.57,33.57,33.77,49.45-31.57-6.01-63.46-7.77-92.87-22.92v-4.82c7.73-15.07,12.59-31.11,18.09-47.04.05-.14,2.05.46,2.41-.6,5.4-15.79,8.59-32.67,12.66-48.85,1.12,27.49,13.58,51.09,25.93,74.78Z"/>
      <path class="run-cls-21" d="m603.07,529.49c2.42.46,4.82,1.28,7.24,1.81-16.6,10.13-33.43,20.28-53.07,23.52-3.06-.26-8.32,1.42-9.65,1.21-16.35-2.68-35.32-18.91-45.83-31.36,2.94-5.95,6.37-11.75,8.44-18.09,29.41,15.15,61.3,16.91,92.87,22.92Z"/>
      <path class="run-cls-7" d="m525.87,453.51c1.16.32,1.4,1.18,2.41,1.21-5.51,15.93-10.36,31.97-18.09,47.04q-4.52-25.33-9.05-50.66c-3.34-1.51-41.92,14.74-46.44,14.47-3.32-.2-6.47-3.68-8.44-6.03v-1.21c9.7-2.16,40.09-15.56,46.44-15.68,6.71-.12,24.72,8.53,33.17,10.86Z"/>
      <path class="run-cls-14" d="m687.5,344.95c9.04,22.35,10.87,46.19,10.86,69.96,0,.8.01,1.61,0,2.41-.4,29.21-3.42,38.31-9.65,65.13-1.34,5.77-3.15,11.23-4.82,16.89-13.96,20.59-48.54,51.61-72.37,56.69,3.83-4.81,9.57-7.44,14.47-10.86,11.4-7.95,15.96-11.55,24.12-22.92,31.14-43.35,34.51-136.86,19.3-186.95,16.72,7.17,17.19,9.17,18.09,9.65Z"/>
      <g>
        <path class="run-cls-9" d="m547.58,556.03c5.43,4.64,50.61,22.48,48.25,28.34-.88,2.18-14.14,4.98,4.82,1.81,28.4,4.24,66.39-27.05,37.39,1.81-1.39,1.38-7.48,6.18-9.65,7.84-11.8,8.99-25.09,14.54-38.6,20.5-9.64-4.49-40.76-18.34-48.85-19.3-25.83-3.06-30.92,4.49-47.64,19.3-9.69,8.58-18.08,18-26.53,27.74-11.23-54.5,15.39-79.73,34.98-119.41,10.51,12.45,29.49,28.68,45.83,31.36Z"/>
        <path class="run-cls-5" d="m653.72,654.93c-14.11-12.52-46.31-30.39-63.93-38.6,13.5-5.97,26.8-11.52,38.6-20.5,21.71-7.22,37.57-29.84,47.04-50.66-6.02,36.87-13.37,73.35-21.71,109.76Z"/>
      </g>
      <path class="run-cls-8" d="m676.64,525.87c-12.31,28.29-45.55,55.21-75.99,60.31-18.96,3.17-5.7.37-4.82-1.81,2.37-5.86-42.82-23.71-48.25-28.34,1.33.22,6.59-1.47,9.65-1.21,10.7.92,20.64,1.31,31.36,1.21,7.9-.08,14.71,1.75,22.92,0,23.83-5.08,58.41-36.1,72.37-56.69-1.92,6.49-1.62,13.64-7.24,26.53Z"/>
      <path class="run-cls-21" d="m736.95,488.48c-13.85,10.53-13.97,20.1-21.71,27.74-7.88-11.8-17.95-22.47-26.53-33.77,6.23-26.83,9.25-35.92,9.65-65.13,10.54,2.8-4,24.77,1.21,36.79,1.28,2.94,31.08,29.96,37.39,34.37Z"/>
      <path class="run-cls-14" d="m675.43,545.17c-9.47,20.82-25.33,43.44-47.04,50.66,2.17-1.65,8.26-6.46,9.65-7.84,29-28.86-8.99,2.43-37.39-1.81,30.44-5.09,63.68-32.02,75.99-60.31,2.8,4.97-.23,13.34-1.21,19.3Z"/>
      <path class="run-cls-2" d="m669.4,335.3c15.21,50.09,11.85,143.6-19.3,186.95-34.44-8.93-55.82-15.63-80.81-42.21-12.36-23.69-24.81-47.29-25.93-74.78-4.07,16.18-7.27,33.06-12.66,48.85-.36,1.07-2.37.47-2.41.6-1.01-.02-1.25-.89-2.41-1.21.23-22.26-1.28-50.38,4.82-71.76,11.5-40.29,30.8-27.46,57.89-30.76,6.97.93,6.29,9.65,38.6,8.44,5.89-.22,6.87,1.25,7.24,1.21,6.58-.76,7.9-24.06,10.25-25.33,2.75-1.48,16.98,2.69,18.7-2.41,2.02.82,4,1.54,6.03,2.41Z"/>
      <path class="run-cls-22" d="m781.57,460.74c-.64,6.84-34.27,20.71-41.01,25.33-7.41-31.07-17.23-63.01-35.58-89.25-4.07,10.15-.84,19.99-6.63,18.09.02-23.76-1.82-47.61-10.86-69.96.1.05.19-2.09,1.81-1.21,47.14,25.71,74.12,67.57,92.27,116.99Z"/>
      <path class="run-cls-4" d="m648.9,325.66c-1.22,1.59,6.71,4.1,14.47,7.24-1.72,5.1-15.95.93-18.7,2.41-2.35,1.27-3.68,24.57-10.25,25.33,4.13-9.65,9.73-23.42,8.44-33.77,1.38-.24,5.04-.89,6.03-1.21Z"/>
      <path class="run-cls-2" d="m650.11,522.26c-8.16,11.36-12.72,14.97-24.12,22.92-2.24-3.56,11.66-11.48,6.63-12.06-12.64,10.48-28.36,17.81-44.02,22.92-10.72.1-20.66-.29-31.36-1.21,19.64-3.24,36.47-13.39,53.07-23.52-2.42-.53-4.81-1.35-7.24-1.81-18.2-15.88-23.56-29.87-33.77-49.45,25,26.58,46.37,33.28,80.81,42.21Z"/>
      <path class="run-cls-23" d="m740.57,486.07c-1.16.79-2.51,1.57-3.62,2.41-6.31-4.42-36.11-31.43-37.39-34.37-5.21-12.02,9.34-33.98-1.21-36.79.01-.8,0-1.61,0-2.41,5.8,1.9,2.56-7.94,6.63-18.09,18.35,26.24,28.18,58.19,35.58,89.25Z"/>
      <path class="run-cls-9" d="m625.98,545.17c-4.91,3.42-10.64,6.05-14.47,10.86-8.21,1.75-15.01-.08-22.92,0,15.67-5.11,31.39-12.44,44.02-22.92,5.02.58-8.87,8.51-6.63,12.06Z"/>
    </g>
    <g>
      <path class="run-cls-15" d="m687.5,219.52c12.48,18.74,7.59,63.58-7.24,79.6-3.98,4.3-15.42,11.23-21.11,12.06-33.88,4.98-58.37-28.05-69.35-55.48-4.04-23.57,10.51-41.87,29.55-54.28,35.18-22.93,50.07-20.8,68.15,18.09Z"/>
      <path class="run-cls-12" d="m672.42,248.46c5.36,1.37-5.12,17.4-9.65,15.68-5.91-2.25,4.59-16.97,9.65-15.68Z"/>
    </g>
  </g>
</svg>