<?xml version="1.0" encoding="UTF-8"?>
<svg id="Layer_1" data-name="Layer 1" xmlns="http://www.w3.org/2000/svg" xmlns:xlink="http://www.w3.org/1999/xlink" viewBox="0 0 1504 1504">
  <defs>
    <style>
      .sister-cls-1 {
        fill: url(#linear-gradient);
      }

      .sister-cls-1, .sister-cls-2, .sister-cls-3, .sister-cls-4, .sister-cls-5, .sister-cls-6, .sister-cls-7, .sister-cls-8, .sister-cls-9, .sister-cls-10, .sister-cls-11, .sister-cls-12, .sister-cls-13, .sister-cls-14, .sister-cls-15, .sister-cls-16, .sister-cls-17, .sister-cls-18, .sister-cls-19, .sister-cls-20, .sister-cls-21, .sister-cls-22, .sister-cls-23, .sister-cls-24, .sister-cls-25, .sister-cls-26, .sister-cls-27, .sister-cls-28 {
        stroke-width: 0px;
      }

      .sister-cls-2 {
        fill: url(#linear-gradient-2);
      }

      .sister-cls-3 {
        fill: #f8b967;
      }

      .sister-cls-4 {
        fill: #528362;
      }

      .sister-cls-5 {
        fill: #7c3628;
      }

      .sister-cls-6 {
        fill: #291017;
      }

      .sister-cls-7 {
        fill: #8b272c;
      }

      .sister-cls-8 {
        fill: #385741;
      }

      .sister-cls-9 {
        fill: #343d4f;
      }

      .sister-cls-10 {
        fill: #2e1910;
      }

      .sister-cls-11 {
        fill: #451b12;
      }

      .sister-cls-12 {
        fill: #431721;
      }

      .sister-cls-13 {
        fill: #232936;
      }

      .sister-cls-14 {
        fill: #1f1919;
      }

      .sister-cls-15 {
        fill: #d35556;
      }

      .sister-cls-16 {
        fill: #c86246;
      }

      .sister-cls-17 {
        fill: #da4b62;
      }

      .sister-cls-18 {
        fill: #b05a3b;
      }

      .sister-cls-19 {
        fill: #c03f49;
      }

      .sister-cls-20 {
        fill: #a7313e;
      }

      .sister-cls-21 {
        fill: #9e4532;
      }

      .sister-cls-22 {
        fill: #e69665;
      }

      .sister-cls-23 {
        fill: #faf1e8;
      }

      .sister-cls-24 {
        fill: #fcbcb2;
      }

      .sister-cls-25 {
        fill: #fcfcfc;
      }

      .sister-cls-26 {
        fill: #e96b6c;
      }

      .sister-cls-27 {
        fill: #f5d4b5;
      }

      .sister-cls-28 {
        fill: #f5ce90;
      }
    </style>
    <linearGradient id="linear-gradient" x1="816.74" y1="785.65" x2="673.93" y2="851.25" gradientUnits="userSpaceOnUse">
      <stop offset="0" stop-color="#8a3d2b"/>
      <stop offset="1" stop-color="#e59771"/>
    </linearGradient>
    <linearGradient id="linear-gradient-2" x1="834.98" y1="583.97" x2="625.22" y2="611.01" gradientUnits="userSpaceOnUse">
      <stop offset="0" stop-color="#e69869"/>
      <stop offset="1" stop-color="#fbab92"/>
    </linearGradient>
  </defs>
  <path class="sister-cls-25" d="m1091.28,890.06c.16,20.62-15.43-6.33-35.98-23.5-3.42-2.85-27.55-22.18-29.38-22.03-3.73.31-11.46,17.93-19.83,14.69-27.8-10.78,9.8-40.27,8.81-49.2l-26.44-39.66,36.72-67.56c-5.41-10.28-45.17-70.54-45.53-74.91-.5-5.99,8.99-15.73,8.81-19.09-.13-2.4-22.01-35.26-24.97-41.12,9.78-43.77,31.89-50.81-1.47-88.12-.76-5.61,24.73-35.2-5.88-64.62,8.11-20.25-13.47-55.63-29.38-66.83-9.89-15.1-41.49-41.61-56.55-49.94-16.95-9.38-82.99-31.12-101.34-32.31-70.73-4.61-184.87,48.99-203.42,124.11-18.8,8.14-21.86,30.18-17.62,48.47-32.55,32.82-15.04,57.18-5.88,95.47-7.65,10.61-30.45,34.74-29.38,47,.49,5.54,15.99,31.75,17.62,41.13l-41.12,55.81c9.2,30.14,25.62,57.46,42.59,83.72-41.85,60.37-50.96,44.01-2.94,109.42v1.47c-.28-.35-2.16,1.15-7.34-5.14-19.4-23.52-6.27-37.52-53.61-6.61-18.94,12.37-35.07,29.39-52.14,44.06,4.01-58,5.75-116.21,11.75-174.05.44-4.24,3.04-9.8,5.88-13.22-1.81-119.9,27.9-126.36,35.25-146.88,11.2-31.28-.22-94.04,39.66-132.19,23.83-181.26,216.82-263.14,373.8-179.92,63.8,33.82,85.79,69.77,113.83,134.39,4.45,10.26,7.54,29.49,11.75,39.66,10.93,26.41,35.5,38.39,33.78,126.31l30.84,61.69,1.47,92.53c25.65,41.79,12.13,118.91,17.62,176.98Z"/>
  <path class="sister-cls-14" d="m715.28,421.53c-35.97,22.44-49.7,31.88-76.37,64.62-5.37,1.77-31.14,36.66-32.31,38.92-13.02,25.25-1.26,40.43-8.81,43.33-.12-.48.16-1.07,0-1.47-1.15-2.9-1.09-7.4-5.14-8.81-23.56-8.2-22.84,19.25-31.58,13.22-.51-36.86,3.89-59.45,16.16-94,34.4-34.39,81.31-52.64,127.05-66.09,3.88,3.14,7.09,7.23,11.02,10.28Z"/>
  <path class="sister-cls-14" d="m593.38,634.5c33.81-15.75,10.3,6.78,41.12,58.02,5.34,8.88,14.85,20.38,22.03,27.91,14.89,15.6,36.17,25.74,36.72,34.52-7.46,36.6-9.22,65.13-42.59,88.12-1.58-2.05-4.8-5.07-6.61-7.34-7.28,4.64-13.96,10.13-21.3,14.69,9.64-17.21,22.05-8.1,27.91-31.58.19-.75-.6-11.66,0-15.42,2.97-18.58,6.35-35.91,4.41-55.08q-26.44-45.53-52.87-91.06c-7.85-8.13-14.36-17.77-20.56-27.17,5.18-6.84,4.36,3.81,11.75,4.41Z"/>
  <path class="sister-cls-14" d="m920.91,475.88c13.43,20.96,14.52,69,8.81,91.8,1.67,1.81,2.75,4.12,2.94,6.61-10.45-15.92-28.88-1.45-24.23,2.94,14.66.52,17.25,15.33,11.02,27.17-21.03,22.66,3.94-12.74-19.09-23.5-1.72-7.85,5.8-33.19-4.41-65.36-1.08-3.42-4.1-9.69-5.88-13.22-7.65-33.84-71.08-67.58-70.5-72.7.46-4,41.02,9.71,17.62-3.67,20.36,4.16,73.62,34.18,83.72,49.94Z"/>
  <g>
    <path class="sister-cls-12" d="m926.78,348.09c-18.15-12.77-7.57,5.44-28.64,22.03-10.11,7.96-22.72,9.62-34.52,13.22-3.33-3.81-19.66-24.8-21.3-24.97-4.1-.43-18.02,16.83-20.56,16.16-18.97-27.88-43.4-52-70.5-71.97l-67.56,70.5-20.56-17.63c-15.18,26.63-33.7,42.06-46.27,57.28-23.11,27.99-26.73,28.21-39.66,64.62-12.26,34.55-16.66,57.14-16.16,94,.58,42.43,1.36,29.66,20.56,58.75,6.2,9.4,12.71,19.05,20.56,27.17q26.44,45.53,52.87,91.06c1.94,19.17-1.44,36.5-4.41,55.08q-60.95,33.78-121.91,67.56c-48.02-65.41-38.91-49.05,2.94-109.42-16.97-26.25-33.39-53.58-42.59-83.72l41.12-55.81c-1.63-9.38-17.14-35.58-17.62-41.13-1.08-12.26,21.72-36.39,29.38-47-9.16-38.29-26.68-62.64,5.88-95.47-4.24-18.28-1.18-40.33,17.62-48.47,18.55-75.12,132.69-128.72,203.42-124.11,18.36,1.2,84.4,22.94,101.34,32.31,15.05,8.33,46.66,34.83,56.55,49.94Z"/>
    <path class="sister-cls-6" d="m926.78,348.09c15.91,11.19,37.48,46.58,29.38,66.83,30.6,29.42,5.12,59.02,5.88,64.62,33.36,37.31,11.25,44.36,1.47,88.12,2.96,5.86,24.84,38.72,24.97,41.12.18,3.36-9.31,13.11-8.81,19.09.37,4.37,40.12,64.63,45.53,74.91l-36.72,67.56,26.44,39.66c.99,8.93-36.62,38.43-8.81,49.2l-35.25,36.72c-1.84-1.15-4.03-1.79-5.88-2.94-.26-.17-.65-2.06-4.41-4.41-12.07-7.54-24.57-14.54-36.72-22.03-11.79-7.27-23.44-14.78-35.25-22.03-9.37-5.76-18.24-12.33-27.91-17.62-6-3.29-13.9-7.8-20.56-8.81-6.03-3.65-3.81-5.65-4.41-7.34,25.37,18.58,3.6-11.25,10.28-47.73,4.26-23.23,47.66-65.95,20.56-55.08,16.9-21.11,28.82-45.84,32.31-72.7,2.59-4.46,6.65,2.63,18.36-3.67,24.52-13.19,16.02-49.35,15.42-57.28-.19-2.49-1.26-4.8-2.94-6.61,5.71-22.8,4.61-70.84-8.81-91.8-4.07-36.45-24.89-51.75-42.59-73.44-4.97-6.09-9.62-13.31-14.69-19.09,11.79-3.6,24.41-5.26,34.52-13.22,21.07-16.59,10.49-34.8,28.64-22.03Z"/>
    <path class="sister-cls-6" d="m622.75,850.41c-3.57,2.22-6.8,5.15-10.28,7.34-11.44,7.2-22.45,14.77-33.78,22.03-9.54,6.11-20.14,10.95-29.38,17.62-8.63-6.79-13.8-16.61-20.56-24.97v-1.47q60.95-33.78,121.91-67.56c-.6,3.76.19,14.67,0,15.42-5.85,23.48-18.27,14.36-27.91,31.58Z"/>
    <path class="sister-cls-12" d="m597.78,566.94c-33.34-25.65-42.38,29.09-4.41,67.56-7.39-.6-6.57-11.25-11.75-4.41-19.2-29.09-19.98-16.32-20.56-58.75,8.74,6.03,8.01-21.41,31.58-13.22,4.06,1.41,3.99,5.91,5.14,8.81Z"/>
    <path class="sister-cls-14" d="m835.72,810.75c-5.4-15.41-8.59-45.47-11.75-63.16.26-.17.75-1.81,4.41-4.41,13.6-9.65,27.77-22.24,38.19-35.25,27.1-10.87-16.31,31.85-20.56,55.08-6.69,36.48,15.08,66.31-10.28,47.73Z"/>
  </g>
  <g>
    <path class="sister-cls-27" d="m863.62,383.34c5.06,5.79,9.71,13,14.69,19.09-26.32-7.22-51.16-21.32-79.31-19.09-7.45-12.58-35.03-38.52-45.53-52.14l-2.94.73c-4.36,4.96-7.61,11.11-11.75,16.16-10.27,12.53-20.05,25.49-30.11,38.19-17.78-11.58-59.04,7.48-76.38,17.62-3.22,1.89-13.33,12.85-15.42,8.81,12.57-15.23,31.09-30.65,46.27-57.28l20.56,17.63,67.56-70.5c27.1,19.97,51.53,44.09,70.5,71.97,2.54.67,16.47-16.58,20.56-16.16,1.63.17,17.96,21.16,21.3,24.97Z"/>
    <path class="sister-cls-15" d="m737.31,398.03c-7.74-2.71-24.78-10.15-31.58-7.34-5.25,2.17-8.06,10.79-5.14,15.42,1.03,1.64,6.75,1.93,11.75,5.14l14.69,20.56c-3.89-3.44-7.65-7.1-11.75-10.28-3.93-3.05-7.14-7.14-11.02-10.28-45.74,13.46-92.65,31.7-127.05,66.09,12.92-36.42,16.55-36.64,39.66-64.62,2.09,4.04,12.2-6.93,15.42-8.81,17.33-10.15,58.59-29.21,76.38-17.62,10.06-12.7,19.84-25.66,30.11-38.19q-.73,24.97-1.47,49.94Z"/>
    <path class="sister-cls-20" d="m878.31,402.44c17.71,21.69,38.52,36.99,42.59,73.44-10.09-15.76-63.36-45.78-83.72-49.94-13.65-7.81-29.35-7.72-44.06-11.75,4.66-5.05,9.08-9.91,14.69-13.95-1.09-1.99-3.45-1.66-4.41-3.67-6.97-14.69-4.05-12.62-4.41-13.22,28.15-2.23,52.99,11.88,79.31,19.09Z"/>
    <g>
      <path class="sister-cls-15" d="m803.41,396.56c.95,2.01,3.32,1.69,4.41,3.67-5.61,4.04-10.03,8.91-14.69,13.95-2.33,2.53-3.88,5.08-5.88,7.34-10.64,12.11-22.96,22.79-31.58,36.72-10.38-7.93-18.87-17.8-28.64-26.44l-14.69-20.56c6.24,4.01,35.79,22.65,40.39,20.56,2.68-1.22,18.5-17.76-5.88-33.78-1.05-.41-4.89,1.63-9.55,0q.73-24.97,1.47-49.94c4.14-5.05,7.39-11.19,11.75-16.16,9.68,17.35,3.58,40.71,7.34,62.42l45.53,2.2Z"/>
      <path class="sister-cls-19" d="m799,383.34c.35.6-2.57-1.48,4.41,13.22l-45.53-2.2c-3.76-21.71,2.34-45.07-7.34-62.42l2.94-.73c10.5,13.62,38.08,39.56,45.53,52.14Z"/>
      <path class="sister-cls-26" d="m737.31,398.03c4.66,1.63,8.49-.41,9.55,0,24.38,16.02,8.56,32.56,5.88,33.78-4.6,2.08-34.15-16.55-40.39-20.56-5-3.21-10.72-3.5-11.75-5.14-2.92-4.63-.11-13.26,5.14-15.42,6.8-2.8,23.84,4.63,31.58,7.34Z"/>
    </g>
  </g>
  <g>
    <path class="sister-cls-23" d="m528.75,872.44c6.76,8.36,11.93,18.18,20.56,24.97.1,1.2-.17,2.71,0,2.94-9.69.98-68.62,36.48-71.23,39.66-19.09,48.13-23.49,100.94-43.33,149.08.42,5.08,22.15,12.3,36.72,21.3,17.19,10.61,44.21,31.92,59.48,39.66,52.63,26.64,149.75,30.73,209.3,30.84,9.82,11.94,24.46,25.53,34.52,38.19,3.54-.02,25.06-39.78,33.05-41.12,61.3-.63,107.31-17.89,160.83-45.53,39.54-9.06,75.54-27.04,110.89-46.27-9.41-48.18-16.22-96.86-35.25-142.47-4.88-8.38-8.58-8.04-10.28-9.55-18.09-15.96-42.77-25.49-63.16-38.19l35.25-36.72c8.37,3.24,16.09-14.38,19.83-14.69,1.83-.15,25.96,19.18,29.38,22.03,20.55,17.17,36.15,44.12,35.98,23.5,5.44,57.41,37.71,186.4,41.12,262.17q-25.34-9.91-50.67-19.83c-18.78,12.35-59.66,29.95-74.91,41.12-31.67,23.21-18.32,40.68-118.97,55.81-87.52,13.16-237.73,11.36-323.12-10.28-51.16-12.97-46.61-25.45-73.44-45.53-18.45-13.82-50.42-27.37-70.5-41.12q-22.03,10.28-44.06,20.56c6.9-83.08,29.2-165.08,38.92-248.22,17.07-14.68,33.2-31.69,52.14-44.06,47.34-30.91,34.21-16.91,53.61,6.61,5.19,6.29,7.06,4.79,7.34,5.14Z"/>
    <g>
      <path class="sister-cls-9" d="m549.31,900.34c29.12,37.77,44.36,71.16,98.41,96.94,10.64,54.72,36.91,107.24,69.03,152.75-8.91-5.67-30.65.89-43.33,1.47-64.98,2.95-130.29-2.4-179.92-49.2l-3.67-81.52q-9.18,44.8-18.36,89.59c-14.57-8.99-36.3-16.22-36.72-21.3,19.84-48.13,24.24-100.95,43.33-149.08,2.62-3.17,61.54-38.67,71.23-39.66Z"/>
      <path class="sister-cls-9" d="m970.84,895.94c20.39,12.69,45.07,22.23,63.16,38.19,2.67,9.85.41,33.8-1.47,44.8-4.91,28.72-25.93,100.93-42.59,123.38-26.59,35.83-105.89,48.62-148.34,47,33.02-44.28,39.21-101.5,42.59-154.95,27.1-18.48,63.61-72.35,80.78-101.34,1.84,1.15,4.03,1.79,5.88,2.94Z"/>
      <path class="sister-cls-13" d="m807.81,1177.94c.64-9.64,17.53-28.06,26.44-44.8,19.62-36.9,38.51-89.4,35.25-131.45,3.59-1.67,12.26-5.69,14.69-7.34-3.38,53.46-9.57,110.67-42.59,154.95,42.46,1.62,121.75-11.17,148.34-47,16.66-22.45,37.68-94.65,42.59-123.38,1.88-11,4.14-34.95,1.47-44.8,1.7,1.5,5.4,1.17,10.28,9.55,19.03,45.61,25.84,94.29,35.25,142.47-35.35,19.23-71.35,37.2-110.89,46.27-53.52,27.64-99.53,44.9-160.83,45.53Z"/>
      <path class="sister-cls-13" d="m716.75,1150.03c3.02,4.29,20.23,26.87,23.5,30.84-59.55-.12-156.67-4.21-209.3-30.84-15.28-7.73-42.29-29.04-59.48-39.66q9.18-44.8,18.36-89.59l3.67,81.52c49.63,46.8,114.94,52.16,179.92,49.2,12.68-.58,34.42-7.14,43.33-1.47Z"/>
      <path class="sister-cls-27" d="m756.41,1010.5c1.63.52,2.6,2.14,5.88,1.47,9.77,2.18,66.11,1.54,76.38,0,5.66,15.99-7.04,6.94-16.16,12.48,7.63,15.14-12.6,15.13-4.41,35.25-18.43,12.46-31.07,37.19-44.8,55.08-8.28-5.25-47.68-55.08-51.41-55.81-2.97-.59-14.9,6.43-15.42,5.14,21.21-51.68-24.74-8.23-2.94-44.06-1.61-5.01-24.18,1.7-22.03-9.55.15,0-.45-2.98.73-2.94,10.72.35,21.62-.62,32.31,0,9.65.56,39.38,9.04,41.86,2.94Z"/>
      <g>
        <path class="sister-cls-28" d="m578.69,879.78c37.99,55.45,61.28,76.72,121.17,105.75,6.07,2.94,53.6,24.02,56.55,24.97-2.48,6.11-32.21-2.38-41.86-2.94-10.7-.62-21.59.35-32.31,0-1.18-.04-.58,2.94-.73,2.94-2.32-.09-29.29-11.08-33.78-13.22-54.05-25.78-69.28-59.16-98.41-96.94-.17-.22.1-1.74,0-2.94,9.24-6.67,19.84-11.52,29.38-17.62Z"/>
        <path class="sister-cls-3" d="m888.59,844.53c-6.24,17.48-16.51,37.99-29.38,51.41-33.06,34.47-104.52,36.01-149.08,29.38-46.66-6.95-73.79-27.26-97.67-67.56,3.49-2.19,6.71-5.13,10.28-7.34,7.34-4.56,14.02-10.05,21.3-14.69,1.8,2.27,5.03,5.29,6.61,7.34,1.15,1.49,7.02,16.93,24.23,27.91,34.82,22.2,100.22,21.84,137.33,5.88,34.56,10.26,40.25,35.18,63.16-8.08,16.78-31.67,4.09-21.55-14.69-41.86,9.67,5.3,18.54,11.87,27.91,17.62Z"/>
        <path class="sister-cls-3" d="m964.97,893c-17.17,29-53.68,82.87-80.78,101.34-2.43,1.66-11.1,5.68-14.69,7.34-6.76,3.14-24.12,9.28-30.84,10.28-10.26,1.54-66.6,2.18-76.38,0,54.68-25.73,102.13-42.04,138.06-94,.06-.09.33.26,1.47-1.47,5.77,8.18,21.52,14.09,31.58,19.09,2.69-.53,27.86-40.04,27.17-47,3.75,2.35,4.14,4.24,4.41,4.41Z"/>
        <path class="sister-cls-8" d="m923.84,866.56c-6.5,19.83-10.43,32.27-22.03,49.94-1.14,1.73-1.41,1.38-1.47,1.47-12.81-7.58-33.2-13.77-41.12-22.03,12.87-13.41,23.14-33.93,29.38-51.41,11.81,7.25,23.46,14.76,35.25,22.03Z"/>
        <path class="sister-cls-3" d="m860.69,826.91c18.78,20.31,31.46,10.18,14.69,41.86-22.91,43.26-28.6,18.34-63.16,8.08,15.97-6.87,29.61-17.29,41.12-30.11l-13.22-28.64c6.66,1.02,14.56,5.52,20.56,8.81Z"/>
        <path class="sister-cls-3" d="m960.56,888.59c.69,6.96-24.48,46.47-27.17,47-10.06-5-25.8-10.91-31.58-19.09,11.61-17.66,15.53-30.11,22.03-49.94,12.15,7.49,24.65,14.49,36.72,22.03Z"/>
        <g>
          <path class="sister-cls-4" d="m612.47,857.75c23.88,40.3,51.01,60.61,97.67,67.56,44.56,6.64,116.01,5.09,149.08-29.38,7.93,8.26,28.31,14.45,41.12,22.03-35.93,51.96-83.38,68.27-138.06,94-3.27.68-4.24-.94-5.88-1.47-2.94-.94-50.48-22.03-56.55-24.97-59.89-29.03-83.19-50.3-121.17-105.75,11.33-7.26,22.34-14.83,33.78-22.03Z"/>
          <path class="sister-cls-27" d="m736.58,934.12c2.09-.69,41.93-.56,44.06,0,11.82,3.1-17.4,32.54-20.56,38.19-3.83-6.08-34.2-34.67-23.5-38.19Z"/>
        </g>
      </g>
    </g>
  </g>
  <g>
    <path class="sister-cls-15" d="m681.5,1010.5c-2.15,11.25,20.42,4.53,22.03,9.55-21.8,35.84,24.15-7.62,2.94,44.06.52,1.29,12.45-5.73,15.42-5.14,3.72.73,43.13,50.56,51.41,55.81,13.73-17.89,26.37-42.62,44.8-55.08-8.19-20.12,12.04-20.11,4.41-35.25,9.12-5.54,21.81,3.5,16.16-12.48,6.72-1.01,24.08-7.14,30.84-10.28,3.26,42.06-15.63,94.56-35.25,131.45-8.9,16.74-25.8,35.15-26.44,44.8-7.99,1.34-29.51,41.11-33.05,41.12-10.06-12.66-24.7-26.25-34.52-38.19-3.27-3.98-20.48-26.56-23.5-30.84-32.12-45.51-58.39-98.03-69.03-152.75,4.49,2.14,31.46,13.13,33.78,13.22Z"/>
    <path class="sister-cls-1" d="m823.97,747.59c3.16,17.68,6.35,47.75,11.75,63.16.59,1.69-1.63,3.7,4.41,7.34l13.22,28.64c-11.51,12.82-25.15,23.24-41.12,30.11-37.11,15.96-102.51,16.33-137.33-5.88-17.22-10.98-23.08-26.41-24.23-27.91,33.37-23,35.14-51.53,42.59-88.12,2.38-.22.4-3.21,3.67-2.94,5.51.46,33.3,24.97,77.11,17.62,11.67-1.96,39.58-15.28,49.94-22.03Z"/>
    <path class="sister-cls-18" d="m891.53,518.47c2.2.97.97,1.59,2.2,2.94l2.2-5.88c10.2,32.16,2.68,57.51,4.41,65.36,23.03,10.76-1.94,46.16,19.09,23.5,6.24-11.84,3.65-26.65-11.02-27.17-4.64-4.39,13.78-18.86,24.23-2.94.6,7.93,9.1,44.09-15.42,57.28-11.71,6.3-15.77-.79-18.36,3.67-3.49,26.87-15.41,51.6-32.31,72.7-10.41,13.01-24.58,25.6-38.19,35.25-.83-5.45,10.46-10.31,15.42-14.69,22.39-19.76,48.79-58.07,49.2-88.12,4.09-4.95,16.11-26.23,14.69-31.58-1.29-4.85-3.93,1.75-4.41,0-1.74-6.37-5.81-42.93-7.34-45.53-1.05-1.53-3.77-.31-4.41-.73-5.82-3.85-11.09-4.51-17.62-5.88-9.89-22.55-35.98-25.45-57.28-19.09,30.45-29.84,77.07-3.13,67.56-23.5,2.8,1.49,3.34,2.65,7.34,4.41Z"/>
    <path class="sister-cls-18" d="m828.38,743.19c-3.66,2.6-4.15,4.24-4.41,4.41-10.36,6.75-38.27,20.07-49.94,22.03,19.55-22.15,45.03-30.5,66.09-55.08,13.19-15.39,27.69-41.67,33.78-60.95,9.9-1.43,13.58-6.55,19.09-13.22-.42,30.05-26.81,68.36-49.2,88.12-4.96,4.38-16.25,9.23-15.42,14.69Z"/>
    <path class="sister-cls-16" d="m893,640.38c-5.52,6.67-9.2,11.79-19.09,13.22,3.71-11.73,7.56-29.91,7.34-41.86,0-.26-2.91-4.1-2.94-4.41-.41-4.06,2.96-17.1,0-20.56-2.09-2.45-4.73,1.09-5.88,0-2.21-2.11,6.34-11.06-1.47-12.48,2.04-.9,1.37-1.42,1.47-1.47,6.51-3.06,12.93-6.57,19.09-10.28.64.42,3.36-.79,4.41.73,1.54,2.61,5.6,39.16,7.34,45.53.48,1.75,3.11-4.85,4.41,0,1.42,5.35-10.6,26.63-14.69,31.58Z"/>
    <path class="sister-cls-22" d="m873.91,556.66c-14.43-3.01-27.01-5.05-41.86,0-7.82,2.66-25.82,16.77-19.83,22.03.2.17,4.15,2.86,4.41,2.94v1.47c-1.94-.34-1.03,2.02-2.2,2.94-6.73-1.99-10.03-27.51-9.55-31.58.53-4.5,8.19-13.4,11.75-16.89,21.3-6.36,47.39-3.45,57.28,19.09Z"/>
    <g>
      <path class="sister-cls-10" d="m873.91,556.66c6.53,1.36,11.81,2.02,17.62,5.88-6.17,3.71-12.58,7.22-19.09,10.28-1.89-1.45-13.05-8.04-13.95-7.34-.78.6-2.07,10.91-2.2,13.22-2.96.79-16.71,9.21-24.97,1.47-6.42-6.02.57-24.56-19.09-1.47-5.99-5.27,12.01-19.37,19.83-22.03,14.85-5.05,27.43-3.01,41.86,0Z"/>
      <path class="sister-cls-23" d="m831.31,580.16c-1.36,3.32-11.88,2.3-14.69,1.47-.25-.08-4.21-2.76-4.41-2.94,19.66-23.09,12.68-4.55,19.09,1.47Z"/>
      <path class="sister-cls-23" d="m872.44,572.81c-.09.04.57.57-1.47,1.47-9.52,4.18-12.85,3.92-14.69,4.41.13-2.31,1.42-12.62,2.2-13.22.9-.69,12.06,5.9,13.95,7.34Z"/>
    </g>
    <g>
      <path class="sister-cls-2" d="m727.03,431.81c9.77,8.64,18.26,18.51,28.64,26.44,8.62-13.93,20.93-24.61,31.58-36.72,35.93,20.14,83.44,42.2,102.81,80.78,1.77,3.53,4.79,9.8,5.88,13.22l-2.2,5.88c-1.24-1.34,0-1.97-2.2-2.94-10.37-44.46-84.02-24.18-85.19-16.89-.13.84,1.78,4.94,2.2,5.14,4.54,2.14,33.64-15.07,75.64,7.34,9.51,20.37-37.11-6.34-67.56,23.5-3.56,3.49-11.22,12.39-11.75,16.89-.48,4.07,2.82,29.59,9.55,31.58,1.18-.92.26-3.28,2.2-2.94.24.04,1.62,4.77,4.41,2.2l-4.41-2.2v-1.47c2.8.83,13.33,1.85,14.69-1.47,8.26,7.74,22-.68,24.97-1.47,1.83-.49,5.17-.22,14.69-4.41,7.81,1.42-.74,10.37,1.47,12.48,1.14,1.09,3.78-2.45,5.88,0,2.96,3.46-.41,16.51,0,20.56.03.3,2.93,4.14,2.94,4.41.21,11.95-3.64,30.13-7.34,41.86-6.09,19.28-20.59,45.57-33.78,60.95-21.07,24.58-46.55,32.93-66.09,55.08-43.8,7.35-71.6-17.17-77.11-17.62-3.27-.27-1.29,2.72-3.67,2.94-.55-8.78-21.83-18.91-36.72-34.52-7.19-7.53-16.69-19.03-22.03-27.91-30.82-51.23-7.31-73.76-41.12-58.02-37.97-38.48-28.94-93.21,4.41-67.56.16.39-.12.99,0,1.47,5.93,23.02.51,2.23-11.02,5.88-11.18,3.54-4,31.49,12.48,33.05-18.73-33.13,3.4-21.54,4.41-23.5,2.47-4.79-2.84-36.39,0-47,1.52-5.71,29.26-43.31,35.25-50.67,26.67-32.74,40.4-42.19,76.37-64.62,4.1,3.18,7.86,6.84,11.75,10.28Z"/>
      <g>
        <path class="sister-cls-6" d="m837.19,425.94c23.4,13.38-17.17-.33-17.62,3.67-.58,5.12,62.85,38.86,70.5,72.7-19.37-38.58-66.88-60.64-102.81-80.78,1.99-2.27,3.54-4.81,5.88-7.34,14.71,4.03,30.41,3.94,44.06,11.75Z"/>
        <g>
          <path class="sister-cls-10" d="m638.91,486.16c-5.99,7.36-33.73,44.97-35.25,50.67-2.84,10.61,2.47,42.21,0,47-1.01,1.96-23.13-9.63-4.41,23.5-16.49-1.55-23.66-29.51-12.48-33.05,11.52-3.65,16.95,17.14,11.02-5.88,7.55-2.9-4.21-18.08,8.81-43.33,1.17-2.27,26.95-37.16,32.31-38.92Z"/>
          <path class="sister-cls-10" d="m891.53,518.47c-4.01-1.75-4.55-2.91-7.34-4.41-42-22.41-71.1-5.2-75.64-7.34-.42-.2-2.34-4.3-2.2-5.14,1.17-7.29,74.82-27.57,85.19,16.89Z"/>
          <path class="sister-cls-22" d="m791.66,631.56c-9.45,9.48-11.61,8.75-23.5,11.75,3.36-10.83-6.26-1.02-7.34-6.61,6.95-18.82,1.72-43.94,4.41-63.16,2.18-15.6,9.21-15.34,9.55-25.7-1.75,41.8,16.66,71.1,18.36,78.58.06.26-1.95.55-1.47,5.14Z"/>
          <path class="sister-cls-10" d="m669.02,489.09c11.85-1.3,32.93.79,41.86,9.55-.6,3.85-32.53,1.26-50.67,3.67-7.46.99-41.67,14.53-19.09-2.94,3.49-2.7,23.33-9.78,27.91-10.28Z"/>
          <path class="sister-cls-22" d="m664.61,522.88c44.11-6.12,68.12,49.45,35.25,14.69-28.17-14.31-64.99,4.65-49.94-8.81.84-.75,13.26-5.68,14.69-5.88Z"/>
          <path class="sister-cls-5" d="m791.66,631.56c.02.18,1.25-.1,2.94,2.2-1.47,25.88-47.79,17.55-37.45,11.02,3.81-2.41,7.78-.65,11.02-1.47,11.89-3,14.05-2.27,23.5-11.75Z"/>
          <g>
            <path class="sister-cls-6" d="m713.81,575.75c-16.08-11.51-18.58-16-20.56,2.94-6.75.46-12.8,2-19.83,1.47-.43-.03-6.08-2.58-8.08-2.94-2.54-7.67.59-14.11-2.2-14.69-3.63-.75-13.91,6.59-18.36,7.34-3.07-1.83-9.05-4.38-11.02-5.88-10.67-8.08,3.78-2.13,8.81-2.94,10.52-1.68,21.68-10.79,39.66-8.81,16.72,1.84,41.97,25.29,31.58,23.5Z"/>
            <path class="sister-cls-25" d="m665.34,577.22c-.62-.11-1.49,2.86-12.48-1.47-2.95-1.16-5.45-4.32-8.08-5.88,4.45-.75,14.73-8.09,18.36-7.34,2.8.58-.34,7.02,2.2,14.69Z"/>
            <path class="sister-cls-23" d="m713.81,575.75c-6.43,2-13.85,2.48-20.56,2.94,1.99-18.94,4.49-14.45,20.56-2.94Z"/>
          </g>
          <path class="sister-cls-11" d="m733.64,634.5c5.75-2.14,15.95,4.33,15.42,6.61-1.68,7.2-23.45-3.63-15.42-6.61Z"/>
          <path class="sister-cls-22" d="m816.62,583.09l4.41,2.2c-2.79,2.57-4.16-2.16-4.41-2.2Z"/>
          <g>
            <path class="sister-cls-26" d="m756.41,674.16c-3.96,5.84,6.15,3.95,9.55,5.88,2.95,1.68,10.05,10.15,12.48,10.28-3.7,2.11-5.36.9-2.94,4.41-23.99,3.4-50.12-11.16-43.33-1.47.57.81,15.95,8.54,17.62,8.81,15.55,2.54,25.39-3.52,38.92-8.81,6.16-2.41,12.48-5.01,19.09-5.88-.1.13.46.6-1.47,2.94-7.86,4.3-17.5,15.06-24.23,19.09-13.55,8.11-23.2,10.59-38.92,4.41-15.9-9.49-29.05-32.62-36.72-33.78v-2.94c16.67,1.99,20.28-3.8,27.17-4.41,12.24-1.08,20.7,1.63,22.77,1.47Z"/>
            <path class="sister-cls-17" d="m784.31,669.75c-.13,6.28,5.72,11.11,5.88,11.75,1.56,6.6-6.54,9.1-11.75,8.81-2.43-.13-9.53-8.61-12.48-10.28-3.4-1.93-13.51-.04-9.55-5.88,3.46-.28,7.05-5.27,27.91-4.41Z"/>
            <path class="sister-cls-7" d="m807.81,687.38c-6.61.87-12.94,3.47-19.09,5.88-4.57-.6-8.79.84-13.22,1.47-2.42-3.51-.76-2.3,2.94-4.41,5.21.29,13.31-2.22,11.75-8.81l16.16-7.34c4.26.83,10.27-1.92,13.22,2.2.15,1.08-10.45,9.36-11.75,11.02Z"/>
            <path class="sister-cls-21" d="m743.19,713.81c15.72,6.19,25.37,3.7,38.92-4.41,6.74-4.03,16.37-14.79,24.23-19.09-18.79,22.73-31.77,42.22-63.16,23.5Z"/>
            <path class="sister-cls-17" d="m806.34,674.16l-16.16,7.34c-.15-.64-6-5.47-5.88-11.75,7.6.32,14.67,2.97,22.03,4.41Z"/>
            <path class="sister-cls-21" d="m706.47,677.09v2.94c-8.45-1.28-16.99,10.1-14.69-2.2,1.77-9.46,5.66-1.81,14.69-.73Z"/>
            <path class="sister-cls-24" d="m775.5,694.72c4.42-.63,8.65-2.07,13.22-1.47-13.53,5.29-23.38,11.35-38.92,8.81-1.67-.27-17.06-8.01-17.62-8.81-6.79-9.69,19.34,4.87,43.33,1.47Z"/>
          </g>
        </g>
      </g>
    </g>
  </g>
</svg>