<?xml version="1.0" encoding="UTF-8"?>
<svg id="Layer_1" data-name="Layer 1" xmlns="http://www.w3.org/2000/svg" viewBox="0 0 1242.66 1242.66">
  <defs>
    <style>
      .sow-cls-1 {
        fill: #f3e8aa;
      }

      .sow-cls-1, .sow-cls-2, .sow-cls-3, .sow-cls-4, .sow-cls-5, .sow-cls-6, .sow-cls-7, .sow-cls-8, .sow-cls-9, .sow-cls-10, .sow-cls-11, .sow-cls-12, .sow-cls-13, .sow-cls-14, .sow-cls-15, .sow-cls-16, .sow-cls-17, .sow-cls-18, .sow-cls-19, .sow-cls-20, .sow-cls-21, .sow-cls-22, .sow-cls-23, .sow-cls-24, .sow-cls-25, .sow-cls-26, .sow-cls-27 {
        stroke-width: 0px;
      }

      .sow-cls-2 {
        fill: #fabb7d;
      }

      .sow-cls-3 {
        fill: #5e9985;
      }

      .sow-cls-4 {
        fill: #760f14;
      }

      .sow-cls-5 {
        fill: #5e1413;
      }

      .sow-cls-6 {
        fill: #2b0b06;
      }

      .sow-cls-7 {
        fill: #852c21;
      }

      .sow-cls-8 {
        fill: #1d100c;
      }

      .sow-cls-9 {
        fill: #40816d;
      }

      .sow-cls-10 {
        fill: #073329;
      }

      .sow-cls-11 {
        fill: #410d08;
      }

      .sow-cls-12 {
        fill: #080806;
      }

      .sow-cls-13 {
        fill: #091712;
      }

      .sow-cls-14 {
        fill: #20180d;
      }

      .sow-cls-15 {
        fill: #1f4b40;
      }

      .sow-cls-16 {
        fill: #cc2c2b;
      }

      .sow-cls-17 {
        fill: #b04f31;
      }

      .sow-cls-18 {
        fill: #b5d0bf;
      }

      .sow-cls-19 {
        fill: #9e3927;
      }

      .sow-cls-20 {
        fill: #8c6d5a;
      }

      .sow-cls-21 {
        fill: #bb383e;
      }

      .sow-cls-22 {
        fill: #99222b;
      }

      .sow-cls-23 {
        fill: #fefefe;
      }

      .sow-cls-24 {
        fill: #f27a62;
      }

      .sow-cls-25 {
        fill: #e93e32;
      }

      .sow-cls-26 {
        fill: #f6d395;
      }

      .sow-cls-27 {
        fill: #05201b;
      }
    </style>
  </defs>
  <path class="sow-cls-1" d="m514.54,1040c4.58,6.64,7.93,14.46,13.35,20.63-5.61,2.12-12.56,1.88-18.2,0v-1.21q-10.32-17.6-20.63-35.19c1.24-3.32,6.94-6.44,8.49-8.49,4.14,9.06,11.48,16.28,16.99,24.27Z"/>
  <path class="sow-cls-26" d="m635.89,1040c-.21,1.42,1.75,3.39,1.21,8.49-1.06,10.1-3.86,20.19-4.85,30.34-1.5-.7-8.01-3.01-8.49-4.25-.48-1.24,1.03-3.06,1.21-6.67.22-4.27,2.15-9.02,2.43-10.92.41-2.83.82-5.67,1.21-8.49.56-4.07,1.83-8.15,2.43-12.14l4.85,3.64Z"/>
  <g>
    <path class="sow-cls-7" d="m270.62,1030.3c21.59,13.97,38.9,27.08,55.22,47.33,7.55-3.08,15.04-6.3,22.45-9.71,2.06,5.95-24.88,25.65-15.17,29.12,3.97,1.42,69.84-25.95,37.01-41.26-7.09-3.31-54.71-13.04-27.3-13.35,36.81-.41,60.72,25.52,91.62,16.99q19.11,1.21,38.23,2.43c1.84-7.23,14.55-3.4,18.81-9.71,2.37,1.03,2.27,2.35,2.43,2.43-23.3,9.01-23.89,1.62-3.03,16.99l18.81-10.92c5.65,1.88,12.59,2.12,18.2,0,.66-.25,2.13-.96,2.43-1.21.35,4.98,20.96-2,39.44,0,18.88,2.05,42.61,17.27,60.68,24.27,2.07.72,2.35-3.31,3.03-3.64,9.54-4.67,16.16-13.69,25.48-20.63,16.62,2.92,33.68.27,50.36,1.21,6.45.37,22.2,5.55,24.88,1.21,1.27.29,1.91,1.77,4.25,1.21,2.06-1.39,5.12-5.84,5.46-6.07,2.03-1.33,3.91-2.5,6.07-3.64,19.59,8.43,32.34,4.84,21.84,0,1.12-4.69,9.13-6.74,12.14-8.49-.51,1.33-2.28,2.95-.61,3.64,3.93,1.63,45.14-10.91,84.34,1.21h4.85c30.12,17.48,24.25,11.2,47.33,0,19.49-9.46,29.66-19.11,54-13.35,27.2,6.44,29.75,42.76,43.69,38.83,16.16-4.55,4.28-17.86-3.03-24.27,3.11,2.53,10.49,6.53,12.14,10.32,14.17,32.66-111.19,17.4-117.11,20.02-3.51,1.56-.93,8.94-1.82,11.53-3.81,11.1-114.89,20.01-131.67,21.24-105.68,7.75-277.54,7.6-382.27-3.64-107.81-11.58-75.94-23.35-83.73-29.12-18.67.31-98.17,7.71-106.18-10.92,8.95,7.29,14.84-11.89,28.52-23.06,6.05-4.94,18.64-9.27,20.02-13.35,5.98-1.42,12.02-3.38,18.2-3.64Z"/>
    <path class="sow-cls-6" d="m382.27,998.74c11.87,5.78,25.36,6.8,37.62,10.92,19.28,6.49,22.54,12.82,24.88,13.35,5.62,1.27,16.72-1.29,17.6-1.21.43.04,1.37,1.25,8.49,1.21,5.19-.03,11.52,2.53,16.99,1.21h1.21q10.32,17.6,20.63,35.19c-6-3.62-8.29-1.14-15.78-4.85-.15-.08-.06-1.4-2.43-2.43-10.79-4.67-15.92-11.4-38.23-3.64-5,1.74-16.87,10.39-18.81,10.92-30.9,8.53-54.81-17.4-91.62-16.99-27.4.3,20.21,10.04,27.3,13.35-5.8,5.02-14.81,8.9-21.84,12.14-7.41,3.41-14.9,6.63-22.45,9.71-16.31-20.25-33.63-33.36-55.22-47.33,29.16-1.25,50.84,10.17,54,9.71,19.19-13.73,35.51-32.06,57.64-41.26Z"/>
    <path class="sow-cls-19" d="m252.42,1033.94c-1.38,4.08-13.97,8.41-20.02,13.35-13.68,11.17-19.57,30.34-28.52,23.06-6.73-15.64,33.03-32.71,48.54-36.41Z"/>
    <g>
      <path class="sow-cls-6" d="m787.59,974.47c3.41.69,34.06,24.21,63.1,27.91,23.66,11.13,46.93,23.19,67.96,38.83-.12.15-1.21,3.45-1.21,3.64l-44.9,4.85h-4.85c-30.52-22.77-51.7-23.56-83.73-4.85-3.01,1.76-11.02,3.8-12.14,8.49-4.19-1.93-10.98-.76-15.17-3.64-5-1.09-6.34,3.46-6.67,3.64-2.16,1.14-4.04,2.31-6.07,3.64v-21.24c-5.57-3.04-5.78.57-7.28.61,1.86-3.74,4.75-7.66,7.28-10.92,10.28-13.25,28.21-34.01,32.77-49.76,3.82.44,7.02-2,10.92-1.21Z"/>
      <path class="sow-cls-8" d="m683.22,1029.08c5.4,2.83,45.33,7.47,53.4,7.28,1.5-.03,1.71-3.65,7.28-.61v21.24c-.34.22-3.4,4.68-5.46,6.07-2.33.56-2.98-.92-4.25-1.21-5.31-1.21-31.91-17.03-56.43-15.78-6.56,4.06-12.63,8.75-18.81,13.35-9.33,6.94-15.94,15.96-25.48,20.63-1.5.13-1.14-1.18-1.21-1.21,1-10.14,3.8-20.23,4.85-30.34,9.91,4.51,9.1,1.47,13.35,0,15.14-5.25,19.25-13.19,26.7-25.48,4.53-.48,4.31,5.15,6.07,6.07Z"/>
    </g>
    <path class="sow-cls-19" d="m600.7,1053.35c.85,2.86,19.71,13.76,24.27,14.56-.19,3.61-1.7,5.43-1.21,6.67.48,1.23,6.99,3.55,8.49,4.25.08.04-.28,1.34,1.21,1.21-.68.33-.96,4.36-3.03,3.64-18.07-7-41.8-22.23-60.68-24.27-18.48-2-39.09,4.98-39.44,0,.17-.14-.18-.34,2.43-3.64,29.32-9.86,37.37-11.62,67.96-2.43Z"/>
    <path class="sow-cls-17" d="m348.29,1067.91c7.03-3.24,16.04-7.12,21.84-12.14,32.83,15.31-33.04,42.68-37.01,41.26-9.71-3.47,17.23-23.18,15.17-29.12Z"/>
    <path class="sow-cls-19" d="m867.68,1049.71c-39.2-12.12-80.41.42-84.34-1.21-1.67-.69.1-2.31.61-3.64,32.04-18.7,53.21-17.91,83.73,4.85Z"/>
    <path class="sow-cls-19" d="m734.19,1061.85c-2.67,4.34-18.43-.85-24.88-1.21-16.68-.95-33.75,1.71-50.36-1.21,6.18-4.59,12.25-9.29,18.81-13.35,24.52-1.26,51.12,14.56,56.43,15.78Z"/>
    <path class="sow-cls-7" d="m491.48,1052.14c-4.26,6.31-16.97,2.48-18.81,9.71q-19.11-1.21-38.23-2.43c1.94-.53,13.81-9.18,18.81-10.92,22.31-7.76,27.43-1.03,38.23,3.64Z"/>
    <g>
      <path class="sow-cls-7" d="m1014.52,1050.93c7.32,6.41,19.2,19.72,3.03,24.27-13.94,3.92-16.49-32.39-43.69-38.83-24.35-5.76-34.51,3.89-54,13.35-.06-1.14-2.43-4.58-2.43-4.85,0-.19,1.1-3.49,1.21-3.64.73-.98,20.23-9.27,22.45-9.71,24.95-4.98,53.81,3.46,73.42,19.42Z"/>
      <path class="sow-cls-19" d="m917.44,1044.86c0,.27,2.37,3.71,2.43,4.85-23.08,11.2-17.2,17.48-47.33,0l44.9-4.85Z"/>
    </g>
    <path class="sow-cls-23" d="m509.69,1059.42v1.21l-18.81,10.92c-20.86-15.37-20.27-7.98,3.03-16.99,7.48,3.71,9.77,1.24,15.78,4.85Z"/>
    <path class="sow-cls-11" d="m536.38,1047.28c-.83,1.15-3.33,8.1-3.64,8.49-2.61,3.3-2.26,3.5-2.43,3.64-.29.25-1.76.96-2.43,1.21-5.42-6.17-8.77-13.99-13.35-20.63-.14-1.48,1.16-1.15,1.21-1.21,3.66,11.88,11.68,4.82,20.63,8.49Z"/>
    <path class="sow-cls-19" d="m771.81,1053.35c10.5,4.84-2.25,8.43-21.84,0,.34-.18,1.67-4.73,6.67-3.64,4.19,2.88,10.98,1.71,15.17,3.64Z"/>
    <path class="sow-cls-6" d="m637.11,998.74c-2.57,12.8-4.14,24.78-6.07,37.62-.6,3.98-1.87,8.07-2.43,12.14-6.47-4.99-14.51-6.71-21.84-9.71-.43-.18,4.41-4.54-6.07-1.21-10.16-25.53-26.11-35.14-47.33-13.35-12.16-1.84-29.43,5.59-37.62,14.56-.06.06-1.35-.26-1.21,1.21-5.51-7.99-12.85-15.21-16.99-24.27,4.46-5.91,8.24-17.02,7.28-24.27l7.28-3.64c.84,1.69,10.72,9.23,13.35,10.92,31.27,20.04,89.9,14.81,112.86-16.99,1.3,1.4-.32,12.52-1.21,16.99Z"/>
    <path class="sow-cls-8" d="m606.77,1038.79c-7.72,1.26,15.74,17.5,20.63,18.2-.28,1.9-2.21,6.65-2.43,10.92-4.57-.8-23.42-11.71-24.27-14.56-.8-2.66.57-11.19,0-15.78,10.48-3.33,5.64,1.04,6.07,1.21Z"/>
    <path class="sow-cls-7" d="m553.37,1024.23c-6.47,6.65-11.56,15.52-16.99,23.06-8.95-3.67-16.97,3.39-20.63-8.49,8.19-8.97,25.46-16.4,37.62-14.56Z"/>
    <path class="sow-cls-4" d="m606.77,1038.79c7.33,3,15.37,4.72,21.84,9.71-.39,2.83-.8,5.67-1.21,8.49-4.89-.7-28.35-16.94-20.63-18.2Z"/>
  </g>
  <g>
    <path class="sow-cls-24" d="m771.81,354.35c22.33-2.01,93.57,24.02,118.32,43.69,59.45,47.25,82.42,197.17,92.84,270.62-11.35,2.33-22.65,4.83-33.98,7.28-26.87,1.52-55.63,5.59-82.52,10.92-9.16-11.47-22.3-18.38-24.27-33.98-1.63-13.32-1.82-26.88-4.85-40.05,54.34-77.84-49.39-148.65-65.53-183.24-1.79-3.83-3.43-4.23-4.85-9.1-.42-21.92.05-43.6,0-65.53,5.39,1.59,4.61-.58,4.85-.61Z"/>
    <path class="sow-cls-21" d="m509.69,370.13c-8.8,39.85-6.06,82.56,6.07,121.35-.16.07-2.34,1.86-2.43,2.43-6.68.31-12.21,3.78-18.2,6.07-64.28,24.56-45.56,83.75-29.12,135.92-3.29,11.21-2.36,22.55-2.43,33.98-4.77,6.44-3.89,14.73-6.07,21.84-13.9-1.86-27.51-6.05-41.26-8.49,15.41-12.38,11.17-40.94-4.25-52.18-29.43-21.46-77,4.98-57.64,41.26-8.7-2.14-17.14-3.88-25.48-7.28-.03-.13-1.67.44-1.21-2.43,7.15-35.97,16.87-71.5,24.27-107.4,6.21-30.1,5.61-62.01,16.99-91.02,22.23-56.67,86.88-79.45,140.77-94.05Z"/>
    <g>
      <path class="sow-cls-27" d="m752.39,201.45l1.21,52.79c-3.97,9.85-5.6,30-6.07,31.55-8,26.86-27.82,36.8-24.27,21.84.27-1.16,6.38-5.5,7.28-7.28,19.46-38.74-8.11-29.67-9.71-31.55-1.11-1.31,7.11-18.4-6.67-32.16-11.88,17.27-25.08,33.67-46.11,40.05q-22.45-22.45-44.9-44.9c-18.64,34.31,4.62,56.18,3.03,58.86-18.53-2.04-30.87-24.42-33.98-41.26-5.74-5.8-14.21,27.87,1.21,42.47-.74,5.81-17.65-4.79-20.02-6.67-29.18-23.26-14.07-77.91-32.16-23.66l-3.03,1.82c-7.25-7.26-14.71-14.52-21.24-22.45-12.05-14.64-10.89-28.12-21.84-15.17,3.7-5.47,6.6-9.07,12.14-12.74-2.18-26.94,21.28-48.38,47.93-41.87,16-24.5,44.39-31.65,69.17-15.78,10.7-6.95,25.72-7.11,36.41,0,25.91-15.54,49.32.77,60.68,25.48,12.63.77,26.33,8.26,30.95,20.63Z"/>
      <path class="sow-cls-12" d="m747.54,317.95c-1.4.93-2.89-1.3-3.03-1.21-2.41,1.48-17.26,10.53-17.6,11.53l1.21,29.12c-31.98-2.34-37.98-23.13-41.26-52.18-33.76-21.77-92.25,6.88-108.01,7.89-5.53.35-28.55-2.82-35.8-4.85l-3.03,1.82q-4.25,28.21-8.49,56.43c-6.53-34.09-41.88-34.66-30.34-80.7-15.49-18.47-20.02-39.43-6.07-60.07,10.95-12.95,9.8.53,21.84,15.17,6.53,7.93,13.99,15.19,21.24,22.45l3.03-1.82c18.09-54.25,2.98.4,32.16,23.66,2.37,1.89,19.28,12.48,20.02,6.67-15.43-14.61-6.95-48.28-1.21-42.47,3.11,16.84,15.45,39.22,33.98,41.26,1.59-2.68-21.67-24.55-3.03-58.86q22.45,22.45,44.9,44.9c21.04-6.37,34.24-22.78,46.11-40.05,13.78,13.76,5.56,30.85,6.67,32.16,1.59,1.88,29.17-7.19,9.71,31.55-.9,1.79-7.01,6.13-7.28,7.28-3.55,14.96,16.27,5.02,24.27-21.84.46-1.55,2.1-21.7,6.07-31.55l-1.21-52.79c2.06,5.52,4.4,11.38,1.21,17.6,12.55,17.02,13.25,40,0,57.04-.24,2.32,14.82,27.99-6.07,41.87Z"/>
    </g>
    <path class="sow-cls-7" d="m512.11,370.13c-3.71,8.56,11.57,3.83,19.42,12.74.28,11.94-.89,23.92,1.21,35.8-2.99-.88-2.78,2.43-2.43,6.67,3.26,39.24,73.45,118.78,117.71,111.04-.32,5.45,5.46,10.95,2.43,15.78-9.35-7.18-21.97-6.42-30.34,3.03,21.61,6.04,38.66,21.4,57.04,33.37l2.43.61c.15-3.16,1.21-7.47,2.43-10.32,7.43-.86.88,5.7,3.64,7.28-4.3,7.39-6.97,16.09-12.14,23.06-14.94-16.82-34.81-28.12-51.58-42.47-8.1-6.93-16.2-17.76-23.66-24.27-1.93-6.47-.49-17.84-1.21-20.02-1.42-4.31-53.21-44.28-81.31-30.95-12.13-38.79-14.86-81.5-6.07-121.35.68-.18,1.75.18,2.43,0Z"/>
    <g>
      <g>
        <path class="sow-cls-2" d="m814.29,946.56c12.44,12.67,34.14,12.51,51.58,14.56l6.67,38.83c-6.32,1.06-15.22.13-21.84,2.43-29.04-3.71-59.7-27.23-63.1-27.91q-1.21-7.28-2.43-14.56c9.12-5.64,19.72-8.61,29.12-13.35Z"/>
        <path class="sow-cls-26" d="m905.3,968.4c-1.15,22.02-12.73,28.2-32.77,31.55l-6.67-38.83c-17.43-2.05-39.14-1.89-51.58-14.56,25.59,14.54,69.27,20.05,82.52-13.35.06.15,2.03-.48,2.43.61,3.25,8.85,6.55,25.28,6.07,34.59Z"/>
      </g>
      <path class="sow-cls-10" d="m884.67,911.37c14.19,13.94,11.65,20.65,12.14,21.84-13.25,33.4-56.93,27.89-82.52,13.35,23.27-11.72,47.69-22.52,70.39-35.19Z"/>
    </g>
    <path class="sow-cls-23" d="m787.59,974.47c-3.9-.79-7.1,1.65-10.92,1.21.67-2.33-.48-8.16,0-11.53,2.71-1.58,5.83-2.6,8.49-4.25q1.21,7.28,2.43,14.56Z"/>
    <path class="sow-cls-12" d="m782.73,828.85c11.95,2.93,29.16,5.58,41.26,3.64,2.44,2.54-19.96,19.06-27.3,24.27-17.83,12.64-36.9,24.1-56.43,33.98q6.07-30.04,12.14-60.07c-2.92-3.57-18.71-13.52-19.42-15.78-1.67-5.38,2.57-13.63,3.64-18.81,10.01,17.11,27.4,28.17,46.11,32.77Z"/>
    <g>
      <path class="sow-cls-24" d="m976.9,700.21c-.7,1.69-2.5,2.29-2.43,4.25,19.36,121.35,14.35,148.76-89.8,206.91-22.69,12.67-47.11,23.47-70.39,35.19-9.41,4.74-20,7.71-29.12,13.35-2.66,1.65-5.78,2.66-8.49,4.25-.48,3.37.67,9.2,0,11.53-4.56,15.75-22.48,36.5-32.77,49.76-2.62-3.29.24-11.54,1.21-15.78.52-2.28,2.15-5.94,3.64-7.89-.57-7.38-23.05,18.71-27.91,17.6,0-.62,1.85-9.39,2.43-12.14,1.58-7.57,4.36-15.28,7.28-22.45l-1.82-.61q-13.05,18.2-26.09,36.41c-.13-.19-1.06.19-1.21,0,1.04-8.46-3.48-12.4-3.64-13.35-1.77-10.34,4.5-20.03,3.03-30.34-9.25,14.07-15.09,31.95-23.66,46.11-7.44,12.29-11.56,20.24-26.7,25.48q5.76-32.77,11.53-65.53c-15.75,12.39-18.43,33.15-26.09,50.36,1.04,2.32.36,4.25,0,6.67l-4.85-3.64c1.93-12.84,3.5-24.82,6.07-37.62,13.87-24.81,27.31-52.15,38.83-78.88,10.65-7.29,47.53-20.64,64.32-29.12,19.53-9.87,38.6-21.34,56.43-33.98,7.35-5.21,29.74-21.73,27.3-24.27,1.36-.22,2.87.14,4.25,0,7.99-9.7,44.28-38.41,45.51-47.33,23.26-14.04,45.41-29.71,70.39-40.65l-.61-1.82c-49.89,20.81-85.41-9.49-49.15-38.83,33.6-9.38,66.87-23.44,82.52-3.64Z"/>
      <path class="sow-cls-21" d="m720.84,1019.37c0,.6.2,5.18,1.82,4.85,11.23-7,17.37-21.28,22.45-14.56-.98,4.24-3.84,12.49-1.21,15.78-2.53,3.26-5.42,7.18-7.28,10.92-8.06.19-47.99-4.45-53.4-7.28,7.15-2.05,7.14-12.09,9.71-16.38.74-1.24,3.43-.31,3.64-.61.22,3.57,2.84,5.92,4.85,8.49.15.19,1.09-.19,1.21,0q2.73,4.85,5.46,9.71l15.17-23.06c-.57,2.74-2.42,11.52-2.43,12.14Z"/>
      <path class="sow-cls-22" d="m650.46,1048.5c-4.25,1.47-3.44,4.51-13.35,0,.53-5.1-1.43-7.08-1.21-8.49.36-2.42,1.04-4.36,0-6.67,7.66-17.21,10.34-37.97,26.09-50.36q-5.76,32.77-11.53,65.53Z"/>
      <path class="sow-cls-21" d="m637.11,998.74c.9-4.47,2.51-15.59,1.21-16.99,4.23-11.31,7.42-23.37,13.35-33.98,5.29-9.46,15.29-21.77,24.27-27.91-11.52,26.73-24.96,54.07-38.83,78.88Z"/>
      <path class="sow-cls-22" d="m697.79,1007.24c-2.33.14-.68,4.12-1.21,4.85-.22.3-2.9-.64-3.64.61-2.57,4.3-2.56,14.34-9.71,16.38-1.76-.92-1.54-6.55-6.07-6.07,8.58-14.16,14.41-32.05,23.66-46.11,1.46,10.3-4.81,20-3.03,30.34Z"/>
      <path class="sow-cls-22" d="m723.27,1007.24l-15.17,23.06q-2.73-4.85-5.46-9.71,13.05-18.2,26.09-36.41l1.82.61c-2.92,7.17-5.7,14.88-7.28,22.45Z"/>
      <path class="sow-cls-7" d="m745.11,1009.67c-5.08-6.72-11.22,7.56-22.45,14.56-1.62.33-1.83-4.26-1.82-4.85,4.86,1.11,27.34-24.97,27.91-17.6-1.49,1.94-3.12,5.61-3.64,7.89Z"/>
      <path class="sow-cls-7" d="m701.43,1020.59c-2.02-2.58-4.63-4.92-4.85-8.49.53-.73-1.12-4.72,1.21-4.85.16.95,4.68,4.89,3.64,13.35Z"/>
    </g>
    <g>
      <path class="sow-cls-11" d="m976.9,700.21c-15.65-19.8-48.92-5.74-82.52,3.64-13.9,3.88-28.14,7.12-41.26,13.35-1.13-.59-13.48-1.08-14.56-17.6-.54-8.21-.28-8.62,8.49-9.1-4.18,2.1-8.12,2.72-5.46,8.49,35.73-7.99,71.61-15.31,107.4-23.06,11.33-2.45,22.63-4.95,33.98-7.28,16.26,12.65-2.61,23.12-6.07,31.55Z"/>
      <path class="sow-cls-7" d="m948.99,675.94c-35.79,7.74-71.67,15.06-107.4,23.06-2.65-5.77,1.28-6.39,5.46-8.49.08-.04-.5-.66,1.21-1.21,1.29-.42,10.48-.9,18.2-2.43,26.89-5.33,55.65-9.4,82.52-10.92Z"/>
    </g>
    <g>
      <path class="sow-cls-22" d="m894.38,703.85c-36.26,29.34-.74,59.64,49.15,38.83l.61,1.82c-24.98,10.94-47.13,26.62-70.39,40.65q-6.07-31.25-12.14-62.5c-3-5.79-3.99-3.13-8.49-5.46,13.12-6.23,27.37-9.47,41.26-13.35Z"/>
      <path class="sow-cls-21" d="m866.47,686.86c-7.72,1.53-16.91,2.01-18.2,2.43-3.16-11.57-4.63-23.31-6.07-35.19-.05-.4.05-.81,0-1.21,1.97,15.6,15.11,22.51,24.27,33.98Z"/>
    </g>
    <g>
      <path class="sow-cls-24" d="m416.24,683.22c-20.83-3.71-41.19-5.83-61.89-10.92-19.36-36.28,28.21-62.72,57.64-41.26,15.41,11.24,19.66,39.8,4.25,52.18Z"/>
      <g>
        <path class="sow-cls-11" d="m327.66,662.59c-.45,2.86,1.19,2.29,1.21,2.43,4.94,25.24,41.54,20.53,85.55,26.7,5.82.82,38.84,8.63,41.26,7.28,1.31-1.97,1.3-5.59,1.82-7.28,2.18-7.11,1.29-15.4,6.07-21.84,0,1,1.97,8.15,1.21,20.02-1.74,27.19-9.62,26.11-24.27,23.66-6.52-1.09-12.92-3.47-19.42-4.85-14.58-3.1-31.78-10.79-47.33-7.28,0-.8.34-2.1-.61-2.43-1.99-.7-31.52-.89-41.87-4.85-12.06-4.62-10.65-23.68-3.64-31.55Z"/>
        <path class="sow-cls-7" d="m354.35,672.3c20.7,5.09,41.06,7.21,61.89,10.92,13.75,2.45,27.36,6.64,41.26,8.49-.52,1.69-.51,5.31-1.82,7.28-2.42,1.35-35.44-6.47-41.26-7.28-44.01-6.17-80.61-1.45-85.55-26.7,8.35,3.4,16.78,5.14,25.48,7.28Z"/>
      </g>
    </g>
    <path class="sow-cls-12" d="m689.29,561.87c-2.66,5.59-4.85,11.31-7.28,16.99-1.22,2.85-2.28,7.16-2.43,10.32l-2.43-.61c-4.25-7.39-22.29-33.02-26.7-36.41,3.03-4.83-2.75-10.33-2.43-15.78-.63-7.19-7.71,3.21-6.07-9.71,48.75-1.51,98.67-93.01,88.59-138.95,19.62.68,18.23,1.38,16.99,29.12-3.13,70.28-34.52,95.14-58.25,145.02Z"/>
    <g>
      <path class="sow-cls-21" d="m837.34,612.84h-1.21c-5.62-17.49-32.64,3.46-41.26,10.92-6.77-.65-5.77,1.14-6.07,1.21-34.79,8.46-71.44,2.19-104.97-8.49l-10.32-7.28c5.17-6.97,7.84-15.67,12.14-23.06,1.4-2.41,2.88-4.91,2.43-7.89,6.83-9.38,52.69-25.68,65.53-29.73,1.6-.5,7.84.11,10.92-3.64,5.85,1.74,11.78.56,16.99-3.03-2.62-18.78-.93-38.25-2.43-57.04-1.48-18.48-6.26-36.71-7.28-55.22,16.14,34.6,119.87,105.41,65.53,183.24Z"/>
      <path class="sow-cls-4" d="m753.61,548.52c-12.84,4.05-58.7,20.35-65.53,29.73.45,2.98-1.03,5.48-2.43,7.89-2.76-1.58,3.79-8.14-3.64-7.28,2.44-5.68,4.62-11.4,7.28-16.99,7.89-2.59,30.14-10.14,33.98-15.78.84,6.59,16.45-3.34,30.34,2.43Z"/>
      <path class="sow-cls-21" d="m650.46,552.16c4.41,3.38,22.44,29.02,26.7,36.41-18.38-11.97-35.43-27.33-57.04-33.37,8.37-9.46,20.98-10.22,30.34-3.03Z"/>
    </g>
    <g>
      <path class="sow-cls-7" d="m345.86,766.96c25.19,49.69,17.48,58.83,69.17,91.62,1.99,6.18-13.76,61.36-10.92,73.42-4.88-4.71-.57-9.39-12.74-4.85-6.56,2.45-11.23,7.9-10.32,15.17.49,3.86,33.95,57.39,38.83,67.35-12.26-4.12-25.75-5.15-37.62-10.92-4.88-9.42-11.94-17.24-14.56-27.91-6.08-24.74,1.29-51.94,8.49-75.85-39.25-22.42-70.35-56.3-65.53-104.36.35-3.54,5.44-22.31,7.28-32.16-.69,14.69,6.28,7.63,27.91,8.49Z"/>
      <path class="sow-cls-7" d="m373.77,701.43c-27.95,6.31-25.75,54.18-15.17,61.89,17.38,12.67,100.93,41.13-10.92,1.21-2.62-.5-1.67,2.43-1.82,2.43-21.63-.87-28.6,6.19-27.91-8.49,4.02-21.47,11.17-42.45,13.35-64.32,10.35,3.96,39.88,4.16,41.87,4.85.95.33.6,1.62.61,2.43Z"/>
      <path class="sow-cls-24" d="m421.1,708.71c7.69,6.9,10.22,14.69,13.35,24.27-7,26.86-14.45,53.63-20.63,80.7,25.45,34.26,74.45,80.29,71.6,123.78l19.42,54c.95,7.25-2.82,18.37-7.28,24.27-1.55,2.06-7.25,5.17-8.49,8.49h-1.21c-16.54-19.17-22.1-40.61-27.91-64.32-2.83-11.52-6.16-38.96-7.89-40.05-14.01-8.86-2.68,30.77-1.82,35.19,4.12,21.17,9.5,50.19,20.63,67.96-7.13.04-8.07-1.18-8.49-1.21-3.97-25.04-40.25-72.4-58.25-89.8-2.84-12.06,12.91-67.24,10.92-73.42-51.7-32.79-43.98-41.93-69.17-91.62.15,0-.8-2.92,1.82-2.43,111.85,39.91,28.31,11.45,10.92-1.21-10.58-7.71-12.78-55.58,15.17-61.89,15.54-3.51,32.75,4.18,47.33,7.28Z"/>
      <path class="sow-cls-22" d="m404.11,932c18,17.41,54.28,64.76,58.25,89.8-.88-.08-11.97,2.48-17.6,1.21-2.34-.53-5.59-6.86-24.88-13.35-4.88-9.97-38.35-63.49-38.83-67.35-.92-7.27,3.76-12.72,10.32-15.17,12.17-4.54,7.87.14,12.74,4.85Z"/>
      <path class="sow-cls-22" d="m459.93,959.91c5.82,23.71,11.37,45.15,27.91,64.32-5.47,1.31-11.8-1.24-16.99-1.21-11.13-17.77-16.51-46.79-20.63-67.96,10.91-3.31,4.59,4.41,9.71,4.85Z"/>
      <path class="sow-cls-4" d="m440.51,713.56c-3.03,6.13-4.36,12.87-6.07,19.42-3.13-9.58-5.66-17.37-13.35-24.27,6.5,1.38,12.9,3.77,19.42,4.85Z"/>
      <path class="sow-cls-5" d="m459.93,959.91c-5.12-.44,1.21-8.17-9.71-4.85-.86-4.42-12.19-44.06,1.82-35.19,1.72,1.09,5.06,28.52,7.89,40.05Z"/>
    </g>
    <g>
      <path class="sow-cls-3" d="m836.13,612.84c2.63,8.19,2.03,30.94,6.07,41.26,1.44,11.88,2.91,23.62,6.07,35.19-1.71.55-1.14,1.17-1.21,1.21-8.78.49-9.03.89-8.49,9.1,1.09,16.52,13.43,17.01,14.56,17.6,4.5,2.34,5.5-.33,8.49,5.46q6.07,31.25,12.14,62.5c-1.23,8.92-37.52,37.62-45.51,47.33-1.38.14-2.89-.22-4.25,0-12.1,1.94-29.31-.71-41.26-3.64,2.69-35.9-15.97-142.68-14.56-159.58,1.47-17.64,13.76-34.3,26.7-45.51,8.62-7.47,35.64-28.41,41.26-10.92Z"/>
      <path class="sow-cls-20" d="m842.2,652.88c.05.4-.05.81,0,1.21-4.04-10.32-3.44-33.07-6.07-41.26h1.21c3.04,13.16,3.23,26.73,4.85,40.05Z"/>
      <g>
        <path class="sow-cls-18" d="m513.33,493.91c20.75-.97,53.17,12.16,61.89,32.77,7.27,38.7,21.58,75.38,32.77,112.86,5.06,16.96,19.74,78.45,21.84,83.13,1.49,3.32,1.53,4.51,4.85,6.67-2.65,4.1,3.38,13.75,4.85,24.27-8.35,4.72-15.96,11.06-24.27,15.78-6.28,3.56-23.61,12.67-29.12,14.56-2.73.94-7.85,1.65-10.92,2.43-33.23-71.43-56.66-147.89-87.98-219.65-30.69-3.58-18.44-48.53,7.89-66.74,5.99-2.29,11.52-5.75,18.2-6.07Z"/>
        <path class="sow-cls-9" d="m495.12,499.98c-26.33,18.22-38.58,63.16-7.89,66.74,31.32,71.76,54.75,148.22,87.98,219.65-15.03,3.8-29.31,5.04-44.9,6.07-5.56-8.03-59-139.67-64.32-156.55-16.43-52.16-35.15-111.36,29.12-135.92Z"/>
      </g>
      <path class="sow-cls-9" d="m598.28,542.45c-6.8-5.93-15.38-11.02-23.06-15.78-8.72-20.61-41.14-33.74-61.89-32.77.09-.57,2.27-2.35,2.43-2.43,28.1-13.33,79.88,26.64,81.31,30.95.72,2.19-.72,13.56,1.21,20.02Z"/>
      <path class="sow-cls-3" d="m598.28,542.45c7.46,6.51,15.57,17.34,23.66,24.27,16.77,14.35,36.64,25.66,51.58,42.47l10.32,7.28c33.53,10.69,70.18,16.95,104.97,8.49-35.48,23.09-53.97,86.79-118.32,77.67-33.4-4.74-46.59-38.47-62.5-63.1-11.18-37.48-25.49-74.16-32.77-112.86,7.68,4.76,16.26,9.85,23.06,15.78Z"/>
      <path class="sow-cls-9" d="m794.87,623.76c-12.94,11.21-25.23,27.87-26.7,45.51-1.41,16.9,17.25,123.68,14.56,159.58-18.71-4.59-36.11-15.66-46.11-32.77,3.64-17.65,19.19-66.96,16.38-69.17-27.47,13.63-63.07,13.8-92.84,8.49-8.73-1.56-16.96-3.78-25.48-6.07-3.32-2.17-3.36-3.35-4.85-6.67-2.1-4.67-16.78-66.17-21.84-83.13,15.91,24.64,29.1,58.37,62.5,63.1,64.35,9.13,82.84-54.58,118.32-77.67.3-.07-.7-1.86,6.07-1.21Z"/>
    </g>
    <g>
      <path class="sow-cls-12" d="m624.97,770.6c-.17.2-2.07-.49-2.43.61,1.61,16.21.87,31.2,4.85,46.11-.08,18.14,3.15,36.55,4.85,56.43q-29.12.61-58.25,1.21c-.38-5.97-17.81-73.11-20.63-75.85-4.36-4.24-17.31-.3-21.24-1.82-.84-.33-.25-2.58-1.82-4.85,15.59-1.02,29.87-2.27,44.9-6.07,3.07-.78,8.19-1.49,10.92-2.43,4.18,5.56,31.33-7.17,29.12-14.56,8.31-4.71,15.92-11.05,24.27-15.78.02.15,2.92-.8,2.43,1.82-5.54,7.07-15.47,13.37-16.99,15.17Z"/>
      <path class="sow-cls-13" d="m586.14,783.95c5.52-1.89,22.84-11,29.12-14.56,2.21,7.4-24.94,20.12-29.12,14.56Z"/>
    </g>
    <g>
      <path class="sow-cls-21" d="m578.86,313.09c-11.87,17.16-11.02,38.73-15.78,58.25-7.66-.78-23.06,7.4-25.48,15.17-5.92,18.95,11.12-9.73,47.33,6.67,1.22,3.52,1.52,7.36,2.43,10.92-30.79-12.96-42.28,16.27-32.16,16.99,1.83.13,12.73-12.19,34.59-8.49,6.81,27.19.95,49.87,40.05,47.33-1.43-.12-1.06.79-1.21,1.21-21.69,3.7-43.36-.11-60.07-14.56,14.88,23.94,28.43,63.91,64.92,53.4,3.17,4.68-1.87,9.91,4.85,9.71q-4.85,7.28-9.71,14.56c-30.15-9.74-90.24-73.75-95.87-105.58-2.1-11.88-.93-23.86-1.21-35.8-7.85-8.92-23.13-4.18-19.42-12.74.98-.26,6.49-5.14,19.42-3.64q4.25-28.21,8.49-56.43l3.03-1.82c7.25,2.03,30.27,5.21,35.8,4.85Z"/>
      <path class="sow-cls-6" d="m532.74,418.67c5.63,31.82,65.72,95.84,95.87,105.58,4.75,1.54,8.18,2.59,13.35,2.43-1.64,12.92,5.43,2.52,6.07,9.71-44.26,7.74-114.46-71.8-117.71-111.04-.35-4.24-.56-7.56,2.43-6.67Z"/>
      <path class="sow-cls-6" d="m679.58,452.65c-14.55,16.08-23.34,40.76-46.11,47.33-36.49,10.52-50.04-29.46-64.92-53.4,16.71,14.45,38.38,18.26,60.07,14.56-2.09,5.6-4.8,3.16-7.28,7.28-13.36,3.15-21.2,2.14-21.84,3.03-.49,23.72,18.34,27.79,36.41,17.6,8.55,16.99,41.13-36.83,42.47-48.54,1.57-.51,2.97-2.37,4.85-.61-2.29,3.46-2.48,9.1-3.64,12.74Z"/>
      <path class="sow-cls-8" d="m635.89,489.06c8.74-4.93,21.16-22.58,25.48-32.16-13.73,2.83-26.31,8.3-40.05,11.53,2.48-4.12,5.19-1.68,7.28-7.28.16-.42-.22-1.34,1.21-1.21,14.95-.97,36.96-15.67,48.54-19.42-1.34,11.71-33.92,65.53-42.47,48.54Z"/>
      <path class="sow-cls-8" d="m563.08,371.34c1.04.11,16.57,8.21,18.2,10.32,2.3,2.97,2.49,8.2,3.64,11.53-36.21-16.4-53.25,12.28-47.33-6.67,2.43-7.77,17.83-15.94,25.48-15.17Z"/>
      <path class="sow-cls-6" d="m764.53,544.88c-3.08,3.75-9.32,3.14-10.92,3.64-13.89-5.76-29.49,4.17-30.34-2.43,1.38-2.03,4.21-15.83,9.1-20.63,7.69,2.37,28.13,18.21,32.16,19.42Z"/>
      <path class="sow-cls-6" d="m587.35,404.11c.71,2.78,1.73,5.71,2.43,8.49-21.86-3.7-32.75,8.62-34.59,8.49-10.12-.72,1.37-29.95,32.16-16.99Z"/>
      <path class="sow-cls-16" d="m679.58,452.65c-4.98,15.69-24.96,50.24-41.26,57.04-6.73.2-1.69-5.03-4.85-9.71,22.77-6.56,31.57-31.25,46.11-47.33Z"/>
      <g>
        <path class="sow-cls-24" d="m747.54,317.95c2.49,5.84,18.8,13.6,20.63,17.6,3.55,7.74-1.7,19.56,3.64,18.81-.24.02.54,2.2-4.85.61.05,21.93-.42,43.61,0,65.53,1.43,4.87,3.07,5.27,4.85,9.1,1.02,18.51,5.81,36.73,7.28,55.22,1.5,18.78-.2,38.26,2.43,57.04-5.21,3.59-11.14,4.78-16.99,3.03-4.03-1.2-24.47-17.04-32.16-19.42-4.89,4.8-7.72,18.6-9.1,20.63-3.84,5.64-26.09,13.19-33.98,15.78,23.73-49.88,55.12-74.74,58.25-145.02,1.24-27.75,2.63-28.45-16.99-29.12,10.08,45.94-39.84,137.44-88.59,138.95-5.17.16-8.6-.89-13.35-2.43q4.85-7.28,9.71-14.56c16.3-6.79,36.28-41.34,41.26-57.04,1.16-3.64,1.35-9.28,3.64-12.74-1.88-1.77-3.28.1-4.85.61-11.58,3.74-33.59,18.45-48.54,19.42-39.09,2.54-33.24-20.13-40.05-47.33-.7-2.78-1.72-5.71-2.43-8.49-.91-3.56-1.21-7.4-2.43-10.92-1.15-3.33-1.34-8.56-3.64-11.53-1.63-2.11-17.16-10.21-18.2-10.32,4.76-19.52,3.9-41.09,15.78-58.25,15.75-1.01,74.24-29.65,108.01-7.89,3.28,29.05,9.28,49.85,41.26,52.18l-1.21-29.12c.33-1,15.18-10.04,17.6-11.53.14-.09,1.64,2.14,3.03,1.21Z"/>
        <path class="sow-cls-8" d="m640.14,366.49c13.01-2.15,30.62,5.76,33.37,11.53,7.36,15.41-10.33-1.9-37.01,6.67-8.16,2.62-21.64,18.86-17.6-.61,1.27-6.1,15.12-16.59,21.24-17.6Z"/>
        <path class="sow-cls-14" d="m647.42,399.25c9.84-1.43,28.43.71,20.63,14.56-17.12-7.48-36.43,4.73-38.83,4.85-15.67.82,6.99-17.79,18.2-19.42Z"/>
        <path class="sow-cls-6" d="m751.18,356.78l-13.35,4.85c-1.87-20.49,13.64-21.23,13.35-4.85Z"/>
        <path class="sow-cls-25" d="m751.18,356.78c-.36,20.39-12.35,15.81-13.35,4.85l13.35-4.85Z"/>
      </g>
      <path class="sow-cls-23" d="m635.89,489.06c-18.06,10.2-36.9,6.13-36.41-17.6.64-.9,8.48.11,21.84-3.03,13.73-3.23,26.31-8.7,40.05-11.53-4.32,9.58-16.75,27.23-25.48,32.16Z"/>
    </g>
    <g>
      <path class="sow-cls-26" d="m648.03,918.65c1.59,9.78,2.47,19.32,3.64,29.12-5.93,10.61-9.12,22.67-13.35,33.98-22.95,31.8-81.59,37.03-112.86,16.99,2.03-3.82,9.28,3.98,11.53,4.85,1.1.43,21.88,4.78,23.06,4.85,1.81.12,17.45-3.47,26.7,0l1.82-1.82q-5.46-14.26-10.92-28.52c41.98-4.42,67.77-56.22,59.46-94.66,4.97,1.12,9.19,24.53,10.92,35.19Z"/>
      <path class="sow-cls-2" d="m544.88,905.3c-3.42,6.19-4.8,12.95-7.28,19.42-6.47,16.84-18.56,28.85.61,43.69,10.15,7.86,26.8,11.04,39.44,9.71q5.46,14.26,10.92,28.52l-1.82,1.82c-9.25-3.47-24.88.12-26.7,0-1.18-.08-21.96-4.43-23.06-4.85-2.25-.88-9.5-8.67-11.53-4.85-2.63-1.69-12.5-9.23-13.35-10.92-11.49-23.01,17.78-65.86,32.77-82.52Z"/>
      <g>
        <path class="sow-cls-10" d="m633.47,879.82c1.78,22.65,5.87,36.39-7.89,58.25-14.57-25.92-52.57-32.59-77.67-19.42-4.19,2.2-11.03,11.95-10.32,6.07,2.49-6.47,3.86-13.23,7.28-19.42,6.48-11.72,15.31-21.61,27.91-26.7q30.34.61,60.68,1.21Z"/>
        <path class="sow-cls-15" d="m632.25,873.75c.03.31.61-1.54,1.21,6.07q-30.34-.61-60.68-1.21c.41-1.37,1.35-1.44,1.21-3.64q29.12-.61,58.25-1.21Z"/>
      </g>
      <g>
        <path class="sow-cls-14" d="m624.97,770.6l12.14,112.86c8.31,38.43-17.49,90.24-59.46,94.66-12.64,1.33-29.29-1.85-39.44-9.71-19.16-14.84-7.08-26.85-.61-43.69-.71,5.89,6.13-3.87,10.32-6.07,25.09-13.17,63.09-6.51,77.67,19.42,13.76-21.86,9.67-35.6,7.89-58.25-.6-7.6-1.19-5.76-1.21-6.07-1.71-19.88-4.93-38.28-4.85-56.43-3.98-14.92-3.25-29.91-4.85-46.11.35-1.1,2.26-.41,2.43-.61Z"/>
        <path class="sow-cls-2" d="m567.33,915.01c35.92-4.22,79.06,23.3,38.83,48.54-30.6,19.21-90.01,4.86-70.99-29.73,5.1-9.27,22-17.62,32.16-18.81Z"/>
      </g>
    </g>
  </g>
</svg>