<?xml version="1.0" encoding="UTF-8"?>
<svg id="Layer_1" data-name="Layer 1" xmlns="http://www.w3.org/2000/svg" xmlns:xlink="http://www.w3.org/1999/xlink" viewBox="0 0 1450.19 1450.19">
  <defs>
    <style>
      .write-cls-1 {
        fill: url(#linear-gradient);
      }

      .write-cls-1, .write-cls-2, .write-cls-3, .write-cls-4, .write-cls-5, .write-cls-6, .write-cls-7, .write-cls-8, .write-cls-9, .write-cls-10, .write-cls-11, .write-cls-12, .write-cls-13, .write-cls-14, .write-cls-15, .write-cls-16, .write-cls-17, .write-cls-18, .write-cls-19, .write-cls-20, .write-cls-21, .write-cls-22, .write-cls-23, .write-cls-24, .write-cls-25, .write-cls-26, .write-cls-27, .write-cls-28, .write-cls-29, .write-cls-30, .write-cls-31, .write-cls-32, .write-cls-33, .write-cls-34 {
        stroke-width: 0px;
      }

      .write-cls-2 {
        fill: #fb8767;
      }

      .write-cls-3 {
        fill: #f9b46e;
      }

      .write-cls-4 {
        fill: #622109;
      }

      .write-cls-5 {
        fill: #600f24;
      }

      .write-cls-6 {
        fill: #78241a;
      }

      .write-cls-7 {
        fill: #7680a9;
      }

      .write-cls-8 {
        fill: #4e271d;
      }

      .write-cls-9 {
        fill: #2d1622;
      }

      .write-cls-10 {
        fill: #6fd4ad;
      }

      .write-cls-11 {
        fill: #19170f;
      }

      .write-cls-12 {
        fill: #1a2517;
      }

      .write-cls-13 {
        fill: #1c2e29;
      }

      .write-cls-14 {
        fill: #11424b;
      }

      .write-cls-15 {
        fill: #10243b;
      }

      .write-cls-16 {
        fill: #171d31;
      }

      .write-cls-17 {
        fill: #d0cbd2;
      }

      .write-cls-18 {
        fill: #cb573e;
      }

      .write-cls-19 {
        fill: #d86a3e;
      }

      .write-cls-20 {
        fill: #a74325;
      }

      .write-cls-21 {
        fill: #a993b1;
      }

      .write-cls-22 {
        fill: #c44331;
      }

      .write-cls-23 {
        fill: #c2c3bd;
      }

      .write-cls-24 {
        fill: #a31f24;
      }

      .write-cls-25 {
        fill: #fdfdfd;
      }

      .write-cls-26 {
        fill: #801627;
      }

      .write-cls-27 {
        fill: #eabcbf;
      }

      .write-cls-28 {
        fill: #e77d50;
      }

      .write-cls-29 {
        fill: #fcad75;
      }

      .write-cls-30 {
        fill: #e5d0d6;
      }

      .write-cls-31 {
        fill: #f29959;
      }

      .write-cls-32 {
        fill: #eac30d;
      }

      .write-cls-33 {
        fill: #013751;
      }

      .write-cls-34 {
        fill: #014766;
      }
    </style>
    <linearGradient id="linear-gradient" x1="672.53" y1="418.16" x2="532.12" y2="560.14" gradientUnits="userSpaceOnUse">
      <stop offset="0" stop-color="#032d48"/>
      <stop offset="1" stop-color="#101333"/>
    </linearGradient>
  </defs>
  <g>
    <g>
      <path class="write-cls-27" d="m573.56,920.53c.39.52,1.03,2.31,1.42,2.83,9.57,12.99,64.79,94.03,69.39,101.97,2.3,3.97,38.97,77.37,41.07,82.14.38.86,2.55,6.86,2.12,7.08-47.03-2.3-98.37-6.36-139.5-31.16v-4.96c-2.07-3.15-8.31-7.12-9.91-9.21-36.63-47.65-77.58-92.06-111.88-141.62-15.57-22.49-27.67-47.55-45.32-68.69l2.12-2.12c64.8,16.97,136.07,20.86,190.48,63.73Z"/>
      <path class="write-cls-23" d="m470.18,861.05c.17,6.81,11.96,8-7.79,5.66-6.85-.81-68.83-12.74-72.23-14.16-2.21-.92-6.77-4.19-4.96-6.37,3.03-3.66,75.17,12.32,84.97,14.87Z"/>
    </g>
    <g>
      <path class="write-cls-21" d="m591.97,900.7c1.82-.37,3.4.65,4.25,2.12,10.93,19.01,26.97,68.06,60.9,106.92-6.73.82-8.47,11.27-12.75,15.58-4.6-7.93-59.82-88.98-69.39-101.97,2.93-.82-.29-2.96,1.42-8.5,1.11-3.62,3.79-6.72,5.66-9.91,4.45-2.87,9.44-3.99,9.91-4.25Z"/>
      <path class="write-cls-17" d="m851.13,1053.65c-3.17.97-20.85,11.87-31.86,14.16-4.07.85-54.5,4.6-57.36,4.25-1.61-.2-3.33.13-4.96,0-29.03-39.02-51.15-47.59-97.01-59.48l-2.83-2.83c-33.92-38.86-49.96-87.91-60.9-106.92-.85-1.48-2.43-2.5-4.25-2.12,54.71-30.35,116.75-44.37,176.32-62.31,16.19,75.75,48.3,146.28,82.85,215.26Z"/>
      <path class="write-cls-25" d="m845.47,1014c2.1,12.72,17,28.21,12.75,38.24-2.43-.18-4.83.73-7.08,1.42-34.54-68.98-66.66-139.51-82.85-215.26-59.57,17.94-121.6,31.97-176.32,62.31-.47.26-5.46,1.38-9.91,4.25,5.19-8.85,14.09-21.2,22.66-26.91,1.74-1.16,32.98-15.03,38.24-16.99,2.11-.79,4.77-1.52,7.08-1.42,16.06-3.52,122.87-42.48,129.58-38.24,4.49,42.1,44.7,163.73,65.85,192.6Z"/>
    </g>
  </g>
  <g>
    <path class="write-cls-16" d="m480.09,662.78c4.31,4.29,8.51,8.34,12.75,12.75,15.43,16.07,30.56,32.86,45.32,49.57,7.53,8.52,15.46,16.67,22.66,25.49,4.08,5,9.86,16.54,14.16,22.66l-14.16,1.42c-.12-.46.15-1.03,0-1.42-1.45-3.88-23.23-26.93-28.32-32.57-20.24-22.43-50.18-48.23-66.56-67.98q7.08-4.96,14.16-9.91Z"/>
    <path class="write-cls-32" d="m480.09,662.78q-7.08,4.96-14.16,9.91c-4.42-5.33-22.99-22.9-6.37-26.91,8.56-2.06,14.93,11.4,20.53,16.99Z"/>
    <path class="write-cls-10" d="m621.71,827.06v2.83c-6.77,7.14-16.64,8.76-25.49,11.33-1.83.25-1.87-4.71-1.42-7.08.41-2.15,1.79-.54,2.83-2.83,1.14-2.5,1.75-7.03,5.66-7.08.27.11,5.37,1.43,5.66,1.42,2.02-.08,4.49-1.48,5.66-2.83l7.08,4.25Z"/>
    <path class="write-cls-14" d="m625.96,834.14c-.17,1.36.28,2.96,0,4.25l-24.08,4.25c-.3-.2-2.92.66-5.66-1.42,8.85-2.57,18.72-4.19,25.49-11.33,2.12.6,3.2,2.5,4.25,4.25Z"/>
    <path class="write-cls-7" d="m650.03,859.63c-2.31-.1-4.98.63-7.08,1.42q-9.21-9.91-18.41-19.83c.5-.94,1.19-1.79,1.42-2.83.28-1.28-.17-2.89,0-4.25,6.07,10.15,15.64,17.53,24.08,25.49Z"/>
    <path class="write-cls-10" d="m625.96,838.39c-.23,1.04-.92,1.89-1.42,2.83-4.19,7.94-5.68,5.73-8.5,7.08h-4.25c-1.34-1.12-3.57-1.28-9.91-5.66l24.08-4.25Z"/>
  </g>
  <g>
    <path class="write-cls-30" d="m824.23,674.11c-38.07,96.07-186.92,120.46-213.85,4.25,9.61-3.83,29.04-6.03,36.82-11.33,2.67-.33,6.06.48,8.5,0,8.84,61.62,88.58,43.02,114.71,5.66,2.51-3.59.68-6.02,2.12-7.08,16.98,3.39,34.45,5.68,51.69,8.5Z"/>
    <g>
      <path class="write-cls-19" d="m761.91,1072.06c1.57,9.43,4.77,18.14,8.5,26.91l6.37,33.99q-37.53-3.54-75.06-7.08c-4.29-1.74-9.52-12.58-12.04-16.99-9.68-17-30.97-75.61-29.74-96.3,45.86,11.89,67.98,20.46,97.01,59.48,1.63.13,3.35-.2,4.96,0Z"/>
      <path class="write-cls-22" d="m657.12,1009.75l2.83,2.83c-1.23,20.69,20.06,79.3,29.74,96.3l-4.25-1.42c-2.1-4.77-38.77-78.17-41.07-82.14,4.27-4.31,6.02-14.76,12.75-15.58Z"/>
    </g>
    <g>
      <g>
        <path class="write-cls-1" d="m590.55,431.94c-.68,17.85,4.23,59.72,7.08,79.31.39,2.67-.42,5.85,0,8.5,6.57,41.65,31.29,89.62,73.64,104.8-2.36,4.19-1.36,9.47-1.42,14.16-6.35.75-12.23-.61-18.41-1.42-65.2-8.51-79.27-40.88-84.26-42.49-72.45.47-75.32-94.39-17.7-125.33-32.34-29.95-33.37-69.12-2.83-100.55-.06-27.63,23.2-62.04,41.07-82.85,15.33,4.09-1.2,14.02,1.42,24.78,4.72,19.43,41.69-11.75,53.82-2.83-22.62,8.86-50.51,29.48-59.48,52.4-6.19,15.8-12.18,59.5,2.83,70.81v15.58c4.12-3.6-1.98-15.25,4.25-14.87Z"/>
        <path class="write-cls-16" d="m853.97,525.41c43.75,38.9,7.63,96.91-41.07,110.46-2.72.76-8.06,2.75-8.5,2.83-11.2,2.01-22.69,1.31-33.99,1.42-.11-1.81-3.93-17.35-4.25-35.4,28.04-19.4,43.95-46.15,53.82-77.89,10.22,5.09,24.64,6.5,33.99-1.42Z"/>
        <path class="write-cls-33" d="m961.6,586.31c-15.31,15.96-44.1,31.7-50.27,31.16-4.81-.42-2.95-5.13-4.25-5.66-5.02-2.07-23.1,31.78-102.67,26.91.44-.08,5.78-2.08,8.5-2.83,108.39-.07,99.9-78.49,105.51-83.56,5.8-5.24-.1,22.52-.71,24.78-5.31,19.64-20.79,33.01-16.29,36.11,6.91-8.44,13.43,8.53,24.78-20.53,14.6-37.37-5.37-60.41-5.66-63.73-1.7-19.29,34.67-5.02,24.08,59.48h2.83c25.3-49.87-7.98-87.29-3.54-89.93,9.07-5.39,31.51,31.2,27.62,63.02-1.04,8.48-7.63,16.76-9.91,24.78Z"/>
        <path class="write-cls-15" d="m842.64,475.84c-8.42.21-13.52,8.22-19.83,12.75-4.76-13.46-61.77-53.45-89.22-77.89-13.33-11.87-23.99-25.45-38.24-36.82-4.1-3.28-6.47-9.94-12.75-11.33q-.71-2.83-1.42-5.66c18.38,15.97,37.77,32.32,54.52,50.98.12.1,1.63-2.36,2.83-1.42,41.64,32.83,54.3,33.14,70.81,45.32,3.52,2.6-3.33,7.18,33.28,24.08Z"/>
        <path class="write-cls-16" d="m681.19,356.88q.71,2.83,1.42,5.66c-14.79-3.29-24.43,5.76-36.82-12.75-2.97-4.44-14.1-28.59-2.12-26.91,2.51.35,32.51,29.62,37.53,33.99Z"/>
        <g>
          <path class="write-cls-34" d="m841.22,262c48.24,27.89,68.82,79.1,73.64,132.41,3.43,4.89,6.82,3.24,7.08,3.54,17.12,19.76,50.14,35.53,38.95,67.98-.79-19.37-54.04-77.75-60.19-61.6-1.73,4.55,67.22,68.93,46.03,72.93-5.43,1.03-49.2-35.93-56.65-42.49-12.03-10.6-23.75-27.04-32.57-29.74-6.81-13.7-75.77-77.37-77.18-82.85-.43-1.67.46-2.5,2.12-2.12,21.94,18.78,50.86,56.68,69.39,72.23,42.18,35.37,23.57,6.89,4.96-17.7-32.13-42.46-136.86-117.71-173.48-102.67-23.03,9.45,12.31,7.46,31.16,14.16,44.67,15.89,90.09,91.33,126.04,124.63,30.79,17.68,55.92,43.26,84.26,64.44l-2.12,2.12c-70.9-7.94-83.27-48.71-140.2-77.89-31.97-25.58-88.25-91.9-126.75-75.77l40.36,21.95c68.12,65.21,151.85,153.73,254.92,135.95,24.46-7.19,32.05-39.21,21.95-58.77-8.33-16.12-27.42-20.91-42.49-27.62,43.23-9.66,69.27,39.37,41.07,80.02,30.08,37.28,21.88,78.04-9.91,111.17,2.28-8.02,8.88-16.31,9.91-24.78,3.89-31.83-18.54-68.41-27.62-63.02-4.44,2.64,28.85,40.06,3.54,89.93h-2.83c10.59-64.5-25.78-78.77-24.08-59.48.29,3.32,20.26,26.36,5.66,63.73-11.35,29.07-17.87,12.09-24.78,20.53-4.51-3.1,10.97-16.47,16.29-36.11.61-2.26,6.51-30.03.71-24.78-5.61,5.07,2.88,83.48-105.51,83.56,48.7-13.55,84.82-71.56,41.07-110.46,12.28-10.4,13.06-39.93-2.12-48.15-4.02-2.17-8.25-.97-9.21-1.42-36.62-16.9-29.76-21.48-33.28-24.08-16.51-12.18-29.17-12.49-70.81-45.32-1.2-.95-2.71,1.52-2.83,1.42-16.75-18.66-36.14-35.01-54.52-50.98-5.02-4.37-35.02-33.64-37.53-33.99-11.98-1.68-.85,22.46,2.12,26.91-34.62,19.03-53.69,41.65-55.23,82.14-6.23-.38-.13,11.27-4.25,14.87v-15.58c-15.01-11.31-9.02-55.01-2.83-70.81,8.97-22.92,36.86-43.53,59.48-52.4-12.12-8.91-49.1,22.26-53.82,2.83-2.61-10.76,13.91-20.7-1.42-24.78,6.13-7.13,17.87-20.94,25.49-25.49,19.19-11.46,46.87-13.98,67.98-7.08,1.88,7.19,9.98,1.45,10.62,1.42,30.08-1.75,62.77,2.83,89.22,18.41,44.87,26.43,61.69,75.94,75.77,95.59,6.17,8.61,44.77,50.61,41.07,29.74-.71-4-35.96-46.52-41.07-53.82-.12-.17,2.29-1.03,0-4.25-42.2-59.3-76.73-108.91-160.03-94.18,1.3-.63,9-7.86,19.12-9.91,33.48-6.81,95.49,8.24,125.33,25.49Z"/>
          <g>
            <path class="write-cls-34" d="m681.19,253.5l3.54,1.42c3.28-4.41,7.28-6.18,12.04-8.5,83.3-14.74,117.83,34.88,160.03,94.18,2.29,3.22-.12,4.07,0,4.25,5.11,7.3,40.36,49.82,41.07,53.82,3.7,20.87-34.9-21.13-41.07-29.74-14.08-19.65-30.89-69.16-75.77-95.59-26.45-15.58-59.14-20.16-89.22-18.41-.64.04-8.74,5.77-10.62-1.42Z"/>
            <path class="write-cls-33" d="m921.94,397.95c2.72.02,6.2-2.32,8.5-2.83,15.07,6.71,34.16,11.49,42.49,27.62,10.1,19.56,2.51,51.58-21.95,58.77-103.07,17.77-186.79-70.75-254.92-135.95l-40.36-21.95c38.5-16.13,94.78,50.19,126.75,75.77,56.93,29.19,69.3,69.95,140.2,77.89l2.12-2.12c-28.35-21.18-53.48-46.76-84.26-64.44-35.95-33.3-81.37-108.73-126.04-124.63-18.84-6.71-54.18-4.71-31.16-14.16,36.62-15.04,141.35,60.22,173.48,102.67,18.61,24.6,37.23,53.07-4.96,17.7-18.54-15.54-47.45-53.45-69.39-72.23-1.67-.38-2.55.46-2.12,2.12,1.41,5.48,70.38,69.15,77.18,82.85,8.82,2.7,20.55,19.14,32.57,29.74,7.44,6.56,51.22,43.51,56.65,42.49,21.19-4-47.76-68.39-46.03-72.93,6.15-16.15,59.39,42.23,60.19,61.6,11.19-32.44-21.83-48.22-38.95-67.98Z"/>
            <path class="write-cls-33" d="m676.23,297.4c81.62,13.54,135.16,84.88,184.81,145.16-1.19,2.05-9.13-2.67-10.62-3.54-24.83-14.45-75.43-72.05-100.55-94.89l-2.12,2.12q26.91,27.62,53.82,55.23l-2.12,2.12c-30.1-17.06-66.57-64.64-86.39-76.47-34.28-20.48-75.81-8.45-36.82-29.74Z"/>
            <path class="write-cls-33" d="m902.83,515.5c18.94-5.19,22.16,51.44-32.57,84.97,34.78-53.92,7.42-75.98,9.21-81.43,2.37-7.24,20.95,9.75,20.53,38.95,6.77-7.51.68-41.9,2.83-42.49Z"/>
            <path class="write-cls-33" d="m662.07,288.9c19.6-2.59-14.45,30.12-10.62,10.62.14-.74,9.88-10.52,10.62-10.62Z"/>
          </g>
        </g>
      </g>
      <g>
        <path class="write-cls-28" d="m842.64,475.84c.96.44,5.19-.76,9.21,1.42,15.19,8.22,14.41,37.75,2.12,48.15-9.35,7.92-23.76,6.5-33.99,1.42.68-2.18.96-12.2,2.83-18.41,34.56,20.06,20.13-39.02,2.83-9.91-3.3-2.27-1.84-7.11-2.83-9.91,6.31-4.53,11.41-12.53,19.83-12.75Z"/>
        <g>
          <path class="write-cls-18" d="m766.16,604.72c.32,18.05,4.14,33.6,4.25,35.4.5,8.53-1.01,23.07,0,32.57-26.13,37.35-105.87,55.95-114.71-5.66,1.89-.37,13.13-3.6,14.16-4.25,6.12-3.88.82-12.36,3.54-19.83,26.04,9.44,102.34-12.95,89.93-36.82,2.13-1.39,2.7-1.33,2.83-1.42Z"/>
          <path class="write-cls-22" d="m669.86,662.78c.07-8.02-.09-16.05,0-24.08.05-4.69-.94-9.97,1.42-14.16,32.21,11.54,64.57-.4,92.05-18.41,12.41,23.87-63.89,46.26-89.93,36.82-2.72,7.46,2.58,15.95-3.54,19.83Z"/>
        </g>
        <path class="write-cls-2" d="m597.63,519.74c-.42-2.65.39-5.82,0-8.5,4.1-13.53-3.93-16.47,13.45-12.75,34.74,7.44,32.8,45.08-2.83,49.57-7.73-5.99-3.22-26.98-10.62-28.32Z"/>
        <path class="write-cls-9" d="m822.81,508.41c.99-3.28,1.18-7.14,2.83-9.91,17.3-29.11,31.73,29.97-2.83,9.91Z"/>
        <g>
          <path class="write-cls-29" d="m682.61,362.55c6.27,1.39,8.64,8.05,12.75,11.33,4.75,10.52,27.03,32.84,38.24,36.82,27.45,24.44,84.47,64.43,89.22,77.89.99,2.8-.47,7.64,2.83,9.91-1.65,2.78-1.84,6.63-2.83,9.91-1.87,6.21-2.15,16.23-2.83,18.41-9.87,31.74-25.77,58.49-53.82,77.89-.13.09-.71.02-2.83,1.42-27.48,18.01-59.85,29.95-92.05,18.41-42.35-15.18-67.08-63.14-73.64-104.8,7.4,1.34,2.9,22.34,10.62,28.32,35.63-4.49,37.57-42.12,2.83-49.57-17.39-3.72-9.36-.79-13.45,12.75-2.85-19.59-7.76-61.45-7.08-79.31,1.54-40.49,20.61-63.11,55.23-82.14,12.39,18.5,22.03,9.46,36.82,12.75Z"/>
          <g>
            <path class="write-cls-2" d="m765.45,498.5c28.88-2.68,19.77,57.45-16.99,48.15-10.95-2.77-33.65-35.69,16.99-48.15Z"/>
            <path class="write-cls-8" d="m605.42,478.67c3.05-.83,22.18,32.19,55.23,2.83,7.84,1.75-6.06,25.4-36.82,19.83-15.84-2.87-24.28-21.05-18.41-22.66Z"/>
            <path class="write-cls-8" d="m776.78,480.09c3.21,25.81-54.7,25.25-58.77,9.21-5.72-22.55,23.1,23.97,58.77-9.21Z"/>
            <path class="write-cls-13" d="m731.47,440.44c25.14-2.78,58.21,24.81,16.99,11.33-54.82,7.65-32.36-9.63-16.99-11.33Z"/>
            <path class="write-cls-13" d="m626.67,443.27c8.24-1.2,27.93.28,29.03,10.62-32.09-6.8-45.46,7.82-47.44,6.37-6.27-4.57,9.72-15.73,18.41-16.99Z"/>
            <path class="write-cls-24" d="m664.9,562.23c10.8,12.14,28.81,15.52,41.07,4.25,14.87,1.55-25.54,41.24-41.07-4.25Z"/>
            <path class="write-cls-6" d="m667.74,533.91c4.73-.78,8.27,19.01,35.4,2.83-8.74,32.18-47.71-.79-35.4-2.83Z"/>
            <path class="write-cls-28" d="m733.59,410.7c-11.2-3.98-33.49-26.3-38.24-36.82,14.25,11.37,24.91,24.95,38.24,36.82Z"/>
          </g>
        </g>
      </g>
    </g>
    <g>
      <path class="write-cls-24" d="m883.71,686.86c-62.7,69.99-144.49,97.87-237.21,80.72-24.69-4.57-59.32-20.91-85.68-16.99-7.2-8.82-15.13-16.97-22.66-25.49,2.18-.2,3.34-3.35,4.25-4.25,21.18-20.94,40.57-31.56,67.98-42.49,26.92,116.21,175.77,91.82,213.85-4.25,20.12,3.29,40.11,5.92,59.48,12.75Z"/>
      <path class="write-cls-24" d="m538.15,1069.23c-103.88,71.71-136.4-62.46-111.88-141.62,34.3,49.55,75.25,93.97,111.88,141.62Z"/>
      <path class="write-cls-24" d="m560.81,773.24c-17.43-.38-45.25,94.96-42.49,99.84,32.31,9.13,38.22,17.27,58.06,41.78-1.7,5.54,1.52,7.68-1.42,8.5-.39-.53-1.03-2.32-1.42-2.83-6.01-8.04-12.37-15.79-16.99-24.78-13.31-13.89-66.12-29.41-86.39-34.7-.17-6.79,50.36-108.5,62.31-120.38,5.09,5.64,26.87,28.69,28.32,32.57Z"/>
      <path class="write-cls-22" d="m1001.25,1086.22c-10.81-.66-48.49,23.53-53.11,24.08-59.38-16.05-75.92-38.93-27.62,9.21q-17.35,6.02-34.7,12.04l-3.54-1.42q-30.09-16.29-60.19-32.57c-4.54,1.92,28.23,34.79,30.45,38.24-12.01.38-24.09-.28-36.11,0l-19.83-25.49,3.54,23.37c-13.26,5.86-23.24-19.4-29.74-34.7-3.72-8.76-6.92-17.48-8.5-26.91,2.85.35,53.29-3.4,57.36-4.25,11.01-2.29,28.69-13.19,31.86-14.16,2.25-.69,4.65-1.6,7.08-1.42q3.19-.71,6.37-1.42c49.73,14.78,71.78,21.08,10.62-7.79,8.48-4.13,16.59-8.77,25.49-12.04,3.15-1.16,6.57-3.46,9.91-4.25,31.91-7.57,49.17,2.5,65.85,29.74,4.27.87-6.72-29.42-19.83-38.24-8.13-5.47-25.4-9.11-34.7-7.08-4.81-2.2-4.05-5.17-4.25-5.66q17.7-13.81,35.4-27.62l-35.4,19.12c-2.41-15.44-27.23-135.51-29.74-142.33-.48-1.3-2.66-2.54-4.25-2.12-2.24-20.04-2.58-40.4-7.08-60.19.17,41.33-.82,82.64-2.83,123.92-1.85,38.01-5.45,75.97-7.08,114-.04,5.86-20-14.59-21.24-16.29-21.15-28.88-61.36-150.51-65.85-192.6-6.71-4.24-113.53,34.72-129.58,38.24-8.44-7.97-18-15.34-24.08-25.49-1.05-1.75-2.13-3.65-4.25-4.25v-2.83c27.58-51.89-35.17-44.87-46.73-53.82-4.3-6.12-10.08-17.66-14.16-22.66,26.36-3.91,60.99,12.43,85.68,16.99,92.73,17.14,174.51-10.74,237.21-80.72,124.56,43.9,181.99,303.1,117.54,399.37Z"/>
      <g>
        <path class="write-cls-24" d="m685.44,1107.47l4.25,1.42c2.51,4.41,7.75,15.25,12.04,16.99q37.53,3.54,75.06,7.08l-6.37-33.99c6.5,15.29,16.48,40.55,29.74,34.7l-3.54-23.37,19.83,25.49c12.02-.28,24.1.38,36.11,0,9.51-.3,20.74.84,29.74-5.66l3.54,1.42q17.35-6.02,34.7-12.04c-48.3-48.13-31.76-25.26,27.62-9.21,4.62-.54,42.3-24.74,53.11-24.08-6.33,9.46-14.06,19.53-22.66,26.91-96.28,82.66-335.66,90.97-449.64,45.32-4.81-1.93-3.29-4.14-3.54-4.25q11.33-35.4,22.66-70.81c41.13,24.8,92.46,28.86,139.5,31.16.42-.22-1.75-6.22-2.12-7.08Z"/>
        <path class="write-cls-24" d="m882.29,1130.12c-9,6.5-20.23,5.36-29.74,5.66-2.21-3.45-34.98-36.32-30.45-38.24q30.09,16.29,60.19,32.57Z"/>
      </g>
      <path class="write-cls-5" d="m883.71,852.55c1.1,9.8-.63,14.11,0,19.12.14,1.12,2.69.29,2.83,1.42,6.21,48.61,17.19,97.45,22.66,145.16.34,2.95.33,5.66,1.42,8.5-3.34.79-6.77,3.09-9.91,4.25-2.09-4.43-8.01,3.25-9.91.71-3.2-4.28-8.63-92.41-11.33-106.21-.1-.53-4.07-9.4-5.66-9.21,2.01-41.28,3-82.59,2.83-123.92,4.5,19.79,4.84,40.15,7.08,60.19Z"/>
      <path class="write-cls-26" d="m900.7,1030.99c-8.9,3.27-17.01,7.91-25.49,12.04,61.16,28.87,39.11,22.57-10.62,7.79q-3.19.71-6.37,1.42c4.25-10.03-10.65-25.52-12.75-38.24,1.24,1.69,21.2,22.14,21.24,16.29,1.63-38.03,5.23-75.99,7.08-114,1.59-.19,5.56,8.67,5.66,9.21,2.7,13.8,8.13,101.94,11.33,106.21,1.9,2.54,7.82-5.14,9.91-.71Z"/>
      <path class="write-cls-24" d="m917.7,997c.11.72-3.11,6.42-2.83,7.79.24,1.21,2.77.56,2.83.71.2.49-.57,3.47,4.25,5.66-.71.16-2.83,4.76-12.75,7.08-5.47-47.71-16.44-96.55-22.66-145.16-.14-1.12-2.69-.29-2.83-1.42-.63-5.01,1.1-9.32,0-19.12,1.59-.42,3.77.83,4.25,2.12,2.51,6.82,27.33,126.89,29.74,142.33Z"/>
      <path class="write-cls-26" d="m910.61,1026.74c-1.08-2.84-1.08-5.55-1.42-8.5,9.91-2.32,12.03-6.93,12.75-7.08,9.3-2.03,26.57,1.61,34.7,7.08,13.11,8.82,24.1,39.11,19.83,38.24-16.68-27.24-33.94-37.31-65.85-29.74Z"/>
      <path class="write-cls-24" d="m917.7,1005.5c-.06-.15-2.59.5-2.83-.71-.27-1.36,2.94-7.07,2.83-7.79l35.4-19.12q-17.7,13.81-35.4,27.62Z"/>
      <g>
        <path class="write-cls-19" d="m560.81,773.24c.15.39-.12.95,0,1.42,3.46,13.59-9.63,21.55,7.79,22.66l40.36,25.49c-.18.31.1,1.7,0,2.83-.29.01-5.39-1.31-5.66-1.42-2.42-.97-26.23-21.55-45.32-23.37-.57.6-2.2,14-2.83,16.29-13.09,46.99-9.71,48.74,49.57,59.48v1.42c-8.57,5.71-17.47,18.06-22.66,26.91-1.87,3.19-4.55,6.3-5.66,9.91-19.84-24.51-25.75-32.65-58.06-41.78-2.77-4.88,25.05-100.22,42.49-99.84Z"/>
        <g>
          <path class="write-cls-3" d="m594.8,834.14c-.46,2.37-.42,7.33,1.42,7.08,2.74,2.08,5.37,1.21,5.66,1.42,6.34,4.39,8.58,4.55,9.91,5.66.08.06,1.35,1.33,1.42,1.42,14.56,17.23-51.28-13.53-54.52-14.16-2.27-.44-5.97-1.76-6.37.71-3.75,23.07,77.83,22.92,52.4,40.36-59.27-10.74-62.65-12.49-49.57-59.48h1.42c12.1,6.91,24.43,14.53,38.24,16.99Z"/>
          <path class="write-cls-24" d="m613.21,849.72c3.31.52,2.69-1.35,2.83-1.42,2.82-1.35,4.3.86,8.5-7.08q9.21,9.91,18.41,19.83c-5.26,1.97-36.5,15.83-38.24,16.99v-1.42c25.43-17.44-56.15-17.29-52.4-40.36.4-2.47,4.1-1.15,6.37-.71,3.24.63,69.08,31.4,54.52,14.16Z"/>
          <path class="write-cls-31" d="m603.3,824.23c-3.92.05-4.52,4.58-5.66,7.08-17.79-7.15-44-26.93-41.07-14.16h-1.42c.64-2.28,2.26-15.69,2.83-16.29,19.09,1.82,42.9,22.4,45.32,23.37Z"/>
          <g>
            <path class="write-cls-29" d="m621.71,827.06l-7.08-4.25c7.28-8.39-2.62-5.23-5.66,0l-40.36-25.49c-17.42-1.11-4.33-9.07-7.79-22.66l14.16-1.42c11.56,8.95,74.31,1.92,46.73,53.82Z"/>
            <path class="write-cls-11" d="m614.63,822.81c-1.18,1.36-3.64,2.76-5.66,2.83.1-1.13-.18-2.52,0-2.83,3.04-5.23,12.95-8.39,5.66,0Z"/>
            <path class="write-cls-4" d="m595.51,793.07c7.47-.84,21.37,2.72,23.37,10.62,5.34,21.08-5.96-3.65-10.62-6.37-1-.58-11.37-.95-12.75-4.25Z"/>
          </g>
          <path class="write-cls-20" d="m597.63,831.31c-1.05,2.29-2.42.68-2.83,2.83-13.81-2.47-26.13-10.08-38.24-16.99-2.93-12.76,23.28,7.01,41.07,14.16Z"/>
          <path class="write-cls-12" d="m616.05,848.3c-.14.07.48,1.94-2.83,1.42-.07-.08-1.34-1.35-1.42-1.42h4.25Z"/>
        </g>
      </g>
    </g>
  </g>
</svg>