<?xml version="1.0" encoding="UTF-8"?>
<svg xmlns="http://www.w3.org/2000/svg" xmlns:xlink="http://www.w3.org/1999/xlink" width="200px" height="200px" viewBox="0 0 200 136" version="1.1">
<g id="surface1">
<path style=" stroke:none;fill-rule:nonzero;fill:rgb(0%,30.588235%,2.745098%);fill-opacity:1;" d="M 65.679688 44.167969 C 68.53125 44.246094 71.367188 44.632812 74.210938 44.804688 C 82.835938 45.542969 91.46875 46.238281 100.09375 46.984375 L 99.945312 47.128906 C 99.066406 47.972656 98.390625 48.984375 97.609375 49.90625 C 95.242188 52.886719 92.765625 55.78125 90.460938 58.804688 C 88.242188 58.453125 86 58.34375 83.777344 58.082031 C 73.878906 57.128906 63.988281 56.113281 54.09375 55.148438 C 53.105469 55.074219 52.121094 54.976562 51.144531 54.820312 C 55.980469 51.253906 60.824219 47.695312 65.679688 44.167969 M 73.640625 46.253906 C 70.71875 46.800781 67.953125 48.085938 65.644531 49.945312 C 64.964844 50.578125 64.230469 51.199219 63.800781 52.039062 C 63.6875 52.511719 63.75 53.003906 63.75 53.488281 C 64.148438 53.949219 64.621094 54.355469 65.195312 54.589844 C 67.171875 55.457031 69.351562 55.613281 71.472656 55.84375 C 73.296875 55.878906 75.136719 55.972656 76.945312 55.683594 C 80.3125 55.285156 83.710938 54.117188 86.210938 51.769531 C 86.890625 51.113281 87.648438 50.46875 87.988281 49.558594 C 88.066406 49.089844 88.011719 48.605469 88 48.132812 C 87.371094 47.28125 86.367188 46.84375 85.367188 46.574219 C 81.546875 45.65625 77.511719 45.503906 73.640625 46.253906 Z M 73.640625 46.253906 "/>
<path style=" stroke:none;fill-rule:nonzero;fill:rgb(0%,30.588235%,2.745098%);fill-opacity:1;" d="M 69.710938 50.515625 C 72.082031 48.433594 75.101562 46.867188 78.328125 46.882812 C 80.21875 46.875 82.351562 46.820312 83.890625 48.101562 C 83.871094 48.457031 83.96875 48.851562 83.769531 49.171875 C 83.25 50.097656 82.390625 50.757812 81.632812 51.480469 C 79.425781 53.503906 76.421875 54.554688 73.4375 54.519531 C 71.59375 54.523438 69.480469 54.488281 68.0625 53.148438 C 67.894531 51.972656 69.015625 51.269531 69.710938 50.515625 Z M 69.710938 50.515625 "/>
<path style=" stroke:none;fill-rule:nonzero;fill:rgb(52.941176%,49.411765%,46.666667%);fill-opacity:1;" d="M 73.640625 46.253906 C 77.511719 45.503906 81.546875 45.65625 85.367188 46.574219 C 86.367188 46.84375 87.371094 47.28125 88 48.132812 C 88.011719 48.605469 88.066406 49.089844 87.988281 49.558594 C 87.648438 50.46875 86.890625 51.113281 86.210938 51.769531 C 83.710938 54.117188 80.3125 55.285156 76.945312 55.683594 C 75.136719 55.972656 73.296875 55.878906 71.472656 55.84375 C 69.351562 55.613281 67.171875 55.457031 65.195312 54.589844 C 64.621094 54.355469 64.148438 53.949219 63.75 53.488281 C 63.75 53.003906 63.6875 52.511719 63.800781 52.039062 C 64.230469 51.199219 64.964844 50.578125 65.644531 49.945312 C 67.953125 48.085938 70.71875 46.800781 73.640625 46.253906 M 69.710938 50.515625 C 69.015625 51.269531 67.894531 51.972656 68.0625 53.148438 C 69.480469 54.488281 71.59375 54.523438 73.4375 54.519531 C 76.421875 54.554688 79.425781 53.503906 81.632812 51.480469 C 82.390625 50.757812 83.25 50.097656 83.769531 49.171875 C 83.96875 48.851562 83.871094 48.457031 83.890625 48.101562 C 82.351562 46.820312 80.21875 46.875 78.328125 46.882812 C 75.101562 46.867188 72.082031 48.433594 69.710938 50.515625 Z M 69.710938 50.515625 "/>
<path style=" stroke:none;fill-rule:nonzero;fill:rgb(52.941176%,49.411765%,46.666667%);fill-opacity:1;" d="M 110.640625 49.492188 C 113.730469 49.054688 116.882812 48.59375 119.742188 47.292969 C 120.722656 47.238281 121.710938 47.253906 122.691406 47.332031 C 123.382812 50.824219 124.222656 54.289062 124.925781 57.78125 C 123.714844 57.867188 122.503906 57.789062 121.292969 57.804688 C 120.796875 57.792969 120.269531 57.867188 119.835938 57.578125 C 119.496094 54.910156 119.054688 52.242188 118.613281 49.585938 C 116.128906 50.039062 113.636719 50.519531 111.117188 50.773438 C 110.996094 50.734375 110.75 50.65625 110.625 50.617188 C 110.628906 50.242188 110.632812 49.867188 110.640625 49.492188 Z M 110.640625 49.492188 "/>
<path style=" stroke:none;fill-rule:nonzero;fill:rgb(52.941176%,49.411765%,46.666667%);fill-opacity:1;" d="M 22.617188 49.320312 C 25.671875 48.855469 28.757812 48.550781 31.847656 48.679688 C 33.289062 48.832031 34.902344 48.875 36.070312 49.84375 C 36.046875 50.230469 36.203125 50.710938 35.871094 51.011719 C 34.953125 51.980469 33.652344 52.433594 32.460938 52.96875 C 30.011719 53.949219 27.515625 54.792969 25.027344 55.652344 C 23.367188 56.246094 21.675781 56.761719 20.109375 57.578125 C 24.570312 57.160156 29.023438 56.617188 33.484375 56.164062 C 34.582031 56.066406 35.675781 55.832031 36.78125 55.882812 C 36.789062 56.308594 36.796875 56.734375 36.800781 57.164062 C 31.304688 57.746094 25.8125 58.375 20.316406 58.96875 C 17.78125 59.214844 15.257812 59.613281 12.71875 59.75 C 12.871094 59.386719 13.0625 59.023438 13.394531 58.789062 C 14.511719 57.933594 15.816406 57.355469 17.109375 56.816406 C 20.933594 55.28125 24.933594 54.210938 28.757812 52.664062 C 29.859375 52.1875 31.117188 51.757812 31.796875 50.699219 C 31.144531 49.804688 29.90625 49.820312 28.90625 49.785156 C 26.738281 49.722656 24.554688 49.910156 22.453125 50.460938 C 21.679688 50.691406 20.875 50.921875 20.222656 51.410156 C 19.828125 51.6875 19.746094 52.367188 19.15625 52.320312 C 17.78125 52.324219 16.417969 52.550781 15.042969 52.542969 C 15.371094 51.78125 16.125 51.347656 16.828125 50.96875 C 18.636719 50.070312 20.640625 49.671875 22.617188 49.320312 Z M 22.617188 49.320312 "/>
<path style=" stroke:none;fill-rule:nonzero;fill:rgb(40%,0%,0%);fill-opacity:1;" d="M 7.195312 49.722656 C 20.328125 48.59375 33.449219 47.339844 46.585938 46.246094 C 47.265625 50.050781 47.871094 53.871094 48.519531 57.679688 C 45.984375 57.734375 43.464844 58.105469 40.945312 58.378906 C 29.3125 59.546875 17.691406 60.804688 6.058594 61.996094 C 4.84375 62.167969 3.605469 62.144531 2.402344 62.425781 C 2.386719 62.742188 2.367188 63.054688 2.359375 63.371094 L 2.355469 63.582031 C 2.285156 63.226562 2.207031 62.871094 2.09375 62.527344 C 3.621094 58.429688 5.285156 54.386719 6.851562 50.304688 C 6.945312 50.101562 6.984375 49.84375 7.195312 49.722656 M 22.617188 49.320312 C 20.640625 49.671875 18.636719 50.070312 16.828125 50.96875 C 16.125 51.347656 15.371094 51.78125 15.042969 52.542969 C 16.417969 52.550781 17.78125 52.324219 19.15625 52.320312 C 19.746094 52.367188 19.828125 51.6875 20.222656 51.410156 C 20.875 50.921875 21.679688 50.691406 22.453125 50.460938 C 24.554688 49.910156 26.738281 49.722656 28.90625 49.785156 C 29.90625 49.820312 31.144531 49.804688 31.796875 50.699219 C 31.117188 51.757812 29.859375 52.1875 28.757812 52.664062 C 24.933594 54.210938 20.933594 55.28125 17.109375 56.816406 C 15.816406 57.355469 14.511719 57.933594 13.394531 58.789062 C 13.0625 59.023438 12.871094 59.386719 12.71875 59.75 C 15.257812 59.613281 17.78125 59.214844 20.316406 58.96875 C 25.8125 58.375 31.304688 57.746094 36.800781 57.164062 C 36.796875 56.734375 36.789062 56.308594 36.78125 55.882812 C 35.675781 55.832031 34.582031 56.066406 33.484375 56.164062 C 29.023438 56.617188 24.570312 57.160156 20.109375 57.578125 C 21.675781 56.761719 23.367188 56.246094 25.027344 55.652344 C 27.515625 54.792969 30.011719 53.949219 32.460938 52.96875 C 33.652344 52.433594 34.953125 51.980469 35.871094 51.011719 C 36.203125 50.710938 36.046875 50.230469 36.070312 49.84375 C 34.902344 48.875 33.289062 48.832031 31.847656 48.679688 C 28.757812 48.550781 25.671875 48.855469 22.617188 49.320312 Z M 22.617188 49.320312 "/>
<path style=" stroke:none;fill-rule:nonzero;fill:rgb(29.019608%,25.882353%,5.098039%);fill-opacity:1;" d="M 168.964844 46.5 C 170.460938 46.335938 171.96875 46.363281 173.464844 46.183594 C 179.269531 49.742188 185.101562 53.25 190.914062 56.792969 C 191.453125 57.132812 192.035156 57.414062 192.515625 57.839844 C 191.675781 58.195312 190.742188 58.15625 189.855469 58.234375 C 178.332031 59.082031 166.804688 59.886719 155.28125 60.746094 C 154.425781 60.789062 153.570312 60.855469 152.730469 61.023438 C 152.226562 62.960938 152.179688 64.976562 151.851562 66.945312 C 151 73.644531 150.242188 80.355469 149.355469 87.050781 C 149.109375 88.941406 149.039062 90.871094 148.523438 92.707031 C 145.617188 89.042969 142.84375 85.265625 139.996094 81.550781 C 140.074219 80.992188 140.132812 80.429688 140.179688 79.867188 C 140.921875 81.21875 141.507812 82.761719 142.816406 83.679688 C 143.34375 84.101562 144.210938 84.234375 144.742188 83.746094 C 145.828125 82.878906 146.277344 81.492188 146.589844 80.195312 C 147.414062 76.394531 147.253906 72.390625 146.160156 68.660156 C 145.660156 67.03125 144.984375 65.34375 143.648438 64.210938 C 143.164062 63.78125 142.515625 63.660156 141.890625 63.605469 C 141.890625 63.480469 141.894531 63.234375 141.894531 63.109375 L 141.898438 63.074219 C 142.402344 61.472656 142.667969 59.800781 142.9375 58.148438 C 143.132812 58.1875 143.371094 58.128906 143.523438 58.285156 C 145.035156 59.683594 146.402344 61.230469 147.964844 62.566406 C 148.234375 61.25 148.398438 59.902344 148.367188 58.558594 C 147.34375 57.566406 146.324219 56.566406 145.230469 55.648438 C 144.242188 54.671875 143.210938 53.738281 142.15625 52.835938 C 141.855469 54.234375 141.585938 55.644531 141.351562 57.054688 C 140.425781 54.59375 139.535156 52.117188 138.566406 49.671875 C 138.589844 49.214844 138.679688 48.769531 138.757812 48.320312 C 143.050781 48.085938 147.339844 47.792969 151.632812 47.546875 C 151.597656 47.683594 151.53125 47.960938 151.492188 48.097656 C 151.441406 48.125 151.335938 48.183594 151.28125 48.210938 C 152.03125 49.90625 152.675781 51.648438 153.445312 53.335938 C 154.710938 53.398438 155.976562 53.371094 157.242188 53.382812 C 158.011719 53.445312 158.570312 52.816406 159.273438 52.628906 C 160.382812 52.304688 161.546875 52.207031 162.695312 52.171875 C 165.476562 52.132812 168.398438 52.363281 170.90625 53.667969 C 171.675781 54.144531 172.703125 54.773438 172.558594 55.816406 C 171.257812 56.960938 169.421875 57.058594 167.769531 57.054688 C 165.5 57.144531 163.1875 56.882812 161.078125 56.011719 C 160.558594 55.804688 160.113281 55.449219 159.578125 55.289062 C 158.398438 55.15625 157.230469 55.414062 156.054688 55.449219 C 155.664062 55.453125 155.289062 55.550781 154.929688 55.6875 C 157.386719 57.203125 160.246094 57.898438 163.089844 58.246094 C 165.164062 58.484375 167.25 58.632812 169.34375 58.546875 C 171.488281 58.351562 173.703125 58.335938 175.734375 57.527344 C 176.484375 57.242188 177.1875 56.742188 177.578125 56.027344 C 177.761719 55.46875 177.402344 54.921875 177.050781 54.515625 C 176.023438 53.441406 174.625 52.8125 173.238281 52.328125 C 171.210938 51.660156 169.101562 51.269531 166.984375 51.039062 C 165.039062 50.914062 163.078125 50.6875 161.132812 50.941406 C 159.742188 50.984375 158.378906 51.265625 157.023438 51.566406 C 156.695312 50.800781 156.339844 50.046875 156.070312 49.257812 C 156.78125 49.242188 157.488281 49.234375 158.195312 49.167969 C 160.015625 48.996094 161.847656 49.136719 163.664062 48.960938 C 165.15625 48.820312 166.65625 48.941406 168.148438 48.785156 C 167.484375 48.230469 166.796875 47.417969 165.828125 47.578125 C 163.863281 47.769531 161.882812 47.609375 159.917969 47.808594 C 159.09375 47.878906 158.265625 47.863281 157.4375 47.890625 C 157.4375 47.710938 157.429688 47.347656 157.421875 47.167969 C 161.273438 47 165.117188 46.679688 168.964844 46.5 Z M 168.964844 46.5 "/>
<path style=" stroke:none;fill-rule:nonzero;fill:rgb(29.019608%,25.882353%,5.098039%);fill-opacity:1;" d="M 141.484375 66.984375 C 142.1875 66.851562 142.9375 66.988281 143.359375 67.621094 C 145.058594 69.800781 145.296875 72.738281 145.175781 75.394531 C 144.964844 77.121094 144.933594 79.164062 143.460938 80.355469 C 143.183594 80.300781 142.859375 80.328125 142.648438 80.113281 C 141.28125 78.972656 140.863281 77.132812 140.640625 75.453125 C 140.863281 72.625 141.164062 69.804688 141.484375 66.984375 Z M 141.484375 66.984375 "/>
<path style=" stroke:none;fill-rule:nonzero;fill:rgb(6.27451%,20.392157%,36.078431%);fill-opacity:1;" d="M 100.664062 46.460938 C 105.453125 46.5625 110.25 46.546875 115.039062 46.710938 C 118.230469 46.765625 121.421875 46.773438 124.609375 46.867188 C 128.929688 46.980469 133.257812 46.941406 137.578125 47.105469 C 137.90625 47.960938 138.199219 48.828125 138.566406 49.671875 C 139.535156 52.117188 140.425781 54.59375 141.351562 57.054688 C 141.601562 57.851562 141.996094 58.601562 142.164062 59.425781 C 140.898438 59.40625 139.632812 59.421875 138.367188 59.375 C 135.085938 59.144531 131.792969 59.28125 128.507812 59.179688 C 124.796875 58.882812 121.070312 59.1875 117.367188 58.875 C 114.765625 58.808594 112.160156 58.871094 109.558594 58.785156 C 105.9375 58.488281 102.289062 58.820312 98.667969 58.457031 C 98.984375 55.597656 99.609375 52.777344 99.980469 49.917969 C 100.296875 48.78125 100.445312 47.617188 100.664062 46.460938 M 110.640625 49.492188 C 110.632812 49.867188 110.628906 50.242188 110.625 50.617188 C 110.75 50.65625 110.996094 50.734375 111.117188 50.773438 C 113.636719 50.519531 116.128906 50.039062 118.613281 49.585938 C 119.054688 52.242188 119.496094 54.910156 119.835938 57.578125 C 120.269531 57.867188 120.796875 57.792969 121.292969 57.804688 C 122.503906 57.789062 123.714844 57.867188 124.925781 57.78125 C 124.222656 54.289062 123.382812 50.824219 122.691406 47.332031 C 121.710938 47.253906 120.722656 47.238281 119.742188 47.292969 C 116.882812 48.59375 113.730469 49.054688 110.640625 49.492188 Z M 110.640625 49.492188 "/>
<path style=" stroke:none;fill-rule:nonzero;fill:rgb(0%,13.333333%,1.176471%);fill-opacity:1;" d="M 97.609375 49.90625 C 98.390625 48.984375 99.066406 47.972656 99.945312 47.128906 C 99.972656 48.058594 99.945312 48.992188 99.980469 49.917969 C 99.609375 52.777344 98.984375 55.597656 98.667969 58.457031 C 98.695312 64.652344 98.691406 70.847656 98.710938 77.042969 C 96.140625 81.367188 93.671875 85.757812 91.148438 90.109375 C 91.078125 87.726562 91.121094 85.34375 90.96875 82.964844 C 90.9375 77.847656 90.695312 72.734375 90.675781 67.613281 C 90.5 64.679688 90.5625 61.742188 90.460938 58.804688 C 92.765625 55.78125 95.242188 52.886719 97.609375 49.90625 Z M 97.609375 49.90625 "/>
<path style=" stroke:none;fill-rule:nonzero;fill:rgb(36.078431%,32.156863%,6.666667%);fill-opacity:1;" d="M 151.632812 47.546875 C 153.5625 47.40625 155.496094 47.339844 157.421875 47.167969 C 157.429688 47.347656 157.4375 47.710938 157.4375 47.890625 C 155.453125 47.910156 153.476562 48.117188 151.492188 48.097656 C 151.53125 47.960938 151.597656 47.683594 151.632812 47.546875 Z M 151.632812 47.546875 "/>
<path style=" stroke:none;fill-rule:nonzero;fill:rgb(52.54902%,49.411765%,46.27451%);fill-opacity:1;" d="M 159.917969 47.808594 C 161.882812 47.609375 163.863281 47.769531 165.828125 47.578125 C 166.796875 47.417969 167.484375 48.230469 168.148438 48.785156 C 166.65625 48.941406 165.15625 48.820312 163.664062 48.960938 C 161.847656 49.136719 160.015625 48.996094 158.195312 49.167969 C 157.488281 49.234375 156.78125 49.242188 156.070312 49.257812 C 156.339844 50.046875 156.695312 50.800781 157.023438 51.566406 C 158.378906 51.265625 159.742188 50.984375 161.132812 50.941406 C 163.078125 50.6875 165.039062 50.914062 166.984375 51.039062 C 169.101562 51.269531 171.210938 51.660156 173.238281 52.328125 C 174.625 52.8125 176.023438 53.441406 177.050781 54.515625 C 177.402344 54.921875 177.761719 55.46875 177.578125 56.027344 C 177.1875 56.742188 176.484375 57.242188 175.734375 57.527344 C 173.703125 58.335938 171.488281 58.351562 169.34375 58.546875 C 167.25 58.632812 165.164062 58.484375 163.089844 58.246094 C 160.246094 57.898438 157.386719 57.203125 154.929688 55.6875 C 155.289062 55.550781 155.664062 55.453125 156.054688 55.449219 C 157.230469 55.414062 158.398438 55.15625 159.578125 55.289062 C 160.113281 55.449219 160.558594 55.804688 161.078125 56.011719 C 163.1875 56.882812 165.5 57.144531 167.769531 57.054688 C 169.421875 57.058594 171.257812 56.960938 172.558594 55.816406 C 172.703125 54.773438 171.675781 54.144531 170.90625 53.667969 C 168.398438 52.363281 165.476562 52.132812 162.695312 52.171875 C 161.546875 52.207031 160.382812 52.304688 159.273438 52.628906 C 158.570312 52.816406 158.011719 53.445312 157.242188 53.382812 C 155.976562 53.371094 154.710938 53.398438 153.445312 53.335938 C 152.675781 51.648438 152.03125 49.90625 151.28125 48.210938 C 151.335938 48.183594 151.441406 48.125 151.492188 48.097656 C 153.476562 48.117188 155.453125 47.910156 157.4375 47.890625 C 158.265625 47.863281 159.09375 47.878906 159.917969 47.808594 Z M 159.917969 47.808594 "/>
<path style=" stroke:none;fill-rule:nonzero;fill:rgb(49.803922%,47.843137%,45.882353%);fill-opacity:1;" d="M 141.351562 57.054688 C 141.585938 55.644531 141.855469 54.234375 142.15625 52.835938 C 143.210938 53.738281 144.242188 54.671875 145.230469 55.648438 C 146.324219 56.566406 147.34375 57.566406 148.367188 58.558594 C 148.398438 59.902344 148.234375 61.25 147.964844 62.566406 C 146.402344 61.230469 145.035156 59.683594 143.523438 58.285156 C 143.371094 58.128906 143.132812 58.1875 142.9375 58.148438 C 142.667969 59.800781 142.402344 61.472656 141.898438 63.074219 C 141.910156 61.851562 142.140625 60.644531 142.164062 59.425781 C 141.996094 58.601562 141.601562 57.851562 141.351562 57.054688 Z M 141.351562 57.054688 "/>
<path style=" stroke:none;fill-rule:nonzero;fill:rgb(0%,39.607843%,3.137255%);fill-opacity:1;" d="M 51.070312 54.808594 L 51.144531 54.820312 C 52.121094 54.976562 53.105469 55.074219 54.09375 55.148438 C 63.988281 56.113281 73.878906 57.128906 83.777344 58.082031 C 86 58.34375 88.242188 58.453125 90.460938 58.804688 C 90.5625 61.742188 90.5 64.679688 90.675781 67.613281 C 90.695312 72.734375 90.9375 77.847656 90.96875 82.964844 C 91.121094 85.34375 91.078125 87.726562 91.148438 90.109375 C 82.828125 89.035156 74.523438 87.828125 66.203125 86.710938 C 62.335938 86.191406 58.46875 85.605469 54.589844 85.144531 C 54.457031 84.816406 54.417969 84.464844 54.398438 84.113281 C 53.300781 74.34375 52.15625 64.582031 51.070312 54.808594 M 61.675781 64.105469 C 61.367188 64.984375 61.179688 65.894531 61.058594 66.820312 C 60.929688 69.351562 61.007812 71.90625 61.578125 74.390625 C 62.203125 77.382812 63.527344 80.449219 66.089844 82.289062 C 68.625 84.167969 71.917969 84.734375 75.007812 84.371094 C 76.414062 84.03125 77.777344 83.324219 78.644531 82.144531 C 79.757812 80.714844 80.195312 78.890625 80.367188 77.125 C 80.460938 74.414062 80.464844 71.664062 79.800781 69.015625 C 79.234375 66.828125 78.21875 64.710938 76.664062 63.046875 C 75.097656 61.390625 72.9375 60.414062 70.71875 59.980469 C 69.21875 59.832031 67.703125 59.839844 66.203125 59.96875 L 66.046875 60.078125 C 63.992188 60.523438 62.386719 62.175781 61.675781 64.105469 Z M 61.675781 64.105469 "/>
<path style=" stroke:none;fill-rule:nonzero;fill:rgb(0%,39.607843%,3.137255%);fill-opacity:1;" d="M 66.578125 63.714844 C 66.964844 63.324219 67.472656 63.101562 67.96875 62.882812 C 69.835938 62.585938 71.878906 62.933594 73.265625 64.296875 C 74.742188 65.496094 75.414062 67.355469 75.761719 69.164062 C 76.320312 71.714844 76.125 74.34375 76.136719 76.933594 C 76.171875 78.484375 75.726562 80.257812 74.320312 81.128906 C 73.277344 81.898438 71.898438 81.808594 70.6875 81.640625 C 68.359375 81.050781 66.5625 79.046875 65.96875 76.761719 C 65.050781 73.597656 64.980469 70.277344 65.148438 67.007812 C 65.335938 65.824219 65.632812 64.539062 66.578125 63.714844 Z M 66.578125 63.714844 "/>
<path style=" stroke:none;fill-rule:nonzero;fill:rgb(45.490196%,0%,0%);fill-opacity:1;" d="M 40.945312 58.378906 C 43.464844 58.105469 45.984375 57.734375 48.519531 57.679688 C 49.757812 68 51.011719 78.3125 52.25 88.632812 C 38.925781 90.554688 25.605469 92.515625 12.28125 94.460938 C 11.375 94.546875 10.472656 94.835938 9.554688 94.738281 C 9.023438 91.921875 8.277344 89.144531 7.65625 86.34375 C 5.980469 79.117188 4.296875 71.894531 2.625 64.671875 C 2.527344 64.238281 2.398438 63.8125 2.359375 63.371094 C 2.367188 63.054688 2.386719 62.742188 2.402344 62.425781 C 3.605469 62.144531 4.84375 62.167969 6.058594 61.996094 C 17.691406 60.804688 29.3125 59.546875 40.945312 58.378906 M 17.726562 64.050781 C 15.828125 65.046875 14.175781 66.675781 13.578125 68.773438 C 13.285156 69.761719 13.339844 70.800781 13.359375 71.820312 C 14.636719 71.835938 15.914062 71.792969 17.191406 71.789062 C 17.742188 71.773438 18.339844 71.863281 18.824219 71.542969 C 18.808594 70.472656 18.617188 69.285156 19.269531 68.351562 C 20.507812 66.34375 22.960938 65.578125 25.191406 65.378906 C 26.335938 65.363281 27.511719 65.277344 28.617188 65.632812 C 30.179688 66.070312 31.8125 67.035156 32.285156 68.683594 C 32.390625 69.363281 32.402344 70.074219 32.261719 70.746094 C 31.476562 72.867188 29.804688 74.496094 28.148438 75.972656 C 25.332031 78.636719 22 80.714844 19.316406 83.523438 C 18.15625 84.667969 17.136719 85.996094 16.527344 87.515625 C 16.15625 88.386719 16.273438 89.347656 16.3125 90.265625 C 16.796875 90.265625 17.28125 90.21875 17.757812 90.128906 C 22.714844 89.433594 27.671875 88.738281 32.628906 88.042969 C 35.121094 87.730469 37.601562 87.242188 40.109375 87.074219 C 40.347656 85.992188 39.933594 84.917969 39.886719 83.839844 C 39.351562 83.804688 38.816406 83.847656 38.289062 83.953125 C 33.660156 84.585938 29.03125 85.210938 24.402344 85.847656 C 23.882812 85.953125 23.355469 85.996094 22.828125 85.984375 C 23.714844 84.523438 25.167969 83.554688 26.433594 82.449219 C 29.492188 79.917969 32.710938 77.542969 35.347656 74.558594 C 36.359375 73.277344 37.441406 71.84375 37.457031 70.140625 C 37.46875 69.054688 37.566406 67.902344 37.03125 66.90625 C 36.050781 64.800781 33.941406 63.488281 31.800781 62.761719 C 29.367188 61.925781 26.75 62.226562 24.226562 62.246094 C 21.980469 62.46875 19.738281 63.007812 17.726562 64.050781 Z M 17.726562 64.050781 "/>
<path style=" stroke:none;fill-rule:nonzero;fill:rgb(41.960784%,36.470588%,6.666667%);fill-opacity:1;" d="M 192.515625 57.839844 C 192.5625 57.824219 192.652344 57.785156 192.695312 57.765625 C 192.8125 57.976562 192.832031 58.195312 192.75 58.425781 C 190.503906 68.648438 188.304688 78.875 186.042969 89.089844 C 173.964844 90.335938 161.875 91.523438 149.796875 92.757812 C 149.359375 92.792969 148.917969 92.816406 148.480469 92.847656 C 148.492188 92.8125 148.515625 92.742188 148.523438 92.707031 C 149.039062 90.871094 149.109375 88.941406 149.355469 87.050781 C 150.242188 80.355469 151 73.644531 151.851562 66.945312 C 152.179688 64.976562 152.226562 62.960938 152.730469 61.023438 C 153.570312 60.855469 154.425781 60.789062 155.28125 60.746094 C 166.804688 59.886719 178.332031 59.082031 189.855469 58.234375 C 190.742188 58.15625 191.675781 58.195312 192.515625 57.839844 M 167.191406 62.855469 C 166.457031 62.878906 165.703125 62.824219 165 63.085938 C 163.257812 67.722656 161.546875 72.371094 159.796875 77.007812 C 160.03125 77.121094 160.28125 77.222656 160.546875 77.207031 C 161.617188 77.214844 162.679688 77.242188 163.75 77.234375 C 165.839844 74.789062 169.339844 73.734375 172.457031 74.492188 C 173.625 74.808594 174.632812 75.703125 175.015625 76.859375 C 175.59375 79.625 174.203125 82.578125 171.871094 84.132812 C 170.117188 85.402344 167.851562 85.871094 165.726562 85.511719 C 164.707031 85.234375 163.695312 84.621094 163.292969 83.601562 C 162.90625 82.960938 163.03125 82.1875 162.789062 81.503906 C 161.382812 81.734375 159.96875 81.9375 158.558594 82.132812 C 158.40625 82.378906 158.25 82.648438 158.335938 82.953125 C 158.445312 83.820312 158.609375 84.703125 159.078125 85.460938 C 159.964844 86.960938 161.59375 87.894531 163.273438 88.25 C 165.269531 88.695312 167.34375 88.511719 169.328125 88.125 C 173.15625 87.316406 176.664062 84.859375 178.515625 81.410156 C 179.484375 79.652344 179.839844 77.597656 179.53125 75.621094 C 179.175781 74.210938 178.257812 72.953125 177.003906 72.199219 C 175.078125 70.914062 172.644531 70.835938 170.414062 71.089844 C 168.675781 71.335938 167.039062 72 165.484375 72.785156 C 166.246094 70.628906 167.195312 68.542969 167.960938 66.390625 C 172.140625 65.941406 176.34375 65.78125 180.527344 65.378906 C 180.953125 64.273438 181.15625 63.058594 181.175781 61.871094 C 176.511719 62.175781 171.851562 62.523438 167.191406 62.855469 Z M 167.191406 62.855469 "/>
<path style=" stroke:none;fill-rule:nonzero;fill:rgb(9.803922%,32.941176%,55.294118%);fill-opacity:1;" d="M 98.667969 58.457031 C 102.289062 58.820312 105.9375 58.488281 109.558594 58.785156 C 112.160156 58.871094 114.765625 58.808594 117.367188 58.875 C 121.070312 59.1875 124.796875 58.882812 128.507812 59.179688 C 131.792969 59.28125 135.085938 59.144531 138.367188 59.375 C 139.632812 59.421875 140.898438 59.40625 142.164062 59.425781 C 142.140625 60.644531 141.910156 61.851562 141.898438 63.074219 L 141.894531 63.109375 C 141.664062 64.390625 141.578125 65.691406 141.484375 66.984375 C 141.164062 69.804688 140.863281 72.625 140.640625 75.453125 C 140.449219 76.921875 140.320312 78.394531 140.179688 79.867188 C 140.132812 80.429688 140.074219 80.992188 139.996094 81.550781 C 139.648438 84.644531 139.292969 87.742188 139.097656 90.847656 C 134.726562 90.933594 130.355469 90.601562 125.984375 90.582031 C 123.574219 90.441406 121.15625 90.429688 118.742188 90.378906 C 116.601562 90.234375 114.457031 90.242188 112.3125 90.191406 C 109.96875 90.046875 107.617188 90.046875 105.265625 89.992188 C 103.105469 89.84375 100.9375 89.859375 98.773438 89.800781 C 98.742188 85.546875 98.796875 81.296875 98.710938 77.042969 C 98.691406 70.847656 98.695312 64.652344 98.667969 58.457031 M 120.105469 62.746094 C 117.488281 65.175781 114.238281 66.867188 110.847656 67.960938 C 110.773438 68.816406 110.859375 69.683594 110.742188 70.539062 C 110.675781 70.839844 110.808594 71.132812 110.878906 71.421875 C 111.695312 71.324219 112.460938 71.011719 113.238281 70.761719 C 115.3125 70.019531 117.355469 69.167969 119.242188 68.027344 C 119.238281 69.378906 119.300781 70.738281 119.085938 72.070312 C 119.019531 73.304688 119.070312 74.542969 118.996094 75.773438 C 118.695312 77.441406 118.992188 79.15625 118.695312 80.828125 C 118.589844 82.242188 118.742188 83.675781 118.5 85.082031 C 118.433594 85.886719 118.457031 86.695312 118.476562 87.5 C 119.96875 87.539062 121.457031 87.582031 122.945312 87.542969 C 123.027344 86.078125 123.199219 84.621094 123.183594 83.148438 C 123.414062 81.835938 123.265625 80.5 123.472656 79.1875 C 123.574219 78.179688 123.507812 77.167969 123.589844 76.160156 C 123.832031 74.742188 123.65625 73.292969 123.898438 71.871094 C 123.886719 70.121094 124.160156 68.390625 124.144531 66.640625 C 124.351562 64.925781 124.367188 63.195312 124.347656 61.46875 C 123.378906 61.523438 122.417969 61.324219 121.453125 61.351562 C 120.863281 61.648438 120.609375 62.335938 120.105469 62.746094 Z M 120.105469 62.746094 "/>
<path style=" stroke:none;fill-rule:nonzero;fill:rgb(69.803922%,64.313725%,59.215686%);fill-opacity:1;" d="M 61.675781 64.105469 C 62.386719 62.175781 63.992188 60.523438 66.046875 60.078125 L 66.203125 59.96875 C 67.703125 59.839844 69.21875 59.832031 70.71875 59.980469 C 72.9375 60.414062 75.097656 61.390625 76.664062 63.046875 C 78.21875 64.710938 79.234375 66.828125 79.800781 69.015625 C 80.464844 71.664062 80.460938 74.414062 80.367188 77.125 C 80.195312 78.890625 79.757812 80.714844 78.644531 82.144531 C 77.777344 83.324219 76.414062 84.03125 75.007812 84.371094 C 71.917969 84.734375 68.625 84.167969 66.089844 82.289062 C 63.527344 80.449219 62.203125 77.382812 61.578125 74.390625 C 61.007812 71.90625 60.929688 69.351562 61.058594 66.820312 C 61.179688 65.894531 61.367188 64.984375 61.675781 64.105469 M 66.578125 63.714844 C 65.632812 64.539062 65.335938 65.824219 65.148438 67.007812 C 64.980469 70.277344 65.050781 73.597656 65.96875 76.761719 C 66.5625 79.046875 68.359375 81.050781 70.6875 81.640625 C 71.898438 81.808594 73.277344 81.898438 74.320312 81.128906 C 75.726562 80.257812 76.171875 78.484375 76.136719 76.933594 C 76.125 74.34375 76.320312 71.714844 75.761719 69.164062 C 75.414062 67.355469 74.742188 65.496094 73.265625 64.296875 C 71.878906 62.933594 69.835938 62.585938 67.96875 62.882812 C 67.472656 63.101562 66.964844 63.324219 66.578125 63.714844 Z M 66.578125 63.714844 "/>
<path style=" stroke:none;fill-rule:nonzero;fill:rgb(67.843137%,61.960784%,56.862745%);fill-opacity:1;" d="M 120.105469 62.746094 C 120.609375 62.335938 120.863281 61.648438 121.453125 61.351562 C 122.417969 61.324219 123.378906 61.523438 124.347656 61.46875 C 124.367188 63.195312 124.351562 64.925781 124.144531 66.640625 C 124.160156 68.390625 123.886719 70.121094 123.898438 71.871094 C 123.65625 73.292969 123.832031 74.742188 123.589844 76.160156 C 123.507812 77.167969 123.574219 78.179688 123.472656 79.1875 C 123.265625 80.5 123.414062 81.835938 123.183594 83.148438 C 123.199219 84.621094 123.027344 86.078125 122.945312 87.542969 C 121.457031 87.582031 119.96875 87.539062 118.476562 87.5 C 118.457031 86.695312 118.433594 85.886719 118.5 85.082031 C 118.742188 83.675781 118.589844 82.242188 118.695312 80.828125 C 118.992188 79.15625 118.695312 77.441406 118.996094 75.773438 C 119.070312 74.542969 119.019531 73.304688 119.085938 72.070312 C 119.300781 70.738281 119.238281 69.378906 119.242188 68.027344 C 117.355469 69.167969 115.3125 70.019531 113.238281 70.761719 C 112.460938 71.011719 111.695312 71.324219 110.878906 71.421875 C 110.808594 71.132812 110.675781 70.839844 110.742188 70.539062 C 110.859375 69.683594 110.773438 68.816406 110.847656 67.960938 C 114.238281 66.867188 117.488281 65.175781 120.105469 62.746094 Z M 120.105469 62.746094 "/>
<path style=" stroke:none;fill-rule:nonzero;fill:rgb(61.960784%,56.862745%,52.156863%);fill-opacity:1;" d="M 167.191406 62.855469 C 171.851562 62.523438 176.511719 62.175781 181.175781 61.871094 C 181.15625 63.058594 180.953125 64.273438 180.527344 65.378906 C 176.34375 65.78125 172.140625 65.941406 167.960938 66.390625 C 167.195312 68.542969 166.246094 70.628906 165.484375 72.785156 C 167.039062 72 168.675781 71.335938 170.414062 71.089844 C 172.644531 70.835938 175.078125 70.914062 177.003906 72.199219 C 178.257812 72.953125 179.175781 74.210938 179.53125 75.621094 C 179.839844 77.597656 179.484375 79.652344 178.515625 81.410156 C 176.664062 84.859375 173.15625 87.316406 169.328125 88.125 C 167.34375 88.511719 165.269531 88.695312 163.273438 88.25 C 161.59375 87.894531 159.964844 86.960938 159.078125 85.460938 C 158.609375 84.703125 158.445312 83.820312 158.335938 82.953125 C 158.25 82.648438 158.40625 82.378906 158.558594 82.132812 C 159.96875 81.9375 161.382812 81.734375 162.789062 81.503906 C 163.03125 82.1875 162.90625 82.960938 163.292969 83.601562 C 163.695312 84.621094 164.707031 85.234375 165.726562 85.511719 C 167.851562 85.871094 170.117188 85.402344 171.871094 84.132812 C 174.203125 82.578125 175.59375 79.625 175.015625 76.859375 C 174.632812 75.703125 173.625 74.808594 172.457031 74.492188 C 169.339844 73.734375 165.839844 74.789062 163.75 77.234375 C 162.679688 77.242188 161.617188 77.214844 160.546875 77.207031 C 160.28125 77.222656 160.03125 77.121094 159.796875 77.007812 C 161.546875 72.371094 163.257812 67.722656 165 63.085938 C 165.703125 62.824219 166.457031 62.878906 167.191406 62.855469 Z M 167.191406 62.855469 "/>
<path style=" stroke:none;fill-rule:nonzero;fill:rgb(60.392157%,54.509804%,50.196078%);fill-opacity:1;" d="M 17.726562 64.050781 C 19.738281 63.007812 21.980469 62.46875 24.226562 62.246094 C 26.75 62.226562 29.367188 61.925781 31.800781 62.761719 C 33.941406 63.488281 36.050781 64.800781 37.03125 66.90625 C 37.566406 67.902344 37.46875 69.054688 37.457031 70.140625 C 37.441406 71.84375 36.359375 73.277344 35.347656 74.558594 C 32.710938 77.542969 29.492188 79.917969 26.433594 82.449219 C 25.167969 83.554688 23.714844 84.523438 22.828125 85.984375 C 23.355469 85.996094 23.882812 85.953125 24.402344 85.847656 C 29.03125 85.210938 33.660156 84.585938 38.289062 83.953125 C 38.816406 83.847656 39.351562 83.804688 39.886719 83.839844 C 39.933594 84.917969 40.347656 85.992188 40.109375 87.074219 C 37.601562 87.242188 35.121094 87.730469 32.628906 88.042969 C 27.671875 88.738281 22.714844 89.433594 17.757812 90.128906 C 17.28125 90.21875 16.796875 90.265625 16.3125 90.265625 C 16.273438 89.347656 16.15625 88.386719 16.527344 87.515625 C 17.136719 85.996094 18.15625 84.667969 19.316406 83.523438 C 22 80.714844 25.332031 78.636719 28.148438 75.972656 C 29.804688 74.496094 31.476562 72.867188 32.261719 70.746094 C 32.402344 70.074219 32.390625 69.363281 32.285156 68.683594 C 31.8125 67.035156 30.179688 66.070312 28.617188 65.632812 C 27.511719 65.277344 26.335938 65.363281 25.191406 65.378906 C 22.960938 65.578125 20.507812 66.34375 19.269531 68.351562 C 18.617188 69.285156 18.808594 70.472656 18.824219 71.542969 C 18.339844 71.863281 17.742188 71.773438 17.191406 71.789062 C 15.914062 71.792969 14.636719 71.835938 13.359375 71.820312 C 13.339844 70.800781 13.285156 69.761719 13.578125 68.773438 C 14.175781 66.675781 15.828125 65.046875 17.726562 64.050781 Z M 17.726562 64.050781 "/>
<path style=" stroke:none;fill-rule:nonzero;fill:rgb(49.411765%,47.45098%,45.882353%);fill-opacity:1;" d="M 141.484375 66.984375 C 141.578125 65.691406 141.664062 64.390625 141.894531 63.109375 C 141.894531 63.234375 141.890625 63.480469 141.890625 63.605469 C 142.515625 63.660156 143.164062 63.78125 143.648438 64.210938 C 144.984375 65.34375 145.660156 67.03125 146.160156 68.660156 C 147.253906 72.390625 147.414062 76.394531 146.589844 80.195312 C 146.277344 81.492188 145.828125 82.878906 144.742188 83.746094 C 144.210938 84.234375 143.34375 84.101562 142.816406 83.679688 C 141.507812 82.761719 140.921875 81.21875 140.179688 79.867188 C 140.320312 78.394531 140.449219 76.921875 140.640625 75.453125 C 140.863281 77.132812 141.28125 78.972656 142.648438 80.113281 C 142.859375 80.328125 143.183594 80.300781 143.460938 80.355469 C 144.933594 79.164062 144.964844 77.121094 145.175781 75.394531 C 145.296875 72.738281 145.058594 69.800781 143.359375 67.621094 C 142.9375 66.988281 142.1875 66.851562 141.484375 66.984375 Z M 141.484375 66.984375 "/>
</g>
</svg>
