<?xml version="1.0" encoding="utf-8"?>
<!-- Generator: Adobe Illustrator 27.8.1, SVG Export Plug-In . SVG Version: 6.00 Build 0)  -->
<svg version="1.1"
	 id="svg2" xmlns:cc="http://creativecommons.org/ns#" xmlns:dc="http://purl.org/dc/elements/1.1/" xmlns:inkscape="http://www.inkscape.org/namespaces/inkscape" xmlns:ns1="http://sozi.baierouge.fr" xmlns:sodipodi="http://sodipodi.sourceforge.net/DTD/sodipodi-0.dtd" xmlns:svg="http://www.w3.org/2000/svg" xmlns:rdf="http://www.w3.org/1999/02/22-rdf-syntax-ns#" inkscape:version="0.48.0 r9654" sodipodi:docname="bean.svg"
	 xmlns="http://www.w3.org/2000/svg" xmlns:xlink="http://www.w3.org/1999/xlink" x="0px" y="0px" viewBox="0 0 48 48"
	 style="enable-background:new 0 0 48 48;" xml:space="preserve">
<style type="text/css">
	.st0{fill:#CAB78F;stroke:#2F1B00;stroke-width:1;stroke-linejoin:round;stroke-miterlimit:3.9707;}
	.st1{fill:url(#path3962_00000125600688251176936410000014525037303799240596_);}
	.st2{filter:url(#filter3887);}
	.st3{fill:url(#SVGID_1_);}
	.st4{fill:url(#path3980_00000134960581864628190870000008192180367791063939_);}
	.st5{fill:url(#SVGID_00000135655201422729738900000002710503981438706593_);}
</style>
<filter  id="filter3887" inkscape:collect="always">
	<feGaussianBlur  id="feGaussianBlur3889" inkscape:collect="always" stdDeviation="0.59202016"></feGaussianBlur>
</filter>
<sodipodi:namedview  bordercolor="#666666" borderopacity="1.0" id="base" inkscape:current-layer="layer1" inkscape:cx="28.870522" inkscape:cy="24.366538" inkscape:document-units="px" inkscape:pageopacity="0.0" inkscape:pageshadow="2" inkscape:window-height="972" inkscape:window-maximized="1" inkscape:window-width="1280" inkscape:window-x="0" inkscape:window-y="24" inkscape:zoom="11.313708" pagecolor="#ffffff" showgrid="true">
	</sodipodi:namedview>
<g id="layer1" transform="translate(0 -1004.4)" inkscape:groupmode="layer" inkscape:label="Ebene 1">
	<g id="g4009" transform="matrix(.70193 -.70192 .70193 .70192 -945.89 960.95)">
		<g id="g3958" transform="matrix(-1 0 0 1 1282.9 0)">
			<path id="path3960" inkscape:connector-curvature="0" class="st0" d="M644.5,714.3c-1.6,0-3.1,0.8-4.3,2.2l0,44
				c1.5,2,3.2,3,5.2,2.8c17.6-2,18.9-44.4,0.4-48.8C645.4,714.4,644.9,714.3,644.5,714.3L644.5,714.3z"/>
			
				<radialGradient id="path3962_00000127733597142418786730000007735731953220836254_" cx="199.1788" cy="1127.6572" r="12.191" gradientTransform="matrix(0.412 -2.2259 0.3464 2.237 167.4932 -1338.7859)" gradientUnits="userSpaceOnUse">
				<stop  offset="0" style="stop-color:#2F1B00"/>
				<stop  offset="1" style="stop-color:#2F1B00;stop-opacity:0"/>
			</radialGradient>
			
				<path id="path3962" inkscape:connector-curvature="0" style="fill:url(#path3962_00000127733597142418786730000007735731953220836254_);" d="
				M644.5,715.2c-1.1,0-2,0.3-2.9,1.1c-0.5,0.4-0.9,1-1.3,1.5l0,41.4c0.4,0.7,0.9,1.3,1.4,1.8c1.2,1.2,2.3,1.7,3.7,1.6
				c4.1-0.5,7.2-3.2,9.5-7.4c2.2-4.2,3.4-9.7,3.5-15.3c0.1-5.6-0.8-11.3-3-15.8c-1.1-2.2-2.5-4.2-4.1-5.7c-1.6-1.5-3.5-2.5-5.6-3
				C645.2,715.2,644.8,715.2,644.5,715.2L644.5,715.2z"/>
			<g id="path3964" inkscape:connector-curvature="0" class="st2">
				
					<linearGradient id="SVGID_1_" gradientUnits="userSpaceOnUse" x1="403.6997" y1="1602.8209" x2="389.749" y2="1592.6923" gradientTransform="matrix(5.097375e-02 -0.9914 0.9914 5.098785e-02 -951.3817 1060.1067)">
					<stop  offset="0" style="stop-color:#311D01"/>
					<stop  offset="1" style="stop-color:#826444;stop-opacity:0"/>
				</linearGradient>
				<path class="st3" d="M646.2,717c0.3,0.6,0.7,1.1,0.9,1.7c1.8,3.9,2.6,8.7,2.4,13.6c-0.2,4.9-1.3,9.7-3.3,13.4
					c-1.5,2.8-3.6,4.9-6,5.9l0,7.4c0.1,0.2,0.2,0.4,0.3,0.5c0,0,0,0,0,0c0.8,0.6,1.7,0.8,2.6,0.7c3.8-0.5,6.8-3.1,9-7.1
					c2.1-3.9,3.4-9.1,3.5-14.3c0.2-5.2-0.6-10.4-2.5-14.6c-0.7-1.6-1.6-3-2.6-4.1c-0.3-0.4-0.7-0.8-1-1.1
					C648.5,718.1,647.4,717.5,646.2,717z"/>
			</g>
		</g>
		<g id="g3976" transform="translate(-.0089490)">
			<path id="path3978" inkscape:connector-curvature="0" class="st0" d="M646.9,714.3c-1.6,0-3.1,0.8-4.3,2.2l0,44
				c1.5,2,3.2,3,5.2,2.8c17.6-2,18.9-44.4,0.4-48.8C647.8,714.4,647.4,714.3,646.9,714.3L646.9,714.3z"/>
			
				<radialGradient id="path3980_00000068678546092911529820000013240061472272893595_" cx="1455.5433" cy="757.6953" r="12.191" gradientTransform="matrix(-0.412 2.2259 0.3464 2.237 979.8699 -4194.3608)" gradientUnits="userSpaceOnUse">
				<stop  offset="0" style="stop-color:#2F1B00"/>
				<stop  offset="1" style="stop-color:#2F1B00;stop-opacity:0"/>
			</radialGradient>
			
				<path id="path3980" inkscape:connector-curvature="0" style="fill:url(#path3980_00000068678546092911529820000013240061472272893595_);" d="
				M646.9,715.2c-1.1,0-2,0.3-2.9,1.1c-0.5,0.4-0.9,1-1.3,1.5l0,41.4c0.4,0.7,0.9,1.3,1.4,1.8c1.2,1.2,2.3,1.7,3.7,1.6
				c4.1-0.5,7.2-3.2,9.5-7.4c2.2-4.2,3.4-9.7,3.5-15.3c0.1-5.6-0.8-11.3-3-15.8c-1.1-2.2-2.5-4.2-4.1-5.7c-1.6-1.5-3.5-2.5-5.6-3
				C647.7,715.2,647.3,715.2,646.9,715.2L646.9,715.2z"/>
			<g id="path3982" inkscape:connector-curvature="0" class="st2">
				
					<linearGradient id="SVGID_00000134215208009857891690000015986334663924879027_" gradientUnits="userSpaceOnUse" x1="888.2227" y1="1427.5707" x2="874.2723" y2="1417.4424" gradientTransform="matrix(-5.097373e-02 0.9914 0.9914 5.098787e-02 -709.3231 -211.7232)">
					<stop  offset="0" style="stop-color:#311D01"/>
					<stop  offset="1" style="stop-color:#826444;stop-opacity:0"/>
				</linearGradient>
				<path style="fill:url(#SVGID_00000134215208009857891690000015986334663924879027_);" d="M648.6,717c0.3,0.6,0.7,1.1,0.9,1.7
					c1.8,3.9,2.6,8.7,2.4,13.6c-0.2,4.9-1.3,9.7-3.3,13.4c-1.5,2.8-3.6,4.9-6,5.9l0,7.4c0.1,0.2,0.2,0.4,0.3,0.5c0,0,0,0,0,0
					c0.8,0.6,1.7,0.8,2.6,0.7c3.8-0.5,6.8-3.1,9-7.1c2.1-3.9,3.4-9.1,3.5-14.3c0.2-5.2-0.6-10.4-2.5-14.6c-0.7-1.6-1.6-3-2.6-4.1
					c-0.3-0.4-0.7-0.8-1-1.1C650.9,718.1,649.8,717.5,648.6,717z"/>
			</g>
		</g>
	</g>
</g>
</svg>
