<?xml version="1.0" encoding="UTF-8"?>
<svg xmlns="http://www.w3.org/2000/svg" xmlns:xlink="http://www.w3.org/1999/xlink" width="200px" height="200px" viewBox="0 0 200 156" version="1.1">
<g id="surface1">
<path style=" stroke:none;fill-rule:nonzero;fill:rgb(85.098039%,85.098039%,85.098039%);fill-opacity:1;" d="M 71.902344 39.570312 C 82.46875 9.359375 111.871094 -9.347656 126.808594 38.828125 C 128.230469 40.980469 131.898438 46.835938 135.203125 38.335938 C 141.40625 22.390625 148.367188 14.214844 154.011719 14.4375 C 156.34375 14.085938 163.335938 18.421875 165.183594 24.410156 C 176.972656 62.582031 187.542969 93.738281 188.917969 92.3125 C 172.695312 105.332031 163.574219 111.125 167.109375 120.75 C 168.085938 123.414062 165.863281 124.96875 163.578125 126.980469 C 156.117188 123.210938 130.5625 131.589844 132.402344 138.234375 C 133.117188 140.820312 130.699219 143.097656 128.296875 143.816406 C 124.042969 144.164062 108.316406 133.660156 77.074219 143.183594 C 66.203125 146.5 66.695312 141.199219 66.609375 140.78125 C 67.683594 120.535156 57.519531 118.753906 43.304688 120.761719 C 40.269531 121.191406 38.585938 120.957031 39.355469 119.550781 C 44.847656 106.289062 23.5 109.46875 16 111.625 C 19.488281 103.136719 28.359375 54.277344 34.632812 25.949219 C 37.695312 11.507812 49.648438 7.183594 64.691406 37.09375 C 66.894531 41.472656 70.910156 40.714844 71.902344 39.570312 Z M 71.902344 39.570312 "/>
<path style=" stroke:none;fill-rule:nonzero;fill:rgb(35.686275%,35.686275%,35.686275%);fill-opacity:1;" d="M 85.609375 30.792969 C 85.621094 30.582031 86.054688 30.382812 88.148438 30.691406 C 92.875 31.394531 93.792969 32.609375 95.226562 34.488281 C 95.816406 35.265625 96.8125 37.277344 96.496094 38.332031 C 96.214844 39.078125 91.824219 40.273438 87.699219 37.761719 C 85.925781 36.449219 85.152344 32.691406 85.609375 30.792969 Z M 85.609375 30.792969 "/>
<path style=" stroke:none;fill-rule:nonzero;fill:rgb(35.686275%,35.686275%,35.686275%);fill-opacity:1;" d="M 113.539062 30.75 C 113.523438 30.539062 113.089844 30.339844 111 30.648438 C 106.273438 31.351562 105.355469 32.566406 103.921875 34.445312 C 103.332031 35.222656 102.332031 37.234375 102.648438 38.289062 C 102.933594 39.035156 107.320312 40.230469 111.445312 37.71875 C 113.222656 36.40625 113.996094 32.648438 113.539062 30.75 Z M 113.539062 30.75 "/>
<path style=" stroke:none;fill-rule:nonzero;fill:rgb(82.352941%,82.352941%,82.352941%);fill-opacity:1;" d="M 41.574219 47.363281 C 44.921875 71.65625 40.015625 98.554688 40.277344 116.140625 C 39.921875 113.269531 39.125 111.046875 34.359375 110.09375 C 37.265625 93.300781 41.667969 67.964844 41.574219 47.363281 Z M 41.574219 47.363281 "/>
<path style=" stroke:none;fill-rule:nonzero;fill:rgb(86.666667%,86.666667%,86.666667%);fill-opacity:1;" d="M 41.214844 49.460938 C 51.195312 76.195312 51.363281 101.75 51.632812 120.117188 C 42.035156 121.335938 38.851562 121.148438 39.113281 120.148438 C 40.804688 106.03125 44.074219 68.625 41.214844 49.460938 Z M 41.214844 49.460938 "/>
<path style=" stroke:none;fill-rule:nonzero;fill:rgb(82.352941%,82.352941%,82.352941%);fill-opacity:1;" d="M 49.824219 40.710938 C 54.765625 55.238281 65.765625 116.359375 66.554688 133.839844 C 65.054688 127.425781 61.488281 121.785156 57.121094 120.828125 C 60.027344 104.039062 50.796875 65.871094 49.824219 40.710938 Z M 49.824219 40.710938 "/>
<path style=" stroke:none;fill-rule:nonzero;fill:rgb(86.666667%,86.666667%,86.666667%);fill-opacity:1;" d="M 50.894531 43.789062 C 60.875 70.523438 81.15625 123.566406 81.425781 141.933594 C 71.730469 145.171875 66.402344 144.855469 66.796875 141.003906 C 66.734375 124.78125 58.054688 76.695312 50.894531 43.789062 Z M 50.894531 43.789062 "/>
<path style=" stroke:none;fill-rule:nonzero;fill:rgb(82.352941%,82.352941%,82.352941%);fill-opacity:1;" d="M 147.507812 37.0625 C 142.570312 51.589844 132.976562 120.066406 132.1875 137.542969 C 134.550781 132.304688 139.113281 130.503906 143.917969 128.867188 C 141.011719 112.078125 146.535156 62.21875 147.507812 37.0625 Z M 147.507812 37.0625 "/>
<path style=" stroke:none;fill-rule:nonzero;fill:rgb(82.352941%,82.352941%,82.352941%);fill-opacity:1;" d="M 157.386719 29.402344 C 153.03125 45.679688 165.816406 103.066406 166.3125 116.585938 C 166.90625 110.914062 170.664062 107.476562 174.660156 103.765625 C 171.753906 86.972656 156.410156 54.558594 157.386719 29.402344 Z M 157.386719 29.402344 "/>
<path style=" stroke:none;fill-rule:nonzero;fill:rgb(86.666667%,86.666667%,86.666667%);fill-opacity:1;" d="M 147.382812 37.636719 C 137.335938 90.988281 133.097656 119.199219 132.34375 137.78125 C 133.234375 140.105469 131.195312 143.371094 128.097656 143.824219 C 124.121094 144.40625 114.816406 140.347656 114.230469 140.332031 C 116.277344 125.226562 140.140625 69.847656 147.382812 37.636719 Z M 147.382812 37.636719 "/>
<path style=" stroke:none;fill-rule:nonzero;fill:rgb(86.666667%,86.666667%,86.666667%);fill-opacity:1;" d="M 156.738281 47.054688 C 160.789062 87.214844 165.707031 101.515625 166.316406 116.941406 C 166.757812 120.414062 169.582031 122.949219 163.464844 126.90625 C 163.125 126.898438 158.578125 125.964844 154.265625 126.257812 C 156.3125 111.152344 149.492188 79.261719 156.738281 47.054688 Z M 156.738281 47.054688 "/>
</g>
</svg>
