<?xml version="1.0" encoding="utf-8"?>
<svg id="svg4767" viewBox="-2.228 0 454.411 451.434" width="486.51685mm" height="498.9732mm" version="1.1" overflow="visible" enable-background="new 0 0 397.387 415.35" xmlns="http://www.w3.org/2000/svg">
  <g id="g4898">
    <path id="path4896" d="M 389.547 1.176 C -47.063 40.381 119.825 37.643 125.466 142.184 C 126.947 169.631 30.276 286.407 11.958 316.027 C -63.513 438.061 195.926 415.041 315.227 449.353 C 360.138 462.27 538.006 -12.155 389.547 1.176 Z" style="fill:#ffffff"/>
    <g id="g4775">
      <g id="Layer_1">
        <g id="g4778" clip-rule="evenodd" stroke-miterlimit="2.4142">
          <path id="path4780" style="fill-rule:evenodd;stroke:#7f7f7f;stroke-width:0.216;stroke-miterlimit:2.4142;fill:#7f7f7f" d="m250.93 95.361s17.28-47.768 52.827-42.852c0 0 74.322-34.561 85.562 42.852 0 0 18.264 34.561-13.207 62.241 0 0 13.207 54.791-10.115 93.429 0 0 17.28-73.198-8.291-90.481 0 0-8.851-45.66-36.668-45.8 0 0-14.189 0.984-17.28 8.006 0 0-24.309-12.081-28.521-1.825 0 0-13.067 17.28 2.106 28.38 0 0 42.712 37.652 2.106 52.967 0 0 30.49 36.527 3.094 79.378 0 0-7.307 60.838 11.1 89.496 0 0-19.248-19.39-19.248-11.241 0 0-46.929 47.912-95.539 7.028 0 0-89.635-142.32 60.836-217.63-0.002 0.001 0.982-41.725 11.238-53.95z"/>
          <path id="path4782" style="fill-rule:evenodd;stroke:#fb9d9a;stroke-width:0.216;stroke-miterlimit:2.4142;fill:#fb9d9a" d="m258.37 69.793s35.545-6.044-7.025-28.522c0 0-27.535-33.298-8.148 9.414-0.001 0-6.181 21.214 15.173 19.108z"/>
          <path id="path4784" style="stroke:#000000;stroke-width:0.216;stroke-miterlimit:2.4142;fill-rule:evenodd" d="m280.01 49.701s-31.895-26.976-43.975-25.008c0 0-6.323 12.504 3.793 29.364 0 0 6.883 9.556 7.588 15.032 0 0 0.699-12.083-4.637-18.122 0 0-15.316-30.206 2.948-21.497 0.001-0.001 29.224 16.156 34.283 20.231z"/>
          <path id="path4786" style="stroke:#000000;stroke-width:0.216;stroke-miterlimit:2.4142;fill-rule:evenodd" d="m323 51.668s12.362-2.388 16.297-13.488c0 0 20.792-36.952 38.636-38.072 0 0 10.817 0.421 10.96 22.057 0 0-6.042-25.853-18.546-15.876 0 0-12.083 7.165-25.571 31.189-0.001 0-6.042 11.1-21.776 14.19z"/>
          <path id="path4788" style="stroke:#000000;stroke-width:0.216;stroke-miterlimit:2.4142;fill-rule:evenodd" d="m258.94 74.427s-17.423 7.167-14.33 22.48c-0.001 0.001 6.039-21.496 14.33-22.48z"/>
          <path id="path4790" style="stroke:#000000;stroke-width:0.216;stroke-miterlimit:2.4142;fill-rule:evenodd" d="m243.48 106.18s-17.281 30.487 16.297 49.877c0 0-22.478-12.225-16.297-49.877z"/>
          <path id="path4792" style="stroke:#000000;stroke-width:0.216;stroke-miterlimit:2.4142;fill-rule:evenodd" d="m273.69 146.36s9.132 21.494 25.289 21.494c0 0-23.18-15.314-25.289-21.494z"/>
          <path id="path4794" style="stroke:#000000;stroke-width:0.216;stroke-miterlimit:2.4142;fill-rule:evenodd" d="m301.37 123.88s0 14.611 11.94 16.436c0 0-8.29 0.844-10.115-3.793 0 0-6.323 1.968-9.132 6.463 0.001 0 9.132-14.611 7.307-19.106z"/>
          <path id="path4796" style="stroke:#000000;stroke-width:0.216;stroke-miterlimit:2.4142;fill-rule:evenodd" d="m303.19 120.23s4.637-11.1 13.769-9.274c0 0-11.943 5.479-13.769 9.274z"/>
          <path id="path4798" style="stroke:#000000;stroke-width:0.216;stroke-miterlimit:2.4142;fill-rule:evenodd" d="m299.68 119.95s-4.635-2.669-6.323-5.339c-0.001 0-0.001 5.339 6.323 5.339z"/>
          <path id="path4800" style="stroke:#000000;stroke-width:0.216;stroke-miterlimit:2.4142;fill-rule:evenodd" d="m314.15 151.56s-11.1 3.091-15.174 0c0.001 0 5.059 8.151 15.174 0z"/>
          <path id="path4802" style="stroke:#000000;stroke-width:0.216;stroke-miterlimit:2.4142;fill-rule:evenodd" d="m293.36 86.09s4.355 3.653 0.705 14.752c0.001 0 10.958-10.118-0.705-14.752z"/>
          <path id="path4804" style="fill-rule:evenodd;stroke:#fb9d9a;stroke-width:0.216;stroke-miterlimit:2.4142;fill:#fb9d9a" d="m360.37 24.55s-23.882 34.282 19.811 37.233c0 0-6.886-43.414-0.142-51.563 0 0.001-17.844 38.921-19.669 14.33z"/>
          <path id="path4806" style="stroke:#000000;stroke-width:0.216;stroke-miterlimit:2.4142;fill-rule:evenodd" d="m387.07 160.97s1.967 91.464-48.894 132.21c0.001 0 59.149-25.43 48.894-132.21z"/>
          <path id="path4808" style="stroke:#000000;stroke-width:0.216;stroke-miterlimit:2.4142;fill-rule:evenodd" d="m394.51 92.973s3.09 39.619-18.265 54.091c0-0.001 30.629-13.346 18.265-54.091z"/>
          <path id="path4810" style="stroke:#000000;stroke-width:0.216;stroke-miterlimit:2.4142;fill-rule:evenodd" d="m228.45 146.22s-38.495 12.223-52.685 44.958c0 0-40.885 54.792-38.777 77.132 0 0-9.131-26.412 32.595-78.255 0 0 11.24-34.564 58.867-43.835z"/>
          <path id="path4812" style="stroke:#000000;stroke-width:0.216;stroke-miterlimit:2.4142;fill-rule:evenodd" d="m345.9 279.69s-9.692 22.342-17.982 61.258c0 0-11.521 44.535 3.091 52.967 0 0 12.504 5.618 11.1 15.313 0 0 6.041-15.313-10.116-22.341-0.001 0.001-15.175-4.213 13.907-107.2z"/>
          <path id="path4814" style="stroke:#000000;stroke-width:0.216;stroke-miterlimit:2.4142;fill-rule:evenodd" d="m293.5 249.06s-16.297 43.414-8.29 65.05c0 0-16.155-42.01 8.29-65.05z"/>
          <path id="path4816" style="stroke:#000000;stroke-width:0.216;stroke-miterlimit:2.4142;fill-rule:evenodd" d="m233.22 206.21s8.148 46.08 0 59.568c0 0-6.744 24.445 6.886 43.271 0 0-16.297-7.863-13.63-45.944-0.001 0 12.225-25.707 6.744-56.895z"/>
          <path id="path4818" style="stroke:#000000;stroke-width:0.216;stroke-miterlimit:2.4142;fill-rule:evenodd" d="m247.84 323.95s28.521 50.438 28.521 72.073c0 0-13.487 16.302 12.081 19.111 0 0 12.223 1.263 23.043-4.219 0 0-50.158 6.886-28.38-14.893 0.001 0.002 5.337-2.665-35.265-72.072z"/>
          <path id="path4820" style="stroke:#000000;stroke-width:0.216;stroke-miterlimit:2.4142;fill-rule:evenodd" d="m155.39 252.02s47.35-23.041 62.242 80.079c0 0 5.76 69.548-40.605 47.491 0 0 60.694 29.222 46.081-66.597-0.001 0-20.369-84.014-67.718-60.973z"/>
          <path id="path4822" style="stroke:#000000;stroke-width:0.216;stroke-miterlimit:2.4142;fill-rule:evenodd" d="m162.13 376.77s-6.744 24.588 24.446 29.927c0 0-24.446-14.892-24.446-29.927z"/>
          <path id="path4824" style="stroke:#000000;stroke-width:0.216;stroke-miterlimit:2.4142;fill-rule:evenodd" d="m194.73 390.4s14.753 0 14.753 15.034c0 0.001 8.149-16.301-14.753-15.034z"/>
          <path id="path4826" style="stroke:#000000;stroke-width:0.216;stroke-miterlimit:2.4142;fill-rule:evenodd" d="m206.81 390.4s14.893 0 14.893 15.034c-0.001 0.001 8.148-16.301-14.893-15.034z"/>
          <path id="path4828" style="stroke:#000000;stroke-width:0.216;stroke-miterlimit:2.4142;fill-rule:evenodd" d="m216.36 389.13s14.893 0 14.893 14.756c0 0 8.151-16.161-14.893-14.756z"/>
          <path id="path4830" style="stroke:#000000;stroke-width:0.216;stroke-miterlimit:2.4142;fill-rule:evenodd" d="m159.18 358.37s-17.702-21.778-16.298-50.159c0 0-17.562 18.828 16.298 50.159z"/>
          <path id="path4832" style="stroke:#000000;stroke-width:0.216;stroke-miterlimit:2.4142;fill-rule:evenodd" d="m351.94 257.49s-25.711 32.593-55.637 29.926c0.001 0 21.639 28.38 55.637-29.926z"/>
          <path id="path4834" style="stroke:#000000;stroke-width:0.216;stroke-miterlimit:2.4142;fill-rule:evenodd" d="m130.66 336.03s-114.08-21.637-127.71 5.617c0 0-13.488 21.642 17.703 21.642 0 0-28.521-10.82 0-25.713 0 0 33.86-17.843 110.01-1.546z"/>
          <path id="path4836" style="fill-rule:evenodd;stroke:#7f7f7f;stroke-width:0.216;stroke-miterlimit:2.4142;fill:#7f7f7f" d="m309.94 303.02s0.983 41.584-2.107 52.826c0 0 11.239 37.653 24.306-53.809-0.001 0-5.904-15.456-22.199 0.983z"/>
          <path id="path4838" style="fill-rule:evenodd;stroke:#7f7f7f;stroke-width:0.216;stroke-miterlimit:2.4142;fill:#7f7f7f" d="m129.82 348.68s-76.289-7.028-89.636 5.056c0 0-20.371 12.225-24.306-0.984 0-0.001 10.116-37.649 113.94-4.072z"/>
          <path id="path4840" style="stroke:#000000;stroke-width:0.216;stroke-miterlimit:2.4142;fill-rule:evenodd" d="m290.69 398.55s6.883 6.181 3.792 11.241c0 0 10.259-8.574-3.792-11.241z"/>
          <path id="path4842" style="stroke:#000000;stroke-width:0.216;stroke-miterlimit:2.4142;fill-rule:evenodd" d="m301.65 400.52s7.307 6.181 4.217 11.378c-0.001 0 10.254-8.711-4.217-11.378z"/>
          <path id="path4844" style="stroke:#000000;stroke-width:0.216;stroke-miterlimit:2.4142;fill-rule:evenodd" d="m311.9 400.52s7.165 6.181 4.074 11.378c0.001 0 10.255-8.711-4.074-11.378z"/>
          <path id="path4846" style="stroke:#000000;stroke-width:0.216;stroke-miterlimit:2.4142;fill-rule:evenodd" d="m303.76 304.14s9.132 43.557 3.091 63.925c0 0 10.115-48.891-3.091-63.925z"/>
          <path id="path4848" style="fill-rule:evenodd;stroke:#ffc900;stroke-width:0.216;stroke-miterlimit:2.4142;fill:#ffc900" d="m288.3 99.436s-21.778 7.728-21.778-6.883c-0.001-0.001 19.39-13.068 21.778 6.883z"/>
          <path id="path4850" style="fill-rule:evenodd;stroke:#ffc900;stroke-width:0.216;stroke-miterlimit:2.4142;fill:#ffc900" d="m321.04 94.659s4.074-17.559 32.875-13.769c0 0 4.074 24.166-32.875 13.769z"/>
          <path id="path4852" style="stroke:#000000;stroke-width:0.216;stroke-miterlimit:2.4142;fill-rule:evenodd" d="m289.14 88.478s-8.43-5.197-19.39 1.265c0 0-4.635 1.825-6.039 0.139 0 0 3.935 1.126 9.834-4.637 0 0 12.786-7.164 15.595 3.233z"/>
          <path id="path4854" style="stroke:#000000;stroke-width:0.216;stroke-miterlimit:2.4142;fill-rule:evenodd" d="m323.14 87.354s13.487-12.225 27.678-9.413c0 0-28.801-4.495-32.173 11.66 0 0-0.421 5.339 2.67 8.993-0.001 0-3.091-5.761 1.825-11.24z"/>
          <path id="path4856" style="stroke:#000000;stroke-width:0.216;stroke-miterlimit:2.4142;fill-rule:evenodd" d="m320.05 71.899s-0.983-12.225 0.702-29.787c0 0-7.588 24.449-0.702 29.787z"/>
          <path id="path4858" style="stroke:#000000;stroke-width:0.216;stroke-miterlimit:2.4142;fill-rule:evenodd" d="m297.15 73.162s-11.943-20.792-4.355-31.471c0 0-12.364 14.193 4.355 31.471z"/>
          <path id="path4860" style="stroke:#000000;stroke-width:0.216;stroke-miterlimit:2.4142;fill-rule:evenodd" d="m341.69 82.297s-8.851-1.546-9.835 4.495c0 0-1.265 10.676 9.692 9.271 0 0-7.304-3.372-5.618-8.569 0.001 0 2.247-4.918 5.761-5.197z"/>
          <path id="path4862" style="stroke:#000000;stroke-width:0.216;stroke-miterlimit:2.4142;fill-rule:evenodd" d="m280.15 90.724s-9.556 1.967-4.355 9.695c0 0-5.061-1.404-4.077-7.728 0 0 3.935-4.495 8.432-1.967z"/>
        </g>
      </g>
    </g>
  </g>
</svg>