<?xml version="1.0" encoding="utf-8"?>
<!-- Generator: Adobe Illustrator 27.8.1, SVG Export Plug-In . SVG Version: 6.00 Build 0)  -->
<svg version="1.1" id="Layer_1" xmlns="http://www.w3.org/2000/svg" xmlns:xlink="http://www.w3.org/1999/xlink" x="0px" y="0px"
	 viewBox="0 0 200 200" style="enable-background:new 0 0 200 200;" xml:space="preserve">
<style type="text/css">
	.st0{fill-rule:evenodd;clip-rule:evenodd;fill:#8CA101;}
	.st1{fill-rule:evenodd;clip-rule:evenodd;fill:#616E01;}
	.st2{fill-rule:evenodd;clip-rule:evenodd;fill:#6C7D02;}
	.st3{fill-rule:evenodd;clip-rule:evenodd;fill:#687802;}
	.st4{fill-rule:evenodd;clip-rule:evenodd;fill:url(#SVGID_1_);}
	.st5{fill-rule:evenodd;clip-rule:evenodd;fill:#FFFFFF;}
	.st6{fill-rule:evenodd;clip-rule:evenodd;fill:#FF9191;}
	.st7{fill-rule:evenodd;clip-rule:evenodd;fill:#800005;}
	.st8{fill-rule:evenodd;clip-rule:evenodd;fill:#A2B002;}
	.st9{fill-rule:evenodd;clip-rule:evenodd;fill:#839602;}
	.st10{fill-rule:evenodd;clip-rule:evenodd;fill:#C8DB46;}
</style>
<g id="surface1">
	<path class="st0" d="M164.6,77.8l2.4,6.8l0.9,3.5l0.7,7v3.1l-0.7,5.9l-1.5,5.5l-3.3,6.3l-3.1,4l-0.4,0.2l-0.2,0.4l-1.8,1.5l0.4-1.5
		l0.4-2.8l-0.2-1.5l-0.2-3.7l-0.9-3.7l-3.1-8.1l-1.1-1.9l-5.2-7.5l-7-7.2l-9.6-7.6l-8.1-8.7l-4.4-6.8l-3.3-7.2l-2.8-10l-0.9-9.8
		l0.2-5l1.3-7.4l2.4-7.4l1.8,11.1l2,5.9l3.5,5.5L127,41l29.1,24l4.8,6.1L164.6,77.8z"/>
	<path class="st1" d="M160.9,71.2l3.7,6.5l2.4,6.8l0.9,3.5l0.7,6.6l-0.4,8.5l-1.3,5.2l-2.2,5.2l-3.9,5.5h-0.4v0.4l-2.2,2.4l4.8-7.9
		l2.2-5.2l1.1-5.5l0.2-2.6l-0.9-7.4l-1.5-4.2l-0.2-0.4l-0.4-0.7l-3.1-6.5l-3.9-5.2l-5.7-5.7L132,55.5l-8.3-8.5l-5.2-8.7l-2.9-8.8
		l-1.1-6.1l0.4-5.5l0.9-2.2l0.4,4.6l2,8.3l4.2,7.4l2.6,3.3l3.3,3.1l27.8,22.7L160.9,71.2z"/>
	<path class="st2" d="M133.8,56.4l19.7,16.4l5,5.9l3.3,5.2l2.4,5.5l1.5,5.9l0.6,5l-2.2-9.4l-5.7-11.2l-5.7-6.6l-3.1-2.8l-18.4-14.6
		l-6.1-6.1l-6.3-9.2L115,30.1l-1.3-6.1l1.5-1.3l3.1,13.1l1.7,4.4l4.6,7l8.5,9L133.8,56.4z"/>
	<path class="st3" d="M118.5,28.4l1.3,2.8l-1.3,0.7l-2,2.4l-1.8,3.1l-0.6,3.5l0.4,2.9V45l0.7,4.6l2.2,8.3l-3.9-10.9l-1.5-8.3
		l-0.2-5.5l0.9-8.3l3.1-11.1l0.9,8.5L118.5,28.4z"/>
	<path class="st2" d="M125.2,48.5l0.9,0.4l0.2,0.2V50l-0.2,0.4v0.7l-0.2,1.1l0.2,6.5l0.2,0.4l0.7,2.6l-1.5-3.5l-0.4-0.6l-0.4-1.8
		l-0.4-3.1v-1.3l0.2-1.1l0.4-1.3l0.2-0.4L125.2,48.5z"/>
	<path class="st2" d="M136.6,59.4l0.2,0.9l-0.2,4.6l0.4,2.2l0.9,2.2l0.4,0.7l0.2,0.9l0.2,0.2l0.2,0.4l0.2,0.7l0.2,0.4l0.2,0.7v0.4
		h0.2v0.4l-0.2-0.4l-3.7-6.8l-0.9-4.4v-1.5l-0.2-0.9v-0.9h0.2v-0.7l0.2-0.2h0.2L136.6,59.4z"/>
	<path class="st2" d="M151.7,82.4l-2-3.3l-2.6-6.3l-1.1-4.4v-1.7l0.2,0.2l0.7,0.4l0.4,0.6l0.4,0.9l0.2,3.3l1.3,4.8L151.7,82.4z"/>
	<path class="st2" d="M157.6,81.7v-0.2l0.2-1.3l0.2-0.7l0.2-0.2l0.2,0.4l1.1,7.6l-0.4,6.1v-2.8l-1.3-7.4v-0.7L157.6,81.7z"/>
	<path class="st2" d="M164.2,96.6l0.4-2.2l0.4-0.4l0.7,0.4l-0.9,2.6l-0.2,1.1l-0.9,2.9l-1.5,3.3l2-6.4V96.6z"/>
	<path class="st2" d="M129.4,49.8l-3.1,0.7l-0.7-1.7l0.7-0.7l0.7-0.4h1.1l2.2,0.9l1.8,0.4l3.9,1.5l-3.7-0.7H129.4z"/>
	<path class="st2" d="M142.3,58.5l-1.3-0.4l-1.1,0.2h-0.7l-0.7,0.2l-1.7,1.8l-1.8-2.2l1.3-0.7h3.1l5.2,1.5L142.3,58.5z"/>
	<path class="st2" d="M154.1,66.8l-1.1-0.2h-1.1l-1.3-0.2h-0.9l-2.2,0.7h-0.4l-0.2,0.2l-0.9-0.4l0.9-0.9l3.3-0.4l0.7,0.2l0.7,0.4
		L154.1,66.8z"/>
	<path class="st2" d="M161.7,79.5l2.2,1.3l-2.6-1.1l-1.1-0.2l-0.7,0.2h-1.1l-0.4-0.4l0.2-0.7h2.2l0.7,0.2L161.7,79.5z"/>
	
		<radialGradient id="SVGID_1_" cx="-90.6303" cy="524.4699" r="14.286" gradientTransform="matrix(2.9645 3.2135 -2.93 3.2555 1867.4406 -1286.3787)" gradientUnits="userSpaceOnUse">
		<stop  offset="0" style="stop-color:#FF0008"/>
		<stop  offset="1" style="stop-color:#800005"/>
	</radialGradient>
	<path class="st4" d="M79.8,111.9c3.3-0.3,8-0.9,14-1.9c4.8-0.4,9,0.2,12.5,1.9c5.7,2.6,9.8,7.7,12.4,15.1c3.5,9.6,2.9,20.6-1.9,33
		c-4.4,11.1-9.3,18.5-14.9,22.3c-2.8,1.9-7.9,3.4-15.3,4.6c-9.3,1.6-16.9,1.8-22.7,0.7C53,185.6,45,179.8,39.8,170
		c-7.1-13.6-9.8-25.6-7.9-36.3c2-9.9,7.7-17.1,17-21.4c6.4-2.9,12.1-3.8,17.1-2.6C73,111.3,77.6,112,79.8,111.9z"/>
	<path class="st5" d="M52,128.7c3.2,0.1,5.5,1.1,7,2.8c1.5,1.5,1.8,3,0.9,4.6c-0.9,1.3-2.6,2-5.2,2c-2.5-0.2-4.7-0.8-6.6-2
		c-1.7-1.2-2.1-2.7-1.1-4.6C48.1,129.6,49.8,128.7,52,128.7z"/>
	<path class="st6" d="M73,118.4l2.6-0.4c1.9-0.1,3.5-0.1,4.8,0c2,0.1,6.2-0.9,12.7-3c-2.6,2.5-5.8,4.3-9.4,5.4
		c-3.2,1.2-5.7,1.8-7.4,1.8c-2.3,0.1-4.7-0.4-7.2-1.8c-1.6-0.9-3.3-2.3-5.2-4.4l-2.4-3.1l3.3,2C67.5,116.4,70.2,117.6,73,118.4z"/>
	<path class="st7" d="M65.6,115.6c2.5,0.4,5.2,0,8.1-1.3c2.1-0.1,2.8-0.5,2.4-1.1c0.1-0.3,0.3-0.6,0.4-0.9c0.4-0.6,0.8-0.7,1.1-0.4
		c0.6,0.3,2.3,0.2,5.2-0.2l-1.1,1.5c-0.6,1-0.4,1.8,0.7,2.4c1.9,0.9,4.4,0.9,7.6,0.2l-3.7,1.5c-3.9,1.6-7.2,2.5-9.8,2.6
		c-2,0.1-4.4-0.5-7.2-2L65.6,115.6z"/>
	<path class="st8" d="M89.6,60.3c-7.2,15-11,28.9-11.6,41.5c-0.3,7.7,0.4,13.4,2.2,17.1c-2.3,1.3-4.1,1.4-5.2,0.2
		c-0.6-0.6-1-1.6-1.1-3.1l-0.2-1.7c-0.6-1.6-0.9-4.3-0.9-8.1c0.1-7.6,1.6-17,4.4-28.4c3.3-13.3,9-25.7,17-37.4
		c7.3-10.6,11.2-17.9,11.6-21.6l0.4-5.9L108,12c1.6-0.4,3.4-0.1,5.5,0.9c2.9,1.5,4.1,2.7,3.5,3.7c-2.8,3.4-4.9,7.2-6.3,11.6
		c-0.7,1.9-3.6,6.2-8.5,12.9C96.4,48.5,92.2,54.9,89.6,60.3z"/>
	<path class="st9" d="M87.2,60.7c4.1-7.4,8.6-14.4,13.6-20.8c4.5-6,8.2-12.8,11.2-20.6c0.7-1.9,1.1-4.1,1.1-6.8l0.4,0.2
		c2.9,1.5,4.1,2.7,3.5,3.7c-2.8,3.4-4.9,7.2-6.4,11.6c-0.7,1.9-3.6,6.2-8.5,12.9c-5.7,7.4-9.8,13.8-12.4,19.2
		c-7.2,15-11,28.9-11.6,41.5c-0.3,7.7,0.4,13.4,2.2,17.1c-2.3,1.3-4.1,1.4-5.2,0.2l-0.9-2c1.3,0.4,2.1,0.7,2.4,0.7
		c1.2,0.1,1.5-1.8,1.1-5.7c-0.7-7.4-0.9-14.4-0.6-20.8C77.4,82.7,80.8,72.5,87.2,60.7z"/>
	<path class="st10" d="M107.3,16.8c0.1-1.6,0.4-2.5,0.7-2.8c0.3-0.1,0.6,0.1,0.9,0.9c0.4,0.9,0,3.3-1.3,7.4
		c-1.5,4.8-4.6,10.4-9.4,16.6c-3.1,4.1-4.9,6.3-5.5,6.8c-0.7,0.6-0.4-0.2,1.1-2.2c3.5-5.4,6.1-9.1,7.9-11.2c1.3-1.6,2.6-4.2,3.9-7.6
		C106.6,21.4,107.2,18.8,107.3,16.8z"/>
</g>
</svg>
