<?xml version="1.0" encoding="UTF-8"?>
<svg id="Layer_1" data-name="Layer 1" xmlns="http://www.w3.org/2000/svg" viewBox="0 0 1260.69 1260.69">
  <defs>
    <style>
      .clean-cls-1 {
        fill: #f2f1ef;
      }

      .clean-cls-1, .clean-cls-2, .clean-cls-3, .clean-cls-4, .clean-cls-5, .clean-cls-6, .clean-cls-7, .clean-cls-8, .clean-cls-9, .clean-cls-10, .clean-cls-11, .clean-cls-12, .clean-cls-13, .clean-cls-14, .clean-cls-15, .clean-cls-16, .clean-cls-17, .clean-cls-18, .clean-cls-19, .clean-cls-20, .clean-cls-21, .clean-cls-22, .clean-cls-23, .clean-cls-24, .clean-cls-25, .clean-cls-26, .clean-cls-27, .clean-cls-28, .clean-cls-29, .clean-cls-30, .clean-cls-31, .clean-cls-32, .clean-cls-33, .clean-cls-34, .clean-cls-35, .clean-cls-36, .clean-cls-37, .clean-cls-38 {
        stroke-width: 0px;
      }

      .clean-cls-2 {
        fill: #f8d1ac;
      }

      .clean-cls-3 {
        fill: #4c1b16;
      }

      .clean-cls-4 {
        fill: #835f5c;
      }

      .clean-cls-5 {
        fill: #491d25;
      }

      .clean-cls-6 {
        fill: #2b100b;
      }

      .clean-cls-7 {
        fill: #26adc2;
      }

      .clean-cls-8 {
        fill: #70c4d6;
      }

      .clean-cls-9 {
        fill: #a2b024;
      }

      .clean-cls-10 {
        fill: #94a291;
      }

      .clean-cls-11 {
        fill: #5b404a;
      }

      .clean-cls-12 {
        fill: #1b94ae;
      }

      .clean-cls-13 {
        fill: #21110d;
      }

      .clean-cls-14 {
        fill: #e38660;
      }

      .clean-cls-15 {
        fill: #d3c7c3;
      }

      .clean-cls-16 {
        fill: #d9dbd5;
      }

      .clean-cls-17 {
        fill: #d5968e;
      }

      .clean-cls-18 {
        fill: #d12632;
      }

      .clean-cls-19 {
        fill: #d06253;
      }

      .clean-cls-20 {
        fill: #857280;
      }

      .clean-cls-21 {
        fill: #b6543f;
      }

      .clean-cls-22 {
        fill: #9f121d;
      }

      .clean-cls-23 {
        fill: #90b0ab;
      }

      .clean-cls-24 {
        fill: #b91c2a;
      }

      .clean-cls-25 {
        fill: #015f71;
      }

      .clean-cls-26 {
        fill: #854431;
      }

      .clean-cls-27 {
        fill: #fd9f70;
      }

      .clean-cls-28 {
        fill: #edd73f;
      }

      .clean-cls-29 {
        fill: #f5c117;
      }

      .clean-cls-30 {
        fill: #e63b38;
      }

      .clean-cls-31 {
        fill: #f0a418;
      }

      .clean-cls-32 {
        fill: #f18e1b;
      }

      .clean-cls-33 {
        fill: #ffb59e;
      }

      .clean-cls-34 {
        fill: #ffc8a9;
      }

      .clean-cls-35 {
        fill: #f27062;
      }

      .clean-cls-36 {
        fill: #eab892;
      }

      .clean-cls-37 {
        fill: #028692;
      }

      .clean-cls-38 {
        fill: #006f80;
      }
    </style>
  </defs>
  <path class="clean-cls-1" d="m1260.69,1247.15v13.54H0v-13.54h1260.69Z"/>
  <g>
    <g>
      <g>
        <path class="clean-cls-12" d="m977.53,503.54c-31.05,13.3-38.51,2.81-48.63,4.92-.76.16-9.08,6.23-12.93,8.62-18.52-10.54-39.4-17.89-57.86-28.32-26.28-14.84-22.89-14.63-33.24-52.32-.52-1.13-2.23-.39-2.46-.62-9.74-9.72-15.12,4.33-25.85-22.16,66.88-10.47,136.3,45.36,180.98,89.87Z"/>
        <path class="clean-cls-8" d="m895.04,395.2c1.84,4.61.82,4.94,0,9.23,34.22,28.68,68.85,57.17,103.42,85.56-6.95,5.23-12.79,10.05-20.93,13.54-44.68-44.52-114.1-100.34-180.98-89.87-9.53-23.53-6.14-31.44,33.24-39.4,11.72-2.37,14.99.19,16.62,0,1.45-.17,11.5-12.73,6.16,3.69,35.58.21,17.19,5.45,17.85,6.77,2.24,4.49,13.42-.72,14.16-.62.75.11,10.18,10.37,10.46,11.08Z"/>
        <path class="clean-cls-1" d="m1005.84,486.3c13.77-12.12,10.15-13.1-7.39-14.16,12.93-16.77-1.03-3.83-14.16-28.93-5.88,14.6-8.99-7.36-18.47-12.31-8.67-4.53-5.26,2.25-11.08,0-2.04-.79-21.26-21.21-33.24-28.32-4.07-2.41-4.71.12-4.92,0-14.61-7.92-23.66-17.45-21.55-7.39-.28-.71-9.71-10.97-10.46-11.08-.73-.11-11.92,5.1-14.16.62-.66-1.32,17.72-6.56-17.85-6.77,5.35-16.42-4.7-3.86-6.16-3.69-1.63.19-4.9-2.37-16.62,0-1.09-6.66-30.76,9.42-32.01,6.77,39.09-40.35,127.61,3.73,166.82,28.93,8.91,5.73,37.81,27.72,44.32,34.47,3.35,3.47,22.57,28.02,22.78,30.16.48,5.06-25.69,16.75-25.85,11.7Z"/>
        <path class="clean-cls-8" d="m1005.84,486.3c-1.98,1.74-7.06,3.45-7.39,3.69-34.57-28.4-69.2-56.88-103.42-85.56.82-4.3,1.84-4.62,0-9.23-2.11-10.06,6.93-.54,21.55,7.39.22.12.86-2.41,4.92,0,11.98,7.1,31.2,27.53,33.24,28.32,5.82,2.25,2.41-4.53,11.08,0,9.48,4.95,12.58,26.91,18.47,12.31,13.12,25.1,27.08,12.16,14.16,28.93,17.54,1.06,21.16,2.04,7.39,14.16Z"/>
        <g>
          <path class="clean-cls-7" d="m858.11,488.76c-3.05,7.58,34.31,35.25,35.7,37.55.07.12-1.56,1.07-1.23,1.85-2.85-.39-8.01-2.72-11.08-3.69-2.81-.89-14.08-4.57-14.77-4.92-28.74-14.9-34.64-55.86-44.32-83.72.23.23,1.94-.52,2.46.62,10.35,37.7,6.96,37.48,33.24,52.32Z"/>
          <path class="clean-cls-8" d="m915.97,517.08c-10.48,6.5-9.83,12.92-23.39,11.08-.33-.78,1.3-1.73,1.23-1.85-1.4-2.3-38.75-29.97-35.7-37.55,18.47,10.43,39.34,17.78,57.86,28.32Z"/>
        </g>
      </g>
      <g>
        <g>
          <path class="clean-cls-24" d="m834.72,648.81c.51,1.29,5.07,2.53,6.16,2.46l2.46,3.08q-44.32,149.89-88.64,299.78l-14.77-7.39c.49-1.36.75-3.55,1.23-4.92,1.33,3.94,9.78,10.81,12.31,6.77,16.2-62.92,37.2-124.49,54.17-187.13l-1.85-3.08q-5.85,1.85-11.7,3.69c9.33-32.45,18.53-64.94,28.32-97.26,1.54-1.99,1.15-2.35,1.23-2.46.52-.7,4.31-11.07,11.08-13.54Z"/>
          <path class="clean-cls-5" d="m754.69,954.14c-5.58,27.56-16.17,12.22-17.24,16.62,18.87,1.34.08,27.26-6.16,51.09-5.02-.5-5.93-.19-8.62,3.69-8.48-6.09-4.13,4.29-8.62,1.23.57-3.33,1.2-1.49,0-6.16,8.92-3.21,3.58-6.91,1.23-13.54,7.01-11.34,10.84-31.82,16-44.94,2.56-6.51,8.32-14.56,8.62-15.39l14.77,7.39Z"/>
          <path class="clean-cls-22" d="m881.5,524.47q-9.23,29.55-18.47,59.09c-2.81-2.02-10.39-6.25-13.54-7.39q8.62-28.32,17.24-56.63c.69.36,11.96,4.03,14.77,4.92Z"/>
          <path class="clean-cls-24" d="m741.15,941.83c16.91-47.79,37.87-127.32,52.94-179.75q5.85-1.85,11.7-3.69l1.85,3.08c-16.97,62.64-37.97,124.21-54.17,187.13-2.53,4.04-10.99-2.83-12.31-6.77Z"/>
        </g>
        <g>
          <path class="clean-cls-2" d="m731.3,1021.85c9.03,7.08,11.41,30.01,12.31,41.86-3.42,30.75,1.01,17.24-8,9.85-2.05-1.68-14.38-3.79-24.01-13.54.53-3.12,10.05-32.98,11.08-34.47,2.69-3.88,3.6-4.19,8.62-3.69Z"/>
          <path class="clean-cls-36" d="m743.61,1063.71c.36,4.7,1.33,9.7,1.23,12.31-.1,2.66.07,5.34,0,8-1.73,4.18-32.29,4.25-34.47-3.08-1.1-3.69.41-16.13,1.23-20.93,9.63,9.75,21.95,11.86,24.01,13.54,9.01,7.39,4.58,20.9,8-9.85Z"/>
          <path class="clean-cls-26" d="m722.68,1025.54c-1.03,1.49-10.55,31.35-11.08,34.47-.82,4.8-2.33,17.24-1.23,20.93-1.91,5.18-11.64-.71-13.54-1.23,1.4-17.96,15.27-41.47,17.24-52.94,4.49,3.06.14-7.33,8.62-1.23Z"/>
          <path class="clean-cls-2" d="m714.06,1019.39c.14.29-.11.81,0,1.23,1.2,4.67.57,2.83,0,6.16-1.96,11.47-15.84,34.98-17.24,52.94-2.67-.72-4.81-1.33-7.39-2.46,5.83,2.53,10.48-9.29,8.62-12.93-.56-1.09-17.73-6.51-20.93-6.77-.99-4.12-17.44-14.77-22.16-17.24.27-1.25-.08-3.26,0-4.92,2.7,4.09,2.47.8,3.69,1.23,14.48,5.11,26.77,16.74,42.47,18.47,2.11-8.35,10.28-21.24,11.7-27.7.64-2.91-2.83-8.58,1.23-8Z"/>
          <path class="clean-cls-36" d="m689.44,1077.25c-21.38-9.41-8.66-4.49-12.31-19.7,3.2.26,20.37,5.68,20.93,6.77,1.86,3.64-2.79,15.46-8.62,12.93Z"/>
          <path class="clean-cls-19" d="m715.29,1007.08c2.35,6.63,7.69,10.33-1.23,13.54-.11-.42.14-.94,0-1.23-3.44-7.11-8.63,5.84-6.16-6.16,1.13-5.45,7.08-5.66,7.39-6.16Z"/>
          <path class="clean-cls-2" d="m707.91,1013.23c-2.48,12,2.71-.95,6.16,6.16-4.06-.58-.59,5.09-1.23,8-1.41,6.46-9.59,19.35-11.7,27.7-15.7-1.73-28-13.36-42.47-18.47,12.14-10.91,32.88-22.95,49.25-23.39Z"/>
        </g>
      </g>
    </g>
    <g>
      <path class="clean-cls-23" d="m560.17,1067.4c-3.4,8.44,1.09,9.61,1.23,11.08.5,5.15-2.79,4.79-6.16,9.85-5.87-9.13-13.01-17.48-23.39-21.55-.39-1.62,5.89-4.84,6.16-5.54,5.29,7.31,14.34,5.3,22.16,6.16Z"/>
      <g>
        <path class="clean-cls-2" d="m558.94,1096.95c5.94,13.11,14.25,19.41-11.7,18.47l-103.42-14.77c-11.13-4.62-.82-13.99,4.31-14.77,5.27-.81,88.78,24.33,104.03,23.39,11.82-.73,6.38-8.94,6.77-12.31Z"/>
        <g>
          <path class="clean-cls-24" d="m538.01,1061.25c-.26.7-6.54,3.92-6.16,5.54,10.39,4.06,17.52,12.41,23.39,21.55.07.12.46,1.12,1.23,2.46.16.29.77,2.42,2.46,6.16-.39,3.37,5.05,11.58-6.77,12.31-15.25.94-98.76-24.2-104.03-23.39-3.14-2.25-2.6-6.5-2.46-9.85.28-6.86-.15-30.84,1.23-35.09,2.32-7.12,13.28-1.26,13.54-12.93,9.37,2.54,36.95,4.23,44.32,1.23l1.23,1.23c-1.48,3.68-3.61,7.14.62,7.39,6.56.38,4.35-18.22,23.39-12.31,8.5,2.64,10.58,28.85,8,35.7Z"/>
          <path class="clean-cls-17" d="m522.62,1039.09c5.21,2.51,7.46,21.47,3.69,23.39-10.51,5.36-7.45-23.02-3.69-23.39Z"/>
        </g>
      </g>
      <g>
        <path class="clean-cls-27" d="m457.99,722.68c-.83-.01-2.24-.3-2.46.62-3.27,13.77,15.1,51.9,27.09,62.17-1.78,1.31-4.14,4.63-6.16,6.16-2.14,1.62-4.53,3.54-7.39,3.69-21.64-30.56-24.74-36.31-28.32-76.33.62-1.54,2.01-2.13,2.46-3.69,4.57,1.66,13.97,7.19,14.77,7.39Z"/>
        <path class="clean-cls-36" d="m457.99,722.68c5.99,1.44,21.94.96,29.55,1.23v1.23c4.01,8.4,14.16,41,17.24,44.32-6.08,7.03-14.93,10.66-22.16,16-11.99-10.27-30.36-48.4-27.09-62.17.22-.91,1.63-.63,2.46-.62Z"/>
      </g>
      <g>
        <path class="clean-cls-27" d="m812.56,661.12c-24.85,42.11-96.74,69.95-140.35,44.32,3.89-1.55,3.5-2.36,3.69-2.46,9.45-4.98,15.98-10.78,23.39-18.47,19.76.41,44.25-8.6,57.86-23.39,6.89-3.61,27.49-21.79,34.47-28.32,3.8,6.78,15.77,24.86,20.93,28.32Z"/>
        <path class="clean-cls-2" d="m757.15,661.12c-13.62,14.79-38.1,23.8-57.86,23.39,6.29-6.52,11.26-14.16,17.24-20.93.6,1.19,1.6,5.82,0,6.77,3.57,4.9,34.95-6.26,40.63-9.23Z"/>
        <path class="clean-cls-14" d="m823.64,662.36c-.08.11.3.47-1.23,2.46-39.62,51.39-101.56,79.48-161.28,44.32,1.01-.04,9.05-2.88,11.08-3.69,43.61,25.63,115.5-2.21,140.35-44.32,6.82,4.57,5.42,3.59,11.08,1.23Z"/>
      </g>
      <g>
        <path class="clean-cls-29" d="m849.49,576.18c3.16,1.14,10.73,5.36,13.54,7.39,4.21,3.02,12.76,8.12,12.31,11.7-9.97,9.04-20.77,50.51-30.78,54.79,2.74-12.75,8.32-24.6,12.31-36.93,1.27-3.93,10.57-15.78-.62-20.93-16.34-7.53-25.35,17.11-10.46,24.62-.97,1.34-1.58,17.41-12.31,30.16l1.23,1.85c-6.77,2.48-10.56,12.84-11.08,13.54-5.66,2.36-4.26,3.34-11.08-1.23-5.16-3.46-17.13-21.53-20.93-28.32,8.02-7.5,16.59-13.99,23.39-22.78,11.36-14.67,15.58-40.68,34.47-33.86Z"/>
        <path class="clean-cls-31" d="m844.57,650.04c-.4.17-3.5,1.22-3.69,1.23-1.09.07-5.65-1.17-6.16-2.46l-1.23-1.85c10.73-12.76,11.34-28.83,12.31-30.16.34-.47,9.58-2.93,11.08-3.69-3.99,12.34-9.57,24.19-12.31,36.93Z"/>
        <path class="clean-cls-32" d="m856.88,613.11c-1.5.76-10.74,3.22-11.08,3.69-14.89-7.51-5.88-32.15,10.46-24.62,11.19,5.15,1.89,17,.62,20.93Z"/>
      </g>
      <path class="clean-cls-22" d="m620.5,1025.54c-.97,1.62-1.61,2.93-1.23,4.92-10.77,3.48-29.96,6.54-36.93-2.46.38-.37-.96-3.68,1.23-3.69,12.48,2.75,24.25,3.09,36.93,1.23Z"/>
      <g>
        <path class="clean-cls-24" d="m629.11,1077.25c3.34,3.05,36.58,11.67,44.94,14.77,2.7-2.1-11.35-27.94-16.62-32.01,4.05,1.9,6.37,3.39,9.85,6.16,3.66,9.12,7.75,18.4,12.31,27.09-1.58,8.89-6.59,7.58-14.16,7.39-21.11-.53-81.68-21.31-97.26-23.39-2.39-.32-4.68-.17-6.77,1.23-.14-1.47-4.63-2.64-1.23-11.08,4.68-4.79,2.44-11.77,3.69-17.24l3.08,14.77c19.18,1.38,53.21,18.32,62.17,12.31Z"/>
        <path class="clean-cls-2" d="m679.59,1093.26c.62,1.18,14.94,11.33-.62,14.77-8.85,1.96-28.8-2.62-38.78-3.69-13.04-1.4-26.45-2.89-39.4-4.92,2.14-4.86-21.67-7.78-27.09-4.92-5.75-1.17-11.43-2.78-17.24-3.69-.77-1.35-1.16-2.35-1.23-2.46,3.37-5.06,6.65-4.69,6.16-9.85,2.09-1.4,4.38-1.55,6.77-1.23,15.58,2.09,76.15,22.87,97.26,23.39,7.57.19,12.58,1.5,14.16-7.39Z"/>
        <path class="clean-cls-10" d="m573.71,1094.49c8.94,1.81,18.08,3.51,27.09,4.92,12.95,2.03,26.35,3.52,39.4,4.92-10.63,7.1-78.6-13.63-81.26-10.46-.25.3.15,1.78,0,3.08-1.69-3.74-2.3-5.87-2.46-6.16,5.8.92,11.48,2.53,17.24,3.69Z"/>
        <path class="clean-cls-24" d="m650.04,1057.55c2.51.9,4.99,1.33,7.39,2.46,5.27,4.07,19.32,29.91,16.62,32.01-8.36-3.1-41.6-11.72-44.94-14.77-8.71-7.96,7.8-23.23,9.23-23.39,2.83-.31,7.18,8.7,11.7,3.69Z"/>
        <g>
          <path class="clean-cls-24" d="m654.97,1035.39c-.08,1.67.27,3.68,0,4.92-.05.22-.78-.38-2.46,3.69-1.82,4.4-5.15,8.47-8.62,11.7,1.54,2.94,4.36,1.2,6.16,1.85-4.52,5.01-8.87-4.01-11.7-3.69-1.43.16-17.94,15.43-9.23,23.39-8.97,6-42.99-10.93-62.17-12.31l-3.08-14.77c6.32-27.65,12.95-16.76,18.47-22.16,6.97,9,26.16,5.95,36.93,2.46,15.36-4.97,4.31-4.52,11.7-14.77,16.75,3.1,25.05-1.31,24.01,19.7Z"/>
          <path class="clean-cls-17" d="m634.65,1039.09c3.56.46,4.98,10.91-6.16,11.08,1.13-1.99,3.42-11.43,6.16-11.08Z"/>
        </g>
        <path class="clean-cls-36" d="m600.8,1099.41c-9-1.41-18.15-3.11-27.09-4.92,5.42-2.85,29.22.07,27.09,4.92Z"/>
      </g>
      <g>
        <g>
          <path class="clean-cls-14" d="m529.39,982.45c-4.54,9.29-16.33,39.39-22.16,44.32-1.67,1.41-1.21,2.57-2.46,2.46-7.38,3-34.95,1.31-44.32-1.23.07-2.94-2.46-5.24-2.46-5.54-.21-15.83-.16-31.59-1.23-47.4,24.17,3.79,48.02,7.76,72.64,7.39Z"/>
          <path class="clean-cls-17" d="m506,1030.47l-1.23-1.23c1.25.11.79-1.05,2.46-2.46.57,4.21-1.16,3.51-1.23,3.69Z"/>
        </g>
        <path class="clean-cls-14" d="m634.04,967.68c-3.45,17.59-4.85,43.33-13.54,57.86-12.69,1.86-24.46,1.52-36.93-1.23v-46.78c16.95-2.4,33.41-8.23,50.48-9.85Z"/>
      </g>
      <g>
        <path class="clean-cls-3" d="m624.19,579.87c1.96,3.05,1.18,6.51,1.23,9.85.14,8.29.75,16.37,1.23,24.62-.57-3.01-3.37-20.42-4.31-20.93-1.45-.78-16.59.57-21.55,0,.52-7.53-1.62-13.35,2.46-12.31,7.18.06,13.83-.6,20.93-1.23Z"/>
        <g>
          <path class="clean-cls-15" d="m525.7,579.87c-57.27,5.03-93.56,70.09-115.73,117.57.35,1.77,15.72,9.24,18.47,10.46.46.21,2.83-.6,3.69,2.46-3.68-1.68-23.72-8.79-24.62-11.7,17.88-43.6,50.85-99.33,96.64-116.34l-1.85-2.46c4.38-.13,20.55-3.55,22.78-2.46l.62,2.46Z"/>
          <g>
            <path class="clean-cls-30" d="m647.58,584.79c20.18,11.94,59.41,59.84,68.94,78.79-5.97,6.77-10.95,14.41-17.24,20.93-7.42,7.69-13.95,13.48-23.39,18.47-8.24-10.7-13.79-23.17-18.47-35.7-7.29-19.55-19.13-63.22-16-82.49,1.42.35,4.02-.21,6.16,0Z"/>
            <path class="clean-cls-30" d="m634.04,578.64c5.21,2.61,6.92,6.04,7.39,6.16-3.13,19.27,8.71,62.94,16,82.49-17.85,12.7-10.09-21.76-22.16-41.86-3.92-20.18-4.73-40.31-9.85-35.7-.05-3.34.73-6.8-1.23-9.85,3.27-.29,6.61-.73,9.85-1.23Z"/>
            <path class="clean-cls-24" d="m657.43,667.28c4.67,12.53,10.22,25.01,18.47,35.7-.2.1.19.91-3.69,2.46-2.03.81-10.07,3.66-11.08,3.69-.38.01-.87.07-1.23,0-5.71-1.19-15.23-38.91-17.24-46.78-3.08-12.07-5.01-24.7-7.39-36.93,12.07,20.09,4.31,54.56,22.16,41.86Z"/>
          </g>
          <g>
            <path class="clean-cls-30" d="m520.77,629.11c-.07.79-1.85,5.07-2.46,7.39-5.53,21.11-22.5,64.39-30.78,87.41-7.6-.27-23.56.21-29.55-1.23-.8-.19-10.2-5.73-14.77-7.39-1.15-.42-8.77-3.87-11.08-4.92-.87-3.06-3.23-2.26-3.69-2.46,26.67-40.24,39.82-82.66,92.34-92.95-.3,4.67.41,9.51,0,14.16Z"/>
            <path class="clean-cls-24" d="m525.7,579.87c-1.46,11.85-2.93,23.79-3.69,35.7-.29,4.48.26,9.06,0,13.54h-1.23c.41-4.65-.3-9.49,0-14.16-52.51,10.29-65.67,52.72-92.34,92.95-2.75-1.23-18.12-8.69-18.47-10.46,22.17-47.48,58.46-112.54,115.73-117.57Z"/>
            <path class="clean-cls-24" d="m519.54,640.2c.27,14.65-4.84,33.74-8.62,48.01-.46,1.75-.83,3.13-1.23,4.92-3.09,5.87-2.14,6.44-2.46,7.39-3.48,10.12-7.68,24.07-19.7,24.62v-1.23c8.27-23.02,25.25-66.3,30.78-87.41,1.77-.08,1.2,1.76,1.23,3.69Z"/>
            <path class="clean-cls-11" d="m519.54,640.2c-.04-1.93.54-3.78-1.23-3.69.61-2.32,2.39-6.6,2.46-7.39h1.23c-.21,3.62-.98,10.04-2.46,11.08Z"/>
            <path class="clean-cls-11" d="m507.23,700.52c.32-.94-.63-1.52,2.46-7.39-.53,2.38.6,5.73-2.46,7.39Z"/>
            <path class="clean-cls-11" d="m509.69,693.13c.4-1.8.77-3.17,1.23-4.92.61,5.51-1.11,4.7-1.23,4.92Z"/>
          </g>
          <g>
            <path class="clean-cls-30" d="m626.65,614.34c.36,1.9,1.57.77,2.46,1.85-2.44,10.88.94,21.58,1.23,32.63-2.46.24-.61,4.85-1.23,5.54-3.59,3.97-82.23,6.84-94.18,8l-4.31-3.08c1.03-7.64-.91-15.32-1.23-22.78-.3-6.95.22-13.97,0-20.93.34-1.4,1.43-2.66,2.46-3.69,3.26-3.26,26.51-8.52,33.24-9.85,3.69,12.15,13.42,2.56,33.86,3.69,3.15-2.17,1.47-6.73,1.85-11.08.03-.41-.03-.82,0-1.23,4.95.57,20.09-.78,21.55,0,.94.51,3.74,17.92,4.31,20.93Z"/>
            <path class="clean-cls-18" d="m563.86,594.64c.29,2.06.69,5.6,1.23,7.39-6.73,1.33-29.98,6.59-33.24,9.85-2.34-20.78,2.04-19.6,20.93-19.7,13.56-.07,10.46,2.45,11.08,2.46Z"/>
            <path class="clean-cls-30" d="m630.35,648.81c.08,2.93,2.07,14.73-.62,16-25.84.47-51.33,4.68-76.95,7.39-8.55.9-17.37.27-25.85,2.46l2.46-38.17c.32,7.46,2.26,15.13,1.23,22.78l4.31,3.08c11.95-1.16,90.59-4.03,94.18-8,.62-.69-1.23-5.3,1.23-5.54Z"/>
          </g>
        </g>
        <g>
          <path class="clean-cls-25" d="m469.07,795.32c4.79,6.76,13.4,18.46,18.47,24.62-1.29,14.95-4.96,29.55-7.39,44.32-2.55,15.53-4.69,31.18-6.77,46.78,3.98,2.26,63.45-16.58,73.25-22.16,1.52-.86,5.98.03,4.92-4.92-.02.22,2.46,1.87,1.23,4.31-4.17,8.3-66.16,32.68-79.41,38.78-6.2,4.55-11.66,43.87-9.85,45.55,20.96,6.5,65.66,5.01,68.94,6.16.94.33.62,1.61.62,2.46-4.86.12-3.5,1.23-3.69,1.23-24.62.37-48.47-3.6-72.64-7.39-24.6-10.04-50.48-17.37-72.64-32.63,23.81-69.9,29.35-156.16,56.63-223.45,3.57,40.02,6.68,45.77,28.32,76.33Z"/>
          <path class="clean-cls-38" d="m556.48,979.99c-7.78.65-15.57,1.03-23.39,1.23,0-.86.33-2.13-.62-2.46-3.28-1.14-47.98.35-68.94-6.16-1.82-1.68,3.65-41,9.85-45.55,13.25-6.1,75.24-30.48,79.41-38.78,1.23-2.44-1.25-4.09-1.23-4.31.45-6.09-.33-12.36,0-18.47,7.54,1.56,30.48,7.16,24.62-6.16,9.61,14.13-12.26,8.57-13.54,12.93-.08,35.85-6.11,76.63-28.32,105.88l22.16,1.85Z"/>
          <path class="clean-cls-25" d="m529.39,615.57c.22,6.96-.3,13.98,0,20.93l-2.46,38.17-17.24,94.18c19.39,8.94,13.9,42.18,22.16,33.86-.21,1.17.12,2.49,0,3.69-.25-.01-2.24,2.82-4.92.62-7.49-39.69-19.95-35.17-22.16-37.55-3.08-3.32-13.23-35.93-17.24-44.32,12.02-.55,16.22-14.5,19.7-24.62,3.06-1.66,1.94-5,2.46-7.39.12-.22,1.84.58,1.23-4.92,3.78-14.27,8.89-33.37,8.62-48.01,1.48-1.04,2.25-7.46,2.46-11.08.26-4.48-.29-9.06,0-13.54h7.39Z"/>
          <path class="clean-cls-37" d="m637.73,711.6c9.4,80.55,17.42,161.28,30.78,241.3-12.13,5.45-24.81,7.06-34.47,14.77-17.07,1.62-33.53,7.45-50.48,9.85-8.81,1.25-18.19,1.72-27.09,2.46l-22.16-1.85c22.2-29.25,28.23-70.03,28.32-105.88,1.28-4.36,23.16,1.21,13.54-12.93-1.62-2.38-9.08-6.25-9.85-9.85,1.87-.45,11.14-6.76,13.54-8.62,9.43-7.31,7.64-5.43-17.24-11.08.22-4.42,7.26-5.9,6.16-13.54-2.23-15.48-27.56-9.42-36.93-9.85.12-1.2-.21-2.52,0-3.69,5.28-30,11.4-59.97,17.24-89.87,26.19-.15,63.81,3.13,88.64-1.23Z"/>
          <path class="clean-cls-12" d="m635.27,625.42c2.38,12.24,4.31,24.87,7.39,36.93l-2.46-.62c-.62,6.65,13.96,44.2,12.31,46.78-4.85,1.29-9.84,2.21-14.77,3.08-24.83,4.36-62.45,1.08-88.64,1.23.18-5.58.75-36.9,1.23-38.78.26-1.01,2.63-.05,2.46-1.85,25.62-2.7,51.11-6.91,76.95-7.39,2.68-1.27.69-13.07.62-16-.29-11.04-3.67-21.75-1.23-32.63-.89-1.08-2.1.05-2.46-1.85-.48-8.26-1.1-16.34-1.23-24.62,5.12-4.61,5.92,15.53,9.85,35.7Z"/>
          <path class="clean-cls-7" d="m642.66,662.36c2.01,7.88,11.52,45.6,17.24,46.78,19.43,74.27,24.9,151.16,41.86,225.91-.61,3.48-28.46,15.7-33.24,17.85-13.36-80.02-21.37-160.75-30.78-241.3,4.93-.87,9.92-1.79,14.77-3.08,1.65-2.59-12.93-40.13-12.31-46.78l2.46.62Z"/>
          <path class="clean-cls-38" d="m552.78,672.2c.17,1.8-2.2.84-2.46,1.85-.48,1.88-1.05,33.2-1.23,38.78-5.84,29.9-11.96,59.87-17.24,89.87-8.26,8.32-2.77-24.92-22.16-33.86l17.24-94.18c8.49-2.2,17.31-1.56,25.85-2.46Z"/>
        </g>
      </g>
      <g>
        <g>
          <path class="clean-cls-9" d="m544.17,861.8c2.01.57.47,1.97,2.46,2.46v24.62c-9.8,5.59-69.27,24.42-73.25,22.16,2.08-15.6,4.22-31.25,6.77-46.78,4.18.76,1.47-4.09,3.08-4.92,4.3-2.23,51.92,8.31,60.94,2.46Z"/>
          <path class="clean-cls-9" d="m544.17,861.8c-9.02,5.85-56.65-4.69-60.94-2.46-1.6.83,1.1,5.68-3.08,4.92,2.43-14.77,6.09-29.37,7.39-44.32,24.3,29.55,19.19,31.2,56.63,41.86Z"/>
          <path class="clean-cls-28" d="m551.55,865.49c-.33,6.11.45,12.38,0,18.47,1.06,4.95-3.41,4.06-4.92,4.92v-24.62c.22.05-.21-2.22,4.31-1.23,1.05.23.49,2.44.62,2.46Z"/>
        </g>
        <g>
          <path class="clean-cls-31" d="m488.76,802.71c29.34,27.66,25.4,41.67,70.79,48.01,2.95-1.63,5.31-.88,6.77-1.23.77,3.6,8.23,7.46,9.85,9.85,5.86,13.32-17.08,7.72-24.62,6.16-.12-.03.44-2.23-.62-2.46-4.52-.99-4.09,1.29-4.31,1.23-1.99-.49-.45-1.89-2.46-2.46-37.44-10.66-32.34-12.31-56.63-41.86-5.07-6.16-13.68-17.86-18.47-24.62,2.85-.16,5.25-2.07,7.39-3.69,4.19,3.55,8.32,7.32,12.31,11.08Z"/>
          <path class="clean-cls-29" d="m531.85,806.4c9.37.43,34.7-5.63,36.93,9.85-22.58-9.41-53.58,9.94-10.46,16,10.74,1.51,3.99-1.52,4.31-2.46,24.87,5.65,26.66,3.77,17.24,11.08l.62-2.46c-79.89,8.55-66.31-30.97-70.18-33.24-11.18.67-19.1-7.79-21.55-2.46-3.99-3.76-8.13-7.53-12.31-11.08,2.01-1.53,4.38-4.84,6.16-6.16,7.23-5.34,16.08-8.98,22.16-16,2.21,2.38,14.67-2.14,22.16,37.55,2.69,2.2,4.68-.63,4.92-.62Z"/>
          <path class="clean-cls-29" d="m579.87,840.87c-2.4,1.86-11.67,8.16-13.54,8.62-1.46.35-3.82-.4-6.77,1.23-45.39-6.34-41.45-20.36-70.79-48.01,2.44-5.33,10.37,3.13,21.55,2.46,3.87,2.27-9.72,41.79,70.18,33.24l-.62,2.46Z"/>
          <path class="clean-cls-31" d="m568.79,816.25c1.1,7.64-5.94,9.12-6.16,13.54-.32.94,6.43,3.97-4.31,2.46-43.11-6.06-12.11-25.42,10.46-16Z"/>
        </g>
      </g>
      <g>
        <g>
          <path class="clean-cls-3" d="m770.7,352.11c11.49,77.84-11.02,149.41-6.16,185.29.36,2.66,3.65,10.59,4.92,14.16-13.89-14.55-4.34-60.91-3.69-83.1-3.06-3.09-31.09-75.3-38.17-61.56-1.75,3.4,10.61,32.44,7.39,75.72-.61-70.58-30.6-135.53-67.1-194.52-1.31-.14-12.16,19.37-14.16,22.16-.78.33-1.73-1.3-1.85-1.23-4.5,2.72-43.35,54.91-81.87,64.02-1.59.38-26.59.67-32.63,2.46-41.57-4.99-102.59-83.07-70.79-147.12,2.62-5.29,9.66-13.97,13.54-19.08,1.43-1.88,9.23-7.37,9.85-9.23.23-.7-2.99.25-2.46-3.08.42-2.61.57-2.1,0-4.92-.32-1.6,1.7-.87,2.46-1.85-4.03-2.17-5.85-7.55-8.62-10.46,19.45,20.2,15.52,8.83,36.32,4.92,125.93-23.66,233.64,36.29,253,167.44Z"/>
          <path class="clean-cls-13" d="m769.47,551.55c2.37,6.66,8.68,13.87,6.77,14.77-16.92-13.8-18.09-2.28-32.01,2.46-23.15,7.88-73.61,18.32-96.64,16-2.14-.21-4.73.35-6.16,0-.47-.12-2.18-3.55-7.39-6.16,39.29-6.05,81.5-26.46,94.8-66.48,2.9-8.72,5.48-20.45,6.16-29.55,3.22-43.28-9.14-72.32-7.39-75.72,7.08-13.74,35.1,58.47,38.17,61.56-.64,22.19-10.2,68.56,3.69,83.1Z"/>
          <path class="clean-cls-3" d="m480.15,209.29c-9.91.42-36.83,30.2-44.32,40.01-15.47,20.26-33.69,58.45-39.4,66.48-15.35,21.63-13.83,13.41-25.85-3.69,8.96-7.11,3.82-16.83,3.69-17.85-.1-.8.05-1.65,0-2.46q7.39-11.7,14.77-23.39h1.23c3.81-.57,17.24-26.73,56.63-51.71,2.74-1.74,2.26-3.63,6.77-6.16,10.09-5.64,23.28-8.68,33.86-13.54-.53,3.33,2.7,2.37,2.46,3.08-.62,1.86-8.42,7.35-9.85,9.23Z"/>
          <path class="clean-cls-16" d="m770.7,352.11c-19.36-131.14-127.07-191.09-253-167.44-20.8,3.91-16.87,15.27-36.32-4.92-13.46-14.16-30.89-19.46-50.48-17.24-46.43,5.27-78.7,70.59-41.86,105.88q-7.39,11.7-14.77,23.39c-5.54,1.4,5.21-10.31,11.08-20.31-19.17-18.73-19.43-35.53-17.24-61.56,13.68-25.4,30.84-48.41,60.94-52.32.98-.13.26-2.36,1.23-2.46,30.8-1.49,48.8,9.31,67.71,33.24,11.97-4.49,23.78-6.66,35.7-9.85,17.83.8,39.18-6.55,57.86,0,5.01-2.88,16.54-4.05,22.16-3.69.95.06.27,2.38,1.23,2.46,13.65,1.23,22.82,4.47,34.47,7.39,9.73,8.95,10.48,4.63,11.08,4.92,10.43,5.15,55.63,36.85,63.4,44.94,28.82,29.97,49.77,75.89,46.78,117.57Z"/>
          <path class="clean-cls-13" d="m531.85,571.25c5.6,1.33,16.72,4.25,20.93,4.92v16c-18.89.1-23.27-1.08-20.93,19.7-1.03,1.03-2.12,2.29-2.46,3.69h-7.39c.76-11.92,2.24-23.85,3.69-35.7l-.62-2.46c-2.22-1.09-18.4,2.33-22.78,2.46-53.63,1.58-151.32-1.98-171.13-64.02,43.22,41.06,56.96,38.15,105.26,60.33,31.76.22,65.13,5.95,95.41-4.92Z"/>
          <g>
            <path class="clean-cls-3" d="m480.15,209.29c-3.88,5.11-10.92,13.8-13.54,19.08-31.8,64.05,29.22,142.13,70.79,147.12,6.04-1.79,31.03-2.09,32.63-2.46-4.56,1.72-1.41,4.32-1.23,7.39.06,1.09,2.55,2.65.62,4.92-22.05.79-36.12,13.66-38.17,13.54-.88-.05-1.71-2.4-1.85-2.46-2.04-.95.33-5.22-10.46-2.46-32.76,8.37-129.62,109.63-22.78,164.97,14.15,7.33,20.53,8.7,35.7,12.31-30.28,10.87-63.65,5.15-95.41,4.92-48.31-22.18-62.04-19.27-105.26-60.33-17.81-55.77,9.58-171.15,43.09-221.61.13,1.02,5.26,10.74-3.69,17.85,12.02,17.1,10.5,25.32,25.85,3.69,5.7-8.03,23.93-46.22,39.4-66.48,7.49-9.82,34.41-39.59,44.32-40.01Z"/>
            <path class="clean-cls-14" d="m430.9,462.91c.74,3.43-.72,9.45,0,12.93,2.56,12.28,18.58,29.07,10.46,33.86-12.47,7.35-46.64,2.92-59.71-23.39,15.3-5.93-2.88-14.15,6.16-33.86,5.56-12.13,26.84-17.37,36.93-2.46,3.4,5.02,2.7,13.86,6.16,12.93Z"/>
            <path class="clean-cls-27" d="m430.9,462.91c-3.45.93-2.76-7.91-6.16-12.93-10.09-14.91-31.37-9.67-36.93,2.46-9.04,19.71,9.15,27.93-6.16,33.86-22.97-46.25,33.96-71.8,46.78-38.78,1.81,4.66,1.44,10.65,2.46,15.39Z"/>
          </g>
          <g>
            <path class="clean-cls-3" d="m487.53,192.06c.57,2.83.42,2.32,0,4.92-10.58,4.86-23.77,7.9-33.86,13.54-4.51,2.53-4.03,4.42-6.77,6.16-19.32,5.66-47.34,33.26-56.63,51.71h-1.23c-36.85-35.29-4.57-100.61,41.86-105.88,2.1,2.5-17.74,4.86-10.46,9.85,3.09,2.12,35.86-3.13,67.1,19.7Z"/>
            <path class="clean-cls-3" d="m481.38,179.75c2.77,2.91,4.59,8.29,8.62,10.46-.76.97-2.78.25-2.46,1.85-31.24-22.83-64.01-17.58-67.1-19.7-7.27-4.99,12.56-7.35,10.46-9.85,19.59-2.22,37.01,3.07,50.48,17.24Z"/>
            <path class="clean-cls-4" d="m446.91,216.68c-39.39,24.97-52.82,51.14-56.63,51.71,9.29-18.45,37.32-46.05,56.63-51.71Z"/>
          </g>
        </g>
        <path class="clean-cls-34" d="m600.8,594.64c-.37,4.35,1.3,8.91-1.85,11.08-20.44-1.13-30.16,8.45-33.86-3.69-.54-1.79-.94-5.33-1.23-7.39,12.29.33,24.64-.24,36.93,0Z"/>
        <g>
          <path class="clean-cls-21" d="m653.74,310.25c-25.36,35.4-47.05,49.5-84.95,70.18-.18-3.07-3.33-5.67,1.23-7.39,38.52-9.11,77.37-61.3,81.87-64.02.12-.07,1.07,1.56,1.85,1.23Z"/>
          <path class="clean-cls-27" d="m496.15,504.77c8.06,16.15,17.51,26.51,32.01,36.93,47.56,34.22,114.01,31.8,163.74,3.69,17.05-9.63,26.33-17.29,34.47-35.7,1.01.99,1.24,2.11,2.46,2.46-13.3,40.02-55.51,60.43-94.8,66.48-3.24.5-6.58.94-9.85,1.23-7.1.63-13.75,1.29-20.93,1.23-10.64-.09-39.24-3.12-50.48-4.92-4.21-.67-15.33-3.59-20.93-4.92-15.17-3.61-21.55-4.98-35.7-12.31,8.21-4.15-15.19-12.71-27.09-37.55-19.13-39.93-8.84-70.93,22.16-99.11-11.09,29.5-9.08,54.41,4.92,82.49Z"/>
          <path class="clean-cls-14" d="m529.39,396.43c-16.6,7.18-25.24,14.1-38.17,25.85-31,28.18-41.29,59.17-22.16,99.11,11.9,24.84,35.29,33.4,27.09,37.55-106.85-55.34-9.98-156.61,22.78-164.97,10.79-2.76,8.43,1.51,10.46,2.46Z"/>
          <path class="clean-cls-14" d="m603.26,581.1c-4.08-1.04-1.95,4.78-2.46,12.31-.03.41.03.82,0,1.23-12.3-.24-24.64.33-36.93,0-.62-.02,2.48-2.53-11.08-2.46v-16c11.23,1.8,39.84,4.83,50.48,4.92Z"/>
          <path class="clean-cls-33" d="m528.16,541.7c-14.5-10.43-23.95-20.78-32.01-36.93,4.57-1.35,6.6-12.17,15.39-18.47,22.17-15.87,74.45,4.49,51.09,36.32-8.31,11.32-23.21,12.17-34.47,19.08Z"/>
          <path class="clean-cls-33" d="m726.38,509.69c-8.14,18.42-17.43,26.07-34.47,35.7-6.86-8.75-17.67-3.04-24.62-20.31-7.21-17.91,2.3-40.06,22.78-42.47,27.03-3.18,30.12,21.02,36.32,27.09Z"/>
          <g>
            <path class="clean-cls-36" d="m734.99,482.61c-.68,9.1-3.26,20.83-6.16,29.55-1.22-.36-1.45-1.48-2.46-2.46-6.2-6.07-9.29-30.27-36.32-27.09-20.48,2.41-29.99,24.56-22.78,42.47,6.95,17.27,17.77,11.57,24.62,20.31-49.73,28.11-116.18,30.52-163.74-3.69,11.27-6.92,26.16-7.76,34.47-19.08,23.36-31.83-28.92-52.19-51.09-36.32-8.79,6.29-10.82,17.12-15.39,18.47-14-28.08-16.01-52.99-4.92-82.49,12.93-11.75,21.57-18.68,38.17-25.85.14.06.97,2.41,1.85,2.46,2.05.11,16.12-12.75,38.17-13.54,1.94-2.28-.55-3.83-.62-4.92,37.9-20.67,59.59-34.77,84.95-70.18,2-2.79,12.85-22.3,14.16-22.16,36.49,58.99,66.49,123.94,67.1,194.52Z"/>
            <path class="clean-cls-35" d="m585.41,510.92c14.77,13.93,39.36,21.96,56.63,7.39,5.86-.2-7.93,18.83-28.32,17.24-11.46-.9-29.13-11.86-28.32-24.62Z"/>
            <path class="clean-cls-3" d="m683.9,373.04c19.69-3.53,29.52,26.68,24.62,27.09-6.81-4.51-11.21-13.56-19.7-16-10.77-3.11-13.24,2.98-15.39-.62-.58-3.41,7.71-9.97,10.46-10.46Z"/>
            <path class="clean-cls-35" d="m619.88,480.15c12.72-3.78,11.21,14.44-1.23,9.85-5.26-1.94-2.16-8.84,1.23-9.85Z"/>
            <g>
              <path class="clean-cls-6" d="m550.94,427.21c27.55-5.98,24.12,43.6,6.16,48.01-27.94,6.87-23.94-44.15-6.16-48.01Z"/>
              <path class="clean-cls-1" d="m559.56,434.59c5.53-1.68,9.6,6.39,4.92,8.62-6.55,3.12-10.01-7.08-4.92-8.62Z"/>
              <path class="clean-cls-20" d="m543.55,467.83l15.39,4.31c-6.11,2.29-12.61,3.07-15.39-4.31Z"/>
            </g>
            <g>
              <path class="clean-cls-6" d="m680.21,427.21c25.94-.98,16.9,61.04-7.39,45.55-13.26-8.45-9.54-44.91,7.39-45.55Z"/>
              <path class="clean-cls-1" d="m685.13,434.59c4.68-1.16,7.94,6.64,3.69,8.62-5.52,2.57-9.57-7.16-3.69-8.62Z"/>
            </g>
          </g>
        </g>
      </g>
    </g>
  </g>
</svg>