<?xml version="1.0" encoding="UTF-8"?>
<svg xmlns="http://www.w3.org/2000/svg" xmlns:xlink="http://www.w3.org/1999/xlink" width="200px" height="200px" viewBox="0 0 200 122" version="1.1">
<defs>
<linearGradient id="linear0" gradientUnits="userSpaceOnUse" x1="568.3329" y1="139.929" x2="565.233" y2="121.489" gradientTransform="matrix(0.258065,0,0,-0.256842,17.045161,122.228538)">
<stop offset="0" style="stop-color:rgb(69.411765%,72.941176%,22.352941%);stop-opacity:1;"/>
<stop offset="1" style="stop-color:rgb(39.607843%,29.803922%,20.392157%);stop-opacity:1;"/>
</linearGradient>
<linearGradient id="linear1" gradientUnits="userSpaceOnUse" x1="380.5433" y1="323.3062" x2="479.2533" y2="463.0262" gradientTransform="matrix(0.255613,-0.0353928,-0.0355613,-0.254402,26.801987,136.555602)">
<stop offset="0" style="stop-color:rgb(33.333333%,26.666667%,0%);stop-opacity:1;"/>
<stop offset="1" style="stop-color:rgb(33.333333%,45.098039%,0%);stop-opacity:1;"/>
</linearGradient>
<filter id="alpha" filterUnits="objectBoundingBox" x="0%" y="0%" width="100%" height="100%">
  <feColorMatrix type="matrix" in="SourceGraphic" values="0 0 0 0 1 0 0 0 0 1 0 0 0 0 1 0 0 0 1 0"/>
</filter>
<mask id="mask0">
  <g filter="url(#alpha)">
<rect x="0" y="0" width="200" height="122" style="fill:rgb(0%,0%,0%);fill-opacity:0.501961;stroke:none;"/>
  </g>
</mask>
<linearGradient id="linear2" gradientUnits="userSpaceOnUse" x1="622.1848" y1="250.2418" x2="539.0748" y2="188.5718" gradientTransform="matrix(0.258065,0,0,-0.217982,3.850839,93.285977)">
<stop offset="0" style="stop-color:rgb(69.411765%,72.941176%,22.352941%);stop-opacity:1;"/>
<stop offset="1" style="stop-color:rgb(39.607843%,29.803922%,20.392157%);stop-opacity:1;"/>
</linearGradient>
<clipPath id="clip1">
  <rect x="0" y="0" width="200" height="122"/>
</clipPath>
<g id="surface5" clip-path="url(#clip1)">
<path style=" stroke:none;fill-rule:nonzero;fill:url(#linear2);" d="M 134.25 2.667969 C 133.710938 2.695312 133.140625 2.847656 132.601562 3.128906 C 131.464844 3.746094 131.621094 4.15625 132.1875 4.695312 C 132.1875 4.695312 132.1875 4.695312 132.214844 4.695312 C 135.722656 6.496094 136.417969 9.628906 133.140625 14.945312 L 133.476562 15.871094 C 133.527344 15.742188 133.605469 15.636719 133.65625 15.511719 C 133.890625 15.046875 134.121094 14.609375 134.355469 14.199219 C 134.378906 14.175781 134.378906 14.125 134.40625 14.097656 C 134.433594 14.046875 134.457031 13.996094 134.484375 13.96875 C 134.585938 13.789062 134.664062 13.636719 134.769531 13.480469 C 134.921875 13.25 135.050781 13.019531 135.207031 12.789062 C 135.257812 12.734375 135.285156 12.660156 135.308594 12.609375 C 135.359375 12.53125 135.414062 12.429688 135.492188 12.351562 C 135.492188 12.351562 135.492188 12.324219 135.515625 12.324219 C 135.566406 12.222656 135.644531 12.144531 135.695312 12.042969 C 135.695312 12.015625 135.722656 12.015625 135.722656 11.992188 C 135.773438 11.914062 135.800781 11.863281 135.851562 11.8125 C 135.851562 11.785156 135.878906 11.785156 135.878906 11.761719 C 135.929688 11.65625 136.007812 11.582031 136.082031 11.503906 C 136.082031 11.476562 136.109375 11.476562 136.109375 11.453125 C 136.136719 11.425781 136.136719 11.402344 136.160156 11.375 C 136.1875 11.347656 136.1875 11.347656 136.214844 11.324219 C 136.316406 11.195312 136.417969 11.066406 136.523438 10.9375 C 136.625 10.808594 136.730469 10.65625 136.832031 10.527344 C 136.859375 10.5 136.859375 10.476562 136.882812 10.449219 C 136.960938 10.375 137.011719 10.296875 137.089844 10.21875 C 137.140625 10.140625 137.21875 10.089844 137.269531 10.015625 C 137.398438 9.886719 137.503906 9.78125 137.605469 9.652344 C 137.734375 9.527344 137.863281 9.398438 137.992188 9.292969 C 137.992188 9.292969 137.992188 9.292969 138.019531 9.269531 C 138.277344 9.0625 138.507812 8.859375 138.742188 8.703125 C 138.792969 8.652344 138.871094 8.625 138.921875 8.601562 C 138.972656 8.550781 139.050781 8.523438 139.101562 8.5 C 139.207031 8.445312 139.308594 8.371094 139.414062 8.320312 C 139.414062 8.320312 139.4375 8.320312 139.4375 8.292969 C 139.464844 8.265625 139.515625 8.265625 139.542969 8.242188 C 139.542969 8.242188 139.566406 8.242188 139.566406 8.214844 C 139.644531 8.164062 139.75 8.140625 139.824219 8.113281 C 139.851562 5.902344 137.167969 2.539062 134.25 2.667969 Z M 141.476562 24.320312 C 141.269531 24.5 141.066406 24.707031 140.832031 24.910156 C 140.804688 24.9375 140.753906 24.960938 140.730469 25.011719 L 142.199219 24.707031 Z M 140.523438 25.167969 C 140.367188 25.296875 140.214844 25.449219 140.03125 25.628906 C 140.007812 25.65625 139.980469 25.679688 139.929688 25.707031 C 139.773438 25.859375 139.59375 26.039062 139.414062 26.21875 C 139.359375 26.273438 139.308594 26.324219 139.257812 26.375 C 139.078125 26.554688 138.921875 26.734375 138.742188 26.914062 C 138.613281 27.042969 138.507812 27.144531 138.378906 27.273438 C 138.328125 27.351562 138.25 27.402344 138.175781 27.480469 C 138.097656 27.582031 137.992188 27.660156 137.917969 27.761719 C 137.890625 27.789062 137.863281 27.8125 137.839844 27.839844 C 137.8125 27.863281 137.785156 27.890625 137.761719 27.914062 L 145.917969 50.570312 C 146.535156 50.699219 147.15625 50.800781 147.75 50.929688 C 148.289062 51.03125 148.804688 51.132812 149.347656 51.261719 C 149.398438 51.289062 149.476562 51.289062 149.527344 51.3125 L 149.140625 50.183594 L 151.359375 49.722656 L 148.472656 48.230469 L 148.160156 47.28125 L 148.265625 47.28125 L 150.507812 46.820312 L 147.621094 45.742188 L 147.414062 45.148438 L 148.238281 44.96875 L 147.15625 44.40625 L 146.640625 42.914062 L 147.800781 42.660156 L 146.277344 41.886719 L 145.734375 40.296875 L 147.230469 39.988281 L 145.269531 38.960938 L 144.78125 37.496094 L 146.742188 37.058594 L 144.160156 35.722656 L 143.773438 34.644531 L 143.824219 34.644531 L 146.070312 34.15625 L 143.078125 32.617188 L 142.769531 31.71875 L 142.972656 31.71875 L 145.21875 31.253906 L 142.226562 30.148438 L 142.121094 29.84375 L 143.15625 29.636719 L 141.785156 28.917969 L 141.347656 27.609375 L 142.691406 27.324219 L 140.910156 26.398438 Z M 156.417969 67.726562 C 155.902344 67.90625 155.359375 68.113281 154.792969 68.292969 C 154.714844 68.316406 154.640625 68.34375 154.5625 68.367188 C 154.507812 68.394531 154.484375 68.394531 154.433594 68.417969 C 153.890625 68.597656 153.347656 68.777344 152.804688 68.933594 C 152.730469 68.960938 152.675781 68.984375 152.601562 68.984375 L 155.929688 78.257812 L 153.039062 83.289062 L 157.605469 81.542969 L 158.921875 81.75 C 158.457031 81.570312 158.304688 81.363281 158.640625 81.210938 C 159.15625 80.953125 159.207031 80.542969 158.898438 80.105469 C 158.664062 79.773438 159.101562 79.644531 159.878906 79.59375 L 159.335938 79.515625 L 158.226562 76.277344 L 158.972656 76.125 L 157.992188 75.636719 L 157.453125 74.070312 L 158.507812 73.839844 L 157.117188 73.121094 L 156.546875 71.449219 L 157.941406 71.140625 L 156.109375 70.191406 L 155.566406 68.652344 L 157.425781 68.238281 Z M 160.625 79.722656 C 160.496094 79.722656 160.367188 79.722656 160.238281 79.722656 C 159.515625 79.746094 159.078125 79.875 159.285156 80.207031 C 159.542969 80.59375 159.515625 80.980469 159.078125 81.210938 C 157.863281 81.851562 164.109375 82.828125 164.109375 82.828125 C 164.109375 82.828125 164.1875 82.519531 163.851562 82.417969 C 163.492188 82.316406 163.542969 81.800781 163.671875 81.3125 C 163.722656 81.109375 163.773438 80.902344 163.851562 80.722656 L 163.621094 79.953125 C 162.742188 79.847656 161.554688 79.722656 160.625 79.722656 Z M 170.898438 81.234375 L 169.324219 81.777344 C 169.503906 82.109375 169.503906 82.417969 169.21875 82.648438 L 170.328125 83.574219 C 171.878906 83.984375 174.121094 84.34375 174.121094 84.34375 C 174.121094 84.34375 174.199219 84.035156 173.863281 83.933594 C 173.503906 83.832031 173.554688 83.316406 173.683594 82.828125 C 173.839844 82.261719 173.96875 81.75 174.304688 81.800781 C 174.640625 81.851562 174.691406 81.621094 174.691406 81.621094 C 174.691406 81.621094 172.496094 81.289062 170.898438 81.234375 Z M 164.1875 81.828125 C 164.136719 81.851562 164.109375 81.878906 164.058594 81.902344 C 163.75 82.058594 163.929688 82.261719 164.394531 82.441406 Z M 175.101562 81.929688 C 174.457031 81.957031 174.019531 82.082031 174.277344 82.46875 C 174.535156 82.855469 174.507812 83.238281 174.070312 83.46875 C 172.859375 84.113281 179.101562 85.089844 179.101562 85.089844 C 179.078125 84.550781 179.128906 84.730469 178.484375 83.933594 C 178.640625 83.367188 177.632812 83.035156 177.96875 83.085938 C 178.304688 83.136719 177.863281 82.238281 177.863281 82.238281 C 177.863281 82.238281 176.1875 81.902344 175.101562 81.929688 Z M 168.675781 81.980469 L 168.496094 82.03125 L 168.652344 82.160156 C 168.652344 82.109375 168.675781 82.058594 168.675781 82.007812 C 168.675781 82.007812 168.675781 81.980469 168.675781 81.980469 Z M 168.675781 81.980469 "/>
</g>
<linearGradient id="linear3" gradientUnits="userSpaceOnUse" x1="92.2846" y1="258.0432" x2="147.3446" y2="217.2832" gradientTransform="matrix(0.258065,0,0,-0.256842,17.045161,122.228538)">
<stop offset="0" style="stop-color:rgb(69.411765%,72.941176%,22.352941%);stop-opacity:1;"/>
<stop offset="1" style="stop-color:rgb(39.607843%,29.803922%,20.392157%);stop-opacity:1;"/>
</linearGradient>
<linearGradient id="linear4" gradientUnits="userSpaceOnUse" x1="279.504" y1="315.9568" x2="516.274" y2="167.5269" gradientTransform="matrix(0.258065,0,0,-0.256842,17.045161,122.228538)">
<stop offset="0" style="stop-color:rgb(69.411765%,72.941176%,22.352941%);stop-opacity:1;"/>
<stop offset="1" style="stop-color:rgb(39.607843%,29.803922%,20.392157%);stop-opacity:1;"/>
</linearGradient>
<linearGradient id="linear5" gradientUnits="userSpaceOnUse" x1="156.9522" y1="304.325" x2="216.3022" y2="258.335" gradientTransform="matrix(0.258065,0,0,-0.256842,17.045161,122.228538)">
<stop offset="0" style="stop-color:rgb(69.411765%,72.941176%,22.352941%);stop-opacity:1;"/>
<stop offset="1" style="stop-color:rgb(39.607843%,29.803922%,20.392157%);stop-opacity:1;"/>
</linearGradient>
<linearGradient id="linear6" gradientUnits="userSpaceOnUse" x1="622.182" y1="282.8694" x2="539.072" y2="221.1994" gradientTransform="matrix(0.258065,0,0,-0.256842,17.045161,122.228538)">
<stop offset="0" style="stop-color:rgb(69.411765%,72.941176%,22.352941%);stop-opacity:1;"/>
<stop offset="1" style="stop-color:rgb(39.607843%,29.803922%,20.392157%);stop-opacity:1;"/>
</linearGradient>
<linearGradient id="linear7" gradientUnits="userSpaceOnUse" x1="345.4937" y1="136.6202" x2="442.0237" y2="454.8002" gradientTransform="matrix(0.258065,0,0,-0.256842,17.045161,122.228538)">
<stop offset="0" style="stop-color:rgb(33.333333%,26.666667%,0%);stop-opacity:1;"/>
<stop offset="1" style="stop-color:rgb(33.333333%,45.098039%,0%);stop-opacity:1;"/>
</linearGradient>
<linearGradient id="linear8" gradientUnits="userSpaceOnUse" x1="456.257" y1="412.1544" x2="313.497" y2="147.5944" gradientTransform="matrix(0.258065,0,0,-0.256842,17.045161,122.228538)">
<stop offset="0" style="stop-color:rgb(69.411765%,72.941176%,22.352941%);stop-opacity:1;"/>
<stop offset="1" style="stop-color:rgb(39.607843%,29.803922%,20.392157%);stop-opacity:1;"/>
</linearGradient>
<radialGradient id="radial0" gradientUnits="userSpaceOnUse" cx="509.3134" cy="367.9743" fx="509.3134" fy="367.9743" r="52.895" gradientTransform="matrix(0.090529,0.0610257,0.577987,-0.849505,-150.660258,343.263515)">
<stop offset="0" style="stop-color:rgb(100%,100%,0%);stop-opacity:1;"/>
<stop offset="1" style="stop-color:rgb(100%,100%,0%);stop-opacity:0;"/>
</radialGradient>
<linearGradient id="linear9" gradientUnits="userSpaceOnUse" x1="254.2261" y1="206.4182" x2="254.8161" y2="176.3482" gradientTransform="matrix(0.258065,0,0,-0.256842,17.045161,122.228538)">
<stop offset="0" style="stop-color:rgb(69.411765%,72.941176%,22.352941%);stop-opacity:1;"/>
<stop offset="1" style="stop-color:rgb(39.607843%,29.803922%,20.392157%);stop-opacity:1;"/>
</linearGradient>
<linearGradient id="linear10" gradientUnits="userSpaceOnUse" x1="324.5534" y1="125.6082" x2="337.4635" y2="129.4982" gradientTransform="matrix(0.258065,0,0,-0.256842,17.045161,122.228538)">
<stop offset="0" style="stop-color:rgb(69.411765%,72.941176%,22.352941%);stop-opacity:1;"/>
<stop offset="1" style="stop-color:rgb(39.607843%,29.803922%,20.392157%);stop-opacity:1;"/>
</linearGradient>
<linearGradient id="linear11" gradientUnits="userSpaceOnUse" x1="344.448" y1="60.6294" x2="349.818" y2="57.2394" gradientTransform="matrix(0.258065,0,0,-0.256842,17.045161,122.228538)">
<stop offset="0" style="stop-color:rgb(69.411765%,72.941176%,22.352941%);stop-opacity:1;"/>
<stop offset="1" style="stop-color:rgb(39.607843%,29.803922%,20.392157%);stop-opacity:1;"/>
</linearGradient>
<linearGradient id="linear12" gradientUnits="userSpaceOnUse" x1="330.9826" y1="43.3673" x2="335.4626" y2="37.1973" gradientTransform="matrix(0.258065,0,0,-0.256842,17.045161,122.228538)">
<stop offset="0" style="stop-color:rgb(69.411765%,72.941176%,22.352941%);stop-opacity:1;"/>
<stop offset="1" style="stop-color:rgb(39.607843%,29.803922%,20.392157%);stop-opacity:1;"/>
</linearGradient>
<linearGradient id="linear13" gradientUnits="userSpaceOnUse" x1="190.4036" y1="171.1922" x2="184.5336" y2="160.2422" gradientTransform="matrix(0.258065,0,0,-0.256842,17.045161,122.228538)">
<stop offset="0" style="stop-color:rgb(33.333333%,26.666667%,0%);stop-opacity:1;"/>
<stop offset="1" style="stop-color:rgb(33.333333%,45.098039%,0%);stop-opacity:1;"/>
</linearGradient>
<linearGradient id="linear14" gradientUnits="userSpaceOnUse" x1="533.9579" y1="391.2472" x2="539.3279" y2="413.8272" gradientTransform="matrix(-0.150865,0.208376,0.209368,0.15015,53.793781,-91.980963)">
<stop offset="0" style="stop-color:rgb(69.411765%,72.941176%,22.352941%);stop-opacity:1;"/>
<stop offset="1" style="stop-color:rgb(39.607843%,29.803922%,20.392157%);stop-opacity:1;"/>
</linearGradient>
<linearGradient id="linear15" gradientUnits="userSpaceOnUse" x1="230.8514" y1="256.1011" x2="223.8614" y2="254.0411" gradientTransform="matrix(0.0763613,-0.245336,0.246503,0.0759996,-37.629445,119.551704)">
<stop offset="0" style="stop-color:rgb(69.411765%,72.941176%,22.352941%);stop-opacity:1;"/>
<stop offset="1" style="stop-color:rgb(39.607843%,29.803922%,20.392157%);stop-opacity:1;"/>
</linearGradient>
<linearGradient id="linear16" gradientUnits="userSpaceOnUse" x1="454.9034" y1="122.7831" x2="446.8634" y2="119.1931" gradientTransform="matrix(-0.247303,-0.0733798,0.073729,-0.246132,130.139974,150.489003)">
<stop offset="0" style="stop-color:rgb(69.411765%,72.941176%,22.352941%);stop-opacity:1;"/>
<stop offset="1" style="stop-color:rgb(39.607843%,29.803922%,20.392157%);stop-opacity:1;"/>
</linearGradient>
<linearGradient id="linear17" gradientUnits="userSpaceOnUse" x1="557.4516" y1="83.4764" x2="563.4716" y2="78.6965" gradientTransform="matrix(0.114271,0.230285,0.231381,-0.11373,-66.020026,-22.491843)">
<stop offset="0" style="stop-color:rgb(69.411765%,72.941176%,22.352941%);stop-opacity:1;"/>
<stop offset="1" style="stop-color:rgb(39.607843%,29.803922%,20.392157%);stop-opacity:1;"/>
</linearGradient>
<linearGradient id="linear18" gradientUnits="userSpaceOnUse" x1="545.2258" y1="64.648" x2="549.7058" y2="58.478" gradientTransform="matrix(0.114271,0.230285,0.231381,-0.11373,-66.020026,-22.491843)">
<stop offset="0" style="stop-color:rgb(69.411765%,72.941176%,22.352941%);stop-opacity:1;"/>
<stop offset="1" style="stop-color:rgb(39.607843%,29.803922%,20.392157%);stop-opacity:1;"/>
</linearGradient>
<linearGradient id="linear19" gradientUnits="userSpaceOnUse" x1="459.8467" y1="111.7125" x2="451.8067" y2="108.1225" gradientTransform="matrix(-0.247303,-0.0733798,0.073729,-0.246132,137.130942,131.941408)">
<stop offset="0" style="stop-color:rgb(69.411765%,72.941176%,22.352941%);stop-opacity:1;"/>
<stop offset="1" style="stop-color:rgb(39.607843%,29.803922%,20.392157%);stop-opacity:1;"/>
</linearGradient>
<linearGradient id="linear20" gradientUnits="userSpaceOnUse" x1="557.4525" y1="83.4776" x2="563.4725" y2="78.6976" gradientTransform="matrix(0.114271,0.230285,0.231381,-0.11373,-59.031639,-41.040338)">
<stop offset="0" style="stop-color:rgb(69.411765%,72.941176%,22.352941%);stop-opacity:1;"/>
<stop offset="1" style="stop-color:rgb(39.607843%,29.803922%,20.392157%);stop-opacity:1;"/>
</linearGradient>
<linearGradient id="linear21" gradientUnits="userSpaceOnUse" x1="545.2263" y1="64.6484" x2="549.7063" y2="58.4783" gradientTransform="matrix(0.114271,0.230285,0.231381,-0.11373,-59.031639,-41.040338)">
<stop offset="0" style="stop-color:rgb(69.411765%,72.941176%,22.352941%);stop-opacity:1;"/>
<stop offset="1" style="stop-color:rgb(39.607843%,29.803922%,20.392157%);stop-opacity:1;"/>
</linearGradient>
<linearGradient id="linear22" gradientUnits="userSpaceOnUse" x1="352.2044" y1="99.8084" x2="343.8444" y2="85.7885" gradientTransform="matrix(0.258065,0,0,-0.256842,23.064,114.241262)">
<stop offset="0" style="stop-color:rgb(69.411765%,72.941176%,22.352941%);stop-opacity:1;"/>
<stop offset="1" style="stop-color:rgb(39.607843%,29.803922%,20.392157%);stop-opacity:1;"/>
</linearGradient>
<linearGradient id="linear23" gradientUnits="userSpaceOnUse" x1="430.9242" y1="517.6928" x2="423.0642" y2="523.6328" gradientTransform="matrix(-0.174503,-0.0831655,-0.0893161,0.162504,236.446606,44.459651)">
<stop offset="0" style="stop-color:rgb(69.411765%,72.941176%,22.352941%);stop-opacity:1;"/>
<stop offset="1" style="stop-color:rgb(39.607843%,29.803922%,20.392157%);stop-opacity:1;"/>
</linearGradient>
<linearGradient id="linear24" gradientUnits="userSpaceOnUse" x1="672.2701" y1="321.011" x2="676.1301" y2="315.741" gradientTransform="matrix(-0.0223775,0.19127,-0.185755,-0.0114788,192.971071,-33.887234)">
<stop offset="0" style="stop-color:rgb(69.411765%,72.941176%,22.352941%);stop-opacity:1;"/>
<stop offset="1" style="stop-color:rgb(39.607843%,29.803922%,20.392157%);stop-opacity:1;"/>
</linearGradient>
<linearGradient id="linear25" gradientUnits="userSpaceOnUse" x1="250.975" y1="269.1634" x2="534.535" y2="269.1634" gradientTransform="matrix(0.258065,0,0,-0.256842,17.045161,122.228538)">
<stop offset="0" style="stop-color:rgb(64.313725%,94.901961%,0%);stop-opacity:1;"/>
<stop offset="1" style="stop-color:rgb(64.313725%,94.901961%,0%);stop-opacity:0;"/>
</linearGradient>
<linearGradient id="linear26" gradientUnits="userSpaceOnUse" x1="233.535" y1="261.9363" x2="416.155" y2="261.9363" gradientTransform="matrix(0.258065,0,0,-0.256842,17.045161,122.228538)">
<stop offset="0" style="stop-color:rgb(64.313725%,94.901961%,0%);stop-opacity:1;"/>
<stop offset="1" style="stop-color:rgb(64.313725%,94.901961%,0%);stop-opacity:0;"/>
</linearGradient>
<linearGradient id="linear27" gradientUnits="userSpaceOnUse" x1="170.4767" y1="348.9474" x2="-29.4505" y2="259.9673" gradientTransform="matrix(0.258065,0,0,-0.256842,17.045161,122.228538)">
<stop offset="0" style="stop-color:rgb(33.333333%,26.666667%,0%);stop-opacity:1;"/>
<stop offset="1" style="stop-color:rgb(33.333333%,45.098039%,0%);stop-opacity:1;"/>
</linearGradient>
<linearGradient id="linear28" gradientUnits="userSpaceOnUse" x1="0.6681" y1="323.8354" x2="79.6891" y2="335.4054" gradientTransform="matrix(0.258065,0,0,-0.256842,17.045161,122.228538)">
<stop offset="0" style="stop-color:rgb(69.411765%,72.941176%,22.352941%);stop-opacity:1;"/>
<stop offset="1" style="stop-color:rgb(39.607843%,29.803922%,20.392157%);stop-opacity:1;"/>
</linearGradient>
</defs>
<g id="surface1">
<path style=" stroke:none;fill-rule:nonzero;fill:rgb(42.352941%,36.470588%,32.54902%);fill-opacity:1;" d="M 39.222656 77.566406 C 38.886719 77.566406 38.550781 77.644531 38.269531 77.746094 C 36.460938 78.414062 28.125 79.441406 26.34375 80.210938 C 24.640625 80.957031 15.042969 78.746094 15.042969 78.746094 C 15.042969 78.746094 24.152344 84.191406 27.195312 83.34375 C 29.675781 82.652344 36.253906 79.339844 39.144531 79.800781 C 43.945312 80.570312 48.101562 84.191406 52.4375 87.222656 C 51.015625 87.429688 49.675781 87.632812 48.4375 87.863281 C 42.886719 85.785156 36.359375 83.753906 33.933594 84.628906 C 32.125 85.296875 25.699219 97.753906 23.945312 98.523438 C 22.242188 99.269531 7.609375 98.730469 7.609375 98.730469 C 7.609375 98.730469 21.75 102.503906 24.796875 101.65625 C 27.273438 100.964844 31.945312 86.246094 34.835938 86.710938 C 37.234375 87.09375 39.480469 88.199219 41.648438 89.585938 C 38.011719 90.871094 36.460938 92.4375 37.519531 94.285156 C 40.953125 100.21875 58.628906 100.914062 53.027344 98.0625 C 51.453125 97.265625 51.195312 96.777344 51.894531 96.496094 C 53.90625 97.574219 56.023438 98.320312 58.320312 98.445312 C 61.363281 98.601562 66.214844 97.035156 67.066406 96.75 C 72.71875 97.113281 79.066406 97.472656 84.847656 97.472656 C 93.75 97.472656 103.53125 97.90625 113.132812 98.445312 C 110.371094 99.0625 108.125 99.707031 107.378906 100.347656 C 106.34375 101.222656 109.027344 108.925781 108.101562 109.824219 C 107.660156 110.261719 103.453125 112.546875 102.578125 113.960938 C 101.726562 115.371094 103.53125 115.964844 103.53125 115.964844 C 103.53125 115.964844 108.539062 112.085938 110.449219 110.722656 C 111.996094 109.621094 106.757812 101.707031 109.363281 100.964844 C 115.222656 99.269531 123.300781 100.296875 130.035156 99.5 C 132.460938 99.652344 134.835938 99.808594 137.132812 99.9375 C 138.085938 100.527344 139.121094 101.09375 140.074219 101.453125 C 147.402344 104.125 158.449219 101.914062 165.933594 104.046875 C 168.511719 104.792969 179.042969 102.738281 180.589844 103.867188 C 182.5 105.226562 192.304688 104.484375 192.304688 104.484375 C 192.304688 104.484375 191.09375 103.019531 190.242188 101.605469 C 189.390625 100.195312 178.9375 101.375 178.472656 100.9375 C 177.546875 100.015625 175.273438 101.65625 174.242188 100.785156 C 173.363281 100.039062 169.726562 99.578125 165.289062 99.269531 C 165.417969 99.113281 165.46875 98.960938 165.46875 98.78125 C 165.46875 96.085938 153.90625 92.257812 137.90625 89.328125 C 147.945312 88.351562 159.84375 84.421875 161.3125 84.601562 C 163.917969 84.9375 175.121094 85.9375 175.121094 85.9375 C 175.121094 85.9375 179.867188 85.449219 179.015625 84.011719 C 178.164062 82.601562 167.714844 83.78125 167.273438 83.34375 C 166.34375 82.445312 157.878906 81.394531 156.824219 80.519531 C 154.214844 78.335938 125.933594 87.121094 125.933594 87.121094 L 114.835938 86.042969 C 114.835938 86.042969 114.964844 86.144531 114.992188 86.171875 C 107.660156 85.476562 100.125 85.066406 92.796875 85.066406 C 78.140625 85.066406 65.210938 85.65625 55.507812 86.785156 C 54.472656 85.964844 44.125 77.4375 39.222656 77.566406 Z M 39.222656 77.566406 "/>
<path style=" stroke:none;fill-rule:nonzero;fill:rgb(0%,0%,0%);fill-opacity:1;" d="M 104.316406 0.664062 C 102.972656 0.894531 73.527344 24.757812 41.554688 32.746094 C 19 38.367188 13.8125 50.492188 37.347656 56.066406 C 37.089844 57.582031 37.089844 59.328125 37.425781 61.304688 C 37.527344 61.84375 37.65625 62.410156 37.8125 62.949219 C 35.15625 66.492188 31.128906 72.582031 30.664062 73.015625 L 29.503906 73.554688 L 29.785156 74.457031 C 29.734375 74.507812 29.65625 74.558594 29.605469 74.609375 L 28.703125 74.429688 L 28.960938 75.175781 C 28.910156 75.226562 28.859375 75.25 28.804688 75.304688 L 28.160156 75.175781 L 28.367188 75.714844 C 27.542969 76.457031 27 77.230469 26.714844 77.871094 C 26.714844 77.871094 26.714844 77.871094 26.691406 77.871094 C 24.625 77.332031 23.101562 78.179688 20.804688 77.769531 C 20.574219 77.71875 20.394531 77.769531 20.238281 77.871094 C 18.175781 77.152344 17.347656 76.945312 14.949219 76.277344 C 13.96875 75.996094 13.8125 77.101562 13.8125 77.101562 C 13.8125 77.101562 14.328125 81.082031 14.484375 80.464844 C 15.386719 77.101562 18.25 81.132812 20.882812 81.003906 C 21.066406 81.003906 21.140625 80.902344 21.140625 80.773438 C 23.4375 81.261719 26.820312 81.722656 27.644531 79.773438 C 27.644531 79.773438 27.644531 79.746094 27.644531 79.746094 C 28.417969 79.824219 29.21875 79.207031 29.21875 79.207031 C 29.21875 79.207031 35.207031 71.527344 39.078125 66.160156 C 42.457031 73.144531 49.761719 79.078125 54.070312 78.332031 C 54.226562 78.308594 54.378906 78.257812 54.535156 78.230469 C 52.988281 80.542969 51.050781 82.929688 49.65625 84.960938 C 49.324219 84.910156 48.804688 85.0625 48.625 85.292969 C 48.417969 85.472656 47.695312 85.960938 46.820312 85.421875 C 43.4375 83.316406 41.8125 81.441406 41.296875 80.902344 L 40.78125 79.722656 L 39.878906 80.003906 C 39.824219 79.953125 39.773438 79.875 39.722656 79.824219 L 39.902344 78.925781 L 39.15625 79.179688 C 39.101562 79.128906 39.078125 79.078125 39.027344 79.027344 L 39.179688 78.386719 L 38.640625 78.566406 C 37.605469 76.894531 35.359375 76.332031 34.871094 76.5625 C 34.664062 76.664062 34.535156 76.792969 34.433594 76.921875 C 33.296875 76.820312 33.65625 78.511719 31.980469 80.515625 C 29.398438 83.546875 24.394531 91.203125 23.878906 91.742188 L 22.714844 92.28125 L 23 93.179688 C 22.949219 93.230469 22.871094 93.28125 22.820312 93.332031 L 21.917969 93.152344 L 22.175781 93.898438 C 22.121094 93.949219 22.070312 93.976562 22.019531 94.027344 L 21.375 93.898438 L 21.582031 94.4375 C 20.265625 95.464844 19.644531 96.183594 19.386719 96.671875 C 19.386719 96.542969 19.335938 96.46875 19.207031 96.414062 C 17.140625 95.875 16.601562 96.851562 14.304688 96.441406 C 14.097656 96.414062 13.917969 96.46875 13.734375 96.542969 C 11.75 95.980469 10.5625 95.492188 8.109375 94.796875 C 7.128906 94.515625 6.792969 95.695312 6.792969 95.695312 C 6.792969 95.695312 7.4375 99.703125 7.542969 99.085938 C 8.058594 96.183594 11.851562 99.882812 14.070312 99.472656 C 14.121094 99.472656 14.121094 99.421875 14.121094 99.367188 C 16.289062 99.675781 19.335938 100.34375 20.289062 98.753906 C 20.34375 98.675781 20.34375 98.597656 20.316406 98.523438 C 21.21875 98.597656 22.277344 97.496094 22.277344 97.496094 C 22.277344 97.496094 30.484375 86.679688 33.992188 81.621094 C 34.84375 80.386719 35.386719 80.929688 35.824219 79.953125 C 36.214844 80.261719 42.121094 84.804688 46.5625 88.632812 C 47.773438 89.660156 47.257812 92.023438 49.503906 90.917969 C 51.851562 91.507812 54.640625 86.066406 60.238281 83.46875 C 61.941406 82.675781 63.335938 81.621094 64.445312 80.464844 C 66.097656 80.441406 67.515625 79.464844 68.160156 78.050781 C 68.832031 79.902344 70.40625 81.492188 73.734375 81.671875 C 78.972656 81.929688 80.1875 79.027344 80.546875 79.773438 C 80.910156 80.542969 82.40625 82.519531 86.097656 83.136719 C 87.464844 83.238281 88.394531 83.34375 89.066406 83.367188 C 89.425781 83.675781 89.839844 83.957031 90.277344 84.191406 C 90.898438 84.496094 91.542969 84.703125 92.1875 84.78125 C 94.148438 86.011719 96.496094 86.011719 99.027344 84.984375 C 101.734375 92.613281 105.632812 103.195312 105.632812 103.195312 C 105.632812 103.195312 105.941406 103.710938 106.378906 104.25 C 105.117188 105.816406 105.582031 107.28125 104.238281 109.101562 C 104.1875 109.179688 104.136719 109.464844 104.109375 109.539062 C 102.484375 111.132812 101.761719 111.773438 100.082031 113.648438 C 99.386719 114.421875 100.703125 115.472656 100.703125 115.472656 C 100.703125 115.472656 104.546875 116.398438 104.007812 116.039062 C 101.039062 113.878906 106.898438 112.929688 107.179688 110.183594 C 108.160156 108.023438 110.378906 105.816406 109.347656 104.222656 C 109.269531 104.09375 109.140625 104.09375 108.960938 104.171875 C 108.910156 103.296875 108.496094 102.015625 107.695312 100.988281 L 107.902344 100.398438 L 107.207031 100.113281 C 107.179688 100.0625 107.773438 99.445312 107.773438 99.445312 L 106.664062 99.136719 C 107.027344 98.90625 107.207031 98.46875 107.207031 98.46875 L 106.304688 97.648438 C 106.046875 97.1875 103.644531 89.867188 101.65625 84.214844 C 102.792969 85.757812 104.316406 87.195312 106.613281 87.863281 C 107.386719 88.09375 108.160156 88.144531 108.882812 88.144531 C 110.304688 91.894531 112.109375 95.3125 112.109375 95.3125 C 112.109375 95.3125 113.195312 97.597656 114.40625 96.621094 C 115.773438 97.210938 115.980469 94.953125 117.554688 94.230469 C 117.632812 94.207031 117.683594 94.15625 117.734375 94.128906 C 117.8125 94.179688 117.890625 94.207031 117.992188 94.15625 C 119.566406 93.617188 120.03125 90.40625 122.199219 91.5625 C 122.613281 91.765625 121.269531 90.121094 121.269531 90.121094 C 121.269531 90.121094 121.117188 90.046875 120.910156 89.96875 C 122.175781 90.148438 123.515625 90.226562 124.882812 90.175781 C 127.566406 90.070312 127.128906 88.992188 129.066406 90.457031 C 131.953125 91.328125 135.386719 90.046875 136.625 90.480469 C 137.917969 92.820312 140.496094 92.125 142.433594 91.945312 C 143.078125 92.152344 144.882812 90.175781 146.355469 91.125 C 146.949219 91.40625 149.476562 91.535156 150.640625 91.433594 C 150.640625 91.433594 152.1875 91.871094 153.011719 90.738281 C 153.527344 90.917969 154.121094 91.046875 154.714844 91.175781 C 158.378906 91.816406 164.882812 92.589844 167.671875 92.921875 L 168.703125 96.261719 L 165.839844 102.734375 L 170.972656 100.910156 L 174.199219 101.371094 C 174.898438 101.628906 180.289062 102.425781 180.289062 102.425781 C 181.140625 102.527344 185.632812 103.503906 185.632812 103.503906 C 186.40625 103.660156 188.265625 103.964844 188.265625 103.964844 C 189.140625 104.09375 192.34375 104.738281 192.34375 104.738281 C 192.316406 104.09375 193.089844 104.171875 192.394531 103.222656 C 192.546875 102.554688 191.414062 101.859375 191.773438 101.9375 C 192.109375 102.015625 191.515625 101.269531 191.515625 101.269531 C 191.515625 101.269531 191.644531 100.679688 191.207031 100.550781 C 190.769531 100.421875 188.832031 100.292969 188.832031 100.292969 C 188.832031 100.292969 188.058594 99.675781 186.328125 99.703125 L 185.066406 99.601562 C 185.347656 99.601562 185.425781 99.316406 185.425781 99.316406 C 185.425781 99.316406 182.898438 98.882812 181.582031 98.90625 C 181.453125 98.90625 179.75 98.777344 179.75 98.777344 C 180.058594 98.777344 180.109375 98.496094 180.109375 98.496094 C 180.109375 98.496094 177.039062 97.980469 176.007812 97.929688 C 175.824219 97.929688 172.933594 97.570312 172.933594 97.570312 L 172.136719 94.410156 L 172.523438 93.871094 L 171.695312 93.023438 L 171.644531 92.769531 C 173.011719 92.230469 173.917969 91.253906 173.140625 90.636719 C 172.523438 90.148438 171.773438 89.96875 170.820312 89.839844 L 170.640625 88.582031 L 171.953125 88.222656 L 169.863281 86.476562 L 169.683594 85.34375 L 171.464844 84.652344 L 170.972656 84.242188 C 171.566406 84.34375 172.417969 84.496094 172.417969 84.496094 C 173.195312 84.625 175.050781 84.882812 175.050781 84.882812 C 175.929688 84.984375 179.128906 85.550781 179.128906 85.550781 C 179.101562 85.011719 179.878906 85.0625 179.179688 84.265625 C 179.335938 83.703125 178.199219 83.109375 178.5625 83.1875 C 178.898438 83.238281 178.304688 82.621094 178.304688 82.621094 C 178.304688 82.621094 178.433594 82.109375 177.992188 82.007812 C 177.527344 81.902344 175.621094 81.800781 175.621094 81.800781 C 175.621094 81.800781 174.84375 81.289062 173.117188 81.289062 L 171.851562 81.210938 C 172.136719 81.210938 172.214844 80.980469 172.214844 80.980469 C 172.214844 80.980469 171.15625 80.824219 170.046875 80.722656 L 167.59375 78.796875 L 169.863281 77.792969 L 167.644531 76.433594 L 166.769531 75.945312 L 167.4375 75.457031 L 166.5625 74.609375 L 166.019531 73.121094 L 167.15625 72.863281 L 165.453125 71.527344 L 165.011719 70.167969 L 166.507812 69.804688 L 164.472656 68.035156 L 163.980469 66.851562 L 166.585938 66.417969 L 164.265625 64.566406 C 166.714844 63.179688 168.058594 61.820312 168.007812 60.664062 C 167.878906 58.324219 165.21875 56.375 160.988281 54.730469 L 161.917969 54.523438 L 160.472656 53.113281 L 159.75 51.777344 L 161.347656 51.390625 L 159.414062 49.644531 L 159.078125 48.539062 L 161.167969 48.050781 L 158.226562 45.84375 L 157.917969 45.277344 L 157.96875 45.277344 L 160.367188 44.714844 L 157.066406 42.144531 L 156.882812 41.734375 L 157.089844 41.734375 L 159.464844 41.167969 L 156.523438 39.421875 L 157.425781 38.78125 L 155.671875 37.753906 L 155.464844 36.929688 L 156.910156 36.597656 L 154.769531 34.746094 L 154.484375 33.875 L 156.289062 33.464844 L 153.683594 31.28125 L 153.375 30.636719 L 155.695312 30.097656 L 152.523438 27.480469 L 152.238281 27.195312 L 152.523438 27.195312 L 155.101562 26.527344 L 151.75 24.0625 L 154.507812 23.496094 L 150.25 20.210938 L 150.019531 18.308594 C 151.359375 16.769531 153.863281 16 153.863281 13.636719 C 153.863281 10.964844 150.742188 6.316406 147.59375 6.496094 C 147.027344 6.519531 146.378906 6.625 145.839844 7.058594 C 144.882812 7.804688 144.34375 8.371094 144.03125 8.804688 C 142.898438 8.214844 141.785156 7.933594 140.652344 8.140625 C 140.523438 5.851562 137.453125 2.078125 134.40625 2.207031 C 133.839844 2.230469 133.195312 2.308594 132.652344 2.667969 C 132.523438 2.746094 132.417969 2.820312 132.316406 2.898438 C 132.265625 2.875 131.695312 3.488281 131.671875 3.464844 C 130.535156 2.875 129.476562 3.285156 128.523438 3.386719 C 128.417969 3.386719 128.34375 3.414062 128.238281 3.4375 C 125.425781 3.976562 122.40625 6.339844 120.007812 14.304688 C 119.179688 17.078125 115.695312 25.269531 114.691406 27.941406 C 111.773438 31.792969 108.546875 38.1875 104.753906 44.480469 C 97.917969 43.507812 91.15625 42.632812 85.21875 42.195312 C 86.199219 38.703125 85.96875 35.773438 84.214844 35.878906 C 83.851562 35.902344 83.4375 36.058594 82.972656 36.339844 C 74.691406 41.246094 42.097656 40.679688 49.683594 47.640625 C 48.730469 47.382812 47.695312 47.332031 46.5625 47.539062 C 43.671875 48.050781 40.78125 49.542969 38.972656 52.238281 C 27.257812 49.257812 20.136719 42.582031 51.464844 35.339844 C 83.644531 27.890625 107.207031 8.421875 108.882812 6.625 C 109.066406 6.445312 109.089844 6.367188 109.011719 6.367188 C 107.671875 6.570312 78.226562 27.582031 46.25 34.621094 C 26.949219 38.855469 20.367188 47.28125 33.605469 52.699219 C 22.328125 49.234375 16.109375 41.785156 46.792969 33.71875 C 79 25.246094 102.535156 3.15625 104.214844 1.128906 C 104.367188 0.742188 104.417969 0.664062 104.316406 0.664062 Z M 132.472656 15.820312 L 132.910156 17.027344 C 132.574219 17.746094 132.214844 18.488281 131.851562 19.285156 C 130.664062 21.984375 126.433594 29.328125 125.066406 31.898438 C 123.027344 33.925781 120.601562 36.648438 117.992188 39.628906 C 119.285156 36.957031 120.472656 34.492188 121.296875 32.382812 C 123.078125 29.609375 127.285156 22.265625 129.605469 19.59375 C 130.714844 18.257812 131.671875 17 132.472656 15.820312 Z M 145.039062 20.59375 L 155.050781 52.625 C 154.046875 52.339844 152.960938 52.085938 151.878906 51.828125 L 150.742188 51.058594 L 150.328125 50.363281 L 152.472656 49.902344 L 149.582031 47.921875 L 149.117188 47.5625 L 149.21875 47.5625 L 151.621094 47.101562 L 148.652344 45.40625 L 148.445312 44.816406 L 149.347656 44.636719 L 148.1875 44.070312 L 147.464844 42.992188 L 148.703125 42.734375 L 147.257812 41.554688 L 146.535156 40.425781 L 148.136719 40.117188 L 146.175781 38.625 L 145.839844 37.675781 L 147.929688 37.238281 L 144.988281 35.363281 L 144.675781 34.902344 L 144.730469 34.902344 L 147.128906 34.414062 L 143.824219 32.230469 L 143.644531 31.898438 L 143.851562 31.898438 L 146.25 31.433594 L 143.308594 29.96875 L 144.214844 29.40625 L 142.457031 28.53125 L 142.25 27.839844 L 143.695312 27.554688 L 141.554688 25.988281 L 141.269531 25.246094 L 143.078125 24.886719 L 141.8125 23.984375 C 143.101562 22.777344 144.160156 21.648438 145.039062 20.59375 Z M 137.195312 28.609375 L 145.246094 50.441406 C 138.640625 49.207031 131.285156 48.128906 124.082031 47.101562 C 126.148438 43.429688 128.136719 40.117188 129.683594 37.316406 C 131.128906 35.59375 134.40625 31.691406 137.195312 28.609375 Z M 159.4375 66.597656 L 163.515625 79.644531 C 163.207031 79.617188 162.921875 79.59375 162.742188 79.59375 C 162.5625 79.59375 159.671875 79.285156 159.671875 79.285156 L 158.871094 76.613281 L 159.257812 76.152344 L 158.433594 75.429688 L 158.175781 74.402344 L 158.949219 73.917969 L 157.582031 72.835938 L 157.398438 71.707031 L 158.714844 71.398438 L 156.625 69.910156 L 156.445312 68.960938 L 158.226562 68.367188 L 157.011719 67.519531 C 157.863281 67.210938 158.691406 66.902344 159.4375 66.597656 Z M 152.136719 69.140625 L 155.464844 78.179688 L 154.175781 80.621094 C 154.019531 80.363281 153.710938 79.875 152.832031 78.539062 C 152.882812 75.328125 148.03125 73.609375 147.929688 72.222656 C 147.902344 71.785156 147.722656 71.140625 147.386719 70.472656 C 149.039062 70.0625 150.613281 69.601562 152.136719 69.140625 Z M 157.734375 82.109375 L 160.960938 82.496094 C 161.347656 82.621094 163.027344 82.855469 164.601562 83.058594 L 166.457031 89.019531 C 165.65625 88.8125 164.78125 88.53125 163.851562 88.121094 C 163.851562 88.121094 161.605469 86.476562 156.652344 84.472656 C 156.832031 83.703125 156.753906 82.984375 156.082031 82.597656 Z M 113.96875 86.988281 C 114.199219 86.988281 114.378906 87.039062 114.484375 87.195312 C 115.515625 88.351562 117.503906 89.222656 119.929688 89.6875 C 119.800781 89.710938 119.671875 89.761719 119.59375 89.839844 C 118.070312 91.023438 118.585938 90.558594 117.296875 91.792969 L 116.78125 92.28125 C 116.753906 92.304688 116.753906 92.332031 116.730469 92.332031 C 116.601562 92.304688 116.445312 92.304688 116.34375 92.355469 C 115.101562 93 114.070312 92.664062 113.941406 93.308594 C 113.839844 93.101562 113.710938 92.871094 113.582031 92.664062 L 113.917969 92.203125 L 113.246094 92.152344 C 113.21875 92.101562 113.167969 92.050781 113.140625 91.972656 L 113.605469 91.328125 L 112.675781 91.253906 C 112.625 91.175781 112.601562 91.125 112.546875 91.046875 L 113.066406 90.277344 L 112.082031 89.429688 C 112.007812 89.300781 111.695312 88.582031 111.359375 87.632812 C 112.496094 87.324219 113.398438 86.988281 113.96875 86.988281 Z M 19.179688 97.441406 C 19.207031 97.519531 19.230469 97.597656 19.285156 97.675781 C 19.257812 97.648438 19.257812 97.648438 19.230469 97.621094 C 19.207031 97.570312 19.179688 97.496094 19.179688 97.441406 Z M 19.179688 97.441406 "/>
<path style=" stroke:none;fill-rule:nonzero;fill:url(#linear0);" d="M 156.445312 84.933594 C 156.058594 86.527344 154.769531 88.632812 153.347656 90.019531 C 153.761719 90.097656 154.175781 90.175781 154.640625 90.25 C 158.121094 90.84375 164.367188 91.585938 167.4375 91.945312 L 166.769531 89.761719 C 165.65625 89.609375 164.417969 89.300781 163 88.683594 C 162.972656 88.683594 161.167969 86.914062 156.445312 84.933594 Z M 170.972656 90.097656 L 172.1875 90.816406 L 171.101562 91.535156 L 171.257812 92.152344 C 172.472656 91.945312 173.066406 91.304688 172.238281 90.664062 C 171.851562 90.355469 171.4375 90.199219 170.972656 90.097656 Z M 170.972656 90.097656 "/>
<path style=" stroke:none;fill-rule:nonzero;fill:url(#linear1);" d="M 128.417969 4.3125 C 128.007812 4.3125 127.542969 4.363281 127 4.441406 C 124.832031 4.75 122.613281 8.421875 120.214844 16.382812 C 119.386719 19.15625 116.160156 27.09375 115.15625 29.765625 C 112.417969 33.359375 108.988281 38.753906 105.195312 44.355469 C 107.644531 44.660156 110.226562 44.996094 112.832031 45.355469 C 113.761719 44.355469 114.691406 43.351562 115.59375 42.425781 C 116.910156 39.140625 118.175781 36.132812 119.15625 33.59375 C 120.933594 30.816406 125.683594 23.191406 127.980469 20.542969 C 135.464844 11.890625 135.671875 7.238281 131.101562 4.929688 C 130.355469 4.515625 129.632812 4.285156 128.417969 4.3125 Z M 128.417969 4.3125 "/>
<use xlink:href="#surface5" mask="url(#mask0)"/>
<path style=" stroke:none;fill-rule:nonzero;fill:url(#linear3);" d="M 47.953125 48.335938 C 47.515625 48.335938 47.078125 48.386719 46.613281 48.464844 C 41.734375 49.3125 36.730469 53.265625 38.175781 61.433594 C 39.621094 69.601562 48.675781 78.027344 53.582031 77.152344 C 58.457031 76.304688 57.554688 67.777344 56.109375 59.609375 C 54.820312 52.214844 52.082031 48.359375 47.953125 48.335938 Z M 47.953125 48.335938 "/>
<path style=" stroke:none;fill-rule:nonzero;fill:rgb(0%,0%,0%);fill-opacity:1;" d="M 53.347656 60.894531 C 54.226562 65.082031 52.960938 68.90625 50.507812 69.394531 C 48.082031 69.882812 45.398438 66.902344 44.546875 62.691406 C 43.671875 58.503906 44.933594 54.679688 47.386719 54.191406 C 49.8125 53.703125 52.496094 56.683594 53.347656 60.894531 Z M 53.347656 60.894531 "/>
<path style=" stroke:none;fill-rule:nonzero;fill:rgb(55.686275%,65.490196%,18.431373%);fill-opacity:1;" d="M 73.527344 46.871094 C 70.871094 46.871094 68.753906 49.003906 68.730469 51.648438 L 68.730469 52.984375 C 68.910156 52.804688 69.089844 52.625 69.269531 52.445312 C 69.398438 50.339844 70.972656 48.464844 73.734375 46.871094 Z M 72.472656 60.738281 C 72.316406 62.28125 72.1875 63.746094 72.1875 65.003906 C 72.1875 66.417969 72.03125 67.726562 71.722656 68.832031 C 72.652344 68.574219 73.65625 68.417969 74.714844 68.417969 C 76.652344 68.394531 78.714844 68.832031 80.496094 69.832031 C 80.546875 69.859375 80.574219 69.882812 80.625 69.882812 L 80.625 69.5 L 80.652344 69.910156 C 82.097656 70.679688 83.878906 71.195312 85.710938 71.554688 C 79.492188 68.523438 75.128906 64.515625 72.472656 60.738281 Z M 70.175781 69.421875 C 70.046875 69.472656 69.941406 69.550781 69.8125 69.601562 C 69.941406 69.550781 70.070312 69.472656 70.175781 69.421875 Z M 69.140625 70.011719 C 69.039062 70.089844 68.933594 70.167969 68.859375 70.242188 C 68.960938 70.167969 69.039062 70.089844 69.140625 70.011719 Z M 145.554688 72.222656 C 142.046875 73.121094 138.328125 73.890625 134.457031 74.53125 C 133.941406 78.640625 132.988281 83.882812 131.492188 84.910156 C 124.78125 89.53125 131.542969 89.839844 133.683594 89.378906 C 134.535156 89.53125 140.007812 86.398438 141.117188 83.574219 L 145.453125 72.476562 C 145.476562 72.375 145.527344 72.296875 145.554688 72.222656 Z M 146.046875 72.347656 C 145.761719 72.375 145.527344 72.683594 145.324219 73.375 C 145.324219 73.375 141.8125 85.550781 139.542969 86.757812 C 133.476562 89.96875 139.621094 91.148438 141.425781 90.945312 C 142.121094 91.148438 146.972656 89.042969 148.214844 86.808594 L 151.15625 81.519531 C 152.394531 79.285156 151.878906 76.792969 149.21875 75.664062 C 147.695312 73.992188 146.742188 72.273438 146.046875 72.347656 Z M 67.179688 73.070312 C 67.179688 73.121094 67.179688 73.171875 67.179688 73.222656 C 67.179688 73.144531 67.179688 73.121094 67.179688 73.070312 Z M 133.683594 74.636719 C 129.503906 75.304688 125.21875 75.792969 120.910156 76.125 C 120.289062 78.925781 119.492188 81.289062 118.484375 81.980469 C 110.664062 87.375 120.109375 88.015625 124.675781 87.835938 C 129.21875 87.65625 132.1875 84.679688 132.703125 81.183594 Z M 68.78125 75.917969 C 69.296875 78.207031 71.257812 80.363281 73.527344 80.363281 L 75.824219 80.363281 C 77.605469 80.363281 79.15625 79.386719 79.980469 77.972656 C 78.84375 78.050781 77.8125 78.152344 76.933594 78.308594 C 73.453125 78.898438 70.507812 77.5625 68.78125 75.917969 Z M 120.058594 76.203125 C 116.417969 76.457031 112.804688 76.585938 109.269531 76.585938 C 109.246094 76.585938 109.195312 76.585938 109.167969 76.585938 C 107.59375 78.898438 105.269531 81.289062 103.230469 82.75 C 103.980469 84.085938 105.117188 85.089844 106.585938 85.5 L 108.882812 86.167969 C 112.214844 87.117188 119.027344 82.519531 119.671875 78.4375 Z M 89.21875 77.664062 C 86.613281 77.742188 83.800781 77.769531 81.269531 77.898438 C 81.890625 80.15625 84.1875 82.007812 86.535156 81.902344 L 88.832031 81.800781 C 89.375 81.777344 89.890625 81.648438 90.328125 81.492188 C 89.785156 80.414062 89.398438 79.105469 89.21875 77.664062 Z M 152.160156 79.847656 C 152.007812 79.875 151.878906 80.054688 151.75 80.464844 C 151.75 80.464844 148.78125 87.707031 147.414062 88.425781 C 143.75 90.378906 148.316406 90.738281 149.425781 90.609375 C 149.839844 90.738281 152.730469 89.917969 153.503906 88.582031 L 155.285156 85.398438 C 156.03125 84.0625 155.722656 82.546875 154.121094 81.878906 C 153.246094 80.902344 152.675781 79.902344 152.265625 79.875 C 152.214844 79.824219 152.1875 79.824219 152.160156 79.847656 Z M 152.160156 79.847656 "/>
<path style=" stroke:none;fill-rule:nonzero;fill:rgb(14.117647%,18.039216%,10.980392%);fill-opacity:0.819608;" d="M 72.058594 59.40625 L 71.980469 60.019531 C 71.824219 61.5625 71.386719 63.027344 71.386719 64.285156 C 71.386719 66.261719 71.101562 67.933594 70.585938 69.242188 C 71.335938 68.933594 72.136719 68.703125 73.011719 68.574219 C 73.347656 67.90625 73.605469 67.1875 73.839844 66.441406 C 74.664062 67.160156 75.566406 67.855469 76.496094 68.523438 C 77.785156 68.703125 79.050781 69.0625 80.238281 69.679688 L 80.289062 68.34375 L 80.316406 69.730469 C 80.394531 69.753906 80.445312 69.804688 80.523438 69.832031 C 82.972656 71.195312 86.328125 71.757812 89.476562 72.195312 C 81.039062 69.011719 75.257812 63.898438 72.058594 59.40625 Z M 146.585938 71.195312 C 146.304688 71.21875 145.527344 71.964844 145.324219 72.65625 C 145.324219 72.65625 145.269531 72.835938 145.246094 72.914062 C 145.839844 72.707031 146.457031 72.527344 147.050781 72.324219 C 146.664062 71.886719 146.871094 71.167969 146.585938 71.195312 Z M 144.265625 71.628906 C 142.535156 71.964844 138.226562 73.171875 134.355469 73.789062 C 134.25 74.480469 134.148438 75.226562 134.046875 75.972656 C 137.761719 75.125 141.398438 74.121094 144.933594 73.015625 Z M 134.121094 73.660156 C 129.917969 74.328125 124.988281 75.097656 120.675781 75.40625 C 117.246094 75.636719 113.011719 75.792969 109.582031 75.792969 C 108.34375 77.769531 106.5625 79.925781 104.730469 81.519531 C 104.753906 81.519531 104.753906 81.519531 104.78125 81.519531 C 104.78125 81.519531 105.917969 81.261719 107.929688 78.898438 C 108.03125 78.796875 108.109375 78.691406 108.214844 78.589844 C 109.296875 78.640625 110.378906 78.640625 111.515625 78.640625 C 114.121094 78.640625 116.753906 78.511719 119.414062 78.28125 C 119.464844 78.101562 120.058594 77.691406 120.214844 77.433594 C 120.136719 77.691406 120.058594 77.972656 119.980469 78.207031 C 124.417969 77.792969 128.882812 77.074219 133.269531 76.097656 Z M 89.039062 77.664062 C 89.039062 77.871094 88.417969 77.742188 88.417969 77.949219 C 88.417969 79.976562 89.011719 80.980469 90.019531 80.851562 C 90.714844 80.75 89.324219 80.207031 89.324219 78.179688 C 89.324219 78.027344 89.269531 77.820312 89.269531 77.664062 C 89.195312 77.664062 89.269531 77.664062 89.246094 77.664062 C 89.246094 77.664062 89.195312 77.664062 89.039062 77.664062 Z M 89.039062 77.664062 "/>
<path style=" stroke:none;fill-rule:nonzero;fill:url(#linear4);" d="M 85.453125 43.300781 C 83.980469 47.617188 80.316406 53.058594 75.492188 53.855469 C 73.554688 54.191406 73.089844 55.578125 72.832031 58.015625 C 75.953125 63.15625 81.605469 68.625 91.308594 71.914062 C 93.890625 66.339844 98.871094 59.765625 105.296875 53.421875 C 107.59375 51.160156 109.839844 48.746094 112.007812 46.355469 C 102.691406 45.046875 93.140625 43.738281 85.453125 43.300781 Z M 123.566406 48 C 121.195312 52.265625 118.792969 56.964844 116.910156 61.820312 C 114.949219 66.828125 112.523438 71.269531 109.941406 74.945312 C 114.097656 75.046875 118.640625 74.839844 123.644531 74.300781 C 137.425781 72.8125 151.128906 69.472656 159.308594 66.132812 L 155.359375 53.546875 C 146.871094 51.238281 134.921875 49.566406 123.566406 48 Z M 161.195312 55.5 L 161.375 55.835938 L 162.535156 56.503906 L 161.632812 56.707031 L 161.839844 57.402344 L 164.804688 59.378906 L 162.433594 59.945312 L 162.304688 59.945312 L 162.769531 60.355469 L 165.605469 62.640625 C 166.433594 61.921875 166.871094 61.226562 166.84375 60.585938 C 166.714844 58.609375 164.625 56.964844 161.195312 55.5 Z M 165.527344 62.742188 L 163.515625 63.257812 L 163.851562 63.898438 C 164.496094 63.515625 165.066406 63.128906 165.527344 62.742188 Z M 165.527344 62.742188 "/>
<path style=" stroke:none;fill-rule:nonzero;fill:url(#linear5);" d="M 82.949219 36.648438 C 82.613281 36.675781 82.226562 36.800781 81.785156 37.058594 C 73.863281 41.734375 42.40625 41.117188 50.871094 48 C 57.398438 53.292969 58.507812 68.777344 58.691406 72.347656 C 61.554688 70.039062 65.117188 69.78125 66.175781 70.886719 C 66.585938 71.320312 66.898438 71.886719 67.050781 72.503906 C 67.128906 72.476562 67.230469 72.425781 67.308594 72.402344 C 67.722656 71.066406 68.910156 69.988281 70.507812 69.320312 C 72.675781 64.308594 69.917969 54.191406 74.433594 53.421875 C 82.820312 51.90625 86.84375 36.390625 82.949219 36.648438 Z M 82.949219 36.648438 "/>
<path style=" stroke:none;fill-rule:nonzero;fill:url(#linear6);" d="M 147.4375 7.085938 C 146.898438 7.113281 146.328125 7.292969 145.785156 7.652344 C 144.753906 8.320312 144.804688 8.78125 145.246094 9.320312 C 145.296875 9.347656 145.324219 9.371094 145.375 9.398438 C 148.546875 11.605469 149.195312 14.945312 145.734375 19.644531 L 169.117188 96.132812 L 166.226562 102.039062 L 170.792969 99.984375 L 172.109375 100.242188 C 171.644531 100.011719 171.492188 99.804688 171.824219 99.601562 C 172.34375 99.316406 172.394531 98.804688 172.082031 98.289062 C 171.851562 97.90625 172.289062 97.75 173.066406 97.699219 L 172.523438 97.597656 L 171.414062 93.796875 L 172.160156 93.617188 L 171.179688 93.023438 L 170.640625 91.175781 L 171.695312 90.917969 L 170.304688 90.070312 L 169.734375 88.09375 L 171.128906 87.761719 L 169.296875 86.628906 L 168.753906 84.804688 L 170.613281 84.34375 L 168.160156 82.855469 L 167.75 81.492188 L 169.941406 80.953125 L 167.078125 79.207031 L 166.742188 78.078125 L 166.84375 78.078125 L 169.089844 77.511719 L 166.226562 76.253906 L 165.941406 75.328125 L 166.691406 75.148438 L 165.710938 74.558594 L 165.167969 72.707031 L 166.25 72.453125 L 164.859375 71.605469 L 164.289062 69.652344 L 165.710938 69.320312 L 163.851562 68.1875 L 163.308594 66.390625 L 165.195312 65.929688 L 162.742188 64.4375 L 162.328125 63.078125 L 164.546875 62.511719 L 161.65625 60.765625 L 161.347656 59.660156 L 161.453125 59.660156 L 163.695312 59.097656 L 160.804688 57.8125 L 160.601562 57.117188 L 161.425781 56.914062 L 160.34375 56.246094 L 159.824219 54.5 L 160.988281 54.214844 L 159.464844 53.292969 L 158.921875 51.441406 L 160.417969 51.082031 L 158.457031 49.875 L 157.96875 48.15625 L 159.929688 47.667969 L 157.347656 46.101562 L 156.960938 44.816406 L 157.011719 44.816406 L 159.257812 44.25 L 156.265625 42.425781 L 155.953125 41.375 L 156.160156 41.375 L 158.40625 40.808594 L 155.414062 39.5 L 155.308594 39.164062 L 156.34375 38.910156 L 154.972656 38.085938 L 154.535156 36.546875 L 155.878906 36.210938 L 154.097656 35.132812 L 153.605469 33.488281 L 155.308594 33.078125 L 153.089844 31.71875 L 152.652344 30.226562 L 154.820312 29.6875 L 151.980469 27.96875 L 151.671875 26.863281 L 151.929688 26.863281 L 154.175781 26.296875 L 150.921875 24.320312 L 150.664062 23.445312 L 151.078125 23.445312 L 153.324219 22.882812 L 149.890625 20.777344 L 149.375 19.027344 C 148.601562 16.382812 153.039062 16.023438 153.039062 13.6875 C 153.066406 10.9375 150.378906 6.933594 147.4375 7.085938 Z M 173.425781 97.855469 C 172.703125 97.878906 172.265625 98.035156 172.472656 98.417969 C 172.730469 98.882812 172.703125 99.34375 172.265625 99.601562 C 171.050781 100.34375 177.296875 101.5 177.296875 101.5 C 177.296875 101.5 177.375 101.117188 177.039062 101.039062 C 176.675781 100.9375 176.730469 100.292969 176.859375 99.753906 C 177.011719 99.085938 177.140625 98.46875 177.476562 98.546875 C 177.8125 98.625 177.863281 98.339844 177.863281 98.339844 C 177.863281 98.339844 175 97.800781 173.425781 97.855469 Z M 178.535156 98.703125 C 177.761719 98.726562 177.246094 98.882812 177.476562 99.265625 C 177.734375 99.730469 177.710938 100.164062 177.269531 100.449219 C 176.058594 101.191406 182.304688 102.347656 182.304688 102.347656 C 182.304688 102.347656 182.378906 101.964844 182.046875 101.886719 C 181.683594 101.785156 181.761719 101.140625 181.863281 100.578125 C 182.019531 99.910156 182.148438 99.292969 182.457031 99.367188 C 182.792969 99.445312 182.84375 99.164062 182.84375 99.164062 C 182.84375 99.164062 180.472656 98.726562 178.84375 98.703125 C 178.742188 98.703125 178.640625 98.703125 178.535156 98.703125 Z M 183.4375 99.652344 C 182.714844 99.675781 182.277344 99.832031 182.484375 100.214844 C 182.742188 100.679688 182.714844 101.140625 182.277344 101.398438 C 181.066406 102.144531 187.308594 103.296875 187.308594 103.296875 C 187.308594 103.296875 187.386719 102.914062 187.050781 102.835938 C 186.691406 102.734375 186.742188 102.089844 186.871094 101.550781 C 187.027344 100.882812 187.15625 100.269531 187.492188 100.34375 C 187.824219 100.421875 187.878906 100.140625 187.878906 100.140625 C 187.878906 100.140625 185.011719 99.574219 183.4375 99.652344 Z M 188.316406 100.472656 C 187.671875 100.5 187.230469 100.628906 187.492188 101.089844 C 187.75 101.550781 187.722656 102.015625 187.285156 102.269531 C 186.070312 103.015625 192.316406 104.171875 192.316406 104.171875 C 192.289062 103.554688 192.34375 103.761719 191.695312 102.835938 C 191.851562 102.167969 190.84375 101.757812 191.179688 101.835938 C 191.515625 101.910156 191.078125 100.832031 191.078125 100.832031 C 191.078125 100.832031 189.398438 100.449219 188.316406 100.472656 Z M 188.316406 100.472656 "/>
<path style=" stroke:none;fill-rule:nonzero;fill:rgb(100%,100%,100%);fill-opacity:1;" d="M 49.710938 59.277344 C 49.710938 61.101562 48.730469 62.5625 47.492188 62.5625 C 46.277344 62.5625 45.269531 61.101562 45.269531 59.277344 C 45.269531 57.453125 46.25 55.988281 47.492188 55.988281 C 48.703125 55.988281 49.710938 57.453125 49.710938 59.277344 Z M 49.710938 59.277344 "/>
<path style=" stroke:none;fill-rule:nonzero;fill:url(#linear7);" d="M 141.527344 8.601562 C 138.691406 8.730469 135.953125 12.09375 132.472656 19.621094 C 131.257812 22.238281 126.972656 29.664062 125.605469 32.179688 C 120.625 37.136719 113.425781 46.101562 105.992188 53.445312 C 99.230469 60.125 94.046875 66.902344 91.644531 72.476562 C 93.011719 72.65625 94.277344 72.863281 95.285156 73.121094 C 95.386719 72.863281 95.515625 72.632812 95.621094 72.375 L 95.695312 72.527344 C 95.824219 72.195312 95.980469 71.863281 96.160156 71.5 L 96.109375 71.425781 C 96.417969 70.832031 96.78125 70.21875 97.140625 69.574219 C 97.167969 69.523438 97.21875 69.472656 97.246094 69.394531 C 97.8125 68.367188 98.484375 67.265625 99.230469 66.132812 L 99.285156 66.238281 C 99.464844 65.953125 99.644531 65.695312 99.851562 65.414062 L 99.800781 65.3125 C 100.601562 64.105469 101.503906 62.847656 102.457031 61.5625 L 102.535156 61.742188 C 102.714844 61.484375 102.921875 61.253906 103.101562 60.996094 L 103.027344 60.792969 C 103.902344 59.636719 104.832031 58.453125 105.8125 57.273438 L 105.917969 57.503906 C 106.121094 57.273438 106.328125 57.042969 106.507812 56.785156 L 106.40625 56.527344 C 107.335938 55.421875 108.289062 54.320312 109.269531 53.214844 L 109.398438 53.472656 C 109.605469 53.242188 109.8125 52.984375 110.019531 52.753906 C 109.96875 52.675781 109.917969 52.597656 109.890625 52.519531 C 110.84375 51.441406 111.800781 50.339844 112.753906 49.207031 L 112.859375 49.4375 C 113.089844 49.15625 113.296875 48.898438 113.527344 48.617188 C 113.476562 48.566406 113.425781 48.488281 113.398438 48.410156 C 114.328125 47.308594 115.257812 46.175781 116.1875 45.074219 L 116.394531 45.484375 C 116.832031 46.382812 117.011719 47.28125 116.988281 48.078125 C 117.066406 47.769531 117.269531 47.488281 117.582031 47.257812 C 117.582031 47.179688 117.582031 47.101562 117.605469 47 C 117.839844 45.894531 119.644531 45.175781 121.632812 45.382812 L 122.019531 45.40625 C 121.785156 45.765625 121.582031 46.152344 121.347656 46.535156 L 121.375 46.535156 C 120.625 47.769531 119.902344 49.003906 119.15625 50.285156 C 118.972656 50.570312 118.820312 50.878906 118.664062 51.160156 C 118.507812 51.417969 118.378906 51.671875 118.226562 51.929688 C 117.863281 52.574219 117.527344 53.214844 117.195312 53.855469 C 117.195312 53.855469 117.167969 53.855469 117.167969 53.855469 C 117.011719 54.140625 116.859375 54.421875 116.703125 54.679688 L 116.730469 54.679688 C 116.265625 55.550781 115.824219 56.425781 115.414062 57.273438 C 115.207031 57.683594 115 58.09375 114.792969 58.503906 L 114.714844 58.503906 C 114.585938 58.789062 114.433594 59.070312 114.304688 59.328125 L 114.355469 59.328125 C 113.65625 60.636719 112.988281 61.921875 112.265625 63.15625 C 112.058594 63.539062 111.851562 63.898438 111.644531 64.285156 L 111.621094 64.285156 C 111.464844 64.542969 111.308594 64.824219 111.15625 65.082031 L 111.179688 65.082031 C 110.40625 66.417969 109.605469 67.675781 108.804688 68.882812 L 108.675781 68.882812 C 108.496094 69.164062 108.289062 69.421875 108.109375 69.679688 L 108.238281 69.703125 C 107.308594 71.066406 106.378906 72.324219 105.476562 73.453125 L 105.195312 73.429688 C 104.960938 73.683594 104.730469 73.96875 104.496094 74.222656 L 104.804688 74.25 C 103.59375 75.714844 102.40625 76.972656 101.269531 77.949219 L 100.832031 77.898438 C 100.160156 77.847656 99.566406 77.664062 99.078125 77.460938 C 99.179688 77.742188 99.285156 78.027344 99.414062 78.332031 C 99.800781 79.234375 100.417969 80.851562 101.089844 82.75 C 106.457031 79.335938 112.265625 71.140625 116.367188 60.636719 C 119.980469 51.417969 125.605469 42.582031 128.988281 36.496094 C 131.128906 34.003906 136.882812 27.09375 139.542969 24.78125 C 148.160156 17.230469 149.011719 12.660156 144.78125 9.730469 C 143.722656 9.011719 142.742188 8.601562 141.734375 8.574219 C 141.710938 8.601562 141.632812 8.601562 141.527344 8.601562 Z M 116.960938 48.515625 C 116.882812 49.078125 116.652344 49.542969 116.289062 49.796875 C 116.265625 49.925781 116.238281 50.054688 116.1875 50.15625 C 116.78125 49.976562 117.503906 49.902344 118.226562 49.953125 C 117.503906 49.59375 117.039062 49.078125 116.960938 48.515625 Z M 113.195312 50.082031 C 113.605469 50.980469 113.8125 51.878906 113.785156 52.675781 C 113.863281 52.367188 114.070312 52.085938 114.378906 51.851562 C 114.378906 51.777344 114.40625 51.699219 114.40625 51.621094 C 114.457031 51.441406 114.535156 51.261719 114.640625 51.109375 C 114.175781 50.980469 113.65625 50.621094 113.195312 50.082031 Z M 113.761719 53.113281 C 113.683594 53.675781 113.453125 54.113281 113.089844 54.371094 C 113.066406 54.5 113.039062 54.628906 112.988281 54.730469 C 113.582031 54.550781 114.277344 54.5 115.027344 54.523438 C 114.304688 54.164062 113.8125 53.652344 113.761719 53.113281 Z M 109.992188 54.703125 C 110.40625 55.578125 110.613281 56.476562 110.585938 57.246094 C 110.664062 56.9375 110.871094 56.65625 111.179688 56.425781 C 111.179688 56.347656 111.207031 56.269531 111.207031 56.195312 C 111.257812 56.015625 111.308594 55.835938 111.4375 55.679688 C 110.949219 55.550781 110.457031 55.21875 109.992188 54.703125 Z M 110.535156 57.65625 C 110.457031 58.222656 110.226562 58.683594 109.863281 58.941406 C 109.839844 59.070312 109.8125 59.199219 109.761719 59.328125 C 110.355469 59.148438 111.050781 59.070312 111.800781 59.121094 C 111.050781 58.738281 110.585938 58.199219 110.535156 57.65625 Z M 106.769531 59.277344 C 107.179688 60.148438 107.386719 61.074219 107.359375 61.84375 C 107.4375 61.535156 107.644531 61.253906 107.953125 61.023438 C 107.953125 60.945312 107.953125 60.867188 107.980469 60.792969 C 108.03125 60.613281 108.109375 60.433594 108.238281 60.277344 C 107.75 60.148438 107.230469 59.789062 106.769531 59.277344 Z M 107.335938 62.230469 C 107.257812 62.792969 107.027344 63.257812 106.664062 63.515625 C 106.640625 63.640625 106.613281 63.769531 106.5625 63.875 C 107.15625 63.695312 107.851562 63.617188 108.601562 63.667969 C 107.851562 63.308594 107.386719 62.792969 107.335938 62.230469 Z M 103.566406 63.875 C 103.980469 64.746094 104.160156 65.644531 104.136719 66.417969 C 104.214844 66.109375 104.417969 65.824219 104.730469 65.59375 C 104.730469 65.515625 104.730469 65.441406 104.753906 65.363281 C 104.804688 65.183594 104.882812 65.003906 105.011719 64.847656 C 104.546875 64.722656 104.03125 64.386719 103.566406 63.875 Z M 104.109375 66.800781 C 104.03125 67.367188 103.800781 67.828125 103.4375 68.085938 C 103.414062 68.214844 103.386719 68.34375 103.335938 68.472656 C 103.953125 68.292969 104.652344 68.214844 105.398438 68.265625 C 104.652344 67.90625 104.1875 67.367188 104.109375 66.800781 Z M 100.34375 68.417969 C 100.753906 69.292969 100.960938 70.21875 100.933594 70.988281 C 101.011719 70.679688 101.21875 70.398438 101.527344 70.167969 C 101.527344 70.089844 101.527344 70.011719 101.554688 69.933594 C 101.605469 69.753906 101.683594 69.574219 101.8125 69.421875 C 101.324219 69.292969 100.804688 68.933594 100.34375 68.417969 Z M 100.910156 71.375 C 100.832031 71.9375 100.601562 72.402344 100.238281 72.65625 C 100.214844 72.785156 100.1875 72.914062 100.136719 73.015625 C 100.730469 72.835938 101.425781 72.761719 102.175781 72.8125 C 101.425781 72.476562 100.960938 71.9375 100.910156 71.375 Z M 97.140625 73.015625 C 97.269531 73.300781 97.375 73.582031 97.453125 73.839844 C 97.554688 73.839844 97.65625 73.863281 97.761719 73.890625 C 98.046875 73.890625 98.199219 74.097656 98.328125 74.480469 C 98.378906 74.300781 98.457031 74.121094 98.5625 73.96875 C 98.121094 73.863281 97.605469 73.53125 97.140625 73.015625 Z M 94.097656 77.410156 C 92.988281 77.511719 91.671875 77.589844 90.25 77.613281 C 90.046875 80.132812 90.792969 82.136719 92.675781 83.46875 C 94.433594 84.679688 96.472656 84.804688 98.640625 84.035156 C 97.917969 82.007812 97.296875 80.183594 96.882812 78.949219 C 96.78125 78.640625 96.652344 78.4375 96.472656 78.28125 C 96.417969 78.332031 96.367188 78.359375 96.316406 78.410156 C 95.671875 78.820312 94.820312 78.511719 94.070312 77.742188 C 94.097656 77.640625 94.097656 77.539062 94.097656 77.410156 Z M 94.097656 77.410156 "/>
<path style=" stroke:none;fill-rule:nonzero;fill:url(#linear8);" d="M 139.800781 11.964844 C 138.277344 11.941406 136.753906 13.738281 133.890625 19.800781 C 132.523438 22.675781 129.324219 29.507812 126.277344 32.71875 C 122.046875 37.316406 115.050781 46.410156 108.730469 53.242188 C 101.890625 60.613281 96.703125 67.878906 94.898438 73.015625 C 95.027344 73.042969 95.179688 73.09375 95.308594 73.121094 C 95.414062 72.863281 95.515625 72.632812 95.644531 72.375 L 95.722656 72.527344 C 95.851562 72.195312 96.007812 71.863281 96.1875 71.5 L 96.136719 71.425781 C 96.445312 70.832031 96.804688 70.21875 97.167969 69.574219 C 97.195312 69.523438 97.246094 69.472656 97.269531 69.394531 C 97.839844 68.367188 98.507812 67.265625 99.257812 66.132812 L 99.308594 66.238281 C 99.492188 65.953125 99.671875 65.695312 99.878906 65.414062 L 99.824219 65.3125 C 100.625 64.105469 101.527344 62.847656 102.484375 61.5625 L 102.5625 61.742188 C 102.742188 61.484375 102.949219 61.253906 103.128906 60.996094 L 103.050781 60.792969 C 103.929688 59.636719 104.859375 58.453125 105.839844 57.273438 L 105.941406 57.503906 C 106.148438 57.273438 106.355469 57.042969 106.535156 56.785156 L 106.433594 56.527344 C 107.359375 55.421875 108.316406 54.320312 109.296875 53.214844 L 109.425781 53.472656 C 109.632812 53.242188 109.839844 52.984375 110.046875 52.753906 C 109.992188 52.675781 109.941406 52.597656 109.917969 52.519531 C 110.871094 51.441406 111.824219 50.339844 112.78125 49.207031 L 112.882812 49.4375 C 113.117188 49.15625 113.324219 48.898438 113.554688 48.617188 C 113.503906 48.566406 113.453125 48.488281 113.425781 48.410156 C 114.355469 47.308594 115.285156 46.175781 116.214844 45.074219 L 116.417969 45.484375 C 116.859375 46.382812 117.039062 47.28125 117.011719 48.078125 C 117.089844 47.769531 117.296875 47.488281 117.605469 47.257812 C 117.605469 47.179688 117.605469 47.101562 117.632812 47 C 117.863281 45.894531 119.671875 45.175781 121.65625 45.382812 L 122.046875 45.40625 C 121.8125 45.765625 121.605469 46.152344 121.375 46.535156 L 121.398438 46.535156 C 120.652344 47.769531 119.929688 49.003906 119.179688 50.285156 C 119 50.570312 118.84375 50.878906 118.691406 51.160156 C 118.535156 51.417969 118.40625 51.671875 118.25 51.929688 C 117.890625 52.574219 117.554688 53.214844 117.21875 53.855469 C 117.21875 53.855469 117.195312 53.855469 117.195312 53.855469 C 117.039062 54.140625 116.882812 54.421875 116.730469 54.679688 L 116.753906 54.679688 C 116.289062 55.550781 115.851562 56.425781 115.4375 57.273438 C 115.230469 57.683594 115.027344 58.09375 114.820312 58.503906 L 114.742188 58.503906 C 114.613281 58.789062 114.457031 59.070312 114.328125 59.328125 L 114.378906 59.328125 C 113.683594 60.636719 113.011719 61.921875 112.289062 63.15625 C 112.082031 63.539062 111.878906 63.898438 111.671875 64.285156 L 111.644531 64.285156 C 111.492188 64.542969 111.335938 64.824219 111.179688 65.082031 L 111.207031 65.082031 C 110.433594 66.417969 109.632812 67.675781 108.832031 68.882812 L 108.703125 68.882812 C 108.523438 69.164062 108.316406 69.421875 108.136719 69.679688 L 108.265625 69.703125 C 107.335938 71.066406 106.40625 72.324219 105.503906 73.453125 L 105.21875 73.429688 C 104.988281 73.683594 104.753906 73.96875 104.523438 74.222656 L 104.832031 74.25 C 103.621094 75.714844 102.433594 76.972656 101.296875 77.949219 L 100.859375 77.898438 C 100.1875 77.847656 99.59375 77.664062 99.101562 77.460938 C 99.207031 77.742188 99.308594 78.027344 99.4375 78.332031 C 99.542969 78.589844 99.695312 78.898438 99.824219 79.257812 C 104.546875 76.921875 110.820312 68.703125 115.695312 58.070312 C 119.359375 50.082031 124.910156 41.554688 128.082031 36.1875 C 131.953125 30.046875 135.308594 26.246094 137.527344 24.0625 C 144.753906 16.921875 145.863281 15.585938 142.328125 13.148438 C 141.398438 12.480469 140.601562 11.964844 139.800781 11.964844 Z M 116.960938 48.515625 C 116.882812 49.078125 116.652344 49.542969 116.289062 49.796875 C 116.265625 49.925781 116.238281 50.054688 116.1875 50.15625 C 116.78125 49.976562 117.503906 49.902344 118.226562 49.953125 C 117.503906 49.59375 117.039062 49.078125 116.960938 48.515625 Z M 113.195312 50.082031 C 113.605469 50.980469 113.8125 51.878906 113.785156 52.675781 C 113.863281 52.367188 114.070312 52.085938 114.378906 51.851562 C 114.378906 51.777344 114.40625 51.699219 114.40625 51.621094 C 114.457031 51.441406 114.535156 51.261719 114.640625 51.109375 C 114.175781 50.980469 113.65625 50.621094 113.195312 50.082031 Z M 113.761719 53.113281 C 113.683594 53.675781 113.453125 54.113281 113.089844 54.371094 C 113.066406 54.5 113.039062 54.628906 112.988281 54.730469 C 113.582031 54.550781 114.277344 54.5 115.027344 54.523438 C 114.277344 54.164062 113.8125 53.652344 113.761719 53.113281 Z M 109.992188 54.703125 C 110.40625 55.578125 110.613281 56.476562 110.585938 57.246094 C 110.664062 56.9375 110.871094 56.65625 111.179688 56.425781 C 111.179688 56.347656 111.207031 56.269531 111.207031 56.195312 C 111.257812 56.015625 111.308594 55.835938 111.4375 55.679688 C 110.949219 55.550781 110.457031 55.21875 109.992188 54.703125 Z M 110.535156 57.632812 C 110.457031 58.199219 110.226562 58.660156 109.863281 58.917969 C 109.839844 59.042969 109.8125 59.171875 109.761719 59.300781 C 110.355469 59.121094 111.050781 59.042969 111.800781 59.097656 C 111.050781 58.738281 110.585938 58.199219 110.535156 57.632812 Z M 106.769531 59.277344 C 107.179688 60.148438 107.386719 61.074219 107.359375 61.84375 C 107.4375 61.535156 107.644531 61.253906 107.953125 61.023438 C 107.953125 60.945312 107.953125 60.867188 107.980469 60.792969 C 108.03125 60.613281 108.109375 60.433594 108.238281 60.277344 C 107.75 60.125 107.230469 59.789062 106.769531 59.277344 Z M 107.335938 62.230469 C 107.257812 62.792969 107.027344 63.257812 106.664062 63.515625 C 106.640625 63.640625 106.613281 63.769531 106.5625 63.875 C 107.15625 63.695312 107.851562 63.617188 108.601562 63.667969 C 107.851562 63.308594 107.386719 62.792969 107.335938 62.230469 Z M 103.566406 63.875 C 103.980469 64.746094 104.160156 65.644531 104.136719 66.417969 C 104.214844 66.109375 104.417969 65.824219 104.730469 65.59375 C 104.730469 65.515625 104.730469 65.441406 104.753906 65.363281 C 104.804688 65.183594 104.882812 65.003906 105.011719 64.847656 C 104.546875 64.722656 104.03125 64.386719 103.566406 63.875 Z M 104.109375 66.800781 C 104.03125 67.367188 103.800781 67.828125 103.4375 68.085938 C 103.414062 68.214844 103.386719 68.34375 103.335938 68.472656 C 103.953125 68.292969 104.652344 68.214844 105.398438 68.265625 C 104.652344 67.90625 104.1875 67.367188 104.109375 66.800781 Z M 100.34375 68.394531 C 100.753906 69.265625 100.960938 70.191406 100.933594 70.960938 C 101.011719 70.652344 101.21875 70.371094 101.527344 70.140625 C 101.527344 70.0625 101.527344 69.988281 101.554688 69.910156 C 101.605469 69.730469 101.683594 69.550781 101.8125 69.394531 C 101.324219 69.292969 100.804688 68.933594 100.34375 68.394531 Z M 100.910156 71.375 C 100.832031 71.9375 100.601562 72.402344 100.238281 72.65625 C 100.214844 72.785156 100.1875 72.914062 100.136719 73.015625 C 100.730469 72.835938 101.425781 72.761719 102.175781 72.8125 C 101.425781 72.476562 100.960938 71.9375 100.910156 71.375 Z M 97.140625 73.015625 C 97.269531 73.300781 97.375 73.582031 97.453125 73.839844 C 97.554688 73.839844 97.65625 73.863281 97.761719 73.890625 C 98.046875 73.890625 98.199219 74.097656 98.328125 74.480469 C 98.378906 74.300781 98.457031 74.121094 98.5625 73.96875 C 98.121094 73.863281 97.605469 73.53125 97.140625 73.015625 Z M 94.535156 78.128906 C 94.769531 78.640625 95.101562 79.078125 95.566406 79.386719 C 96.058594 79.722656 96.625 79.902344 97.21875 79.925781 C 97.117188 79.617188 96.960938 79.207031 96.882812 78.949219 C 96.78125 78.640625 96.652344 78.4375 96.472656 78.28125 C 96.417969 78.332031 96.367188 78.359375 96.316406 78.410156 C 95.824219 78.746094 95.179688 78.589844 94.535156 78.128906 Z M 94.535156 78.128906 "/>
<path style=" stroke:none;fill-rule:nonzero;fill:url(#radial0);" d="M 115.980469 45.5625 C 115.050781 46.691406 114.121094 47.796875 113.195312 48.898438 C 114.046875 50.15625 115.207031 50.773438 116.007812 50.261719 C 116.960938 49.671875 117.011719 47.742188 116.160156 45.945312 Z M 120.675781 45.792969 C 119 45.816406 117.605469 46.484375 117.398438 47.460938 C 117.195312 48.359375 118.148438 49.234375 119.59375 49.59375 C 120.34375 48.335938 121.066406 47.074219 121.8125 45.84375 L 121.425781 45.816406 C 121.167969 45.816406 120.910156 45.792969 120.675781 45.792969 Z M 112.546875 49.671875 C 111.59375 50.800781 110.640625 51.90625 109.683594 52.984375 C 110.5625 54.574219 111.902344 55.398438 112.804688 54.832031 C 113.761719 54.242188 113.8125 52.316406 112.960938 50.519531 Z M 117.453125 50.390625 C 115.773438 50.414062 114.378906 51.082031 114.175781 52.058594 C 113.941406 53.085938 115.179688 54.035156 116.960938 54.320312 C 117.632812 53.035156 118.355469 51.75 119.078125 50.492188 L 118.199219 50.414062 C 117.941406 50.390625 117.683594 50.390625 117.453125 50.390625 Z M 109.066406 53.703125 C 108.082031 54.808594 107.101562 55.9375 106.199219 57.015625 L 106.304688 57.273438 C 107.15625 59.070312 108.625 60.019531 109.582031 59.429688 C 110.535156 58.839844 110.585938 56.914062 109.734375 55.113281 Z M 114.25 54.960938 C 112.574219 54.988281 111.179688 55.679688 110.972656 56.628906 C 110.742188 57.734375 112.136719 58.761719 114.121094 58.941406 L 114.5625 58.96875 C 114.769531 58.558594 114.972656 58.144531 115.179688 57.734375 C 115.59375 56.886719 116.058594 56.015625 116.496094 55.140625 L 114.972656 54.988281 C 114.742188 54.960938 114.484375 54.960938 114.25 54.960938 Z M 105.605469 57.734375 C 104.625 58.917969 103.695312 60.097656 102.820312 61.253906 L 103.101562 61.84375 C 103.953125 63.640625 105.425781 64.59375 106.378906 64.003906 C 107.335938 63.410156 107.414062 61.484375 106.535156 59.6875 Z M 111.027344 59.53125 C 109.347656 59.558594 107.953125 60.226562 107.75 61.203125 C 107.515625 62.308594 108.910156 63.335938 110.898438 63.515625 L 112.03125 63.617188 C 112.730469 62.382812 113.425781 61.101562 114.121094 59.789062 L 111.75 59.558594 C 111.515625 59.53125 111.285156 59.53125 111.027344 59.53125 Z M 102.226562 62 C 101.269531 63.28125 100.367188 64.542969 99.566406 65.75 L 99.902344 66.417969 C 100.753906 68.214844 102.226562 69.164062 103.179688 68.574219 C 104.136719 67.984375 104.214844 66.058594 103.335938 64.257812 Z M 107.824219 64.105469 C 106.148438 64.128906 104.753906 64.796875 104.546875 65.773438 C 104.316406 66.878906 105.710938 67.90625 107.695312 68.085938 L 109.195312 68.238281 C 109.992188 67.03125 110.769531 65.773438 111.566406 64.4375 L 108.546875 64.15625 C 108.316406 64.105469 108.058594 64.105469 107.824219 64.105469 Z M 99.027344 66.570312 C 98.070312 68.035156 97.246094 69.445312 96.574219 70.730469 L 96.703125 70.988281 C 97.554688 72.785156 99.027344 73.734375 99.980469 73.144531 C 100.933594 72.554688 100.988281 70.628906 100.136719 68.832031 Z M 104.601562 68.675781 C 102.921875 68.703125 101.527344 69.371094 101.324219 70.347656 C 101.089844 71.449219 102.484375 72.476562 104.472656 72.65625 L 105.890625 72.785156 C 106.792969 71.65625 107.722656 70.398438 108.652344 69.035156 L 105.324219 68.726562 C 105.089844 68.703125 104.859375 68.675781 104.601562 68.675781 Z M 96.082031 71.707031 C 95.851562 72.222656 95.621094 72.707031 95.4375 73.171875 C 96.109375 73.351562 96.652344 73.554688 97.089844 73.8125 C 97.039062 73.683594 96.988281 73.554688 96.910156 73.402344 Z M 101.398438 73.273438 C 100.007812 73.300781 98.820312 73.761719 98.328125 74.457031 C 98.457031 74.890625 98.5625 75.535156 98.769531 76.355469 C 99.335938 76.820312 100.214844 77.152344 101.269531 77.253906 L 101.710938 77.304688 C 102.820312 76.332031 104.007812 75.070312 105.246094 73.609375 L 102.121094 73.300781 C 101.890625 73.273438 101.632812 73.273438 101.398438 73.273438 Z M 95 77.304688 C 94.949219 77.304688 94.871094 77.332031 94.792969 77.332031 C 94.898438 77.410156 94.972656 77.484375 95.078125 77.539062 C 95.050781 77.484375 95 77.410156 95 77.304688 Z M 95 77.304688 "/>
<path style=" stroke:none;fill-rule:nonzero;fill:rgb(87.843137%,100%,0%);fill-opacity:1;" d="M 138.742188 17.460938 C 137.65625 18.902344 135.4375 22.855469 134.664062 22.265625 C 133.890625 21.675781 136.109375 16.792969 137.167969 15.355469 C 138.25 13.917969 139.75 13.222656 140.546875 13.816406 C 141.347656 14.378906 139.824219 16 138.742188 17.460938 Z M 138.742188 17.460938 "/>
<path style=" stroke:none;fill-rule:nonzero;fill:rgb(69.411765%,87.45098%,22.352941%);fill-opacity:1;" d="M 142.714844 10.296875 C 142.714844 10.988281 142.148438 11.527344 141.476562 11.527344 C 140.78125 11.527344 140.238281 10.964844 140.238281 10.296875 C 140.238281 9.601562 140.804688 9.0625 141.476562 9.0625 C 142.148438 9.039062 142.714844 9.601562 142.714844 10.296875 Z M 142.714844 10.296875 "/>
<path style=" stroke:none;fill-rule:nonzero;fill:rgb(100%,100%,100%);fill-opacity:1;" d="M 141.839844 9.859375 C 141.839844 10.117188 141.632812 10.296875 141.398438 10.296875 C 141.167969 10.296875 140.960938 10.089844 140.960938 9.859375 C 140.960938 9.601562 141.167969 9.421875 141.398438 9.421875 C 141.632812 9.421875 141.839844 9.628906 141.839844 9.859375 Z M 141.839844 9.859375 "/>
<path style=" stroke:none;fill-rule:nonzero;fill:rgb(86.666667%,97.254902%,31.764706%);fill-opacity:1;" d="M 46.664062 50.722656 C 47.230469 51.957031 44.933594 52.394531 43.566406 53.265625 C 42.226562 54.140625 41.761719 55.730469 41.011719 54.601562 C 40.265625 53.472656 40.804688 51.90625 42.121094 50.953125 C 43.953125 49.671875 46.378906 50.105469 46.664062 50.722656 Z M 46.664062 50.722656 "/>
<path style=" stroke:none;fill-rule:nonzero;fill:rgb(86.666667%,97.254902%,31.764706%);fill-opacity:1;" d="M 82.871094 38.652344 C 83.644531 38.882812 65.503906 42.296875 59.050781 44.945312 C 52.960938 47.4375 52.625 47.128906 52.625 46.5625 C 52.625 45.996094 57.683594 41.863281 64.652344 41.863281 C 71.644531 41.863281 80.832031 37.984375 82.871094 38.652344 Z M 82.871094 38.652344 "/>
<path style=" stroke:none;fill-rule:nonzero;fill:rgb(14.117647%,18.039216%,10.980392%);fill-opacity:1;" d="M 78.5625 78.078125 C 77.992188 78.128906 77.453125 78.207031 76.960938 78.28125 C 75.851562 78.460938 74.820312 78.460938 73.839844 78.332031 C 74.019531 79.207031 74.714844 80.027344 75.722656 80.027344 C 76.859375 80.027344 77.863281 79.285156 78.5625 78.078125 Z M 118.433594 78.746094 C 117.296875 78.746094 113.941406 82.984375 111.4375 82.519531 C 110.40625 82.316406 109.375 85.21875 110.484375 85.21875 C 111.59375 85.21875 115.773438 82.675781 116.601562 82.03125 C 117.527344 81.3125 119.542969 78.746094 118.433594 78.746094 Z M 141.785156 79.59375 C 140.652344 79.59375 137.890625 85.832031 135.386719 85.371094 C 134.355469 85.164062 132.78125 87.21875 133.582031 88.015625 C 134.585938 89.042969 137.941406 86.21875 138.769531 85.578125 C 139.695312 84.882812 142.898438 79.59375 141.785156 79.59375 Z M 131.515625 80.082031 C 130.378906 80.082031 127.027344 84.34375 124.523438 83.882812 C 123.492188 83.675781 122.792969 85.78125 123.566406 86.578125 C 124.574219 87.605469 128.910156 85.5 129.734375 84.859375 C 130.664062 84.113281 132.652344 80.082031 131.515625 80.082031 Z M 149.863281 81.777344 C 148.730469 81.777344 146.148438 88.351562 143.644531 87.886719 C 142.613281 87.683594 140.703125 89.351562 141.503906 90.148438 C 142.507812 91.175781 145.863281 88.351562 146.691406 87.707031 C 147.621094 86.988281 151 81.777344 149.863281 81.777344 Z M 154.070312 86.347656 C 153.296875 86.347656 151.464844 89.328125 149.734375 89.121094 C 149.011719 89.042969 147.695312 89.789062 148.238281 90.148438 C 148.933594 90.609375 151.285156 89.328125 151.851562 89.042969 C 152.496094 88.734375 154.84375 86.347656 154.070312 86.347656 Z M 154.070312 86.347656 "/>
<path style=" stroke:none;fill-rule:nonzero;fill:rgb(82.352941%,82.352941%,0%);fill-opacity:1;" d="M 70.714844 77.304688 C 71 77.664062 71.359375 77.871094 71.722656 77.871094 C 71.773438 77.871094 71.851562 77.871094 71.902344 77.847656 C 71.695312 77.769531 71.515625 77.691406 71.335938 77.613281 C 71.308594 77.613281 71.308594 77.589844 71.285156 77.589844 C 71.257812 77.589844 71.257812 77.5625 71.230469 77.5625 C 71.050781 77.484375 70.871094 77.382812 70.714844 77.304688 Z M 85.527344 78.078125 C 84.832031 78.101562 84.136719 78.101562 83.464844 78.128906 C 83.179688 78.128906 82.898438 78.152344 82.613281 78.152344 C 82.742188 79.414062 83.671875 79.746094 84.34375 79.746094 C 85.039062 79.746094 85.554688 79.414062 85.710938 78.078125 C 85.632812 78.078125 85.582031 78.078125 85.527344 78.078125 Z M 106.507812 81.492188 C 105.890625 81.492188 105.605469 81.851562 105.453125 82.441406 C 105.140625 83.703125 106.046875 84.371094 106.664062 84.371094 C 107.285156 84.371094 107.695312 83.726562 107.695312 82.441406 C 107.671875 81.648438 107.101562 81.492188 106.507812 81.492188 Z M 118.585938 84.164062 C 117.734375 84.164062 117.347656 84.445312 117.140625 84.933594 C 116.703125 85.960938 117.941406 86.527344 118.792969 86.527344 C 119.644531 86.527344 120.214844 85.988281 120.214844 84.933594 C 120.214844 84.316406 119.4375 84.164062 118.585938 84.164062 Z M 131.257812 86.425781 C 130.640625 86.425781 130.355469 86.707031 130.199219 87.195312 C 129.890625 88.222656 130.792969 88.789062 131.414062 88.789062 C 132.03125 88.789062 132.445312 88.246094 132.445312 87.195312 C 132.445312 86.578125 131.878906 86.425781 131.257812 86.425781 Z M 139.128906 88.195312 C 138.691406 88.195312 138.484375 88.425781 138.378906 88.8125 C 138.148438 89.660156 138.820312 90.097656 139.257812 90.097656 C 139.695312 90.097656 139.980469 89.660156 139.980469 88.8125 C 139.980469 88.324219 139.566406 88.195312 139.128906 88.195312 Z M 147.4375 89.070312 C 147.207031 89.070312 147.101562 89.199219 147.027344 89.402344 C 146.898438 89.867188 147.257812 90.121094 147.492188 90.121094 C 147.722656 90.121094 147.878906 89.890625 147.878906 89.402344 C 147.878906 89.121094 147.671875 89.070312 147.4375 89.070312 Z M 147.4375 89.070312 "/>
<path style=" stroke:none;fill-rule:nonzero;fill:url(#linear9);" d="M 96.933594 75.972656 C 95.851562 77.71875 82.792969 76.742188 76.933594 77.691406 C 71.15625 78.617188 67.824219 74.917969 68.214844 72.914062 C 68.933594 69.214844 75.308594 68.035156 80.496094 70.730469 C 87.078125 74.148438 99.566406 71.785156 96.933594 75.972656 Z M 96.933594 75.972656 "/>
<path style=" stroke:none;fill-rule:nonzero;fill:url(#linear10);" d="M 97.605469 74.222656 C 97.582031 74.222656 97.527344 74.25 97.503906 74.277344 C 97.140625 74.507812 97.554688 75.558594 97.269531 75.996094 C 96.988281 76.433594 95.75 76.382812 95.722656 76.972656 C 95.671875 78.28125 96.78125 77.179688 97.296875 78.691406 C 99.207031 84.523438 106.070312 102.886719 106.070312 102.886719 C 106.070312 102.886719 107.15625 105.535156 108.445312 104.199219 C 108.832031 103.8125 108.1875 102.398438 107.207031 100.78125 L 107.542969 100.320312 L 106.871094 100.269531 C 106.84375 100.214844 106.792969 100.164062 106.769531 100.089844 L 107.230469 99.445312 L 106.304688 99.367188 C 106.25 99.292969 106.226562 99.242188 106.175781 99.164062 L 106.691406 98.394531 L 105.710938 97.546875 C 105.347656 96.878906 100.703125 82.261719 99.101562 78.640625 C 98.019531 76.023438 98.046875 74.148438 97.605469 74.222656 Z M 97.605469 74.222656 "/>
<path style=" stroke:none;fill-rule:nonzero;fill:url(#linear11);" d="M 106.742188 104.453125 C 107.050781 104.121094 107.230469 104.8125 107.722656 104.789062 C 108.082031 104.761719 108.574219 104.019531 108.859375 104.453125 C 109.890625 106.046875 107.929688 108.230469 106.691406 110.027344 C 106.304688 110.617188 105.117188 110.183594 105.117188 110.183594 C 105.117188 110.183594 104.058594 109.566406 104.625 108.820312 C 105.992188 106.972656 105.324219 106.074219 106.742188 104.453125 Z M 106.742188 104.453125 "/>
<path style=" stroke:none;fill-rule:nonzero;fill:url(#linear12);" d="M 104.03125 109.847656 C 104.394531 109.488281 104.546875 110.617188 105.011719 110.59375 C 105.347656 110.566406 106.714844 110.15625 106.613281 110.464844 C 105.96875 112.621094 100.910156 113.855469 103.308594 115.574219 C 103.824219 115.960938 100.703125 114.90625 100.703125 114.90625 C 100.703125 114.90625 99.773438 114.292969 100.472656 113.519531 C 102.199219 111.644531 102.355469 111.492188 104.03125 109.847656 Z M 104.03125 109.847656 "/>
<path style=" stroke:none;fill-rule:nonzero;fill:rgb(86.666667%,97.254902%,31.764706%);fill-opacity:1;" d="M 75.980469 71.375 C 76.214844 72.707031 74.070312 71.886719 72.546875 72.425781 C 71.027344 72.964844 70.25 73.660156 69.992188 73.300781 C 69.195312 72.222656 70.304688 70.859375 71.800781 70.269531 C 73.863281 69.445312 75.851562 70.707031 75.980469 71.375 Z M 75.980469 71.375 "/>
<path style=" stroke:none;fill-rule:nonzero;fill:rgb(97.647059%,97.647059%,97.647059%);fill-opacity:1;" d="M 72.367188 71.246094 C 72.367188 71.527344 72.082031 71.734375 71.75 71.734375 C 71.414062 71.734375 71.128906 71.5 71.128906 71.246094 C 71.128906 70.988281 71.414062 70.757812 71.75 70.757812 C 72.082031 70.757812 72.367188 70.960938 72.367188 71.246094 Z M 72.367188 71.246094 "/>
<path style=" stroke:none;fill-rule:nonzero;fill:url(#linear13);" d="M 67.15625 74.890625 C 66.949219 76.304688 66.328125 77.820312 65.296875 79.257812 C 67.101562 78.691406 67.671875 77.382812 67.386719 76.5625 C 67.179688 75.996094 67.15625 75.355469 67.15625 74.890625 Z M 67.15625 74.890625 "/>
<path style=" stroke:none;fill-rule:nonzero;fill:url(#linear14);" d="M 48.574219 88.761719 C 47.800781 86.859375 53.941406 80.953125 56.601562 75.664062 C 59.230469 70.449219 64.1875 69.910156 65.605469 71.425781 C 68.214844 74.171875 65.453125 80.003906 60.214844 82.621094 C 53.554688 85.9375 50.457031 93.308594 48.574219 88.761719 Z M 48.574219 88.761719 "/>
<path style=" stroke:none;fill-rule:nonzero;fill:rgb(86.666667%,97.254902%,31.764706%);fill-opacity:1;" d="M 64.109375 73.53125 C 64.289062 74.867188 62.742188 74.042969 61.632812 74.582031 C 60.523438 75.125 59.980469 75.816406 59.800781 75.457031 C 59.230469 74.378906 60.007812 73.015625 61.089844 72.425781 C 62.585938 71.578125 64.007812 72.835938 64.109375 73.53125 Z M 64.109375 73.53125 "/>
<path style=" stroke:none;fill-rule:nonzero;fill:rgb(97.647059%,97.647059%,97.647059%);fill-opacity:1;" d="M 62.507812 72.941406 C 62.507812 73.222656 62.226562 73.429688 61.890625 73.429688 C 61.554688 73.429688 61.269531 73.195312 61.269531 72.941406 C 61.269531 72.683594 61.554688 72.453125 61.890625 72.453125 C 62.226562 72.453125 62.507812 72.65625 62.507812 72.941406 Z M 62.507812 72.941406 "/>
<path style=" stroke:none;fill-rule:nonzero;fill:url(#linear15);" d="M 48.289062 85.78125 C 48.988281 84.960938 49.632812 85.292969 49.605469 85.679688 C 49.195312 86.347656 48.652344 87.117188 48.394531 87.578125 C 47.515625 89.09375 49.839844 90.175781 49.269531 90.457031 C 46.972656 91.613281 47.878906 89.378906 46.664062 88.324219 C 42.070312 84.371094 36.03125 79.4375 36.03125 79.4375 C 36.03125 79.4375 33.839844 77.613281 35.492188 76.792969 C 35.980469 76.535156 37.140625 77.5625 38.40625 78.976562 L 38.949219 78.796875 L 38.820312 79.4375 C 38.871094 79.488281 38.898438 79.539062 38.949219 79.59375 L 39.695312 79.335938 L 39.515625 80.234375 C 39.566406 80.285156 39.621094 80.363281 39.671875 80.414062 L 40.574219 80.15625 L 41.089844 81.339844 C 41.632812 81.878906 43.515625 83.574219 46.898438 85.679688 C 47.75 86.21875 48.082031 85.960938 48.289062 85.78125 Z M 48.289062 85.78125 "/>
<path style=" stroke:none;fill-rule:nonzero;fill:url(#linear16);" d="M 34.714844 76.921875 C 34.742188 76.945312 34.921875 77.101562 34.898438 77.253906 C 34.25 77.664062 34.5625 78.027344 34.792969 78.410156 C 35.078125 78.875 35.851562 79.234375 35.695312 79.644531 C 35.257812 80.875 34.664062 79.976562 33.734375 81.289062 C 30.25 86.347656 22.199219 96.878906 22.199219 96.878906 C 22.199219 96.878906 20.394531 99.085938 19.542969 97.441406 C 19.285156 96.953125 20.289062 95.800781 21.683594 94.515625 L 21.503906 93.976562 L 22.148438 94.105469 C 22.199219 94.050781 22.25 94.027344 22.304688 93.976562 L 22.046875 93.230469 L 22.949219 93.410156 C 23 93.359375 23.078125 93.308594 23.128906 93.257812 L 22.84375 92.355469 L 24.007812 91.816406 C 24.546875 91.277344 29.375 83.703125 31.953125 80.695312 C 33.8125 78.539062 33.65625 76.535156 34.714844 76.921875 Z M 34.714844 76.921875 "/>
<path style=" stroke:none;fill-rule:nonzero;fill:url(#linear17);" d="M 19.101562 96.59375 C 19.542969 96.722656 19 97.1875 19.230469 97.621094 C 19.414062 97.929688 20.289062 98.058594 20.03125 98.46875 C 19.050781 100.089844 16.214844 99.292969 14.046875 99.007812 C 13.347656 98.90625 13.21875 97.675781 13.21875 97.675781 C 13.21875 97.675781 13.296875 96.46875 14.226562 96.621094 C 16.496094 97.03125 17.039062 96.054688 19.101562 96.59375 Z M 19.101562 96.59375 "/>
<path style=" stroke:none;fill-rule:nonzero;fill:url(#linear18);" d="M 13.039062 96.570312 C 13.527344 96.75 12.574219 97.367188 12.804688 97.777344 C 12.988281 98.085938 13.96875 99.085938 13.632812 99.164062 C 11.386719 99.550781 8.058594 95.59375 7.566406 98.46875 C 7.464844 99.085938 7.027344 95.851562 7.027344 95.851562 C 7.027344 95.851562 7.179688 94.746094 8.160156 95.027344 C 10.613281 95.722656 10.820312 95.800781 13.039062 96.570312 Z M 13.039062 96.570312 "/>
<path style=" stroke:none;fill-rule:nonzero;fill:url(#linear19);" d="M 37.96875 63.386719 C 35.308594 66.851562 31.492188 72.8125 31.027344 73.273438 L 29.863281 73.8125 L 30.148438 74.710938 C 30.097656 74.761719 30.019531 74.816406 29.96875 74.867188 L 29.066406 74.6875 L 29.324219 75.429688 C 29.269531 75.484375 29.21875 75.507812 29.167969 75.558594 L 28.523438 75.429688 L 28.730469 75.972656 C 27.335938 77.253906 26.328125 78.410156 26.585938 78.898438 C 27.4375 80.542969 29.246094 78.332031 29.246094 78.332031 C 29.246094 78.332031 34.949219 70.859375 38.84375 65.492188 C 38.484375 64.824219 38.199219 64.128906 37.96875 63.386719 Z M 37.96875 63.386719 "/>
<path style=" stroke:none;fill-rule:nonzero;fill:url(#linear20);" d="M 26.097656 78.050781 C 26.535156 78.179688 25.992188 78.640625 26.226562 79.078125 C 26.40625 79.386719 27.285156 79.515625 27.027344 79.925781 C 26.046875 81.542969 23.207031 80.75 21.039062 80.464844 C 20.34375 80.363281 20.214844 79.128906 20.214844 79.128906 C 20.214844 79.128906 20.289062 77.921875 21.21875 78.078125 C 23.492188 78.488281 24.03125 77.511719 26.097656 78.050781 Z M 26.097656 78.050781 "/>
<path style=" stroke:none;fill-rule:nonzero;fill:url(#linear21);" d="M 20.03125 78.027344 C 20.523438 78.207031 19.566406 78.820312 19.800781 79.234375 C 19.980469 79.539062 20.960938 80.542969 20.625 80.621094 C 18.378906 81.003906 15.050781 77.050781 14.5625 79.925781 C 14.457031 80.542969 14.019531 77.304688 14.019531 77.304688 C 14.019531 77.304688 14.175781 76.203125 15.15625 76.484375 C 17.605469 77.179688 17.8125 77.253906 20.03125 78.027344 Z M 20.03125 78.027344 "/>
<path style=" stroke:none;fill-rule:nonzero;fill:url(#linear22);" d="M 111.078125 87.632812 C 110.5625 87.785156 109.710938 88.09375 109.167969 88.121094 C 110.585938 91.945312 112.082031 94.898438 112.082031 94.898438 C 112.082031 94.898438 113.167969 97.546875 114.457031 96.210938 C 114.84375 95.824219 114.226562 94.410156 113.21875 92.792969 L 113.554688 92.332031 L 112.882812 92.28125 C 112.859375 92.230469 112.804688 92.175781 112.78125 92.101562 L 113.246094 91.457031 L 112.316406 91.382812 C 112.265625 91.304688 112.238281 91.253906 112.1875 91.175781 L 112.703125 90.40625 L 111.722656 89.558594 C 111.722656 89.402344 111.4375 88.632812 111.078125 87.632812 C 111.101562 87.632812 111.179688 87.632812 111.078125 87.632812 Z M 111.078125 87.632812 "/>
<path style=" stroke:none;fill-rule:nonzero;fill:url(#linear23);" d="M 114.613281 96.390625 C 114.304688 96.339844 115 95.414062 114.898438 95.054688 C 114.820312 94.847656 113.941406 94.078125 113.941406 93.71875 C 113.941406 93.050781 114.871094 93.28125 116.34375 92.539062 C 116.804688 92.304688 117.453125 92.949219 117.453125 92.949219 C 117.453125 92.949219 117.96875 93.667969 117.324219 93.976562 C 115.722656 94.695312 115.722656 96.519531 114.613281 96.390625 Z M 114.613281 96.390625 "/>
<path style=" stroke:none;fill-rule:nonzero;fill:url(#linear24);" d="M 117.011719 92.230469 C 116.730469 92.484375 117.917969 92.511719 117.839844 92.84375 C 117.785156 93.101562 117.605469 93.925781 117.839844 93.871094 C 119.464844 93.488281 119.695312 90.046875 121.863281 91.203125 C 122.277344 91.40625 120.933594 90.097656 120.933594 90.097656 C 120.933594 90.097656 120.136719 89.558594 119.59375 89.96875 C 118.097656 91.148438 118.328125 91.046875 117.011719 92.230469 Z M 117.011719 92.230469 "/>
<path style=" stroke:none;fill-rule:nonzero;fill:rgb(20%,20%,20%);fill-opacity:0.588235;" d="M 83.414062 48.308594 C 83.285156 48.589844 83.15625 48.875 82.972656 49.183594 C 85.21875 49.542969 96.367188 51.367188 105.941406 53.058594 C 106.199219 52.804688 106.457031 52.546875 106.742188 52.289062 C 96.910156 50.59375 85.375 48.644531 83.414062 48.308594 Z M 120.574219 54.5 C 120.417969 54.808594 120.265625 55.113281 120.082031 55.421875 C 134.457031 57.375 153.8125 58.917969 153.8125 58.917969 L 153.8125 57.992188 C 153.839844 57.964844 135 56.398438 120.574219 54.5 Z M 120.574219 54.5 "/>
<path style=" stroke:none;fill-rule:nonzero;fill:url(#linear25);" d="M 83.414062 47.796875 C 83.285156 48.078125 83.15625 48.359375 82.972656 48.667969 C 85.21875 49.027344 96.367188 50.851562 105.941406 52.546875 C 106.199219 52.289062 106.457031 52.03125 106.742188 51.777344 C 96.910156 50.082031 85.375 48.128906 83.414062 47.796875 Z M 120.574219 53.984375 C 120.417969 54.292969 120.265625 54.601562 120.082031 54.910156 C 134.457031 56.863281 153.8125 58.402344 153.8125 58.402344 L 153.8125 57.476562 C 153.839844 57.453125 135 55.886719 120.574219 53.984375 Z M 120.574219 53.984375 "/>
<path style=" stroke:none;fill-rule:nonzero;fill:rgb(20%,20%,20%);fill-opacity:0.588235;" d="M 79.257812 52.957031 C 79 53.136719 78.742188 53.292969 78.484375 53.472656 C 79.566406 54.113281 82.097656 55.0625 88.136719 56.195312 C 92.1875 56.9375 96.933594 57.402344 101.605469 57.65625 C 101.890625 57.351562 102.175781 57.015625 102.457031 56.707031 C 97.527344 56.449219 92.445312 56.015625 88.109375 55.242188 C 83.230469 54.371094 80.625 53.574219 79.257812 52.957031 Z M 123.285156 56.914062 C 123.285156 56.914062 121.683594 56.964844 119.15625 56.988281 C 119 57.324219 118.820312 57.632812 118.664062 57.964844 C 121.503906 57.914062 123.285156 57.863281 123.285156 57.863281 Z M 123.285156 56.914062 "/>
<path style=" stroke:none;fill-rule:nonzero;fill:url(#linear26);" d="M 79.257812 52.445312 C 79 52.625 78.742188 52.777344 78.484375 52.957031 C 79.566406 53.601562 82.097656 54.550781 88.136719 55.679688 C 92.1875 56.425781 96.933594 56.886719 101.605469 57.144531 C 101.890625 56.835938 102.175781 56.503906 102.457031 56.195312 C 97.527344 55.9375 92.445312 55.5 88.109375 54.730469 C 83.230469 53.855469 80.625 53.058594 79.257812 52.445312 Z M 123.285156 56.398438 C 123.285156 56.398438 121.683594 56.449219 119.15625 56.476562 C 119 56.808594 118.820312 57.117188 118.664062 57.453125 C 121.503906 57.402344 123.285156 57.351562 123.285156 57.351562 Z M 123.285156 56.398438 "/>
<path style=" stroke:none;fill-rule:nonzero;fill:rgb(20%,20%,20%);fill-opacity:0.584314;" d="M 76.265625 54.371094 C 76.007812 54.472656 75.75 54.550781 75.464844 54.628906 C 76.367188 55.550781 78.820312 56.9375 85.375 58.171875 C 90.921875 59.199219 95.335938 60.175781 98.691406 60.972656 C 98.921875 60.6875 99.15625 60.433594 99.414062 60.125 C 96.03125 59.300781 91.335938 58.25 85.375 57.222656 C 80.1875 56.296875 77.582031 55.242188 76.265625 54.371094 Z M 76.265625 54.371094 "/>
<path style=" stroke:none;fill-rule:nonzero;fill:rgb(64.313725%,94.901961%,0%);fill-opacity:1;" d="M 76.265625 53.855469 C 76.007812 53.960938 75.75 54.035156 75.464844 54.113281 C 76.367188 55.039062 78.820312 56.425781 85.375 57.65625 C 90.921875 58.683594 95.335938 59.660156 98.691406 60.457031 C 98.921875 60.175781 99.15625 59.917969 99.414062 59.609375 C 96.03125 58.789062 91.335938 57.734375 85.375 56.707031 C 80.1875 55.78125 77.582031 54.730469 76.265625 53.855469 Z M 76.265625 53.855469 "/>
<path style=" stroke:none;fill-rule:nonzero;fill:rgb(20%,20%,20%);fill-opacity:0.588235;" d="M 74.972656 54.140625 C 74.972656 54.140625 74.972656 54.320312 74.972656 54.628906 Z M 74.972656 54.679688 L 74.972656 55.089844 C 74.972656 55.089844 74.25 62.769531 85.398438 64.847656 C 88.933594 65.515625 92.03125 65.902344 94.691406 66.109375 C 94.898438 65.800781 95.128906 65.492188 95.359375 65.15625 C 92.574219 64.953125 89.269531 64.566406 85.398438 63.898438 C 75.953125 62.253906 75.027344 56.449219 74.972656 54.679688 Z M 74.972656 54.679688 "/>
<path style=" stroke:none;fill-rule:nonzero;fill:rgb(64.313725%,94.901961%,0%);fill-opacity:1;" d="M 74.972656 53.625 C 74.972656 53.625 74.972656 53.804688 74.972656 54.113281 Z M 74.972656 54.164062 L 74.972656 54.574219 C 74.972656 54.574219 74.25 62.253906 85.398438 64.335938 C 88.933594 65.003906 92.03125 65.390625 94.691406 65.59375 C 94.898438 65.285156 95.128906 64.976562 95.359375 64.644531 C 92.574219 64.4375 89.269531 64.054688 85.398438 63.386719 C 75.953125 61.742188 75.027344 55.9375 74.972656 54.164062 Z M 74.972656 54.164062 "/>
<path style=" stroke:none;fill-rule:nonzero;fill:url(#linear27);" d="M 104.160156 0.820312 C 102.898438 1.179688 73.582031 24.960938 41.605469 32.949219 C 19.050781 38.574219 14.5625 50.492188 37.375 55.78125 C 37.65625 55.167969 37.761719 54.421875 37.863281 54.0625 C 24.214844 51.367188 11.929688 42.402344 46.640625 33.257812 C 78.84375 24.78125 102.25 2.898438 104.007812 1.101562 C 104.1875 0.894531 104.238281 0.792969 104.160156 0.820312 Z M 104.160156 0.820312 "/>
<path style=" stroke:none;fill-rule:nonzero;fill:rgb(0%,0%,0%);fill-opacity:1;" d="M 39.050781 52.058594 C 38.691406 52.675781 38.355469 53.34375 38.097656 54.035156 C 39.308594 54.371094 40.601562 54.679688 42.019531 54.988281 C 42.355469 54.960938 42.664062 55.0625 43.078125 54.242188 C 43.386719 53.675781 42.949219 52.984375 42.84375 52.855469 C 41.582031 52.648438 40.289062 52.367188 39.050781 52.058594 Z M 39.050781 52.058594 "/>
<path style=" stroke:none;fill-rule:nonzero;fill:url(#linear28);" d="M 108.730469 6.367188 C 107.515625 6.878906 78.378906 27.789062 46.40625 34.824219 C 23.851562 39.78125 19.207031 50.003906 42.019531 54.753906 C 42.121094 54.753906 42.5625 55.011719 42.949219 54.191406 C 43.230469 53.574219 42.84375 53.164062 42.742188 53.035156 C 28.601562 51.03125 16.652344 42.761719 51.359375 34.722656 C 83.542969 27.273438 106.742188 8.140625 108.625 6.648438 C 108.804688 6.445312 108.832031 6.316406 108.730469 6.367188 Z M 108.730469 6.367188 "/>
</g>
</svg>
