<?xml version="1.0" encoding="UTF-8"?>
<svg id="Layer_1" data-name="Layer 1" xmlns="http://www.w3.org/2000/svg" xmlns:xlink="http://www.w3.org/1999/xlink" viewBox="0 0 1169 1169">
  <defs>
    <style>
      .dance-cls-1 {
        fill: url(#linear-gradient);
      }

      .dance-cls-1, .dance-cls-2, .dance-cls-3, .dance-cls-4, .dance-cls-5, .dance-cls-6, .dance-cls-7, .dance-cls-8, .dance-cls-9, .dance-cls-10, .dance-cls-11, .dance-cls-12, .dance-cls-13, .dance-cls-14, .dance-cls-15, .dance-cls-16, .dance-cls-17, .dance-cls-18, .dance-cls-19 {
        stroke-width: 0px;
      }

      .dance-cls-2 {
        fill: #f9c3b0;
      }

      .dance-cls-3 {
        fill: #4e141c;
      }

      .dance-cls-4 {
        fill: #193139;
      }

      .dance-cls-5 {
        fill: #100f0e;
      }

      .dance-cls-6 {
        fill: #1ea098;
      }

      .dance-cls-7 {
        fill: #178f8a;
      }

      .dance-cls-8 {
        fill: #e0774b;
      }

      .dance-cls-9 {
        fill: #d35d4a;
      }

      .dance-cls-10 {
        fill: #c0504c;
      }

      .dance-cls-11 {
        fill: #bf8e89;
      }

      .dance-cls-12 {
        fill: #a03d39;
      }

      .dance-cls-13 {
        fill: #e9c75f;
      }

      .dance-cls-14 {
        fill: #fbebcf;
      }

      .dance-cls-15 {
        fill: #fdd1b9;
      }

      .dance-cls-16 {
        fill: #f6a89b;
      }

      .dance-cls-17 {
        fill: #f4dc7c;
      }

      .dance-cls-18 {
        fill: #024242;
      }

      .dance-cls-19 {
        fill: #04534e;
      }
    </style>
    <linearGradient id="linear-gradient" x1="710.75" y1="306.21" x2="786.35" y2="317.78" gradientUnits="userSpaceOnUse">
      <stop offset="0" stop-color="#281415"/>
      <stop offset="1" stop-color="#0d0b0c"/>
    </linearGradient>
  </defs>
  <g>
    <path class="dance-cls-2" d="m309.37,1045.71c14.24-1.23,50.85-12.56,69.64-14.84,12.6,10,27.18,17.37,40.53,26.26,4.7.32,9.59-.45,14.27,0,24.69,2.36,48.49.05,73.06,0,.69,0,4.47,1.17,13.7,1.14,14.27-.05,28.54.03,42.81,0-8.34-3.3-17.04-5.64-25.69-7.99-10.83-5.23,15.47-6.6,21.12-6.85,14.18-.63,29.08,2.76,43.38,1.14-2.04,3.13-9.23-1.31-8.56,3.42-8.36.77-16.76,1-25.12,1.71,50.79,7.07,102.3,7.77,153.55,7.42.26,0,3.84,1.73,4.57,2.28,14.57-4.6,30.5-1.28,45.66-2.28,7.71-.51,29.42-3.45,26.26-5.71l-57.65-1.14c5.67-2.72,12.65-7.91,18.27-11.42,38.09,1.56,79.19,4.15,115.3-10.27,32.93,12.84,50.86,19.48,17.69,33.11-58.34,23.98-223.85,24.76-291.11,22.83-44.53-1.28-97.09-4.9-141.56-9.13-39.34-3.74-121.96-10.84-150.12-29.68Z"/>
    <path class="dance-cls-15" d="m609.62,1035.43c2.53,2.96,7.09,6.8,10.27,9.13-8.69,1.19-17.53,2.62-26.26,3.42-.66-4.73,6.52-.29,8.56-3.42-14.3,1.61-29.21-1.77-43.38-1.14-5.65.25-31.95,1.62-21.12,6.85-6.86-1.87-14.58-6.26-21.69-3.42-3.51-6.92-13.53-23.33-18.27-28.54-.42-2.67,1.09-2.17,1.14-2.28,5.27-3.32,32.18.56,42.81,2.28,23.1,3.74,45.47,10.69,67.93,17.12Z"/>
    <path class="dance-cls-11" d="m643.86,1045.71c15.48-3.63,30.81,1.51,46.23,2.28l-.57-2.28c3.06.66,4.73-1.11,6.85-1.14,7.6-.12,15.23.11,22.83,0-1.63,17.09,13.04,9.85,21.69,5.71l57.65,1.14c3.17,2.26-18.55,5.2-26.26,5.71-15.17,1.01-31.1-2.32-45.66,2.28-.72-.55-4.31-2.28-4.57-2.28-51.24.35-102.75-.35-153.55-7.42,8.36-.72,16.76-.94,25.12-1.71,8.73-.81,17.56-2.24,26.26-3.42,2.01,1.48,10.22,7.74,10.85,7.99,12.83,5.13,13.32,2.71,13.13-6.85Z"/>
    <path class="dance-cls-11" d="m500.02,1052.56c.34.23,5.61,1.55,6.85,4.57-24.58.05-48.37,2.36-73.06,0-.7-4.5,1.19-6.51,1.14-6.85q32.54,1.14,65.07,2.28Z"/>
    <path class="dance-cls-11" d="m537.69,1050.27c8.64,2.35,17.34,4.69,25.69,7.99-14.27.03-28.54-.05-42.81,0-.12-4.02-2.78-7.89-4.57-11.42,7.11-2.83,14.83,1.56,21.69,3.42Z"/>
  </g>
  <g>
    <path class="dance-cls-1" d="m699.8,236.31c5.12,2.14,8.05,6.74,11.99,10.27,19.77-6.97,27.38,4.52,40.53,14.84,1.35,1.06,2.61,5.26,4,5.71,26.9-3.34,21.81,15.18,39.96,19.41,5.87,5.41,10.22,9.53,9.7,18.27-.37,6.22-5.44,11.94-9.13,16.55,15.02,25.01,3.91,15.11-16.55,25.69-10.47,5.41-34.43,23.5-50.8,30.82.91-12.24-4.16-28.6,7.99-37.1q-1.71-8.56-3.42-17.12l-1.71-1.71-21.12,19.41c2.9-8.95,4.02-18.46,6.85-27.4.83-2.62,7.55-13.42,9.13-18.84-2.21-3.04-6.57-4.32-9.13-6.28-13.62-10.38-18.48-13.18-27.4-5.71-20.6-13.91-13.75-56.38,9.13-46.81Z"/>
    <path class="dance-cls-9" d="m611.9,465.77c-8.31,5.12-30.4,40.71-37.1,42.24-15.49,3.52-19.95-15.63-7.42-31.96,4.9-2.77,5.43-2.14,5.71-2.28,6.95-3.56,7.52,5.21,15.98-21.69,8.38,3.02,15.26,9.35,22.83,13.7Z"/>
    <path class="dance-cls-12" d="m729.48,377.87c-.17,2.26.17,4.59,0,6.85-.41,5.52-.42,9.45-2.28,14.84-4.57-.5-11.84,3.18-15.41,3.42-25.85,1.8-23.81-6.18-25.69-12.56-.46-1.56.87-4.72-1.71-5.71-.29-.11-4.92.02-6.28,0,18.37-15.92,25.68-20.46,33.11-43.38l21.12-19.41,1.71,1.71q1.71,8.56,3.42,17.12c-12.15,8.5-7.08,24.86-7.99,37.1Z"/>
    <g>
      <path class="dance-cls-12" d="m827.66,553.68c1.47,30.71,6.29,60.79,9.13,91.33,1.86,19.98,1.01,40.64,3.42,60.5.31,2.56,12.13,17.46,1.14,38.24-4.45,8.42-22.69,22.9-26.26,13.7-3.11-8.03,7.06-14.74-3.42-8.56-6.89-10.27,5.89-24.22,9.13-34.82,10.97-35.91-.49-93.84-1.71-133q-11.13-2.85-22.26-5.71c-1.04-4.48-2.29-9.22-3.42-13.7q17.12-4,34.25-7.99Z"/>
      <path class="dance-cls-9" d="m826.52,537.69c.25,5.23.89,10.65,1.14,15.98q-17.12,4-34.25,7.99c-2.03-7.98-3.74-17.61-4.57-20.55q18.84-1.71,37.67-3.42Z"/>
      <path class="dance-cls-9" d="m811.68,748.89c-9.44,5.57-17.25,8.94-15.98-5.71,1.53-17.76,8.49-41.41,21.69-54.23.67-4.13-1.12-5.66-1.14-6.28-.12-3.47-.69-5.85-1.14-9.13-.78-5.68-2.49-11.41-3.42-17.12-4.4-26.79-8.73-54.64-14.84-81.05q11.13,2.85,22.26,5.71c1.22,39.16,12.69,97.09,1.71,133-3.24,10.6-16.02,24.55-9.13,34.82Z"/>
    </g>
    <path class="dance-cls-12" d="m611.9,465.77c.88.51,2.99,1.41,4.57,2.28.71.4,1.56.76,2.28,1.14,2.4,1.26,3.26,1.06,3.42,1.14-2.82,3.79-3.75,10.21-5.71,13.7-8.82,15.74-62.54,52.61-79.91,62.79-2.84,1.66-12.98,7.65-13.7,7.99-.54.26-7.32,1.9-11.42,3.42,6.08-12.55,11.61-25.96,17.12-38.81,11.37-15.71,21.56-33.61,38.81-43.38-12.53,16.34-8.07,35.49,7.42,31.96,6.7-1.53,28.79-37.12,37.1-42.24Z"/>
    <path class="dance-cls-10" d="m686.1,390.43c1.88,6.38-.16,14.36,25.69,12.56,3.57-.25,10.85-3.93,15.41-3.42-2.94,8.54-7.82,12.83-15.98,15.98-43.82-.28-49.77-28.4-25.12-25.12Z"/>
    <g>
      <path class="dance-cls-17" d="m686.1,390.43c-24.66-3.29-18.71,24.84,25.12,25.12,18.31.12,36.98-7.2,55.94-6.85,33.34,14.54,49.62,29.96,57.08,66.21,4.14,20.12,3.68,40.77,4.57,61.08.03.79-2.29,1.57-2.28,1.71q-18.84,1.71-37.67,3.42c-.05-.19-3.12.51-3.42-.57-2.65-9.31-3.78-19.08-6.85-28.54-.33-1-2.24-.45-2.28-.57-.29-.88,1.62-1.38,1.14-2.85-2.4-7.33-9.62-30.42-10.27-31.96-2.37-5.6-2.05-.73-2.28-.57-20.54,13.43-42.63,72.9-103.89,90.76,7.13,8.02,64.34,64.34,69.07,64.5,5.34.18,1.05-3.72,4-5.71.14,2.68,2.61,4.48,0,7.99-.11.36.13.83,0,1.14-29.64,9.54-98.31-1.86-122.15-19.41-.26-.19-3.88-3.83-4.57-4.57-4.86-5.17-5.86-5.65-6.85-12.56-1.42-9.89.56-24.19,2.28-34.25,5.04-29.44,24.62-56.87,25.12-86.76.02-1.5,2.72-2.15,2.28-4-.23-.46-6.31-2.03-7.99-2.85-.16-.08-1.02.12-3.42-1.14,7.95-1.95,19.69-23.97,20.55-30.82,2.57-20.42-10.6-35.75-31.39-30.82-10.37,2.46-15.01,14.08-21.12,14.84,3.03-11.54,8.01-18.76,18.84-23.97,11.37-5.47,52.05-11.79,65.64-12.56,7.53-.42,6.5-1.15,6.85-1.14,1.35.02,5.99-.11,6.28,0,2.58.99,1.25,4.15,1.71,5.71Z"/>
      <path class="dance-cls-17" d="m767.16,406.41c.17.59-.08,1.55,0,2.28-18.96-.36-37.62,6.97-55.94,6.85,8.16-3.15,13.04-7.44,15.98-15.98,1.86-5.39,1.87-9.32,2.28-14.84q18.84,10.85,37.67,21.69Z"/>
      <path class="dance-cls-17" d="m764.87,508.01q-5.14,16.55-10.27,33.11-13.13,22.55-26.26,45.09c2.33,12.79,5.01,26.43,5.71,39.39-2.94,1.99,1.35,5.89-4,5.71-4.73-.16-61.94-56.48-69.07-64.5,61.26-17.86,83.35-77.33,103.89-90.76v31.96Z"/>
      <g>
        <path class="dance-cls-17" d="m639.3,438.37c-4.44-11.68-8.12,4.77-11.42,9.7-4.95,7.41-12.65,14.61-11.42,19.98-1.57-.87-3.69-1.78-4.57-2.28-7.57-4.35-14.45-10.68-22.83-13.7.43-5.84-8.12-7.46-2.28-29.68,6.11-.76,10.75-12.39,21.12-14.84,20.8-4.92,33.96,10.4,31.39,30.82Z"/>
        <path class="dance-cls-13" d="m639.3,438.37c-.86,6.85-12.6,28.88-20.55,30.82-.73-.38-1.57-.75-2.28-1.14-1.24-5.37,6.47-12.57,11.42-19.98,3.29-4.93,6.98-21.39,11.42-9.7Z"/>
      </g>
      <path class="dance-cls-13" d="m776.29,511.44l-11.42-3.42v-31.96c.24-.16-.09-5.03,2.28.57.65,1.55,7.87,24.63,10.27,31.96.48,1.47-1.43,1.98-1.14,2.85Z"/>
    </g>
    <path class="dance-cls-16" d="m627.88,477.19c-4.92,3.34-10.61,10.14-11.42,6.85,1.95-3.49,2.88-9.91,5.71-13.7,1.68.82,7.76,2.39,7.99,2.85.43,1.85-2.26,2.49-2.28,4Z"/>
    <path class="dance-cls-3" d="m718.07,313.94c-3.06-10.54-10.01-14.23,0-25.12,2.57,1.96,6.93,3.24,9.13,6.28-1.58,5.42-8.3,16.22-9.13,18.84Z"/>
    <g>
      <path class="dance-cls-9" d="m718.07,288.83c-10.01,10.88-3.06,14.57,0,25.12-2.83,8.94-3.95,18.45-6.85,27.4-7.43,22.92-14.74,27.46-33.11,43.38-.35,0,.68.72-6.85,1.14-3.93-3.28-6.56-7.02-9.13-11.42-16.4-56.96,10.39-60.53,12.56-63.36,1-1.3,3.75-17.73,15.98-27.97,8.92-7.47,13.78-4.67,27.4,5.71Z"/>
      <path class="dance-cls-12" d="m674.12,317.37c2.61-.69,12.51-.38,15.41,1.71-23.17-1.33-31.4,29.53-5.14,32.54-35.35,4.94-20.18-31.62-10.27-34.25Z"/>
    </g>
    <g>
      <g>
        <path class="dance-cls-5" d="m793.41,974.93c.37.82,8.47,10.93,9.13,15.41,3.07,20.67-28.38,39.15-43.38,48.52-5.62,3.51-12.6,8.7-18.27,11.42-8.65,4.14-23.32,11.39-21.69-5.71,1.07-11.2,21.64-34.33,28.54-44.52q22.83-12.56,45.66-25.12Z"/>
        <path class="dance-cls-6" d="m788.85,962.37c2.62,4.78,4.29,11.95,4.57,12.56q-22.83,12.56-45.66,25.12c-11.18-6.18-18.79-16.21-27.4-25.12,16.94-8.38,33.08-18.38,46.81-31.39,1.54-3.16.1-2.81,0-4,4.13-9.51,13.78,8.42,21.69,22.83Z"/>
      </g>
      <path class="dance-cls-4" d="m712.36,780.86c-2.48,11.13-5.2,21.77-6.85,33.11-2.94,20.25-1.74,41.1-5.71,61.08-3.12,15.71-14.3,39.58-20.55,55.37-5.08,12.82-11.07,27.7-17.12,39.96-.15.31.15.84,0,1.14-25.6,3.72-42.48-2.11-53.66-26.26.75-3.81,1.56-7.6,2.28-11.42.58-3.07,1.71-6.07,2.28-9.13.8-4.28.73-9.23,1.14-11.42,2.99-16.02,5.27-31.92,7.99-47.95,1.99-11.75,3.94-23.6,5.71-35.39.09-.58,3.35-2.15,4.57-10.85,5.66-48.98,7.2-139.36,31.39-176.38,11.72,2.4,56.21,5.35,63.93,0,4.03-7.25,6.09-7.52,6.28-7.99.13-.32-.11-.78,0-1.14,6.23,2.49,2.84,38.89,1.14,51.94-4.18,32.19-15.79,63.76-22.83,95.32Z"/>
      <path class="dance-cls-4" d="m724.92,839.08c.28.53-.08,5.07,2.28,5.71,8.43,27.78,23.68,53.17,34.25,79.91.63,1.61,1.11,1.07,1.14,1.14,1.09,2.89,4.45,12.39,4.57,13.7.1,1.18,1.54.84,0,4-13.73,13.01-29.87,23.01-46.81,31.39-4.25-4.39-8.32-9.19-12.56-13.7-9.6-10.21-20.21-19.38-28.54-30.82,6.25-15.78,17.43-39.65,20.55-55.37,3.97-19.97,2.77-40.82,5.71-61.08,5.33,5.54,16.15,19.06,19.41,25.12Z"/>
      <path class="dance-cls-4" d="m734.05,634.73c-.19.47-2.25.74-6.28,7.99-7.72,5.35-52.21,2.4-63.93,0-24.19,37.02-25.74,127.4-31.39,176.38-1.22,8.7-4.48,10.26-4.57,10.85-10.15-21.77-22.08-39.32-25.12-63.93-4.58-37.12,1.8-111.6,9.13-150.69,23.84,17.55,92.51,28.94,122.15,19.41Z"/>
      <path class="dance-cls-6" d="m662.13,971.5c-4.6,9.21-13.55,28.84-21.69,29.68l-5.14-3.42q-17.98-4.57-35.96-9.13c.27-2.94-.4-6.27,0-9.13,2.83-20.3,8.79-32.51,9.13-34.25,11.18,24.15,28.05,29.98,53.66,26.26Z"/>
      <path class="dance-cls-5" d="m640.44,1001.18c2.01,12.34,13.92,21.85,24.54,12.56q27.4,4,54.8,7.99c3.9,3.03-18.89,21.49-23.4,22.83-2.12.03-3.79,1.81-6.85,1.14-44.5-4.69-46.3-32.6-45.66,0,.19,9.56-.3,11.98-13.13,6.85-.63-.25-8.83-6.51-10.85-7.99-3.18-2.34-7.75-6.17-10.27-9.13-11.67-13.67-13.32-24.1-12.56-41.67.02-.35,2.26-4.86,2.28-5.14q17.98,4.57,35.96,9.13l5.14,3.42Z"/>
    </g>
    <path class="dance-cls-14" d="m689.53,1045.71l.57,2.28c-15.42-.78-30.76-5.92-46.23-2.28-.64-32.6,1.16-4.69,45.66,0Z"/>
  </g>
  <g>
    <path class="dance-cls-9" d="m557.1,192.93c-.4,6.18.93,13.44,1.14,20.55-5.93,2.02-14.2-.62-21.69-1.14-2.89-21.68,3.48-50.87,22.26-63.93,28.35-19.71-.07,19.04-1.71,44.52Z"/>
    <path class="dance-cls-17" d="m536.55,212.34c7.49.52,15.76,3.16,21.69,1.14,0,.28,2.28,4.86,2.28,5.14.21,8.97-1.23,18.09-1.14,26.83q-14.84-1.14-29.68-2.28c.97-10.21.09-20.74,3.42-30.82,1.14.03,2.29-.08,3.42,0Z"/>
    <g>
      <path class="dance-cls-5" d="m366.45,977.21c7.48,6.99,15.18,13.76,22.83,20.55,13.21,11.71,43.45,35.07,45.66,52.51.04.34-1.84,2.35-1.14,6.85-4.68-.45-9.57.32-14.27,0-13.35-8.88-27.93-16.25-40.53-26.26-11.22-8.91-29.63-23.94-28.54-39.39.03-.4,1.94-.76,2.28-4,1.84-2.84,13.19-9.59,13.7-10.27Z"/>
      <path class="dance-cls-5" d="m497.74,1018.31c4.74,5.21,14.76,21.62,18.27,28.54,1.79,3.52,4.44,7.4,4.57,11.42-9.23.03-13.01-1.14-13.7-1.14-1.24-3.02-6.51-4.33-6.85-4.57-56.62-39.33-32.61-42.09-30.82-54.8,4.17-.88,25.7,17.43,28.54,20.55Z"/>
    </g>
    <path class="dance-cls-5" d="m471.48,316.22c.67,4.63,1.86,8.9,1.14,13.7-.83-.3-16.31-1.34-17.69-1.14-15.69,2.23-22.97,22.05-18.84,35.96q-5.71-1.43-11.42-2.85c-2.98-36.18,5.03-62.96,46.81-45.66Z"/>
    <path class="dance-cls-17" d="m477.19,414.4c15.81,29.63,30.15,49.7,13.13,82.2-27.43-16.61-48.42-43.04-79.34-53.66,5.35-3.47,12.7-5.88,17.12-9.13q28.25,25.69,56.51,51.37c1.02-19.69-8.05-37.7-13.13-55.94-1.11-3.99-1.7-8.15-3.42-11.99,1.5-2.54,4.1-1.41,4.57-1.71.47-.3,4.13-.85,4.57-1.14Z"/>
    <g>
      <path class="dance-cls-9" d="m521.71,575.37c.35,5.66,2.44,8.89,0,14.84-32.48,28.09-25.46,23.92-69.07,30.82l-2.85-17.12c18.04-9.62,33.9-23.61,53.66-30.82,6.47-1.11,12.06,1.73,18.27,2.28Z"/>
      <path class="dance-cls-8" d="m521.71,590.21c-1.66,4.05-7.34,5.87-9.13,11.42-21.58,22.06-32.45,15.61-59.36,22.26-.29,1.37-1.92,4.86-2.28,5.14-4.73,3.68-9.36,7.25-13.7,11.42-.01-.45-4.89-.41,0-7.42-8.2,3.76.02-5.45-5.71-6.85,5.04-2.28-.65-6.68-1.14-13.7,5.85-6.24,18.07-7.85,19.41-8.56l2.85,17.12c43.61-6.9,36.59-2.73,69.07-30.82Z"/>
    </g>
    <g>
      <path class="dance-cls-7" d="m497.74,640.44c3.95,14.31,11.64,27.46,15.98,41.67,16.01,52.4,9.83,73.05,11.42,113.59.02.52,1.47,7.08,2.28,8.56-.56,27.79-.21,55.2,2.28,82.77,2.42,26.75,7.98,52.41,12.56,78.77.4,2.31.75,4.56,1.14,6.85.49,2.88,4.92,17.94,2.85,19.41-22.83-9.85-38.27,3.51-47.38,23.97-.05.12-1.56-.39-1.14,2.28-2.84-3.12-24.37-21.43-28.54-20.55-.94-40.21-.21-33.86-49.66-34.25-1.69,1.24-1.59,2.2-1.71,2.28-2.39-.14.82-4.72,1.14-5.14,12.58-16.2,88.18-75.2,97.04-123.29,7.88-42.78-25.7-163-33.68-166.1-12.16-4.74-71.25,39.89-79.34,53.66-7.32-20.07-10.17-35.47-9.13-57.08,9.87.43,22.21.5,31.39-3.42,13.75-5.87,10.26-9.66,10.85-17.12.01-.18.99,1.09,1.14-3.42.04-1.14.03-2.29,0-3.42,4.34-4.16,8.97-7.73,13.7-11.42,2.43,10.35,40.43,12.36,46.81,11.42Z"/>
      <path class="dance-cls-6" d="m417.83,965.79c-1.01.68-12.98,15.05-15.98,18.27q-15.41-10.27-30.82-20.55c.6-1.41.29-5.57,1.14-7.42,7.54-16.35,33.67-53.99,45.66-73.63,11.42-18.7,22.7-36.58,33.11-55.94.47-.87,7.83-8.76,10.27-16.55-21.64-26.75-46.17-52.03-58.22-85.05,8.09-13.76,67.18-58.39,79.34-53.66,7.98,3.11,41.56,123.32,33.68,166.1-8.86,48.09-84.46,107.09-97.04,123.29-.32.42-3.53,5-1.14,5.14Z"/>
    </g>
    <path class="dance-cls-9" d="m401.84,984.06c-4.22,4.52-8.52,9.01-12.56,13.7-7.66-6.79-15.36-13.56-22.83-20.55,1.94-2.59,3.08-10.21,4.57-13.7q15.41,10.27,30.82,20.55Z"/>
    <g>
      <path class="dance-cls-3" d="m471.48,316.22c-41.77-17.29-49.79,9.48-46.81,45.66.65,7.94-2.66,20.55,13.7,29.11-1.93,7.33-1.26,16.73-2.28,23.4-.49,3.22-.43,7.5-1.14,10.27-.07.25-1.74-.64-1.14,5.14-1.43,2.28-3.74,2.55-5.71,4-4.43,3.25-11.78,5.66-17.12,9.13-7.3,4.74-13.36,7.59-19.41,14.27-2.51,2.77-20.39,28.52-22.83,32.54-5.8-1.08-9.36-4.41-13.7-7.99,7.02.15,12.39,6.93,13.13,6.85,1.24-.14,13.02-19.88,13.13-21.12.3-3.61-9.06-19.43-9.13-20.55-.18-2.63,12.64-32.66,15.98-50.23,3.52-18.48,4.05-42.47,6.85-61.65l-6.85.57c3.51-2.56,7.16-2.04,7.99-2.85,3.15-14.38,9.19-30.72,23.97-37.1,13.17-5.69,40.84-6.05,49.09,8.56,2.88,5.11,1.61,7.29,2.28,11.99Z"/>
      <path class="dance-cls-3" d="m355.04,481.76c-37.22-30.71,5.54-57.62,6.85-61.08,2.05-21.16,4.07-52.72,13.7-71.35,5.44-10.52,5.55-8.59,12.56-13.7l6.85-.57c-2.8,19.18-3.33,43.16-6.85,61.65-3.35,17.57-16.16,47.6-15.98,50.23.08,1.12,9.44,16.94,9.13,20.55-.1,1.24-11.89,20.98-13.13,21.12-.74.08-6.11-6.7-13.13-6.85Z"/>
    </g>
    <g>
      <path class="dance-cls-9" d="m471.48,429.24c5.08,18.24,14.15,36.25,13.13,55.94q-28.25-25.69-56.51-51.37c1.96-1.44,4.28-1.72,5.71-4-.6-5.77,1.08-4.88,1.14-5.14q18.27,2.28,36.53,4.57Z"/>
      <path class="dance-cls-12" d="m472.62,415.54c-.47.3-3.07-.83-4.57,1.71,1.72,3.84,2.31,7.99,3.42,11.99q-18.27-2.28-36.53-4.57c.71-2.78.65-7.05,1.14-10.27q18.27.57,36.53,1.14Z"/>
      <g>
        <path class="dance-cls-9" d="m472.62,329.92c15.9,5.73,21.18,27.41,20.55,42.24-3.53,18.93,4.63,28.63-15.98,42.24-.44.29-4.1.84-4.57,1.14q-18.27-.57-36.53-1.14c1.02-6.67.35-16.07,2.28-23.4-16.36-8.56-13.04-21.17-13.7-29.11q5.71,1.43,11.42,2.85c-4.13-13.91,3.15-33.73,18.84-35.96,1.38-.2,16.86.84,17.69,1.14Z"/>
        <path class="dance-cls-12" d="m480.04,364.17c.2.02,2.89,1.37,2.85,2.85-.04,1.46-19.1,27.92-11.42,5.71,1.31-3.8,7.32-8.67,8.56-8.56Z"/>
      </g>
    </g>
    <g>
      <path class="dance-cls-19" d="m559.38,245.44c.31,30.86,1.05,37.3-4.57,69.07-1.83,10.33-22.4,102.01-25.12,111.88-3.3,12.01-9.17,25.37-14.84,36.53-.73,5.55,4.19,12.98,5.71,18.84-14.31,33.17-10.86,61.94-43.95,83.34-14.87,9.62-35.77,13.68-48.52,26.83-2.49,5.67-.21,48.19,9.13,51.94-.16,4.51-1.13,3.24-1.14,3.42-10.92,1.52-23.62,7.02-35.96,7.99-18.85,1.49-44.95-8.37-47.38,1.14-59.01-34.8-10.73-116.1,13.7-158.11,4.38-7.53,2.05-8.18,2.28-8.56,2.44-4.02,20.33-29.77,22.83-32.54,6.05-6.68,12.11-9.53,19.41-14.27,30.92,10.62,51.91,37.05,79.34,53.66,17.02-32.49,2.68-52.57-13.13-82.2,20.61-13.61,12.45-23.31,15.98-42.24,1.57-8.4,14.46-28.14,18.27-38.24,10.98-29.13,15.33-59.95,18.27-90.76q14.84,1.14,29.68,2.28Z"/>
      <path class="dance-cls-18" d="m521.71,485.18c2.73,11.38,6.31,22.41,6.85,34.25-5.51,12.85-11.04,26.26-17.12,38.81-.37.76-5.2,5.34-7.99,14.84-19.76,7.21-35.62,21.2-53.66,30.82-1.34.71-13.56,2.32-19.41,8.56.49,7.02,6.18,11.42,1.14,13.7,5.73,1.4-2.49,10.61,5.71,6.85-4.89,7.01-.01,6.97,0,7.42.03,1.14.04,2.29,0,3.42-9.35-3.75-11.63-46.27-9.13-51.94,12.74-13.15,33.64-17.21,48.52-26.83,33.09-21.4,29.64-50.17,43.95-83.34.22.84.68,1.52,1.14,3.42Z"/>
      <path class="dance-cls-19" d="m436.09,647.29c-.58,7.46,2.9,11.25-10.85,17.12-9.18,3.92-21.52,3.86-31.39,3.42-14.8-.65-28.22-3.82-41.1-11.42,2.42-9.51,28.52.35,47.38-1.14,12.34-.97,25.04-6.47,35.96-7.99Z"/>
      <path class="dance-cls-19" d="m512.58,601.62c-3.3,10.22,4.08,36-14.84,38.81-6.38.95-44.38-1.07-46.81-11.42.36-.28,2-3.77,2.28-5.14,26.92-6.66,37.78-.2,59.36-22.26Z"/>
    </g>
  </g>
</svg>