<?xml version="1.0" encoding="UTF-8"?>
<svg id="Layer_1" data-name="Layer 1" xmlns="http://www.w3.org/2000/svg" viewBox="0 0 1023.98 1024">
  <defs>
    <style>
      .eat-cls-1 {
        fill: #f7eedd;
      }

      .eat-cls-1, .eat-cls-2, .eat-cls-3, .eat-cls-4, .eat-cls-5, .eat-cls-6, .eat-cls-7, .eat-cls-8, .eat-cls-9, .eat-cls-10, .eat-cls-11, .eat-cls-12, .eat-cls-13, .eat-cls-14, .eat-cls-15, .eat-cls-16, .eat-cls-17, .eat-cls-18, .eat-cls-19, .eat-cls-20, .eat-cls-21, .eat-cls-22, .eat-cls-23, .eat-cls-24, .eat-cls-25, .eat-cls-26, .eat-cls-27 {
        stroke-width: 0px;
      }

      .eat-cls-2 {
        fill: #f7c84d;
      }

      .eat-cls-3 {
        fill: #f9b782;
      }

      .eat-cls-4 {
        fill: #f9af3c;
      }

      .eat-cls-5 {
        fill: #48c8bd;
      }

      .eat-cls-6 {
        fill: #610c0a;
      }

      .eat-cls-7 {
        fill: #61131c;
      }

      .eat-cls-8 {
        fill: #25b3aa;
      }

      .eat-cls-9 {
        fill: #891f21;
      }

      .eat-cls-10 {
        fill: #17716b;
      }

      .eat-cls-11 {
        fill: #179d93;
      }

      .eat-cls-12 {
        fill: #058a87;
      }

      .eat-cls-13 {
        fill: #06715e;
      }

      .eat-cls-14 {
        fill: #431015;
      }

      .eat-cls-15 {
        fill: #d2c771;
      }

      .eat-cls-16 {
        fill: #d18029;
      }

      .eat-cls-17 {
        fill: #ce4137;
      }

      .eat-cls-18 {
        fill: #c95a30;
      }

      .eat-cls-19 {
        fill: #dc543b;
      }

      .eat-cls-20 {
        fill: #a5a03a;
      }

      .eat-cls-21 {
        fill: #b43631;
      }

      .eat-cls-22 {
        fill: #b8b64b;
      }

      .eat-cls-23 {
        fill: #fee5ac;
      }

      .eat-cls-24 {
        fill: #fcf7f3;
      }

      .eat-cls-25 {
        fill: #ed9847;
      }

      .eat-cls-26 {
        fill: #f6c8a4;
      }

      .eat-cls-27 {
        fill: #055452;
      }
    </style>
  </defs>
  <g>
    <path class="eat-cls-1" d="m263.5,477.99c5.1-.85,13.55,55.04-15.5,89.5-7.23,8.58-17.14,14.25-25.5,21.5-23.41-36.89-8.78-66.99,25-90,1.38,13.45-20.15,35.64,0,21,20.18-14.66,12.16-41.36,16-42Z"/>
    <path class="eat-cls-10" d="m735.99,657.99c-14.07-1.61-34.03-8.24-48-7q1.5-2,3-4c11.09,2.85,23.94,2.67,45,11Z"/>
  </g>
  <g>
    <path class="eat-cls-25" d="m359.99,591.99c1.16,1.86,1.5,6.2,1,8-.6,2.17-25.37,30.71-29,34.5-14.37,15.01-31.03,26.98-45,42.5-3.25,3.61-6.74,9.26-11,10-.86-2.41-10.37-12.03-12-16,24.9-12.05,73.52-64.3,85.5-73,8.57-6.22,10.01-5.64,10.5-6Z"/>
    <path class="eat-cls-25" d="m287,676.99c1.8,1.42,3.13.81,5,1q-12,16-24,32c-3.48,1.04-7.65,4.91-11,3,3.21-3.57,5.99-7.29,9-11,1.62-1.99,2.63-2.67,5-6,.63-.89,5.8-5.02,6-6.5.23-1.11-.63-1.48-1-2.5,4.26-.74,7.75-6.39,11-10Z"/>
  </g>
  <g>
    <path class="eat-cls-2" d="m420.99,540.99c11.09,4.72,14.53,11.16,19,14-.2,1.91,1.55,3.35,2,5-2.29,1.77-8.05-4.91-14.5-6-31.74-5.37-45.28,22.2-59.5,33-4.76-2.6,5.76-23.9,9.5-28,.61-.67,7.86-5.92,9.5-7,3.35-2.2,8.27-4.42,12-6,4.15-1.75,7.51-3.12,12-4,8.24-1.62,7.34-.86,10-1Z"/>
    <path class="eat-cls-23" d="m441.99,559.99c.94,3.44,1.11,5.42,1,9-32.26-30.37-52.4,6.12-72,25-1.09,1.05-9.67,7.81-10,6,.5-1.8.16-6.14-1-8,2.07-1.52,3.23-1,5.5-1,.54-1.01,1.85-3.51,2.5-4,14.22-10.79,27.76-38.37,59.5-33,6.45,1.09,12.21,7.77,14.5,6Z"/>
    <path class="eat-cls-1" d="m489.99,552.99c-7.94,3.57-15.44,6.33-24,8-3.17-.02-6.33.02-9.5,0l-1.5,1.5c1.44,1.88,1.79,4.22,2,6.5.74,8.15,1.46,11.8-1,20-.91,3.03-3.31,5.46-5,8-12.91,7.22-25.04,9.02-39,12,13.86-7.74,30.5-23.42,31-40,.11-3.58-.06-5.56-1-9-.45-1.65-2.2-3.09-2-5,16.64,10.57,31.64,1.86,50-2Z"/>
    <path class="eat-cls-3" d="m450.99,596.99c-.27.4-.78,1.73-1,2-2.11,2.56-4.11,5.23-7,7-18.08,8.08-25.72,10.12-45,6,5.11.65,9.22-1.98,14-3,13.96-2.98,26.09-4.78,39-12Z"/>
    <path class="eat-cls-24" d="m509.99,539.99c-1.51,4.81-15.47,10.96-20,13-18.35,3.86-33.36,12.57-50,2-4.47-2.84-7.91-9.28-19-14,29.61-1.55,59.45,3.26,89-1Z"/>
    <path class="eat-cls-4" d="m442.99,568.99c-.5,16.58-17.14,32.26-31,40-4.78,1.02-8.89,3.65-14,3-11.51-2.46-21.47-6.87-27-18,19.6-18.88,39.74-55.37,72-25Z"/>
  </g>
  <g>
    <path class="eat-cls-1" d="m511.99,186l27,9c-44.13-.02-126.4,40.69-152,77.5-17.77,25.55-26.36,60.76-27,91.5-.03,1.66-.01,3.34,0,5-12.48-55.52,21-127.18,69.5-157,19.17-11.78,40.7-17.5,62.5-22,3.4-.7,6.54-1.43,10-2,3.34-.55,6.61-1.53,10-2Z"/>
    <path class="eat-cls-27" d="m672.99,509.99c-6.32,13.62-20.42,29.43-36,32,13.46-22.6,11.36-42.23,13.5-43,8.02,6.01,11.24,11.5,22.5,11Z"/>
    <path class="eat-cls-17" d="m705.99,468.99c-.8,4.33-3.75,10.92-7,14-7.35,6.95.14-3.59,1-10.5,3.2-25.61-1.83-41.07-31-38.5,1.05-.72,2.14-1.27,3.5-1,2.2-1.37,1.18-2.96,1.5-4,26.11-2.62,36.39,16.16,32,40Z"/>
    <g>
      <path class="eat-cls-12" d="m725.99,382.99c-.02,22.96-2.6,49.44-11,71-2.15,5.52-5.27,10.43-9,15,4.39-23.84-5.89-42.62-32-40,1.32-4.23,1.16-17.49,1-23,19.17-1.08,37.12-9.97,51-23Z"/>
      <g>
        <path class="eat-cls-8" d="m657.99,231c43.2,35.22,62.53,72.41,67,128-23.72-.19-42.86-15.28-64-24-3.5-10.81-36.02-89.2-40-96,12.74-.59,24.67-5.45,37-8Z"/>
        <path class="eat-cls-11" d="m724.99,358.99c.65,8.03,1.01,15.94,1,24-13.88,13.03-31.83,21.92-51,23-.64-22.65-6.99-49.37-14-71,21.14,8.72,40.28,23.81,64,24Z"/>
      </g>
      <path class="eat-cls-5" d="m584.99,161c-24.2-5.02-7.47,3.25,11,24-.92-.29-2.53-.57-4-1-13.31-3.87-26.96-6.16-40.5-9l30.5,17.5c-6.6,2.76-17.32.4-18,5.5-.57-.15-1.41.14-2,0-7.3-1.68-15.49-3-23-3l-27-9c41.43-5.76,41.1,6.41,22-20.5,32.03-26,35.03-21.05,51-4.5Z"/>
      <path class="eat-cls-12" d="m595.99,185c3.3,1.05,8.71,2.45,10,3,.67.29,2.85.92,3,1,8.77,4.5,12.64,11.18,19,18,.06,3.84-.8,7.04,0,9-.34.28.33,4.82-6.5,4-11.83-15.38-37.04-26.24-29.5-36,1.47.43,3.08.71,4,1Z"/>
      <path class="eat-cls-5" d="m627.99,207c-6.36-6.82-10.23-13.5-19-18-1.46-5.25-10.21-37.92-7.5-40,14.55,16.05,26.18,36.21,26.5,58Z"/>
      <g>
        <path class="eat-cls-11" d="m591.99,184c-7.54,9.76,17.67,20.62,29.5,36,6.83.82,6.16-3.72,6.5-4,.86-.7,2.1-1.33,3-2,15.54,5.84,34.9,4.48,49,14-11.63,4.72-13.15,1.17-22,3-12.33,2.55-24.26,7.41-37,8-11.03-18.84-35.79-35.56-57-41,.68-5.1,11.4-2.74,18-5.5l-30.5-17.5c13.54,2.84,27.18,5.13,40.5,9Z"/>
        <path class="eat-cls-5" d="m679.99,228c-14.1-9.52-33.46-8.16-49-14,.13-.1-.19-2.48,1.5-3,3.98-1.24,49.3,3.79,61,2,1.52.82-2.77,10.64-13.5,15Z"/>
      </g>
      <path class="eat-cls-11" d="m584.99,161c8.01,8.3,15.27,16.94,21,27-1.29-.55-6.7-1.95-10-3-18.47-20.75-35.2-29.02-11-24Z"/>
    </g>
    <g>
      <path class="eat-cls-7" d="m809.99,87c10.17,9.07,14.56,9.96,22,23.5,28.28,51.47-7.35,94.01-35.5,97.5-28.61,3.55-135.84-37.12-145-74-6.82-3.9-33.83,17.34-40,22-18.02-9.48-25.21-50.97-32.5-53,13.93-65.26,136.54-82.59,154.5-21,22.63-11.28,54.46-5.86,76.5,5Z"/>
      <path class="eat-cls-7" d="m569.99,104c13.01-1.37.36,18.09-2,39.5-13.47,4.11-25.53,11.37-36,21l11,17c-20.58,6.05-19.12-10.15-22.5-10.5-6.01,5.76-15.36,9.02-18.5,17-3.46.57-6.6,1.3-10,2-3.11-45.48,33.59-82.81,78-86Z"/>
      <g>
        <path class="eat-cls-14" d="m714.99,453.99c8.4-21.56,10.98-48.04,11-71,0-8.06-.35-15.97-1-24-4.47-55.59-23.8-92.78-67-128,8.85-1.83,10.37,1.72,22-3,10.73-4.36,15.02-14.18,13.5-15-11.7,1.79-57.02-3.24-61-2-1.69.52-1.37,2.9-1.5,3-.9.67-2.14,1.3-3,2-.8-1.96.06-5.16,0-9-.32-21.79-11.95-41.95-26.5-58-2.71,2.08,6.04,34.75,7.5,40-.15-.08-2.33-.71-3-1-5.73-10.06-12.99-18.7-21-27-15.97-16.55-18.97-21.5-51,4.5,19.1,26.91,19.43,14.74-22,20.5-3.39.47-6.66,1.45-10,2,3.14-7.98,12.49-11.24,18.5-17,3.38.35,1.92,16.55,22.5,10.5l-11-17c10.47-9.63,22.53-16.89,36-21,2.36-21.41,15.01-40.87,2-39.5,1.78-.13,4.54-1.66,9-1,7.29,2.03,14.48,43.52,32.5,53,6.17-4.66,33.18-25.89,40-22,9.16,36.88,116.38,77.55,145,74,28.15-3.49,63.78-46.03,35.5-97.5-7.44-13.54-11.83-14.43-22-23.5,59.22,29.18,58.83,89.91,16,134.5,12.78,5.86,22.64,18.46,26,32,16.71,67.26-46.38,153.17-112.5,168.5q-12.25,16-24.5,32Z"/>
        <path class="eat-cls-7" d="m807.49,233c7.13-1.33,8.1,4.35,0,8-.45.2-4.69-2.28-7,0-.34.34-1.27,6.41-3.5,8.5-8.34,7.8,4.7-15.41,10.5-16.5Z"/>
      </g>
    </g>
    <g>
      <path class="eat-cls-8" d="m826.99,935.99c17.75,32.3,17.06,61.55-10,88-21.33.03-42.67-.02-64,0-10.82-23.4-21.4-47-28-72,18.83-10.25,39.22-42.33,39-55,21.24,12.62,42.77,24.73,63,39Z"/>
      <path class="eat-cls-12" d="m721.99,814.99c.55,3.65,3.19,9.25,5,12.5,25.15,45.16,37.66,43.84,52,56.5,5.49,4.84,10.39,10.33,16,15,21.48,17.9,46.75,52.82,87,29,5.25,31.92,10.61,63.69,13,96-17,.03-34-.02-51,0,46.64-40.86,21.78-60.64-17-88-20.22-14.27-41.76-26.38-63-39-.02-1.17.01-2.33,0-3.5-4.87-13.25-71.99-13.27-50-85.5,2.63,2.25,5.56,4.57,8,7Z"/>
      <g>
        <path class="eat-cls-12" d="m288,917.99c.65,3.06-2.56,1.42-3,2.5-3.29,8-1.68,86.98-1,103.5-13.33-.01-26.67.01-40,0-9.68-40.79-12.06-82.25-10-124,13.25,17.55,33.06,21.03,54,18Z"/>
        <path class="eat-cls-10" d="m316.99,1023.98c-11,0-22,0-33,0-.68-16.52-2.29-95.5,1-103.5.44-1.08,3.65.56,3-2.5,6.57-.95,16.08-3.32,21-8-4.17,38.41-2.08,76.69,8,114Z"/>
      </g>
      <g>
        <path class="eat-cls-12" d="m643.99,937.99c15.74,58.67-49.68,78.79-94,86-30,.01-60,.01-90,0-73.82-11.42-150.07-46.01-137.5-134,29.29,4.74,105.96,29.3,124,31,58.06,5.47,180.92-44.78,197.5,17Z"/>
        <path class="eat-cls-27" d="m600.99,869.99c13.25,5.11,41.47,5.74,49,19.5,2.14,3.91,11.75,65.91,19,73,2.5,2.45,4.99,1.36,8,1.5q14,30,28,60c-16.67.01-33.33-.01-50,0,8.21-13.99,8.13-30.94,6-46.5-.99-7.25-9.61-39.7-17-39.5-16.58-61.78-139.44-11.53-197.5-17-18.04-1.7-94.71-26.26-124-31-12.58,87.99,63.68,122.58,137.5,134-47.67-.02-95.33.03-143,0-10.08-37.31-12.17-75.59-8-114,6.33-6.02,4.51-13.68,5-22l6-21c85.15,26.42,194.4,23.29,281,3Z"/>
        <path class="eat-cls-10" d="m654.99,1023.98c-35,.02-70-.01-105,0,44.32-7.2,109.74-27.33,94-86,7.39-.2,16.01,32.25,17,39.5,2.13,15.55,2.21,32.51-6,46.5Z"/>
      </g>
      <path class="eat-cls-12" d="m713.99,956.98q12.5,33.5,25,67c-11.33,0-22.67,0-34,0q-14-30-28-60c7.47.34,20.33-2.94,28-5,3.36-.9,7.8-1.57,9-2Z"/>
      <path class="eat-cls-11" d="m843.99,1023.98c-9,.01-18-.01-27,0,27.06-26.45,27.75-55.7,10-88,38.78,27.36,63.64,47.14,17,88Z"/>
      <path class="eat-cls-11" d="m724.99,951.98c6.6,25,17.18,48.6,28,72-4.67,0-9.33,0-14,0q-12.5-33.5-25-67c.65-.23,10.24-4.58,11-5Z"/>
      <path class="eat-cls-8" d="m735.99,657.99c76.85,30.41,121.37,148.44,138,223-14.94,15.63-36.96,23.62-58.5,22-7.02-.53-15.83-5.01-20.5-4-5.61-4.67-10.51-10.16-16-15-13.98-30.15-35.06-47.13-57-69-2.44-2.43-5.37-4.75-8-7-7.41-18.77-4.04-87.53-19.5-91-16.37-3.68-18.47,22.58-21.5,33q-5-2.5-10-5c2-27.92-7.93-17.9-3-40.5,3.48-15.92,18.06-39.38,27-53.5.33-.02.67.03,1,0,13.97-1.24,33.93,5.39,48,7Z"/>
      <path class="eat-cls-11" d="m881.99,927.99c-40.25,23.82-65.52-11.1-87-29,4.67-1.01,13.48,3.47,20.5,4,21.54,1.62,43.56-6.37,58.5-22,3.51,15.74,5.4,31.17,8,47Z"/>
      <path class="eat-cls-11" d="m778.99,883.99c-14.34-12.66-26.85-11.34-52-56.5-1.81-3.25-4.45-8.85-5-12.5,21.94,21.86,43.01,38.85,57,69Z"/>
      <path class="eat-cls-13" d="m672.99,749.99c-1.32,4.53-1.96,9.15-4,13.5-1.72,1.19-4.97.12-7,.5-.73-6.42.55-12.67,1-19q5,2.5,10,5Z"/>
    </g>
    <g>
      <path class="eat-cls-14" d="m563.99,198c21.21,5.44,45.97,22.16,57,41,3.98,6.8,36.5,85.19,40,96,7.01,21.63,13.36,48.35,14,71,.16,5.5.32,18.77-1,23-.32,1.04.7,2.63-1.5,4-1.36-.27-2.45.28-3.5,1-16.95,11.65-15.51,12.7-21.5,34q-12.75-9.5-25.5-19c-2.29-4.38-6.31-8.98-9-14.5-1.45-16.57-51.17-98.01-58-106-3.23-3.78-12.43-12.49-16.5-14.5-23.35-11.56-107.01-5.45-124,7-19.38,14.21-39.55,88.78-39.5,114-10.3-20.49-14.83-43.2-15-66-.01-1.66-.03-3.34,0-5,3.56.22,2.74-9.93,4-15.5,5.23-23.15,20.33-49.82,30.5-71.5,10.78,30.86,47.91,13.53,74,11,26.44-2.57,53.27-.78,79-9,4.96,1.41,4.24,38.38,40.5,27.5.64,7.65-.87,17.9,0,25,1.63,13.32,21,66.18,35,68,14.1,23.71,17.46,37.43,24,0,2.55-14.6,4.98-51.58-4-63-11.29-14.36-30.97-3.16-32-7,17.13-22.41,28.9-29.25,21-60-6.35-24.74-23.14-48.17-45.5-60.5-9.51-5.24-22.59-7.5-24.5-11,.59.14,1.43-.15,2,0Z"/>
      <path class="eat-cls-7" d="m538.99,195c7.51,0,15.7,1.32,23,3,1.9,3.5,14.99,5.76,24.5,11,22.36,12.33,39.15,35.76,45.5,60.5,7.9,30.75-3.87,37.59-21,60,1.03,3.84,20.71-7.36,32,7,8.98,11.42,6.55,48.4,4,63-6.54,37.43-9.9,23.71-24,0-14-1.82-33.37-54.67-35-68-.87-7.1.64-17.35,0-25-36.26,10.88-35.54-26.09-40.5-27.5-25.73,8.22-52.56,6.43-79,9-26.09,2.53-63.22,19.86-74-11-10.17,21.68-25.27,48.35-30.5,71.5-1.26,5.57-.44,15.72-4,15.5.64-30.74,9.23-65.95,27-91.5,25.6-36.81,107.87-77.52,152-77.5Z"/>
    </g>
    <g>
      <path class="eat-cls-9" d="m690.99,646.99q-1.5,2-3,4c-.33.03-.67-.02-1,0-3.58,1.3-5.81,1.34-9,4-27.37-9.33-39.77.37-59,7-.72-2.4-2.6-2.11-4.5-2-15.25.89-30.8,4.49-46,5-23.43.79-54.68-3.35-77-11-3.05-3.63,10.74-12.08,7-14-27.08,5.12-59.15,10.98-85,20-7.56,2.64-19.88,13.79-21.5,4,23.22-14.92,49.95-25.81,76.5-33,10.13-2.74,20.92-3.57,31-6,.74-.18.51-1.33.5-2,.52,1.85,19.83,13.42,22.5,14,4.56,1,6.71.28,11-1,14.33-4.26,63.53-36.99,72.5-53,1.33,6.17,8.34,43.19,10.5,45,24.9,6.08,49.68,12.62,74.5,19Z"/>
      <path class="eat-cls-7" d="m604.99,577.99c-.22,1.84.62,3.26,1,5-8.96,16.01-58.17,48.73-72.5,53-4.29,1.28-6.44,2-11,1-2.67-.58-21.98-12.15-22.5-14-.16-.56-.13-2.34,0-3,.04-.21,1.08.13,1.5-4,29.94-4.03,75.19-23.36,101-39,1-.61,1.58,1.08,2.5,1Z"/>
      <path class="eat-cls-9" d="m618.99,661.99c-7.7,2.65-16.42,7.54-24.5,10-30.96,9.42-65.31,13.37-97.5,11-1.23-.96-8.63-6.18-9.5-6l-.5,14.5c-.23.86-1.97.4-2,.5h-2c-43.05.77-86.12-3.56-129,2,12.12-10.64,24.39-21.26,38-30,1.62,9.79,13.93-1.36,21.5-4,25.85-9.02,57.92-14.88,85-20,3.74,1.92-10.05,10.37-7,14,22.31,7.65,53.57,11.79,77,11,15.2-.51,30.75-4.11,46-5,1.9-.11,3.78-.4,4.5,2Z"/>
      <path class="eat-cls-17" d="m677.99,654.99c-11.18,9.35-25.9,42.07-29.5,57-46.1-11.23-93.57-13.34-140.5-19-6.13-4.32-7.86-7.53-11-10,32.19,2.37,66.54-1.58,97.5-11,8.08-2.46,16.8-7.35,24.5-10,19.23-6.63,31.63-16.33,59-7Z"/>
    </g>
    <g>
      <path class="eat-cls-9" d="m229,752.99c-5.95,6.08-4.87,7.93-1,21-27.32,9.71-16.2,38.3,8.5,52,7.11,3.94,29.24,12.3,28.5,7,10.76,20.55,26.83,37.36,47.5,48,4.59-10.87,1.82,1.49,1.5,7-.49,8.32,1.33,15.98-5,22-4.92,4.68-14.43,7.05-21,8-20.94,3.04-40.74-.45-54-18,.81-16.43.21-32.81,7-48.5-26.14-14.12-47.93-50.34-58-77.5,4.44-1.99,7.56-5.76,8-6,.26-.14.74.14,1,0,19.4,9.69,20.35,16,31,4.5q-9.5-4.75-19-9.5c8.11-3.65,16.43-7.53,25-10Z"/>
      <path class="eat-cls-9" d="m244,734.99c.09.29,2.86.26,4,4.5,13.59,50.39,15.82,90.92,72,126.5v1l-6,21c.32-5.51,3.09-17.87-1.5-7-20.66-10.64-36.74-27.45-47.5-48-9.68-18.48-12.67-38.34-20-57.5-1.13-2.95-2.91-3.29-3-3.5-1.23-3.02-7.03-20.66-8-21.5-1.46-1.27-3.27,1.32-4,.5-2.56-2.89-5.55-9.81-6.5-10-1.67-.33-17.56,12.99-29.5,17-3.5,1.18-11.76,2.3-16,3-1.14-5.47-1.89-11.41-2-17q34-4.5,68-9Z"/>
      <path class="eat-cls-17" d="m264,670.99c1.63,3.97,11.14,13.59,12,16,.37,1.02,1.23,1.39,1,2.5-.2,1.48-5.37,5.61-6,6.5-29.22,6.47-73.33.97-92,22,8.26-33.24,28.99-28.18,43.5-35,11.83-5.56,14.54-19.58,41.5-12Z"/>
      <path class="eat-cls-17" d="m266,701.99c-3.01,3.71-5.79,7.43-9,11-7.84,8.73-17.05,8.98-13,22q-34,4.5-68,9c-.1-5.21.31-11.84,1-17,30.54-5.19,59.34-16.49,89-25Z"/>
      <path class="eat-cls-9" d="m271,695.99c-2.37,3.33-3.38,4.01-5,6-29.65,8.51-58.46,19.81-89,25,.34-2.56,1.34-6.35,2-9,18.67-21.03,62.78-15.53,92-22Z"/>
      <path class="eat-cls-17" d="m194,757.99c-2.44,3.79-7.26,5.74-3,10-.44.24-3.56,4.01-8,6-.66-1.77-3.57-6.12-5-13,4.24-.7,12.5-1.82,16-3Z"/>
      <path class="eat-cls-17" d="m242,771.99c.09.21,1.87.55,3,3.5,7.33,19.16,10.32,39.01,20,57.5.74,5.3-21.39-3.06-28.5-7-24.7-13.7-35.82-42.28-8.5-52,4.27-1.52,9.44-2.24,14-2Z"/>
      <path class="eat-cls-16" d="m230,750.99c-.15.53-.92,1.92-1,2-8.57,2.47-16.89,6.35-25,10-3.85,1.74-8.27,3.09-12,5-.26.14-.74-.14-1,0-4.26-4.26.56-6.21,3-10,11.94-4.01,27.83-17.33,29.5-17,.95.19,3.94,7.11,6.5,10Z"/>
      <path class="eat-cls-9" d="m242,771.99c-4.56-.24-9.73.48-14,2-3.87-13.07-4.95-14.92,1-21,.08-.08.85-1.47,1-2,.73.82,2.54-1.77,4-.5.97.84,6.77,18.48,8,21.5Z"/>
      <path class="eat-cls-21" d="m192,767.99c3.73-1.91,8.15-3.26,12-5q9.5,4.75,19,9.5c-10.64,11.5-11.59,5.19-31-4.5Z"/>
    </g>
    <g>
      <g>
        <path class="eat-cls-9" d="m509.99,531.99c-.29,3.03.95,4.97,0,8-29.55,4.26-59.39-.55-89,1-2.66.14-1.76-.62-10,1-25.32-36.84-17.86-20.37,4.5-12,9.71,3.64,32.48,7.74,24,4,23.45-.48,47.15,1.32,70.5-2Z"/>
        <path class="eat-cls-7" d="m465.99,560.99c8.56-1.67,16.06-4.43,24-8,4.53-2.04,18.49-8.19,20-13,.95-3.03-.29-4.97,0-8,20.17-2.87,32.19-10,33-8.5-7.48,12.46-47.28,34.98-59.5,37.5-6.23,1.28-11.44.05-17.5,0Z"/>
        <path class="eat-cls-9" d="m455.99,588.99c2.46-8.2,1.74-11.85,1-20q12.5,1.25,25,2.5-13,8.75-26,17.5Z"/>
        <g>
          <path class="eat-cls-17" d="m621.99,448.99c11.19,21.43,17.77,19.01,8,46.5-19.08,53.73-121.49,129.51-180,103.5.22-.27.73-1.6,1-2,1.69-2.54,4.09-4.97,5-8q13-8.75,26-17.5-12.5-1.25-25-2.5c-.21-2.28-.56-4.62-2-6.5l1.5-1.5c3.17.02,6.33-.02,9.5,0,6.06.05,11.27,1.28,17.5,0,12.22-2.52,52.02-25.04,59.5-37.5-.81-1.5-12.83,5.63-33,8.5-23.35,3.32-47.05,1.52-70.5,2,8.48,3.74-14.29-.36-24-4-22.36-8.37-29.82-24.84-4.5,12-4.49.88-7.85,2.25-12,4-9.63-6.09-16.98-11.96-24-21-8.87-33.35,3.72-73.54,0-90-.05-25.21,20.11-99.79,39.5-114,16.99-12.45,100.65-18.56,124-7,4.07,2.01,13.27,10.72,16.5,14.5,6.83,7.99,56.55,89.43,58,106,2.69,5.52,6.71,10.12,9,14.5Z"/>
          <g>
            <path class="eat-cls-9" d="m398.99,545.99c-3.73,1.58-8.65,3.8-12,6-3.62-7.94-9.83-18.85-12-27,7.02,9.04,14.37,14.91,24,21Z"/>
            <path class="eat-cls-14" d="m530.49,382.99c16.35-1.05,41.45,8.88,51.5,22.5,17.19,23.29-6.46,1.94-18.5-2.5-20.62-7.6-46.07-7.23-65,5-6.89-.47,10.13-23.59,32-25Z"/>
            <path class="eat-cls-14" d="m514.49,444.99c-27.52,39.31,47.24,33.62,64,15-17.2,49.5-107.1,30.56-64-15Z"/>
            <path class="eat-cls-14" d="m435.49,441.99c22.3,44.83-54.91,62.45-55.5,25.5-.16-10.29,5.52,3.58,17.5,5.5,20.46,3.27,43.87-6.65,38-31Z"/>
            <path class="eat-cls-9" d="m433.49,486.99c18.87,30.67,57.81,3.63,59.5,6.5,10.33,17.57-77.77,39.08-59.5-6.5Z"/>
            <path class="eat-cls-14" d="m408.49,385.99c10.24-1.5,24.24,2.73,30.5,11.5,16.25,22.75-5.8.48-28.5,1.5-3.7.17-15.25,3.36-19,5-5.31,2.32-19.7,15.23-2.5-5.5,4.03-4.86,13.21-11.58,19.5-12.5Z"/>
            <path class="eat-cls-6" d="m443.49,483.99q6.25,1.25,12.5,2.5c-4.12,2.41-11.16,2.89-12.5-2.5Z"/>
          </g>
        </g>
        <g>
          <path class="eat-cls-9" d="m698.99,482.99c-4.73,10.72-13.24,26.43-26,27-11.26.5-14.48-4.99-22.5-11-2.14.77-.04,20.4-13.5,43-3.85,6.47-25.97,32.19-32,36-.92.08-1.5-1.61-2.5-1-25.81,15.64-71.06,34.97-101,39-.42,4.13-1.46,3.79-1.5,4,0-.67.24-1.82-.5-2-2.89-.69-37.26,5.01-56.5-12,2.89-1.77,4.89-4.44,7-7,58.51,26.01,160.91-49.77,180-103.5,9.77-27.49,3.19-25.07-8-46.5q12.75,9.5,25.5,19c5.99-21.3,4.55-22.35,21.5-34,29.17-2.57,34.2,12.89,31,38.5-.86,6.91-8.35,17.45-1,10.5Z"/>
          <path class="eat-cls-17" d="m681.99,457.99c34.48,32.92-15.15,54.35-19,31.5-.58-3.45-.28-17.34,5-15.5,17.27,23.65,10.53-12.76,12-16.5.49-1.25,1.18.76,2,.5Z"/>
          <path class="eat-cls-7" d="m681.99,457.99c-.82.26-1.51-1.75-2-.5-1.47,3.74,5.27,40.15-12,16.5-16.31-22.34,16.23-38.85,19-19.5.67,4.71-1.69,2.45-5,3.5Z"/>
        </g>
      </g>
      <g>
        <path class="eat-cls-9" d="m704.99,958.98c-7.67,2.06-20.53,5.34-28,5-3.01-.14-5.5.95-8-1.5-7.25-7.09-16.86-69.09-19-73-7.53-13.76-35.75-14.38-49-19.5-14.64-5.65-71.47-43.13-83-55-5.35-5.51-7.87-10.04-12-16,32.59,10.71,64.14,26.61,95.5,41,3.4-.58,2.85-7.06,1.5-9.5q-52.5-21.75-105-43.5c-1.74-3.5-4.51-5.41-4-10,34.64,4.76,72.76,26.59,107.5,37,6.62,21.91,51.03,48.56,73,59,6.88,5.97,29.49,71.71,30.5,86Z"/>
        <path class="eat-cls-17" d="m713.99,807.99c-22,72.23,45.13,72.24,50,85.5.01,1.17-.02,2.33,0,3.5.22,12.67-20.17,44.75-39,55-.76.41-10.35,4.77-11,5-1.2.43-5.63,1.1-9,2-1.01-14.29-23.62-80.03-30.5-86-21.97-10.44-66.38-37.09-73-59-34.73-10.4-72.86-32.24-107.5-37,2.28-20.52,37.09-9.43,48-3,3,7.25,67.35,26.7,75.5,25,3.52-.73,6.43-6.28,5.5-9.5-1.78-6.18-66.21-33.96-77-35.5,1.04-1.11,2.14-2.7,3-4,16.91-.01,24.64-.56,42,2,20.62,3.04,52.51,15.44,71,12,2.03-.38,5.28.69,7-.5,2.04-4.35,2.68-8.97,4-13.5,3.03-10.42,5.13-36.68,21.5-33,15.46,3.47,12.09,72.22,19.5,91Z"/>
        <path class="eat-cls-17" d="m505.99,798.99c-2.76-3.98-5.82-7.61-8-12q52.5,21.75,105,43.5c1.35,2.44,1.9,8.92-1.5,9.5-31.36-14.39-62.91-30.28-95.5-41Z"/>
        <path class="eat-cls-9" d="m541.99,773.99c-3-7.26-.78-14.92,4-20,10.79,1.54,75.22,29.32,77,35.5.93,3.22-1.98,8.77-5.5,9.5-8.15,1.7-72.5-17.75-75.5-25Z"/>
      </g>
    </g>
    <path class="eat-cls-18" d="m278,707.99c-2.87.75-6.98,1.1-10,2q12-16,24-32c17.67,1.79-12.78,22.87-14,30Z"/>
    <g>
      <path class="eat-cls-26" d="m517.99,814.99c11.53,11.87,68.36,49.35,83,55-86.59,20.29-195.84,23.42-281-3v-1l1-3.5c-24.23-26.51-44.28-58.84-53-94-7.7-31.04-4.39-19.52,20.5-14.5,17.21,3.47,34.81,5.35,52,9,11.23,59.98,79.52,93.75,136,79,9.3-2.43,39.81-16.42,41.5-27Z"/>
      <path class="eat-cls-1" d="m662.99,744.99c-.45,6.33-1.73,12.58-1,19-18.49,3.44-50.38-8.96-71-12,0-.66-.28-1.73.5-2,11.37-4,32.9-4.97,42.5-13-3.21-7.11-74.82-21.16-86-21-13.92-6.76-27.32-14.07-40-23,46.93,5.66,94.4,7.77,140.5,19,3.6-14.93,18.32-47.65,29.5-57,3.18-2.66,5.42-2.7,9-4-8.94,14.12-23.52,37.58-27,53.5-4.93,22.6,5,12.58,3,40.5Z"/>
      <path class="eat-cls-1" d="m482.99,691.99c-14.19,12.84-43.24,21.2-62,29-7.71-14.18-30-18.87-44.5-17-3.38.44-12.9,4.57-17.5,6-20.22,6.28-38.64,16.07-55,29.5.08,3.46,11.43,4.08,20,5.5,27.02,4.46,79.35,8.5,107,9,17.04.31,33.98-.68,51-1,22.33-2.02,44.57-2.98,67-3-.86,1.3-1.96,2.89-3,4-4.78,5.08-7,12.74-4,20-10.91-6.43-45.72-17.52-48,3-.51,4.59,2.26,6.5,4,10,2.18,4.39,5.24,8.02,8,12,4.13,5.95,6.65,10.49,12,16-1.69,10.58-32.2,24.57-41.5,27-56.48,14.75-124.77-19.01-136-79-17.19-3.65-34.79-5.53-52-9-24.89-5.02-28.2-16.54-20.5,14.5,8.72,35.16,28.77,67.49,53,94l-1,3.5c-56.18-35.57-58.41-76.11-72-126.5-1.14-4.24-3.91-4.21-4-4.5-4.05-13.02,5.16-13.27,13-22,3.35,1.91,7.52-1.96,11-3,3.02-.9,7.13-1.25,10-2,25.16-6.56,50.28-10.45,76-14,42.87-5.56,85.95-1.23,129-2Z"/>
      <path class="eat-cls-26" d="m484.99,691.99c-7.92,27.76-20.54,26.86-47.5,30-2.24,1.5-2.55,3.75-3.5,6-1.19,2.82-2.7,9.96-3,13-2.07.44-3.06-.9-5-1-4.47.49,2.24-5.69-5-19,18.76-7.8,47.81-16.16,62-29h2Z"/>
      <g>
        <path class="eat-cls-22" d="m496.99,682.99c3.14,2.47,4.87,5.68,11,10,12.68,8.93,26.08,16.24,40,23,24.44,11.86,58.81,27,86,21-9.6,8.03-31.13,9-42.5,13-.78.27-.5,1.34-.5,2-17.36-2.56-25.09-2.01-42-2-22.42.02-44.67.98-67,3-13.8-9.33-32.38-16.47-48-25,.95-2.25,1.26-4.5,3.5-6,26.96-3.14,39.58-2.24,47.5-30,.03-.1,1.77.36,2-.5l.5-14.5c.87-.18,8.27,5.04,9.5,6Z"/>
        <path class="eat-cls-15" d="m633.99,736.99c-27.19,6-61.56-9.14-86-21,11.18-.16,82.79,13.89,86,21Z"/>
        <path class="eat-cls-20" d="m481.99,752.99c-17.02.32-33.96,1.31-51,1,.81-3.23-.23-10.72,0-13,.3-3.04,1.81-10.18,3-13,15.62,8.53,34.2,15.67,48,25Z"/>
      </g>
      <path class="eat-cls-26" d="m358.99,709.99q-2.5,2-5,4c-10.2,3.98-27.55,19.45-30,31-8.57-1.42-19.92-2.04-20-5.5,16.36-13.43,34.78-23.22,55-29.5Z"/>
    </g>
    <g>
      <path class="eat-cls-17" d="m425.99,739.99c1.94.1,2.93,1.44,5,1-.23,2.28.81,9.77,0,13-27.65-.5-79.97-4.54-107-9,2.44-11.55,19.8-27.02,30-31,26-6.25,56.23-13.87,67,18.5,1.57,4.72-4.96,7,5,7.5Z"/>
      <path class="eat-cls-19" d="m420.99,720.99c7.24,13.31.53,19.49,5,19-9.96-.5-3.43-2.78-5-7.5-10.77-32.37-41-24.75-67-18.5q2.5-2,5-4c4.6-1.43,14.11-5.56,17.5-6,14.5-1.87,36.79,2.82,44.5,17Z"/>
    </g>
  </g>
</svg>