<?xml version="1.0" encoding="UTF-8"?>
<svg id="svg2" xmlns="http://www.w3.org/2000/svg" viewBox="0 0 1015.84 342.2">
  <defs>
    <style>
      .cls-1, .cls-2, .cls-3, .cls-4, .cls-5 {
        stroke: #000;
        stroke-miterlimit: 3.6;
      }

      .cls-1, .cls-3, .cls-4 {
        stroke-width: .9px;
      }

      .cls-1, .cls-5, .cls-6 {
        fill: #ffe6d5;
      }

      .cls-2 {
        stroke-width: .56px;
      }

      .cls-7, .cls-8, .cls-9, .cls-10, .cls-11, .cls-6, .cls-12 {
        stroke-width: 0px;
      }

      .cls-3 {
        fill: none;
      }

      .cls-5 {
        stroke-width: 1px;
      }

      .cls-8 {
        fill: #d45500;
      }

      .cls-9 {
        fill: #ff8029;
      }

      .cls-10 {
        fill: #ff7f28;
      }

      .cls-11 {
        fill: #fff;
      }

      .cls-12 {
        fill-rule: evenodd;
      }
    </style>
  </defs>
  <g id="layer1">
    <g id="g3392">
      <path id="path3835" class="cls-3" d="m341.65,323.22c-6.68,10.29-16.26,19.61-32.28,18.44-6.51-.48-8.94-5.41-8.94-5.41,10.01.05,19.73-9.57,21.67-19.73l2.8-6,2.5,5.82,3.41-5.82c.17,1.87,2.11,3.4,1.89,5.3l3.06-5.3,2.24,5.1,2.84-5.1,2.45,4.57-1.62,8.13Z"/>
      <path id="path3837" class="cls-1" d="m501.49,313.84c18.2,1.71,24.88-5.6,35.99-11.84l-1.22,2.61,6.61.19-.83,4.11,9.83-.34c-25.81,21.39-54.66,16.05-50.38,5.27h0Z"/>
      <path id="path4968" class="cls-10" d="m343.33,320.99c.51-13.71-3.11-27.56-10.28-39.26-9.55-15.6-24.69-26.78-39.12-38.01-11.04-8.6-22-17.58-30.46-28.73-2.82-3.72-5.35-7.65-7.55-11.76,6.72,4.62,13.71,8.84,20.93,12.63,9.69,5.09,19.79,9.42,30.21,12.75,15.73,5.03,32.28,7.79,48.79,7.06,23.13-1.03,45.52-8.88,66.12-19.44,10.36-5.31,20.48-11.37,31.7-14.49,13.34-3.71,27.63-3.03,41.11.12,17.23,4.03,33.79,12.3,45.69,25.38,7.94,8.73,13.73,19.71,14.86,31.45,1.12,11.66-2.45,23.57-9.18,33.15-3.79,5.4-8.55,10.11-13.99,13.84l-1.09,2.96,6.61.19-.83,4.11,9.83-.34c7.67-6.19,14.82-13.03,21.36-20.41,12.71-14.37,23.34-31.66,24.87-50.78.81-10.15-.98-20.33-3.2-30.28-2.23-9.94-4.9-19.83-5.9-29.96-.83-8.34-.5-16.84,1.49-24.98,1.99-8.14,5.67-15.93,11.12-22.3,6.97-8.15,16.79-13.82,27.34-15.76-17.94-8.73-36.92-15.33-56.41-19.61-48.15-10.57-98.27-6.85-147.09,0-33.61,4.71-67.04,10.89-100.86,13.66-31.87,2.61-64.59,2.09-94.91-8.06-26.96-9.02-51.96-26.32-65.84-51.13-6.37-11.37-10.38-24.18-18.56-34.32-7.59-9.4-18.6-15.98-30.47-18.21-.53,8.48.43,17.06,2.8,25.22,1.07,3.69,2.43,7.29,3.21,11.06.77,3.76.92,7.76-.4,11.36-1.17,3.17-3.43,5.87-6.1,7.94-2.67,2.08-5.74,3.57-8.88,4.85-6.27,2.54-13.03,4.32-18.29,8.57-3.73,3.01-6.46,7.08-8.62,11.35-2.16,4.27-3.81,8.78-5.74,13.16-5.19,11.81-12.65,22.93-23.11,30.47-9.01,6.49-20.07,10.09-31.17,10.16,1.32,2.41,2.26,5.01,2.8,7.7.52,2.62.66,5.33.39,7.99,9.8,1.24,19.84.53,29.37-2.09,7.31-2.01,14.26-5.11,21.3-7.92,11.2-4.48,23.24-8.29,35.17-6.44,11.79,1.83,22.14,9.08,30.27,17.8s14.4,18.98,21.24,28.75c6.87,9.82,14.4,19.27,23.38,27.19,8.99,7.93,19.51,14.32,31.1,17.38,7.91,2.09,16.14,2.61,24.26,3.71,8.11,1.1,16.33,2.88,23.29,7.19,7.83,4.85,13.65,12.85,15.85,21.79,7.34,5.29,14.56,10.73,21.67,16.33,7.45,5.87,14.89,12.04,20.05,20.01,4.35,6.73,6.91,14.53,7.97,22.47.18,1.32.31,2.64.41,3.97l3.1-4.51,2.5,5.82,3.41-5.82,1.89,5.3,3.06-5.3,2.24,5.1,2.84-5.1,2.45,4.57"/>
      <path id="path3966" class="cls-5" d="m725.29,294.87l4.05,4.66,3.81-4.85,4.47,4.54,4.44-5.46c6.76,27.33-12.73,31.67-20.79,30.68-5.36-.65,5.67-8.82,2.05-29.71l1.97.14Z"/>
      <path id="path4950" class="cls-8" d="m723.81,300.74l1.48-4.07,4.05,4.66,3.81-4.85,4.47,4.54,4.44-5.46s2.61-26.63-19.33-57.29c-14.2-19.85-38.63-30.96-50.27-36.16-21.94-9.8-48.04-32.19-51.26-45.07-3.28-8.81-6.94-21.19.25-39.38,0,0-.25-.99-8.92,4.46-8.67,5.45-25.58,22.33-26.75,45.57s3.89,32.5,13.83,41.91c9.94,9.41,28.51,24.7,49.81,31.14,12.25,3.7,43.09,16.1,52.01,23.53s16.34,17.09,17.83,20.31c1.49,3.22,4.54,16.16,4.54,16.16Z"/>
      <path id="path3163" class="cls-12" d="m538.85,317.38c-.17-.27.4-.99,1.61-2.14s3.06-2.72,5.42-4.74c4.71-4.04,11.47-9.89,18.91-17.88h0c2.9-3.11,5.89-6.54,8.81-10.33,2.91-3.78,5.74-7.92,8.23-12.47,4.21-7.7,7.56-16.63,8.3-26.18.55-6.12-.04-12.54-1.21-19.2-.9-5.11-2.1-10.21-3.27-15.24-1.52-6.27-3-12.56-3.95-18.77-.95-6.22-1.38-12.36-1.01-18.31.43-6.35,1.81-12.26,3.76-17.54,1.95-5.28,4.47-9.91,7.22-13.84h0c2.97-4.25,6.17-7.66,9.21-10.35s5.92-4.67,8.36-6.09,4.45-2.3,5.86-2.77,2.22-.55,2.36-.29-.4.86-1.5,1.81c-1.09.95-2.74,2.25-4.76,4.01s-4.4,3.99-6.89,6.79c-2.49,2.81-5.09,6.2-7.44,10.23h0c-2.17,3.73-4.13,8.03-5.59,12.82-1.46,4.79-2.42,10.06-2.58,15.62-.18,5.23.39,10.73,1.45,16.49,1.06,5.77,2.6,11.8,4.14,18.09,1.28,5.04,2.56,10.32,3.5,15.81,1.22,7.16,1.78,14.39,1.15,21.53-.55,5.57-1.83,10.87-3.59,15.8s-4,9.49-6.5,13.64c-2.94,4.89-6.2,9.23-9.51,13.1s-6.69,7.27-9.95,10.28h0c-8.34,7.72-15.95,12.96-21.42,16.19-2.73,1.61-4.94,2.72-6.5,3.37s-2.46.84-2.63.57Z"/>
      <path id="path3165" class="cls-12" d="m246.2,190.26c.4-.28,1.72.81,3.87,3,2.15,2.2,5.12,5.51,8.87,9.63,3.76,4.12,8.31,9.05,13.63,14.47,5.32,5.42,11.41,11.32,18.21,17.39,3.8,3.39,7.85,6.85,12.05,10.44,4.2,3.58,8.56,7.29,12.93,11.21,3.25,2.9,6.41,5.84,9.43,8.82,3.78,3.7,7.37,7.57,10.51,11.64s5.82,8.34,7.88,12.76c2.56,5.45,3.97,11.17,4.25,16.52s-.53,10.33-2.13,14.59h0c-1.57,4.07-3.81,7.3-6.1,9.77-2.29,2.46-4.63,4.16-6.65,5.31s-3.7,1.74-4.88,2.02c-1.18.27-1.85.22-1.96-.05s.34-.75,1.21-1.49,2.17-1.74,3.69-3.16c1.52-1.42,3.25-3.26,4.88-5.63,1.63-2.37,3.15-5.29,4.06-8.67h0c1-3.55,1.3-7.63.71-12.02s-2.08-9.1-4.36-13.63c-1.89-3.72-4.38-7.36-7.33-10.93s-6.37-7.09-10-10.63c-2.94-2.83-6.02-5.65-9.2-8.5-4.29-3.83-8.58-7.55-12.75-11.22-4.16-3.67-8.19-7.3-11.98-10.92-6.78-6.48-12.71-12.86-17.75-18.78s-9.18-11.38-12.42-16.04c-3.24-4.66-5.6-8.5-7.05-11.24-1.45-2.74-2.01-4.36-1.62-4.64h0Z"/>
      <path id="path3167" class="cls-12" d="m500.89,313.4c.01-.19.6-.34,1.72-.49s2.76-.32,4.88-.65c2.12-.33,4.71-.82,7.66-1.67s6.27-2.07,9.75-3.88c3.07-1.6,6.26-3.67,9.37-6.3,3.1-2.63,6.12-5.84,8.74-9.64,2.09-3.03,3.93-6.45,5.37-10.2s2.48-7.82,2.95-12.09c.41-3.73.39-7.63-.14-11.57-.52-3.94-1.54-7.92-3.11-11.77h0c-2.53-6.35-6.61-12.28-11.9-17.56-5.29-5.28-11.8-9.9-18.92-13.62-7.21-3.71-15.12-6.54-23.46-8.27s-17.09-2.36-25.88-1.67c-4.36.35-8.74,1.03-13.08,2.02-12.64,2.89-24.41,8.36-34.35,15.62-11.22,5.94-22.85,10.23-34.34,13.05s-22.83,4.16-33.6,4.29c-8.39.08-16.42-.58-23.96-1.78-7.54-1.2-14.59-2.92-21.08-4.97s-12.41-4.4-17.74-6.89-10.06-5.09-14.21-7.64c-8.3-5.1-14.24-9.95-18.07-13.47-1.91-1.76-3.3-3.2-4.18-4.22s-1.26-1.64-1.12-1.8.79.15,1.92.86,2.76,1.83,4.88,3.27c4.24,2.87,10.46,7.02,18.83,11.39,8.37,4.37,18.92,8.95,31.49,12.35,6.29,1.7,13.08,3.11,20.29,4.02s14.85,1.34,22.78,1.06c10.12-.32,20.74-1.75,31.45-4.52,10.72-2.77,21.53-6.88,31.94-12.49,10.74-7.98,23.47-13.94,37.21-17.03,4.72-1.06,9.48-1.76,14.24-2.11,9.69-.73,19.29,0,28.4,1.97,9.12,1.97,17.75,5.16,25.59,9.34,7.84,4.11,14.97,9.4,20.79,15.51s10.31,13.05,13.17,20.47h0c1.71,4.53,2.76,9.16,3.22,13.72s.34,9.02-.28,13.29c-.71,4.88-2.07,9.46-3.88,13.63-1.8,4.16-4.05,7.91-6.56,11.2-3.15,4.12-6.69,7.49-10.29,10.18s-7.24,4.71-10.71,6.18c-3.92,1.67-7.6,2.65-10.82,3.22-3.22.57-6,.73-8.23.71-2.24-.02-3.93-.22-5.07-.44-1.13-.22-1.7-.45-1.69-.64h0Z"/>
      <path id="path3030" class="cls-6" d="m942.47,163.44c-8.02.47-13.49.57-21.14-1.6,4.58-3.04,7.53-8.71,9.49-12.19-4.91-2.02-11.19.77-15.6-1.31,4.16-4.83,6.51-7.94,9.97-12.01-6.04-4.56-9.23-1.36-15.86-3.04,4.82-3.57,7.92-9.5,10.78-11.63l-17.1-1.02c3.52-1.28,6.48-7.32,10.87-8.95,27.7-10.26,70.52-25.88,101.28-26.93-14.75,25.21-28.75,45.28-72.69,78.68h0Z"/>
      <path id="path4948" class="cls-9" d="m942.47,163.44c-8.02.47-13.49.57-21.14-1.6,4.58-3.04,7.53-8.71,9.49-12.19-4.91-2.02-11.19.77-15.6-1.31,4.16-4.83,6.51-7.94,9.97-12.01-6.04-4.56-9.23-1.36-15.86-3.04,4.82-3.57,7.92-9.5,10.78-11.63l-17.1-1.02c3.52-1.28,6.48-7.32,10.87-8.95,0,0-4.72,1.19-13.48,3.99s-37.47,3.15-54.99,2.45-54.99-9.11-93.16-17.16c-38.17-8.06-50.44-11.27-79.5-6.65-22.06,3.5-51.48,23.82-51.48,23.82l-3.96-.5s20.42,6.8,38.63,28.16c12.86,15.08,40.98,31.52,67.24,42.38s53.61,12.92,106.82,11.21c54.28-1.75,108.92-35.02,112.46-35.95h0Z"/>
      <path id="path3169" class="cls-12" d="m621.08,123.03c.32.12.23,1.25-.05,3.27-.28,2.02-.73,4.96-.88,8.71-.15,3.75,0,8.33,1,13.44,1.01,5.1,2.88,10.74,6.16,16.19,1.65,2.81,3.65,5.54,6.01,8.18,2.35,2.63,5.06,5.17,8.08,7.6,3.02,2.43,6.35,4.75,9.92,6.97s7.38,4.34,11.31,6.39c4.35,2.22,8.92,4.37,13.62,6.62s9.53,4.58,14.37,7.17c5.35,2.87,10.53,5.99,15.37,9.51,8.32,6.1,15.29,13.28,20.83,20.81,5.54,7.53,9.66,15.4,12.53,23,2.96,7.86,4.58,15.39,5.36,22.09.77,6.69.71,12.56.29,17.32s-1.16,8.43-1.84,10.88-1.31,3.69-1.68,3.62c-.38-.07-.49-1.43-.52-3.92-.02-2.49.03-6.1-.19-10.67s-.74-10.1-1.97-16.32-3.2-13.11-6.3-20.23c-2.99-6.87-7.07-13.96-12.35-20.72-5.28-6.76-11.77-13.19-19.39-18.65-4.43-3.2-9.26-6.07-14.39-8.8-4.63-2.47-9.34-4.76-14.02-7.04-4.67-2.28-9.3-4.56-13.77-6.96-4.1-2.16-8.1-4.48-11.86-6.98-3.76-2.5-7.29-5.17-10.49-7.99-3.2-2.83-6.08-5.81-8.58-8.91s-4.63-6.32-6.38-9.61c-3.38-6.5-5-13-5.6-18.75s-.16-10.74.62-14.71c.77-3.97,1.88-6.92,2.8-8.83s1.65-2.81,1.98-2.68h0Z"/>
      <path id="path3171" class="cls-12" d="m588.56,194.1c.43-.27,1.82,1.07,4.14,3.59,2.33,2.52,5.61,6.23,10.04,10.51s10.01,9.14,16.84,13.85c6.82,4.7,14.9,9.25,24.04,12.82h0c3.83,1.5,7.88,2.85,12.11,4.15s8.63,2.57,13.14,3.97c1.52.47,3.03.95,4.53,1.44,5.39,1.75,10.7,3.76,15.68,6.18s9.62,5.25,13.75,8.53c4.81,3.86,8.76,8.26,11.85,12.79,3.1,4.52,5.35,9.16,6.9,13.59h0c1.65,4.73,2.5,9.19,2.87,13.12s.24,7.33-.07,10.07c-.31,2.74-.81,4.82-1.28,6.21-.47,1.38-.91,2.06-1.23,2.01s-.5-.83-.64-2.23c-.14-1.41-.23-3.45-.48-6.03s-.65-5.7-1.44-9.22c-.79-3.52-1.99-7.44-3.82-11.51h0c-1.71-3.8-4-7.74-6.95-11.55-2.95-3.8-6.56-7.47-10.83-10.63-3.65-2.74-7.82-5.11-12.39-7.19s-9.54-3.88-14.72-5.58c-1.45-.47-2.91-.93-4.4-1.39-4.41-1.36-8.83-2.67-13.17-4.07-4.34-1.41-8.59-2.91-12.68-4.63h0c-9.79-4.13-18.25-9.4-25.2-14.86-6.95-5.47-12.39-11.12-16.46-16.14-4.07-5.02-6.79-9.39-8.41-12.52s-2.17-5-1.74-5.27h0Z"/>
      <g id="g3340">
        <path id="path3173" class="cls-12" d="m186.72,231.33c.14-.2.59-.21,1.32.04.74.25,1.76.74,2.97,1.58,1.21.84,2.62,2.02,4.03,3.65,1.41,1.63,2.83,3.71,3.96,6.28,1.02,2.33,1.8,5.04,2.11,8.04s.14,6.31-.73,9.7c-1.1,4.08-3.14,8.12-6.08,11.75s-6.78,6.87-11.22,9.29c-3.78,2.08-7.9,3.67-12.2,4.83-4.3,1.16-8.79,1.87-13.29,2.28-1.13.11-2.26.2-3.39.28-7.65.54-14.86.53-21.52,1.02-4.31.34-8.44.84-12.25,1.65s-7.31,1.93-10.43,3.4c-4.81,2.21-8.79,5.26-11.92,8.38-3.13,3.12-5.43,6.31-7.12,9.06-1.69,2.76-2.8,5.1-3.61,6.7-.81,1.61-1.35,2.48-1.74,2.4-.39-.08-.6-1.11-.47-3,.14-1.89.64-4.65,1.9-8,1.26-3.35,3.29-7.29,6.46-11.25,3.17-3.96,7.49-7.94,13.08-11.03,3.62-1.96,7.63-3.52,11.91-4.67,4.28-1.15,8.82-1.9,13.43-2.33,7.09-.71,14.39-.81,21.64-1.32,1.07-.08,2.13-.16,3.18-.26,4.16-.41,8.19-.99,11.95-1.89s7.24-2.12,10.37-3.75c3.58-1.88,6.78-4.28,9.27-6.95s4.29-5.6,5.29-8.61c.87-2.47,1.25-4.99,1.27-7.37.02-2.37-.3-4.6-.85-6.57-.6-2.19-1.46-4.1-2.35-5.71-.89-1.61-1.82-2.92-2.62-3.97s-1.47-1.86-1.89-2.46c-.43-.6-.61-1-.47-1.21h0Z"/>
        <path id="path3175" class="cls-12" d="m243.73,251.75c.38.13.47,1.16.18,2.98-.28,1.83-.94,4.45-2.15,7.67s-2.99,7.04-5.52,11.16c-2.53,4.12-5.81,8.54-9.95,12.87-4.04,4.23-8.9,8.38-14.55,12.03-5.66,3.65-12.1,6.79-19.16,8.99-1.73.53-3.48,1.01-5.25,1.44-8.76,2.13-17.29,2.93-25.11,3.52-5.64.44-10.95.77-15.86,1.22-4.91.45-9.41,1.02-13.48,1.77-7.79,1.42-14.02,3.4-18.38,4.78-2.18.69-3.89,1.24-5.1,1.53s-1.93.33-2.09.04c-.16-.29.24-.89,1.19-1.74s2.43-1.95,4.45-3.2c4.04-2.49,10.24-5.55,18.4-7.9,4.25-1.22,8.97-2.21,14.03-3.02,5.06-.8,10.46-1.41,16.03-2.03,7.72-.88,15.83-1.77,23.8-3.71,1.61-.39,3.18-.82,4.73-1.29,6.27-1.89,12.08-4.57,17.28-7.67,5.2-3.1,9.79-6.61,13.74-10.2,4.04-3.68,7.41-7.45,10.17-10.97,2.77-3.52,4.94-6.8,6.66-9.56,1.72-2.76,2.99-5.02,3.94-6.53.96-1.52,1.61-2.3,1.99-2.18h0Z"/>
      </g>
      <g id="g3177">
        <path id="path3179" class="cls-12" d="m622.88,117.63c-.17-.2.42-1.06,1.79-2.48s3.51-3.39,6.51-5.69c2.99-2.3,6.84-4.93,11.62-7.54s10.48-5.21,17.11-7.33h0c6.75-2.16,14.4-3.8,22.78-4.67,8.38-.88,17.5-.99,27.04-.3,7.78.56,15.86,1.6,24.16,3.01s16.84,3.2,25.55,5.14c9.34,2.07,18.94,4.29,28.77,6.41,9.83,2.12,19.89,4.16,30.16,5.82,3.22.52,6.42,1,9.61,1.43,11.97,1.6,23.77,2.5,35.11,2.42,11.34-.08,22.22-1.14,32.44-3.25h0c5.84-1.19,11.48-2.72,16.95-4.38s10.77-3.45,15.89-5.21c5.99-2.07,11.77-4.1,17.34-5.93,5.56-1.83,10.92-3.46,16.03-4.8,8.22-2.15,15.76-3.56,22.4-4.47,6.64-.91,12.39-1.33,17.08-1.49,4.69-.16,8.33-.06,10.79.12s3.75.46,3.75.75c0,.29-1.27.6-3.69.97s-5.98.81-10.56,1.48c-4.57.67-10.15,1.57-16.56,2.91-6.41,1.34-13.66,3.13-21.53,5.6-4.9,1.54-10.05,3.35-15.47,5.36-5.41,2.01-11.09,4.23-17.06,6.49-5.11,1.94-10.44,3.91-16.04,5.75-5.59,1.84-11.45,3.56-17.59,4.95h0c-10.78,2.41-22.22,3.7-34.07,3.92-11.85.22-24.09-.62-36.41-2.27-3.28-.44-6.56-.93-9.86-1.46-10.51-1.7-20.72-3.8-30.63-6.01-9.91-2.21-19.51-4.53-28.79-6.73-8.63-2.04-17-3.94-25.08-5.5s-15.87-2.76-23.35-3.5c-9.15-.9-17.84-1.11-25.84-.61-8,.5-15.29,1.7-21.78,3.39h0c-6.38,1.66-11.97,3.76-16.73,5.88-4.77,2.13-8.71,4.28-11.88,6.13-3.17,1.85-5.56,3.4-7.21,4.41-1.66,1.01-2.58,1.48-2.75,1.28h0Z"/>
        <path id="path3181" class="cls-12" d="m622.88,119.43c.15-.26,1.61.23,4.19,1.54,2.58,1.31,6.3,3.46,10.78,6.7,2.14,1.55,4.45,3.35,6.89,5.39,2.44,2.04,5.02,4.32,7.74,6.79,2.72,2.48,5.58,5.15,8.62,7.92,3.04,2.77,6.27,5.65,9.77,8.47,7.15,5.79,15.57,11.39,25.22,16.38,9.65,5,20.53,9.39,32.32,12.87,9.78,2.88,20.2,5.16,31.12,6.8,10.92,1.63,22.33,2.62,34.07,3,11.29.36,22.88.18,34.62-.69,15.21-1.12,29.95-3.34,43.96-6.58,13.86-3.21,27-7.44,39.11-12.47,12.11-5.03,23.18-10.85,33.07-17.15,12.99-8.26,23.94-17.3,32.96-26s16.13-17.06,21.66-24.19c5.53-7.13,9.48-13.04,12.21-17.06,2.72-4.02,4.23-6.16,4.58-5.98s-.48,2.68-2.6,7.11c-2.12,4.43-5.54,10.8-10.66,18.46-5.11,7.66-11.93,16.62-20.84,25.97-8.91,9.34-19.92,19.07-33.18,27.99-10.11,6.79-21.48,13.08-33.94,18.5-12.47,5.42-26.03,9.97-40.34,13.4-14.45,3.46-29.66,5.81-45.32,6.97-12.08.89-24,1.04-35.59.6-12.05-.45-23.82-1.58-35.08-3.42-11.26-1.84-22.03-4.38-32.14-7.56-12.22-3.84-23.46-8.72-33.38-14.24-9.92-5.53-18.52-11.7-25.75-18.06-3.52-3.11-6.69-6.21-9.63-9.17s-5.65-5.79-8.19-8.41c-2.54-2.62-4.92-5.03-7.15-7.2s-4.32-4.1-6.24-5.8c-4.03-3.55-7.36-6.1-9.6-7.87-2.24-1.77-3.4-2.76-3.25-3.02h0Z"/>
      </g>
      <path id="path4143" class="cls-12" d="m108.99.13c.07-.25,1.53-.16,4.23.51,2.7.67,6.64,1.94,11.44,4.34,4.79,2.4,10.45,5.96,16.13,11.23,2.84,2.64,5.68,5.7,8.36,9.23,2.68,3.53,5.2,7.54,7.35,12.03,1.28,2.68,2.4,5.46,3.53,8.27,1.12,2.81,2.24,5.64,3.54,8.38,3.47,7.37,8.53,14.51,15.1,20.98,6.57,6.47,14.64,12.27,23.71,16.91,7.73,3.94,16.21,7.05,25.26,9.41,9.05,2.36,18.67,3.98,28.59,5.06,12.61,1.36,25.72,1.83,39.2,1.6,13.48-.23,27.34-1.14,41.43-2.43,1.73-.16,3.46-.32,5.2-.49,23.74-2.32,46.78-5.44,68.87-8.13,11.04-1.35,21.85-2.59,32.37-3.64s20.77-1.9,30.69-2.48h0c16.05-.95,31.3-1.17,45.37-.5,14.07.68,26.97,2.24,38.43,4.46,10.13,1.97,19.09,4.43,26.81,6.95,7.71,2.52,14.17,5.11,19.34,7.41,5.17,2.3,9.05,4.31,11.63,5.77s3.83,2.39,3.71,2.63-1.61-.19-4.38-1.17c-2.77-.98-6.82-2.51-12.1-4.33s-11.79-3.93-19.48-5.98-16.56-4.05-26.51-5.6c-11.26-1.75-23.89-2.88-37.68-3.17s-28.76.25-44.59,1.44h0c-9.79.74-19.91,1.73-30.34,2.9-10.43,1.17-21.16,2.52-32.16,3.96-22.01,2.87-45.11,6.09-69.08,8.43-1.75.17-3.5.34-5.25.5-14.24,1.31-28.34,2.2-42.13,2.35-13.79.15-27.26-.45-40.28-1.97-10.25-1.19-20.28-3.01-29.77-5.66-9.5-2.65-18.46-6.12-26.68-10.47-9.69-5.12-18.25-11.59-25.17-18.81s-12.21-15.18-15.78-23.35c-1.32-3.05-2.38-6.03-3.39-8.86s-1.99-5.54-3.07-8.05c-1.8-4.21-3.97-8.01-6.31-11.42-2.34-3.41-4.85-6.41-7.37-9.04-5.06-5.26-10.17-9.02-14.54-11.72-4.37-2.71-8-4.38-10.48-5.51-2.47-1.13-3.79-1.72-3.72-1.98h0Z"/>
      <path id="path3933" class="cls-1" d="m84.99,326.55c2.33-14.79,13.65-22.38,20.2-30.11l.05,6.07,8.09-2.91,1.18,6.77,10.11-3.23,2.21,6.69c-22.88,10.32-37.49,29.28-41.84,16.72Z"/>
      <path id="path3453" class="cls-8" d="m102.79,304.61l8.09-2.91,1.18,6.77,10.11-3.23,2.35,6.8s15.2-2.69,22.9-3.39c7.7-.7,49.71-2.83,68.64-16.81,22.76-16.81,26.62-40.28,26.62-40.28,0,0-5.25-4.55-9.81-6.3s-18.56-5.6-24.17-6.3c-5.6-.7-13.66-2.45-13.66-2.45-.35,4.2,3.85,10.86,3.85,16.11s-2.1,17.51-12.61,23.11-27.67,7.7-39.58,9.11c-11.91,1.4-29.42,4.2-32.22,5.25-2.8,1.05-12.88,8.6-12.88,8.6l1.18,5.91Z"/>
      <path id="path4671" class="cls-11" d="m45.84,148.2c7.33-1.95,14.27-5.09,21.3-7.92,11.19-4.51,23.24-8.3,35.17-6.44,11.78,1.84,22.13,9.09,30.26,17.81,8.13,8.72,14.41,18.97,21.25,28.74,6.87,9.82,14.4,19.26,23.39,27.19s19.51,14.32,31.1,17.39c7.91,2.09,16.14,2.61,24.26,3.71,8.11,1.1,16.33,2.88,23.29,7.19,7.83,4.85,13.65,12.85,15.85,21.79-13.42-4.66-26.96-8.95-40.61-12.88-15.97-4.59-32.12-8.7-47.55-14.86-13.7-5.47-26.92-12.65-37.64-22.78-14.49-13.7-23.85-32.18-38.63-45.57-7.24-6.55-16.04-11.88-25.76-12.88-7.19-.74-14.39.93-21.37,2.81s-14,3.98-21.22,4.13c-7.73.16-15.49-1.99-22.04-6.1,9.61,1.63,19.56,1.17,28.97-1.33"/>
      <path id="path4161" class="cls-12" d="m1.67,136.64c.22-.11.8.59,1.84,1.91s2.58,3.26,4.85,5.46c2.27,2.2,5.31,4.67,9.26,6.79s8.84,3.9,14.41,4.34c3.77.34,7.83.05,12.2-.67,4.37-.73,9.05-1.9,14.06-3.03,4.19-1.01,8.74-1.98,13.58-2.42s9.97-.37,15.29.87c3.8.97,7.44,2.53,10.87,4.55s6.64,4.5,9.57,7.26c5.48,5.13,10.16,11.08,14.82,16.92,7.74,9.66,16.05,19.48,25.75,28.25,8.1,7.3,17.2,13.91,27.38,18.45,1.12.5,2.25.97,3.39,1.42,6.32,2.51,12.97,4.15,19.71,5.61,6.75,1.46,13.59,2.72,20.32,4.38,11.47,2.8,22.29,6.63,32.28,11.17h0c12.09,5.5,22.9,11.97,32.58,18.53,5.71,3.86,11.1,7.85,15.95,12s9.15,8.48,12.83,12.94c1.87,2.26,3.59,4.61,5.06,7.02,1.46,2.41,2.67,4.89,3.58,7.41,1.09,3,1.65,6.08,1.72,9s-.36,5.69-1.2,8.18c-.89,2.59-2.21,4.78-3.7,6.57-1.49,1.79-3.14,3.17-4.77,4.21-1.89,1.19-3.73,1.91-5.35,2.34-1.62.43-3.03.58-4.16.6-1.13.02-1.98-.09-2.54-.22s-.84-.28-.83-.42c0-.14.29-.25.83-.39.54-.13,1.33-.29,2.34-.55s2.23-.64,3.59-1.25,2.87-1.45,4.33-2.64c1.27-1.03,2.53-2.34,3.61-3.93,1.08-1.59,2-3.48,2.54-5.58.54-2.03.71-4.28.47-6.65-.24-2.38-.88-4.89-1.89-7.35-.86-2.09-2.02-4.15-3.43-6.2s-3.07-4.09-4.88-6.12c-3.59-4-7.79-7.89-12.53-11.65-4.74-3.77-10.03-7.42-15.69-11.04-9.61-6.12-20.19-12.14-31.84-17.18h0c-9.62-4.17-19.99-7.68-30.94-10.24-6.43-1.5-13.21-2.7-20.15-4.18s-14.06-3.24-21.12-5.98c-1.27-.5-2.53-1.03-3.78-1.59-11.3-5.06-21.17-12.23-29.69-20.09-10.2-9.39-18.7-19.64-26.39-29.59-4.65-5.97-8.92-11.69-13.71-16.32-2.57-2.46-5.28-4.67-8.09-6.45-2.81-1.79-5.73-3.15-8.72-3.95-4.15-1.23-8.49-1.39-12.82-1.09-4.33.3-8.65,1.05-12.8,1.8-4.96.97-9.88,1.95-14.61,2.46-4.74.51-9.29.56-13.58-.02-6.39-.93-11.72-3.32-15.88-6.02-4.15-2.7-7.15-5.73-9.26-8.4-2.1-2.66-3.33-4.97-4.01-6.58s-.84-2.52-.63-2.63h0Z"/>
      <path id="path4185" class="cls-2" d="m17.78,131.13c7.11-1.53-3.55-.27-1.43,7.6,1.84,6.85,1.37,13.82-4.63,11.1-10.11-4.26-12.27-6.75-11.18-13.09,5.49-2.57,14.14-4.92,17.25-5.61Z"/>
      <path id="path4298" class="cls-7" d="m79.59,94.59c3.84-1.07,7.86-1.17,11.81-1.54,4.58-.25,9.19-.65,13.78-.34-.4.76-3.18.68-4.49,1.09-4.21.93-8.36,2.49-11.94,4.91-2.03,1.62-3.21,4.19-5.68,5.28-3.79,2.06-8.3,1.84-12.44,1.27-1.63-.45-3.11-1.39-4.85-1.36-2.55-.55-5.03.61-2.67-1.16s9.29-5.28,16.49-8.16h0Z"/>
      <path id="path3448" class="cls-12" d="m108.99.13c.22.07.3.5.31,1.25,0,.74-.05,1.81-.06,3.16,0,1.35.04,3,.3,4.88.26,1.88.75,3.99,1.63,6.17.52,1.32,1.22,2.7,2.04,4.17.82,1.47,1.77,3.03,2.76,4.76.85,1.45,1.72,3.05,2.49,4.82.77,1.78,1.45,3.73,1.88,5.92.79,4.44.26,9.33-1.77,13.85-1.85,4.12-4.81,7.88-8.6,10.8-4.46,3.38-9.56,5.56-14.38,7.5-4.49,1.91-8.87,3.68-12.09,6.48-1.8,1.47-3.38,3.33-4.81,5.45-.88,1.3-1.7,2.68-2.47,4.09-2.06,3.83-3.72,8.05-5.62,12.27-1.87,4.21-3.96,8.33-6.37,12.14s-5.14,7.31-8.2,10.37c-5.18,5.04-10.89,8.48-16.36,10.96-5.47,2.48-10.7,4-15.29,5.02-6.85,1.55-12.43,2.08-16.26,2.15-3.83.07-5.93-.29-5.98-.82-.05-.53,1.94-1.18,5.55-2.17,3.61-.99,8.83-2.34,15.15-4.55,4.21-1.49,8.95-3.36,13.73-5.92,4.78-2.57,9.61-5.83,13.68-10.3,2.48-2.64,4.69-5.73,6.7-9.18,2.01-3.45,3.82-7.26,5.56-11.26,1.73-4.04,3.42-8.45,5.78-12.93.87-1.67,1.85-3.34,2.97-4.97,1.83-2.65,3.98-5.12,6.53-7.26,4.75-3.81,9.92-5.95,14.57-7.7,4.88-1.94,9.32-3.56,12.65-6.02,2.84-2.05,5.14-4.64,6.56-7.46,1.55-3.07,2.19-6.46,1.85-9.49-.13-1.52-.55-3.04-1.08-4.54-.53-1.5-1.18-2.99-1.82-4.46-.79-1.73-1.6-3.45-2.31-5.16-.7-1.71-1.3-3.41-1.73-5.08-.7-2.78-.86-5.34-.75-7.53.11-2.19.49-4.01.94-5.44.44-1.43.94-2.46,1.37-3.12s.77-.94.98-.87h0Z"/>
      <path id="path3355" class="cls-4" d="m119.75,15.5c6.24,6.44,10.26,14.98,11.26,23.89.75,6.72-.21,13.62-2.75,19.88l.53,7.43c3.87-.66,7.52-2.59,10.25-5.42,3.04-3.14,4.9-7.33,5.51-11.66s.02-8.78-1.41-12.91c-1.8-5.19-4.92-9.91-8.98-13.6s-9.07-6.33-14.4-7.62"/>
      <path id="path3388" class="cls-12" d="m16.69,149.96c1.73,2.75,15.13,3.2,26.56.57,11.44-2.63,21.96-7.88,28.07-11.9.69-2.83-17.26,5.99-27.75,8.02-10.48,2.03-24.73,1.13-26.89,3.31Z"/>
    </g>
  </g>
</svg>