<?xml version="1.0" encoding="UTF-8"?>
<svg id="Layer_1" data-name="Layer 1" xmlns="http://www.w3.org/2000/svg" xmlns:xlink="http://www.w3.org/1999/xlink" viewBox="0 0 1035.94 1035.94">
  <defs>
    <style>
      .grandfather-cls-1 {
        fill: url(#linear-gradient);
      }

      .grandfather-cls-1, .grandfather-cls-2, .grandfather-cls-3, .grandfather-cls-4, .grandfather-cls-5, .grandfather-cls-6, .grandfather-cls-7, .grandfather-cls-8, .grandfather-cls-9, .grandfather-cls-10, .grandfather-cls-11, .grandfather-cls-12, .grandfather-cls-13, .grandfather-cls-14, .grandfather-cls-15, .grandfather-cls-16, .grandfather-cls-17, .grandfather-cls-18, .grandfather-cls-19, .grandfather-cls-20, .grandfather-cls-21, .grandfather-cls-22, .grandfather-cls-23, .grandfather-cls-24, .grandfather-cls-25, .grandfather-cls-26, .grandfather-cls-27, .grandfather-cls-28, .grandfather-cls-29, .grandfather-cls-30, .grandfather-cls-31, .grandfather-cls-32, .grandfather-cls-33, .grandfather-cls-34, .grandfather-cls-35, .grandfather-cls-36, .grandfather-cls-37, .grandfather-cls-38, .grandfather-cls-39, .grandfather-cls-40 {
        stroke-width: 0px;
      }

      .grandfather-cls-2 {
        fill: #75c5cb;
      }

      .grandfather-cls-3 {
        fill: #5f2d0a;
      }

      .grandfather-cls-4 {
        fill: #43cbc8;
      }

      .grandfather-cls-5 {
        fill: #5d3221;
      }

      .grandfather-cls-6 {
        fill: #24babf;
      }

      .grandfather-cls-7 {
        fill: #482216;
      }

      .grandfather-cls-8 {
        fill: #9b634a;
      }

      .grandfather-cls-9 {
        fill: #885f1f;
      }

      .grandfather-cls-10 {
        fill: #3d220c;
      }

      .grandfather-cls-11 {
        fill: #1b130c;
      }

      .grandfather-cls-12 {
        fill: #0e2e30;
      }

      .grandfather-cls-13 {
        fill: #1f9a9e;
      }

      .grandfather-cls-14 {
        fill: #184a30;
      }

      .grandfather-cls-15 {
        fill: #dfbaae;
      }

      .grandfather-cls-16 {
        fill: #cd9d96;
      }

      .grandfather-cls-17 {
        fill: #b09f93;
      }

      .grandfather-cls-18 {
        fill: #ac886e;
      }

      .grandfather-cls-19 {
        fill: #d6ecf2;
      }

      .grandfather-cls-20 {
        fill: #aae2eb;
      }

      .grandfather-cls-21 {
        fill: #d7b79e;
      }

      .grandfather-cls-22 {
        fill: #aa7659;
      }

      .grandfather-cls-23 {
        fill: #8c5539;
      }

      .grandfather-cls-24 {
        fill: #90715c;
      }

      .grandfather-cls-25 {
        fill: #c29e80;
      }

      .grandfather-cls-26 {
        fill: #31a9b2;
      }

      .grandfather-cls-27 {
        fill: #331114;
      }

      .grandfather-cls-28 {
        fill: #6c513b;
      }

      .grandfather-cls-29 {
        fill: #015a65;
      }

      .grandfather-cls-30 {
        fill: #9f494d;
      }

      .grandfather-cls-31 {
        fill: #823c2b;
      }

      .grandfather-cls-32 {
        fill: #edd6c7;
      }

      .grandfather-cls-33 {
        fill: #fef8f0;
      }

      .grandfather-cls-34 {
        fill: #f4f8f8;
      }

      .grandfather-cls-35 {
        fill: #023b41;
      }

      .grandfather-cls-36 {
        fill: #017178;
      }

      .grandfather-cls-37 {
        fill: #060505;
      }

      .grandfather-cls-38 {
        fill: #6b2c1f;
      }

      .grandfather-cls-39 {
        fill: #694128;
      }

      .grandfather-cls-40 {
        fill: #6a182c;
      }
    </style>
    <linearGradient id="linear-gradient" x1="597.93" y1="743.17" x2="536.22" y2="744.26" gradientUnits="userSpaceOnUse">
      <stop offset="0" stop-color="#151c18"/>
      <stop offset="1" stop-color="#281e0d"/>
    </linearGradient>
  </defs>
  <path class="grandfather-cls-21" d="m644.43,823.49c9.36-26.82,22.62-52.45,30.35-79.92,20.91-4.84,55.29-16.01,60.7-39.96,4.04-17.88-8.97-109.62-21.24-130,7.07-13.08,33.93-57.21,35.41-68.29,2.46-18.4-37.9-71.29-54.63-82.96-2.83-40.7-32.51-62.61-65.76-80.43-3.46-1.86-6.6-3.36-10.12-5.06-.13-.06-1.95-1.55-2.02-2.02,4.94-9.59,4.86-24.04,4.05-34.4,10.38,8.08,29.86-26.17,30.35-28.83,1.63-8.76-4.94-20.78-14.16-21.75,6.17-24.93,21.45-58.41,16.19-83.46-2.59-12.35-9.49-15.92-10.12-16.69-5.01-6.18-10.44-13.94-19.22-14.16-4.62-6.98-10.55-13.07-16.19-19.22-.59-.65-2.45-7.6-10.62-13.15-34.37-23.35-144.34-10.47-151.24,51.59-10.89,21.54-14.98,25.77-15.17,50.58-.08,9.48-1.33,22.36,4.05,22.26-1.17,4.93,1.32,13.91,0,17.7-.39,1.1-4.46,2.49-6.07,4.55-3.52,4.5-12.46,16.29-13.15,21.24-2.64-4.04-3.21.5-5.06,3.03-14.87,20.3-19.39,63.39-1.01,82.96-21.49,12.59-33.91,29.08-42.49,52.1-9.07,24.35-28.27,114.45-38.44,152.76-5.1,19.2-25.86,80.55-27.31,91.05-3.68,26.51,16.47,42.02,41.48,34.9-.86,31.8,3.35,36.5,37.94,42.49.95-.3,5.04-13.11,5.56-15.17,3.19.54,9.03,5.35,11.13,6.07,4.31,22.56,7.52,45.49,13.15,67.78-20.7,7.89-62.62,11.01-81.44,0-21.09-12.34-43.71-60.32-50.08-83.46-15.03-54.66-.58-128.32,10.12-184.12,9.2-48.03,20.95-95.21,39.45-140.62,17.79-43.66,42.64-84.44,59.69-128.48,19.88-51.33,32.36-132.15,73.35-158.33,36.33-23.2,108.14-19.23,149.73-11.13,15.99,4.81,26.5,14.29,35.91,27.82,22.59,32.47,25.34,72.91,38.44,109.26,15.19,42.11,55.9,115.58,74.86,168.95,47.36,133.32,22.21,217.81-11.13,349.02-6.53,15.96-24.32,35.31-37.94,46.03-5.14,4.05-60.22,38.16-63.73,39.45-.72.27-2.35-.17-3.54,0Z"/>
  <path class="grandfather-cls-37" d="m674.78,743.57c-7.73,27.47-20.99,53.11-30.35,79.92-.99,2.84-1.86,3.64-4.05,5.56-.06,3.54.09,7.09,0,10.62-.03,1.35.07,2.7,0,4.05-.81,15.91,6.25,26.58-25.29,41.98-2.62,24.46-21.9,44.77-44.51,53.11-5.59,2.06-16.01,3.45-22.26,5.06-.54-.09-1.1-.59-3.03-1.01-12.72-2.77-35.9-8.33-37.43-23.27,29.41,11.86,66.33,2.84,89.03-18.72-43.85-14.28-52.26-4.44-89.03,13.66,2.08-18.83,14.32-31.68,23.27-47.55,1.38-2.44,22.46-36.78,12.65-32.37-3.96,11.94-18.74,26.95-17.7,33.38-10.31,4.41-19.58,11.8-31.87,10.12-16.1,44.3-89.04,59.14-116.85,46.54-17-7.71-6.57-28.51,4.05-37.43-2.91,14.73,8.58-7.98,21.75-3.03,16.93,6.35,1.58,28.39,20.23,26.3,8.49-.95,42.81-20.21,46.03-31.36,6.46,1.68,14.84,4.34,20.23-.51-17.22-3.88-31.64-9.02-47.55-17.7-7.17-8.04-13.92-19.49-18.21-29.34-5.74-13.19-9.63-28.55-13.15-42.49-5.63-22.29-8.84-45.22-13.15-67.78,23.52,8.1,59.5-.35,63.73-28.83,1.85-12.48-3.08-23.82-2.02-33.89,3.98.38,4.8.99,5.06,1.01,12.41,26.27,21.93,53.77,33.38,80.43,8.3,19.31,20.12,37.32,27.31,57.16q3.03,22,6.07,44.01c19.05-4.32,6.64-13.81,1.01-34.9,19.23,21.27,74.37,51.88,88.01,33.38,4.47-6.07,3.68-18.26,3.03-26.81-2.52-33.4-19.43-64.08-26.3-96.11-4.93-22.99-4.93-47.18-9.1-70.31,9.38-2.65,18.57-5.76,27.31-10.12,3.8,18.6-2.5,85.44,3.03,96.61,9.41,19,40.39,14.39,56.65,10.62Z"/>
  <path class="grandfather-cls-35" d="m674.78,743.57c-16.26,3.76-47.24,8.38-56.65-10.62-5.54-11.17.76-78.01-3.03-96.61,5.24-2.61,10.23-5.86,15.68-8.09,1-.69.28-2.06.51-3.03,2.81,1.96,1.2-.41,3.03-1.01,8.04-2.66,7.61-4.02,13.15-7.08,23.28-12.87,47.52-24.54,66.77-43.5,12.28,20.37,25.29,112.12,21.24,130-5.41,23.95-39.79,35.12-60.7,39.96Z"/>
  <g>
    <path class="grandfather-cls-14" d="m419.84,364.2c2.9,2.33,27.74,19.46,29.34,20.23-5.04,29.02-7.84,58.73-14.16,87.51-7.48,34.05-25.34,74.7-27.31,104.71-.67,0-1.75-.28-2.02.51-1.41,4.01-7.59,52.06-9.1,63.23-2.86,21.1-5.52,56.84-10.12,74.86-.53,2.07-4.61,14.87-5.56,15.17-34.59-5.99-38.79-10.69-37.94-42.49.35-13.04,8.45-79.07,11.13-95.6,7.02-43.42,30.15-139.99,44.51-181.09,4.46-12.77,13.78-36.88,21.24-47.04Z"/>
    <path class="grandfather-cls-39" d="m409.72,357.12c.42.45,7.93,5.33,10.12,7.08-7.47,10.17-16.78,34.27-21.24,47.04-14.37,41.1-37.49,137.67-44.51,181.09-2.67,16.54-10.78,82.57-11.13,95.6-25.01,7.12-45.16-8.39-41.48-34.9,1.46-10.5,22.22-71.85,27.31-91.05,10.17-38.31,29.37-128.42,38.44-152.76,8.58-23.02,21-39.51,42.49-52.1Z"/>
  </g>
  <path class="grandfather-cls-3" d="m418.83,649.49c3.65,1.25,7.42,3.06,11.13,4.05,9.6,2.55,19.45,4.12,29.34,5.06-1.05,10.07,3.88,21.41,2.02,33.89-4.23,28.48-40.22,36.93-63.73,28.83-2.09-.72-7.94-5.53-11.13-6.07,4.6-18.02,7.26-53.76,10.12-74.86,7.08,3.98,14.61,6.5,22.26,9.1Z"/>
  <path class="grandfather-cls-3" d="m525.05,657.58c5.9,59.28,16.89,99.02,77.9,118.87q8.6,31.61,17.2,63.23c-13.64,18.5-68.78-12.11-88.01-33.38-2.68-2.96-4-6.55-7.08-9.1-7.2-19.84-19.02-37.85-27.31-57.16-11.45-26.66-20.97-54.16-33.38-80.43,19.8,1.41,40.92-.18,60.7-2.02Z"/>
  <path class="grandfather-cls-1" d="m587.78,646.45c4.17,23.13,4.17,47.32,9.1,70.31,6.87,32.03,23.79,62.71,26.3,96.11.64,8.55,1.44,20.74-3.03,26.81q-8.6-31.61-17.2-63.23c-61.01-19.85-72-59.59-77.9-118.87,1-.09,2.04.1,3.03,0,10.85-1.1,26.56-3.84,37.43-6.07,7.46-1.53,14.92-2.99,22.26-5.06Z"/>
  <g>
    <path class="grandfather-cls-21" d="m423.89,831.59c4.29,9.85,11.04,21.3,18.21,29.34.19.21.85,1.85,1.01,2.02-18.83,4.97-46.61,11.59-61.71,24.28-10.61,8.92-21.05,29.72-4.05,37.43-1.19,4.59,15.46,12.4,19.73,14.16,28.59,11.79,83.41,14.06,114.32,12.14,10.78-.67,38.33-3.42,33.89-8.09,1.93.42,2.49.92,3.03,1.01.16.03,1.87,1.93,2.53,2.02,33.16,4.49,72.47-4.53,104.71-11.13,1.17-.24,14.87-.82,23.77-3.03,28.14-8.7,56.83-18.85,79.42-38.44-6.26,25.91-112.22,56.94-138.09,61.71-57.9,10.67-176.22,10.78-233.69,0-19.56-3.67-78.48-22.01-94.08-32.37-22.63-15.03-20.96-30.53-1.01-46.54,27.64-22.18,96.09-39.33,132.02-44.51Z"/>
    <path class="grandfather-cls-18" d="m738.51,864.97c-5.88,39.45-51.42,54.53-82.96,69.8-32.24,6.6-71.55,15.62-104.71,11.13-.66-.09-2.37-2-2.53-2.02,6.25-1.61,16.67-3,22.26-5.06-1.8,4.67,18.63.8,26.81-1.01,22.06-4.9,56.56-19.93,74.86-33.38,60.21-44.26,17.63-52.27-31.87-60.7.07-1.34-.03-2.7,0-4.05,28.03,5.78,73.7,12.41,98.13,25.29Z"/>
    <path class="grandfather-cls-25" d="m758.75,893.3c-22.59,19.59-51.27,29.74-79.42,38.44-8.9,2.21-22.6,2.79-23.77,3.03,31.53-15.28,77.08-30.35,82.96-69.8,12,6.33,23.82,13.49,20.23,28.33Z"/>
    <path class="grandfather-cls-24" d="m570.58,938.82c22.62-8.35,41.89-28.65,44.51-53.11,31.54-15.41,24.48-26.07,25.29-41.98,49.5,8.43,92.08,16.44,31.87,60.7-18.3,13.46-52.8,28.49-74.86,33.38-8.18,1.82-28.6,5.68-26.81,1.01Z"/>
    <path class="grandfather-cls-18" d="m531.12,867c-8.95,15.87-21.18,28.72-23.27,47.55-.27,2.42-.26,2.54,0,5.06,1.53,14.94,24.71,20.5,37.43,23.27,4.44,4.67-23.11,7.42-33.89,8.09-30.91,1.92-85.72-.35-114.32-12.14-4.27-1.76-20.91-9.57-19.73-14.16,27.81,12.61,100.74-2.24,116.85-46.54,12.29,1.68,21.55-5.7,31.87-10.12,1.3-.56,3.59-1.07,5.06-1.01Z"/>
  </g>
  <path class="grandfather-cls-37" d="m469.41,879.14c-3.22,11.15-37.55,30.41-46.03,31.36-18.65,2.08-3.31-19.95-20.23-26.3-13.17-4.94-24.66,17.77-21.75,3.03,15.11-12.69,42.88-19.31,61.71-24.28,5.84,6.08,18.14,14.07,26.3,16.19Z"/>
  <path class="grandfather-cls-39" d="m507.86,919.6c-.26-2.51-.27-2.64,0-5.06,36.76-18.1,45.18-27.94,89.03-13.66-22.7,21.56-59.62,30.58-89.03,18.72Z"/>
  <path class="grandfather-cls-20" d="m532.14,806.3c5.63,21.1,18.04,30.59-1.01,34.9q-3.03-22-6.07-44.01c3.08,2.56,4.4,6.14,7.08,9.1Z"/>
  <path class="grandfather-cls-9" d="m469.41,879.14c-8.16-2.12-20.47-10.1-26.3-16.19-.16-.17-.83-1.82-1.01-2.02,15.91,8.68,30.33,13.82,47.55,17.7-5.39,4.84-13.77,2.18-20.23.51Z"/>
  <path class="grandfather-cls-10" d="m531.12,867c-1.47-.06-3.75.45-5.06,1.01-1.03-6.44,13.75-21.44,17.7-33.38,9.81-4.41-11.27,29.93-12.65,32.37Z"/>
  <path class="grandfather-cls-28" d="m407.7,576.65c-1.61,24.51.51,50.35,11.13,72.84-7.64-2.61-15.18-5.13-22.26-9.1,1.51-11.16,7.69-59.22,9.1-63.23.28-.79,1.35-.5,2.02-.51Z"/>
  <path class="grandfather-cls-37" d="m589.8,401.63c1.51,16.43,15.72,134.46,18.21,141.13.3.79,1.35.5,2.02.51-6.42,4.76-13.41,13.51-14.16,14.16-.28.24-1.38-.02-6.07,4.05-4.97,4.31-9.35,9.38-15.17,12.65,4.76-49.37,11.89-117.74,12.14-165.91.03-6.51-1.81-14.18-2.02-20.74,3.84-.4,1.41,9.78,5.06,14.16Z"/>
  <g>
    <path class="grandfather-cls-21" d="m492.68,637.35c-.91,2.36-8.87,20.5-7.59,21.24,13.49,1.29,32.94-4.09,43-1.01-1,.1-2.04-.09-3.03,0-19.78,1.84-40.9,3.44-60.7,2.02-.26-.02-1.07-.63-5.06-1.01-9.89-.94-19.74-2.51-29.34-5.06,20.45-4.81,43.02-6.25,62.72-16.19Z"/>
    <path class="grandfather-cls-32" d="m471.44,390.5c.13.13-.84.46,2.02,3.03,2.77,2.49,5.3,5.15,9.1,6.07,2.19,13.47,4.92,44.3,8.09,54.12,4.3,13.31,17.35,22.05,20.23,35.91.26,1.26-.19,2.75,0,4.05,3.2,21.72,1.31,78.25-3.03,100.15-3.09,15.57-9.56,28.97-15.17,43.5-19.7,9.94-42.27,11.38-62.72,16.19-3.71-.98-7.47-2.8-11.13-4.05-10.62-22.49-12.74-48.33-11.13-72.84,1.98-30.01,19.83-70.66,27.31-104.71,6.33-28.78,9.12-58.49,14.16-87.51,2.48,1.2,18.23,6.02,22.26,6.07Z"/>
    <path class="grandfather-cls-16" d="m583.73,370.27c.67,5.75.83,11.42,1.01,17.2.21,6.56,2.06,14.23,2.02,20.74-.25,48.17-7.38,116.54-12.14,165.91,5.82-3.26,10.2-8.34,15.17-12.65.1.44.92,1.95,1.01,2.02-8.69,7.27-15.03,15.74-22.26,24.28-2.13,2.52-15.98,16.52-16.19,17.7-1.28,7.35,7.33,5.41,11.13,3.54,7.24,4.84-7.08,16.52-7.08,23.27,0,4.62,8.48,14.05,9.1,19.22-10.87,2.23-26.58,4.97-37.43,6.07-10.06-3.08-29.5,2.3-43,1.01-1.29-.74,6.68-18.89,7.59-21.24,5.62-14.53,12.08-27.93,15.17-43.5,42.05,10.48,52.17-108.97,59.69-141.13-19.89,11.62-38.99,25.78-56.65,40.97-.19-1.29.26-2.79,0-4.05,14.34-23.87,49.95-66.14,49.57-93.58-.22-16.28-4.59.65-11.13-1.52v-5.06c12.15-4.34,22.79-13.73,34.4-19.22Z"/>
    <path class="grandfather-cls-15" d="m507.86,593.85c4.35-21.9,6.24-78.44,3.03-100.15,17.66-15.19,36.76-29.36,56.65-40.97-7.52,32.16-17.64,151.61-59.69,141.13Z"/>
    <path class="grandfather-cls-15" d="m510.89,489.65c-2.88-13.86-15.94-22.61-20.23-35.91-3.17-9.82-5.91-40.65-8.09-54.12,4.84,1.17,12.12.38,17.2,0,.45,5.88,7.39,63.56,10.62,63.73,11.66-20.98,41.11-48.14,38.95-68.79,6.53,2.17,10.9-14.77,11.13,1.52.38,27.44-35.23,69.71-49.57,93.58Z"/>
  </g>
  <g>
    <path class="grandfather-cls-35" d="m617.11,334.86c.07.47,1.89,1.96,2.02,2.02,14.26,57.83,25.63,116.32,42.49,173.5-.67,3.54-34.32,21.31-39.45,24.79-8.38-60.52-15.03-121.24-20.23-182.1,3.74-4.31,8.08-10.31,11.13-15.17,2.33-3.71,3.93-2.81,4.05-3.03Z"/>
    <path class="grandfather-cls-36" d="m601.94,353.07c5.21,60.86,11.85,121.58,20.23,182.1-4.09,2.76-8.12,5.11-12.14,8.09-.68,0-1.73.29-2.02-.51-2.49-6.67-16.7-124.69-18.21-141.13-1.08-11.74.12-23.88-3.03-35.41,2.66-3.53,14.52-12.39,15.17-13.15Z"/>
    <path class="grandfather-cls-12" d="m589.8,401.63c-3.65-4.38-1.22-14.56-5.06-14.16-.19-5.78-.34-11.45-1.01-17.2-.36-2.64,2.88-3.84,3.03-4.05,3.16,11.53,1.95,23.67,3.03,35.41Z"/>
  </g>
  <path class="grandfather-cls-29" d="m549.33,389.49v5.06c2.16,20.66-27.29,47.81-38.95,68.79-3.23-.17-10.17-57.85-10.62-63.73,5.6-.42,44.59-8.34,49.57-10.12Z"/>
  <g>
    <path class="grandfather-cls-39" d="m629.25,341.94c10.28,24.66,21.22,52.93,33.38,78.4,24.01,27.24,46.28,52.06,62.72,84.98q-43.75,49.82-87.51,99.65c-2.75-.32-2.47-12.69-6.58-12.14-8.12-20.93-17.5-24.75-35.41-35.41.76-.66,7.74-9.4,14.16-14.16,4.02-2.98,8.05-5.33,12.14-8.09,5.14-3.47,38.78-21.25,39.45-24.79-16.86-57.18-28.23-115.67-42.49-173.5,3.52,1.7,6.65,3.2,10.12,5.06Z"/>
    <path class="grandfather-cls-39" d="m714.23,573.61c-19.25,18.96-43.49,30.63-66.77,43.5,9.64-8.73-5.8-6.9-12.14-9.1-.4-7.74-1.55-8.74-4.05-15.17,4.11-.55,3.82,11.82,6.58,12.14q43.75-49.82,87.51-99.65c-16.44-32.92-38.71-57.74-62.72-84.98-12.17-25.48-23.1-53.74-33.38-78.4,33.25,17.82,62.93,39.73,65.76,80.43,16.73,11.66,57.09,64.56,54.63,82.96-1.48,11.07-28.34,55.2-35.41,68.29Z"/>
    <path class="grandfather-cls-3" d="m647.46,617.11c-5.54,3.06-5.11,4.42-13.15,7.08-.84-5.47,1.29-10.81,1.01-16.19,6.34,2.21,21.78.38,12.14,9.1Z"/>
    <g>
      <path class="grandfather-cls-10" d="m631.28,625.21c-.22.98.49,2.34-.51,3.03-5.45,2.23-10.44,5.48-15.68,8.09-8.75,4.36-17.94,7.47-27.31,10.12-7.33,2.07-14.79,3.53-22.26,5.06-.63-5.17-9.11-14.6-9.1-19.22,3.6,1.58,8.05,9.58,12.65,9.1,3.42-.35,51.6-30.35,60.19-33.38,1.03,4.29,2.89,13.4,2.02,17.2Z"/>
      <path class="grandfather-cls-34" d="m595.87,557.43c17.91,10.66,27.29,14.48,35.41,35.41,2.5,6.43,3.65,7.43,4.05,15.17.27,5.37-1.85,10.71-1.01,16.19-1.83.61-.22,2.97-3.03,1.01.87-3.79-1-12.91-2.02-17.2-7.04-29.41-28.37-36.24-38.44-44.51-.09-.07-.91-1.58-1.01-2.02,4.69-4.07,5.79-3.81,6.07-4.05Z"/>
      <path class="grandfather-cls-39" d="m629.25,608.01c-8.59,3.03-56.77,33.03-60.19,33.38-4.6.47-9.05-7.52-12.65-9.1,0-6.75,14.32-18.43,7.08-23.27,1.88-.93,11.86-8.73,17.2-11.63q-6.07-4.81-12.14-9.61c7.22-8.54,13.57-17.01,22.26-24.28,10.07,8.27,31.41,15.1,38.44,44.51Z"/>
      <path class="grandfather-cls-10" d="m563.5,609.02c-3.8,1.87-12.41,3.81-11.13-3.54.21-1.18,14.05-15.18,16.19-17.7q6.07,4.81,12.14,9.61c-5.33,2.9-15.32,10.71-17.2,11.63Z"/>
    </g>
  </g>
  <g>
    <path class="grandfather-cls-10" d="m637.35,249.88c9.23.97,15.79,12.99,14.16,21.75-.49,2.67-19.97,36.92-30.35,28.83-.07-.83-2.48-3.26-3.03-4.55,4.15-17.45-8.57-48.94,19.22-46.03Z"/>
    <path class="grandfather-cls-25" d="m624.2,135.56l-20.23,8.09c.38-2.4-1.01-1.91-1.01-2.02-.08-2.26,2.9-15.16,4.05-23.27.14-1.01,1.05-1.13,1.01-2.02,5.63,6.15,11.57,12.24,16.19,19.22Z"/>
    <g>
      <g>
        <path class="grandfather-cls-26" d="m637.35,249.88c-27.79-2.91-15.07,28.58-19.22,46.03.56,1.3,2.97,3.72,3.03,4.55.81,10.36.9,24.8-4.05,34.4-.12.22-1.72-.68-4.05,3.03-4.3.11.36-1.7,2.02-5.56,5.64-13.1,6.73-34.01-3.03-44.01-2.95-35.33-26.99-64.37-4.05-122.41.96,19.78-3.26,41.49,4.55,62.72,11.47-25.79,28.35-50.06,30.86-78.91.63.78,7.52,4.34,10.12,16.69,5.26,25.05-10.01,58.53-16.19,83.46Z"/>
        <path class="grandfather-cls-2" d="m643.42,149.73c-2.51,28.85-19.38,53.12-30.86,78.91-7.82-21.23-3.6-42.94-4.55-62.72-.4-8.35-1.24-14.15-4.05-22.26l20.23-8.09c8.78.22,14.21,7.98,19.22,14.16Z"/>
      </g>
      <path class="grandfather-cls-34" d="m407.7,328.79c1.67,10.34,3.23,19.28,14.16,12.14,2.68-.07,5.43.19,8.09,0,13.87,16.26,26.39,34.4,41.48,49.57-4.02-.04-19.78-4.87-22.26-6.07-1.6-.78-26.44-17.9-29.34-20.23-2.19-1.75-9.69-6.63-10.12-7.08-18.38-19.57-13.86-62.65,1.01-82.96-2.3,18.07-5.99,36.39-3.03,54.63Z"/>
      <path class="grandfather-cls-4" d="m475.48,200.31c.24,2.24.63,6.65-1.52,8.09-2.2,1.48-35.52,4.72-38.95,19.22-5.37.1-4.12-12.78-4.05-22.26,1.92-.88,4.28-3.35,6.07-4.05,2.78-1.08,30.22-8.13,31.87-8.09,5.57.13,6.13,2.94,6.58,7.08Z"/>
      <path class="grandfather-cls-19" d="m415.79,271.13c-1.15,8.23,5.53,19.58,10.12,26.3.22.33-.19,2.83,5.06,6.07-8.52,7.71-14.75,17.6-23.27,25.29-2.96-18.24.74-36.56,3.03-54.63,1.85-2.53,2.42-7.07,5.06-3.03Z"/>
      <path class="grandfather-cls-2" d="m471.44,136.57l2.02,5.06c-15.59,7.75-16.96,12.78-24.28,27.31-5.17,10.26-10.18,20.86-12.14,32.37-1.79.7-4.15,3.17-6.07,4.05.2-24.82,4.28-29.05,15.17-50.58,2.03,2.69,6.83-7.03,13.66-12.14,3.56-2.66,7.79-4.05,11.63-6.07Z"/>
      <path class="grandfather-cls-13" d="m613.07,337.9c-3.05,4.86-7.39,10.87-11.13,15.17-.66.76-12.52,9.62-15.17,13.15-.15.2-3.39,1.4-3.03,4.05-11.61,5.49-22.25,14.88-34.4,19.22-4.98,1.78-43.97,9.7-49.57,10.12-5.08.38-12.36,1.17-17.2,0-3.81-.92-6.33-3.58-9.1-6.07,45.74.95,87.25-13.64,117.35-49.07,14.45-17,23.17-33.16,21.24-56.15,9.77,10,8.68,30.91,3.03,44.01-1.66,3.86-6.32,5.67-2.02,5.56Z"/>
      <g>
        <path class="grandfather-cls-19" d="m608.01,116.34c.04.89-.87,1.01-1.01,2.02-43.88,25.99-83.39-9.28-135.56,18.21-3.84,2.02-8.07,3.41-11.63,6.07-6.83,5.11-11.62,14.83-13.66,12.14,6.9-62.06,116.87-74.95,151.24-51.59,8.17,5.55,10.03,12.5,10.62,13.15Z"/>
        <path class="grandfather-cls-2" d="m607,118.36c-1.14,8.11-4.13,21-4.05,23.27-11.63,7.98-20.56,8.43-33.38,5.06-20.49-5.39-29.42-14.5-57.66-14.16-12.86.15-26.8,3.32-38.44,9.1l-2.02-5.06c52.17-27.49,91.68,7.78,135.56-18.21Z"/>
      </g>
      <path class="grandfather-cls-20" d="m603.96,143.66c2.8,8.11,3.64,13.91,4.05,22.26-22.94,58.04,1.09,87.08,4.05,122.41,1.92,22.99-6.79,39.14-21.24,56.15-30.11,35.42-71.61,50.01-117.35,49.07-2.87-2.58-1.89-2.91-2.02-3.03-15.08-15.18-27.61-33.31-41.48-49.57,12.74-.91,25.55-4.3,38.44-4.05.73,6.94,2.68,13.65,5.06,20.23.82,2.28,1.31,7.74,3.03,9.61,8.79,9.53,46.68-23.08,53.62-30.86,4.4,1.31,38.47,8.32,39.45,6.58.26-.46.19-6.08-.51-6.58-1.48-1.06-30.84-4.86-35.91-6.07-7.73-1.83-14.67-3.62-22.26-6.07-7.88-2.55-24.46-6.21-26.3-15.17-.58-2.81-.27-11.98,1.01-15.17,13.58,1.29,24.91-.9,35.91-9.1,1.62,1.56,3.61,2.97,5.56,4.05,4.81,2.64,10.84,6.76,15.17,10.12,36.34,28.15,18.41,36.71,32.37,12.65,19.14-32.99,26.98-36.04,13.15-88.52-3.3-23.19,1.73-46.29,4.05-69.3-.23-.35-1.89.29-4.05.51-8.82.9-11.91,10.4-18.21-7.08,12.82,3.37,21.76,2.92,33.38-5.06,0,.11,1.39-.38,1.01,2.02Z"/>
      <path class="grandfather-cls-19" d="m456.26,286.3c2.28,3.91,16.44,5.55,20.23,5.06,2.01.17,4.1.61,6.07,1.01-12.69,19.42-66.37,41.57-69.3,44.51-6.7,6.73,6.84,4.09,8.6,4.05-10.93,7.14-12.49-1.8-14.16-12.14,8.52-7.69,14.75-17.58,23.27-25.29,11.76-10.65,24.31-16.02,25.29-17.2Z"/>
      <path class="grandfather-cls-26" d="m485.6,293.38c-1.28,3.19-1.59,12.37-1.01,15.17l-21.24,15.68c1.06,1.17,2.4,2,3.03,3.54,1.1,2.67,1.34,3.53,3.03,6.07-.24,1.09-1.21,1.18-1.01,3.03-12.9-.26-25.71,3.14-38.44,4.05-2.67.19-5.41-.07-8.09,0-1.76.05-15.3,2.69-8.6-4.05,2.93-2.94,56.61-25.09,69.3-44.51,2.02.41,2.57.97,3.03,1.01Z"/>
      <path class="grandfather-cls-26" d="m530.11,335.87c1.46-1.63,3.49-3.53,3.03-6.07,5.08,1.21,34.43,5.01,35.91,6.07.69.5.77,6.11.51,6.58-.98,1.74-35.06-5.26-39.45-6.58Z"/>
    </g>
    <g>
      <path class="grandfather-cls-8" d="m538.21,155.8c1.97,2.31,6.04,5.36,8.09,8.6q-2.02,17.96-4.05,35.91c-16.43-4.57-21.51-4.29-32.37,7.08-1.17,1.22-6.73,8.71-5.06,8.09-17.06,10.39-18.45,26.39-21.24,44.51-6.05.94-11.93.1-18.72,3.03-10.17,5.69-10.07,9.64-10.62,10.12-9.37,8.07-17.57,17.93-28.33,24.28-4.58-6.72-11.27-18.07-10.12-26.3.69-4.96,9.63-16.74,13.15-21.24,8.04-3.35,15.2-.7,23.27-1.01,1.08-.04.88,1.66,3.03,0,4.92,5.64,25.42,8.27,22.26-8.09-.28-1.47-.4-1.75-1.01-3.03q1.52-19.22,3.03-38.44c-5.53-2.53-1.54-7.57-10.12-7.59,19.57-13.98,44.86-32.25,68.79-35.91Z"/>
      <path class="grandfather-cls-39" d="m479.53,199.3q-1.52,19.22-3.03,38.44c-9.45-20.04-42.69-6.76-24.28,11.13-8.07.31-15.23-2.34-23.27,1.01,1.61-2.06,5.68-3.45,6.07-4.55,1.32-3.79-1.17-12.77,0-17.7,3.43-14.5,36.75-17.74,38.95-19.22,2.15-1.44,1.76-5.85,1.52-8.09l4.05-1.01Z"/>
      <path class="grandfather-cls-39" d="m587.78,222.57c-2.35,3.86-.81,8.2,0,12.14-1.17,22.75-4.63,10.13-20.23,14.67,7.72,4.59,12.81.44,14.16,9.61-21.23,4.06-42.02,8.7-63.73,9.1h-1.01c.46-2.71-1.05-4.42-1.01-7.08.05-3.96,1-2.88,1.01-3.03,6.17.7,8.65-.98,9.1-1.01,5.56-.42,12.87,2.09,16.19-10.12.65-2.4,1.27-3.35,1.01-6.07-1-10.55-12.33-11.16,5.56-12.14,1.63-1.27-.69-2.13-.51-3.03,6.38-30.72-23.04-28.77-33.38-21.24-1.58,1.15-2.91,3.04-5.06,3.03,10.86-11.37,15.94-11.65,32.37-7.08,2.05.57,4.89,4.49,8.6,5.06,3.99-1.3,28.58-35.67,31.87-41.98.39-.75-1.28-4.42,5.06-9.61,2.15-.22,3.81-.85,4.05-.51-2.32,23.01-7.35,46.11-4.05,69.3Z"/>
      <path class="grandfather-cls-22" d="m517.97,140.62c9.18,1.95,14.46,8.39,20.23,15.17-23.94,3.66-49.22,21.94-68.79,35.91,8.58.02,4.59,5.06,10.12,7.59l-4.05,1.01c-.45-4.14-1-6.95-6.58-7.08-1.64-.04-29.09,7.01-31.87,8.09,1.96-11.52,6.97-22.11,12.14-32.37,4.26-1.54,8.11-4.06,12.14-6.07,10.4-5.19,23.79-11.09,34.9-14.16,2.16-.6,34.3-4.25,19.22-7.08-1.94-.36-9.92-.22-12.65,0-.99-3.44,12.09-1.67,15.17-1.01Z"/>
      <path class="grandfather-cls-23" d="m569.57,146.69c6.3,17.48,9.39,7.99,18.21,7.08-6.34,5.19-4.67,8.86-5.06,9.61-3.29,6.31-27.87,40.68-31.87,41.98-3.71-.57-6.55-4.49-8.6-5.06q2.02-17.96,4.05-35.91c-2.05-3.23-6.13-6.29-8.09-8.6-5.77-6.79-11.05-13.22-20.23-15.17-2.57-3.17-12.08-3.55-6.07-8.09,28.25-.34,37.18,8.78,57.66,14.16Z"/>
      <path class="grandfather-cls-5" d="m548.32,225.6c-.19.9,2.13,1.76.51,3.03-17.89.98-6.57,1.59-5.56,12.14-20.38-25.32-25.37-3.53-26.3,17.2,0,.16-.96-.93-1.01,3.03-9.04-6.72-20.96-2.79-32.37-1.01,2.79-18.13,4.18-34.13,21.24-44.51,3.48,1.01,10.57-1.03,11.13-1.01,11.36.36,22.52,6.05,32.37,11.13Z"/>
      <path class="grandfather-cls-11" d="m477.51,240.78c3.16,16.37-17.34,13.73-22.26,8.09-9.73-11.16,5.25-22.75,22.26-8.09Z"/>
      <path class="grandfather-cls-5" d="m456.26,286.3c-.98,1.17-13.53,6.55-25.29,17.2-5.25-3.24-4.84-5.74-5.06-6.07,10.76-6.35,18.96-16.21,28.33-24.28.87,3.44,4.08,10.69,2.02,13.15Z"/>
      <path class="grandfather-cls-33" d="m476.49,237.74c.61,1.29.73,1.57,1.01,3.03-17-14.65-31.99-3.07-22.26,8.09-2.16,1.66-1.96-.04-3.03,0-18.41-17.89,14.83-31.17,24.28-11.13Z"/>
      <path class="grandfather-cls-34" d="m515.95,214.47c-.56-.02-7.65,2.02-11.13,1.01-1.68.61,3.89-6.87,5.06-8.09,2.15,0,3.47-1.88,5.06-3.03l1.01,10.12Z"/>
      <path class="grandfather-cls-22" d="m511.9,132.53c-6.01,4.55,3.5,4.93,6.07,8.09-3.08-.66-16.17-2.43-15.17,1.01-14.19,1.13-31.7,10.95-41.48,21.24-4.03,2.01-7.88,4.53-12.14,6.07,7.32-14.53,8.69-19.56,24.28-27.31,11.64-5.79,25.58-8.95,38.44-9.1Z"/>
      <path class="grandfather-cls-8" d="m581.71,258.99c3.23,21.83-33.74,41.54-53.62,25.29-2.84-2.32-9.12-11.98-10.12-16.19,21.71-.41,42.5-5.05,63.73-9.1Z"/>
      <path class="grandfather-cls-39" d="m542.25,298.44c-4.34-3.36-10.36-7.47-15.17-10.12l1.01-4.05c19.88,16.25,56.85-3.46,53.62-25.29-1.35-9.17-6.44-5.02-14.16-9.61,15.6-4.54,19.06,8.08,20.23-14.67.02.1,1.84-.36,2.02.51-.17,10.9,3.98,24.69,2.02,36.42-.91,5.49-8.16,16.37-12.65,19.73-6.2,4.63-23.76,10.05-31.36,9.1-.98-.12-1.5-3.92-5.56-2.02Z"/>
      <path class="grandfather-cls-5" d="m542.25,298.44c4.06-1.9,4.58,1.9,5.56,2.02,7.6.94,25.16-4.47,31.36-9.1,4.49-3.35,11.73-14.24,12.65-19.73,1.95-11.73-2.19-25.52-2.02-36.42-.19-.86-2-.4-2.02-.51-.81-3.94-2.35-8.28,0-12.14,13.83,52.48,5.99,55.53-13.15,88.52-13.96,24.06,3.96,15.5-32.37-12.65Z"/>
      <path class="grandfather-cls-6" d="m548.32,225.6c-9.85-5.08-21.02-10.77-32.37-11.13l-1.01-10.12c10.34-7.52,39.77-9.47,33.38,21.24Z"/>
      <path class="grandfather-cls-11" d="m517.97,268.09c.99,4.21,7.28,13.87,10.12,16.19l-1.01,4.05c-1.96-1.08-3.94-2.49-5.56-4.05-11.01,8.21-22.33,10.39-35.91,9.1-.46-.04-1.02-.6-3.03-1.01-1.97-.4-4.06-.84-6.07-1.01,18.41-9.55,24.41-1.56,40.47-23.27h1.01Z"/>
      <path class="grandfather-cls-37" d="m542.25,246.85c-3.32,12.21-10.63,9.69-16.19,10.12-13.59-19.9,7.34-32.24,16.19-10.12Z"/>
      <path class="grandfather-cls-34" d="m543.26,240.78c.26,2.72-.36,3.67-1.01,6.07-8.85-22.12-29.78-9.78-16.19,10.12-.46.03-2.94,1.71-9.1,1.01.93-20.73,5.92-42.52,26.3-17.2Z"/>
      <path class="grandfather-cls-17" d="m502.8,141.63c2.72-.22,10.71-.36,12.65,0,15.08,2.83-17.06,6.48-19.22,7.08-11.11,3.07-24.5,8.98-34.9,14.16,9.78-10.3,27.28-20.11,41.48-21.24Z"/>
      <g>
        <path class="grandfather-cls-7" d="m515.95,261.01c-.03,2.67,1.47,4.37,1.01,7.08-16.05,21.71-22.06,13.72-40.47,23.27-3.79.49-17.96-1.15-20.23-5.06,2.06-2.46-1.15-9.71-2.02-13.15.56-.48.45-4.43,10.62-10.12,6.78-2.93,12.66-2.09,18.72-3.03,11.42-1.77,23.34-5.71,32.37,1.01Z"/>
        <path class="grandfather-cls-18" d="m486.1,263.03c29.6-1.25,6.6,24.54-13.15,22.26-21.86-2.53-16.1-21.02,13.15-22.26Z"/>
      </g>
      <g>
        <path class="grandfather-cls-38" d="m533.15,329.8c.45,2.54-1.58,4.44-3.03,6.07-6.94,7.78-44.83,40.38-53.62,30.86-1.73-1.87-2.21-7.33-3.03-9.61,3.27-2.58,7.64-6.01,11.13-8.09,7.14-4.26,15.33-7.5,22.26-12.14,1.2-.8,7.08-4.07,7.08-4.55.2-2.33-4.79-2.06-6.07-2.53.19-1.65-.3-3.95,0-4.55.55-1.1,2.93.31,3.03-1.52,7.58,2.45,14.53,4.24,22.26,6.07Z"/>
        <path class="grandfather-cls-27" d="m484.59,308.56c1.84,8.96,18.43,12.63,26.3,15.17-.1,1.83-2.49.42-3.03,1.52-.3.6.19,2.9,0,4.55-7.6-2.76-47.91-13.91-39.45-2.02-.67-.04-1.35.02-2.02,0-.64-1.54-1.97-2.37-3.03-3.54l21.24-15.68Z"/>
        <path class="grandfather-cls-31" d="m484.59,349.02c-3.49,2.09-7.86,5.51-11.13,8.09-2.37-6.58-4.33-13.29-5.06-20.23-.19-1.86.77-1.94,1.01-3.03,4.48,6.73,8.97,10.29,15.17,15.17Z"/>
        <path class="grandfather-cls-30" d="m468.4,327.78c6.88.38,29.49,6.78,38.44,9.1-6.93,4.64-15.12,7.88-22.26,12.14-6.2-4.88-10.7-8.45-15.17-15.17-1.69-2.54-1.93-3.4-3.03-6.07.67.02,1.35-.04,2.02,0Z"/>
        <path class="grandfather-cls-40" d="m507.86,329.8c1.28.46,6.27.2,6.07,2.53,0,.48-5.89,3.75-7.08,4.55-8.96-2.33-31.56-8.73-38.44-9.1-8.46-11.89,31.86-.74,39.45,2.02Z"/>
      </g>
    </g>
  </g>
</svg>