<?xml version="1.0" encoding="UTF-8"?>
<svg id="Layer_1" data-name="Layer 1" xmlns="http://www.w3.org/2000/svg" viewBox="0 0 1229 1229">
  <defs>
    <style>
      .study-cls-1 {
        fill: #f4d04b;
      }

      .study-cls-1, .study-cls-2, .study-cls-3, .study-cls-4, .study-cls-5, .study-cls-6, .study-cls-7, .study-cls-8, .study-cls-9, .study-cls-10, .study-cls-11, .study-cls-12, .study-cls-13, .study-cls-14, .study-cls-15, .study-cls-16, .study-cls-17, .study-cls-18, .study-cls-19, .study-cls-20, .study-cls-21, .study-cls-22, .study-cls-23, .study-cls-24, .study-cls-25, .study-cls-26, .study-cls-27, .study-cls-28, .study-cls-29, .study-cls-30, .study-cls-31, .study-cls-32, .study-cls-33, .study-cls-34, .study-cls-35, .study-cls-36, .study-cls-37, .study-cls-38, .study-cls-39, .study-cls-40, .study-cls-41 {
        stroke-width: 0px;
      }

      .study-cls-2 {
        fill: #f8ccae;
      }

      .study-cls-3 {
        fill: #f9a872;
      }

      .study-cls-4 {
        fill: #f9b21f;
      }

      .study-cls-5 {
        fill: #f8dc86;
      }

      .study-cls-6 {
        fill: #552e12;
      }

      .study-cls-7 {
        fill: #792f14;
      }

      .study-cls-8 {
        fill: #7b968f;
      }

      .study-cls-9 {
        fill: #290f07;
      }

      .study-cls-10 {
        fill: #889b85;
      }

      .study-cls-11 {
        fill: #9c5309;
      }

      .study-cls-12 {
        fill: #551d03;
      }

      .study-cls-13 {
        fill: #964b32;
      }

      .study-cls-14 {
        fill: #361c0f;
      }

      .study-cls-15 {
        fill: #1d150d;
      }

      .study-cls-16 {
        fill: #421106;
      }

      .study-cls-17 {
        fill: #141b1d;
      }

      .study-cls-18 {
        fill: #0b0807;
      }

      .study-cls-19 {
        fill: #15716d;
      }

      .study-cls-20 {
        fill: #d21e38;
      }

      .study-cls-21 {
        fill: #cbcbcb;
      }

      .study-cls-22 {
        fill: #d4e5f5;
      }

      .study-cls-23 {
        fill: #db603d;
      }

      .study-cls-24 {
        fill: #bd3a21;
      }

      .study-cls-25 {
        fill: #ac6b08;
      }

      .study-cls-26 {
        fill: #c25634;
      }

      .study-cls-27 {
        fill: #a3101d;
      }

      .study-cls-28 {
        fill: #bb840a;
      }

      .study-cls-29 {
        fill: #969b7f;
      }

      .study-cls-30 {
        fill: #6c140f;
      }

      .study-cls-31 {
        fill: #015964;
      }

      .study-cls-32 {
        fill: #fc8a15;
      }

      .study-cls-33 {
        fill: #fdfefd;
      }

      .study-cls-34 {
        fill: #faf2ea;
      }

      .study-cls-35 {
        fill: #ef5743;
      }

      .study-cls-36 {
        fill: #f08e5a;
      }

      .study-cls-37 {
        fill: #01919d;
      }

      .study-cls-38 {
        fill: #00afbf;
      }

      .study-cls-39 {
        fill: #016b77;
      }

      .study-cls-40 {
        fill: #03343b;
      }

      .study-cls-41 {
        fill: #014449;
      }
    </style>
  </defs>
  <g>
    <path class="study-cls-26" d="m529.29,332.45c6.35,4.39,9.67,44.45,9.6,53.41-.03,4.18,1.09,6.06-3.6,5.4-4.48-.97-12.79,2.64-26.4-7.2,2.35-7.55,5.06-2.48,6.6-3.6,13.91-10.14-13.73-18.64-5.4-41.41,2.57-7.02,12.78-11.05,19.2-6.6Z"/>
    <path class="study-cls-3" d="m529.29,326.45c-.04.39,0,.8,0,1.2-.03,2.21,4.51,1.95,0,4.8-6.42-4.45-16.64-.42-19.2,6.6-8.33,22.77,19.31,31.27,5.4,41.41-1.54,1.12-4.25-3.95-6.6,3.6-23.53-17.02-16.49-59.74,9.6-61.21,2.14-.12,7.95,2.67,10.8,3.6Z"/>
    <path class="study-cls-2" d="m548.49,406.87c-8.57-5.04-3.91-13.6-13.2-15.6,4.69.66,3.57-1.22,3.6-5.4.07-8.96-3.26-49.01-9.6-53.41,4.51-2.85-.03-2.59,0-4.8,12.85,9.06,6.34,7.64,10.8-19.2,2.05,30.29-3.2,69.72,8.4,98.42Z"/>
  </g>
  <g>
    <g>
      <path class="study-cls-40" d="m757.32,1058.57c-.94.17-2.51,2.13-6,3.6-1.08-3.02-10.86,5.2-11.4,4.8-4.73-3.54,15.36-103,15-117.02q-33.91-.3-67.81-.6c-2.84,2.24-7.71,1.07-6.6,6-12.28-5.85-41.24-16.26-54.01-14.4-2.01.29-4.57-.65-6,.6-4.13,4.71-9.28,110.06-7.2,124.82.25,1.81,2.14,5.96,3.6,7.8-.95.04-13.14,3.51-18.6,3.6-38.94.65-75.2,1.18-111.02-16.8,14.36,2.63,28.75,7.64,43.21,9.6,9.15,1.24,18.35,2.15,27.6,2.4,3.95.11,30.3.67,31.21-.6-.52-35.29,3.17-70.05,7.2-105.02.54-4.67,4.99-25.43,3-27.6-18.23-2.66-36.68-5.33-54.61-9.6-26-6.2-52.25-13.24-76.81-24,.44-3.48,1.58-6.27,2.4-9.6,51.94,16.98,100.48,23.16,154.83,22.8,26.05-.17,56.51-.84,82.21-4.8,10.57-1.63,70.43-16.02,76.21-20.4,2.72,9.75,4.39,17.67-4.8,24.6q-10.8,69.91-21.6,139.82Z"/>
      <path class="study-cls-41" d="m751.32,1062.17c-3.45,1.45-12.19,8.5-24.6,12-27.29,7.7-51.62,5.13-79.21,3.6-12.18-.68-18.79-4.75-19.8-4.8-.69-3.92,1.21-5.31,1.2-6,20.98,3.94,42.13,10.39,63.61,7.8,1.54-17.54,3.83-35.24,4.8-52.81,3.4-61.6,3.71-56.84-16.8-66.61-1.11-4.93,3.77-3.76,6.6-6q33.91.3,67.81.6c.36,14.02-19.73,113.48-15,117.02.54.4,10.33-7.82,11.4-4.8Z"/>
      <path class="study-cls-19" d="m680.51,955.36c20.51,9.77,20.2,5.01,16.8,66.61-.97,17.57-3.26,35.27-4.8,52.81-21.48,2.59-42.64-3.86-63.61-7.8-.46-41.97-1.16-84.06-2.4-126.02,12.77-1.86,41.73,8.55,54.01,14.4Z"/>
    </g>
    <g>
      <path class="study-cls-38" d="m546.09,948.15c-.15,29.8-11.73,89.31-15.6,122.42-14.46-1.96-28.84-6.97-43.21-9.6l-2.4-2.4c-4.94-30.48-6.75-120.68-9.6-135.62,22.91,10.45,47.08,17.1,70.81,25.2Z"/>
      <path class="study-cls-39" d="m544.89,930.15c-.67,6.12,1.23,11.93,1.2,18-23.73-8.1-47.9-14.75-70.81-25.2-2.74-14.39-9.01-2.34-7.2-16.8,24.56,10.77,50.82,17.81,76.81,24Z"/>
      <path class="study-cls-31" d="m596.5,967.36c-4.03,34.97-7.72,69.73-7.2,105.02-.9,1.27-27.25.71-31.21.6q6-58.81,12-117.62c6.71,2.44,18.37,9.13,26.4,12Z"/>
      <path class="study-cls-37" d="m570.09,955.36q-6,58.81-12,117.62c-9.25-.25-18.46-1.16-27.6-2.4,3.87-33.11,15.46-92.62,15.6-122.42,7.91,2.7,16.22,4.37,24,7.2Z"/>
      <path class="study-cls-31" d="m596.5,967.36c-8.03-2.87-19.7-9.56-26.4-12-7.79-2.83-16.1-4.5-24-7.2.03-6.08-1.87-11.88-1.2-18,17.93,4.28,36.38,6.95,54.61,9.6,1.99,2.18-2.46,22.94-3,27.6Z"/>
    </g>
  </g>
  <g>
    <path class="study-cls-9" d="m645.71,182.43c1.49,7.83,6.95,18.12,10.8,25.2,23.68,64.88-76.76,84.62-91.21,33.61-.12-.41,1.64-1.18-1.2-8.4,31.09-10.33,46.37-11.05,70.81-39.01,3.27-3.74,6.59-12.19,10.8-11.4Z"/>
    <g>
      <path class="study-cls-18" d="m753.72,320.45c-3.72,5.97-10.64,9.64-15.6,14.4-2.27-28.71-9.96-56.49-15.6-84.61-2.02-3.02-23.09-3.22-33.61-7.8-12.89-5.61-25.82-22.71-32.41-34.81-3.86-7.09-9.31-17.37-10.8-25.2-4.84-25.4,1.06-32.77,19.2-48.01.47-.4,2.51,3.65,6-7.2,5.08,2.02,9.1,4.06,12.6,8.4,43.96-16.2,106.12,36.65,84.61,79.81,9.54,18.3-5.58,90.85-14.4,105.02Z"/>
      <path class="study-cls-16" d="m713.52,200.43c17.58-1.47,27.85,30.21-8.4,3.6-.7-1.67,7.95-3.56,8.4-3.6Z"/>
      <path class="study-cls-16" d="m721.92,163.23c1.61-.79,11.13,8.34,12.6,10.2,18.95,24.06-19.46-6.86-12.6-10.2Z"/>
      <path class="study-cls-15" d="m755.52,201.63c3.17,2.37-1.36,12.61-10.8,15.6l-1.8-1.8c3.74.45,11.52-14.61,12.6-13.8Z"/>
      <path class="study-cls-16" d="m757.92,229.24c3.09,29.34-3.95,30.39-1.2,1.2l.6-.6.6-.6Z"/>
    </g>
    <g>
      <path class="study-cls-18" d="m670.91,127.22c-3.49,10.85-5.53,6.8-6,7.2-23.89-7.07-51.16-6.38-73.81,4.8-.88-.59-1.82-2.51-3-2.4,14.7-21.15,61.05-18.23,82.81-9.6Z"/>
      <path class="study-cls-18" d="m564.09,232.84c2.84,7.22,1.08,7.99,1.2,8.4-16.97,16.16-21.48,44.78-25.2,67.21-4.46,26.85,2.04,28.27-10.8,19.2,0-.4-.04-.81,0-1.2,1.3-13.12,7.37-55.85,10.8-66.61,8.25-25.87,14.82-23.95,24-27Z"/>
      <g>
        <path class="study-cls-14" d="m664.91,134.42c-18.14,15.23-24.05,22.61-19.2,48.01-4.21-.79-7.53,7.66-10.8,11.4-24.44,27.96-39.72,28.68-70.81,39.01-9.19,3.05-15.76,1.13-24,27-3.43,10.76-9.5,53.49-10.8,66.61-2.85-.93-8.66-3.72-10.8-3.6-3.65-11.82-16.92-101.91-10.2-104.42.32-.12,5.2,4.3,6.6,1.8,1.55-2.76-17.22-25.1,9.6-58.81,22.17-27.86,47.01-23.03,63.61-24.6,1.18-.11,2.12,1.81,3,2.4,22.65-11.18,49.92-11.87,73.81-4.8Z"/>
        <path class="study-cls-6" d="m576.69,146.42c.54,0,10.28,1.06,10.8,1.2,24.84,6.49-21.3,31.89-21,25.8,20.41-18.23-7.66-10.59-18.6-5.4-6.96,3.3-18.21,13.78-23.4,19.8-5.34,6.19-12.09,22.06-12,12,.05-5.76,25.96-53.54,64.21-53.41Z"/>
      </g>
    </g>
  </g>
  <g>
    <path class="study-cls-27" d="m837.74,619.3c-14.52,33.12-19.61,67.52-35.41,32.41q-9.9,7.2-19.8,14.4c-15.23-8.79-27.12-20.83-40.21-32.41-4.5-.88-49.35,19-55.81,22.8q-3.6-43.21-7.2-86.41c4.57-3.86,17.77-18.07,19.2-22.8,4.13-13.61,2.62-39.79-9.6-50.41.19-.25-.19-.94,0-1.2,5.42-7.21,18.93-32.26,24.6-31.21,5.01.93,21.05,24.34,19.8,31.81,50.38,45.08,72.23,63.2,104.42,123.02Z"/>
    <g>
      <path class="study-cls-35" d="m619.3,859.34c1.13-.07,1.32,1.32,2.4,1.2q1.8,29.4,3.6,58.81c-54.34.35-102.88-5.82-154.83-22.8l-7.2-5.4c-2.2-21.94,2.72-44.17,12-64.21,9.75-1.03,21.98-2.2,20.4-4.8,7.22-.75,9.87.94,22.8-4.8,27.57,24.6,63.05,44.29,100.82,42.01Z"/>
      <path class="study-cls-27" d="m795.73,847.34c-4.19,9.92,1.08,36.91-12,46.81-5.79,4.38-65.64,18.77-76.21,20.4-25.7,3.96-56.16,4.63-82.21,4.8q-1.8-29.4-3.6-58.81c20.46-2.24,63.91-21.18,81.61-34.81,16.56,26.65,85.95,18.12,90.61,19.2.98.23.05,2.57,1.8,2.4Z"/>
    </g>
    <path class="study-cls-34" d="m590.5,498.08c7.02,4.09,20.03,19.68,30,26.4,1.12,1.8,10.62,10.8,11.4,10.8,2.79,0,36.55-31.92,42.61-36.01,5.38-3.63,5.09-6.97,14.4-3.6-.19.26.19.95,0,1.2-5.43,7.13-10.69,13.83-16.8,20.4-4.37,4.69-34.19,32.63-37.81,32.41-27.32-17.45-40.94-29.17-58.21-56.41,4.9,2.02,9.61,2.01,14.4,4.8Z"/>
    <g>
      <path class="study-cls-28" d="m855.74,654.11c-16.94,22.45-66.14,48.64-36.61,38.41,7.78-2.7,32.58-17.76,36.61-24.6,2.82-4.8-1.81-7.13,2.4-6.6,5.7,12.54,10.05,19.74,15.6,34.81l-82.81,14.4c2.4-12.83,3.01-26.23,6-39.01-1.07-2.68-8.37-1.89-10.8-1.8-1.13-.57-2.85-3.17-3.6-3.6q9.9-7.2,19.8-14.4c15.8,35.12,20.89.72,35.41-32.41,5.75,10.68,13,23.99,18,34.81Z"/>
      <path class="study-cls-11" d="m873.74,696.11c1.24,3.37,8.32,17.71,7.2,19.8-5.51.91-11.48,4.18-15.6,5.4-.21.06-.12-2.33-4.2-1.2-18.13,5-36.1,10.86-54.61,14.4-6.25,1.2-14.95,1.28-21.6,2.4,1.63-6.37,4.85-20.28,6-26.4l82.81-14.4Z"/>
      <path class="study-cls-25" d="m858.14,661.31c-4.21-.53.42,1.8-2.4,6.6-4.02,6.85-28.82,21.91-36.61,24.6-29.53,10.24,19.67-15.96,36.61-38.41.83,1.8,1.57,5.38,2.4,7.2Z"/>
    </g>
    <g>
      <path class="study-cls-4" d="m547.29,526.89c21,32.51,51,52.84,85.81,68.41,7.47.92,39.47-19.51,46.21-25.2q3.6,43.21,7.2,86.41c-25.15,14.83-47.49,38.3-60.01,64.81-4.31-3.14-16.37-24.39-21.6-31.21-19.88-25.87-45.12-51.71-76.21-63.61-25.15-9.63-25.52-9.02-42.61,4.8-4.13,3.34-9.32,5.69-12,10.8-2.9,1.9-7.43,3.82-7.2,7.2-4.44-1.4-10.99-1.33-15.6-2.4-2.21-.51-.5-2.58-1.8-3.6-1.19.53-2.8,3.48-3,3.6-7.89,4.83-14.94,10.41-21.6,16.8-2.1-16.84,8.62-31.72-12-13.2-6.18-7.47-13.88-14.65-16.8-24,4.21-7.08,7.05-14.07,12-21,26-36.41,62.19-66.09,97.22-93.02,3.58,6.86,31.97,14.55,42.01,14.4Z"/>
      <path class="study-cls-4" d="m400.87,674.51c17.49,9.25,35.37,17.6,55.21,20.4,1.77,10.84,3.72,22.93,6,33.61h-1.2c-29.35-15.56-60.88-27.01-91.21-39.61-2.81-1.17-4.53.48-4.8-3,3.09-8.28,8.17-15.54,12-23.4,3.17-1.55,13.51,6.45,24,12Z"/>
      <path class="study-cls-32" d="m531.69,495.68c4.66,10.55,9.33,21.49,15.6,31.21-10.04.14-38.43-7.54-42.01-14.4,8.21-6.31,17.03-12.32,26.4-16.8Z"/>
      <g>
        <path class="study-cls-5" d="m412.87,650.51c3.84,4.65,8.41,14.6,12,13.2,6.66-6.4,13.71-11.97,21.6-16.8,10.18,8.63-17.79,25.51-16.8,29.4l22.2,10.2c8.56,16.24-39.78-9.86-51.01-12-10.5-5.55-20.83-13.56-24-12,6.01-12.35,12.17-24.19,19.2-36.01,2.92,9.35,10.63,16.53,16.8,24Z"/>
        <path class="study-cls-5" d="m451.27,646.91c.33,16.02,2.23,32.22,4.8,48.01-19.84-2.8-37.72-11.15-55.21-20.4,11.23,2.15,59.56,28.24,51.01,12l-22.2-10.2c-.98-3.9,26.98-20.78,16.8-29.4.2-.12,1.82-3.07,3-3.6,1.3,1.02-.41,3.09,1.8,3.6Z"/>
        <path class="study-cls-1" d="m424.87,663.71c-3.59,1.4-8.16-8.56-12-13.2,20.63-18.52,9.9-3.64,12,13.2Z"/>
      </g>
    </g>
    <g>
      <path class="study-cls-35" d="m576.09,493.28c17.27,27.24,30.89,38.96,58.21,56.41,3.61.22,33.44-27.71,37.81-32.41l26.4,30c-1.44,4.73-14.63,18.94-19.2,22.8-6.73,5.69-38.74,26.12-46.21,25.2-34.81-15.57-64.81-35.9-85.81-68.41-6.28-9.72-10.94-20.66-15.6-31.21,5.51-3.55,17.35-27.72,21-28.8,12.87-3.81,18.37,18.47,23.4,26.4Z"/>
      <path class="study-cls-20" d="m698.51,547.29l-26.4-30c6.12-6.58,11.37-13.27,16.8-20.4,12.22,10.62,13.74,36.8,9.6,50.41Z"/>
    </g>
    <path class="study-cls-30" d="m806.53,734.52c-8.69,19.3-22.13,35.7-34.21,52.81-4.8.59-3.99-1.16-4.2-1.2,5.56-16.3,12.53-32.5,16.8-49.21,6.65-1.12,15.35-1.2,21.6-2.4Z"/>
    <g>
      <path class="study-cls-26" d="m460.88,728.52c-17.95-2.5-21.54-18.05-34.81,3.6-4.8-7.25-4.84-10.34-12.6-16.8-12.77-8.47-27.47-14.39-40.21-22.8-.21-.14-1.4-2.21-3.6-3.6,30.34,12.6,61.87,24.05,91.21,39.61Z"/>
      <path class="study-cls-23" d="m460.88,728.52h1.2c3.06,14.28,9.29,28.45,10.8,43.21-31.82,9.3-30.02-14.27-46.81-39.61,13.26-21.65,16.86-6.1,34.81-3.6Z"/>
    </g>
    <g>
      <path class="study-cls-7" d="m466.88,649.31c44.47,13.99,96.57,43.07,136.82,67.21.44.48.84.82,1.2,1.2,1.26,7.96,13.05,15.85,14.4,22.2,2.18,10.25-1.63,95.28,0,119.42-37.76,2.28-73.24-17.41-100.82-42.01,14.06-6.23,31.27-27.05,10.8-35.41-1.27-69.71-43.48-13.98-56.41-10.2-1.51-14.76-7.74-28.93-10.8-43.21-2.29-10.68-4.24-22.77-6-33.61-2.57-15.78-4.47-31.99-4.8-48.01,4.61,1.07,11.16,1,15.6,2.4Z"/>
      <g>
        <path class="study-cls-34" d="m604.9,690.11l-39.61-16.2c20.12,10.2,29.87,33.24,38.41,42.61-40.25-24.14-92.35-53.22-136.82-67.21-.22-3.38,4.3-5.3,7.2-7.2,4.53-2.98,9.36-4.71,12.6-9.6q38.41,20.4,76.81,40.81c1.2-.94.76-1.38,0-2.4-2.85-3.84-65.71-36.96-77.41-39.61,17.08-13.82,17.46-14.43,42.61-4.8,31.09,11.9,56.33,37.74,76.21,63.61Z"/>
        <path class="study-cls-21" d="m486.08,631.3c11.7,2.64,74.56,35.77,77.41,39.61.76,1.02,1.2,1.46,0,2.4q-38.41-20.4-76.81-40.81c-3.24,4.89-8.07,6.62-12.6,9.6,2.68-5.11,7.87-7.46,12-10.8Z"/>
      </g>
      <path class="study-cls-14" d="m790.93,710.52c-1.15,6.13-4.37,20.04-6,26.4-4.27,16.71-11.24,32.91-16.8,49.21-8.02-1.67-37.12-24.95-41.41-25.2-24.93-1.47-18.41,41.5-19.8,43.81-.69,1.15-15.65,1.62-3.6,21-17.7,13.62-61.15,32.56-81.61,34.81-1.08.12-1.27-1.27-2.4-1.2-1.63-24.14,2.18-109.17,0-119.42-1.35-6.36-13.15-14.24-14.4-22.2,3.53,3.75,12.73,10.13,17.4,14.4,7.55-5.2,14.43-11.97,22.2-16.8,7.35-4.57,17.53-10.37,25.2-14.4,31.09-11.92,63.24-20.5,96.02-26.4,5.46-.98,17.47-4.7,20.4-4.8,2.43-.09,9.73-.88,10.8,1.8-2.99,12.77-3.6,26.17-6,39.01Z"/>
      <g>
        <path class="study-cls-10" d="m782.53,666.11c.75.43,2.47,3.03,3.6,3.6-2.93.1-14.94,3.82-20.4,4.8-.93-5.19,14.61-3.8,15.6-5.4-20.15-15.71-9.23-7.08-16.2-4.2-2.05.85-26.66,4.83-42.01,10.8-10.06,4.84-10.17,8.15-10.8,8.4-7.66,3.06-25.7,7.1-31.21,9.6-11.99,5.46-10.8,6.89-11.4,7.2-7.67,4.03-17.85,9.83-25.2,14.4-1.21-5.78-11.21,10.95-18,6,12.51-26.51,34.86-49.98,60.01-64.81,6.46-3.81,51.31-23.68,55.81-22.8,13.08,11.58,24.97,23.62,40.21,32.41Z"/>
        <path class="study-cls-8" d="m604.9,690.11c5.23,6.81,17.3,28.07,21.6,31.21,6.79,4.95,16.79-11.78,18-6-7.77,4.83-14.65,11.6-22.2,16.8-4.67-4.27-13.87-10.65-17.4-14.4-.36-.38-.77-.72-1.2-1.2-8.53-9.36-18.29-32.41-38.41-42.61l39.61,16.2Z"/>
        <path class="study-cls-29" d="m765.72,674.51c-32.77,5.91-64.93,14.49-96.02,26.4.6-.31-.59-1.74,11.4-7.2,5.5-2.5,23.55-6.54,31.21-9.6.64-.25.74-3.56,10.8-8.4,15.34-5.97,39.95-9.95,42.01-10.8,6.97-2.88-3.95-11.51,16.2,4.2-.99,1.61-16.53.22-15.6,5.4Z"/>
      </g>
    </g>
  </g>
  <g>
    <path class="study-cls-13" d="m865.34,721.32c.29,35.43,1.35,81.42-29.4,105.62-18.55,14.59-37.41,13.8-40.21,20.4-1.75.17-.82-2.17-1.8-2.4-4.66-1.08-74.05,7.44-90.61-19.2-12.04-19.38,2.91-19.85,3.6-21,1.39-2.3-5.12-45.28,19.8-43.81,4.29.25,33.39,23.53,41.41,25.2.21.04-.6,1.79,4.2,1.2,12.07-17.11,25.52-33.51,34.21-52.81,18.51-3.54,36.48-9.4,54.61-14.4,4.08-1.13,3.99,1.26,4.2,1.2Z"/>
    <path class="study-cls-13" d="m738.12,385.26c1.44-7.37.72-41.35,0-50.41,4.96-4.76,11.88-8.43,15.6-14.4,43.41,7.82,24.33,81.41-15.6,64.81Z"/>
    <g>
      <path class="study-cls-13" d="m660.11,464.48c2.88,12.59,4.86,25.28,14.4,34.81-6.06,4.09-39.82,36-42.61,36.01-.79,0-10.29-9-11.4-10.8,3.8,2.56,8.19,5.71,12.6,7.2q11.7-9.9,23.4-19.8c-.73-3.4-36.25-2-57.61-29.4,1.61-6.75,1.06-15.8,1.2-22.8l2.4-2.4c1.04,8.73,28.35,12.42,37.81,12,6.23-.27,13.86-2.67,19.8-4.8Z"/>
      <path class="study-cls-13" d="m620.5,524.49c-9.98-6.73-22.98-22.32-30-26.4,2.12-3.72,7.58-12.17,8.4-15.6,21.36,27.41,56.88,26.01,57.61,29.4q-11.7,9.9-23.4,19.8c-4.41-1.49-8.81-4.64-12.6-7.2Z"/>
    </g>
    <g>
      <path class="study-cls-36" d="m426.07,732.12c16.79,25.34,14.98,48.9,46.81,39.61,12.93-3.78,55.14-59.51,56.41,10.2,20.46,8.36,3.26,29.17-10.8,35.41-12.94,5.74-15.59,4.05-22.8,4.8-45,4.68-66.47-4.86-81.01-6-2.3-.18-3.38-.31-3,2.4-46.83-19.88-39.34-83.98-38.41-126.02,12.74,8.42,27.44,14.33,40.21,22.8,7.77,6.46,7.8,9.56,12.6,16.8Z"/>
      <path class="study-cls-26" d="m495.68,822.13c1.57,2.6-10.66,3.77-20.4,4.8-21.61,2.28-43.31.22-63.61-8.4-.38-2.71.7-2.58,3-2.4,14.54,1.14,36.02,10.68,81.01,6Z"/>
    </g>
    <g>
      <path class="study-cls-15" d="m698.51,278.45c12.24,2.03,23.39,18.11,22.2,30-15.31-17.08-30.32-19.32-48.61-4.8.54-2.07-.68-29.69,26.4-25.2Z"/>
      <path class="study-cls-23" d="m673.31,416.47h1.2c-8.1,10.47-11.56,22.06-27,25.2-3.89.79-11.11-4.42-10.2,2.4-14.51-8.29-26.03-6.94-33.61-26.4l2.4-1.2c1.88,11.47,37.8,30.93,67.21,0Z"/>
      <path class="study-cls-24" d="m650.51,397.26c-.82.1-12.8-1.62-14.4-5.4,4.74-.84,8.38-.39,13.2-1.8,10.5-3.07,11.16-10.9,13.2-5.4,2.25,6.08-10.49,12.42-12,12.6Z"/>
      <g>
        <path class="study-cls-36" d="m688.91,242.44q4.8,18,9.6,36.01c-27.09-4.48-25.87,23.13-26.4,25.2-.26,1,1.84,1.64,1.2,3-30.31,40.26-5.4,68.65-24,83.41-4.82,1.41-8.47.96-13.2,1.8,1.6,3.78,13.58,5.5,14.4,5.4,1.11,21.39-29.19,3.36-42.01,8.4-10.85-8.07-10.53-2.73-4.8,12,7.57,19.46,19.09,18.12,33.61,26.4,29.59,16.9-14.11,24.06-34.81,13.2l-2.4,2.4c-17.97-13.14-42.98-31.48-51.61-52.81-11.6-28.69-6.35-68.13-8.4-98.42,3.73-22.43,8.23-51.05,25.2-67.21,14.45,51.02,114.9,31.27,91.21-33.61,6.58,12.1,19.52,29.19,32.41,34.81Z"/>
        <g>
          <path class="study-cls-15" d="m576.69,279.65c8.28-1.28,17.65,1.92,22.2,9,15.11,23.51-6.92,3.25-18.6,4.2-9.62.78-20.33,13.38-21.6,13.2-7.51-1.03,3.26-24.13,18-26.4Z"/>
          <path class="study-cls-14" d="m608.5,405.67c-.09.78.17,1.81,0,2.4-.62,2.08-2.62,7.08-2.4,8.4l-2.4,1.2c-5.73-14.73-6.05-20.07,4.8-12Z"/>
          <g>
            <path class="study-cls-18" d="m595.3,343.26l1.2,12c-6.89,20.36-34.31,3.65-20.4-15.6,4.59,3.85,5.41,1.79,3.6-3.6,9.38-3.82,12.34-.98,15.6,7.2Z"/>
            <path class="study-cls-34" d="m596.5,355.26l-1.2-12c.26.65,5.21.13,1.2,12Z"/>
            <path class="study-cls-17" d="m576.09,339.66c1.13-1.57,1.64-2.8,3.6-3.6,1.81,5.39.99,7.45-3.6,3.6Z"/>
          </g>
        </g>
      </g>
      <path class="study-cls-33" d="m670.91,409.27q1.2,3.6,2.4,7.2c-29.41,30.93-65.33,11.47-67.21,0-.22-1.32,1.78-6.32,2.4-8.4,21.25,10.81,40.58,8.76,62.41,1.2Z"/>
      <g>
        <path class="study-cls-23" d="m738.12,334.85c.72,9.06,1.44,43.04,0,50.41-6.1,31.16-49.43,68.95-78.01,79.21-5.94,2.13-13.58,4.53-19.8,4.8-9.46.41-36.76-3.27-37.81-12,20.7,10.85,64.4,3.69,34.81-13.2-.91-6.82,6.31-1.61,10.2-2.4,15.44-3.15,18.91-14.74,27-25.2,12.82-16.57,19.97-15.36-3.6-7.2-21.83,7.56-41.16,9.61-62.41-1.2.17-.59-.09-1.62,0-2.4,12.81-5.04,43.12,12.99,42.01-8.4,1.51-.18,14.26-6.52,12-12.6-2.04-5.5-2.71,2.33-13.2,5.4,18.6-14.76-6.31-43.16,24-83.41.64-1.36-1.46-2-1.2-3,18.29-14.52,33.29-12.28,48.61,4.8,1.18-11.89-9.97-27.98-22.2-30q-4.8-18-9.6-36.01c10.52,4.58,31.59,4.78,33.61,7.8,5.64,28.12,13.33,55.9,15.6,84.61Z"/>
        <path class="study-cls-12" d="m674.51,416.47h-1.2q-1.2-3.6-2.4-7.2c23.57-8.16,16.42-9.37,3.6,7.2Z"/>
        <g>
          <path class="study-cls-18" d="m691.91,336.05c22.73-3.72,16.99,41.01-4.8,27.6-10.63-6.54-5.7-25.89,4.8-27.6Z"/>
          <path class="study-cls-22" d="m702.71,345.66c.43,0,2.64,1.73.6,3-2.29,1.43-2.67-3-.6-3Z"/>
        </g>
      </g>
    </g>
  </g>
</svg>