<?xml version="1.0" encoding="utf-8"?>
<!-- Generator: Adobe Illustrator 27.8.1, SVG Export Plug-In . SVG Version: 6.00 Build 0)  -->
<svg version="1.1" id="Layer_1" xmlns="http://www.w3.org/2000/svg" xmlns:xlink="http://www.w3.org/1999/xlink" x="0px" y="0px"
	 viewBox="0 0 158 200" style="enable-background:new 0 0 158 200;" xml:space="preserve">
<style type="text/css">
	.st0{fill:#5AB532;stroke:#000000;stroke-width:0.7861;stroke-miterlimit:10;}
	.st1{fill:#5AB532;stroke:#000000;stroke-width:10.7819;stroke-linecap:round;}
	.st2{fill:#5AB532;stroke:#000000;stroke-width:4.695;stroke-linecap:round;}
	.st3{fill:#5AB532;stroke:#000000;stroke-width:5.288;stroke-linecap:round;}
	.st4{fill:#5AB532;stroke:#000000;stroke-width:5.1688;stroke-linecap:round;}
	.st5{fill:#5AB532;stroke:#000000;stroke-width:5.2473;stroke-linecap:round;}
</style>
<g id="surface1">
	<path class="st0" d="M61.5,125.7C49.2,105.9,31.7,88.4,4.7,89.1c24-8.6,45.7,3.8,50.4,19.9C55,113.1,61.5,121.6,61.5,125.7z"/>
	<path class="st0" d="M61.5,100.4c-6.2-21.9-22.2-54.5-48.8-59.3c24-8.6,40.8,19.5,45.4,35.6C60,81.7,62.3,92.4,61.5,100.4z"/>
	<path class="st0" d="M63.8,116.2C76,96.3,93.5,78.8,120.5,79.5c-24-8.6-45.7,3.8-50.4,19.9C70.2,103.5,63.8,112,63.8,116.2z"/>
	<path class="st0" d="M64.3,88.7c6.2-21.9,22.2-54.5,48.8-59.3c-24-8.6-40.8,19.5-45.4,35.6C65.8,70.1,63.5,80.7,64.3,88.7z"/>
	<path class="st0" d="M62.7,80.9c-4.9-22.2-19-55.5-45.3-61.6C41.8,12,57,40.9,60.7,57.2C62.3,62.2,64,73,62.7,80.9z"/>
	<path class="st0" d="M66.3,67.2c4.9-22.2,19-55.5,45.3-61.6C87.2-1.7,72.1,27.1,68.4,43.5C66.7,48.5,65,59.3,66.3,67.2z"/>
	<path class="st0" d="M66,45.5C53.8,25.7,36.2,8.2,9.2,8.9c24-8.6,45.7,3.8,50.3,19.9C59.6,32.9,66,41.4,66,45.5z"/>
	<path class="st0" d="M65.3,50.3C77.5,30.5,95.1,13,122.1,13.7c-24-8.6-45.7,3.8-50.3,19.9C71.7,37.7,65.3,46.2,65.3,50.3z"/>
	<path class="st0" d="M67.5,192.6c-12.4-51.1-6.2-100.4-3-152.2c1.5,1.1,3,2.3,4.5,3.4c-5.9,50-2.8,100.1,3.8,149.1
		c0.1,3.7,4,3.2,6.1,4.8c-8.1-1.9-13.1-1.1-25.4,0.3C58.2,196.3,66.3,196.1,67.5,192.6z"/>
	<path class="st1" d="M66.4,180.8c-0.7,0-1.2,0.3-1.2,0.7v1c0,0.4,0.6,0.7,1.2,0.7h4.1c0.7,0,1.2-0.3,1.2-0.7v-1
		c0-0.4-0.6-0.7-1.2-0.7H66.4z"/>
	<path class="st2" d="M63.8,163.6c-0.7,0-1.2,0.3-1.2,0.7v1c0,0.4,0.6,0.7,1.2,0.7h4.1c0.7,0,1.2-0.3,1.2-0.7v-1
		c0-0.4-0.6-0.7-1.2-0.7H63.8z"/>
	<path class="st2" d="M62.6,149.2c-0.7,0-1.2,0.3-1.2,0.7v1c0,0.4,0.5,0.7,1.2,0.7h4.1c0.7,0,1.2-0.3,1.2-0.7v-1
		c0-0.4-0.6-0.7-1.2-0.7H62.6z"/>
	<path class="st2" d="M61.6,132.8c-0.7,0-1.2,0.3-1.2,0.7v1c0,0.4,0.5,0.7,1.2,0.7h4.1c0.7,0,1.2-0.3,1.2-0.7v-1
		c0-0.4-0.5-0.7-1.2-0.7H61.6z"/>
	<path class="st3" d="M61.7,112c-0.5-0.1-1,0.2-1.1,0.5l-0.2,0.9c-0.1,0.4,0.3,0.8,0.8,0.9l3.2,0.6c0.5,0.1,1-0.1,1.1-0.5l0.2-0.9
		c0.1-0.4-0.3-0.8-0.8-0.9L61.7,112z"/>
	<path class="st4" d="M62.8,86.5c-0.4-0.1-0.9,0.1-1,0.4l-0.3,0.9c-0.1,0.4,0.1,0.8,0.5,0.9l2.5,0.8c0.4,0.1,0.9-0.1,1-0.4l0.3-0.9
		c0.1-0.4-0.1-0.8-0.5-0.9L62.8,86.5z"/>
	<path class="st5" d="M65.3,61.8c-0.3-0.2-0.7-0.1-0.9,0.2L64,62.9c-0.2,0.4-0.1,0.8,0.2,1l1.7,1.3c0.3,0.2,0.7,0.1,0.9-0.3l0.5-0.8
		c0.2-0.3,0.1-0.8-0.2-1L65.3,61.8z"/>
	<path class="st2" d="M67.4,42.7c-0.2-0.3-0.6-0.3-0.9,0l-0.8,0.7c-0.3,0.3-0.4,0.7-0.2,1l1.2,1.7c0.2,0.3,0.6,0.3,0.9,0l0.7-0.7
		c0.3-0.3,0.4-0.7,0.2-1L67.4,42.7z"/>
	<path class="st0" d="M85.7,125.7c12.2-19.9,29.8-37.4,56.8-36.7c-24-8.6-45.7,3.8-50.4,19.9C92.1,113.1,85.7,121.6,85.7,125.7z"/>
	<path class="st0" d="M85.7,100.4c6.2-21.9,22.2-54.5,48.8-59.3c-24-8.6-40.8,19.5-45.4,35.6C87.2,81.7,84.9,92.4,85.7,100.4z"/>
	<path class="st0" d="M83.4,116.2C71.2,96.3,53.7,78.8,26.7,79.5c24-8.6,45.7,3.8,50.4,19.9C77,103.5,83.4,112,83.4,116.2z"/>
	<path class="st0" d="M82.9,88.7C76.7,66.8,60.7,34.2,34,29.4C58,20.9,74.8,49,79.5,65.1C81.4,70.1,83.7,80.7,82.9,88.7z"/>
	<path class="st0" d="M84.5,80.9c4.9-22.2,19-55.5,45.3-61.6C105.4,12,90.2,40.9,86.5,57.2C84.9,62.2,83.2,73,84.5,80.9z"/>
	<path class="st0" d="M80.9,67.2C76,45,61.9,11.7,35.6,5.7C60-1.7,75.1,27.1,78.8,43.5C80.5,48.5,82.2,59.3,80.9,67.2z"/>
	<path class="st0" d="M81.2,45.5C93.4,25.7,111,8.2,138,8.9c-24-8.6-45.7,3.8-50.3,19.9C87.6,32.9,81.2,41.4,81.2,45.5z"/>
	<path class="st0" d="M81.9,50.3C69.7,30.5,52.1,13,25.1,13.7c24-8.6,45.7,3.8,50.3,19.9C75.5,37.7,81.9,46.2,81.9,50.3z"/>
	<path class="st0" d="M79.7,192.6c12.4-51.1,6.2-100.4,3-152.2c-1.5,1.1-3,2.3-4.5,3.4c5.9,50,2.8,100.1-3.8,149.1
		c-0.1,3.7-4,3.2-6.1,4.8c8.1-1.9,13.1-1.1,25.4,0.3C89,196.3,80.9,196.1,79.7,192.6z"/>
	<path class="st1" d="M80.8,180.8c0.7,0,1.2,0.3,1.2,0.7v1c0,0.4-0.6,0.7-1.2,0.7h-4.1c-0.7,0-1.2-0.3-1.2-0.7v-1
		c0-0.4,0.6-0.7,1.2-0.7H80.8z"/>
	<path class="st2" d="M83.4,163.6c0.7,0,1.2,0.3,1.2,0.7v1c0,0.4-0.6,0.7-1.2,0.7h-4.1c-0.7,0-1.2-0.3-1.2-0.7v-1
		c0-0.4,0.6-0.7,1.2-0.7H83.4z"/>
	<path class="st2" d="M84.6,149.2c0.7,0,1.2,0.3,1.2,0.7v1c0,0.4-0.6,0.7-1.2,0.7h-4.1c-0.7,0-1.2-0.3-1.2-0.7v-1
		c0-0.4,0.6-0.7,1.2-0.7H84.6z"/>
	<path class="st2" d="M85.6,132.8c0.7,0,1.2,0.3,1.2,0.7v1c0,0.4-0.5,0.7-1.2,0.7h-4.1c-0.7,0-1.2-0.3-1.2-0.7v-1
		c0-0.4,0.5-0.7,1.2-0.7H85.6z"/>
	<path class="st3" d="M85.5,112c0.5-0.1,1,0.2,1.1,0.5l0.2,0.9c0.1,0.4-0.3,0.8-0.8,0.9l-3.2,0.6c-0.5,0.1-1-0.1-1.1-0.5l-0.2-0.9
		c-0.1-0.4,0.3-0.8,0.8-0.9L85.5,112z"/>
	<path class="st4" d="M84.4,86.5c0.4-0.1,0.9,0.1,1,0.4l0.3,0.9c0.1,0.4-0.1,0.8-0.5,0.9l-2.5,0.8c-0.4,0.1-0.9-0.1-1-0.4l-0.3-0.9
		c-0.1-0.4,0.1-0.8,0.5-0.9L84.4,86.5z"/>
	<path class="st5" d="M81.9,61.8c0.3-0.2,0.7-0.1,0.9,0.2l0.5,0.8c0.2,0.4,0.1,0.8-0.2,1l-1.7,1.3c-0.3,0.2-0.7,0.1-0.9-0.3L79.9,64
		c-0.2-0.3-0.1-0.8,0.2-1L81.9,61.8z"/>
	<path class="st2" d="M79.8,42.7c0.2-0.3,0.6-0.3,0.9,0l0.8,0.7c0.3,0.3,0.4,0.7,0.2,1L80.4,46c-0.2,0.3-0.6,0.3-0.9,0l-0.7-0.7
		c-0.3-0.3-0.4-0.7-0.2-1L79.8,42.7z"/>
	<path class="st0" d="M94,125.7c-12.2-19.9-29.8-37.4-56.8-36.7c24-8.6,45.7,3.8,50.4,19.9C87.6,113.1,94,121.6,94,125.7z"/>
	<path class="st0" d="M94,100.4c-6.2-21.9-22.2-54.5-48.8-59.3c24-8.6,40.8,19.5,45.4,35.6C92.6,81.7,94.9,92.4,94,100.4z"/>
	<path class="st0" d="M96.3,116.2c12.2-19.9,29.8-37.4,56.8-36.7c-24-8.6-45.7,3.8-50.4,19.9C102.7,103.5,96.3,112,96.3,116.2z"/>
	<path class="st0" d="M96.9,88.7c6.2-21.9,22.2-54.5,48.8-59.3c-24-8.6-40.8,19.5-45.4,35.6C98.4,70.1,96,80.7,96.9,88.7z"/>
	<path class="st0" d="M95.3,80.9c-4.9-22.2-19-55.5-45.3-61.6C74.4,12,89.5,40.9,93.2,57.2C94.9,62.2,96.6,73,95.3,80.9z"/>
	<path class="st0" d="M98.9,67.2c4.9-22.2,19-55.5,45.3-61.6c-24.5-7.4-39.6,21.5-43.3,37.8C99.3,48.5,97.6,59.3,98.9,67.2z"/>
	<path class="st0" d="M98.6,45.5C86.3,25.7,68.8,8.2,41.8,8.9c24-8.6,45.7,3.8,50.3,19.9C92.1,32.9,98.6,41.4,98.6,45.5z"/>
	<path class="st0" d="M97.8,50.3c12.2-19.9,29.8-37.4,56.8-36.7c-24-8.6-45.7,3.8-50.3,19.9C104.3,37.7,97.8,46.2,97.8,50.3z"/>
	<path class="st0" d="M100.1,192.6c-12.4-51.1-6.2-100.4-3-152.2c1.5,1.1,3,2.3,4.5,3.4c-5.9,50-2.8,100.1,3.8,149.1
		c0.1,3.7,4,3.2,6.1,4.8c-8.1-1.9-13.1-1.1-25.4,0.3C90.8,196.3,98.8,196.1,100.1,192.6z"/>
	<path class="st1" d="M99,180.8c-0.7,0-1.2,0.3-1.2,0.7v1c0,0.4,0.6,0.7,1.2,0.7h4.1c0.7,0,1.2-0.3,1.2-0.7v-1
		c0-0.4-0.6-0.7-1.2-0.7H99z"/>
	<path class="st2" d="M96.3,163.6c-0.7,0-1.2,0.3-1.2,0.7v1c0,0.4,0.6,0.7,1.2,0.7h4.1c0.7,0,1.2-0.3,1.2-0.7v-1
		c0-0.4-0.6-0.7-1.2-0.7H96.3z"/>
	<path class="st2" d="M95.2,149.2c-0.7,0-1.2,0.3-1.2,0.7v1c0,0.4,0.5,0.7,1.2,0.7h4.1c0.7,0,1.2-0.3,1.2-0.7v-1
		c0-0.4-0.5-0.7-1.2-0.7H95.2z"/>
	<path class="st2" d="M94.2,132.8c-0.7,0-1.2,0.3-1.2,0.7v1c0,0.4,0.5,0.7,1.2,0.7h4.1c0.7,0,1.2-0.3,1.2-0.7v-1
		c0-0.4-0.5-0.7-1.2-0.7H94.2z"/>
	<path class="st3" d="M94.3,112c-0.5-0.1-1,0.2-1.1,0.5l-0.2,0.9c-0.1,0.4,0.3,0.8,0.8,0.9l3.2,0.6c0.5,0.1,1-0.1,1.1-0.5l0.2-0.9
		c0.1-0.4-0.3-0.8-0.8-0.9L94.3,112z"/>
	<path class="st4" d="M95.3,86.5c-0.4-0.1-0.9,0.1-1,0.4L94,87.8c-0.1,0.4,0.1,0.8,0.5,0.9l2.5,0.8c0.4,0.1,0.9-0.1,1-0.4l0.3-0.9
		c0.1-0.4-0.1-0.8-0.5-0.9L95.3,86.5z"/>
	<path class="st5" d="M97.9,61.8c-0.3-0.2-0.7-0.1-0.9,0.2l-0.5,0.8c-0.2,0.4-0.1,0.8,0.2,1l1.7,1.3c0.3,0.2,0.7,0.1,0.9-0.3
		l0.5-0.8c0.2-0.3,0.1-0.8-0.2-1L97.9,61.8z"/>
	<path class="st2" d="M100,42.7c-0.2-0.3-0.6-0.3-0.9,0l-0.8,0.7c-0.3,0.3-0.4,0.7-0.2,1l1.2,1.7c0.2,0.3,0.6,0.3,0.9,0l0.7-0.7
		c0.3-0.3,0.4-0.7,0.2-1L100,42.7z"/>
</g>
</svg>
