<?xml version="1.0" encoding="UTF-8"?>
<svg id="Layer_1" data-name="Layer 1" xmlns="http://www.w3.org/2000/svg" viewBox="0 0 1101 1101">
  <defs>
    <style>
      .want-cls-1 {
        fill: #71afdf;
      }

      .want-cls-1, .want-cls-2, .want-cls-3, .want-cls-4, .want-cls-5, .want-cls-6, .want-cls-7, .want-cls-8, .want-cls-9, .want-cls-10, .want-cls-11, .want-cls-12, .want-cls-13, .want-cls-14, .want-cls-15, .want-cls-16, .want-cls-17, .want-cls-18, .want-cls-19, .want-cls-20, .want-cls-21, .want-cls-22, .want-cls-23, .want-cls-24, .want-cls-25, .want-cls-26, .want-cls-27, .want-cls-28, .want-cls-29, .want-cls-30, .want-cls-31, .want-cls-32 {
        stroke-width: 0px;
      }

      .want-cls-2 {
        fill: #48a593;
      }

      .want-cls-3 {
        fill: #78371b;
      }

      .want-cls-4 {
        fill: #60b7a3;
      }

      .want-cls-5 {
        fill: #532a15;
      }

      .want-cls-6 {
        fill: #2d2218;
      }

      .want-cls-7 {
        fill: #2c170c;
      }

      .want-cls-8 {
        fill: #2c7742;
      }

      .want-cls-9 {
        fill: #62a053;
      }

      .want-cls-10 {
        fill: #398a75;
      }

      .want-cls-11 {
        fill: #3c3117;
      }

      .want-cls-12 {
        fill: #094233;
      }

      .want-cls-13 {
        fill: #065544;
      }

      .want-cls-14 {
        fill: #146d50;
      }

      .want-cls-15 {
        fill: #065d57;
      }

      .want-cls-16 {
        fill: #1e211f;
      }

      .want-cls-17 {
        fill: #253a27;
      }

      .want-cls-18 {
        fill: #c87d3d;
      }

      .want-cls-19 {
        fill: #d6c282;
      }

      .want-cls-20 {
        fill: #dc9d19;
      }

      .want-cls-21 {
        fill: #bf790f;
      }

      .want-cls-22 {
        fill: #b86d34;
      }

      .want-cls-23 {
        fill: #9f5529;
      }

      .want-cls-24 {
        fill: #8f471f;
      }

      .want-cls-25 {
        fill: #ba6c15;
      }

      .want-cls-26 {
        fill: #eecb4b;
      }

      .want-cls-27 {
        fill: #e3faff;
      }

      .want-cls-28 {
        fill: #e9d79f;
      }

      .want-cls-29 {
        fill: #fcfefc;
      }

      .want-cls-30 {
        fill: #eb9e59;
      }

      .want-cls-31 {
        fill: #ecb41d;
      }

      .want-cls-32 {
        fill: #033f3c;
      }
    </style>
  </defs>
  <g>
    <g>
      <g>
        <path class="want-cls-32" d="m405.35,896.71c-1.75-8.75-8.94-26.9-10.75-37.63,12.91-.53,33-15.67,41.93-26.88.22.49,2.14,3.55,2.15,3.76.42,6.05-24.06,54.89-33.33,60.75Z"/>
        <path class="want-cls-15" d="m436.53,832.2c-8.93,11.21-29.02,26.35-41.93,26.88-3.82-4.9-4.11-11.87-6.45-17.2,12.24-6.46,38.75-31.12,48.38-9.68Z"/>
      </g>
      <g>
        <path class="want-cls-15" d="m274.17,848.33c-.38.63-2.77,7.76-3.23,8.6-.16.3-2.88,2.6-4.3,5.38q-16.67.54-33.33,1.08c-3.27-8.61-8.43-16.69-11.83-25.27q9.95-6.18,19.89-12.36l32.79,22.58Z"/>
        <path class="want-cls-12" d="m266.65,862.31c-6.72,13.16-10.95,27.94-18.28,40.86-6.97-12.51-10.03-26.56-15.05-39.78q16.67-.54,33.33-1.08Z"/>
      </g>
    </g>
    <g>
      <path class="want-cls-21" d="m380.62,827.9c1.3,4.55,5.8,10.05,7.53,13.98,2.34,5.33,2.63,12.31,6.45,17.2,1.81,10.73,9,28.88,10.75,37.63,4.99,24.92,5.46,43.8,3.23,68.81-.3,3.41.46,7.56,0,10.75-4.99,34.68-15.02,17.8-47.85,21.5-9.75-4.38-5.04-15.71-4.84-23.65,0-.36,0-.72,0-1.08,1.07-40.69,9.82-32.58-46.77-27.96-3.04,3.55-1.21,14.38-1.61,23.65-.09,2.14.11,4.31,0,6.45-.53,9.93,2.26,16.61-7.53,23.65-16.44-.32-33.4,1.31-50,1.08-.26,0-3.92-2.13-4.84-2.15-.03-.71.06-1.44,0-2.15,9.26,1.9,25.02,3.05,32.26-2.15,10.15-7.3,11.68-35.14,13.98-47.31,11.03-38.06,52.27-33.68-20.43-89.24.46-.85,2.85-7.97,3.23-8.6,1.6-2.66,7.55-8.68,8.6-12.9,34.09,2.06,64.8,3.7,97.84-7.53Z"/>
      <path class="want-cls-20" d="m291.38,946.17q-22.58-12.1-45.16-24.19v68.81c11.36,2.2,30.11-2.08,31.18,2.69-7.24,5.2-23,4.05-32.26,2.15-.13-1.66-.9-2.58-1.08-5.38-.78-12.28.33-59.71,1.08-74.73.03-.53,3.88-7.89,4.3-9.68l-1.08-2.69c7.32-12.92,11.56-27.7,18.28-40.86,1.42-2.78,4.14-5.07,4.3-5.38,72.7,55.56,31.46,51.18,20.43,89.24Z"/>
      <path class="want-cls-20" d="m291.38,946.17c-2.3,12.16-3.82,40.01-13.98,47.31-1.07-4.76-19.82-.49-31.18-2.69v-68.81q22.58,12.1,45.16,24.19Z"/>
    </g>
    <g>
      <path class="want-cls-26" d="m382.77,676.3c2.92,23.78-19.08,54.3,0,59.67-4.71-3-2.28-6.6-2.15-10.21.44,12.61,9.04,10.24,9.68,10.75,4.69,3.73,8.21,6.13,7.53,12.36-1.7,15.38-60.54,76.84-123.65,39.24-4.51-2.69-31.73-26.94-32.26-30.64-1.52-10.79,31.27-9.17,29.03-31.18-.73-7.13-10.61-20.27-12.9-25.8-3.5-8.47-1.08-18.76-6.45-15.59,10.51-18.79,30.01-28.81,51.07-30.11,16.38-20.08,23.16-4.37,26.88-3.23,8.98,2.75,34.65,2.96,48.38,15.05,7.99,7.03,4.38,5.94,4.84,9.68Z"/>
      <path class="want-cls-20" d="m419.33,795.64c-7.65,18.32-20.47,26.06-38.71,32.26-33.05,11.22-63.76,9.59-97.84,7.53-19.72-6.24-45.02-11.98-50.53-35.48-.29-1.26-1.15-22.97-1.08-25.8,4.07-1,3.74,4.31,5.38,6.99,5.98,9.8,11.52,13.76,21.5,18.82,47.66,24.15,139.19,12.56,156.98-46.23,2.82,15.59,3.82,25.86,4.3,41.93Z"/>
      <path class="want-cls-31" d="m408.57,724.68c1.28,9.87,4.68,19.25,6.45,29.03-17.79,58.79-109.32,70.38-156.98,46.23q8.06-5.91,16.13-11.83c63.1,37.6,121.95-23.86,123.65-39.24.69-6.24-2.84-8.63-7.53-12.36.21-1.45,2.9-1.29,3.23-2.69,3.85-16.61-11.46-48.41-12.9-8.06-.13,3.62-2.56,7.22,2.15,10.21-19.08-5.37,2.92-35.89,0-59.67,1.48-4.55,6.32,2.66,9.68,8.06,7.77,12.51,9.33,27.48,16.13,40.32Z"/>
      <g>
        <path class="want-cls-21" d="m236.54,733.28c-1.85,9.73-5.13,31.72-5.38,40.86-.08,2.83.78,24.55,1.08,25.8-19.52,17.86-43.38-9.35-40.86-30.64,2.26-19.09,26.1-37.4,45.16-36.02Z"/>
        <path class="want-cls-21" d="m419.33,795.64c-.48-16.07-1.48-26.35-4.3-41.93-1.77-9.78-5.17-19.16-6.45-29.03,50.56-.99,66.57,64.35,10.75,70.96Z"/>
      </g>
      <path class="want-cls-11" d="m390.3,736.51c-.64-.51-9.23,1.86-9.68-10.75,1.44-40.35,16.75-8.55,12.9,8.06-.32,1.4-3.01,1.23-3.23,2.69Z"/>
      <g>
        <path class="want-cls-26" d="m274.17,788.12q-8.06,5.91-16.13,11.83c-9.98-5.06-15.53-9.01-21.5-18.82-1.63-2.68-1.3-7.99-5.38-6.99.25-9.13,3.53-31.13,5.38-40.86,2.77-14.57,7.82-35.46,15.05-48.38,5.37-3.17,2.95,7.12,6.45,15.59,2.29,5.54,12.18,18.67,12.9,25.8,2.24,22.01-30.55,20.39-29.03,31.18.52,3.71,27.74,27.95,32.26,30.64Z"/>
        <path class="want-cls-16" d="m258.58,716.08c7.38-3.09,13.11,23.69,1.08,23.65-11.09-.04-2.61-23.01-1.08-23.65Z"/>
      </g>
    </g>
  </g>
  <g>
    <g>
      <path class="want-cls-5" d="m745.11,133.32c.41,2.59,6.03,3.02,6.45,4.84.28,1.2-8.24,20.19-9.68,22.58-21.33,35.42-61.55,28.49-61.82-13.44-74.76,36.33-63.96-5.99-73.11-5.38-24.95,22.57-44.56,32.44-61.29-4.3-6.86.46,9.1,38.44,13.44,41.4-11.36,3.9-24.29-1.58-30.11-12.36-8.09-15.01-5.27-34.11,15.59-31.18,5.55-21.5,40.26-31.45,40.32-17.74,48.77-15.75,113.72-5.52,160.2,15.59Z"/>
      <g>
        <path class="want-cls-7" d="m778.44,312.88c3-33.88-28.24-62.59-49.46-23.65-5.04,9.25-4.81,14.99-5.38,15.59-1.8,1.94-5.04-1.06-7.53-.54-5.73,1.05-4.01-22.02-10.75-41.4-2.52-7.23-8.66-14.55-10.75-19.89-10.99-28.06-6.49-40.47-8.06-41.93-7.83.81-21.31-4.98-25.8-5.38-18.98-1.66-41.63,7.33-73.11-5.38-13.76,5.12-28.4,7-43.01,7.53-1.58.78-3.04,9.8-3.76,11.83-1.53,4.3-2.92,8.56-4.3,12.9-.8-7.16-2.25-13.8,0-20.97-22.83-4.49-32.02-36.31-7.53-34.94,5.81,10.78,18.74,16.27,30.11,12.36-4.34-2.95-20.3-40.94-13.44-41.4,16.73,36.74,36.33,26.87,61.29,4.3,9.16-.61-1.65,41.71,73.11,5.38.27,41.93,40.49,48.86,61.82,13.44,1.44-2.39,9.95-21.38,9.68-22.58-.42-1.82-6.04-2.24-6.45-4.84,16.32,7.41,33.71,13.44,30.64,35.48,22.36-19.08,37.31,8.08,20.97,20.97,23.45,38.27,2.16,87.87-18.28,123.11Z"/>
        <path class="want-cls-7" d="m765.54,334.39c-12.29,16.61-22.41,26.54-41.4,35.48-5.47,1.69-12.66,3.19-17.74,5.38,4.41-5.03,27.04-36.33,29.03-37.63,10.15,3.35,20.35-.77,30.11-3.23Z"/>
      </g>
    </g>
    <g>
      <g>
        <path class="want-cls-30" d="m473.09,470.94q.81,23.65,1.61,47.31c-23.49,4.95-107.94-11.36-119.88-30.11-.47-.74,1.44-5.52-3.23-5.38,1.84-1.33,3.8-1.15,6.45-3.76,1.4-3.26-5.88-28.05-7.53-33.87,30.58,13.48,88.2,21.69,122.57,25.8Z"/>
        <path class="want-cls-23" d="m352.66,494.59c1.22,2.52,25.45,17.37,29.57,19.35,29.54,14.25,63.27,18.69,95.69,18.28,3.61-1.47-4.63-17.75,4.84-15.05,1.27,5.02,2.67,10.15,4.3,15.05-13.8-2.26-3.16,15.3,0,21.5-51.46-1.13-101.41-18.04-143-48.38.55-.48.53-6.32,8.6-10.75Z"/>
        <path class="want-cls-22" d="m482.76,517.17c-9.46-2.69-1.22,13.59-4.84,15.05-32.42.41-66.16-4.03-95.69-18.28-4.11-1.98-28.35-16.83-29.57-19.35-1.65-3.4-.38-3.37,2.15-6.45,11.95,18.75,96.4,35.05,119.88,30.11q-.81-23.65-1.61-47.31h1.08c.02,1.65,2.12.77,2.15,1.61.59,14.89,2.81,30.19,6.45,44.62Z"/>
      </g>
      <g>
        <path class="want-cls-30" d="m350.51,445.13c1.65,5.82,8.92,30.6,7.53,33.87-2.66,2.61-4.61,2.43-6.45,3.76-7.53,5.45-16.69,7.71-25.27,10.75-1.04-.47,4.3-13.43,4.84-15.05.69-2.11,5.71-12.69,3.76-13.98-31.23,23.14-30.37-.22-32.26-1.08-1.83-.83-20.49,11.58-37.09-5.38,3.25-10.63,7.46-20.76,21.5-17.2.11.03-.4,1.87.54,2.15,14.5,4.42,32.28,18.84,45.16,3.23-14.95,2.32-28.69,6.55-38.17-7.53-4.51-6.69-16.18-36.29-21.5-45.7-4.72-8.33-16.61-19.51-13.98-23.12.55-.29,3.36-4.23,11.29-2.15,9.91,2.6,47.92,63.23,80.1,77.41Z"/>
        <path class="want-cls-18" d="m331.16,478.46c-.53,1.62-5.88,14.58-4.84,15.05,8.58-3.04,17.73-5.3,25.27-10.75,4.67-.14,2.75,4.64,3.23,5.38-2.53,3.08-3.8,3.05-2.15,6.45-8.08,4.43-8.06,10.28-8.6,10.75-14.8,12.93-52.3,13.98-68.81,3.23,23.4-5.24,17.79-8.2,18.28-12.9.4-3.84,9.19-2.42,17.74-6.45,11.77-5.55,21.49-23.67,19.89-10.75Z"/>
        <path class="want-cls-22" d="m331.16,478.46c1.6-12.92-8.12,5.21-19.89,10.75-8.55,4.03-17.34,2.61-17.74,6.45q-14.52-1.08-29.03-2.15c-.99-3.47-1.92-6-2.15-9.68,11.92,5.35,41.51,9,35.48-9.14-2.87-8.63-24.38-.26-33.33-12.36.3-1.42.66-2.93,1.08-4.3,16.61,16.96,35.27,4.54,37.09,5.38,1.89.86,1.02,24.21,32.26,1.08,1.95,1.29-3.07,11.87-3.76,13.98Z"/>
        <path class="want-cls-30" d="m262.35,483.84c-.57-9.11.38-13.14,2.15-21.5,8.95,12.1,30.46,3.73,33.33,12.36,6.03,18.14-23.56,14.49-35.48,9.14Z"/>
        <path class="want-cls-30" d="m259.12,369.87c-2.63,3.61,9.26,14.78,13.98,23.12,5.33,9.4,17,39,21.5,45.7-1.65,1.29-2.4.69-4.3-1.08-4.05-3.76-14.76-27.48-19.35-34.94-7.72-12.56-27-24.81-11.83-32.79Z"/>
        <path class="want-cls-30" d="m293.53,495.67c-.49,4.7,5.13,7.66-18.28,12.9-7.88-5.13-8.19-6.08-10.75-15.05q14.52,1.08,29.03,2.15Z"/>
        <path class="want-cls-22" d="m294.6,438.68c9.48,14.08,23.22,9.84,38.17,7.53-12.88,15.62-30.66,1.2-45.16-3.23-.93-.29-.43-2.12-.54-2.15,3.22.34,3.56-.04,3.23-3.23,1.91,1.77,2.66,2.36,4.3,1.08Z"/>
      </g>
    </g>
    <g>
      <path class="want-cls-14" d="m754.79,742.96c7.55,36.82,15.07,81.52,17.2,118.81.9,15.69-2.73,35.44,3.23,37.09-6.56,1.42-6.12,2.09-6.45,2.15-20.72,3.54-58.56,5.49-78.49-1.08-2.84-16.96-11.25-62.11-24.19-72.04-11.62-8.91-12.47-5.55-19.89,3.23q-14.25-14.52-28.49-29.03c-27.56,27.33-52,57.56-75.8,88.17-2.57-.59-4.94-1.66-7.53-2.15-.89-13.35-3.79-26.89-4.3-40.32-1.37-36.34.08-72.95,3.23-109.13,55.7,21.61,164.48,18.37,221.49,4.3Z"/>
      <path class="want-cls-13" d="m798.87,891.34c-6.3,3.67-16.39,5.95-23.65,7.53-5.96-1.65-2.33-21.41-3.23-37.09-2.13-37.29-9.66-81.99-17.2-118.81,8.65-2.14,17.63-4.93,25.8-8.6,9.05,55.29,16.63,100.35,18.28,156.98Z"/>
      <path class="want-cls-12" d="m777.37,716.08c1.07,6.09,2.23,12.18,3.23,18.28-8.17,3.67-17.15,6.47-25.8,8.6-57.01,14.07-165.79,17.3-221.49-4.3.43-5-1-10.42,2.15-15.05,54,22.09,189.65,18.9,241.92-7.53Z"/>
      <path class="want-cls-13" d="m646.19,831.13c-19.65,23.22-18.76,45.27-24.73,66.66-26.7.6-53.51-1.5-79.56-7.53,23.8-30.6,48.24-60.84,75.8-88.17q14.25,14.52,28.49,29.03Z"/>
      <g>
        <path class="want-cls-21" d="m541.9,890.26c26.05,6.02,52.87,8.13,79.56,7.53-.44,1.56.47,5.07,0,5.91-.8,1.42-4.41,1.24-5.38,1.61,0-.75.29-1.86-.54-2.15-5.21-1.82-64.42,1.93-73.65,0-.48-.1-8.32-4.38-8.6-4.84-3.11-10.41,1.11-9.65,1.08-10.21,2.58.49,4.96,1.56,7.53,2.15Z"/>
        <path class="want-cls-25" d="m785.97,920.37c-6.09.85-12.16,1.48-18.28,2.15l1.08-21.5c.34-.06-.11-.73,6.45-2.15,7.27-1.57,17.35-3.86,23.65-7.53,0,.21,2.94,1.7,3.23,2.69q-8.06,13.17-16.13,26.34Z"/>
        <path class="want-cls-21" d="m768.76,901.01l-1.08,21.5c-21.76,2.38-43.07.69-64.51-3.23,1.7-15.2-7.62-7.98-12.36-11.83-3.86-3.13-.48-7.15-.54-7.53,19.93,6.56,57.77,4.62,78.49,1.08Z"/>
      </g>
    </g>
    <g>
      <path class="want-cls-19" d="m585.98,434.38c1.56,2.34,1.98,5.08,3.23,7.53-6.49,21.95-12.52,61.95-10.75,83.87-2.02,3.15-3.88,1.79-4.3,2.69-.79,1.69-7.41,34.69-7.53,36.56-1.76,29.4,2.95,41.72,40.32,46.77,70.53,9.54,103.59-25.44,111.28-91.93,1.46-12.65-.86-32.94,4.3-33.87,1.63,42.03,10.44,154.4-13.98,186.55-32.48,42.78-159.46,40.54-189.23-2.69,3.86-29.64,16.49-83.19,24.73-112.9,5.82-20.99,13.81-41.29,19.35-62.36,7.67-19.23,10.98-40.48,17.2-60.21,3.07-.52,3.74.21,5.38,0Z"/>
      <path class="want-cls-19" d="m731.13,429c-1.21,14.15,1.95,15.31,2.15,16.13,3.71,23.91,10.87,46.26,18.28,69.89,3.96,12.62,9.08,25.05,12.9,37.63,12.39,40.76,26.18,80.91,26.88,124.19,1.23,1.68,2.13,1.48,2.15,1.61.71,4.27,1.05,3.06,1.08,3.23.75,4.22.26,10.27,3.23,13.98v4.84c-.75,1.57-17.42,14.07-20.43,15.59-52.27,26.42-187.92,29.62-241.92,7.53-23.4-9.58-21.18-14.99-16.13-53.76,29.77,43.23,156.75,45.46,189.23,2.69,24.41-32.15,15.6-144.52,13.98-186.55-.66-17.12-1.87-34.49,0-51.61.46-.51,1.72-3.7,4.3-6.45,1.44.37,2.82.67,4.3,1.08Z"/>
      <path class="want-cls-17" d="m726.83,427.93c-2.58,2.75-3.84,5.94-4.3,6.45-1.35,1.51-3.79,2.94-5.38,4.3-33.68,28.9-110.92,36.53-127.95,3.23-1.25-2.44-1.67-5.19-3.23-7.53.48-.06.02-2.77,9.14-3.23l2.69,3.23c1.37,6.89,7.35,11.48,12.9,15.05,23.19,14.93,63.17,6.42,86.02-6.45,8.07-4.55,15.51-10.08,21.5-17.2,2.95.66,5.69,1.4,8.6,2.15Z"/>
      <path class="want-cls-19" d="m722.53,485.99c-5.16.93-2.84,21.22-4.3,33.87-7.69,66.49-40.75,101.47-111.28,91.93-37.37-5.05-42.08-17.38-40.32-46.77.11-1.86,6.73-34.87,7.53-36.56.42-.9,2.28.46,4.3-2.69,4.75,58.79,80.22,24.29,109.67-12.36,26.83-33.4,22.29-56.91,25.8-69.89.31-1.13,3.96-2.48,3.23-4.84,1.58-1.36,4.03-2.79,5.38-4.3-1.87,17.12-.66,34.49,0,51.61Z"/>
      <path class="want-cls-28" d="m578.46,525.77c-1.77-21.92,4.26-61.92,10.75-83.87,17.03,33.3,94.27,25.67,127.95-3.23.74,2.36-2.92,3.71-3.23,4.84-3.52,12.98,1.02,36.49-25.8,69.89-29.45,36.66-104.92,71.15-109.67,12.36Z"/>
    </g>
    <g>
      <path class="want-cls-30" d="m861.23,589.21c14.78,44.58,4.66,149.32-63.44,133.32h-1.08c-.17-8.27,7.63-19.25,7.53-31.18-.02-1.73,4.42-.2-.54-4.3l-9.14-5.38c-.03-.17-.37,1.05-1.08-3.23,1.91-6.55,13.63-18.92,13.98-20.97.43-2.47-4.31-17.5-5.38-22.04,12.07-23.94,23.92-46.12,53.22-48.38.31-.02,3.73,2.33,5.91,2.15Z"/>
      <path class="want-cls-22" d="m865.53,731.13c.9-6.75,5.27-13.28,6.45-19.89,5.7-31.84-4.45,5.46-20.97,16.67-17.71,12.02-48.96,9.05-53.22-5.38,68.09,15.99,78.21-88.74,63.44-133.32.45-.04,5.28-2.4,5.38-2.69.75-2.28-13.15-39.51-17.2-44.62l1.08-3.23c24.96,41.44,39.64,154.37,15.05,192.46Z"/>
      <path class="want-cls-23" d="m860.16,509.64c-2.96,9.87-8.71,18.57-9.68,29.03l-1.08,3.23-50.53,50,2.15,1.08c-3.32,11.1-.99,21.56-1.08,32.79-.82-3.84-3.48-8.36-4.3-12.36-2.29-11.2-2.01-22.93-5.38-33.87,9.82-9.57,63.42-70.29,68.27-72.04,1.58-.57,1.88,1,1.61,2.15Z"/>
      <path class="want-cls-22" d="m865.53,731.13c-17.98,27.86-68.18,21.51-68.81-8.6h1.08c4.26,14.43,35.51,17.4,53.22,5.38,16.52-11.21,26.67-48.51,20.97-16.67-1.18,6.61-5.55,13.14-6.45,19.89Z"/>
      <path class="want-cls-23" d="m804.25,691.35l-6.45,4.3c-2.97-3.71-2.47-9.76-3.23-13.98l9.14,5.38c4.95,4.11.52,2.57.54,4.3Z"/>
      <path class="want-cls-22" d="m861.23,589.21c-2.18.18-5.6-2.17-5.91-2.15-29.3,2.26-41.15,24.44-53.22,48.38-.76-3.26-1.45-6.4-2.15-9.68.08-11.24-2.24-21.69,1.08-32.79l-2.15-1.08,50.53-50c4.05,5.11,17.95,42.34,17.2,44.62-.09.29-4.93,2.65-5.38,2.69Z"/>
    </g>
    <g>
      <path class="want-cls-23" d="m616.09,905.31c-6.31,2.47-6.6-5.22-4.3,12.9-1.96.1-.45,2.78-1.61,3.23-4.75,1.82-57.48-1.17-68.27-3.23v-15.05c9.23,1.93,68.44-1.82,73.65,0,.82.29.54,1.4.54,2.15Z"/>
      <g>
        <path class="want-cls-5" d="m767.69,922.52c6.12-.67,12.18-1.3,18.28-2.15,6.47,15.04,10.63,31.93,10.75,48.38.02,3.18.42,8.57,0,10.75-.31,1.65-.23,3.27-1.08,4.84-19.33,20.07-111.9,12.51-115.05,1.08-.38-2.89.84-5.24,1.08-8.06.27-3.23,1.35-7.54,2.15-10.75,3.28-13.13,18.5-39.71,19.35-47.31,21.44,3.91,42.75,5.61,64.51,3.23Z"/>
        <path class="want-cls-23" d="m728.44,932.19c65.61-8.44,61.22,62.85-22.58,53.76-28.74-3.12-27.07-11.26-8.06-33.87,8.26-9.83,17.39-18.19,30.64-19.89Z"/>
      </g>
      <g>
        <path class="want-cls-5" d="m611.79,918.22c2.09,16.42,5.61,30.4,5.38,47.31-.05,3.71.45,9.08,0,11.83-.19,1.2.13,2.54,0,3.76-24.54,10.99-105.16,14.19-124.72.54,13.87-.01,28.72,4.43,42.47,3.23,19.15-1.67,64.65-21.58,63.44-45.16-8.03-3.98-14.83-4.01-15.59-4.3-13.52-5.17-26.72-10.61-40.86-13.98v-3.23c10.8,2.06,63.53,5.04,68.27,3.23,1.17-.45-.34-3.13,1.61-3.23Z"/>
        <g>
          <path class="want-cls-3" d="m582.76,935.42c-15.91,21.32-65.48,51.79-92.47,37.63.29-2,1.41-5.6,2.15-7.53,7.67-19.89,31.04-34.9,49.46-44.08,14.14,3.37,27.33,8.81,40.86,13.98Z"/>
          <path class="want-cls-5" d="m492.44,981.65c-2.84-1.98-3.05-1.76-3.23-5.38,0-.17.44,1.15,1.08-3.23,26.99,14.16,76.56-16.31,92.47-37.63.76.29,7.56.32,15.59,4.3,1.21,23.58-44.29,43.49-63.44,45.16-13.75,1.2-28.6-3.24-42.47-3.23Z"/>
        </g>
      </g>
    </g>
    <g>
      <path class="want-cls-23" d="m487.06,532.22c.7,2.11,2.1,2.01,2.15,2.15,4.3,12.37,9.77,24.16,13.98,36.56-8.6.79-12.24-9.56-16.13-17.2-3.16-6.21-13.8-23.76,0-21.5Z"/>
      <g>
        <path class="want-cls-9" d="m580.61,434.38c-6.22,19.73-9.53,40.98-17.2,60.21-.07.18-.14-1.16-2.15,3.23-1.05.03-1.45-1.59-2.69-1.08-3.13,1.3-43.64,36.46-55.37,38.71-.08-.28-.41,1.5-2.15-5.38-12.06-47.59-7.12-67.71-8.6-75.8-.12-.64-2.69-1.49-2.15-3.76,32.59-4.37,58.81-10.8,90.32-16.13Z"/>
        <path class="want-cls-20" d="m501.04,530.07c-1.68,8.98-4.58,4.47-11.83,4.3-.05-.14-1.45-.04-2.15-2.15-1.63-4.91-3.03-10.03-4.3-15.05-3.65-14.43-5.86-29.74-6.45-44.62-.03-.85-2.13.03-2.15-1.61,0-.11,2.14.34,2.15-.54.07-6.09-.05-12.19,0-18.28,4.73-.3,9.28-.98,13.98-1.61-.54,2.27,2.03,3.12,2.15,3.76,1.48,8.1-3.46,28.21,8.6,75.8Z"/>
        <path class="want-cls-8" d="m563.4,494.59c-5.54,21.07-13.53,41.37-19.35,62.36-10.64,2.74-20.65,7.74-31.18,10.75-2.99-10.13-6.63-19.98-9.68-30.11,3.3,1.15,4.18,12.25,5.91,12.9,1.36.51,18.08-7.1,20.43-8.6,14.95-9.57,15.68-18.32,22.04-28.49,1.45-2.32,4.11-.96,5.38-3.23.32-.57,1.95-7.24,4.3-12.36,2.01-4.39,2.08-3.05,2.15-3.23Z"/>
        <path class="want-cls-21" d="m503.19,535.45c.17.58-.17,1.58,0,2.15,3.05,10.12,6.68,19.98,9.68,30.11-3.15.9-6.37,2.92-9.68,3.23-4.21-12.39-9.67-24.19-13.98-36.56,7.24.17,10.15,4.68,11.83-4.3,1.74,6.87,2.07,5.1,2.15,5.38Z"/>
        <path class="want-cls-8" d="m561.25,497.82c-2.35,5.13-3.98,11.79-4.3,12.36-1.26,2.27-3.93.9-5.38,3.23-6.36,10.17-7.09,18.92-22.04,28.49-2.35,1.5-19.07,9.11-20.43,8.6-1.73-.65-2.62-11.75-5.91-12.9-.17-.57.17-1.57,0-2.15,11.73-2.25,52.25-37.4,55.37-38.71,1.24-.52,1.64,1.11,2.69,1.08Z"/>
      </g>
      <g>
        <path class="want-cls-4" d="m853.71,496.74c-.15,1.61-2.04,2.05-2.15,2.15-.11-6.8-8.76,2.01-12.36,2.15-6.99.27-81.36-45.53-102.68-50.53-1.8-.35-2.9-4.01-3.23-5.38-.2-.82-3.36-1.98-2.15-16.13,49.57,13.72,85.17,31.9,122.57,67.74Z"/>
        <path class="want-cls-20" d="m860.16,509.64c.27-1.15-.03-2.72-1.61-2.15-4.85,1.74-58.46,62.47-68.27,72.04-2.14,2.09-3.69,4.46-5.91,6.45-6.23-8.25-5.53-14.34-5.91-15.05,9.2-4.91,15.47-13.2,22.58-20.43,15.46-15.71,30.18-32.19,46.23-47.31,1.53-1.45,2.75-2.87,4.3-4.3.11-.1,2-.54,2.15-2.15,2.65,2.54,6.02,4.36,8.6,6.99l1.08,2.15c-.67.66-3.15,3.53-3.23,3.76Z"/>
        <path class="want-cls-2" d="m736.51,450.51c-.76,25.63,16.06,39.26,36.02,51.61,11.89,7.36,30.28,18.25,44.08,15.05,8.08-1.87,21.51-17.93,30.64-13.98-16.05,15.12-30.78,31.6-46.23,47.31-15.36-13.1-31.2-26.42-49.46-35.48-7.41-23.63-14.57-45.97-18.28-69.89.33,1.37,1.42,5.03,3.23,5.38Z"/>
        <path class="want-cls-10" d="m801.02,550.5c-7.11,7.22-13.38,15.52-22.58,20.43-2.84-5.31-9.29-14.3-13.98-18.28-3.82-12.58-8.95-25.01-12.9-37.63,18.26,9.06,34.1,22.38,49.46,35.48Z"/>
        <path class="want-cls-4" d="m851.55,498.89c-1.55,1.43-2.77,2.85-4.3,4.3-9.13-3.96-22.56,12.11-30.64,13.98-13.8,3.19-32.19-7.7-44.08-15.05-19.96-12.35-36.78-25.98-36.02-51.61,21.33,5,95.69,50.81,102.68,50.53,3.6-.14,12.26-8.95,12.36-2.15Z"/>
      </g>
    </g>
    <g>
      <path class="want-cls-23" d="m684.9,419.33c11.36,1.1,22.24,3.96,33.33,6.45-6,7.13-13.44,12.66-21.5,17.2-.08-2.07-2.69-.52-6.45,0-26.8,3.7-53.45,1.2-79.56,6.45-5.55-3.58-11.53-8.16-12.9-15.05q15.86-3.23,31.72-6.45l2.69-2.69c-1.1-2.43-1.22-4.36-1.08-6.99,18.04.74,35.69-.68,53.76,1.08Z"/>
      <path class="want-cls-24" d="m683.82,395.67c.53,7.84,1.04,15.78,1.08,23.65-18.07-1.76-35.72-.34-53.76-1.08.17-3.09.18-6.58,0-9.68,7.56.87,47.31-4.8,50-7.53,1.58-1.61-1.1-6.13,2.69-5.38Z"/>
      <path class="want-cls-3" d="m682.75,387.07c-.5,3.08.87,5.62,1.08,8.6-3.79-.75-1.11,3.77-2.69,5.38-2.68,2.73-42.44,8.39-50,7.53-.17-3-1.09-5.61-1.08-8.6.13-.01.75-2.04,1.61-2.15,17.57-2.17,33.95-6.27,51.07-10.75Z"/>
      <path class="want-cls-18" d="m690.28,442.98c-15.13,10.51-60.51,12.24-79.56,6.45,26.11-5.25,52.77-2.75,79.56-6.45Z"/>
      <path class="want-cls-30" d="m696.73,442.98c-22.85,12.87-62.82,21.38-86.02,6.45,19.06,5.79,64.44,4.06,79.56-6.45,3.76-.52,6.37-2.07,6.45,0Z"/>
    </g>
    <g>
      <path class="want-cls-22" d="m740.81,326.86c4.92,16.17-2.41,8.8-5.38,10.75-1.99,1.3-24.62,32.6-29.03,37.63-8.1,3.48-15.62,8.19-23.65,11.83-17.12,4.48-33.5,8.58-51.07,10.75-.86.11-1.48,2.14-1.61,2.15-47.51,4.83-114.23-14.27-110.75-73.11,14.13,58.71,88.08,62.87,136.55,50.53,27.58-7.02,67.28-28.6,77.41-56.99.86,5.81,3.26,5.49,7.53,6.45Z"/>
      <path class="want-cls-30" d="m778.44,312.88c-3.1,5.34-4.16,9.68-12.9,21.5-9.75,2.46-19.95,6.58-30.11,3.23,2.97-1.95,10.3,5.42,5.38-10.75,7.79,1.76,15.45-1.76,20.43-7.53,17.31-20.05-7.38-54.18-21.5-26.88-4.3-2.54-8-8.11-10.75-3.23,21.22-38.94,52.46-10.22,49.46,23.65Z"/>
      <path class="want-cls-7" d="m538.67,246.22c-.63-4.91.83-6.58,1.08-7.53,6.22-24.39,30.01-9.94,26.88-1.61-.96,2.54-15.61-.17-27.96,9.14Z"/>
      <path class="want-cls-22" d="m694.58,242.99c-14.01-15.36-17.89-31.17-41.4-35.48-25.59-4.7-80.98,6.14-112.36,2.15.72-2.02,2.18-11.05,3.76-11.83,14.61-.53,29.25-2.4,43.01-7.53,31.49,12.71,54.14,3.72,73.11,5.38,4.49.39,17.97,6.19,25.8,5.38,1.58,1.47-2.92,13.87,8.06,41.93Z"/>
      <path class="want-cls-18" d="m739.73,292.45c-4.08,7.89-3.94,17.24-4.3,18.28-1.16,3.31-1.23,7.1-2.15,9.68-10.14,28.38-49.83,49.96-77.41,56.99-3.99-3.87,7.43-5.25,18.82-13.98,16.54-12.68,34.58-36.26,36.02-57.52,5.31-.41,5.1-1.56,5.38-1.61,2.49-.52,5.72,2.47,7.53.54.56-.6.33-6.34,5.38-15.59,2.75-4.89,6.45.69,10.75,3.23Z"/>
      <g>
        <path class="want-cls-23" d="m761.24,319.33c-4.98,5.77-12.64,9.28-20.43,7.53-4.26-.96-6.67-.64-7.53-6.45.92-2.58.99-6.37,2.15-9.68,2.74,3.02,6.39-11.76,16.67-10.75,9.44.93,8.03,13.19,9.14,19.35Z"/>
        <path class="want-cls-22" d="m761.24,319.33c-1.11-6.16.3-18.42-9.14-19.35-10.28-1.01-13.92,13.77-16.67,10.75.36-1.04.22-10.39,4.3-18.28,14.13-27.3,38.81,6.83,21.5,26.88Z"/>
      </g>
      <g>
        <path class="want-cls-30" d="m694.58,242.99c2.09,5.35,8.24,12.66,10.75,19.89,6.74,19.37,5.02,42.44,10.75,41.4-.27.06-.07,1.2-5.38,1.61-1.44,21.26-19.48,44.84-36.02,57.52-11.39,8.73-22.81,10.1-18.82,13.98-48.47,12.34-122.42,8.17-136.55-50.53,1.52-25.6,26.98-38.52,19.35-80.64,12.35-9.31,27-6.6,27.96-9.14,3.13-8.32-20.66-22.78-26.88,1.61-2.29-4.94-2.63-10.86-3.23-16.13,1.38-4.34,2.77-8.6,4.3-12.9,31.37,3.98,86.77-6.85,112.36-2.15,23.5,4.31,27.38,20.13,41.4,35.48Z"/>
        <path class="want-cls-7" d="m626.3,220.42c8.27-1.18,24.97,4.52,26.34,13.44,2.54,16.47-9.52,4.6-16.67,3.76-8.78-1.03-33.75,11.45-22.04-9.14,1.59-2.8,9.39-7.64,12.36-8.06Z"/>
        <path class="want-cls-23" d="m622,322.56c6.05-1.75,2.06,12.81-7.53,19.35-22.24,15.19-47.39-1.32-47.85-11.29-.21-4.56,7.15,7.71,16.67,10.21,30.99,8.16,36.44-17.62,38.71-18.28Z"/>
        <path class="want-cls-23" d="m575.23,306.43c4.16,5.42,13.57,6.47,17.2,0,.18.14,2.67-2.17,4.3,1.61,5.52,12.78-22.6,19.63-21.5-1.61Z"/>
        <path class="want-cls-29" d="m592.43,306.43c-3.64,6.47-13.05,5.42-17.2,0,.03-.67-4.29-6.07,5.91-6.45,8.09-.3,10,5.44,11.29,6.45Z"/>
        <g>
          <path class="want-cls-6" d="m628.45,265.57c16.74-3.44,17.41,25.1,4.3,27.96-17.08,3.72-14.68-25.83-4.3-27.96Z"/>
          <path class="want-cls-27" d="m634.37,282.78l-2.15,3.23c-3.27-3.33-1.37-5.64,2.15-3.23Z"/>
          <path class="want-cls-1" d="m632.21,286l2.15-3.23c4.05,2.78,2.09,7.54-2.15,3.23Z"/>
        </g>
        <g>
          <path class="want-cls-6" d="m553.19,266.65c13.28-4.37,16.48,26.92,4.3,29.03-14.45,2.5-11.3-26.72-4.3-29.03Z"/>
          <path class="want-cls-29" d="m558.56,281.7c4.22-.78,1.14,7-1.08,5.38-1.3-.95-.51-5.08,1.08-5.38Z"/>
        </g>
      </g>
    </g>
  </g>
</svg>