<?xml version="1.0" encoding="UTF-8"?>
<svg id="Layer_1" data-name="Layer 1" xmlns="http://www.w3.org/2000/svg" viewBox="0 0 1068.98 1068.98">
  <defs>
    <style>
      .baby-cls-1 {
        fill: #f8c89a;
      }

      .baby-cls-1, .baby-cls-2, .baby-cls-3, .baby-cls-4, .baby-cls-5, .baby-cls-6, .baby-cls-7, .baby-cls-8, .baby-cls-9, .baby-cls-10, .baby-cls-11, .baby-cls-12, .baby-cls-13, .baby-cls-14, .baby-cls-15, .baby-cls-16, .baby-cls-17, .baby-cls-18, .baby-cls-19, .baby-cls-20, .baby-cls-21, .baby-cls-22, .baby-cls-23, .baby-cls-24, .baby-cls-25, .baby-cls-26, .baby-cls-27, .baby-cls-28, .baby-cls-29, .baby-cls-30, .baby-cls-31, .baby-cls-32, .baby-cls-33, .baby-cls-34, .baby-cls-35, .baby-cls-36, .baby-cls-37, .baby-cls-38, .baby-cls-39, .baby-cls-40, .baby-cls-41, .baby-cls-42, .baby-cls-43, .baby-cls-44, .baby-cls-45, .baby-cls-46 {
        stroke-width: 0px;
      }

      .baby-cls-2 {
        fill: #f6e9bd;
      }

      .baby-cls-3 {
        fill: #fad38f;
      }

      .baby-cls-4 {
        fill: #f4c072;
      }

      .baby-cls-5 {
        fill: #f9ad94;
      }

      .baby-cls-6 {
        fill: #facfb4;
      }

      .baby-cls-7 {
        fill: #55332d;
      }

      .baby-cls-8 {
        fill: #4f9f96;
      }

      .baby-cls-9 {
        fill: #49392b;
      }

      .baby-cls-10 {
        fill: #295f48;
      }

      .baby-cls-11 {
        fill: #9c3637;
      }

      .baby-cls-12 {
        fill: #9ac18f;
      }

      .baby-cls-13 {
        fill: #461f1a;
      }

      .baby-cls-14 {
        fill: #95c0ae;
      }

      .baby-cls-15 {
        fill: #27211d;
      }

      .baby-cls-16 {
        fill: #0a2818;
      }

      .baby-cls-17 {
        fill: #3f8a74;
      }

      .baby-cls-18 {
        fill: #142620;
      }

      .baby-cls-19 {
        fill: #1f2017;
      }

      .baby-cls-20 {
        fill: #c77355;
      }

      .baby-cls-21 {
        fill: #c76c6f;
      }

      .baby-cls-22 {
        fill: #c78764;
      }

      .baby-cls-23 {
        fill: #c5595a;
      }

      .baby-cls-24 {
        fill: #deefd8;
      }

      .baby-cls-25 {
        fill: #acc479;
      }

      .baby-cls-26 {
        fill: #c5d592;
      }

      .baby-cls-27 {
        fill: #dec393;
      }

      .baby-cls-28 {
        fill: #e2ac6e;
      }

      .baby-cls-29 {
        fill: #d4665c;
      }

      .baby-cls-30 {
        fill: #d9fdfd;
      }

      .baby-cls-31 {
        fill: #bbd1c3;
      }

      .baby-cls-32 {
        fill: #be9c81;
      }

      .baby-cls-33 {
        fill: #d7e8bd;
      }

      .baby-cls-34 {
        fill: #a6bcae;
      }

      .baby-cls-35 {
        fill: #31755a;
      }

      .baby-cls-36 {
        fill: #9f5343;
      }

      .baby-cls-37 {
        fill: #8ae9f8;
      }

      .baby-cls-38 {
        fill: #331e10;
      }

      .baby-cls-39 {
        fill: #31c4d5;
      }

      .baby-cls-40 {
        fill: #fdf8e8;
      }

      .baby-cls-41 {
        fill: #743f35;
      }

      .baby-cls-42 {
        fill: #692221;
      }

      .baby-cls-43 {
        fill: #e3a37c;
      }

      .baby-cls-44 {
        fill: #effcfd;
      }

      .baby-cls-45 {
        fill: #fcddbe;
      }

      .baby-cls-46 {
        fill: #e98f62;
      }
    </style>
  </defs>
  <path class="baby-cls-31" d="m551.19,1012.61c.18.38,5.06-1.67,2.09,5.74-3.77,9.4-59.13,10.45-68.38,9.92-8.47-.49-63.59-9.81-66.81-13.57-1.01-1.19,1.47-1.66,1.57-3.13,28.79,8.87,84.85,14.11,114.31,9.4,4.3-.69,18.92-3.17,17.22-8.35Z"/>
  <g>
    <g>
      <path class="baby-cls-2" d="m790.25,293.34c17.74,20.7,44.09,38.83,72.03,78.82,74.89,107.17,104.12,285.51,68.9,410.26-5.68,20.13-18.18,44.33-19.83,49.59-5.72-22.22-17.97-41.84-38.63-52.72-.2-25.42-26.44-44.24-48.02-52.72,3.1-13.02,5.32-21.46,3.13-34.45l1.57-1.04,1.57,3.65c.34-41.37-10.8-84.37-42.28-113.27-.4-.36-5.01-1.42-9.4-5.22-10.24-8.88-44.45-40.7-50.63-35.49-7.68-5.22-16.05-10.3-25.05-12.53,8.7-.64,6.93-3.9,7.31-4.18,9.48-6.94,18.46-18.5,25.05-28.19,14.45-16.88,47.02-47.03,36.54-71.51-6.12-14.28-18.97-10.36-29.23-4.7-3.18,1.75-4.59,2.97-7.31,5.22.45-3.55,4.39-3.6,3.13-10.44,3.74-2.35,11.65-8.74,15.66-9.4,7.31-1.2,12.33,1.11,17.75,5.74-3.65-7.54-8.25-13-10.44-21.4,15.44-30.98,18.29-49.29,21.92-82.47.6-5.45,1.72-10.64,1.04-16.18l5.22,2.61Z"/>
      <path class="baby-cls-2" d="m294.39,290.21c-2.77,32.85-.85,62.28,10.44,93.43,3.22,8.87,16.94,30.94,12.53,30.8-23.28-1.71-33.95,19.89-27.14,39.15,1.39,3.92,44.79,65.24,48.02,67.86,5.07,4.11,10.49,7.36,16.7,2.61.23.76,3.09,3.49,6.26,14.62-31.17,16.32-64.57,44.78-82.47,75.16-17.12,29.05-15.43,46.99-22.97,78.29-3.1,12.12-.84,24.48-1.04,36.54-47.08,15.23-84.41,20.82-105.44,70.99-1.4-18.92-14.13-55.48-17.75-77.77-25.07-154.52,33.55-337.47,162.85-431.66Z"/>
    </g>
    <g>
      <path class="baby-cls-11" d="m725.53,992.78c-15.34-12.54-24.89-8.42-27.66-50.11-6.63,13.24-6.53,54.95-27.14,52.2-16.99-2.27-18.51-31.22-24.01-42.8-3.3,6.07-12.38,40.9-18.27,39.67-6.68-1.39-21.67-13.45-20.88-25.05,0-.11,1.99.35,2.09-.52,2.06-17.48,8.22-27.21,15.66-42.28,27.48-22.43,67.73-12.6,94.48,6.26,25.94,18.3,18.16,28.1,5.74,62.64Z"/>
      <path class="baby-cls-40" d="m725.53,992.78c.09.07.94,1.63,1.04,2.09-4.18,2.39-9.48,4.93-14.09,6.26-9.25,2.67-98.49,11.04-104.39,10.44-.38-.04-6.92-1.84-7.31-2.09-18.72-11.78,30.93-6.63,27.66-17.75,5.89,1.23,14.97-33.6,18.27-39.67,5.5,11.58,7.03,40.53,24.01,42.8,20.62,2.76,20.52-38.96,27.14-52.2,2.77,41.69,12.32,37.56,27.66,50.11Z"/>
    </g>
    <path class="baby-cls-40" d="m405.04,996.95c5.97,4.75,17.53,7.88,25.05,9.4,6.72,1.35,14.56,2.13,21.4,1.04,7.05,6.64,30.01,9.72,36.54,2.09,8.94,3.14,36.42,3.89,39.15-5.22,4.45,2.46,13.13-.61,17.75,0,.31.49,2.73.91,6.26,8.35,1.7,5.18-12.92,7.66-17.22,8.35-29.46,4.72-85.52-.53-114.31-9.4-11.66-3.59-21.36-8.63-31.32-15.66,5.92,1.49,10.44,3.5,16.7,1.04Z"/>
    <g>
      <path class="baby-cls-41" d="m621.14,102.31c-7.74,3.12-9.55,2.49-4.18,10.44-20.57-5.46-41.34-9.78-62.64-11.48-22.66-1.81-45.44-1.91-67.86,1.04-.37-3.28-5.01-.73-5.22-3.65-.09-1.26,19.5-13.67,15.66-17.22,54.78-5.28,74.42,7.13,124.23,20.88Z"/>
      <path class="baby-cls-7" d="m496.91,81.43c3.84,3.55-15.75,15.96-15.66,17.22.21,2.92,4.85.38,5.22,3.65-14.88,1.96-35.5,7.23-49.59,12.53-17.61,6.63-28.06,14.96-38.1,19.83-3.01,1.46-6.98,3.18-10.44,3.13,24.42-33.72,68-52.46,108.57-56.37Z"/>
      <path class="baby-cls-36" d="m754.76,208.79c-17.21-24.18-40.63-44.01-63.68-62.64-1.07-1.01-2.06-3.19-3.13-4.18-20.85-19.1-35.01-13.54-27.14-24.01,10.11,4.59,20.39,8.46,29.75,14.62,33.3,30.78,44.45,33.23,65.25,74.64.72,1.44-1.09,1.48-1.04,1.57Z"/>
      <path class="baby-cls-36" d="m660.81,117.96c-7.87,10.47,6.29,4.91,27.14,24.01-12.72-9.55-26.01-14.4-40.71-19.83-9.78-3.62-20.18-6.71-30.27-9.4-5.37-7.95-3.57-7.32,4.18-10.44,13.5,4.51,26.71,9.77,39.67,15.66Z"/>
    </g>
    <path class="baby-cls-40" d="m789.21,969.81c4.02,6.64-30.97,8.73-43.85,8.35,2.25-2.86,4.49-7.42,7.31-11.48,12.24.45,24.92-1.67,36.54,3.13Z"/>
    <g>
      <path class="baby-cls-40" d="m824.7,726.57c21.58,8.48,47.82,27.3,48.02,52.72,20.66,10.88,32.91,30.49,38.63,52.72-.37,1.17.05,3.99-2.09,5.74,25.53,18.34,20.61,78.84,3.13,100.22-4.97,6.08-12.02,9.53-18.79,13.05-51.28,26.62-86.18,14.49-139.89,12.53,1.7-2.5,2.39-6.26,4.7-8.35,30.32-14.69,59.6-44.71,69.42-77.25,18.33-41.71,11.22-101.6-6.26-143.02l-1.04-3.65c2.7-5.96,4.1-4.39,4.18-4.7Z"/>
      <path class="baby-cls-34" d="m789.21,969.81c-11.61-4.81-24.3-2.68-36.54-3.13.09-.14-.08-1.48,1.04-3.13,53.71,1.96,88.61,14.09,139.89-12.53-15,15.56-58.01,20.72-79.86,19.83-12.05-.49-31.66-6.83-24.53-1.04Z"/>
    </g>
    <path class="baby-cls-24" d="m827.84,692.12c-5.74-34.14-36.59-55.9-44.89-69.42-13.1-21.35-13.45-54.22-54.28-81.95,6.18-5.2,40.39,26.62,50.63,35.49,4.38,3.8,9,4.86,9.4,5.22,31.48,28.9,42.62,71.9,42.28,113.27l-1.57-3.65-1.57,1.04Z"/>
    <path class="baby-cls-13" d="m323.62,371.64c-.65,15.02-1.26,29.94,1.04,44.89,11.5,35.47,19.34,71.88,30.27,107.52-6.22,4.75-11.64,1.5-16.7-2.61-3.23-2.62-46.64-63.94-48.02-67.86-6.81-19.26,3.87-40.86,27.14-39.15.27.02,3.99,3.02,5.22,1.57-2.09-16.13-1.38-32.56,1.04-48.54-.08,1.38.06,2.79,0,4.18Z"/>
    <path class="baby-cls-16" d="m284.99,770.42q-12.53-2.09-25.05-4.18c-9.85,45.16,1.59,102.52,25.05,142.5,8.2,13.97,27.75,32.45,1.57,13.05-48.1-35.63-59.35-121.28-32.88-173.29,10.27,7.6,20.2,15.53,31.32,21.92Z"/>
    <g>
      <path class="baby-cls-40" d="m254.72,728.66c-.14,8.2,1.38,13.71,1.04,16.18l-2.09,3.65c-26.47,52.01-15.21,137.66,32.88,173.29,26.18,19.4,6.64.92-1.57-13.05-23.47-39.97-34.9-97.34-25.05-142.5-5.41,55.66,8.85,128.85,49.06,170.16l-1.04,2.09c-26.8-7.25-114.05-13.04-134.67-2.09-6.32-7.29-19.82-.27-27.66-24.01-34.86,7.82-28.35-84.07,4.7-104.91.34-1.32-.77-4.11-1.04-7.83,21.03-50.17,58.36-55.75,105.44-70.99Z"/>
      <path class="baby-cls-2" d="m226.01,741.19c6.03-.47-6.68,12.77-12.53,25.05-3.42-6.26,6.87-24.62,12.53-25.05Z"/>
    </g>
    <g>
      <path class="baby-cls-4" d="m348.67,801.74c10.85-.34,45.61,12.09,54.28,19.83,11.25,10.05,24.44,37.24,31.32,51.15,8.56,17.32,14.84,35.68,24.01,52.72,7.31,7.93,45.05,15.88,67.86,45.41,7.4,9.58,12.23,23,18.79,33.41-4.62-.61-13.3,2.46-17.75,0-7.84-4.33-17.41-71.92-82.99-30.27-2.63.01-5.39-6.24-6.79-8.35-1.35-2.05-7.87-16.36-8.87-16.7l-16.7,10.44c-25.92-19.61-67.53-68.7-81.95-97.61-20.86-41.83-21.52-45.18,18.79-60.03Z"/>
      <path class="baby-cls-43" d="m391.47,988.6c-1.16,4.82-4.52,4.05-8.35,3.13-4.17-1-3.96-1.99-4.18-2.09,4.12-1.44.84-8.64,2.61-13.57.63-.49,5.91,8.84,9.92,12.53Z"/>
      <path class="baby-cls-43" d="m394.61,989.64c.84.63.66,5.18,6.26,3.13.57.62,3.94,3.99,4.18,4.18-6.26,2.46-10.79.44-16.7-1.04-1.87-1.32-4.37-1.58-5.22-4.18,3.83.92,7.19,1.69,8.35-3.13,1.26,1.16,3,.95,3.13,1.04Z"/>
      <path class="baby-cls-11" d="m527.18,1004.26c-2.73,9.11-30.2,8.36-39.15,5.22-6.53,7.63-29.49,4.55-36.54-2.09-6.84,1.09-14.68.31-21.4-1.04,2.37-1.12,5.83-1.69,8.35-2.09.57-.09,1.69,1.64,4.7,1.04,1.28-.99-6.11-25.95-6.79-31.32-.65-5.17-.94-9.87,1.04-8.35,1.39,2.11,4.15,8.36,6.79,8.35,65.58-41.65,75.16,25.95,82.99,30.27Z"/>
      <g>
        <path class="baby-cls-36" d="m284.99,770.42c4.63,2.66,6.96,2.94,7.31,3.13,18.4,10.13,38.03,17.93,56.37,28.19-40.31,14.84-39.65,18.2-18.79,60.03,14.42,28.9,56.03,78,81.95,97.61l16.7-10.44c1.01.34,7.52,14.65,8.87,16.7-1.98-1.52-1.7,3.18-1.04,8.35-4.48,5.16.38,21.16,2.09,30.27-2.52.39-5.98.97-8.35,2.09-7.52-1.51-19.09-4.65-25.05-9.4-.23-.18-3.61-3.56-4.18-4.18-3.06-3.33-7.9-18.83-6.26-3.13-.13-.1-1.87.11-3.13-1.04-4.01-3.69-9.28-13.02-9.92-12.53-1.77,4.93,1.51,12.13-2.61,13.57-4.13-1.93-12.42-7.64-16.7-10.44-7.33-4.79-48.63-38.06-53.24-42.8-40.22-41.31-54.47-114.5-49.06-170.16q12.53,2.09,25.05,4.18Z"/>
        <path class="baby-cls-27" d="m362.24,979.21c-2.6-.55-3.4,1.06-4.18,1.04q-25.05-20.88-50.11-41.76l1.04-2.09c4.61,4.74,45.91,38.01,53.24,42.8Z"/>
        <path class="baby-cls-11" d="m436.36,973.99c.68,5.37,8.06,30.33,6.79,31.32-3.01.59-4.13-1.13-4.7-1.04-1.7-9.11-6.57-25.12-2.09-30.27Z"/>
      </g>
      <path class="baby-cls-45" d="m400.87,992.78c-5.6,2.05-5.42-2.51-6.26-3.13-1.64-15.69,3.2-.19,6.26,3.13Z"/>
    </g>
    <g>
      <path class="baby-cls-4" d="m769.38,789.21c47.17-4.51,56.81,53.48,58.46,88.73-9.82,32.54-39.1,62.57-69.42,77.25-2.31,2.09-3,5.85-4.7,8.35-1.12,1.65-.95,3-1.04,3.13-2.82,4.07-5.06,8.62-7.31,11.48-3.8,4.82-13.68,13.78-18.79,16.7-.11-.45-.95-2.01-1.04-2.09,12.41-34.54,20.19-44.34-5.74-62.64-26.75-18.87-67-28.69-94.48-6.26,14.81-29.98,17.98-28.04,30.27-46.98.04-.06.23.2,1.04-1.04,28.83,8.85,57.79,19.16,79.86,40.71,28.08-30.46,61.37-89.92,30.8-127.36.66-.11,1.41.07,2.09,0Z"/>
      <path class="baby-cls-3" d="m821.57,734.93c17.49,41.42,24.6,101.31,6.26,143.02-1.65-35.25-11.29-93.25-58.46-88.73,15.91-13.78,32.96-26.68,44.89-44.37,1.92-2.85,3.47-10.94,7.31-9.92Z"/>
      <path class="baby-cls-28" d="m767.29,789.21c30.57,37.44-2.71,96.9-30.8,127.36-22.07-21.56-51.03-31.86-79.86-40.71,9.52-14.58,17.26-30.72,27.14-44.89,7.35-10.53,17.6-19.72,25.05-30.27,21.27,10.12,51.25-10.28,58.46-11.48Z"/>
    </g>
    <g>
      <g>
        <path class="baby-cls-24" d="m754.76,208.79c12.28,24.85,25.77,49.63,28.19,77.77,3.31,1.32,5.12,4.24,7.31,6.79l-5.22-2.61c.67,5.54-.45,10.73-1.04,16.18l-1.04-3.65c-1.27,22.4-8.92,44.59-19.83,64.2-1.09-27.28-8.54-52.98-20.88-77.25-5.91-11.62-9.98-17.82-17.75-28.19,1.22-36.7.58-63.57-14.62-97.61-6.78-5.51-12.48-12.33-18.79-18.27,23.05,18.63,46.47,38.45,63.68,62.64Z"/>
        <path class="baby-cls-14" d="m783.99,306.92c-3.64,33.18-6.48,51.49-21.92,82.47-.06-.25-2,.67-2.09-4.7-.03-1.67,3.33-12.38,3.13-17.22,10.91-19.61,18.57-41.81,19.83-64.2l1.04,3.65Z"/>
      </g>
      <path class="baby-cls-12" d="m554.33,101.26c-1.36,4.91-18.02,7.94-29.75,15.66-31.24,20.53-5.58,22.06,13.05,43.85-37.5-6.82-82.44,3.42-116.92,18.79,0-.7.3-1.78-.52-2.09-4.37-1.63-59.51,28.83-69.42,30.8,6.83-17.1,16.02-33.4,27.14-48.02,6-7.89,18.04-17.94,20.88-25.58,10.04-4.88,20.49-13.21,38.1-19.83,14.09-5.3,34.71-10.57,49.59-12.53,22.41-2.95,45.19-2.85,67.86-1.04Z"/>
      <g>
        <path class="baby-cls-17" d="m398.78,134.67c-2.83,7.63-14.88,17.69-20.88,25.58-11.12,14.62-20.31,30.92-27.14,48.02,9.91-1.97,65.06-32.43,69.42-30.8.82.31.52,1.39.52,2.09-4.48,2-8.22,3.99-12.53,6.26-8.41,4.44-16.43,8.8-24.01,14.62-14.23,10.9-28.78,25.68-34.45,42.8-1.1,3.34-2.37,7.04-3.13,10.44l-1.04-2.61c-7.88,21.57-12.01,43.68-15.66,66.29-2.69,16.67-5.31,33.21-6.26,50.11-2.42,15.98-3.13,32.41-1.04,48.54-1.22,1.46-4.95-1.55-5.22-1.57,4.41.15-9.31-21.92-12.53-30.8-11.29-31.15-13.21-60.58-10.44-93.43,5.61-66.46,34.64-119.99,93.95-152.41,3.46.05,7.43-1.67,10.44-3.13Z"/>
        <path class="baby-cls-9" d="m346.58,253.67c-.8,3.57-1.08,14.11-2.09,18.79-8.75,11.48-8.45,31.84-14.62,44.89,3.65-22.61,7.78-44.72,15.66-66.29l1.04,2.61Z"/>
      </g>
      <path class="baby-cls-26" d="m616.96,112.74c10.09,2.68,20.49,5.78,30.27,9.4-17.76,2.67-36.77.55-53.24,8.87,15.02,13.17,23.72,35.43,5.22,49.59-.52-.18-1.57.18-2.09,0-1.81-.62-6-.61-7.31-1.04-.34-.11.94-2.06-5.74-4.18-4.81-1.52-10.17-2.69-15.14-4.18-4.56-1.36-9-2.85-13.57-4.18-.9-.26-7.67-4.43-17.75-6.26-18.63-21.78-44.28-23.31-13.05-43.85,11.74-7.71,28.39-10.75,29.75-15.66,21.29,1.7,42.07,6.02,62.64,11.48Z"/>
      <g>
        <path class="baby-cls-33" d="m687.95,141.97c1.08.99,2.06,3.17,3.13,4.18,6.31,5.94,12.01,12.76,18.79,18.27,15.19,34.04,15.84,60.91,14.62,97.61-1.34-1.79-3.67-4.4-5.22-6.26-12.67-15.23-34.54-35.13-51.15-45.93-21.07-13.7-45.46-21.05-68.9-29.23,18.5-14.15,9.81-36.42-5.22-49.59,16.47-8.32,35.48-6.21,53.24-8.87,14.7,5.44,27.99,10.29,40.71,19.83Z"/>
        <path class="baby-cls-32" d="m599.22,180.6c23.43,8.18,47.83,15.53,68.9,29.23q-35.49-14.62-70.99-29.23c.52.18,1.57-.18,2.09,0Z"/>
      </g>
    </g>
    <g>
      <path class="baby-cls-16" d="m655.59,876.9c-12.29,18.93-15.46,17-30.27,46.98-7.44,15.06-13.6,24.8-15.66,42.28-.1.87-2.08.41-2.09.52-27.01,3.14-54.23,4.26-81.43,4.18-22.81-29.53-60.54-37.48-67.86-45.41-9.17-17.04-15.45-35.4-24.01-52.72,10.75,16.69,12.43,26.17,31.84,36.54,49.22,26.28,122.52,9.26,168.07-18.79,7-4.31,18.47-15.96,21.4-13.57Z"/>
      <path class="baby-cls-33" d="m728.66,540.76c40.83,27.72,41.18,60.6,54.28,81.95,8.3,13.52,39.15,35.28,44.89,69.42,2.18,12.99-.03,21.43-3.13,34.45-.07.31-1.47-1.27-4.18,4.7l1.04,3.65c-3.83-1.02-5.38,7.07-7.31,9.92-11.93,17.68-28.98,30.59-44.89,44.37-.68.07-1.42-.11-2.09,0-7.21,1.2-37.19,21.61-58.46,11.48-20.77-9.89-10.55-46.44-10.44-51.67.59-27.3.39-54.74-6.26-81.43,28.53-4.48,23.28-28.6,29.23-57.94,1.73-8.51,15.82-29.51,2.61-50.11-.1,15.59-4.05,30.51-12.01,43.85-10.48-6.17-22.14-9.33-33.41-13.57,5.41-14.14,7.53-37.84,10.44-49.06,1.28-4.95,1.64-7.81,6.26-10.44.37-.21,4.9-.34,8.35-2.09,9.01,2.22,17.37,7.31,25.05,12.53Z"/>
      <path class="baby-cls-17" d="m372.68,657.68c13.26,19.49,23.57,40.9,31.32,63.16-17.97,9.83-28.53-18.16-34.45-31.84-12.82-29.64-17.11-82.83-62.11-74.12-26.37,5.1-5.82,57.88,8.87,76.73,6.23,7.99,15.27,14.85,22.97,21.4,14.43,12.29,31.16,23.99,46.98,34.45-8.63,3.19-17.52,6.11-26.1,9.4-39.62-11.61-77.25-33.27-104.39-64.72,7.54-31.3,5.85-49.24,22.97-78.29,4.86,1.29,15.77-6.45,22.44-7.31,36.71-4.71,48.92,30.61,71.51,51.15Z"/>
      <path class="baby-cls-8" d="m364.33,548.06c2.72,16.26-10.92,28.55,4.18,58.98,2.4,4.83,12.94,17.44,17.75,26.62l7.31,18.79-20.88,5.22c-22.59-20.54-34.8-55.86-71.51-51.15-6.67.86-17.59,8.6-22.44,7.31,17.9-30.38,51.3-58.84,82.47-75.16.41,1.43-.83,5.88,3.13,9.4Z"/>
      <path class="baby-cls-8" d="m360.16,756.85c-21.93,8.39-43.85,17.22-67.86,16.7-.35-.19-2.68-.47-7.31-3.13-11.12-6.39-21.05-14.32-31.32-21.92l2.09-3.65c.33-2.47-1.18-7.98-1.04-16.18.2-12.06-2.06-24.41,1.04-36.54,27.14,31.45,64.77,53.11,104.39,64.72Z"/>
      <path class="baby-cls-26" d="m413.4,591.91c-.52,4.68.95,3.98,1.04,4.18,6.17,13.2,26.21,21.67,39.67,26.1,8.95,15.03,49.55,65.8,61.59,72.03q-11.74-4.18-23.49-8.35l-1.57,1.57c37.56,50.94,105.25,8.39,136.75-28.19,17.63-20.47,25.4-38.44,34.45-51.67,4.5-6.58,12.08-11.19,16.7-17.75,11.26,4.24,22.92,7.4,33.41,13.57,3.16,1.86,5.78,4.99,9.4,6.26-5.95,29.34-.7,53.46-29.23,57.94,6.65,26.69,6.85,54.13,6.26,81.43-.11,5.23-10.34,41.79,10.44,51.67-7.45,10.55-17.71,19.74-25.05,30.27.33-1.71-3.52.7-8.35,1.04-16.82,1.21-34.78-1.91-51.15-5.22-89.11-18-148.87-94.95-173.81-178.51,7,31.23,18.75,100.91,37.06,123.71,11.44,14.24,52.57,41.66,69.94,47.5-5.76,18.56-47.73,16.02-62.64,12.53-5.02-1.18-23.17-8.9-27.66-11.48-35.74-20.56-15.5-31.62-20.88-82.47-15.88,27.18-25.69,57.36-43.32,83.51-8.67-7.75-43.43-20.18-54.28-19.83-18.34-10.25-37.97-18.05-56.37-28.19,24,.52,45.93-8.31,67.86-16.7,8.57-3.28,17.47-6.2,26.1-9.4.39.26,4.76.48,8.87,3.13,11.94,7.72,29.94,25.52,31.84,20.36-2.77-36.63-15.31-83.36-30.27-116.92-.46-1.03-1.91-1.85-3.13-1.57l-7.31-18.79c6.59-8.89,19.18-36.59,19.83-46.98,2.42,1.66,4.86,3.68,7.31,5.22Z"/>
      <path class="baby-cls-10" d="m494.82,832.01c-19.25,3.94-38.05,9.82-55.33,19.31,34.2,30.77,85.07,30.23,126.84,17.22q54.55-18.27,109.09-36.54c4.84-.35,8.68-2.75,8.35-1.04-9.88,14.17-17.63,30.3-27.14,44.89-.81,1.25-1,.98-1.04,1.04-2.93-2.39-14.41,9.26-21.4,13.57-45.56,28.05-118.85,45.07-168.07,18.79-19.41-10.36-21.09-19.84-31.84-36.54-6.88-13.92-20.07-41.1-31.32-51.15,17.63-26.15,27.45-56.33,43.32-83.51,5.38,50.85-14.86,61.92,20.88,82.47,4.49,2.58,22.65,10.31,27.66,11.48Z"/>
      <path class="baby-cls-35" d="m721.35,609.65c-3.62-1.27-6.23-4.4-9.4-6.26,7.96-13.34,11.9-28.26,12.01-43.85,13.21,20.6-.88,41.6-2.61,50.11Z"/>
      <path class="baby-cls-12" d="m369.55,688.99q-15.14,12.01-30.27,24.01c-7.7-6.55-16.74-13.41-22.97-21.4-14.7-18.84-35.24-71.63-8.87-76.73,45-8.71,49.29,44.48,62.11,74.12Z"/>
      <path class="baby-cls-33" d="m393.56,652.46c1.22-.29,2.67.54,3.13,1.57,14.96,33.56,27.5,80.29,30.27,116.92-1.9,5.17-19.9-12.63-31.84-20.36-4.11-2.66-8.48-2.87-8.87-3.13-15.82-10.45-32.54-22.16-46.98-34.45q15.14-12.01,30.27-24.01c5.92,13.68,16.48,41.67,34.45,31.84-7.74-22.26-18.06-43.66-31.32-63.16l20.88-5.22Z"/>
      <path class="baby-cls-12" d="m371.64,551.19c7.31,17.12,19.79,25.39,34.45,35.49-.65,10.38-13.25,38.09-19.83,46.98-4.81-9.18-15.35-21.79-17.75-26.62-15.1-30.43-1.46-42.72-4.18-58.98l7.31,3.13Z"/>
      <path class="baby-cls-25" d="m624.27,826.79c16.37,3.31,34.33,6.43,51.15,5.22q-54.55,18.27-109.09,36.54c-41.77,13.01-92.64,13.54-126.84-17.22,17.28-9.49,36.08-15.37,55.33-19.31,14.91,3.49,56.87,6.03,62.64-12.53,21.07,7.08,44.82,7.4,66.81,7.31Z"/>
      <path class="baby-cls-10" d="m624.27,826.79c-21.99.1-45.74-.23-66.81-7.31-17.38-5.83-58.51-33.26-69.94-47.5-18.31-22.79-30.06-92.47-37.06-123.71,24.94,83.56,84.7,160.51,173.81,178.51Z"/>
      <path class="baby-cls-10" d="m661.85,607.57c-9.05,13.24-16.82,31.2-34.45,51.67-31.5,36.58-99.2,79.12-136.75,28.19l1.57-1.57q11.74,4.18,23.49,8.35c10.37,5.37,17.87,4.69,28.19,2.09,3.53-.89,7.09-2.72,10.44-4.18,9.28-4.03,41.57-25.38,50.63-32.36,14.89-11.47,27-24.39,40.19-37.58,5.11-5.11,10.52-10.73,16.7-14.62Z"/>
    </g>
    <g>
      <path class="baby-cls-7" d="m537.62,160.77c10.08,1.83,16.84,6,17.75,6.26l1.57,3.13c-46.76-2.64-99.15-.12-142.5,18.79-3.21-1.58-7.08,0-6.26-3.13,4.31-2.27,8.05-4.27,12.53-6.26,34.48-15.37,79.42-25.61,116.92-18.79Z"/>
      <path class="baby-cls-15" d="m408.18,185.82c-.82,3.12,3.05,1.55,6.26,3.13,9.35,4.61,32.3,16.38,26.1,17.75-17.03.17-39.21-3.62-56.37-6.26,7.58-5.81,15.6-10.18,24.01-14.62Z"/>
      <path class="baby-cls-7" d="m568.94,171.2c-23.83,3.03-46.27,11.59-67.86,21.92-.11-.88,1.78-1.71.52-2.09-5.17-1.56-26.19,15.31-61.07,15.66,6.2-1.36-16.75-13.13-26.1-17.75,43.34-18.91,95.74-21.43,142.5-18.79l-1.57-3.13c4.57,1.32,9.01,2.82,13.57,4.18Z"/>
    </g>
    <g>
      <path class="baby-cls-45" d="m597.13,180.6q35.49,14.62,70.99,29.23c16.62,10.81,38.49,30.7,51.15,45.93-2.66-1.87-4.75-4.25-7.31-6.26-.22-.17-1.89-2.92-3.65-4.18-2.12.35-1.57,22.77-6.79,41.76-4.86,17.71-15.14,26.21-10.44,47.5,2.65,12,35.77,60.4,33.41,87.69l1.57,1.57c2.16-1.08,3.7-2.95,5.74-4.18,2.48-1.49,4.78-3.63,7.31-5.22,1.26,6.84-2.68,6.89-3.13,10.44-.93.77-1.33,1.35-2.09,2.09-11.99,11.66-13.8,16.74-17.75,33.41-.04.16-1.82,1.93-2.09,2.61-.69,3.33-.06,6.69,0,9.92-2.89,1.91-7.15,20.23-6.26,25.05-3,4.24-4.96,6.63-7.31,11.48-2.17,4.49-9.55,25.24-5.22,20.88-4.63,2.63-4.98,5.49-6.26,10.44-9.62,13.17-19.91,25.91-31.32,37.58-4.13,4.23-8.1,8.59-12.53,12.53-3.67,3.26-7.76,5.44-11.48,8.35l-3.13-4.18c2.28-1.65,5.06-4.46,7.31-6.26,16.35-13.08,31.41-20.18,17.75-60.03-4.03-11.76-33.77-62.83-50.63-58.98-5.37-2.84-28.35-41.23-28.71-43.85,21.57,8.56,42.26,21.89,66.29,21.92,43.72.07-27.23-13.15-37.58-20.88-5.43-4.05,8.66-1.58,7.83-5.22,10.35-.98,19.02-3.54,27.14-10.44,11.77,1.52,21.26,7.34,22.44,7.31,3-.09-.06-1.91.52-2.09.18-.05-.24-.74,3.13-2.09.73-.29,10.07-.98,13.57-6.79,8.79-14.57-7.2-29.24-16.7-38.1-8.25-7.69-14.22-13.05-25.05-17.75-6.49-17.98-12.5-36.69-34.45-37.58-2.06-.08-4.02,2.25-6.26.52,15.44-48.34-24.8-88.74-7.31-135.19,1.31.43,5.5.42,7.31,1.04Z"/>
      <path class="baby-cls-36" d="m501.09,193.13c-9.06,4.34-35.32,19.3-42.8,25.05-7.61,5.86-15.31,12.1-18.79,21.4-17.45,46.64,29.75,58.02,15.66,102.31.78,1.08,15.31,1.5,26.1,4.7,4.16,1.23,15.3,5.99,18.27,8.35,15.31,12.17,20.02,58.56,19.31,77.25-.12,3.25-.74,5.38-1.04,8.35-.12,1.2-2.74,4.76-2.09,8.87,14.55,15.85,7.11,19.58,18.79,16.18,2.48,5.25-4.7,5.85-6.26,8.87-.74,1.43,1.09,1.48,1.04,1.57-9.58,18.11.14,2.73-12.53,0-5.33-19.43-11.38-12.24-26.1.52.19,2.76,9.24-.84,19.83-.52q2.09,16.96,4.18,33.93c3.5.48,16.86-1.68,17.75-1.57,2.32.3,19.48,10.01,43.85,15.66-.52,3.23-8.15,1.68-11.48,1.04-12.79-2.45-22.67-11.99-36.02-11.48-20.76.79-26.05,13.94-39.15,15.66-5.94.78-14.47-.57-20.88,0,.96-4.03,1.45-7.34,1.04-11.48,4.27-17.01,33.9-44.54,0-21.92,5.01-15.8,4.89-18.74,3.13-35.49-.37-3.52-10.7-23.62,4.18-42.28,1.72-2.15,5.91-5.71,8.35-6.79,3.88-1.71,8.56-.47,9.4-1.57-11.79-12.13-22.39-25.69-38.63-32.36,46.23-6.01,3.48-31.52-41.24-21.4-2.85,3.42,4.3,21.82,6.79,26.1-13.77,5.72-28.83,19.35-39.67,29.75,1,1.3,11.06.33,13.57.52,4.55.35,8.97,1.39,13.57,1.04,3.01,4.13-5.9,3.65-6.26,5.74-.76,4.38,31.6,12.97,36.54,14.09-5.07.92-9.47,1.49-14.62,1.04-15.47-1.34-27.17-10.53-28.71-10.44-11.92.69,15.16,43.42,19.31,48.02l1.04,16.18c10.3,30.86,11.32,76.1,29.75,100.74,2.62.4,4-8.94,4.7-10.44,3.92-8.47,12.25-22.32,13.57-26.1,5.11-2.23,5.36-8.85,3.13-13.57.34-1.43.7-2.77,1.04-4.18,5.93-.94,11.96.81,17.75,1.04-1.47,4.9,13.25,19.11,18.27,22.97,5.58,4.28,14.78,4.17,12.01,10.44-35.09,13.7-5.58,38.94,18.79,40.71-.58,7.47,10.28,3.75,15.66,2.09,28.81-3.38,57.98-15.4,86.65-22.97-2.25,1.8-5.03,4.61-7.31,6.26-30.35,22.05-66.12,43.3-104.39,41.76.86-3.37-4.07-1.76-9.92-2.09-.84-4.48-17.26-7.75-25.05-10.44-5.05-1.74-15.97-6.14-19.83-9.4-4.81.68-11.66.44-16.18-1.04-5.39-1.77-35.34-17.88-41.76-21.92-2.44-1.54-4.89-3.55-7.31-5.22-14.66-10.1-27.14-18.38-34.45-35.49-12.6-29.5-28.47-125.32-26.1-157.63,1.79-24.32,11.35-42.33,12.53-56.89,1.73-21.32-5.74-68.96-8.35-93.43,5.67-17.13,20.22-31.9,34.45-42.8,17.16,2.64,39.34,6.43,56.37,6.26,34.88-.35,55.9-17.22,61.07-15.66,1.26.38-.63,1.21-.52,2.09Z"/>
      <g>
        <path class="baby-cls-43" d="m345.54,393.56c-2.37,32.31,13.5,128.13,26.1,157.63l-7.31-3.13c-3.96-3.51-2.72-7.97-3.13-9.4-3.18-11.13-6.03-13.85-6.26-14.62-10.94-35.64-18.77-72.05-30.27-107.52,7.81-2.16-4.36-31.53,3.65-31.32,3.25.09,9.91,22.23,17.22,8.35Z"/>
        <path class="baby-cls-22" d="m345.54,393.56c-7.31,13.88-13.98-8.26-17.22-8.35-8.01-.22,4.16,29.16-3.65,31.32-2.31-14.94-1.7-29.87-1.04-44.89,4.74-33.46,13.76-66.05,20.88-99.17,1-4.68,1.28-15.22,2.09-18.79.77-3.4,2.03-7.1,3.13-10.44,2.61,24.47,10.08,72.12,8.35,93.43-1.18,14.56-10.74,32.57-12.53,56.89Z"/>
        <path class="baby-cls-36" d="m344.5,272.47c-7.11,33.12-16.14,65.71-20.88,99.17.06-1.39-.08-2.79,0-4.18.95-16.9,3.57-33.44,6.26-50.11,6.16-13.05,5.86-33.41,14.62-44.89Z"/>
      </g>
      <g>
        <path class="baby-cls-41" d="m763.11,367.46c.19,4.84-3.16,15.55-3.13,17.22.09,5.37,2.02,4.45,2.09,4.7,2.19,8.4,6.79,13.86,10.44,21.4-5.42-4.64-10.44-6.94-17.75-5.74-.08-12.24-.76-25.81-8.87-35.49-1.16.71.59,13.6-6.79,19.31-1.13,15.24-5.06,33.21-7.31,22.44,2.51-25.74,6.96-51.35,4.18-77.25,5.8-4.16,7.02-28.98,6.26-37.06-.07-.79-4.73-4.83,0-6.79,12.34,24.27,19.78,49.97,20.88,77.25Z"/>
        <path class="baby-cls-13" d="m754.76,405.04c-4.01.66-11.92,7.04-15.66,9.4-2.53,1.59-4.82,3.73-7.31,5.22-1.58-2.67-.27-5.62,0-8.35,2.24,10.77,6.18-7.21,7.31-22.44,7.38-5.72,5.63-18.6,6.79-19.31,8.12,9.69,8.79,23.25,8.87,35.49Z"/>
        <path class="baby-cls-41" d="m719.27,255.76c1.55,1.86,3.88,4.48,5.22,6.26,7.77,10.36,11.84,16.57,17.75,28.19-4.73,1.95-.07,6,0,6.79.75,8.08-.46,32.9-6.26,37.06-.58-5.37-1.01-3.96-1.04-4.18-4.09-28.05-17.66-52.86-22.97-80.38,2.56,2.02,4.65,4.4,7.31,6.26Z"/>
      </g>
      <path class="baby-cls-43" d="m589.82,179.56c-17.49,46.45,22.75,86.85,7.31,135.19,2.24,1.73,4.21-.61,6.26-.52,3,9.79,8.6,19.82,5.22,30.27-6.84-.39-25.95,1.58-29.23,8.87-4.49,9.96,9.27-1.1,18.79,5.74-6.15,2.9-11.32,6.35-11.48,13.57-14.25,4.1-19.53,22.35-18.79,35.49-6.1-4.72-15.47-6.66-22.97-5.22,2.33-34.94,28.63-61.65,51.15-86.12-37.4,15.11-62.39,51.28-70.99,89.78-2.62,11.73-1.76,27.87-6.26,25.58.71-18.69-4.01-65.09-19.31-77.25-2.97-2.36-14.11-7.12-18.27-8.35-8.4-42.63-46.24-84.39-22.97-128.4,7.48-5.75,33.75-20.72,42.8-25.05,21.59-10.34,44.02-18.89,67.86-21.92,4.97,1.48,10.32,2.65,15.14,4.18,6.69,2.11,5.4,4.06,5.74,4.18Z"/>
      <path class="baby-cls-43" d="m581.47,417.57c.29.1-2.12,1.5,5.22,3.13-3.03,2.34-11.64-3.59-10.44,5.22.35,2.61,23.33,41,28.71,43.85,16.86-3.85,46.6,47.22,50.63,58.98,13.66,39.85-1.4,46.95-17.75,60.03-28.66,7.56-57.83,19.58-86.65,22.97,10.37-3.21,27.38-15.41,35.49-23.49-25.17-34.14-36.85-6.74-51.15,21.4-24.37-1.78-53.88-27.01-18.79-40.71,12.08-4.72,24.62-4.5,26.1-8.35.41.51,9.95,6.91,10.96,7.31,17.01,6.68,10.5-9.94,22.44-34.45,3.08.55,7.19.32,10.44,1.04,7.26,19.89,8.91,31.85,25.58,48.02,6.82-46.88-7.16-67.7-33.41-103.35l3.65,39.67c-.8-1.94-12.6-16.92-16.7-38.1-.44-.99-2.45,1.34-3.13.52-2.46-2.95-5.27-7.38-6.26-8.35,18.44-3.1,7.3-14.27-3.13-20.88l1.04-2.09c15.58,4.67,10.18-3.36,13.57-35.49,3.39.61,4.79-1.13,5.22-1.04.46.1.98,1.68,8.35,4.18Z"/>
      <path class="baby-cls-43" d="m562.68,678.55c-7.64-2.21,11.14-18.43,5.74-17.75-7.83,9.25-25.17,24.35-24.53,35.49-10.31,2.6-17.81,3.28-28.19-2.09-12.04-6.23-52.64-57-61.59-72.03,1.8.59,14.85,4.24,15.66,4.18.72-.06,1.68-2.08,3.13-3.13,2.71,1.26,6.91,4.03,7.31,4.18-.84-.01-2.11,2.8-2.09,3.13.41,6.59,39.98,15.39,45.93,10.44,42.21,2.77,77.34-16.55,109.61-41.76,3.73-2.91,7.81-5.09,11.48-8.35,2.42,2.76-13.03,19.48-18.79,25.58-20.32,21.51-43.98,39.89-63.68,62.11Z"/>
      <path class="baby-cls-43" d="m734.93,329.88c.03.21.47-1.2,1.04,4.18,2.78,25.9-1.66,51.51-4.18,77.25-.27,2.73-1.58,5.68,0,8.35-2.04,1.22-3.58,3.09-5.74,4.18l-1.57-1.57c2.37-27.29-30.76-75.69-33.41-87.69-4.7-21.29,5.58-29.79,10.44-47.5,8.02,22.56,16.26,27.63,33.41,42.8Z"/>
      <path class="baby-cls-1" d="m657.68,578.34c-1.49,5.64-1.78,14.38-3.13,19.31-3.67,13.41-13.98,25.67-9.4,24.53-13.19,13.19-25.31,26.11-40.19,37.58-9.06,6.98-41.35,28.33-50.63,32.36-.63-4.31,4.94-9.73,8.35-13.57,19.7-22.23,43.36-40.6,63.68-62.11,5.76-6.1,21.21-22.82,18.79-25.58,4.43-3.93,8.4-8.3,12.53-12.53Z"/>
      <path class="baby-cls-46" d="m711.96,249.5c5.31,27.52,18.88,52.33,22.97,80.38-17.14-15.17-25.38-20.24-33.41-42.8,5.22-18.99,4.67-41.4,6.79-41.76,1.77,1.25,3.44,4,3.65,4.18Z"/>
      <path class="baby-cls-36" d="m678.55,589.82c-4.62,6.56-12.2,11.17-16.7,17.75-6.19,3.88-11.59,9.5-16.7,14.62-4.58,1.14,5.72-11.12,9.4-24.53,1.35-4.93,1.64-13.67,3.13-19.31,11.41-11.67,21.69-24.41,31.32-37.58-2.91,11.23-5.03,34.93-10.44,49.06Z"/>
      <path class="baby-cls-43" d="m662.89,369.55l-2.09,3.13c-1.64-1.82-20.3-14.19-21.4-13.57l4.7,28.19c-15.39-9.84-36.07-17.64-54.28-14.62,4.63-5.34,23.39-11.8,20.88-16.7,8.7-1.28,16.86-1.22,25.58-1.04l-.52-2.09,2.09-1.04c10.83,4.69,16.81,10.05,25.05,17.75Z"/>
      <path class="baby-cls-6" d="m633.66,599.22c-32.27,25.2-67.4,44.53-109.61,41.76-15.85-1.04-30.64-6.94-45.93-10.44-.02-.33,1.25-3.15,2.09-3.13,11.38,4.27,33.9,8.91,45.93,9.4,38.27,1.54,74.04-19.7,104.39-41.76l3.13,4.18Z"/>
      <path class="baby-cls-43" d="m586.69,420.7c6.73,1.5,19.21,1.7,26.1,1.04.83,3.64-13.26,1.16-7.83,5.22,10.36,7.73,81.3,20.95,37.58,20.88-24.03-.04-44.72-13.37-66.29-21.92-1.2-8.81,7.41-2.88,10.44-5.22Z"/>
      <path class="baby-cls-1" d="m637.84,351.8l-2.09,1.04c-8.02-3.89-18.36-7.85-27.14-8.35,3.38-10.46-2.22-20.49-5.22-30.27,21.95.89,27.96,19.6,34.45,37.58Z"/>
      <path class="baby-cls-43" d="m666.03,414.44c.36-2.9-.05-4.63-1.04-7.31-.98-2.62-1.54-3.11-3.13-5.22,5.3-11.99,9.16-17.89-1.04-29.23l2.09-3.13c9.5,8.87,25.49,23.53,16.7,38.1-3.5,5.81-12.84,6.49-13.57,6.79Z"/>
      <path class="baby-cls-5" d="m664.98,407.13c1,2.67,1.4,4.4,1.04,7.31-3.37,1.35-2.95,2.03-3.13,2.09-9.52-5.89-19.47-14.78-29.23-19.83-4.74-2.45-9.35-5.03-14.62-6.26-.48-4.22,15.85-1.76,23.49,1.04,7.42,2.72,15.76,11.14,22.44,15.66Z"/>
      <g>
        <path class="baby-cls-21" d="m735.97,495.87c-6.59,9.68-15.57,21.25-25.05,28.19q-5.22-7.31-10.44-14.62c2.35-4.86,4.3-7.24,7.31-11.48.94-1.33,6.7-5.36,8.35-7.83.6-6.57-1.97-10.33-2.09-17.22-.06-3.22-.69-6.59,0-9.92.26-.68,2.05-2.45,2.09-2.61,5.23-9.76,24.17-21.82,24.01-23.49-.47-4.98-16.05.56-6.26-9.92.76-.74,1.16-1.32,2.09-2.09,2.71-2.25,4.13-3.47,7.31-5.22,40.41-7.3,4.31,59.14-7.31,76.21Z"/>
        <path class="baby-cls-11" d="m735.97,495.87c11.62-17.07,47.72-83.5,7.31-76.21,10.26-5.66,23.11-9.58,29.23,4.7,10.49,24.47-22.09,54.63-36.54,71.51Z"/>
        <path class="baby-cls-11" d="m710.92,524.05c-.38.28,1.4,3.54-7.31,4.18-3.45,1.75-7.98,1.88-8.35,2.09-4.33,4.36,3.05-16.39,5.22-20.88q5.22,7.31,10.44,14.62Z"/>
        <path class="baby-cls-11" d="m716.14,460.37c3.95-16.66,5.76-21.74,17.75-33.41-9.78,10.48,5.8,4.94,6.26,9.92.16,1.67-18.78,13.72-24.01,23.49Z"/>
        <path class="baby-cls-4" d="m714.05,472.9c.12,6.89,2.69,10.65,2.09,17.22-1.65,2.47-7.41,6.5-8.35,7.83-.89-4.82,3.37-23.15,6.26-25.05Z"/>
      </g>
      <path class="baby-cls-36" d="m469.77,626.36c-.81.06-13.86-3.58-15.66-4.18-13.46-4.42-33.5-12.89-39.67-26.1,17.36,11.84,39.21,18.83,55.33,30.27Z"/>
      <path class="baby-cls-22" d="m455.15,613.83c5.71,3.42,11.72,6.58,17.75,9.4-1.45,1.05-2.41,3.08-3.13,3.13-16.12-11.45-37.97-18.43-55.33-30.27-.09-.19-1.56.51-1.04-4.18,6.42,4.04,36.37,20.16,41.76,21.92Z"/>
      <path class="baby-cls-43" d="m485.43,411.31c-2.44,1.07-6.64,4.63-8.35,6.79-14.88,18.66-4.54,38.76-4.18,42.28-7.78,21.52-29.33,29.24-32.36,53.76-1.72,13.95-.03,53.53,10.44,64.2-.7,1.5-2.08,10.83-4.7,10.44-18.43-24.64-19.45-69.87-29.75-100.74l-1.04-16.18q4.7-18.79,9.4-37.58c5.15.44,9.54-.12,14.62-1.04,9.8-1.78,12.69.23,9.4-11.48,1.4-.14,2.82-.66,4.18-1.04,6.16,2.4,23.63-8.82,29.23-14.62,1.93,1.85-.12,3.11,3.13,5.22Z"/>
      <path class="baby-cls-45" d="m469.77,495.87c-1.72,5.43-11.32,23.14-13.57,36.02l13.57-14.09c.4,4.14-.08,7.45-1.04,11.48-.35,1.48.36,3.76,0,5.22-.35,1.4-.7,2.74-1.04,4.18-.8,3.37-2.89,12.89-3.13,13.57-1.32,3.78-9.65,17.62-13.57,26.1-10.47-10.67-12.16-50.25-10.44-64.2,3.03-24.53,24.58-32.24,32.36-53.76,1.76,16.76,1.88,19.7-3.13,35.49Z"/>
      <path class="baby-cls-1" d="m544.93,402.96c-.71,0-1.86-.27-2.09.52-6.74,23.19-18.84,37.37,11.48,46.45l-1.04,2.09c-1.35-.85-19.27-10.81-20.36-10.44-2.5.85-1.34,6.31-1.57,8.35-4.38-3.21-8.81-6.78-13.57-9.4.31-2.97.92-5.1,1.04-8.35,4.51,2.29,3.64-13.84,6.26-25.58,8.59-38.5,33.59-74.66,70.99-89.78-22.52,24.47-48.82,51.18-51.15,86.12Z"/>
      <path class="baby-cls-46" d="m481.25,346.58c-10.79-3.2-25.32-3.62-26.1-4.7,14.09-44.29-33.11-55.67-15.66-102.31,3.48-9.3,11.18-15.54,18.79-21.4-23.28,44.02,14.57,85.77,22.97,128.4Z"/>
      <path class="baby-cls-45" d="m562.68,481.25c.69.82,2.69-1.51,3.13-.52,4.1,21.19,15.91,36.16,16.7,38.1,1.88,4.59,1.95,6.95,2.09,7.31-2.8-.51-5.6-1.45-8.35-2.09-24.37-5.65-41.53-15.36-43.85-15.66l-1.04-33.41c3.6-.82,26.33,13.32,31.32,6.26Z"/>
      <path class="baby-cls-46" d="m485.43,411.31c-3.25-2.11-1.2-3.37-3.13-5.22-.27-.26-5.91-4.04-6.26-4.18,3.17-1.06-7.17-10.27-11.48-12.53-9.96-18.07-25.43-14.52-42.8-7.31-2.49-4.28-9.64-22.67-6.79-26.1,44.71-10.12,87.47,15.39,41.24,21.4,16.23,6.67,26.83,20.23,38.63,32.36-.84,1.1-5.52-.14-9.4,1.57Z"/>
      <path class="baby-cls-13" d="m564.77,525.1c-.99,5.69,4,3.47,0,6.26-2.6.18-8.22,1.94-10.44,3.13l1.04-1.57c-14.01,4.05-28.82,5.91-43.85,6.79-3.63-1.22-8.7-2.32-12.53-3.13-.47-.1,1.63-.94-9.4-2.09v-5.22c13.1-1.72,18.39-14.87,39.15-15.66,13.35-.51,23.23,9.03,36.02,11.48Z"/>
      <path class="baby-cls-45" d="m551.19,611.74c-5.38,1.67-16.23,5.38-15.66-2.09,14.31-28.14,25.98-55.54,51.15-21.4-8.11,8.08-25.12,20.28-35.49,23.49Z"/>
      <path class="baby-cls-46" d="m424.88,434.27q-4.7,18.79-9.4,37.58c-4.15-4.6-31.23-47.33-19.31-48.02,1.54-.09,13.24,9.1,28.71,10.44Z"/>
      <path class="baby-cls-11" d="m464.55,389.39c-16.57-8.69-27.05-4.78-41.76,3.13-10.03,5.4-18.63,12.39-27.14,19.83-2.51-.19-12.57.78-13.57-.52,10.84-10.4,25.9-24.03,39.67-29.75,17.37-7.22,32.84-10.76,42.8,7.31Z"/>
      <path class="baby-cls-1" d="m532.4,508.39c-.88-.12-14.25,2.04-17.75,1.57q-2.09-16.96-4.18-33.93c2.05.06,4.82-.31,6.26,0,12.67,2.73,2.95,18.11,12.53,0,.89,0,1.06-.81,2.09-1.04l1.04,33.41Z"/>
      <path class="baby-cls-36" d="m489.6,534.49c11.03,1.15,8.92,1.99,9.4,2.09,5.32,13.08,13.8,17.83,27.14,19.83,4.55.68,9.03,2.42,13.57,0,.04.17,1.76-.61,3.13,1.57.31.49-.27,2.28,0,2.61-1.48,3.85-14.02,3.63-26.1,8.35,2.77-6.27-6.43-6.16-12.01-10.44-5.02-3.86-19.74-18.07-18.27-22.97.16,0-.64-1.44,3.13-1.04Z"/>
      <path class="baby-cls-20" d="m421.75,414.44c1.35.49,10.39,9.03,27.14,7.31,3.29,11.72.41,9.71-9.4,11.48-4.93-1.12-37.3-9.71-36.54-14.09.36-2.09,9.27-1.61,6.26-5.74,2.83,1.96,1.25-.25,3.13-1.04,6.75,4.41,8.91,1.91,9.4,2.09Z"/>
      <path class="baby-cls-43" d="m531.36,449.93c12.32,9.04,27.46,16.94,21.92,18.79-11.03-10.28-11.82-5.16-18.79-3.13-11.68,3.4-4.24-.34-18.79-16.18-.65-4.11,1.96-7.67,2.09-8.87,4.76,2.62,9.19,6.18,13.57,9.4Z"/>
      <path class="baby-cls-11" d="m553.28,468.72c1.18,1.1,1.87,2.94,3.13,4.18.99.97,3.8,5.41,6.26,8.35-4.99,7.06-27.72-7.08-31.32-6.26-1.03.23-1.19,1.05-2.09,1.04.04-.08-1.78-.14-1.04-1.57,1.56-3.02,8.74-3.62,6.26-8.87,6.97-2.03,7.76-7.15,18.79,3.13Z"/>
      <path class="baby-cls-43" d="m469.77,517.79l-13.57,14.09c2.25-12.87,11.85-30.59,13.57-36.02,33.9-22.62,4.27,4.91,0,21.92Z"/>
      <path class="baby-cls-41" d="m526.14,636.8c-12.03-.48-34.55-5.12-45.93-9.4-.39-.15-4.6-2.91-7.31-4.18-6.03-2.82-12.03-5.98-17.75-9.4,4.52,1.48,11.37,1.72,16.18,1.04,3.87,3.26,14.79,7.65,19.83,9.4,7.79,2.69,24.22,5.96,25.05,10.44,5.84.33,10.78-1.28,9.92,2.09Z"/>
      <path class="baby-cls-42" d="m516.74,476.03c-1.45-.31-4.22.06-6.26,0-10.59-.32-19.65,3.29-19.83.52,14.71-12.77,20.77-19.95,26.1-.52Z"/>
      <path class="baby-cls-42" d="m584.6,526.14c.62,1.59,1.17.67,2.09,1.57,1.06,2.94-.12,6.47,0,6.79-3.25-.72-7.36-.49-10.44-1.04-4.17-.75-6.9-2.4-11.48-2.09,4-2.79-.99-.57,0-6.26,3.33.64,10.97,2.19,11.48-1.04,2.75.64,5.55,1.58,8.35,2.09Z"/>
      <path class="baby-cls-42" d="m489.6,529.27v5.22c-3.77-.39-2.97,1.05-3.13,1.04-5.79-.24-11.81-1.98-17.75-1.04.36-1.46-.35-3.74,0-5.22,6.41-.57,14.94.78,20.88,0Z"/>
      <path class="baby-cls-43" d="m464.55,552.24c.24-.68,2.33-10.2,3.13-13.57,2.23,4.72,1.97,11.34-3.13,13.57Z"/>
      <path class="baby-cls-29" d="m644.1,387.3c3.89,2.48,15.46,11.58,17.75,14.62,1.59,2.11,2.16,2.6,3.13,5.22-6.68-4.52-15.02-12.94-22.44-15.66-7.64-2.8-23.97-5.26-23.49-1.04-20.14-4.72-36.59,3.25-45.93,21.92v1.04c-.43-.09-1.83,1.66-5.22,1.04.22-2.05-.15-4.2,0-6.26-.74-13.15,4.54-31.4,18.79-35.49.82-.24,2.15.16,3.13,0,18.22-3.02,38.89,4.77,54.28,14.62Z"/>
      <path class="baby-cls-45" d="m567.9,408.18c-.15,2.06.22,4.22,0,6.26-3.39,32.13,2.01,40.16-13.57,35.49-30.32-9.08-18.22-23.27-11.48-46.45.23-.79,1.37-.53,2.09-.52,7.5-1.44,16.86.5,22.97,5.22Z"/>
      <path class="baby-cls-36" d="m608.61,344.5c8.78.5,19.12,4.46,27.14,8.35l.52,2.09c-8.72-.17-16.88-.24-25.58,1.04-3.78.56-9.15,1.54-12.53,3.13-9.52-6.84-23.28,4.22-18.79-5.74,3.28-7.29,22.39-9.27,29.23-8.87Z"/>
      <path class="baby-cls-46" d="m610.7,355.98c2.51,4.9-16.25,11.36-20.88,16.7-.98.16-2.31-.24-3.13,0,.16-7.22,5.34-10.67,11.48-13.57,3.38-1.6,8.75-2.57,12.53-3.13Z"/>
      <path class="baby-cls-36" d="m586.69,534.49c-.12-.32,1.06-3.84,0-6.79-.92-.89-1.46.03-2.09-1.57-.14-.35-.2-2.72-2.09-7.31l-3.65-39.67c26.25,35.65,40.23,56.46,33.41,103.35-16.66-16.17-18.32-28.13-25.58-48.02Z"/>
      <path class="baby-cls-45" d="m564.77,531.36c4.58-.31,7.31,1.34,11.48,2.09-11.94,24.51-5.43,41.13-22.44,34.45-1.02-.4-10.55-6.79-10.96-7.31-.27-.33.31-2.12,0-2.61-1.38-2.18-3.09-1.4-3.13-1.57-.62-2.5,2.61-9.77,4.18-12.53,2.42-1.11,9.47-8.87,10.44-9.4,2.22-1.19,7.84-2.96,10.44-3.13Z"/>
      <path class="baby-cls-45" d="m553.28,452.02c10.43,6.61,21.58,17.78,3.13,20.88-1.26-1.23-1.95-3.08-3.13-4.18,5.54-1.85-9.6-9.75-21.92-18.79.23-2.04-.93-7.5,1.57-8.35,1.08-.37,19.01,9.59,20.36,10.44Z"/>
      <path class="baby-cls-36" d="m562.68,678.55c-3.41,3.85-8.98,9.26-8.35,13.57-3.34,1.45-6.91,3.28-10.44,4.18-.64-11.15,16.7-26.24,24.53-35.49,5.4-.68-13.38,15.54-5.74,17.75Z"/>
      <path class="baby-cls-20" d="m524.05,640.97c-5.95,4.95-45.52-3.85-45.93-10.44,15.29,3.5,30.09,9.4,45.93,10.44Z"/>
      <path class="baby-cls-1" d="m660.81,372.68c10.2,11.34,6.34,17.24,1.04,29.23-2.28-3.03-13.86-12.13-17.75-14.62l-4.7-28.19c1.11-.62,19.77,11.75,21.4,13.57Z"/>
      <g>
        <path class="baby-cls-18" d="m604.43,402.96c4.95,3.68,12.24,1.54,18.27,2.09,2.03.59-2.75,9.89,0,11.48,5.52,3.2,2.13-6,3.13-6.26.67-.18,4.26,10.48,8.87,0-.22,3.25.99.5,5.22,1.04-8.13,6.89-16.79,9.46-27.14,10.44-6.88.65-19.37.46-26.1-1.04-7.34-1.63-4.93-3.03-5.22-3.13.51-1.34,4.13-3.81,5.22-4.18,1.06-.36,8.15-.68,8.35-1.57-2.89-.21-4.14-2.32-6.26-3.65,8.38-.61-8.79-24.6,15.66-5.22Z"/>
        <path class="baby-cls-13" d="m662.89,416.53c-.58.18,2.48,2-.52,2.09-1.18.04-10.68-5.79-22.44-7.31-4.23-.55-5.44,2.2-5.22-1.04,1.35-3.07.3-6.83-3.13-8.35l2.09-5.22c9.76,5.06,19.71,13.95,29.23,19.83Z"/>
        <path class="baby-cls-37" d="m586.69,407.13c.69,4.31-3.95,3.74,0,6.26-1.09.37-4.71,2.83-5.22,4.18-7.37-2.5-7.89-4.08-8.35-4.18v-1.04c2.87-.64,9.69-7.23,12.01-7.31,2.44-.08,1.4,2.02,1.57,2.09Z"/>
        <path class="baby-cls-19" d="m619.05,390.43c5.27,1.24,9.88,3.81,14.62,6.26l-2.09,5.22c-5.55-2.45-20.85-1.11-27.14,1.04-24.45-19.38-7.28,4.61-15.66,5.22-.61-.38-1.4-.76-2.09-1.04-.17-.07.87-2.17-1.57-2.09-2.32.08-9.13,6.66-12.01,7.31,9.34-18.68,25.79-26.65,45.93-21.92Z"/>
        <path class="baby-cls-30" d="m631.58,401.91c3.44,1.52,4.48,5.28,3.13,8.35-4.61,10.48-8.2-.18-8.87,0-1,.27,2.39,9.46-3.13,6.26-2.75-1.59,2.03-10.89,0-11.48-6.03-.54-13.32,1.59-18.27-2.09,6.3-2.15,21.59-3.49,27.14-1.04Z"/>
        <path class="baby-cls-39" d="m588.78,408.18c2.13,1.34,3.37,3.45,6.26,3.65-.2.88-7.29,1.21-8.35,1.57-3.95-2.52.69-1.95,0-6.26.69.29,1.48.66,2.09,1.04Z"/>
      </g>
      <path class="baby-cls-42" d="m554.33,534.49c-.97.52-8.02,8.28-10.44,9.4-8.07,3.71-16.84,1.98-17.75,2.09-4.38-2.49-9.89-4.68-14.62-6.26,15.03-.88,29.84-2.73,43.85-6.79l-1.04,1.57Z"/>
      <path class="baby-cls-29" d="m511.53,539.71c4.73,1.59,10.23,3.77,14.62,6.26-15.47,1.87-8.29,4.13,0,10.44-13.34-2.01-21.82-6.75-27.14-19.83,3.83.82,8.9,1.91,12.53,3.13Z"/>
      <path class="baby-cls-23" d="m543.89,543.89c-1.57,2.76-4.79,10.03-4.18,12.53-4.54,2.42-9.02.68-13.57,0-8.29-6.31-15.47-8.57,0-10.44.9-.11,9.68,1.63,17.75-2.09Z"/>
      <g>
        <path class="baby-cls-38" d="m422.79,392.52c.61,3.87-2.14,9.63,3.13,9.92-.49.5-1.03.73-1.04,1.57-4.65.38-8.83,6.79-12.53,8.35-1.88.8-.3,3-3.13,1.04-4.6.35-9.02-.69-13.57-1.04,8.51-7.45,17.11-14.43,27.14-19.83Z"/>
        <path class="baby-cls-44" d="m476.03,401.91c.35.14,5.99,3.92,6.26,4.18-5.6,5.8-23.07,17.01-29.23,14.62,7.87-2.23,11.16-7.89,15.66-14.09-46.94-6.25-4.6-9.48,7.31-4.7Z"/>
        <path class="baby-cls-30" d="m424.88,404c-.02,1.42-2.74,7.48-3.13,10.44-.48-.18-2.65,2.32-9.4-2.09,3.7-1.57,7.87-7.97,12.53-8.35Z"/>
        <g>
          <path class="baby-cls-19" d="m464.55,389.39c4.31,2.26,14.65,11.46,11.48,12.53-11.91-4.79-54.25-1.55-7.31,4.7-4.5,6.2-7.78,11.86-15.66,14.09-1.36.38-2.77.9-4.18,1.04-16.75,1.72-25.79-6.82-27.14-7.31.4-2.96,3.11-9.02,3.13-10.44.01-.84.55-1.06,1.04-1.57-5.28-.28-2.52-6.05-3.13-9.92,14.71-7.92,25.19-11.82,41.76-3.13Z"/>
          <path class="baby-cls-37" d="m429.58,406.09c.58.05,5.88,4.82,2.09,6.26-6.6,2.52-6.78-6.69-2.09-6.26Z"/>
        </g>
      </g>
    </g>
  </g>
</svg>