<?xml version="1.0" encoding="UTF-8"?>
<svg id="Layer_1" data-name="Layer 1" xmlns="http://www.w3.org/2000/svg" viewBox="0 0 1236.94 1236.94">
  <defs>
    <style>
      .brother-cls-1 {
        fill: #f9f5f1;
      }

      .brother-cls-1, .brother-cls-2, .brother-cls-3, .brother-cls-4, .brother-cls-5, .brother-cls-6, .brother-cls-7, .brother-cls-8, .brother-cls-9, .brother-cls-10, .brother-cls-11, .brother-cls-12, .brother-cls-13, .brother-cls-14, .brother-cls-15, .brother-cls-16, .brother-cls-17, .brother-cls-18, .brother-cls-19 {
        stroke-width: 0px;
      }

      .brother-cls-2 {
        fill: #7a0f1c;
      }

      .brother-cls-3 {
        fill: #351512;
      }

      .brother-cls-4 {
        fill: #87371b;
      }

      .brother-cls-5 {
        fill: #882f2b;
      }

      .brother-cls-6 {
        fill: #302215;
      }

      .brother-cls-7 {
        fill: #1d110c;
      }

      .brother-cls-8 {
        fill: #402112;
      }

      .brother-cls-9 {
        fill: #0c0b0b;
      }

      .brother-cls-10 {
        fill: #22201e;
      }

      .brother-cls-11 {
        fill: #c7764b;
      }

      .brother-cls-12 {
        fill: #d0b29c;
      }

      .brother-cls-13 {
        fill: #cb454e;
      }

      .brother-cls-14 {
        fill: #e28d5f;
      }

      .brother-cls-15 {
        fill: #ad2938;
      }

      .brother-cls-16 {
        fill: #b6653d;
      }

      .brother-cls-17 {
        fill: #a44d3b;
      }

      .brother-cls-18 {
        fill: #f4e8eb;
      }

      .brother-cls-19 {
        fill: #fbe6c8;
      }
    </style>
  </defs>
  <path class="brother-cls-1" d="m513.38,715.11c.02.4-.03.81,0,1.21.88,11.52,5.04,22.48,12.08,8.46-.07.57,2.31,2.33,1.21,11.48-4.92,40.99-9.57,81.99-12.08,123.21l21.74,10.27c.1,1.42,1.33,1.88,2.42,2.42-4.29,41.73-4.17,83.78-2.42,125.63.04.88-2.37,10.95-1.21,17.52,1.08,2.45,5.05,1.9,7.25,1.81-.56,2.73.82,3.53,1.21,4.83-18.67-2.83-41.2,20.94-53.15,33.82-7.46,8.04-10.36,4.74,17.52,7.25,7.43,5.61,16.72,21.29,18.12,21.74,8.78,2.87,34.17-24.3,44.09-28.99,3.63-1.71,5-2.68,8.46,0-1.95,1.4-34.95,29.39-36.24,31.41-15.27,16.86-82.16-7.48-89.99-4.83-2.76.94-3.01,10.23,1.21,12.08.47.21,4.86.15,10.27,1.21-19.51,3.13-13.1-4.33-16.91-18.72,6.04-4.07,41.55-28.16,42.28-31.41,3.07-13.74-22.66-28.16,43.49-27.78-2.79-12.57-3.23-25.24-3.62-38.05-1.14-36.78-2.04-73.74,0-110.53l-19.33-6.04c7.23-15.26-.93-16.86-2.42-21.74-3.41-11.21-7.01-26.81-10.87-37.45-1.77-4.88-9.34-15.99-9.66-16.91-1.93-5.46.28-9.08-1.21-12.68,10.93,8.5,18.09-8.39,18.12-10.27.02-1.32-11.07-23.2-7.85-24.76,10.01,20.9,14.26,28.1,12.68-1.81-.86-16.25-16.35-50.57,6.64-65.83l3.02,1.81c-1.76,11.26-5.38,31.52-4.83,41.67Z"/>
  <path class="brother-cls-1" d="m696.99,966.36c-1.22,14.16-1.12,28.36-4.83,42.28-1.92-44.98,1.31-90.34-3.62-135.29,11.68-4.35,24.58-9.39,31.41-20.54.02.33,3.25,4.34,3.62,5.44-6.12,14.42-19.18,12.08-21.74,19.33.19,29.71-2.29,59.22-4.83,88.78Z"/>
  <path class="brother-cls-10" d="m542.37,1087.15c-1.99,3.12-3.95,4.23-1.21,8.46-.17.03-2.25,2.38-2.42,2.42-7.52,1.43-14.08,6.38-22.35,4.83-17.1-4.46-35.34-3.89-52.55-7.25-5.4-1.05-9.79-1-10.27-1.21-4.22-1.85-3.97-11.14-1.21-12.08,7.83-2.65,74.72,21.69,89.99,4.83Z"/>
  <path class="brother-cls-1" d="m507.34,315.27c-8.94-4.05-12.36-8.02-20.54,0,1.39-4.82,6.94-6.48,7.25-7.85.67-3.02-18.09-49.53-20.54-56.77-.05-.14,1.69-.96,1.21-2.42-.35-1.06-10.64-11.06-4.83-19.93q10.87,12.38,21.74,24.76c2.44,20.97,7.87,42.61,15.7,62.21Z"/>
  <path class="brother-cls-1" d="m475.33,651.08c15.78,6.34,4.35,20.43-3.02,45.3-1.02,3.43-6.38,32.83-9.06,30.8q6.04-38.05,12.08-76.1Z"/>
  <path class="brother-cls-1" d="m736.85,312.86l-15.7-3.62c5.12-11.51,10.76-36.89,12.08-50.13.84-1.73,7.82-4.05,9.66-6.64-.56,11.99-10.36,43.22-9.66,52.55.36,4.81,3.39,4.04,3.62,7.85Z"/>
  <path class="brother-cls-1" d="m751.34,227.09c-2.1-25.27-30-17.76-41.07-18.12l1.21-18.12c4.93,11.34,19.39,7.18,27.18,12.08,1.9,1.19,20.8,23.51,12.68,24.16Z"/>
  <g>
    <path class="brother-cls-1" d="m651.08,152.2c-4.44-2.11-.08-12.64-36.24-14.5-26.8-1.38-53.45,4.52-72.48,24.76-22.65,24.1-24.26,69.66-56.17,17.52l-5.44,47.11c-.84-.27-1.24,1.59-3.62,1.21-25.15-17.06-17.51-32.48,2.42-49.53,6.83-5.85,50.86-32.48,59.79-36.24,29.36-12.36,67.31-16.99,97.84-7.25,7.56,2.41,32.61,13.93,13.89,16.91Z"/>
    <path class="brother-cls-9" d="m477.14,228.3c2.38.38,2.79-1.48,3.62-1.21.18.06-.51,1.77,3.62,1.21,15.58,14.59,33.55,25.8,53.75,32.61,21.34-5.57,57.6-.22,82.74,0-18.23,1.91-69.96-1.08-75.5,1.21-6.45,2.66-16.69,22.69-18.72,29.59-11.64,39.5,3.76,71.13-13.29,36.84-.14-.29-.73-2.38-2.42-6.04-1.14-2.49-2.64-4.78-3.62-7.25-7.84-19.6-13.27-41.24-15.7-62.21q-10.87-12.38-21.74-24.76c.43-.66-3.38-2.83,1.81-2.42,1.51,1.51,3.37,2.09,5.44,2.42Z"/>
    <path class="brother-cls-9" d="m710.27,208.97c11.08.36,38.97-7.16,41.07,18.12.77,9.32-3.07,17.77-8.46,25.37-1.84,2.59-8.82,4.91-9.66,6.64-1.32,13.24-6.96,38.62-12.08,50.13-.2.45-5.07,2.5-6.04,7.85,5.03,1.44,12.56,18.9,4.23,16.31-4.1-1.28-1.33-15.69-12.68-2.42-1.09,1.28-8.16,10.25-8.46,10.87,8.53-57.52-23.54-85.83-25.37-95.43-.05-.27,1.86.44,0-5.44,30.29-22.7,38.4-75.84,33.82-32.61,1.8,3.59,3.44.6,3.62.6Z"/>
    <g>
      <path class="brother-cls-3" d="m651.08,152.2c6.65,3.16,26.25-1.04,42.28,7.25,18.24,9.43,16.64,28.01,18.12,31.41l-1.21,18.12c-.18,0-1.82,2.99-3.62-.6,4.58-43.22-3.53,9.91-33.82,32.61,1.86,5.87-.05,5.17,0,5.44-8.05,1.73-14.96,6.02-22.95,8.46-9.99,3.04-18.58,4.95-28.99,6.04-25.15-.22-61.4-5.57-82.74,0-20.2-6.82-38.17-18.02-53.75-32.61-1.94-6.69,2.64-.11,3.02,0,25.15,7.49,82,2.04,112.34,3.62,1.66-25.95.3-51.89,9.06-76.7,2.01-5.68,8.42-10.93,6.04-17.52,36.16,1.86,31.8,12.38,36.24,14.5Z"/>
      <path class="brother-cls-3" d="m614.85,137.71c2.38,6.58-4.03,11.83-6.04,17.52-8.76,24.82-7.4,50.76-9.06,76.7-30.34-1.58-87.19,3.86-112.34-3.62-.38-.11-4.96-6.69-3.02,0-4.13.57-3.44-1.15-3.62-1.21l5.44-47.11c31.9,52.14,33.52,6.59,56.17-17.52,19.02-20.24,45.68-26.14,72.48-24.76Z"/>
    </g>
  </g>
  <g>
    <path class="brother-cls-9" d="m703.03,722.35l3.62,1.81c3.04,34.46,8.86,68.81,12.08,103.28.79,8.42.65,16.97,1.21,25.37-6.83,11.15-19.73,16.18-31.41,20.54-2.99,1.12-48.16,15.06-50.73,15.7-2.89.72-10.73,3.08-12.68,2.42l-3.02-3.02c-18.93-115.64-12.84-109.09-21.14,3.02-.74.49-12.94-3.01-15.1-3.62-1.57-.45-3.42-1.62-6.04-2.42-12.89-3.89-25.76-8.11-38.65-12.08-.13-.04-1.78-.9-2.42-1.21-1.08-.53-2.31-1-2.42-2.42l.6-2.42c27.96,18.23,19.08-3.05,24.76-45.3,2.66-19.76,5.85-39.61,9.66-59.19.36-18.29-24.75-61.83-13.29-57.38,9.6,14.19,22.77,26.78,33.82,39.86,26.53-24.12,51.6-51.47,64.02-85.76,7.7,17.56.69,46.12,22.35,56.77,3.66,1.8,19.14,5.13,24.76,6.04Z"/>
    <path class="brother-cls-10" d="m558.07,705.44c-11.46-4.45,13.64,39.09,13.29,57.38-3.81,19.58-7.01,39.43-9.66,59.19-5.68,42.25,3.2,63.53-24.76,45.3l-.6,2.42-21.74-10.27c2.51-41.22,7.16-82.22,12.08-123.21,1.1-9.14-1.28-10.9-1.21-11.48.02-.16-1.64.64-1.21-3.02q7.25-26.27,14.5-52.55c2.04,7.45,14.57,29.22,19.33,36.24Z"/>
  </g>
  <g>
    <path class="brother-cls-15" d="m490.43,1055.75c11.95-12.88,34.48-36.66,53.15-33.82,2.57,8.59,8.41,9.24,12.08,16.31-.09,2.86-35.4,32.01-40.47,30.8-9.43-16.58-32.61-4.56-24.76-13.29Z"/>
    <path class="brother-cls-2" d="m561.7,1030.38c4.4.6,9.68-1.67,10.87,2.42,2.57,9.5,9.21,13.31-2.42,22.95-9.92,4.69-35.31,31.86-44.09,28.99-1.4-.46-10.69-16.13-18.12-21.74-27.88-2.5-24.97.79-17.52-7.25-7.85,8.73,15.34-3.29,24.76,13.29,5.07,1.21,40.38-27.94,40.47-30.8-3.67-7.07-9.51-7.72-12.08-16.31,4.47.68,7.49,7.02,18.12,8.46Z"/>
  </g>
  <g>
    <path class="brother-cls-1" d="m637.8,889.05c2.71,14.77,3.22,29.81,4.83,44.69,1.15,10.57,7.93,76.67,9.66,80.33,2.81,5.91,13.87,1.85,8.46,13.89-5.03,11.19-27.19,6.06-4.83,43.49,20.4,34.14,16.77,16.28,28.39,7.25,16.56-12.88,47.63-1.89,44.09-12.68-.57-1.75-15.23-8.98-27.78-24.16-5.02-6.07-20.13-22.27-8.46-27.18,6.22-2.61,31.44,19.72,32.61,22.35,3.94,8.84-4.07,9.52,4.83,15.1-25.29-4.66,2.04,10.25,21.74,29.59,2.59,4.8-.2,6.02,0,6.64-19.83,4.61-76.23,22.31-90.6,7.25-6.81-7.14-13.89-38.8-25.37-42.28q3.62-5.74,7.25-11.48l7.25-36.24c-5.7-35.41-18.23-69.03-19.33-106.3-9.67-7.05-30.06-19.21-27.78-7.25-11.76.45-7.7,22.76-14.5,36.24-2.53,5.01-5.01,2.12-6.04,3.62-.93,1.36,1.96,7.57-2.42,6.64,2.02-16.91,4.07-33.82,6.04-50.73,2.16.62,14.36,4.12,15.1,3.62,8.3-112.11,2.21-118.66,21.14-3.02l3.02,3.02c1.95.67,9.79-1.7,12.68-2.42Z"/>
    <path class="brother-cls-10" d="m754.97,1100.44c-19,3.79-80.52,15.43-94.22,0-.17-.19-1.03-4.61-1.21-4.83h1.21c14.36,15.06,70.77-2.63,90.6-7.25.21.66,5.12.44,3.62,12.08Z"/>
    <path class="brother-cls-15" d="m655.92,1071.45c-22.36-37.42-.2-32.3,4.83-43.49.96.09,2.15-.15,2.42,0,4.48,2.61,17.13,4.42,20.54-2.42,14.34,14.49,25.41,30.89,42.28,42.88-1.33,1.63-19.7.01-23.55.6-34.2,5.23-20.56,37.44-46.51,2.42Z"/>
    <path class="brother-cls-18" d="m683.7,1025.55c-3.41,6.84-16.05,5.02-20.54,2.42-1.89-10.18,11.38.92,15.7-10.87.6.93,8.31,1.48,4.83,8.46Z"/>
  </g>
  <g>
    <path class="brother-cls-5" d="m531.5,543.58c-.94,28.18,1.5,56.37-1.21,84.56-1.98,20.55-4.8,22.45-7.25,35.03-8.73,11.7-25.67,7.15-38.65,3.62.95-4.24,2.47-7.45,2.42-7.85-.15-1.03-14.36-13.48-14.5-14.5-.08-.62,4.37-9.52,4.83-11.48,73.48,26.28,34.48,4.87,7.25-32.61.33-1.67,1.19-1.12,1.21-1.21,7.3-4.34,17.04,15.85,21.14,16.91.35.09,6.55-2.67,6.64-3.02.41-1.58-3.59-12.6-3.62-13.29-.88-18.28.34-56.78,7.25-71.27.54-24.15,14.44-44.03,22.35-64.63-5.62,26.06-6.95,52.8-7.85,79.72Z"/>
    <path class="brother-cls-13" d="m531.5,543.58c.9-26.93,2.23-53.66,7.85-79.72-7.91,20.59-21.8,40.47-22.35,64.63-6.91,14.49-8.13,52.98-7.25,71.27.03.69,4.03,11.71,3.62,13.29-.09.35-6.29,3.11-6.64,3.02-4.1-1.06-13.84-21.25-21.14-16.91.46-2.38,1.06-2.87,1.21-3.62,5.86-30.63,15.97-151.94,56.17-149.79,2.13-9.17,9.06-13.28,16.31-18.12,4.19,3.53,2.61,9.31-2.42,13.89.01,10.4-8.85,19.58-7.25,28.99-11.2,10.97-7.19,13.23-8.46,18.12-.08.29-3.15,1.92-3.62,4.83-3.02,18.43,2.44,70.63-6.04,50.13Z"/>
    <path class="brother-cls-13" d="m477.14,632.96c2.61-10.98,5.08-21.53,7.25-32.61,27.23,37.49,66.24,58.89-7.25,32.61Z"/>
    <path class="brother-cls-2" d="m736.85,312.86c1.53,24.49-6.9,49.2-35.63,47.11-1.38,2.08-1.54,6.69-1.81,7.25-14.99,30.19-25.96,38.36-55.57,54.96.21,2.43,39.89,5.35,47.71,10.27,7.63,4.8-2.17,8.25,15.1,19.33,6.47,4.15,15.83,5.88,20.54,12.68,7.32,10.59,31.81,103.65,36.24,123.21.43,1.92,6.01,12.56,6.04,13.29.08,1.71-5.76,16.86-4.83,18.12.91,1.23,11.93-3.4,10.87,24.16-.6,15.61-9.43,7.43-12.08,13.29-2.41,5.33,15.11,78.92,7.25,105.09-4.03,13.41-20.95,28.14-35.03,29.59-12.57,1.3-7.76-3.62,0-26.57.04-.13.19.71,1.21-2.42,5.91,14.74-7.82,23.22-7.25,24.76,9.01,6.63,27.54-7.13,32.61-14.5,11.98-17.4,4.78-29.61,8.46-48.32-3.37-14.85-6.39-33.19-6.04-47.11-.16-1.1-3.6-.42-3.62-.6-.15-.99,3.43-10.04-.6-19.33-3.73,1.6-18.3,7.37-19.33,8.46-1.7,1.79.67,2.88.6,3.02-.49,1.08-2.39.47-2.42.6q-8.46,3.32-16.91,6.64c-3.95-13.33-11.73-23.07-3.62-36.24-15.78-23.1-10.24-19.23-9.66-9.66.7,11.59-.52,23.41,0,35.03-14.65.07,4.38,43.54-6.04,57.38-5.63-.91-21.11-4.24-24.76-6.04-21.66-10.65-14.65-39.21-22.35-56.77-.14-42.51-5.51-84.9-4.83-127.44.34-21.36,7.14-83.33,6.04-87.58-.32-1.24.68-2.75-1.81-2.42-2.79,2.43-7.79,4.5-10.27,6.04l-2.42-27.18c22.51-13.81,47.48-29.99,55.57-56.77.06-.18-1.25-3.44-1.21-3.62.23-.99,2.24-.23,2.42-1.21.1-.55-7.56-7.32,4.23-1.81,4.15-3.34,12.5-27.38,3.02-26.57,11.36-13.28,8.58,1.14,12.68,2.42,8.33,2.59.8-14.87-4.23-16.31.97-5.35,5.84-7.4,6.04-7.85l15.7,3.62Z"/>
    <path class="brother-cls-15" d="m567.74,423.99c-4.16,9.36,4.35,36.44-3.02,20.54-2.01,13.77-3.98,11.95-4.23,12.68-5.41,15.7-14.35,42.43-16.91,57.98-5.08,30.85.71,22.07,1.21,24.16.22.91-4.01,8.09,1.21,10.27-5.45,38.24-7.63,76.85-9.66,115.36l2.42,4.23q-7.25,26.27-14.5,52.55c-.43,3.66,1.23,2.86,1.21,3.02-7.04,14.02-11.2,3.06-12.08-8.46,4.02-.91.9,4.92,4.83,11.48,12.55-10.66,20.3-92.81,16.91-99.05-.64-1.18-3.5-.41-4.83-.6,2.71-28.18.27-56.37,1.21-84.56,8.47,20.5,3.02-31.7,6.04-50.13.48-2.92,3.55-4.54,3.62-4.83,1.27-4.89-2.75-7.15,8.46-18.12-1.6-9.41,7.26-18.59,7.25-28.99,5.03-4.58,6.61-10.36,2.42-13.89,3.74-2.5,8.07-3.38,8.46-3.62Z"/>
    <path class="brother-cls-13" d="m513.38,716.31c-.03-.4.02-.81,0-1.21,4.12.87,2.02-16.76,3.62-28.39,1.19-8.63,5.23-19.42,6.04-23.55,2.45-12.58,5.27-14.48,7.25-35.03,1.33.19,4.19-.58,4.83.6,3.39,6.24-4.36,88.39-16.91,99.05-3.94-6.55-.81-12.38-4.83-11.48Z"/>
    <path class="brother-cls-2" d="m594.31,426.41c-.3,3.29-2.59,4.59-2.42,8.46-3.95-.98-19.78,19.81-22.95,25.37-13.08,22.97-19.17,62.86-22.95,89.39-5.22-2.18-.99-9.35-1.21-10.27-.5-2.09-6.29,6.69-1.21-24.16,2.56-15.55,11.51-42.28,16.91-57.98.25-.73,2.22,1.08,4.23-12.68,7.37,15.91-1.14-11.18,3.02-20.54.25-.16,3.02-3.85,3.62-4.83,5.17,1.88,18.99,6.85,22.95,7.25Z"/>
  </g>
  <g>
    <path class="brother-cls-12" d="m655.92,659.54c-12.42,34.3-37.49,61.64-64.02,85.76,6.57-77.74,28.52-152.88,44.69-228.91.86-4.03,3.06-14.27,1.21-17.52.41-.79.81-1.61,1.21-2.42,8.04-16.4,11.39-35.04,18.12-51.94,1.1,4.25-5.7,66.21-6.04,87.58-.68,42.54,4.69,84.93,4.83,127.44Z"/>
    <path class="brother-cls-19" d="m637.8,498.88c1.85,3.24-.35,13.49-1.21,17.52-16.18,76.03-38.13,151.16-44.69,228.91-11.05-13.08-24.22-25.68-33.82-39.86-4.75-7.02-17.29-28.78-19.33-36.24l-2.42-4.23c2.04-38.51,4.21-77.12,9.66-115.36,3.78-26.53,9.87-66.42,22.95-89.39,4.36,38.8,6.15,53.31,29.59,85.76,3,1.18,7.03-4.35,11.48-9.06,6.47-6.85,23.45-29.71,27.78-38.05Z"/>
  </g>
  <g>
    <g>
      <path class="brother-cls-5" d="m688.53,873.35c4.93,44.95,1.7,90.31,3.62,135.29.12,2.81,2.27,3.14,0,6.04-11.68,4.91,3.43,21.11,8.46,27.18,12.55,15.18,27.21,22.41,27.78,24.16,3.54,10.79-27.53-.19-44.09,12.68-11.62,9.03-7.99,26.89-28.39-7.25,25.95,35.02,12.3,2.82,46.51-2.42,3.86-.59,22.23,1.03,23.55-.6-16.87-11.99-27.93-28.4-42.28-42.88,3.48-6.98-4.23-7.53-4.83-8.46-5.34-8.22-.53-17.23-2.42-25.97-.72-3.32-26.8-51.65-33.82-57.38-1.61-14.88-2.12-29.93-4.83-44.69,2.58-.64,47.74-14.59,50.73-15.7Z"/>
      <path class="brother-cls-14" d="m678.87,1017.09c-4.32,11.79-17.6.69-15.7,10.87-.27-.15-1.45.09-2.42,0,5.42-12.05-5.65-7.99-8.46-13.89-1.74-3.65-8.52-69.76-9.66-80.33,7.02,5.72,33.11,54.06,33.82,57.38,1.89,8.74-2.93,17.75,2.42,25.97Z"/>
    </g>
    <g>
      <path class="brother-cls-14" d="m541.16,873.35c-.56,5.58,8.05,14.92,8.46,17.52,1.18,7.57-5.2,87.85-6.04,105.7l-7.25,1.21c-1.75-41.85-1.87-83.9,2.42-125.63.63.31,2.29,1.17,2.42,1.21Z"/>
      <path class="brother-cls-5" d="m585.85,887.84c-1.97,16.92-4.02,33.82-6.04,50.73-1.94,16.26-7.5,70.04-8.46,74.29-.53,2.33-3.33,3.9-4.83,5.44l-20.54.6q7.85,5.74,15.7,11.48c-10.63-1.44-13.65-7.78-18.12-8.46-.39-1.31-1.77-2.11-1.21-4.83.09,0-.36-1.2,1.21-1.21,32.82-.26,27.18-.43,22.95-32.01q6.64-49.22,13.29-98.45c2.62.79,4.47,1.97,6.04,2.42Z"/>
      <path class="brother-cls-11" d="m543.58,1015.88c-1.57.01-1.12,1.2-1.21,1.21-2.19.09-6.17.64-7.25-1.81-1.16-6.57,1.24-16.64,1.21-17.52l7.25-1.21c-.3,6.42.22,12.9,0,19.33Z"/>
      <path class="brother-cls-5" d="m579.81,885.43q-6.64,49.22-13.29,98.45c4.23,31.58,9.86,31.75-22.95,32.01.22-6.42-.3-12.91,0-19.33.84-17.84,7.22-98.13,6.04-105.7-.41-2.6-9.02-11.93-8.46-17.52,12.89,3.97,25.77,8.19,38.65,12.08Z"/>
    </g>
  </g>
  <path class="brother-cls-18" d="m566.53,1018.3l4.83,3.02c.14,2.57,1.06,10.92,1.21,11.48-1.19-4.08-6.47-1.82-10.87-2.42q-7.85-5.74-15.7-11.48l20.54-.6Z"/>
  <g>
    <g>
      <path class="brother-cls-17" d="m492.84,686.11c.28.51,5.38,5.3,7.25,9.06-5.02,13.48-3.86,28.19-4.83,42.28-.03.43-3.54,1.17-3.62,2.42-1.13,17.27,12.36,32.13,1.81,34.43-.46.1-8.64-2.22-9.06-2.42-16.3-7.66-18.25-29.33-16.91-44.69,8.82-.41,16.42-38.8,25.37-41.07Z"/>
      <path class="brother-cls-5" d="m523.04,663.16c-.8,4.14-4.85,14.92-6.04,23.55-1.6,11.63.5,29.26-3.62,28.39-.55-10.16,3.07-30.41,4.83-41.67l-3.02-1.81c-22.99,15.27-7.5,49.58-6.64,65.83,1.57,29.91-2.67,22.71-12.68,1.81-3.22,1.57,7.87,23.44,7.85,24.76-.03,1.88-7.19,18.77-18.12,10.27-.4-.96-1.08-1.46-1.21-2.42.42.2,8.6,2.52,9.06,2.42,10.54-2.3-2.94-17.15-1.81-34.43.08-1.25,3.59-1.99,3.62-2.42.98-14.09-.19-28.8,4.83-42.28-1.87-3.76-6.96-8.55-7.25-9.06-3.02-5.39-5.84-10.81-9.66-15.7,1.01-3.85,1.17-3.44,1.21-3.62,12.98,3.53,29.93,8.08,38.65-3.62Z"/>
      <path class="brother-cls-14" d="m492.84,686.11c-8.94,2.27-16.54,40.66-25.37,41.07,1.72-19.67,10.76-37.93,15.7-56.77,3.83,4.89,6.65,10.31,9.66,15.7Z"/>
    </g>
    <g>
      <path class="brother-cls-5" d="m761.01,676.45c.03.18,3.46-.5,3.62.6-.35,13.92,2.67,32.26,6.04,47.11-3.68,18.71,3.53,30.92-8.46,48.32-5.08,7.37-23.61,21.13-32.61,14.5-.57-1.54,13.16-10.02,7.25-24.76,2.69-8.25,2.99-16.67,3.62-17.52,6.58-8.82,11.82,21.09,15.7-9.66,1.29-10.22.23-45.96-3.62-54.96,3.08-2.32,4.31-3.75,8.46-3.62Z"/>
      <path class="brother-cls-14" d="m736.85,762.22c-1.02,3.12-1.16,2.29-1.21,2.42-24.31,27.54,3.4-36.56,7.25-52.55,1.88-7.81.97-16.79,1.21-24.76,3.01-1.76,5.75-5.21,8.46-7.25,3.86,9,4.91,44.74,3.62,54.96-3.88,30.75-9.13.84-15.7,9.66-.63.85-.93,9.27-3.62,17.52Z"/>
      <path class="brother-cls-5" d="m761.01,676.45c-4.14-.13-5.38,1.31-8.46,3.62-2.7,2.04-5.44,5.49-8.46,7.25-6.16-2-6.14-12.4-4.83-18.12.03-.13,1.92.48,2.42-.6.06-.14-2.3-1.23-.6-3.02,1.02-1.08,15.6-6.86,19.33-8.46,4.03,9.29.45,18.33.6,19.33Z"/>
    </g>
    <g>
      <path class="brother-cls-11" d="m507.34,315.27c.99,2.47,2.48,4.76,3.62,7.25-12.91-12.7-23.97,3.35-13.29,14.5-1.23,7.32,10.16,19.22,0,18.12-10.96-9.1-14.65-26.75-10.87-39.86,8.17-8.02,11.59-4.05,20.54,0Z"/>
      <path class="brother-cls-16" d="m517,357.55c-3.79,1.88-7.82,2.97-12.08,2.42-2.71-.35-5.34-3.25-7.25-4.83,10.16,1.1-1.23-10.8,0-18.12.11-.64,5.03-10.25,7.25-10.87.16,12.88.49,23.75,12.08,31.41Z"/>
      <path class="brother-cls-17" d="m672.83,246.42c1.82,9.59,33.9,37.91,25.37,95.43-5.5,11.58-2.1,38.81-41.67,61.61l-13.89-4.83c2.44-2.93,10.42-17.99,10.87-21.14,2.78-19.42-5.15-9.4-6.04-9.06-8.05,3.05-21.23,6.39-21.74,9.66-3.99-1.04-11.73.38-14.5,3.62-.06-1.34.39-2.51-1.21-2.42,2.78-2.27,2.18-5.82,2.42-6.04,6.41-6.13,15.05-6.43,13.29-16.91,2.24-3.54,4.03-11.3,3.62-15.7,12.69-5.08,27.3-10.86,40.47-4.83,2.08.95,11.03,14.73,6.64-.6-2.35-8.22-12-14.67-20.54-13.89,6-25.64-17.34-13.59-18.72-14.5-2.17-1.42.65-5.68.6-6.04,20.66-4.22,29.19,5.07,30.8,4.83,2.55-.37,3.64-8.7,9.06-6.04,3.28-2.84-6.37-28.41-27.78-26.57v-18.12c7.99-2.43,14.9-6.72,22.95-8.46Z"/>
      <path class="brother-cls-4" d="m510.96,322.52c1.69,3.66,2.27,5.75,2.42,6.04-2.46-2.05-5.22-3.33-8.46-2.42-2.22.63-7.14,10.23-7.25,10.87-10.68-11.14.37-27.19,13.29-14.5Z"/>
      <path class="brother-cls-5" d="m645.04,448.15c-.17.11.64,2.15-1.81,3.62-3.94,2.37-21.44,8.89-21.14,13.29-14.99-.72-29.54-15.4-30.2-30.2-.17-3.86,2.11-5.16,2.42-8.46,12.12,1.22,31.27-1.89,32.61-15.7,2.16-.31,13.79-9.79,15.7-12.08l13.89,4.83c39.58-22.79,36.18-50.02,41.67-61.61.3-.62,7.36-9.59,8.46-10.87,9.48-.81,1.13,23.23-3.02,26.57-11.78-5.51-4.13,1.26-4.23,1.81-.18.98-2.19.22-2.42,1.21-.04.19,1.26,3.44,1.21,3.62-8.09,26.78-33.05,42.96-55.57,56.77l2.42,27.18Z"/>
      <path class="brother-cls-17" d="m657.12,444.52c-6.73,16.9-10.08,35.54-18.12,51.94l-16.91-31.41c-.3-4.4,17.2-10.92,21.14-13.29,2.45-1.48,1.64-3.52,1.81-3.62,2.47-1.54,7.48-3.61,10.27-6.04,2.49-.33,1.49,1.18,1.81,2.42Z"/>
      <path class="brother-cls-7" d="m649.88,273c21.41-1.83,31.06,23.73,27.78,26.57-9.74-9.1-32.85-13.67-43.49-4.83-1.27-.99-3.01,1.88-3.62.6-1.36-2.85,5.7-21.18,19.33-22.35Z"/>
      <path class="brother-cls-14" d="m642.63,398.62c-1.91,2.29-13.54,11.77-15.7,12.08-.88.13-17.77-1.65-14.5-6.04,18.98-.86,29.29-20.17,35.03-36.24.89-.34,8.82-10.36,6.04,9.06-.45,3.15-8.43,18.21-10.87,21.14Z"/>
      <path class="brother-cls-3" d="m629.34,340.64c2.71-5.92,20.24-18.75,26.57-19.33,8.54-.78,18.18,5.67,20.54,13.89,4.39,15.34-4.57,1.55-6.64.6-13.16-6.02-27.78-.25-40.47,4.83Z"/>
      <path class="brother-cls-16" d="m677.66,299.57c-5.42-2.66-6.51,5.67-9.06,6.04-1.62.23-10.15-9.05-30.8-4.83-.23-1.67.31-3.65,0-4.23-.31-.58-2.71-1.1-3.62-1.81,10.64-8.84,33.74-4.27,43.49,4.83Z"/>
      <g>
        <path class="brother-cls-14" d="m649.88,273c-13.63,1.17-20.69,19.5-19.33,22.35.61,1.28,2.36-1.6,3.62-.6.91.71,3.31,1.23,3.62,1.81.31.58-.23,2.56,0,4.23.05.36-2.77,4.62-.6,6.04,1.38.9,24.72-11.14,18.72,14.5-6.33.58-23.86,13.41-26.57,19.33.4,4.4-1.39,12.17-3.62,15.7-11.18,17.66-36.84,1.09-37.45,3.02,8.21,9.06,11.56,12.17,24.16,13.89-.24.22.36,3.77-2.42,6.04-.21.17-4.56,2.41-4.83,2.42-.12,0,.39-2.36-.6-2.42-3.7-.2-10.53-.15-13.89-1.21-16.08-5.07-46.12-31.08-19.33.6,10.28,12.16,24.23,26.73,41.07,25.97-3.28,4.39,13.62,6.17,14.5,6.04-1.34,13.82-20.49,16.92-32.61,15.7-3.96-.4-17.79-5.36-22.95-7.25-28.96-10.56-49.31-30.51-54.36-61.61-11.59-7.66-11.92-18.53-12.08-31.41,3.24-.91,5.99.37,8.46,2.42,17.05,34.29,1.65,2.65,13.29-36.84,2.03-6.9,12.28-26.93,18.72-29.59,5.54-2.29,57.27.7,75.5-1.21,10.41-1.09,19-3,28.99-6.04v18.12Z"/>
        <path class="brother-cls-9" d="m559.88,270.58c6.85-.93,16.07,2.92,18.72,9.06,7.85,18.2-16.56-2.42-39.26,16.31-2.53-9.93,12.19-24.24,20.54-25.37Z"/>
        <path class="brother-cls-6" d="m557.47,324.94c6.66-1.11,20.56,2.43,23.55,9.06,8.64,19.11-18.53-14.96-35.63,7.85-2.78-7.44,5.06-15.74,12.08-16.91Z"/>
        <path class="brother-cls-4" d="m612.43,373.26c-12.6-1.72-15.95-4.83-24.16-13.89.61-1.93,26.27,14.64,37.45-3.02,1.76,10.48-6.87,10.78-13.29,16.91Z"/>
      </g>
      <path class="brother-cls-14" d="m591.89,434.86c.65,14.8,15.21,29.48,30.2,30.2l16.91,31.41c-.4.81-.8,1.62-1.21,2.42-4.33,8.34-21.31,31.2-27.78,38.05-4.45,4.71-8.47,10.24-11.48,9.06-23.45-32.45-25.24-46.97-29.59-85.76,3.17-5.56,19-26.35,22.95-25.37Z"/>
      <g>
        <path class="brother-cls-3" d="m590.69,378.09l3.62,14.5c-8.65-6.97,1.66-16.55-26.57-22.35,10.44,12.26,13.84,19.47,28.99,25.97,14.23,6.1,20.42,8.23,28.99-18.12.51-3.27,13.69-6.61,21.74-9.66-5.74,16.07-16.05,35.38-35.03,36.24-16.84.76-30.79-13.81-41.07-25.97-26.8-31.68,3.25-5.68,19.33-.6Z"/>
        <path class="brother-cls-1" d="m605.18,381.71q1.51,8.46,3.02,16.91c3.24-5.28,3.3-11,3.02-16.91,2.77-3.24,10.5-4.67,14.5-3.62-8.57,26.35-14.76,24.22-28.99,18.12.61-2.44-1.06-2.53-2.42-3.62l-3.62-14.5c3.36,1.06,10.19,1.01,13.89,1.21.99.05.48,2.42.6,2.42Z"/>
        <path class="brother-cls-8" d="m610.01,379.3c1.59-.09,1.14,1.08,1.21,2.42.28,5.91.22,11.63-3.02,16.91q-1.51-8.46-3.02-16.91c.27,0,4.62-2.24,4.83-2.42Z"/>
        <path class="brother-cls-7" d="m594.31,392.58c1.35,1.09,3.03,1.18,2.42,3.62-15.15-6.5-18.55-13.72-28.99-25.97,28.24,5.8,17.93,15.37,26.57,22.35Z"/>
      </g>
    </g>
  </g>
</svg>