<?xml version="1.0" encoding="UTF-8"?>
<svg xmlns="http://www.w3.org/2000/svg" xmlns:xlink="http://www.w3.org/1999/xlink" width="200px" height="200px" viewBox="0 0 200 222" version="1.1">
<g id="surface1">
<path style=" stroke:none;fill-rule:nonzero;fill:rgb(100%,100%,100%);fill-opacity:1;" d="M 83.277344 50.867188 C 89.078125 49.144531 95.15625 48.386719 101.195312 48.574219 C 112.238281 49.335938 123.074219 53.449219 131.8125 60.386719 C 138.324219 65.546875 143.476562 72.382812 146.996094 79.964844 C 150.820312 88.101562 152.238281 97.25 152 106.214844 C 151.203125 118.449219 146.046875 130.28125 137.882812 139.269531 C 136.8125 140.476562 135.605469 141.550781 134.484375 142.714844 C 131.027344 146.234375 127.917969 150.101562 125.128906 154.183594 C 123.683594 156.324219 122.808594 158.78125 121.796875 161.152344 C 121.320312 162.292969 120.710938 163.375 120.269531 164.53125 C 119.023438 167.734375 118.53125 171.164062 117.734375 174.5 C 117.054688 177.351562 117.121094 180.304688 116.824219 183.207031 C 106.078125 182.800781 95.308594 183.160156 84.585938 182.308594 C 84.441406 178.042969 83.488281 173.796875 81.699219 169.933594 C 80.03125 166.257812 78.511719 162.507812 76.816406 158.84375 C 74.496094 154.375 71.828125 150.070312 68.613281 146.214844 C 66.289062 143.242188 63.289062 140.933594 60.714844 138.207031 C 48.59375 125.242188 43.601562 105.859375 47.816406 88.492188 C 49.992188 79.527344 54.566406 71.191406 60.878906 64.5625 C 67 58.121094 74.828125 53.386719 83.277344 50.875 Z M 83.277344 50.867188 "/>
<path style=" stroke:none;fill-rule:nonzero;fill:rgb(100%,94.901961%,0%);fill-opacity:1;" d="M 86.351562 -0.617188 C 87.28125 -0.144531 87.546875 0.988281 87.65625 1.949219 C 88.578125 12.699219 89.867188 23.414062 91.265625 34.109375 C 90.816406 34.082031 90.363281 34.042969 89.914062 34.003906 C 89.351562 26.929688 88.363281 19.898438 87.6875 12.835938 C 87.417969 10.609375 87.355469 8.359375 87.007812 6.140625 C 86.742188 3.898438 86.210938 1.660156 86.355469 -0.617188 Z M 86.351562 -0.617188 "/>
<path style=" stroke:none;fill-rule:nonzero;fill:rgb(100%,94.901961%,0%);fill-opacity:1;" d="M 124.03125 3.71875 C 124.171875 3.0625 124.890625 3.636719 125.285156 3.671875 C 122.207031 14.296875 119.246094 24.964844 116.609375 35.71875 C 116.316406 35.71875 116.03125 35.726562 115.742188 35.726562 C 115.738281 33.089844 116.78125 30.601562 117.40625 28.074219 C 119.445312 19.910156 122.011719 11.890625 124.03125 3.71875 Z M 124.03125 3.71875 "/>
<path style=" stroke:none;fill-rule:nonzero;fill:rgb(100%,94.901961%,0%);fill-opacity:1;" d="M 55.960938 7.226562 C 56.761719 7.402344 57.382812 8 57.660156 8.773438 C 62.21875 19.054688 66.964844 29.253906 71.503906 39.546875 C 71.082031 39.605469 70.65625 39.648438 70.234375 39.6875 C 66.367188 30.746094 62.253906 21.921875 58.34375 13 C 57.511719 11.09375 56.371094 9.292969 55.957031 7.226562 Z M 55.960938 7.226562 "/>
<path style=" stroke:none;fill-rule:nonzero;fill:rgb(100%,94.901961%,0%);fill-opacity:1;" d="M 96.945312 7.933594 C 97.285156 7.929688 97.625 7.929688 97.964844 7.925781 C 97.898438 16.316406 98.324219 24.703125 98.269531 33.089844 C 97.902344 32.992188 97.539062 32.898438 97.171875 32.800781 C 96.648438 24.519531 96.976562 16.222656 96.945312 7.933594 Z M 96.945312 7.933594 "/>
<path style=" stroke:none;fill-rule:nonzero;fill:rgb(100%,94.901961%,0%);fill-opacity:1;" d="M 106.417969 11.699219 C 106.769531 11.636719 107.121094 11.578125 107.476562 11.515625 C 107.5 15.574219 106.664062 19.566406 106.453125 23.613281 C 106.15625 23.609375 105.867188 23.613281 105.578125 23.613281 C 105.484375 19.628906 106.273438 15.679688 106.421875 11.699219 Z M 106.417969 11.699219 "/>
<path style=" stroke:none;fill-rule:nonzero;fill:rgb(100%,94.901961%,0%);fill-opacity:1;" d="M 113.914062 15.546875 C 114.230469 15.601562 114.546875 15.667969 114.863281 15.726562 C 114.613281 18.808594 113.78125 21.789062 113.226562 24.820312 C 112.585938 28.027344 112.15625 31.28125 111.382812 34.460938 C 111.117188 34.398438 110.855469 34.339844 110.59375 34.28125 C 110.597656 33.121094 110.835938 31.984375 111 30.839844 C 111.824219 25.714844 112.980469 20.652344 113.910156 15.546875 Z M 113.914062 15.546875 "/>
<path style=" stroke:none;fill-rule:nonzero;fill:rgb(100%,94.901961%,0%);fill-opacity:1;" d="M 50.242188 17.945312 C 51.363281 18.558594 51.972656 19.753906 52.625 20.808594 C 55.695312 26.289062 58.917969 31.671875 62.105469 37.082031 C 63.046875 38.671875 64.453125 40.199219 64.355469 42.1875 C 63.582031 41.671875 62.925781 40.984375 62.472656 40.160156 C 58.738281 33.390625 54.679688 26.820312 50.929688 20.058594 C 50.558594 19.414062 50.324219 18.691406 50.238281 17.945312 Z M 50.242188 17.945312 "/>
<path style=" stroke:none;fill-rule:nonzero;fill:rgb(100%,94.901961%,0%);fill-opacity:1;" d="M 105.148438 25.675781 C 105.46875 25.660156 105.789062 25.644531 106.109375 25.628906 C 106.082031 28.191406 105.832031 30.757812 105.332031 33.273438 C 105.023438 33.265625 104.710938 33.265625 104.40625 33.261719 C 104.417969 30.714844 104.921875 28.207031 105.144531 25.675781 Z M 105.148438 25.675781 "/>
<path style=" stroke:none;fill-rule:nonzero;fill:rgb(100%,94.901961%,0%);fill-opacity:1;" d="M 123.507812 30.339844 C 124 29.046875 124.386719 27.492188 125.679688 26.785156 C 125.722656 28.90625 124.582031 30.75 123.855469 32.664062 C 123.074219 34.425781 122.71875 36.382812 121.660156 38.011719 C 121.136719 35.273438 122.625 32.8125 123.507812 30.339844 Z M 123.507812 30.339844 "/>
<path style=" stroke:none;fill-rule:nonzero;fill:rgb(100%,94.901961%,0%);fill-opacity:1;" d="M 173.980469 40.269531 C 175.414062 39.058594 176.875 37.800781 178.632812 37.117188 C 178.515625 38.183594 177.730469 38.960938 176.914062 39.542969 C 169.746094 44.894531 162.46875 50.101562 155.582031 55.828125 C 154.175781 56.933594 152.898438 58.199219 151.457031 59.253906 C 151.410156 58.667969 151.039062 57.925781 151.675781 57.539062 C 156.492188 53.253906 161.816406 49.613281 166.832031 45.578125 C 169.175781 43.757812 171.695312 42.164062 173.984375 40.269531 Z M 173.980469 40.269531 "/>
<path style=" stroke:none;fill-rule:nonzero;fill:rgb(100%,94.901961%,0%);fill-opacity:1;" d="M 155.507812 46.148438 C 155.941406 45.820312 156.421875 45.558594 156.925781 45.34375 C 156.382812 46.949219 155.132812 48.128906 153.871094 49.164062 C 151.800781 50.871094 149.96875 52.835938 148.007812 54.667969 C 147.6875 54.511719 147.367188 54.363281 147.046875 54.214844 C 149.8125 51.464844 152.355469 48.445312 155.507812 46.148438 Z M 155.507812 46.148438 "/>
<path style=" stroke:none;fill-rule:nonzero;fill:rgb(100%,94.901961%,0%);fill-opacity:1;" d="M 17.519531 57.597656 C 19.507812 58.207031 21.363281 59.179688 23.183594 60.171875 C 28.730469 63.1875 34.265625 66.222656 39.839844 69.183594 C 39.773438 69.519531 39.699219 69.851562 39.632812 70.1875 C 38.285156 69.855469 37.113281 69.085938 35.90625 68.4375 C 31.714844 66.09375 27.480469 63.828125 23.25 61.558594 C 21.21875 60.449219 19.003906 59.464844 17.519531 57.597656 Z M 17.519531 57.597656 "/>
<path style=" stroke:none;fill-rule:nonzero;fill:rgb(100%,94.901961%,0%);fill-opacity:1;" d="M 163.253906 72.285156 C 164.960938 71.402344 166.738281 70.648438 168.566406 70.0625 C 168.613281 70.410156 168.65625 70.757812 168.707031 71.105469 C 165.878906 72.097656 163.359375 74.132812 160.292969 74.320312 C 161.128906 73.445312 162.207031 72.863281 163.25 72.289062 Z M 163.253906 72.285156 "/>
<path style=" stroke:none;fill-rule:nonzero;fill:rgb(100%,94.901961%,0%);fill-opacity:1;" d="M 26.652344 72.988281 C 29.3125 72.988281 31.652344 74.441406 34.09375 75.296875 C 34.0625 75.6875 34.023438 76.078125 33.988281 76.472656 C 31.902344 75.722656 29.78125 75.023438 27.847656 73.925781 C 27.402344 73.691406 27.003906 73.363281 26.652344 72.992188 Z M 26.652344 72.988281 "/>
<path style=" stroke:none;fill-rule:nonzero;fill:rgb(100%,94.901961%,0%);fill-opacity:1;" d="M 174.140625 76.460938 C 177.589844 75.289062 181.027344 74.058594 184.527344 73.046875 C 184.625 73.445312 184.722656 73.84375 184.824219 74.242188 C 180.085938 75.519531 175.550781 77.570312 170.71875 78.480469 C 171.445312 77.246094 172.902344 76.914062 174.144531 76.464844 Z M 174.140625 76.460938 "/>
<path style=" stroke:none;fill-rule:nonzero;fill:rgb(100%,94.901961%,0%);fill-opacity:1;" d="M -0.617188 79.144531 C 0.125 78.847656 0.898438 79.183594 1.636719 79.328125 C 8.117188 80.792969 14.664062 82.007812 21.066406 83.835938 C 21.039062 84.058594 20.984375 84.503906 20.957031 84.730469 C 13.667969 83.625 6.570312 81.53125 -0.617188 79.917969 L -0.617188 79.140625 Z M -0.617188 79.144531 "/>
<path style=" stroke:none;fill-rule:nonzero;fill:rgb(100%,94.901961%,0%);fill-opacity:1;" d="M 176.964844 84.472656 C 184.453125 82.949219 191.898438 81.226562 199.382812 79.699219 L 199.382812 80.9375 C 195.949219 81.695312 192.46875 82.265625 189.027344 83.023438 C 182.304688 84.464844 175.585938 85.941406 168.855469 87.375 C 167.640625 87.65625 166.398438 87.890625 165.144531 87.78125 C 165.722656 87.15625 166.460938 86.707031 167.285156 86.507812 C 170.476562 85.683594 173.742188 85.195312 176.964844 84.472656 Z M 176.964844 84.472656 "/>
<path style=" stroke:none;fill-rule:nonzero;fill:rgb(100%,94.901961%,0%);fill-opacity:1;" d="M 25.632812 84.710938 C 28.21875 85.3125 30.851562 85.726562 33.363281 86.601562 C 33.28125 86.898438 33.199219 87.203125 33.117188 87.503906 C 30.363281 87.351562 27.714844 86.507812 25.054688 85.839844 C 25.246094 85.464844 25.441406 85.085938 25.632812 84.710938 Z M 25.632812 84.710938 "/>
<path style=" stroke:none;fill-rule:nonzero;fill:rgb(100%,94.901961%,0%);fill-opacity:1;" d="M 12.160156 91.453125 C 16.070312 91.289062 19.921875 92.109375 23.808594 92.433594 C 26.25 92.789062 28.746094 92.875 31.136719 93.542969 C 31.03125 93.851562 30.925781 94.160156 30.824219 94.46875 C 24.601562 93.847656 18.386719 93.089844 12.179688 92.335938 C 12.175781 92.117188 12.164062 91.671875 12.160156 91.449219 Z M 12.160156 91.453125 "/>
<path style=" stroke:none;fill-rule:nonzero;fill:rgb(100%,94.901961%,0%);fill-opacity:1;" d="M 180.902344 93.882812 C 181.898438 93.792969 182.898438 93.644531 183.90625 93.695312 C 183.890625 94.007812 183.871094 94.324219 183.855469 94.640625 C 178.042969 95.261719 172.21875 95.824219 166.398438 96.332031 C 166.070312 96.089844 166.214844 95.523438 166.347656 95.195312 C 171.1875 94.636719 176.046875 94.265625 180.90625 93.875 Z M 180.902344 93.882812 "/>
<path style=" stroke:none;fill-rule:nonzero;fill:rgb(100%,94.901961%,0%);fill-opacity:1;" d="M 185.328125 98.871094 C 188.753906 98.824219 192.175781 98.601562 195.597656 98.597656 C 195.597656 98.964844 195.59375 99.328125 195.589844 99.695312 C 187.144531 99.554688 178.699219 99.828125 170.261719 100.117188 C 168.996094 100.15625 167.726562 100.308594 166.460938 100.179688 C 166.488281 99.894531 166.511719 99.605469 166.539062 99.320312 C 172.804688 99.128906 179.066406 99.042969 185.332031 98.871094 Z M 185.328125 98.871094 "/>
<path style=" stroke:none;fill-rule:nonzero;fill:rgb(100%,94.901961%,0%);fill-opacity:1;" d="M 2.261719 102.183594 C 11.75 101.886719 21.25 101.734375 30.746094 101.675781 C 30.75 102.085938 30.746094 102.496094 30.746094 102.90625 C 22.632812 103.019531 14.523438 103.042969 6.410156 103.164062 C 5.058594 103.152344 3.703125 103.289062 2.355469 103.183594 C 2.324219 102.847656 2.292969 102.515625 2.261719 102.183594 Z M 2.261719 102.183594 "/>
<path style=" stroke:none;fill-rule:nonzero;fill:rgb(100%,94.901961%,0%);fill-opacity:1;" d="M 10.785156 110.144531 C 16.984375 109.359375 23.210938 108.851562 29.433594 108.367188 C 29.980469 108.324219 30.53125 108.320312 31.078125 108.347656 C 31.082031 108.710938 31.089844 109.082031 31.09375 109.449219 C 28.683594 109.496094 26.285156 109.757812 23.878906 109.9375 C 20.15625 110.285156 16.425781 110.570312 12.714844 111.035156 C 12.066406 111.121094 11.410156 111.171875 10.757812 111.15625 C 10.761719 110.808594 10.773438 110.472656 10.785156 110.136719 Z M 10.785156 110.144531 "/>
<path style=" stroke:none;fill-rule:nonzero;fill:rgb(100%,94.901961%,0%);fill-opacity:1;" d="M 166.320312 108.613281 C 168.570312 108.421875 170.828125 108.71875 173.054688 109.027344 C 173.042969 109.367188 173.03125 109.714844 173.023438 110.058594 C 170.761719 109.910156 168.140625 110.269531 166.320312 108.609375 Z M 166.320312 108.613281 "/>
<path style=" stroke:none;fill-rule:nonzero;fill:rgb(100%,94.901961%,0%);fill-opacity:1;" d="M 176.816406 109.585938 C 180.457031 109.8125 184.078125 110.316406 187.714844 110.640625 C 187.726562 110.964844 187.742188 111.292969 187.757812 111.617188 C 184.132812 111.390625 180.546875 110.730469 176.929688 110.441406 C 176.886719 110.152344 176.847656 109.867188 176.8125 109.585938 Z M 176.816406 109.585938 "/>
<path style=" stroke:none;fill-rule:nonzero;fill:rgb(100%,94.901961%,0%);fill-opacity:1;" d="M 14.640625 119.917969 C 18.695312 119.140625 22.691406 118.023438 26.777344 117.402344 C 27.285156 117.234375 27.253906 117.964844 27.402344 118.257812 C 23.300781 119.609375 19.007812 120.195312 14.808594 121.125 C 9.800781 122.085938 4.878906 123.503906 -0.152344 124.335938 C -0.136719 123.964844 -0.113281 123.585938 -0.09375 123.214844 C 4.820312 122.117188 9.699219 120.882812 14.640625 119.914062 Z M 14.640625 119.917969 "/>
<path style=" stroke:none;fill-rule:nonzero;fill:rgb(100%,94.901961%,0%);fill-opacity:1;" d="M 31.523438 124.511719 C 32.71875 124.082031 33.941406 123.585938 35.230469 123.628906 C 35.140625 123.988281 35.378906 124.617188 34.914062 124.769531 C 32.546875 125.609375 30.144531 126.359375 27.730469 127.042969 C 27.679688 126.714844 27.632812 126.394531 27.582031 126.070312 C 28.882812 125.503906 30.210938 125.035156 31.523438 124.503906 Z M 31.523438 124.511719 "/>
<path style=" stroke:none;fill-rule:nonzero;fill:rgb(100%,94.901961%,0%);fill-opacity:1;" d="M 16.9375 129.445312 C 18.332031 129.003906 19.691406 128.429688 21.117188 128.097656 C 21.210938 128.484375 21.304688 128.875 21.398438 129.261719 C 17.558594 130.546875 13.707031 131.800781 9.820312 132.933594 C 9.746094 132.652344 9.675781 132.371094 9.601562 132.089844 C 12.011719 131.109375 14.492188 130.324219 16.9375 129.441406 Z M 16.9375 129.445312 "/>
<path style=" stroke:none;fill-rule:nonzero;fill:rgb(100%,94.901961%,0%);fill-opacity:1;" d="M 158.167969 134.570312 C 159.003906 134.660156 159.851562 134.8125 160.613281 135.207031 C 165.125 137.640625 169.558594 140.214844 174.144531 142.507812 C 174.082031 142.835938 174.015625 143.160156 173.957031 143.484375 C 172.066406 143.054688 170.414062 141.984375 168.761719 141 C 166.265625 139.53125 163.617188 138.363281 161.09375 136.945312 C 160.046875 136.253906 158.859375 135.652344 158.164062 134.566406 Z M 158.167969 134.570312 "/>
<path style=" stroke:none;fill-rule:nonzero;fill:rgb(100%,94.901961%,0%);fill-opacity:1;" d="M 152.757812 142.523438 C 153.523438 142.574219 154.273438 142.816406 154.902344 143.265625 C 160.320312 147.269531 165.511719 151.585938 170.964844 155.539062 C 171.585938 156 172.144531 156.582031 172.398438 157.335938 C 171.242188 157.296875 170.285156 156.582031 169.414062 155.882812 C 164.785156 152.171875 160.042969 148.609375 155.277344 145.089844 C 154.300781 144.390625 153.207031 143.714844 152.757812 142.53125 Z M 152.757812 142.523438 "/>
<path style=" stroke:none;fill-rule:nonzero;fill:rgb(100%,94.901961%,0%);fill-opacity:1;" d="M 42.363281 144.6875 C 43.175781 144.027344 44.054688 143.449219 44.960938 142.925781 C 44.878906 143.582031 44.960938 144.355469 44.480469 144.875 C 36.90625 150.617188 29.480469 156.578125 22.019531 162.476562 C 20.773438 163.414062 19.628906 164.667969 18.019531 164.914062 C 18.441406 164.050781 19.027344 163.273438 19.769531 162.675781 C 27.300781 156.6875 34.878906 150.75 42.363281 144.691406 Z M 42.363281 144.6875 "/>
<path style=" stroke:none;fill-rule:nonzero;fill:rgb(100%,94.901961%,0%);fill-opacity:1;" d="M 178.03125 145.335938 C 180.839844 146.035156 183.238281 147.78125 185.808594 149.0625 C 187.007812 149.726562 188.496094 150.246094 189.074219 151.628906 C 187.726562 151.570312 186.546875 150.863281 185.402344 150.214844 C 183.902344 149.324219 182.375 148.476562 180.8125 147.699219 C 179.730469 147.144531 178.597656 146.488281 178.035156 145.335938 Z M 178.03125 145.335938 "/>
<path style=" stroke:none;fill-rule:nonzero;fill:rgb(100%,94.901961%,0%);fill-opacity:1;" d="M 44.789062 150.867188 C 45.949219 149.679688 47.238281 148.492188 48.859375 148.042969 C 48.664062 148.828125 48.273438 149.558594 47.640625 150.0625 C 45.71875 151.746094 43.90625 153.5625 41.84375 155.074219 C 41.726562 154.800781 41.605469 154.527344 41.488281 154.253906 C 42.621094 153.15625 43.707031 152.015625 44.789062 150.867188 Z M 44.789062 150.867188 "/>
<path style=" stroke:none;fill-rule:nonzero;fill:rgb(100%,94.901961%,0%);fill-opacity:1;" d="M 146.488281 150.042969 C 147.464844 149.515625 148.457031 150.136719 149.058594 150.929688 C 155.457031 157.824219 162.175781 164.398438 168.648438 171.222656 C 169.765625 172.335938 171.222656 173.351562 171.542969 175.023438 C 170.195312 174.390625 169.214844 173.226562 168.191406 172.179688 C 162.183594 165.957031 156.089844 159.820312 150.003906 153.675781 C 148.832031 152.457031 147.601562 151.304688 146.484375 150.03125 Z M 146.488281 150.042969 "/>
<path style=" stroke:none;fill-rule:nonzero;fill:rgb(100%,94.901961%,0%);fill-opacity:1;" d="M 50.015625 160.394531 C 52.039062 158.015625 53.597656 155.054688 56.390625 153.496094 C 56.332031 154.28125 56.121094 155.078125 55.542969 155.636719 C 50.164062 161.796875 45.082031 168.210938 39.957031 174.589844 C 39.117188 175.585938 38.339844 176.734375 37.113281 177.261719 C 37.167969 175.878906 38.058594 174.753906 38.886719 173.734375 C 42.679688 169.351562 46.335938 164.859375 50.015625 160.390625 Z M 50.015625 160.394531 "/>
<path style=" stroke:none;fill-rule:nonzero;fill:rgb(100%,94.901961%,0%);fill-opacity:1;" d="M 35.121094 160.273438 C 36.398438 159.011719 37.597656 157.601562 39.207031 156.769531 C 39.382812 157.171875 39.828125 157.769531 39.277344 158.085938 C 37.574219 159.488281 36.125 161.304688 34.070312 162.1875 C 34.273438 161.484375 34.585938 160.792969 35.121094 160.273438 Z M 35.121094 160.273438 "/>
<path style=" stroke:none;fill-rule:nonzero;fill:rgb(100%,94.901961%,0%);fill-opacity:1;" d="M 59.917969 160.085938 C 60.257812 159.375 61.050781 159.175781 61.730469 158.957031 C 61.523438 159.816406 61.164062 160.636719 60.65625 161.351562 C 57.453125 165.898438 54.597656 170.679688 51.675781 175.414062 C 49.855469 178.398438 47.90625 181.300781 46.132812 184.316406 C 45.421875 185.449219 44.828125 186.65625 44.023438 187.726562 C 43.675781 187.492188 43.324219 187.261719 42.980469 187.03125 C 48.414062 177.917969 54.382812 169.140625 59.917969 160.089844 Z M 59.917969 160.085938 "/>
<path style=" stroke:none;fill-rule:nonzero;fill:rgb(100%,94.901961%,0%);fill-opacity:1;" d="M 65.757812 165.285156 C 66.410156 163.996094 66.867188 162.441406 68.121094 161.617188 C 68.171875 162.34375 68.332031 163.144531 67.929688 163.808594 C 65.125 169.085938 62.34375 174.386719 59.917969 179.863281 C 59.546875 179.84375 59.175781 179.828125 58.804688 179.8125 C 60.722656 174.78125 63.480469 170.144531 65.765625 165.285156 Z M 65.757812 165.285156 "/>
<path style=" stroke:none;fill-rule:nonzero;fill:rgb(100%,94.901961%,0%);fill-opacity:1;" d="M 127.035156 163.613281 C 127.535156 163.617188 128.285156 163.332031 128.449219 164.03125 C 132.136719 172.402344 136.179688 180.601562 139.78125 189.011719 C 140.617188 190.980469 141.714844 192.886719 141.984375 195.046875 C 141.265625 194.6875 140.703125 194.074219 140.40625 193.324219 C 136.660156 184.6875 132.765625 176.121094 128.820312 167.585938 C 128.234375 166.261719 127.523438 164.984375 127.035156 163.613281 Z M 127.035156 163.613281 "/>
<path style=" stroke:none;fill-rule:nonzero;fill:rgb(100%,94.901961%,0%);fill-opacity:1;" d="M 73.214844 167.722656 C 73.515625 166.644531 74.003906 165.542969 75 164.964844 C 75.1875 166.683594 74.429688 168.269531 73.851562 169.828125 C 73.339844 171.148438 72.914062 172.605469 71.816406 173.554688 C 71.753906 171.519531 72.648438 169.632812 73.214844 167.71875 Z M 73.214844 167.722656 "/>
<path style=" stroke:none;fill-rule:nonzero;fill:rgb(100%,94.901961%,0%);fill-opacity:1;" d="M 69.671875 177.117188 C 70.089844 177.132812 70.507812 177.144531 70.921875 177.164062 C 69.945312 180.777344 68.40625 184.199219 67.148438 187.714844 C 66.550781 189.203125 66.203125 190.890625 65.042969 192.066406 C 64.941406 190.605469 65.363281 189.183594 65.8125 187.816406 C 66.539062 185.710938 67.421875 183.667969 68.144531 181.554688 C 68.65625 180.074219 69.097656 178.570312 69.667969 177.117188 Z M 69.671875 177.117188 "/>
<path style=" stroke:none;fill-rule:nonzero;fill:rgb(100%,94.901961%,0%);fill-opacity:1;" d="M 76.710938 177.371094 C 77.113281 177.421875 77.523438 177.476562 77.929688 177.53125 C 77.300781 180.765625 76.042969 183.835938 75.398438 187.066406 C 75.054688 187.027344 74.714844 186.976562 74.375 186.933594 C 75.089844 183.734375 75.707031 180.503906 76.707031 177.375 Z M 76.710938 177.371094 "/>
<path style=" stroke:none;fill-rule:nonzero;fill:rgb(100%,94.901961%,0.392157%);fill-opacity:1;" d="M 77.902344 6.773438 C 78.515625 7.101562 78.980469 7.679688 79.144531 8.371094 C 80.625 13.625 81.421875 19.03125 82.59375 24.359375 C 83.226562 27.761719 84.203125 31.089844 84.683594 34.523438 C 84.375 34.5625 84.070312 34.605469 83.761719 34.640625 C 81.75 26.527344 80.542969 18.242188 78.640625 10.101562 C 78.394531 8.996094 78.046875 7.90625 77.898438 6.773438 Z M 77.902344 6.773438 "/>
<path style=" stroke:none;fill-rule:nonzero;fill:rgb(100%,94.901961%,0.392157%);fill-opacity:1;" d="M 149.128906 18.417969 C 150.070312 16.960938 150.789062 15.214844 152.289062 14.253906 C 152.316406 15.089844 152.257812 15.976562 151.792969 16.695312 C 146.101562 25.058594 140.839844 33.714844 135.535156 42.339844 C 135.164062 42.902344 134.886719 43.546875 134.40625 44.023438 C 134.089844 43.996094 133.78125 43.953125 133.476562 43.902344 C 134.082031 42.128906 135.175781 40.597656 136.15625 39.027344 C 140.484375 32.152344 144.78125 25.261719 149.136719 18.417969 Z M 149.128906 18.417969 "/>
<path style=" stroke:none;fill-rule:nonzero;fill:rgb(100%,94.901961%,0.392157%);fill-opacity:1;" d="M 69.277344 16.765625 C 69.800781 17.027344 70.039062 17.589844 70.296875 18.089844 C 71.175781 19.878906 71.640625 21.835938 72.328125 23.703125 C 72.972656 25.839844 74.1875 27.878906 74.09375 30.183594 C 72.40625 29.023438 72.207031 26.792969 71.558594 24.996094 C 70.761719 22.265625 69.40625 19.65625 69.273438 16.765625 Z M 69.277344 16.765625 "/>
<path style=" stroke:none;fill-rule:nonzero;fill:rgb(100%,94.901961%,0.392157%);fill-opacity:1;" d="M 138.542969 18.746094 C 138.867188 18.011719 139.535156 17.542969 140.25 17.25 C 139.839844 19.429688 138.625 21.316406 137.59375 23.226562 C 136.722656 24.773438 136.058594 26.433594 135.257812 28.019531 C 133.1875 32.226562 130.984375 36.367188 128.96875 40.601562 C 128.84375 41.167969 128.261719 40.96875 127.867188 40.902344 C 128.796875 37.640625 130.601562 34.722656 132.132812 31.730469 C 134.394531 27.464844 136.367188 23.054688 138.542969 18.746094 Z M 138.542969 18.746094 "/>
<path style=" stroke:none;fill-rule:nonzero;fill:rgb(100%,94.901961%,0.392157%);fill-opacity:1;" d="M 26.738281 27.6875 C 28.699219 28.378906 30.03125 30.0625 31.464844 31.488281 C 37.425781 37.683594 43.300781 43.957031 49.375 50.035156 C 50.203125 50.871094 51.09375 51.644531 51.851562 52.554688 C 51.535156 52.800781 51.210938 53.050781 50.886719 53.289062 C 45.230469 47.574219 39.601562 41.828125 34.160156 35.902344 C 32.953125 34.582031 31.785156 33.226562 30.492188 31.984375 C 29.15625 30.640625 27.703125 29.355469 26.738281 27.6875 Z M 26.738281 27.6875 "/>
<path style=" stroke:none;fill-rule:nonzero;fill:rgb(100%,94.901961%,0.392157%);fill-opacity:1;" d="M 43.933594 30.761719 C 45.214844 31.304688 46.035156 32.503906 46.917969 33.535156 C 50.46875 37.976562 53.980469 42.453125 57.5 46.925781 C 57.914062 47.414062 57.933594 48.070312 57.875 48.683594 C 56.8125 48.339844 56.105469 47.417969 55.5 46.519531 C 52.238281 41.824219 48.285156 37.660156 45.128906 32.886719 C 44.683594 32.207031 44.234375 31.523438 43.933594 30.761719 Z M 43.933594 30.761719 "/>
<path style=" stroke:none;fill-rule:nonzero;fill:rgb(100%,94.901961%,0.392157%);fill-opacity:1;" d="M 74.296875 32.117188 C 74.652344 32.199219 75.222656 31.980469 75.390625 32.429688 C 75.945312 33.730469 76.445312 35.070312 76.75 36.460938 C 76.402344 36.539062 76.054688 36.613281 75.707031 36.699219 C 75.097656 35.226562 74.503906 33.710938 74.296875 32.117188 Z M 74.296875 32.117188 "/>
<path style=" stroke:none;fill-rule:nonzero;fill:rgb(100%,94.901961%,0.392157%);fill-opacity:1;" d="M 147.933594 39.171875 C 148.964844 37.925781 149.847656 36.386719 151.4375 35.804688 C 151.191406 36.953125 150.425781 37.863281 149.726562 38.757812 C 147.097656 42.023438 144.332031 45.179688 141.902344 48.609375 C 141.542969 49.058594 140.96875 48.527344 140.570312 48.398438 C 142.75 45.105469 145.5 42.273438 147.929688 39.171875 Z M 147.933594 39.171875 "/>
<path style=" stroke:none;fill-rule:nonzero;fill:rgb(100%,94.901961%,0.392157%);fill-opacity:1;" d="M 163.648438 37.898438 C 164.40625 37.148438 165.378906 36.597656 166.445312 36.492188 C 165.382812 38.402344 163.546875 39.671875 162.03125 41.175781 C 160.867188 42.1875 159.855469 43.492188 158.371094 44.019531 C 158.679688 42.796875 159.652344 41.957031 160.496094 41.105469 C 161.582031 40.066406 162.582031 38.945312 163.648438 37.898438 Z M 163.648438 37.898438 "/>
<path style=" stroke:none;fill-rule:nonzero;fill:rgb(100%,94.901961%,0.392157%);fill-opacity:1;" d="M 32.988281 51.554688 C 34.339844 51.800781 35.417969 52.71875 36.503906 53.511719 C 39.035156 55.476562 41.570312 57.449219 44.191406 59.289062 C 44.117188 59.683594 44.042969 60.078125 43.964844 60.472656 C 40.433594 58.144531 36.996094 55.621094 33.917969 52.683594 C 33.554688 52.355469 33.242188 51.976562 32.988281 51.554688 Z M 32.988281 51.554688 "/>
<path style=" stroke:none;fill-rule:nonzero;fill:rgb(100%,94.901961%,0.392157%);fill-opacity:1;" d="M 158.914062 62.960938 C 163.761719 60.414062 168.355469 57.394531 173.1875 54.8125 C 173.226562 55.207031 173.273438 55.597656 173.308594 55.988281 C 167.417969 58.9375 162.023438 62.804688 156.1875 65.847656 C 156.722656 64.597656 157.730469 63.585938 158.914062 62.964844 Z M 158.914062 62.960938 "/>
<path style=" stroke:none;fill-rule:nonzero;fill:rgb(100%,94.901961%,0.392157%);fill-opacity:1;" d="M 185.789062 62.140625 C 187.746094 61.246094 189.648438 59.9375 191.875 59.96875 C 190.75 60.949219 189.453125 61.714844 188.082031 62.28125 C 183.402344 64.289062 178.8125 66.511719 174.160156 68.582031 C 173.515625 68.878906 172.832031 69.066406 172.132812 69.148438 C 173.34375 67.460938 175.453125 66.886719 177.238281 66.050781 C 180.074219 64.703125 182.972656 63.503906 185.789062 62.136719 Z M 185.789062 62.140625 "/>
<path style=" stroke:none;fill-rule:nonzero;fill:rgb(100%,94.901961%,0.392157%);fill-opacity:1;" d="M 4.410156 63.597656 C 6.363281 63.601562 8.121094 64.585938 9.890625 65.300781 C 14.214844 67.238281 18.675781 68.824219 22.957031 70.84375 C 22.917969 71.15625 22.875 71.472656 22.832031 71.785156 C 21.273438 71.359375 19.796875 70.667969 18.292969 70.070312 C 14.875 68.609375 11.480469 67.078125 8.007812 65.742188 C 6.722656 65.210938 5.289062 64.753906 4.410156 63.589844 Z M 4.410156 63.597656 "/>
<path style=" stroke:none;fill-rule:nonzero;fill:rgb(100%,94.901961%,0.392157%);fill-opacity:1;" d="M 163.136719 81.03125 C 164.199219 79.746094 165.96875 79.335938 167.546875 79.199219 C 167.570312 79.519531 167.601562 79.847656 167.632812 80.171875 C 166.167969 80.621094 164.675781 81.054688 163.140625 81.03125 Z M 163.136719 81.03125 "/>
<path style=" stroke:none;fill-rule:nonzero;fill:rgb(100%,94.901961%,0.392157%);fill-opacity:1;" d="M 164.714844 117.542969 C 167.925781 117.617188 171.042969 118.464844 174.144531 119.21875 C 182.351562 121.285156 190.648438 122.945312 198.859375 124.980469 C 198.851562 125.359375 198.84375 125.738281 198.835938 126.121094 C 198.089844 126.097656 197.371094 125.886719 196.664062 125.683594 C 187.667969 123.300781 178.53125 121.523438 169.503906 119.273438 C 167.863281 118.871094 165.980469 118.847656 164.714844 117.546875 Z M 164.714844 117.542969 "/>
<path style=" stroke:none;fill-rule:nonzero;fill:rgb(100%,94.901961%,0.392157%);fill-opacity:1;" d="M 161.296875 128.390625 C 165.585938 129.535156 169.503906 131.691406 173.59375 133.367188 C 175.601562 134.261719 177.933594 134.648438 179.550781 136.269531 C 176.929688 136.40625 174.640625 134.851562 172.261719 133.96875 C 168.554688 132.316406 164.753906 130.910156 161.042969 129.277344 C 161.125 128.984375 161.210938 128.691406 161.296875 128.394531 Z M 161.296875 128.390625 "/>
<path style=" stroke:none;fill-rule:nonzero;fill:rgb(100%,94.901961%,0.392157%);fill-opacity:1;" d="M 35.476562 131.03125 C 36.285156 130.703125 37.144531 130.515625 38.011719 130.527344 C 36.882812 131.5625 35.4375 132.136719 34.082031 132.800781 C 31.484375 133.90625 28.921875 135.09375 26.367188 136.300781 C 25.253906 136.824219 24.144531 137.367188 22.957031 137.695312 C 22.851562 137.378906 22.738281 137.0625 22.628906 136.746094 C 25.164062 135.453125 27.808594 134.394531 30.410156 133.25 C 32.105469 132.523438 33.765625 131.710938 35.476562 131.023438 Z M 35.476562 131.03125 "/>
<path style=" stroke:none;fill-rule:nonzero;fill:rgb(100%,94.901961%,0.392157%);fill-opacity:1;" d="M 36.15625 140.105469 C 38.230469 138.984375 40.097656 137.226562 42.519531 136.980469 C 40.46875 139.394531 37.414062 140.472656 34.90625 142.28125 C 31.011719 144.632812 27.3125 147.367188 23.175781 149.285156 C 23.082031 148.972656 22.984375 148.660156 22.886719 148.355469 C 27.289062 145.5625 31.785156 142.933594 36.15625 140.105469 Z M 36.15625 140.105469 "/>
<path style=" stroke:none;fill-rule:nonzero;fill:rgb(100%,94.901961%,0.392157%);fill-opacity:1;" d="M 141.457031 154.667969 C 142.941406 155.382812 144.019531 156.710938 145.039062 157.984375 C 145.914062 159.1875 146.832031 160.367188 147.605469 161.644531 C 147.265625 161.734375 146.929688 161.84375 146.582031 161.886719 C 146.285156 161.78125 146.167969 161.445312 145.976562 161.222656 C 144.507812 159.003906 142.457031 157.171875 141.457031 154.660156 Z M 141.457031 154.667969 "/>
<path style=" stroke:none;fill-rule:nonzero;fill:rgb(100%,94.901961%,0.392157%);fill-opacity:1;" d="M 133.671875 160.394531 C 134.410156 160.785156 134.953125 161.441406 135.363281 162.160156 C 138.863281 168.136719 142.386719 174.09375 145.925781 180.039062 C 146.324219 180.527344 145.585938 180.796875 145.316406 181.089844 C 141.707031 175.492188 138.632812 169.550781 135.132812 163.882812 C 134.472656 162.816406 133.828125 161.675781 133.675781 160.402344 Z M 133.671875 160.394531 "/>
<path style=" stroke:none;fill-rule:nonzero;fill:rgb(100%,94.901961%,0.392157%);fill-opacity:1;" d="M 149.425781 164.648438 C 152.328125 166.996094 154.429688 170.148438 156.800781 173.007812 C 156.664062 173.328125 156.535156 173.648438 156.402344 173.972656 C 154.699219 172.265625 153.234375 170.332031 151.796875 168.390625 C 150.957031 167.175781 150.050781 165.992188 149.421875 164.648438 Z M 149.425781 164.648438 "/>
<path style=" stroke:none;fill-rule:nonzero;fill:rgb(100%,94.901961%,0.392157%);fill-opacity:1;" d="M 123.007812 171 C 123.324219 170.894531 123.640625 170.785156 123.960938 170.679688 C 125.757812 173.539062 126.324219 176.9375 127.476562 180.070312 C 128.429688 182.539062 129.539062 184.988281 129.914062 187.636719 C 129.496094 187.542969 128.75 187.894531 128.640625 187.277344 C 127.183594 181.703125 125.132812 176.324219 123.003906 170.996094 Z M 123.007812 171 "/>
<path style=" stroke:none;fill-rule:nonzero;fill:rgb(0%,0%,0%);fill-opacity:1;" d="M 80.648438 50.421875 C 90.585938 46.929688 101.523438 46.394531 111.71875 49.035156 C 116.484375 50.265625 121.023438 52.269531 125.332031 54.65625 C 135.941406 60.550781 144.441406 70.246094 148.996094 81.644531 C 152.847656 91.175781 154.238281 101.820312 152.511719 112.003906 C 150.9375 120.839844 147.351562 129.355469 141.839844 136.390625 C 139.480469 139.769531 136.726562 142.847656 133.792969 145.714844 C 130.296875 149.097656 127.570312 153.207031 125.226562 157.472656 C 123.703125 160.347656 122.070312 163.195312 121.070312 166.316406 C 119.421875 171.246094 118.714844 176.464844 118.597656 181.660156 C 118.484375 183.644531 120.457031 184.90625 120.589844 186.832031 C 120.621094 188.640625 119.605469 190.234375 119.386719 191.996094 C 119.507812 193.261719 120.144531 194.425781 120.144531 195.714844 C 120.207031 197.019531 119.285156 198.039062 118.832031 199.183594 C 119.351562 200.460938 120.429688 201.589844 120.3125 203.070312 C 120.101562 205.886719 118.164062 208.058594 116.855469 210.410156 C 116.136719 211.566406 116.875 212.960938 116.574219 214.199219 C 115.316406 216.222656 112.910156 217.160156 111.675781 219.210938 C 111.257812 219.84375 111.246094 220.636719 110.941406 221.3125 C 107.734375 221.25 104.523438 221.28125 101.320312 221.382812 L 94.789062 221.382812 C 93.375 221.253906 91.953125 221.230469 90.542969 221.054688 C 89.765625 220.972656 89.253906 220.28125 88.757812 219.746094 C 87.472656 218.140625 86.652344 216.195312 85.222656 214.703125 C 83.621094 212.371094 81.210938 210.453125 80.621094 207.535156 C 80.109375 205.683594 81.035156 203.90625 81.386719 202.128906 C 81.371094 200.765625 80.371094 199.597656 80.433594 198.21875 C 80.691406 196.742188 81.542969 195.445312 81.746094 193.960938 C 81.6875 192.511719 80.570312 191.300781 80.683594 189.816406 C 80.816406 188.394531 81.699219 187.183594 81.9375 185.789062 C 82.023438 185.226562 81.953125 184.664062 81.960938 184.101562 C 81.941406 182.484375 83.160156 181.09375 82.929688 179.453125 C 81.84375 174.183594 79.976562 169.117188 77.882812 164.179688 C 76.882812 161.875 75.984375 159.5 74.59375 157.398438 C 72.632812 154.414062 70.617188 151.453125 68.300781 148.746094 C 65.015625 144.777344 61.480469 141.039062 58.105469 137.152344 C 46.539062 123.285156 42.097656 103.375 47.351562 85.898438 C 49.910156 76.863281 54.960938 68.605469 61.667969 62.152344 C 67.089844 56.933594 73.597656 52.882812 80.652344 50.414062 M 83.28125 50.859375 C 74.832031 53.371094 67.007812 58.105469 60.882812 64.554688 C 54.570312 71.183594 49.996094 79.519531 47.820312 88.484375 C 43.605469 105.851562 48.597656 125.234375 60.71875 138.199219 C 63.296875 140.925781 66.292969 143.234375 68.617188 146.207031 C 71.832031 150.066406 74.5 154.367188 76.820312 158.835938 C 78.515625 162.5 80.035156 166.25 81.703125 169.929688 C 83.492188 173.792969 84.445312 178.039062 84.589844 182.304688 C 95.3125 183.152344 106.082031 182.792969 116.828125 183.203125 C 117.121094 180.300781 117.058594 177.34375 117.738281 174.492188 C 118.535156 171.15625 119.027344 167.726562 120.273438 164.523438 C 120.714844 163.367188 121.320312 162.285156 121.800781 161.144531 C 122.8125 158.777344 123.6875 156.320312 125.132812 154.175781 C 127.921875 150.09375 131.035156 146.226562 134.488281 142.707031 C 135.605469 141.542969 136.816406 140.472656 137.886719 139.261719 C 146.054688 130.273438 151.203125 118.441406 152.003906 106.210938 C 152.242188 97.242188 150.828125 88.09375 147 79.957031 C 143.484375 72.375 138.328125 65.539062 131.816406 60.382812 C 123.078125 53.441406 112.242188 49.328125 101.199219 48.566406 C 95.15625 48.359375 89.082031 49.117188 83.277344 50.839844 M 83.261719 183.609375 C 83.183594 185.3125 82.96875 187.019531 82.4375 188.640625 C 82.242188 189.339844 81.902344 190.007812 81.824219 190.734375 C 82.289062 191.75 83.101562 192.605469 83.335938 193.730469 C 82.960938 195.359375 81.917969 196.765625 81.636719 198.429688 C 81.433594 199.972656 83.089844 201.171875 82.628906 202.738281 C 82.050781 204.328125 81.453125 206.035156 81.832031 207.753906 C 82.097656 209.09375 83.183594 209.988281 83.941406 211.039062 C 85.179688 212.550781 86.296875 214.273438 87.957031 215.332031 C 92.050781 215.789062 96.203125 215.542969 100.324219 215.550781 C 104.011719 215.570312 107.71875 215.359375 111.394531 215.796875 C 112.835938 215.945312 114.449219 215.460938 115.230469 214.140625 C 115.707031 212.90625 114.996094 211.519531 115.558594 210.304688 C 116.640625 208.015625 118.652344 206.167969 119.066406 203.574219 C 119.328125 201.878906 117.433594 200.832031 117.53125 199.167969 C 117.761719 197.769531 118.851562 196.648438 118.921875 195.210938 C 118.871094 193.984375 117.90625 193.136719 117.316406 192.164062 C 117.175781 191.890625 117.558594 191.707031 117.664062 191.492188 C 118.4375 190.585938 119.242188 189.554688 119.246094 188.292969 C 119.238281 187.472656 119.390625 186.539062 118.867188 185.84375 C 118.144531 184.859375 116.910156 184.429688 115.746094 184.386719 C 104.925781 183.960938 94.085938 184.078125 83.265625 183.609375 M 89.003906 217.167969 C 89.371094 218.011719 89.855469 218.796875 90.378906 219.554688 C 96.546875 220.207031 102.765625 219.875 108.953125 219.789062 C 110.238281 219.84375 110.726562 218.425781 111.136719 217.4375 C 103.773438 217.082031 96.382812 216.820312 89.007812 217.167969 Z M 89.003906 217.167969 "/>
<path style=" stroke:none;fill-rule:nonzero;fill:rgb(0%,0%,0%);fill-opacity:1;" d="M 102.96875 190.832031 C 106.21875 190.40625 109.414062 189.566406 112.691406 189.40625 C 112.691406 189.785156 112.683594 190.164062 112.675781 190.546875 C 109.421875 191.027344 106.171875 191.589844 102.890625 191.832031 C 102.910156 191.5 102.933594 191.164062 102.964844 190.832031 Z M 102.96875 190.832031 "/>
<path style=" stroke:none;fill-rule:nonzero;fill:rgb(0%,0%,0%);fill-opacity:1;" d="M 93.394531 192.246094 C 95.71875 191.761719 98.054688 191.292969 100.421875 191.070312 C 100.433594 191.515625 100.445312 191.964844 100.453125 192.414062 C 97.53125 192.503906 94.664062 193.351562 91.722656 193.171875 C 92.203125 192.738281 92.753906 192.359375 93.394531 192.246094 Z M 93.394531 192.246094 "/>
<path style=" stroke:none;fill-rule:nonzero;fill:rgb(0%,0%,0%);fill-opacity:1;" d="M 86.65625 193.128906 C 87.546875 192.992188 88.417969 192.710938 89.320312 192.636719 C 89.570312 192.980469 89.511719 193.4375 89.566406 193.84375 C 88.5625 193.984375 87.570312 194.195312 86.566406 194.320312 C 86.578125 193.914062 86.601562 193.519531 86.652344 193.125 Z M 86.65625 193.128906 "/>
<path style=" stroke:none;fill-rule:nonzero;fill:rgb(0%,0%,0%);fill-opacity:1;" d="M 110.363281 198.136719 C 111.300781 197.933594 112.257812 197.859375 113.210938 197.789062 C 113.1875 198.160156 113.164062 198.535156 113.140625 198.910156 C 112.148438 198.945312 111.160156 199.023438 110.171875 198.953125 C 110.179688 198.65625 110.246094 198.386719 110.363281 198.132812 Z M 110.363281 198.136719 "/>
<path style=" stroke:none;fill-rule:nonzero;fill:rgb(0%,0%,0%);fill-opacity:1;" d="M 90.125 201.457031 C 95.703125 200.292969 101.347656 199.453125 106.992188 198.667969 C 106.984375 199.039062 106.976562 199.417969 106.96875 199.796875 C 101.601562 200.273438 96.351562 201.628906 90.996094 202.222656 C 90.707031 202.238281 90.425781 202.21875 90.140625 202.164062 C 90.132812 201.996094 90.128906 201.644531 90.121094 201.464844 Z M 90.125 201.457031 "/>
<path style=" stroke:none;fill-rule:nonzero;fill:rgb(0%,0%,0%);fill-opacity:1;" d="M 101.882812 208.042969 C 104.921875 207.273438 108.082031 207.234375 111.144531 206.566406 C 111.136719 206.941406 111.128906 207.320312 111.117188 207.699219 C 106.980469 208.191406 102.917969 209.308594 98.742188 209.46875 C 99.667969 208.757812 100.765625 208.332031 101.882812 208.042969 Z M 101.882812 208.042969 "/>
<path style=" stroke:none;fill-rule:nonzero;fill:rgb(0%,0%,0%);fill-opacity:1;" d="M 89.574219 209.816406 C 91.574219 209.515625 93.574219 209.191406 95.578125 208.875 C 95.558594 209.292969 95.542969 209.707031 95.519531 210.128906 C 93.550781 210.34375 91.613281 210.8125 89.644531 211.015625 C 89.617188 210.609375 89.59375 210.207031 89.574219 209.8125 Z M 89.574219 209.816406 "/>
<path style=" stroke:none;fill-rule:nonzero;fill:rgb(94.117647%,70.196078%,30.196078%);fill-opacity:1;" d="M 83.257812 183.632812 C 94.082031 184.101562 104.921875 183.984375 115.746094 184.410156 C 116.910156 184.453125 118.148438 184.882812 118.867188 185.863281 C 119.394531 186.5625 119.238281 187.496094 119.246094 188.3125 C 119.242188 189.574219 118.4375 190.609375 117.664062 191.511719 C 117.5625 191.726562 117.175781 191.914062 117.316406 192.183594 C 117.90625 193.160156 118.871094 194.003906 118.921875 195.234375 C 118.851562 196.667969 117.761719 197.792969 117.53125 199.191406 C 117.4375 200.851562 119.328125 201.902344 119.066406 203.597656 C 118.65625 206.1875 116.640625 208.039062 115.558594 210.328125 C 115 211.539062 115.707031 212.929688 115.230469 214.160156 C 114.449219 215.480469 112.835938 215.96875 111.394531 215.820312 C 107.722656 215.378906 104.015625 215.589844 100.324219 215.570312 C 96.203125 215.5625 92.054688 215.8125 87.957031 215.355469 C 86.296875 214.292969 85.179688 212.574219 83.945312 211.0625 C 83.183594 210.011719 82.097656 209.113281 81.832031 207.777344 C 81.453125 206.058594 82.050781 204.351562 82.628906 202.757812 C 83.089844 201.195312 81.433594 199.996094 81.636719 198.453125 C 81.917969 196.789062 82.960938 195.382812 83.335938 193.75 C 83.101562 192.628906 82.289062 191.773438 81.824219 190.757812 C 81.902344 190.027344 82.242188 189.363281 82.4375 188.664062 C 82.960938 187.03125 83.183594 185.328125 83.257812 183.625 M 102.96875 190.828125 C 102.9375 191.160156 102.910156 191.492188 102.886719 191.824219 C 106.167969 191.582031 109.421875 191.023438 112.671875 190.542969 C 112.683594 190.160156 112.6875 189.78125 112.6875 189.402344 C 109.410156 189.554688 106.21875 190.398438 102.972656 190.824219 M 93.398438 192.238281 C 92.753906 192.355469 92.210938 192.734375 91.722656 193.164062 C 94.664062 193.34375 97.53125 192.496094 100.457031 192.40625 C 100.445312 191.957031 100.433594 191.507812 100.421875 191.0625 C 98.050781 191.285156 95.71875 191.753906 93.398438 192.242188 M 86.65625 193.121094 C 86.613281 193.515625 86.585938 193.914062 86.566406 194.316406 C 87.570312 194.191406 88.5625 193.980469 89.566406 193.839844 C 89.511719 193.433594 89.570312 192.972656 89.320312 192.632812 C 88.421875 192.710938 87.550781 192.988281 86.660156 193.125 M 110.371094 198.132812 C 110.253906 198.382812 110.1875 198.65625 110.179688 198.953125 C 111.167969 199.023438 112.15625 198.945312 113.148438 198.90625 C 113.171875 198.53125 113.195312 198.160156 113.21875 197.785156 C 112.261719 197.855469 111.304688 197.933594 110.371094 198.132812 M 90.132812 201.457031 C 90.136719 201.632812 90.144531 201.984375 90.148438 202.160156 C 90.429688 202.214844 90.714844 202.234375 91.003906 202.21875 C 96.359375 201.625 101.605469 200.269531 106.976562 199.792969 C 106.980469 199.414062 106.992188 199.039062 107 198.664062 C 101.351562 199.449219 95.707031 200.292969 90.128906 201.453125 M 101.886719 208.039062 C 100.773438 208.328125 99.675781 208.753906 98.746094 209.464844 C 102.921875 209.304688 106.988281 208.1875 111.125 207.691406 C 111.132812 207.3125 111.140625 206.933594 111.148438 206.5625 C 108.09375 207.222656 104.933594 207.265625 101.890625 208.035156 M 89.582031 209.808594 C 89.601562 210.203125 89.625 210.605469 89.648438 211.007812 C 91.617188 210.804688 93.554688 210.335938 95.527344 210.121094 C 95.546875 209.699219 95.5625 209.285156 95.582031 208.871094 C 93.582031 209.183594 91.582031 209.503906 89.582031 209.808594 Z M 89.582031 209.808594 "/>
<path style=" stroke:none;fill-rule:nonzero;fill:rgb(95.294118%,76.078431%,44.313725%);fill-opacity:1;" d="M 89 217.191406 C 96.375 216.84375 103.761719 217.101562 111.132812 217.460938 C 110.722656 218.449219 110.234375 219.867188 108.949219 219.8125 C 102.761719 219.894531 96.542969 220.226562 90.371094 219.574219 C 89.855469 218.816406 89.371094 218.03125 89.003906 217.195312 Z M 89 217.191406 "/>
</g>
</svg>
