<?xml version="1.0" encoding="UTF-8"?>
<svg id="Layer_1" data-name="Layer 1" xmlns="http://www.w3.org/2000/svg" viewBox="0 0 1272.25 1272.25">
  <defs>
    <style>
      .father-cls-1 {
        fill: #f8f4f2;
      }

      .father-cls-1, .father-cls-2, .father-cls-3, .father-cls-4, .father-cls-5, .father-cls-6, .father-cls-7, .father-cls-8, .father-cls-9, .father-cls-10, .father-cls-11, .father-cls-12, .father-cls-13, .father-cls-14, .father-cls-15, .father-cls-16, .father-cls-17, .father-cls-18, .father-cls-19, .father-cls-20, .father-cls-21, .father-cls-22, .father-cls-23 {
        stroke-width: 0px;
      }

      .father-cls-2 {
        fill: #7a2c1a;
      }

      .father-cls-3 {
        fill: #4f3e34;
      }

      .father-cls-4 {
        fill: #5d3629;
      }

      .father-cls-5 {
        fill: #151619;
      }

      .father-cls-6 {
        fill: #203041;
      }

      .father-cls-7 {
        fill: #222a31;
      }

      .father-cls-8 {
        fill: #101b25;
      }

      .father-cls-9 {
        fill: #d17149;
      }

      .father-cls-10 {
        fill: #d95d4a;
      }

      .father-cls-11 {
        fill: #d5cec7;
      }

      .father-cls-12 {
        fill: #d88a62;
      }

      .father-cls-13 {
        fill: #af6123;
      }

      .father-cls-14 {
        fill: #b95734;
      }

      .father-cls-15 {
        fill: #b8b5b1;
      }

      .father-cls-16 {
        fill: #a24728;
      }

      .father-cls-17 {
        fill: #913a24;
      }

      .father-cls-18 {
        fill: #934b1c;
      }

      .father-cls-19 {
        fill: #f3c04d;
      }

      .father-cls-20 {
        fill: #e58f24;
      }

      .father-cls-21 {
        fill: #ebd6bf;
      }

      .father-cls-22 {
        fill: #e6c390;
      }

      .father-cls-23 {
        fill: #f1dbd2;
      }
    </style>
  </defs>
  <path class="father-cls-19" d="m529.28,501.94c7.53,9.66,12.95,21.07,19.88,31.06v13.67c8.19,157.25,15.17,314.54,14.91,472.12-1.36,17.86,1.8,36.28,1.24,54.05,0,.25-2.44,3.18-2.48,4.35-.7,19.49-2.05,38.87-1.24,58.39-46.21-4.79-89.04-25.15-130.46-44.73,5.86-10.84-.99-38.31-1.24-53.42-.42-25.21,1.75-63.17,2.48-90.7,2.27-85.71,11.15-171.44,11.18-257.18,0-17.75.99-35.76-1.24-53.42q-11.18-36.65-22.36-73.3c26.96-20.49,75.86-44.8,107.47-62.12l1.86,1.24Z"/>
  <path class="father-cls-20" d="m851.07,567.79c-10.02,21.05-18.86,42.95-23.61,65.85-3.47,16.75-6.3,33.12-4.97,50.32,7.97,88.2,10.56,176.8,14.91,265.26,1.6,32.48,4.88,64.51,4.97,96.91.03,8.81-1.22,17.4-1.24,26.09-.01,5.59,0,11.18,0,16.77,1.23.64,2.49,1.24,3.73,1.86-27.24,18.56-101.6,42.95-132.94,47.21-2.67-19.13-.7-38.56-1.24-57.77-.03-1.02-2.48-.49-2.48-.62-1.37-57.23,3.22-114.84,3.73-172.08.54-60.41-1.45-121.02,0-181.39,1.16-48.3,5.57-152.19,9.94-196.93,1.07-10.9-2.15-20.76,9.32-29.82,26.45,15.77,101.97,52.77,119.89,68.33Z"/>
  <path class="father-cls-1" d="m918.16,1043.64c-9.76-21.31,1.31-43.29,3.73-65.23,13.84-125.42,13.05-231.43-37.27-349.12-3.6-8.43-19.43-40.87-23.61-47.83-1.51-2.52-3.2-5.77-3.73-8.7,2.16-10.25,19.34,12.65,26.09,21.74,31.91,42.98,55.99,116.37,63.36,168.97,8.08,57.6,8.37,184.77-7.45,239.79-1.36,4.72-15.58,40.86-17.39,42.24-2.93,2.24-2.2-2.4-3.73-1.86Z"/>
  <path class="father-cls-1" d="m410,570.28c-15.26,36.03-33.64,71.03-44.73,108.71-9.31,31.65-19.59,83.58-19.88,116.17l-2.48,4.35c-4.14,17.82,4.76,199.66,21.12,229.85-5.12,9.21-4.69,13.59-4.97,14.29-.53,1.34-.56,4.36-3.11,6.21-29.36-49.36-33.87-118.9-35.41-175.8-2.03-74.99,3.66-152.24,32.3-222.4,8.15-19.95,36.39-77.53,57.15-81.38Z"/>
  <g>
    <path class="father-cls-17" d="m429.88,1037.43c.25,15.12,7.1,42.59,1.24,53.42-11.92,3.37-23.72,4.15-36.03,3.73-1.52-6.43-18.36-39.31-19.88-41-7.61-7.31,37.5-12.06,54.67-16.15Z"/>
    <path class="father-cls-14" d="m375.21,1053.58c1.52,1.69,18.36,34.57,19.88,41-38.2-1.31-25.32-16.48-32.3-44.73,6.06-1.21,8.14-1.03,12.42,3.73Z"/>
  </g>
  <g>
    <path class="father-cls-11" d="m607.55,1140.55c-9.77-.73-19.37-1.83-29.2-1.24-.78-.19-4.27-5.84-4.35-6.21-1.76-8.27,1.68-38.2,0-49.7,7.81-.13,44.19-4.51,45.97-1.86-2.71,7.84.37,53.63-1.24,55.91-1.6,2.26-12.12-1.92-11.18,3.11Z"/>
    <path class="father-cls-6" d="m639.85,1080.91v60.88c-4.97-.1-9.94.07-14.91,0-.84.01-2.27.3-2.48-.62-1.66-6.96,1.22-45.57,0-59.64.93-1.32,14.58-.44,17.39-.62Z"/>
    <path class="father-cls-7" d="m574,1083.4c1.68,11.5-1.76,41.42,0,49.7,1.2,6.73-6.87,3.06-12.42,2.48-.81-19.53.54-38.9,1.24-58.39,2.94.34,9.85-.5,10.56,0,1.28.91.38,4.59.62,6.21Z"/>
    <path class="father-cls-7" d="m708.19,1079.67c0,.13,2.46-.4,2.48.62.55,19.21-1.43,38.64,1.24,57.77-2.31.31-3.23,1.21-6.21,1.24-2.98.03-3.69,2.88-6.21-.62,2.43-24.62-6.77-65.49,8.7-59.02Z"/>
  </g>
  <g>
    <path class="father-cls-19" d="m419.94,562.82q11.18,36.65,22.36,73.3c-21.9,70.46-39.25,110.62-96.91,159.03.29-32.59,10.56-84.52,19.88-116.17,11.09-37.68,29.47-72.68,44.73-108.71-.46-4.27,7.87-5.88,9.94-7.45Z"/>
    <g>
      <path class="father-cls-13" d="m443.55,689.55c-4.53,3.46-11.94,36.73-13.67,46.59-8.54,48.76-9.58,107.2-6.21,156.55,1.21,17.73,2.66,37.5,8.7,54.05-.73,27.53-2.9,65.49-2.48,90.7-17.17,4.09-62.28,8.84-54.67,16.15-4.28-4.76-6.37-4.93-12.42-3.73-.63-2.53-1.75-4.54-3.73-6.21.28-.7-.15-5.08,4.97-14.29-16.36-30.18-25.26-212.03-21.12-229.85l2.48-4.35c57.66-48.41,75.01-88.57,96.91-159.03,2.23,17.67,1.25,35.68,1.24,53.42Z"/>
      <path class="father-cls-18" d="m443.55,689.55c-.03,85.74-8.91,171.48-11.18,257.18-6.04-16.55-7.49-36.31-8.7-54.05-3.37-49.34-2.32-107.79,6.21-156.55,1.73-9.86,9.14-43.13,13.67-46.59Z"/>
    </g>
  </g>
  <g>
    <path class="father-cls-1" d="m591.4,468.4c-.93,11.42,2.33,7.98-4.97,17.39-.8,1.03-5.31-1.97-1.24,5.59,1.57,2.92,37.9,43.1,41,45.35,1.84,9.47-26.17,36.83-36.65,50.94-12.69-18.7-27.53-36.14-40.38-54.67-6.93-9.99-12.35-21.4-19.88-31.06,13.75-14,42.44-27.73,62.12-33.55Z"/>
    <path class="father-cls-21" d="m700.73,546.67c-9.14,15.79-19.06,31.23-29.82,45.97-6.15-8.56-37.74-46.05-38.52-49.08-.41-1.6,1.85-2.26,1.24-4.35,2.48-.7,3.51-3.59,3.73-3.73,11.61-7.43,18.4-15.91,27.33-26.09,12.3-14.02,12.71-16.13,21.12-27.33,2.04-2.72.12-1.62.62-3.73,4.28-2.97,33.49,15.04,40.38,18.02,1.64,4.34-23.66,42-27.33,48.45-.93,1.64,1.3,1.77,1.24,1.86Z"/>
    <path class="father-cls-22" d="m719.37,529.28c.38,6.19-2.66,22.67-1.24,34.17-7.26,7.02-16.17,7.26-24.85,13.05-6.31,4.21-14.74,14.15-21.12,19.88.25-1.41-.49-2.68-1.24-3.73,10.76-14.74,20.68-30.18,29.82-45.97q8.39-13.05,16.77-26.09c.55,9.31,1.84,8.25,1.86,8.7Z"/>
    <path class="father-cls-21" d="m672.16,596.37c6.39-5.73,14.81-15.67,21.12-19.88-8.21,73.14-22.85,145.85-28.58,219.29-4.08,52.42-3.62,105.26-4.97,157.79-1.62,5.57-84.21,57.02-95.67,65.23.26-157.59-6.72-314.87-14.91-472.12,2.68-1.71,2.79-1.75,4.97.62,5.61,6.11,25.09,42.43,37.89,54.05l39.76-42.24q17.39,21.74,34.79,43.49c2.93.77,4.83-5.53,5.59-6.21Z"/>
    <path class="father-cls-21" d="m626.19,536.73c1.59,1.16,3.11,2.16,4.35,3.73,1.44.34,1.79-.87,3.11-1.24.61,2.08-1.65,2.75-1.24,4.35.78,3.02,32.36,40.51,38.52,49.08.75,1.05,1.49,2.32,1.24,3.73-.76.68-2.66,6.99-5.59,6.21q-17.39-21.74-34.79-43.49l-39.76,42.24c-12.81-11.61-32.28-47.94-37.89-54.05-2.18-2.37-2.29-2.33-4.97-.62v-13.67c12.85,18.53,27.69,35.97,40.38,54.67,10.49-14.1,38.49-41.47,36.65-50.94Z"/>
    <g>
      <path class="father-cls-21" d="m721.85,529.28c-4.37,44.73-8.78,148.62-9.94,196.93-1.45,60.37.54,120.99,0,181.39-.51,57.24-5.1,114.84-3.73,172.08-15.47-6.48-6.27,34.4-8.7,59.02,2.52,3.5,3.24.65,6.21.62,0,.86.33,2.15-.62,2.48-3.08,1.07-56.57.18-65.23,0v-58.39c5.47,3.03,55.23,3.94,57.77,2.48,13.18-7.51-53.93-5.21-57.77-4.97-2.82.18-16.46-.7-17.39.62,1.22,14.07-1.66,52.67,0,59.64.22.92,1.65.63,2.48.62-8.26-1.9-13.39-.94-17.39-1.24-.94-5.02,9.58-.85,11.18-3.11,1.62-2.28-1.47-48.07,1.24-55.91-1.78-2.65-38.16,1.74-45.97,1.86-.24-1.62.66-5.3-.62-6.21-.71-.5-7.62.34-10.56,0,.04-1.16,2.48-4.1,2.48-4.35.56-17.76-2.6-36.18-1.24-54.05,11.45-8.21,94.05-59.66,95.67-65.23,1.35-52.53.89-105.37,4.97-157.79,5.72-73.44,20.37-146.15,28.58-219.29,8.68-5.79,17.59-6.03,24.85-13.05-1.42-11.5,1.63-27.98,1.24-34.17h2.48Z"/>
      <path class="father-cls-11" d="m644.2,1087.13h52.18q.93,25.78,1.86,51.56-27.02.93-54.05,1.86v-53.42Z"/>
      <path class="father-cls-15" d="m639.85,1083.4v-2.48c3.84-.24,70.95-2.54,57.77,4.97-2.55,1.45-52.3.54-57.77-2.48Z"/>
    </g>
  </g>
  <g>
    <path class="father-cls-18" d="m918.16,1043.64c-11.46,3.99-4.78,19.09-8.7,34.17-7.25,27.88-60.51,15.09-64.61,13.05-1.24-.62-2.5-1.22-3.73-1.86,0-5.59-.01-11.18,0-16.77-1.12,20.44,11.16,18.89,12.42,16.77.41-.68-.71-5.65,1.24-10.56-4.22,18.46,10.64,12.49,35.41,13.67.5-4.99,1.79-4.71,1.86-4.97,7.39,14.43,22.06-16.82,13.67-32.92,4.06-1.63,4.05-2.01,1.86-5.59q-32.61-1.24-65.23-2.48c-.09-32.4-3.37-64.43-4.97-96.91,4.83-14.57,5.49-29.36,6.21-45.35,2.58-57.3-.06-115.15-6.21-172.08,15.46,4.2,37.41,30.82,60.26,47.21,2.86,2.05,24.93,18.54,26.71,15.53-4.45-34.96-9.88-70.39-19.88-104.36-11.07-37.6-30.4-71.93-43.49-108.71,4.17,6.97,20,39.41,23.61,47.83,50.32,117.69,51.11,223.7,37.27,349.12-2.42,21.93-13.48,43.92-3.73,65.23Z"/>
    <path class="father-cls-18" d="m857.28,572.76c.53,2.92,2.22,6.17,3.73,8.7,13.09,36.78,32.42,71.11,43.49,108.71,10,33.98,15.43,69.4,19.88,104.36-1.78,3.01-23.85-13.48-26.71-15.53-22.84-16.39-44.8-43.02-60.26-47.21-3.55-32.9-12.44-64.76-9.94-98.15,4.75-22.9,13.58-44.8,23.61-65.85,1.24,1.08,3.82.95,6.21,4.97Z"/>
    <path class="father-cls-17" d="m837.4,731.79c6.15,56.93,8.79,114.78,6.21,172.08-.72,15.99-1.39,30.78-6.21,45.35-4.35-88.46-6.94-177.06-14.91-265.26-1.33-17.2,1.5-33.57,4.97-50.32-2.5,33.39,6.38,65.25,9.94,98.15Z"/>
    <g>
      <path class="father-cls-17" d="m892.07,1087.13c5.21-19.41-26.76-35.11-37.27-8.7-1.95,4.91-.84,9.88-1.24,10.56-1.26,2.11-13.54,3.67-12.42-16.77.02-8.69,1.27-17.28,1.24-26.09q32.61,1.24,65.23,2.48c2.19,3.58,2.2,3.96-1.86,5.59,8.39,16.1-6.28,47.36-13.67,32.92Z"/>
      <path class="father-cls-16" d="m892.07,1087.13c-.07.26-1.37-.02-1.86,4.97-24.76-1.18-39.63,4.79-35.41-13.67,10.51-26.41,42.49-10.71,37.27,8.7Z"/>
    </g>
  </g>
  <g>
    <g>
      <path class="father-cls-6" d="m598.85,140.39c-4.47,28.53-7.39,53.53-6.21,82.62-.66,1.09-21.11,6.81-24.23,8.08-13.91,5.64-31.42,18.66-5.59-3.11-11.76-8.84-20.43-28.8-26.09-25.47.45-3.71-.62-9.05,0-11.8,5.27-23.42,39.44-46.73,62.12-50.32Z"/>
      <path class="father-cls-5" d="m711.91,180.15c3.36,6.91,2.84,12.69,2.48,20.5,51.88,28.37,19.1,72.08,17.39,119.89-9.65,11.74-10.72,11.72-12.42,26.09-.02.2,0,1.84,0,2.48h-1.24c.38-12.6-1.11-47.77-2.48-60.88,3.39-6.6-2.01-26.28-4.97-33.55,6.35-1.83,16.87-33.9,16.15-36.65-.63-2.43-11.01-6.2-13.05-9.32q-6.52,13.05-13.05,26.09c-1.57,6.3-15.79-1.52-16.15-4.35-.23-1.82,15.18-27.39,17.39-32.3,3.8-8.44,4.22-21.63,9.94-18.02Z"/>
      <path class="father-cls-5" d="m682.09,157.79c-7.17,1.49.74,12.1-1.24,29.2-.48,4.13-12.03,35.68-14.29,36.65-3.38,1.46-17.48-2.34-18.02-3.11-2.29-3.28,34.07-50.2,0-71.44,4.14,2.01,6.37,4.08,9.32,7.45,7.99.21,16.36-.69,24.23,1.24Z"/>
      <g>
        <path class="father-cls-6" d="m648.55,149.09c34.07,21.24-2.29,68.16,0,71.44.53.76,14.63,4.57,18.02,3.11,2.26-.97,13.81-32.52,14.29-36.65,1.98-17.09-5.93-27.71,1.24-29.2,6.51,1.6,26.95,16.46,29.82,22.36-5.72-3.61-6.14,9.57-9.94,18.02-2.21,4.91-17.63,30.48-17.39,32.3.36,2.83,14.58,10.65,16.15,4.35-5.03,6.11,3.35,3.73,9.94,19.88,2.96,7.26,8.36,26.95,4.97,33.55-4.64-44.37-25.51-59.48-69.58-64.61-2.82-.33-5.84.18-8.7,0-23.28-1.47-80.63,5.61-94.42,26.71-12.15,18.59-3.25,95.25-4.97,121.14-9.87-17.25,5.37-40-16.15-52.18-2.58-37.32-39.17-97.73,15.53-113.06,1.98-1.58-.77-2.51-.62-3.73,5.66-3.33,14.33,16.63,26.09,25.47-25.83,21.77-8.32,8.75,5.59,3.11,3.12-1.27,23.57-6.98,24.23-8.08-1.18-29.09,1.74-54.09,6.21-82.62,23.82-3.77,29.94-.9,49.7,8.7Z"/>
        <path class="father-cls-8" d="m620.59,159.03c2.11,1.49,15.69,6.69,16.15,7.45,2.93,4.85-6.5,51.38-11.18,53.42-.57.25-11.9,1.59-12.42,1.24-2.62-1.72,6.48-55.06,7.45-62.12Z"/>
      </g>
      <path class="father-cls-6" d="m710.67,254.7c-6.59-16.15-14.97-13.77-9.94-19.88q6.52-13.05,13.05-26.09c2.04,3.12,12.41,6.89,13.05,9.32.72,2.75-9.81,34.82-16.15,36.65Z"/>
    </g>
    <g>
      <path class="father-cls-17" d="m669.67,472.12c-6.6,1.35-2.38,14.94-4.97,30.44-.24,1.45-7.91,10.61,0,6.83-8.93,10.18-15.72,18.66-27.33,26.09-2.66-11.74-7.42-23.02-9.94-34.79l16.15,5.59,3.73-50.32c4.59-1.19,23.85-9.81,27.95-12.42,37.05-23.59,41.64-53.8,42.86-94.42h1.24c-.04,6.07-.01,12.02,1.24,18.02,24.83,4.29,32.68-36.78,5.59-26.71-2.57.95-4.18,6.94-6.83,6.21,1.7-14.37,2.77-14.35,12.42-26.09,39.35-.98,31.24,53.37-11.18,55.29,9.47,75.09-51.06,75.88-53.42,80.76-1.57,3.23.2,12.99,2.48,15.53Z"/>
      <path class="father-cls-14" d="m521.82,319.3c21.52,12.19,6.28,34.93,16.15,52.18l-2.48,2.48c-36.64,5.29-61.36-54.3-13.67-54.67Z"/>
      <path class="father-cls-9" d="m622.46,459.7c.57,12.45,1.31,25.01,3.73,37.27-13.11.79-27.01-7.82-39.76-11.18,7.3-9.42,4.04-5.97,4.97-17.39.19-2.3,2.05-5.71,1.24-11.18,9.22,2.17,20.35,2.84,29.82,2.48Z"/>
      <path class="father-cls-2" d="m685.82,482.06c-8.42,11.21-8.82,13.31-21.12,27.33-7.91,3.78-.24-5.39,0-6.83,2.59-15.5-1.63-29.09,4.97-30.44,3.72,4.14,12.74,5,16.15,9.94Z"/>
      <path class="father-cls-9" d="m646.06,223.64c-.49,4.97,10.24,2.96,11.8,3.73,4.1,2,12.44,42.07,7.45,45.97-.64.5-8.65.89-15.53,4.97.34-24.18-.37-33.14-12.42-54.67,2.86.18,5.87-.33,8.7,0Z"/>
      <g>
        <path class="father-cls-12" d="m634.88,342.91c1.12.42,13.33,14.49,14.91,18.64,12.48,32.73-51.17,28.43-45.97-1.86,1.65-9.61,14.38-10.9,19.88-16.77,2.5-.15,10.31-.32,11.18,0Z"/>
        <path class="father-cls-17" d="m623.7,342.91c-5.5,5.87-18.23,7.17-19.88,16.77-5.2,30.29,58.45,34.59,45.97,1.86,5.83-2.39,9.85,5.29,8.7,13.05-2.91,19.6-27.21,15.92-41,18.02-30.32-17.58-21.15-48.07,6.21-49.7Z"/>
      </g>
      <path class="father-cls-10" d="m639.85,407.52c1.18,2.88,10.22,6.13,9.94,9.32-.13,1.5-13.43,10.32-14.29,10.56-4.32,1.2-14.05-3.55-14.29,1.24-8.22-9.57-10.22-12.44-16.15-23.61,10.53,2.36,24.13,4.01,34.79,2.48Z"/>
      <path class="father-cls-5" d="m649.79,290.73c.25-2.85-.12-5.82,0-8.7,9.83-8.28,44.98-10.34,47.21,5.59,1.65,11.77-14.61-6.46-47.21,3.11Z"/>
      <g>
        <path class="father-cls-12" d="m637.37,223.64c12.05,21.52,12.76,30.49,12.42,54.67-.02,1.24.05,2.49,0,3.73-.12,2.87.25,5.84,0,8.7-1.61,18.26-7.54,35.4-14.91,52.18-.87-.32-8.68-.15-11.18,0-27.36,1.62-36.53,32.11-6.21,49.7l-1.24,3.73c-4.84-.35-12.51-3.9-14.91-1.24l-2.48.62c2.36,2.76,4.52,6.13,6.21,9.32,5.93,11.16,7.93,14.04,16.15,23.61,9.58,11.14,17.75,15.62,17.39,16.77-41.11,10.66-84.18-11.92-100.64-51.56-.66-6.56-1.1-13.42-2.48-19.88l2.48-2.48c1.72-25.88-7.18-102.55,4.97-121.14,13.79-21.1,71.14-28.18,94.42-26.71Z"/>
        <path class="father-cls-6" d="m573.38,277.06c13.46-1.91,29.99,2.42,24.23,11.8-.52.85-14.2-1.15-19.26-.62-7.57.79-37.77,9.39-19.88-4.97,1.15-.92,13.3-5.98,14.91-6.21Z"/>
        <path class="father-cls-4" d="m567.17,328c5.16-.64,35.59-2.58,31.68,5.59-1.24,2.59-44.5,4.36-42.24-2.48.5-1.52,8.78-2.88,10.56-3.11Z"/>
      </g>
      <g>
        <path class="father-cls-3" d="m639.85,407.52c-10.66,1.52-24.26-.13-34.79-2.48-1.69-3.18-3.85-6.56-6.21-9.32l2.48-.62c23.6,11.13,33.63,8.5,55.91-1.24,1.32-.58,4.66-.15,5.59-3.73,2.3,11.02-13.83,16.09-22.98,17.39Z"/>
        <path class="father-cls-23" d="m657.25,393.85c-22.28,9.74-32.31,12.38-55.91,1.24,2.4-2.66,10.07.9,14.91,1.24,16.87,1.21,23.89,1.88,41-2.48Z"/>
      </g>
      <path class="father-cls-2" d="m647.31,455.97l-3.73,50.32-16.15-5.59c-.17-.81-.77-1.33-1.24-3.73-2.42-12.26-3.16-24.82-3.73-37.27,7.14-.27,17.84-1.92,24.85-3.73Z"/>
      <g>
        <path class="father-cls-14" d="m715.64,288.24c1.37,13.11,2.87,48.28,2.48,60.88-1.23,40.63-5.82,70.83-42.86,94.42-4.11,2.62-23.36,11.24-27.95,12.42-7.01,1.81-17.71,3.46-24.85,3.73-9.47.36-20.6-.31-29.82-2.48-34.67-8.17-51.25-29.6-54.67-63.36,16.46,39.64,59.53,62.22,100.64,51.56.35-1.16-7.82-5.63-17.39-16.77.24-4.79,9.97-.05,14.29-1.24.86-.24,14.16-9.07,14.29-10.56.28-3.18-8.76-6.44-9.94-9.32,9.15-1.31,25.29-6.37,22.98-17.39-.93,3.57-4.27,3.15-5.59,3.73-17.11,4.37-24.13,3.69-41,2.48l1.24-3.73c13.79-2.09,38.09,1.58,41-18.02,1.15-7.76-2.87-15.44-8.7-13.05-1.58-4.15-13.79-18.22-14.91-18.64,7.37-16.78,13.3-33.92,14.91-52.18,32.6-9.56,48.86,8.66,47.21-3.11-2.23-15.93-37.38-13.87-47.21-5.59.05-1.24-.02-2.49,0-3.73,6.88-4.08,14.89-4.47,15.53-4.97,4.98-3.9-3.35-43.97-7.45-45.97-1.57-.76-12.3,1.24-11.8-3.73,44.07,5.12,64.93,20.24,69.58,64.61Z"/>
        <path class="father-cls-2" d="m667.81,326.76c5.23-.41,44.33,1.82,24.85,7.45-15.85,4.59-59.41-4.71-24.85-7.45Z"/>
      </g>
      <path class="father-cls-14" d="m586.43,485.79c12.75,3.36,26.65,11.97,39.76,11.18.47,2.4,1.07,2.92,1.24,3.73,2.52,11.77,7.28,23.05,9.94,34.79-.22.14-1.25,3.02-3.73,3.73-1.32.37-1.67,1.59-3.11,1.24-1.23-1.57-2.75-2.57-4.35-3.73-3.1-2.25-39.43-42.43-41-45.35-4.07-7.56.44-4.56,1.24-5.59Z"/>
      <path class="father-cls-14" d="m719.37,349.12c0-.65-.02-2.28,0-2.48,2.66.73,4.26-5.26,6.83-6.21,27.09-10.06,19.24,31.01-5.59,26.71-1.25-6-1.29-11.95-1.24-18.02Z"/>
    </g>
  </g>
</svg>