<?xml version="1.0" encoding="UTF-8"?>
<svg xmlns="http://www.w3.org/2000/svg" xmlns:xlink="http://www.w3.org/1999/xlink" width="200px" height="200px" viewBox="0 0 200 200" version="1.1">
<defs>
<clipPath id="clip1">
  <rect x="0" y="0" width="12" height="13"/>
</clipPath>
<g id="surface5" clip-path="url(#clip1)">
<path style=" stroke:none;fill-rule:nonzero;fill:rgb(0%,0%,0%);fill-opacity:1;" d="M 3.621094 1.054688 C 3.621094 1.375 3.378906 1.636719 3.082031 1.636719 C 2.78125 1.636719 2.539062 1.375 2.539062 1.054688 C 2.539062 0.730469 2.78125 0.46875 3.082031 0.46875 C 3.378906 0.46875 3.621094 0.730469 3.621094 1.054688 Z M 3.621094 1.054688 "/>
<path style=" stroke:none;fill-rule:nonzero;fill:rgb(0%,0%,0%);fill-opacity:1;" d="M 4.199219 3.027344 C 4.199219 3.351562 3.957031 3.613281 3.65625 3.613281 C 3.359375 3.613281 3.117188 3.351562 3.117188 3.027344 C 3.117188 2.707031 3.359375 2.445312 3.65625 2.445312 C 3.957031 2.445312 4.199219 2.707031 4.199219 3.027344 Z M 4.199219 3.027344 "/>
<path style=" stroke:none;fill-rule:nonzero;fill:rgb(0%,0%,0%);fill-opacity:1;" d="M 5.839844 3.140625 C 5.839844 3.460938 5.601562 3.722656 5.300781 3.722656 C 5.003906 3.722656 4.761719 3.460938 4.761719 3.140625 C 4.761719 2.816406 5.003906 2.554688 5.300781 2.554688 C 5.601562 2.554688 5.839844 2.816406 5.839844 3.140625 Z M 5.839844 3.140625 "/>
<path style=" stroke:none;fill-rule:nonzero;fill:rgb(0%,0%,0%);fill-opacity:1;" d="M 2.753906 3.9375 C 2.753906 4.261719 2.511719 4.523438 2.210938 4.523438 C 1.914062 4.523438 1.671875 4.261719 1.671875 3.9375 C 1.671875 3.613281 1.914062 3.351562 2.210938 3.351562 C 2.511719 3.351562 2.753906 3.613281 2.753906 3.9375 Z M 2.753906 3.9375 "/>
<path style=" stroke:none;fill-rule:nonzero;fill:rgb(0%,0%,0%);fill-opacity:1;" d="M 7.835938 1.773438 C 7.835938 2.09375 7.59375 2.355469 7.296875 2.355469 C 6.996094 2.355469 6.757812 2.09375 6.757812 1.773438 C 6.757812 1.449219 6.996094 1.1875 7.296875 1.1875 C 7.59375 1.1875 7.835938 1.449219 7.835938 1.773438 Z M 7.835938 1.773438 "/>
<path style=" stroke:none;fill-rule:nonzero;fill:rgb(0%,0%,0%);fill-opacity:1;" d="M 7.523438 5.738281 C 7.523438 6.058594 7.28125 6.320312 6.984375 6.320312 C 6.683594 6.320312 6.441406 6.058594 6.441406 5.738281 C 6.441406 5.414062 6.683594 5.152344 6.984375 5.152344 C 7.28125 5.152344 7.523438 5.414062 7.523438 5.738281 Z M 7.523438 5.738281 "/>
<path style=" stroke:none;fill-rule:nonzero;fill:rgb(0%,0%,0%);fill-opacity:1;" d="M 5.707031 5.261719 C 5.707031 5.585938 5.464844 5.847656 5.164062 5.847656 C 4.867188 5.847656 4.625 5.585938 4.625 5.261719 C 4.625 4.9375 4.867188 4.675781 5.164062 4.675781 C 5.464844 4.675781 5.707031 4.9375 5.707031 5.261719 Z M 5.707031 5.261719 "/>
<path style=" stroke:none;fill-rule:nonzero;fill:rgb(0%,0%,0%);fill-opacity:1;" d="M 7.1875 3.957031 C 7.1875 4.28125 6.949219 4.542969 6.648438 4.542969 C 6.351562 4.542969 6.109375 4.28125 6.109375 3.957031 C 6.109375 3.636719 6.351562 3.375 6.648438 3.375 C 6.949219 3.375 7.1875 3.636719 7.1875 3.957031 Z M 7.1875 3.957031 "/>
<path style=" stroke:none;fill-rule:nonzero;fill:rgb(0%,0%,0%);fill-opacity:1;" d="M 6.28125 7.183594 C 6.28125 7.507812 6.039062 7.769531 5.742188 7.769531 C 5.445312 7.769531 5.203125 7.507812 5.203125 7.183594 C 5.203125 6.863281 5.445312 6.601562 5.742188 6.601562 C 6.039062 6.601562 6.28125 6.863281 6.28125 7.183594 Z M 6.28125 7.183594 "/>
<path style=" stroke:none;fill-rule:nonzero;fill:rgb(0%,0%,0%);fill-opacity:1;" d="M 3.742188 6.738281 C 3.742188 7.0625 3.5 7.324219 3.199219 7.324219 C 2.902344 7.324219 2.660156 7.0625 2.660156 6.738281 C 2.660156 6.417969 2.902344 6.152344 3.199219 6.152344 C 3.5 6.152344 3.742188 6.417969 3.742188 6.738281 Z M 3.742188 6.738281 "/>
<path style=" stroke:none;fill-rule:nonzero;fill:rgb(0%,0%,0%);fill-opacity:1;" d="M 10.097656 1.882812 C 10.097656 2.207031 9.855469 2.46875 9.558594 2.46875 C 9.261719 2.46875 9.019531 2.207031 9.019531 1.882812 C 9.019531 1.558594 9.261719 1.296875 9.558594 1.296875 C 9.855469 1.296875 10.097656 1.558594 10.097656 1.882812 Z M 10.097656 1.882812 "/>
<path style=" stroke:none;fill-rule:nonzero;fill:rgb(0%,0%,0%);fill-opacity:1;" d="M 8.996094 6.5625 C 8.996094 6.886719 8.753906 7.148438 8.457031 7.148438 C 8.15625 7.148438 7.917969 6.886719 7.917969 6.5625 C 7.917969 6.242188 8.15625 5.980469 8.457031 5.980469 C 8.753906 5.980469 8.996094 6.242188 8.996094 6.5625 Z M 8.996094 6.5625 "/>
<path style=" stroke:none;fill-rule:nonzero;fill:rgb(0%,0%,0%);fill-opacity:1;" d="M 5.746094 1.164062 C 5.746094 1.488281 5.507812 1.75 5.207031 1.75 C 4.910156 1.75 4.667969 1.488281 4.667969 1.164062 C 4.667969 0.839844 4.910156 0.578125 5.207031 0.578125 C 5.507812 0.578125 5.746094 0.839844 5.746094 1.164062 Z M 5.746094 1.164062 "/>
<path style=" stroke:none;fill-rule:nonzero;fill:rgb(0%,0%,0%);fill-opacity:1;" d="M 9.089844 0.441406 C 9.089844 0.765625 8.847656 1.027344 8.550781 1.027344 C 8.25 1.027344 8.011719 0.765625 8.011719 0.441406 C 8.011719 0.117188 8.25 -0.144531 8.550781 -0.144531 C 8.847656 -0.144531 9.089844 0.117188 9.089844 0.441406 Z M 9.089844 0.441406 "/>
<path style=" stroke:none;fill-rule:nonzero;fill:rgb(0%,0%,0%);fill-opacity:1;" d="M 12.003906 1.363281 C 12.003906 1.6875 11.761719 1.949219 11.464844 1.949219 C 11.164062 1.949219 10.921875 1.6875 10.921875 1.363281 C 10.921875 1.039062 11.164062 0.777344 11.464844 0.777344 C 11.761719 0.777344 12.003906 1.039062 12.003906 1.363281 Z M 12.003906 1.363281 "/>
<path style=" stroke:none;fill-rule:nonzero;fill:rgb(0%,0%,0%);fill-opacity:1;" d="M 8.945312 3.496094 C 8.945312 3.820312 8.707031 4.082031 8.40625 4.082031 C 8.109375 4.082031 7.867188 3.820312 7.867188 3.496094 C 7.867188 3.171875 8.109375 2.910156 8.40625 2.910156 C 8.707031 2.910156 8.945312 3.171875 8.945312 3.496094 Z M 8.945312 3.496094 "/>
<path style=" stroke:none;fill-rule:nonzero;fill:rgb(0%,0%,0%);fill-opacity:1;" d="M 11.230469 3.496094 C 11.230469 3.820312 10.988281 4.082031 10.691406 4.082031 C 10.390625 4.082031 10.152344 3.820312 10.152344 3.496094 C 10.152344 3.171875 10.390625 2.910156 10.691406 2.910156 C 10.988281 2.910156 11.230469 3.171875 11.230469 3.496094 Z M 11.230469 3.496094 "/>
<path style=" stroke:none;fill-rule:nonzero;fill:rgb(0%,0%,0%);fill-opacity:1;" d="M 11.71875 5.730469 C 11.71875 6.050781 11.476562 6.3125 11.179688 6.3125 C 10.878906 6.3125 10.636719 6.050781 10.636719 5.730469 C 10.636719 5.40625 10.878906 5.144531 11.179688 5.144531 C 11.476562 5.144531 11.71875 5.40625 11.71875 5.730469 Z M 11.71875 5.730469 "/>
<path style=" stroke:none;fill-rule:nonzero;fill:rgb(0%,0%,0%);fill-opacity:1;" d="M 9.925781 5.03125 C 9.925781 5.355469 9.683594 5.617188 9.382812 5.617188 C 9.085938 5.617188 8.84375 5.355469 8.84375 5.03125 C 8.84375 4.707031 9.085938 4.445312 9.382812 4.445312 C 9.683594 4.445312 9.925781 4.707031 9.925781 5.03125 Z M 9.925781 5.03125 "/>
<path style=" stroke:none;fill-rule:nonzero;fill:rgb(0%,0%,0%);fill-opacity:1;" d="M 10.464844 7.730469 C 10.464844 8.054688 10.222656 8.316406 9.925781 8.316406 C 9.625 8.316406 9.382812 8.054688 9.382812 7.730469 C 9.382812 7.410156 9.625 7.148438 9.925781 7.148438 C 10.222656 7.148438 10.464844 7.410156 10.464844 7.730469 Z M 10.464844 7.730469 "/>
<path style=" stroke:none;fill-rule:nonzero;fill:rgb(0%,0%,0%);fill-opacity:1;" d="M 10.109375 9.65625 C 10.109375 9.980469 9.867188 10.242188 9.566406 10.242188 C 9.269531 10.242188 9.027344 9.980469 9.027344 9.65625 C 9.027344 9.332031 9.269531 9.070312 9.566406 9.070312 C 9.867188 9.070312 10.109375 9.332031 10.109375 9.65625 Z M 10.109375 9.65625 "/>
<path style=" stroke:none;fill-rule:nonzero;fill:rgb(0%,0%,0%);fill-opacity:1;" d="M 11.75 10.492188 C 11.75 10.816406 11.507812 11.078125 11.210938 11.078125 C 10.914062 11.078125 10.671875 10.816406 10.671875 10.492188 C 10.671875 10.171875 10.914062 9.910156 11.210938 9.910156 C 11.507812 9.910156 11.75 10.171875 11.75 10.492188 Z M 11.75 10.492188 "/>
<path style=" stroke:none;fill-rule:nonzero;fill:rgb(0%,0%,0%);fill-opacity:1;" d="M 10.386719 12.109375 C 10.386719 12.433594 10.144531 12.695312 9.847656 12.695312 C 9.550781 12.695312 9.308594 12.433594 9.308594 12.109375 C 9.308594 11.785156 9.550781 11.523438 9.847656 11.523438 C 10.144531 11.523438 10.386719 11.785156 10.386719 12.109375 Z M 10.386719 12.109375 "/>
<path style=" stroke:none;fill-rule:nonzero;fill:rgb(0%,0%,0%);fill-opacity:1;" d="M 12.160156 12.316406 C 12.160156 12.640625 11.917969 12.902344 11.617188 12.902344 C 11.320312 12.902344 11.078125 12.640625 11.078125 12.316406 C 11.078125 11.996094 11.320312 11.734375 11.617188 11.734375 C 11.917969 11.734375 12.160156 11.996094 12.160156 12.316406 Z M 12.160156 12.316406 "/>
<path style=" stroke:none;fill-rule:nonzero;fill:rgb(0%,0%,0%);fill-opacity:1;" d="M 12.164062 8.042969 C 12.164062 8.363281 11.925781 8.625 11.625 8.625 C 11.328125 8.625 11.085938 8.363281 11.085938 8.042969 C 11.085938 7.71875 11.328125 7.457031 11.625 7.457031 C 11.925781 7.457031 12.164062 7.71875 12.164062 8.042969 Z M 12.164062 8.042969 "/>
<path style=" stroke:none;fill-rule:nonzero;fill:rgb(0%,0%,0%);fill-opacity:1;" d="M 4.59375 8.183594 C 4.59375 8.507812 4.351562 8.769531 4.054688 8.769531 C 3.757812 8.769531 3.515625 8.507812 3.515625 8.183594 C 3.515625 7.863281 3.757812 7.601562 4.054688 7.601562 C 4.351562 7.601562 4.59375 7.863281 4.59375 8.183594 Z M 4.59375 8.183594 "/>
<path style=" stroke:none;fill-rule:nonzero;fill:rgb(0%,0%,0%);fill-opacity:1;" d="M 3.984375 10.664062 C 3.984375 10.988281 3.742188 11.25 3.445312 11.25 C 3.148438 11.25 2.90625 10.988281 2.90625 10.664062 C 2.90625 10.34375 3.148438 10.082031 3.445312 10.082031 C 3.742188 10.082031 3.984375 10.34375 3.984375 10.664062 Z M 3.984375 10.664062 "/>
<path style=" stroke:none;fill-rule:nonzero;fill:rgb(0%,0%,0%);fill-opacity:1;" d="M 6.046875 11.335938 C 6.046875 11.65625 5.804688 11.917969 5.507812 11.917969 C 5.210938 11.917969 4.96875 11.65625 4.96875 11.335938 C 4.96875 11.011719 5.210938 10.75 5.507812 10.75 C 5.804688 10.75 6.046875 11.011719 6.046875 11.335938 Z M 6.046875 11.335938 "/>
<path style=" stroke:none;fill-rule:nonzero;fill:rgb(0%,0%,0%);fill-opacity:1;" d="M 4.355469 12.574219 C 4.355469 12.894531 4.117188 13.15625 3.816406 13.15625 C 3.519531 13.15625 3.277344 12.894531 3.277344 12.574219 C 3.277344 12.25 3.519531 11.988281 3.816406 11.988281 C 4.117188 11.988281 4.355469 12.25 4.355469 12.574219 Z M 4.355469 12.574219 "/>
<path style=" stroke:none;fill-rule:nonzero;fill:rgb(0%,0%,0%);fill-opacity:1;" d="M 7.421875 9.507812 C 7.421875 9.832031 7.179688 10.09375 6.878906 10.09375 C 6.582031 10.09375 6.339844 9.832031 6.339844 9.507812 C 6.339844 9.1875 6.582031 8.925781 6.878906 8.925781 C 7.179688 8.925781 7.421875 9.1875 7.421875 9.507812 Z M 7.421875 9.507812 "/>
<path style=" stroke:none;fill-rule:nonzero;fill:rgb(0%,0%,0%);fill-opacity:1;" d="M 8.589844 8.46875 C 8.589844 8.789062 8.347656 9.050781 8.046875 9.050781 C 7.75 9.050781 7.507812 8.789062 7.507812 8.46875 C 7.507812 8.144531 7.75 7.882812 8.046875 7.882812 C 8.347656 7.882812 8.589844 8.144531 8.589844 8.46875 Z M 8.589844 8.46875 "/>
<path style=" stroke:none;fill-rule:nonzero;fill:rgb(0%,0%,0%);fill-opacity:1;" d="M 7.414062 12.570312 C 7.414062 12.894531 7.175781 13.15625 6.875 13.15625 C 6.578125 13.15625 6.335938 12.894531 6.335938 12.570312 C 6.335938 12.246094 6.578125 11.984375 6.875 11.984375 C 7.175781 11.984375 7.414062 12.246094 7.414062 12.570312 Z M 7.414062 12.570312 "/>
<path style=" stroke:none;fill-rule:nonzero;fill:rgb(0%,0%,0%);fill-opacity:1;" d="M 8.382812 10.886719 C 8.382812 11.207031 8.140625 11.46875 7.84375 11.46875 C 7.542969 11.46875 7.300781 11.207031 7.300781 10.886719 C 7.300781 10.5625 7.542969 10.300781 7.84375 10.300781 C 8.140625 10.300781 8.382812 10.5625 8.382812 10.886719 Z M 8.382812 10.886719 "/>
<path style=" stroke:none;fill-rule:nonzero;fill:rgb(0%,0%,0%);fill-opacity:1;" d="M 5.785156 9.300781 C 5.785156 9.625 5.542969 9.886719 5.242188 9.886719 C 4.945312 9.886719 4.703125 9.625 4.703125 9.300781 C 4.703125 8.976562 4.945312 8.714844 5.242188 8.714844 C 5.542969 8.714844 5.785156 8.976562 5.785156 9.300781 Z M 5.785156 9.300781 "/>
<path style=" stroke:none;fill-rule:nonzero;fill:rgb(0%,0%,0%);fill-opacity:1;" d="M 1.285156 9.425781 C 1.285156 9.75 1.042969 10.011719 0.746094 10.011719 C 0.449219 10.011719 0.207031 9.75 0.207031 9.425781 C 0.207031 9.101562 0.449219 8.839844 0.746094 8.839844 C 1.042969 8.839844 1.285156 9.101562 1.285156 9.425781 Z M 1.285156 9.425781 "/>
<path style=" stroke:none;fill-rule:nonzero;fill:rgb(0%,0%,0%);fill-opacity:1;" d="M 1.539062 7.382812 C 1.539062 7.707031 1.296875 7.96875 0.996094 7.96875 C 0.699219 7.96875 0.457031 7.707031 0.457031 7.382812 C 0.457031 7.058594 0.699219 6.796875 0.996094 6.796875 C 1.296875 6.796875 1.539062 7.058594 1.539062 7.382812 Z M 1.539062 7.382812 "/>
<path style=" stroke:none;fill-rule:nonzero;fill:rgb(0%,0%,0%);fill-opacity:1;" d="M 2.046875 11.074219 C 2.046875 11.398438 1.804688 11.660156 1.507812 11.660156 C 1.210938 11.660156 0.96875 11.398438 0.96875 11.074219 C 0.96875 10.75 1.210938 10.488281 1.507812 10.488281 C 1.804688 10.488281 2.046875 10.75 2.046875 11.074219 Z M 2.046875 11.074219 "/>
<path style=" stroke:none;fill-rule:nonzero;fill:rgb(0%,0%,0%);fill-opacity:1;" d="M 2.925781 8.941406 C 2.925781 9.261719 2.683594 9.523438 2.386719 9.523438 C 2.089844 9.523438 1.847656 9.261719 1.847656 8.941406 C 1.847656 8.617188 2.089844 8.355469 2.386719 8.355469 C 2.683594 8.355469 2.925781 8.617188 2.925781 8.941406 Z M 2.925781 8.941406 "/>
<path style=" stroke:none;fill-rule:nonzero;fill:rgb(0%,0%,0%);fill-opacity:1;" d="M 0.988281 4.136719 C 0.988281 4.457031 0.746094 4.71875 0.449219 4.71875 C 0.152344 4.71875 -0.0898438 4.457031 -0.0898438 4.136719 C -0.0898438 3.8125 0.152344 3.550781 0.449219 3.550781 C 0.746094 3.550781 0.988281 3.8125 0.988281 4.136719 Z M 0.988281 4.136719 "/>
<path style=" stroke:none;fill-rule:nonzero;fill:rgb(0%,0%,0%);fill-opacity:1;" d="M 1.9375 2.164062 C 1.9375 2.484375 1.699219 2.75 1.398438 2.75 C 1.101562 2.75 0.859375 2.484375 0.859375 2.164062 C 0.859375 1.839844 1.101562 1.578125 1.398438 1.578125 C 1.699219 1.578125 1.9375 1.839844 1.9375 2.164062 Z M 1.9375 2.164062 "/>
<path style=" stroke:none;fill-rule:nonzero;fill:rgb(0%,0%,0%);fill-opacity:1;" d="M 1.921875 0.121094 C 1.921875 0.445312 1.679688 0.707031 1.382812 0.707031 C 1.082031 0.707031 0.839844 0.445312 0.839844 0.121094 C 0.839844 -0.203125 1.082031 -0.464844 1.382812 -0.464844 C 1.679688 -0.464844 1.921875 -0.203125 1.921875 0.121094 Z M 1.921875 0.121094 "/>
<path style=" stroke:none;fill-rule:nonzero;fill:rgb(0%,0%,0%);fill-opacity:1;" d="M 1.921875 13.121094 C 1.921875 13.445312 1.679688 13.707031 1.382812 13.707031 C 1.082031 13.707031 0.839844 13.445312 0.839844 13.121094 C 0.839844 12.796875 1.082031 12.535156 1.382812 12.535156 C 1.679688 12.535156 1.921875 12.796875 1.921875 13.121094 Z M 1.921875 13.121094 "/>
<path style=" stroke:none;fill-rule:nonzero;fill:rgb(0%,0%,0%);fill-opacity:1;" d="M 2.101562 5.785156 C 2.101562 6.109375 1.859375 6.371094 1.5625 6.371094 C 1.265625 6.371094 1.023438 6.109375 1.023438 5.785156 C 1.023438 5.464844 1.265625 5.203125 1.5625 5.203125 C 1.859375 5.203125 2.101562 5.464844 2.101562 5.785156 Z M 2.101562 5.785156 "/>
<path style=" stroke:none;fill-rule:nonzero;fill:rgb(0%,0%,0%);fill-opacity:1;" d="M 4.195312 4.890625 C 4.195312 5.214844 3.953125 5.476562 3.65625 5.476562 C 3.359375 5.476562 3.117188 5.214844 3.117188 4.890625 C 3.117188 4.570312 3.359375 4.308594 3.65625 4.308594 C 3.953125 4.308594 4.195312 4.570312 4.195312 4.890625 Z M 4.195312 4.890625 "/>
</g>
<pattern id="pattern0" patternUnits="userSpaceOnUse" width="12" height="13" patternTransform="matrix(1.075264,0,0,1.069523,0,0)">
<use xlink:href="#surface5"/>
</pattern>
</defs>
<g id="surface1">
<path style="fill-rule:evenodd;fill:rgb(100%,100%,100%);fill-opacity:1;stroke-width:0.290551;stroke-linecap:butt;stroke-linejoin:miter;stroke:rgb(100%,80%,0%);stroke-opacity:1;stroke-miterlimit:4;" d="M 100.940154 104.000076 C 95.145349 102.118162 90.71281 99.004412 85.913826 96.221912 L 64.877381 91.625818 L 60.281288 87.561795 C 55.9916 85.131248 51.55078 83.35906 47.728983 78.899607 C 41.656757 74.301443 38.721054 70.684608 35.178749 66.877303 L 28.990585 56.449139 L 25.986562 51.499022 L 26.162538 49.022928 L 21.212421 37.710741 C 19.959882 35.538984 18.280859 33.46453 19.092421 30.81453 C 17.881289 29.373593 16.813007 27.537226 16.264375 24.274413 C 13.858672 21.876992 14.399023 20.214531 13.788281 18.264296 L 11.844258 11.724179 C 10.212851 9.87125 8.569023 7.993476 7.42414 6.950039 C 5.718203 5.161289 3.807305 4.817617 1.944023 4.121992 L 4.420117 3.061992 C 6.871367 2.418125 8.817461 3.11582 10.784258 3.767969 C 14.469414 4.651992 16.862695 5.931445 18.384375 7.480039 C 20.106875 7.676719 21.779687 8.254336 23.334492 9.780156 C 25.117031 10.751133 25.84164 9.61039 28.814609 12.960156 C 33.13328 13.156836 34.083554 14.848281 35.532773 16.320273 C 37.876366 16.332695 39.675468 17.868867 41.188866 20.20832 C 44.110077 20.498164 45.735272 22.185468 46.493007 24.804413 C 48.878007 26.243281 51.308553 27.557929 53.2091 30.284531 C 55.985389 32.164374 59.128124 33.044257 60.811288 37.886718 C 62.589686 39.327655 65.173436 39.460155 65.761405 42.836835 C 67.823436 44.544843 70.531405 45.608983 70.887498 49.022928 C 72.42574 50.507343 73.966053 51.987616 73.715545 53.797069 L 74.599568 55.211092 L 75.307615 57.509139 L 77.605662 60.161209 C 80.824998 61.239842 80.37367 63.831873 80.963709 65.99328 C 82.139646 67.761326 83.35492 69.529373 82.907732 71.29742 C 84.820701 73.158631 84.901443 74.518826 85.029803 75.893514 L 86.619803 79.959607 C 88.779138 80.603475 89.826717 82.638592 91.393943 84.025701 C 92.721013 86.818553 93.507732 89.311209 93.337966 91.273865 C 93.120584 93.03156 93.68992 94.609138 95.636013 95.869959 L 98.46406 98.698005 L 102.708201 101.172029 C 103.209216 101.998083 104.037341 102.822068 103.768201 103.648122 C 102.778591 103.888279 101.482576 104.950349 100.940154 104.000076 Z M 100.940154 104.000076 " transform="matrix(1.886792,0,0,1.886792,0,0)"/>
<path style=" stroke:none;fill-rule:evenodd;fill:url(#pattern0);" d="M 168.773438 184.222656 L 151.261719 180.21875 L 125.078125 173.382812 L 108.734375 162.539062 L 91.222656 149.867188 L 67.375 127.6875 L 55.703125 108.839844 L 48.863281 95.5 L 49.199219 92.832031 L 42.691406 77.15625 L 36.1875 58.644531 L 32.019531 47.96875 L 26.515625 35.628906 C 24.785156 29.289062 22.753906 23.449219 19.695312 19.320312 C 17.398438 15.109375 12.289062 11.210938 6.003906 7.445312 C 16.421875 7.003906 21.699219 12.328125 27.46875 19.90625 C 39.675781 35.9375 50.679688 62.191406 56.203125 75.488281 C 64.375 95.175781 67.394531 97.8125 76.046875 109.507812 C 87.144531 124.503906 99.578125 140.972656 115.070312 151.367188 C 126.179688 158.820312 153.261719 171.546875 153.261719 171.546875 Z M 168.773438 184.222656 "/>
<path style=" stroke:none;fill-rule:nonzero;fill:rgb(6.27451%,5.098039%,5.098039%);fill-opacity:1;" d="M 4.820312 9.632812 C 6.335938 9.65625 10.519531 11.664062 12.058594 12.746094 C 17.464844 16.539062 15.921875 20.222656 21.105469 24.769531 C 21.570312 30.824219 22.75 31.371094 24.941406 34.796875 C 23.429688 38.714844 29.285156 46.585938 30.097656 47.050781 C 30.671875 52.011719 31.53125 56.089844 34.445312 58.765625 C 33.59375 62.515625 34.535156 64.226562 35.890625 67.707031 C 37.003906 70.566406 38.640625 72.261719 40.542969 73.933594 C 42.042969 82.351562 44.226562 85.4375 47.898438 92.386719 C 46.417969 94.242188 49.722656 102.238281 51.601562 104.238281 C 55.601562 108.511719 57.789062 117.339844 60.691406 121.570312 C 67.96875 132.175781 79.402344 142.398438 89.6875 150.644531 C 90.128906 152.324219 90.964844 153.695312 93.136719 155.378906 C 98.851562 159.8125 106.90625 163.585938 112.992188 167.171875 C 118.46875 176.171875 132.703125 177.035156 142.238281 179.128906 C 146.957031 180.167969 150.84375 181.28125 155.640625 182.183594 C 160.234375 183.050781 163.214844 183.992188 168.121094 187.445312 C 173.027344 190.894531 182.085938 194.617188 187.953125 197.550781 C 191.136719 199.140625 197.289062 197.339844 197.03125 194.550781 C 196.839844 192.503906 195.222656 191.398438 194.1875 190.183594 C 193.5 189.371094 190.328125 186.4375 187.65625 185.289062 C 184.921875 184.117188 182.234375 181.535156 180.628906 179.816406 C 177.136719 176.070312 177.980469 168.683594 175.929688 163.277344 C 174.328125 159.058594 171.449219 155.550781 168.351562 152.214844 C 167.648438 151.453125 165.183594 149.507812 164.335938 148.960938 C 164.472656 146.480469 163.074219 144.480469 162.171875 144.59375 C 161.777344 142.273438 161.796875 140.296875 160.839844 138.183594 C 159.878906 136.074219 158.941406 134.566406 157.734375 133.921875 C 157.828125 132.375 156.957031 130.089844 156.554688 129.023438 C 156.007812 127.578125 155.253906 126.1875 154.21875 125.085938 C 153.808594 123.328125 153.742188 121.210938 152.792969 118.707031 C 151.84375 116.199219 149.773438 112.683594 146.414062 111.054688 C 145.308594 108.828125 144.117188 107.15625 142.222656 105.855469 C 142.101562 103.890625 143.273438 102.484375 140.207031 100.589844 C 140.625 97.832031 140.652344 96.835938 138.257812 94.074219 C 136.695312 92.269531 135.152344 91.214844 134.554688 91 C 135.007812 88.28125 133.785156 86.199219 132.15625 84.554688 C 129.957031 82.332031 128.003906 81.089844 125.324219 80.191406 C 124.5625 78.253906 124.921875 75.582031 123.242188 73.898438 C 121.558594 72.210938 118.71875 70.828125 116.496094 70.53125 C 115.820312 69.160156 114.445312 64.949219 112.261719 62.09375 C 110.078125 59.238281 105.386719 56.933594 100.417969 54.914062 C 98.515625 51.984375 97.285156 49.957031 94.347656 48.003906 C 93.027344 47.125 90.179688 45 88.957031 44.691406 C 86.996094 38.953125 80.914062 35.332031 78.761719 36.386719 C 77.296875 34.453125 76.207031 31.5 74.203125 30.429688 C 71.554688 29.011719 69.183594 28.878906 67.128906 29.171875 C 64.832031 25.890625 62.691406 23.734375 59.292969 23.511719 C 58.113281 23.433594 55.984375 23.175781 54.945312 22.960938 C 53.417969 21.167969 52.265625 20.152344 50.34375 18.773438 C 48.335938 17.332031 45.691406 16.441406 43.859375 17.222656 C 42.273438 15.820312 41.695312 15.113281 40.230469 14.175781 C 38.707031 13.199219 35.984375 12.636719 35.328125 12.558594 C 31.921875 8.902344 27.558594 7.929688 23.058594 6.761719 C 21.089844 6.253906 18.765625 5.136719 16.84375 4.664062 C 14.027344 3.972656 10.921875 4.597656 8.886719 4.957031 C 3.792969 5.855469 -0.566406 9.542969 4.820312 9.632812 Z M 51.25 43.609375 C 53.824219 46.707031 55.511719 48.355469 58.015625 51.53125 C 53.417969 48.90625 50.609375 45.007812 45.902344 42.71875 C 40.691406 40.183594 33.546875 40.277344 29.417969 35.601562 C 27.09375 32.972656 26.933594 31.304688 27.324219 29.9375 C 29.554688 31.980469 32.167969 33.144531 34.988281 33.902344 C 39.320312 35.066406 43.367188 35.441406 46.875 38.617188 C 48.542969 40.125 49.695312 41.738281 51.25 43.609375 Z M 67.464844 63.597656 C 62.316406 60.671875 57.234375 57.65625 51.960938 55.105469 C 45.511719 51.988281 38.496094 51.777344 33.167969 46.570312 C 32.527344 45.941406 30.175781 43.113281 30.0625 41.394531 C 33.34375 45.828125 41.351562 49.472656 46.402344 50.425781 C 52.898438 51.652344 48.777344 50.136719 46.964844 49.464844 C 39.960938 46.875 34.976562 43.171875 32.640625 41.464844 C 31.847656 40.886719 30.273438 39.535156 29.792969 38.402344 C 32.957031 41.542969 38.660156 42.21875 42.625 43.554688 C 49.019531 45.707031 53.113281 51.285156 58.589844 55.382812 C 61.683594 57.695312 64.960938 60.421875 67.464844 63.597656 Z M 34.328125 49.679688 C 38.042969 53.007812 43.292969 54.203125 47.625 55.460938 C 54.824219 57.558594 60.289062 61.582031 66.597656 65.847656 C 69.296875 67.671875 71.457031 69.949219 73.480469 72.648438 C 74.398438 73.871094 75.433594 74.78125 76.316406 76.046875 C 74.269531 74.683594 73.214844 73.203125 71.207031 71.703125 C 67.789062 69.148438 63.515625 67.28125 59.644531 65.761719 C 52.117188 62.804688 43.433594 62.75 37.25 56.820312 C 35.492188 55.132812 34.5625 53.820312 34.328125 49.679688 Z M 86.476562 90.1875 C 79.019531 86.289062 73.839844 81.222656 65.957031 78.394531 C 59.363281 76.027344 52.800781 74.9375 47.011719 71.421875 C 45.457031 70.476562 44.0625 69.152344 42.796875 67.742188 C 40.417969 65.097656 38.835938 62.984375 38.238281 60.605469 C 39.96875 61.863281 49.964844 66.828125 55.59375 67.777344 C 58.679688 68.296875 65.511719 70.617188 69.878906 73.921875 C 71.878906 75.433594 75.792969 78.25 77.695312 80 C 80.371094 82.460938 83.214844 85.679688 86.476562 90.1875 Z M 99.125 106.210938 C 99.226562 106.214844 99.738281 106.773438 100.386719 107.511719 C 100.804688 107.984375 101.332031 108.730469 102.558594 110.402344 C 85.898438 97.65625 61.894531 103.242188 48.4375 84.6875 C 47.074219 82.804688 46.570312 80.40625 45.613281 78.238281 C 50.539062 83.910156 61.179688 86.710938 67.328125 88.566406 C 77.890625 91.753906 85.914062 95.183594 93.039062 100.246094 C 94.128906 101.019531 96.527344 102.714844 97.363281 103.808594 C 92.835938 102.199219 90.316406 100.128906 85.921875 98.128906 C 84.976562 97.695312 83.527344 97.898438 85.757812 98.898438 C 87.988281 99.898438 94.539062 104.992188 99.125 106.210938 Z M 70.328125 112.066406 C 74.316406 112.484375 72.742188 111.472656 70.601562 110.9375 C 67.167969 110.074219 60.226562 107.535156 57.5625 104.855469 C 54.738281 102.015625 53.433594 100.382812 51.339844 96.996094 C 48.832031 94.335938 51.46875 95.441406 53.074219 97.132812 C 59.511719 105.160156 68.929688 108.640625 78.203125 111.277344 C 83.230469 112.707031 88.164062 112.367188 93.265625 113.257812 C 98.820312 114.230469 103.277344 115.734375 107.773438 119.410156 C 109.507812 120.828125 110.410156 121.539062 111.730469 123.324219 C 106.238281 119.375 97.871094 118.710938 90.6875 117.890625 C 85.527344 117.300781 80.355469 116.636719 75.332031 115.367188 C 71.683594 114.445312 64.015625 111.3125 63.074219 110.492188 C 64.566406 111.09375 69.140625 111.941406 70.328125 112.066406 Z M 67.734375 105.164062 C 61.417969 102.371094 58.957031 99.679688 55.628906 96.6875 C 52.546875 93.921875 50.660156 90.992188 49.839844 89.335938 C 55.351562 95.925781 64.636719 99.359375 72.042969 101.617188 C 83.535156 105.121094 94.542969 106.082031 102.589844 112.117188 C 103.164062 112.546875 104.488281 113.710938 106.15625 115.902344 C 99.09375 110.386719 91.613281 111.675781 84.847656 110.445312 C 78.082031 109.214844 72.800781 107.40625 67.734375 105.164062 Z M 71.355469 87.566406 C 67.039062 85.953125 61.601562 83.988281 57.230469 82.4375 C 52.003906 80.582031 47.363281 78.640625 43.734375 74.238281 C 42.46875 72.703125 42.164062 71.597656 41.949219 70.691406 C 47.234375 76.207031 56.003906 78.175781 62.804688 80.128906 C 66.652344 81.234375 71.144531 83.316406 75.292969 85.53125 C 81.507812 88.847656 86.960938 92.429688 88.367188 93.300781 C 89.398438 93.9375 91.546875 96.871094 92.75 98.273438 C 85.449219 92.355469 79.75 90.699219 71.355469 87.566406 Z M 60.492188 112.007812 C 67.355469 117.226562 76.65625 118.628906 84.125 119.738281 C 94.28125 121.246094 108.578125 122.199219 113.730469 126.511719 C 114.539062 127.1875 115.15625 128.207031 116.625 130.167969 C 112.816406 128.46875 111.234375 127.464844 107.105469 126.410156 C 102.667969 125.273438 98.058594 125.046875 93.5 124.785156 C 84.179688 124.257812 76.195312 123.832031 68.570312 117.15625 C 67.171875 115.929688 67.390625 116.875 68.121094 117.683594 C 73.710938 123.859375 81.980469 126.1875 89.429688 126.601562 C 94.089844 126.863281 98.039062 127.046875 102.636719 127.71875 C 105.46875 128.132812 109.105469 129.175781 111.820312 130.261719 C 114.328125 131.257812 116.074219 131.238281 118.324219 132.820312 C 120.238281 134.167969 120.277344 134.628906 121.574219 136.269531 C 118.714844 135.105469 117.414062 133.585938 114.335938 132.871094 C 110.65625 132.015625 107.113281 131.867188 103.414062 131.746094 C 95.25 131.480469 87.75 132.042969 80.207031 128.628906 C 77.996094 127.628906 77.605469 127.816406 80.070312 129.328125 C 86.089844 133.011719 93.484375 132.988281 100.222656 133.382812 C 104.277344 133.621094 108.261719 133.339844 112.261719 134.121094 C 116.566406 134.960938 119.019531 136.53125 122.648438 138.730469 C 124.476562 139.839844 124.902344 140.304688 126.277344 142.035156 C 119.300781 138.460938 112.527344 138.238281 104.574219 137.6875 C 100.269531 137.390625 95.855469 137.425781 91.554688 136.984375 C 88.617188 136.683594 86.097656 136.019531 83.691406 134.929688 C 85.902344 135.789062 87.859375 135.679688 90.089844 135.832031 C 91.25 135.914062 92.011719 135.234375 90.59375 135.109375 C 87.0625 134.796875 81.390625 133.734375 78.246094 131.992188 C 75.789062 130.628906 73.8125 129.414062 71.867188 127.171875 C 68.730469 123.558594 66.785156 121.195312 64.65625 118.171875 C 62.53125 115.152344 61.660156 113.957031 60.492188 112.007812 Z M 93.746094 144.023438 C 100.777344 146.519531 105.242188 148.492188 112.550781 148.429688 C 120.210938 148.359375 128.332031 145.863281 134.015625 152.09375 L 136.722656 155.0625 C 134.472656 153.695312 132.941406 152.972656 130.417969 152.34375 C 126.6875 151.417969 123.890625 151.285156 120.039062 151.050781 C 116.085938 150.808594 110.8125 151.933594 106.917969 151.425781 C 103.378906 150.960938 95.269531 150.265625 93.074219 148.523438 C 88.800781 145.132812 81.914062 140 77.175781 135.007812 C 82.609375 138.726562 92.925781 138.734375 99.148438 139.226562 C 109.988281 140.085938 121.605469 139.265625 128.609375 145.042969 C 129.710938 145.949219 130.054688 146.574219 130.699219 147.613281 C 126.214844 144.542969 120.53125 146.070312 115.265625 146.113281 C 106.183594 146.191406 102.511719 145.609375 93.824219 143.316406 C 92.78125 143.039062 92.46875 143.570312 93.746094 144.023438 Z M 108.894531 156.570312 C 105.574219 155.917969 102.003906 154.929688 99.214844 153.039062 C 100.128906 153.027344 105.75 154.484375 106.621094 154.441406 C 110.488281 154.25 112.902344 153.992188 116.808594 153.710938 C 121.363281 153.378906 124.019531 153.207031 128.496094 154.210938 C 133.117188 155.25 135.980469 155.871094 137.898438 157.316406 C 138.65625 157.886719 139.054688 158.742188 140.820312 160.03125 C 130.222656 155.316406 119.019531 163.554688 107.238281 158.4375 C 110.503906 159.613281 115.683594 157.453125 118.421875 157.226562 C 121.886719 156.9375 121.3125 156.394531 117.417969 156.335938 C 115.472656 156.308594 111.527344 157.085938 108.894531 156.570312 Z M 124.535156 161.367188 C 131.695312 161.183594 138.050781 160.78125 141.652344 161.953125 C 142.410156 162.199219 144.59375 163.273438 145.136719 163.910156 C 141.027344 161.863281 137.292969 161.820312 132.964844 163.152344 C 131.375 163.636719 132.042969 164.054688 133.007812 163.921875 C 137.945312 163.234375 141.421875 163.953125 144.328125 165.035156 C 147.15625 166.085938 147.878906 166.328125 148.574219 167.023438 C 143.351562 164.945312 139.0625 164.128906 133.46875 164.652344 C 127.464844 165.214844 119.941406 165.890625 116.097656 164.390625 C 112.257812 162.886719 111.808594 161.890625 113.023438 161.984375 C 114.238281 162.082031 120.117188 161.480469 124.535156 161.367188 Z M 129.703125 171.925781 C 131.925781 172.226562 136.234375 170.378906 138.320312 170.28125 C 144.007812 170.011719 149.183594 171.824219 152.96875 173.476562 C 154.398438 174.101562 155.804688 174.800781 157.640625 176.265625 C 154.230469 174.804688 153.179688 174.503906 149.539062 173.941406 C 144.4375 173.152344 137.542969 174.945312 132.554688 173.425781 C 131.527344 173.113281 130.652344 172.464844 129.703125 171.925781 Z M 141.578125 168.277344 C 136.558594 168.144531 129.609375 171.714844 124.699219 170.039062 C 123.207031 169.527344 121.003906 168.15625 119.402344 167.316406 C 121.96875 168.019531 127.820312 166.296875 130.359375 166.253906 C 133.453125 166.199219 136.359375 165.675781 139.449219 165.929688 C 143.144531 166.234375 145.703125 166.910156 149.0625 168.542969 C 150.511719 169.25 152.558594 171.023438 153.796875 172.132812 C 149.78125 170.425781 145.835938 168.390625 141.578125 168.277344 Z M 139.554688 175.363281 C 141.625 175.824219 144.808594 175.375 146.84375 175.53125 C 151.992188 175.933594 154.511719 176.832031 157.648438 178.085938 C 160.785156 179.339844 162.484375 180.035156 163.628906 180.917969 C 158.359375 178.664062 153.425781 178.417969 149.449219 177.277344 C 145.46875 176.136719 142.316406 176.523438 139.554688 175.363281 Z M 186.039062 192.414062 C 183.277344 191.363281 180.578125 189.8125 177.976562 188.382812 C 168.925781 183.417969 161.035156 177.214844 153.207031 170.097656 C 149.292969 166.539062 142.421875 159.691406 139.527344 156.285156 C 137.730469 154.175781 134.390625 150.019531 130.996094 145.914062 C 123.773438 137.074219 116.734375 128.035156 109.792969 118.90625 C 100.96875 107.300781 109.410156 117.023438 87.941406 89.601562 C 85.675781 86.707031 84.085938 83.65625 81.460938 80.828125 C 75.371094 74.277344 81.398438 79.253906 82.152344 80.078125 C 84.90625 83.097656 91.359375 92.382812 93.621094 95.265625 C 98.609375 101.621094 107.515625 113.316406 114.261719 122.539062 C 116.742188 125.929688 120.058594 130.253906 122.796875 133.726562 C 126.480469 138.398438 130.128906 143 134.054688 147.308594 C 138.609375 152.304688 142.617188 158.085938 147.335938 162.558594 C 149.859375 164.953125 153.332031 167.902344 155.6875 169.882812 C 160.152344 173.632812 162.3125 175.558594 167.214844 178.296875 C 168.433594 178.980469 173.40625 181.8125 174.59375 182.382812 C 180.847656 185.371094 183.566406 186.738281 189.757812 189.777344 C 192.097656 190.925781 195.382812 193.761719 193.019531 193.824219 C 190.660156 193.890625 187.648438 193.023438 186.039062 192.414062 Z M 181.1875 183.003906 C 179.90625 182.648438 176.15625 181.089844 175.296875 179.953125 C 174.695312 179.160156 174.363281 178.03125 174.101562 177.113281 C 173.667969 175.589844 173.597656 173.980469 173.386719 172.5 C 173.007812 169.8125 172.351562 169.453125 172.707031 172.804688 C 172.894531 174.59375 172.96875 176.6875 173.523438 178.285156 C 173.722656 178.851562 174.09375 179.765625 174.535156 180.398438 C 172.988281 179.335938 172.0625 177.164062 171.925781 176.84375 C 170.703125 174.03125 170.90625 170.417969 170.761719 165.765625 C 170.664062 162.613281 170.59375 160.113281 168.71875 156.851562 C 171.3125 160.476562 172.074219 161.183594 173.453125 165.644531 C 174.261719 168.265625 174.042969 172.578125 175.335938 176.339844 C 176.238281 178.980469 178.714844 181.324219 181.1875 183.003906 Z M 166.589844 157.945312 C 167.082031 159.824219 167.011719 161.582031 167.070312 163.476562 C 167.160156 166.230469 167.484375 165.027344 167.773438 163.53125 C 168.160156 161.546875 167.992188 159.152344 167.1875 156.933594 C 169.808594 161.40625 169.4375 165.765625 169.320312 171.332031 C 169.257812 174.480469 170.007812 176.15625 171.058594 178.265625 C 170.253906 177.902344 170.855469 178.558594 169.789062 177.421875 C 166.398438 173.816406 166.382812 168.265625 165.816406 162.738281 C 165.453125 159.183594 165.179688 155.714844 163.796875 152.351562 C 164.394531 152.820312 164.707031 152.972656 165.261719 153.972656 C 165.820312 154.976562 166.207031 156.476562 166.589844 157.945312 Z M 151.816406 126.175781 C 152.367188 128.386719 152.304688 129.375 152.558594 132.226562 C 152.847656 135.445312 152.667969 139.074219 150.949219 143.527344 C 148.636719 149.515625 144.441406 155.660156 150.066406 160.71875 C 150.996094 161.554688 151.199219 161.117188 150.527344 160.210938 C 146.289062 154.488281 149.253906 150.695312 151.496094 145.503906 C 152.542969 143.078125 153.523438 140.335938 153.757812 136.96875 C 153.914062 134.679688 153.832031 132.429688 153.433594 130.222656 C 153.945312 130.914062 154.484375 131.699219 154.746094 132.457031 C 155.84375 135.648438 155.671875 139.027344 155.289062 142.613281 C 154.859375 146.648438 154.234375 150.15625 153.410156 154.066406 C 152.375 158.984375 152.105469 163.167969 156.480469 165.933594 C 157.929688 166.847656 158.914062 167.394531 156.691406 165.4375 C 153.328125 162.464844 152.898438 159.699219 154.109375 154.164062 C 155.300781 148.710938 157.242188 143.433594 156.554688 136.945312 C 157.417969 138.773438 157.855469 139.289062 158.148438 140.652344 C 158.921875 144.21875 158.167969 148.390625 156.71875 151.890625 C 155.78125 154.160156 154.894531 157.445312 155.195312 159.984375 C 155.464844 162.230469 155.886719 162.664062 155.851562 159.714844 C 155.820312 157.453125 156.335938 155.746094 157.179688 153.625 C 157.746094 152.195312 158.4375 150.804688 158.964844 149.355469 C 159.53125 147.804688 159.757812 146.230469 159.648438 144.707031 C 159.992188 145.546875 160.019531 146.050781 160.027344 146.335938 C 160.121094 149.308594 160.035156 152.476562 159.871094 156.015625 C 159.5625 162.695312 158.097656 169.886719 164.601562 173.460938 C 166.523438 174.515625 165.386719 173.234375 164.992188 172.871094 C 158.152344 166.472656 161.335938 162.40625 161.109375 153.792969 C 161.082031 152.835938 161.046875 149.367188 160.917969 148.40625 C 163.941406 154.972656 164.890625 160.964844 165.363281 168.347656 C 165.574219 171.617188 166.207031 174.785156 167.972656 177.09375 C 163.679688 174.476562 160.039062 170.886719 155.96875 167.496094 C 152.59375 164.683594 149.359375 161.921875 146.433594 158.496094 C 144.109375 155.769531 143.890625 150.464844 144.9375 145.71875 C 145.933594 141.199219 147.867188 137.105469 148.542969 132.988281 C 149.390625 127.839844 148.058594 120.429688 145.921875 114.90625 C 146.820312 115.496094 148.425781 116.175781 149.382812 118.457031 C 150.335938 120.738281 151.265625 123.964844 151.816406 126.175781 Z M 145.425781 139.464844 C 144.445312 142.882812 143.109375 144.644531 142.695312 148.207031 C 142.46875 150.15625 142.101562 152.964844 143.246094 155.496094 C 142.207031 154.507812 141.636719 153.480469 141.308594 152.683594 C 140.328125 150.285156 140.769531 148.410156 141.945312 144.117188 C 142.738281 141.21875 144.410156 137.367188 144.40625 134.164062 C 144.402344 132.132812 143.738281 126.148438 142.765625 134.597656 C 142.3125 138.527344 140.777344 142.113281 139.527344 145.742188 C 139.25 146.550781 139.203125 147.160156 139.238281 149.167969 C 136.1875 144.222656 138.648438 134.300781 140.5 125.925781 C 141.414062 121.792969 142.78125 114.761719 141.949219 109.726562 C 144.089844 114.292969 145.832031 118.335938 146.339844 124.089844 C 146.847656 129.84375 146.867188 134.449219 145.425781 139.464844 Z M 136.789062 133.726562 C 135.96875 139.945312 134.875 143.953125 137.480469 148.894531 C 136.003906 146.984375 135.21875 145.882812 134.398438 144.28125 C 129.875 135.480469 132.105469 125.535156 136.410156 115.542969 C 137.675781 112.613281 139.121094 106.964844 139.488281 103.46875 C 142.027344 112.277344 137.875 125.496094 136.789062 133.726562 Z M 131.695312 141 C 129.425781 139.355469 128.222656 137.300781 128.105469 136.140625 C 128.023438 135.351562 127.371094 133.585938 127.402344 132.726562 C 127.574219 128.4375 128.648438 125.074219 130.359375 121.867188 C 132.332031 118.164062 134.589844 114.179688 134.113281 109.597656 C 134.042969 108.945312 133.625 107.054688 133.476562 109.777344 C 133.125 116.242188 128.097656 120.394531 126.789062 126.601562 C 126.472656 128.101562 126.199219 129.730469 126.105469 131.359375 C 125.699219 129.375 125.355469 127.339844 125.351562 125.371094 C 125.332031 118.734375 127.382812 112.492188 130.308594 106.75 C 132.867188 101.722656 134.53125 100.453125 133.921875 95.757812 C 134.957031 96.660156 135.875 97.644531 136.609375 98.757812 C 138.285156 101.308594 138.191406 104.0625 137.082031 108.671875 C 135.972656 113.277344 133.222656 118.042969 131.589844 124.234375 C 129.953125 130.421875 128.949219 133.488281 131.695312 141 Z M 131.597656 99.734375 C 130.375 104.539062 126.65625 108.308594 125.207031 113.097656 C 122.984375 120.449219 121.988281 125.925781 124.535156 133.320312 C 123.117188 131.570312 121.28125 128.105469 120.90625 127.042969 C 116.785156 115.410156 121.074219 106.957031 124.316406 97.277344 C 125.847656 92.710938 127.605469 89.386719 126.488281 85.527344 C 126.984375 85.992188 128.625 86.480469 129.683594 88.035156 C 131.53125 90.746094 133.375 92.769531 131.597656 99.734375 Z M 121.054688 78.171875 C 123.511719 80.359375 125.363281 85.429688 124.433594 91.753906 C 123.753906 96.398438 121.066406 100.089844 119.785156 104.527344 C 117.460938 112.589844 116.089844 116.714844 118.519531 125.40625 C 116.882812 123.691406 116.523438 122.917969 114.953125 120.242188 C 112.964844 116.851562 113.195312 111.695312 114.398438 105.375 C 115.203125 101.164062 117.023438 97.308594 117.613281 93.683594 C 118.6875 87.078125 118.375 80.324219 115.628906 74.667969 C 118.242188 75.667969 119.683594 76.949219 121.054688 78.171875 Z M 111.8125 70.351562 C 114.328125 74.0625 115.570312 78.671875 116.015625 84.984375 C 116.382812 90.167969 114.96875 95.296875 113.777344 100.265625 C 112.285156 106.511719 110.984375 110.875 112.496094 117.621094 C 111.421875 116.125 110.992188 114.578125 109.558594 111.351562 C 107.507812 106.738281 108.476562 102.003906 110.082031 96.371094 C 111.253906 92.261719 111.988281 88.117188 111.894531 83.664062 C 111.875 82.746094 110.554688 71.449219 110.335938 83.980469 C 110.214844 90.902344 108.484375 95.511719 107.089844 102.101562 C 106.28125 105.902344 106.914062 109.710938 108.648438 113.253906 C 104.699219 107.839844 103.632812 101.820312 103.792969 95.769531 C 103.953125 89.527344 105.402344 83.246094 105.308594 77.367188 C 105.214844 71.398438 103.597656 65.390625 100.734375 60.402344 C 102.238281 61.125 103.742188 61.851562 105.582031 63.203125 C 107.425781 64.558594 109.296875 66.644531 111.8125 70.351562 Z M 92.71875 90.617188 C 91.238281 88.179688 90.164062 86.261719 88.742188 83.449219 C 85.605469 77.253906 86.871094 68.558594 85.671875 58.226562 C 84.96875 52.1875 82.753906 45.757812 79.285156 40.640625 C 80.308594 41.246094 81.210938 42.089844 83.042969 44.128906 C 84.875 46.164062 86.261719 50.28125 88.410156 54.472656 C 90.894531 59.316406 90.996094 64.351562 91.75 69.789062 C 93.453125 82.0625 91.894531 87.421875 95.171875 94.289062 C 94.605469 93.695312 93.453125 91.835938 92.71875 90.617188 Z M 94.109375 65.363281 C 93.492188 60.222656 91.84375 55.050781 89.324219 50.582031 C 90.734375 51.40625 91.253906 52.023438 92.066406 53.503906 C 93.707031 56.503906 96.277344 60.472656 96.824219 64.683594 C 97.414062 69.214844 98.308594 68.066406 98.210938 63.695312 C 98.160156 61.332031 97.191406 58.207031 95.632812 55.683594 C 96.570312 56.667969 97.671875 57.832031 98.296875 58.882812 C 99.605469 61.074219 100.761719 65.011719 101.785156 68.199219 C 103.621094 73.933594 103.460938 79.164062 102.996094 85.109375 C 102.386719 92.851562 100.753906 97.644531 102.597656 103.882812 C 100.476562 101.074219 98.929688 99.167969 98.054688 97.179688 C 94.496094 89.109375 95.488281 76.820312 94.109375 65.363281 Z M 75.738281 39.265625 C 76.742188 40.8125 78.90625 45.273438 79.871094 47.324219 C 82.605469 53.121094 83.441406 59.101562 83.546875 65.570312 C 83.671875 73.394531 82.457031 75.253906 86.539062 82.132812 C 84.179688 79.246094 81.460938 75.878906 80.988281 73.652344 C 80.046875 69.207031 80.941406 65.988281 80.367188 58.542969 C 79.765625 50.75 78.992188 53.257812 78.902344 58.734375 C 78.804688 64.859375 78.027344 69.015625 79.027344 74.574219 C 77.3125 72.164062 75.382812 62.664062 75.328125 62.015625 C 74.835938 56.367188 74.523438 50.703125 73.164062 43.625 C 72.527344 40.316406 71.617188 37.894531 69.28125 33.113281 C 72.726562 34.054688 73.636719 36.730469 75.738281 39.265625 Z M 60.242188 26.683594 C 67.910156 30.0625 69.988281 39.136719 71.683594 47.742188 C 73.34375 56.175781 71.648438 63.886719 75.246094 71.710938 C 72.933594 68.878906 71.683594 67.234375 69.820312 64.023438 C 64.894531 55.523438 64.375 48.140625 61.632812 38.546875 C 60.429688 34.234375 58.519531 29.675781 55.777344 25.984375 C 57.214844 26.167969 59.027344 26.152344 60.242188 26.683594 Z M 48.851562 21.09375 C 52.46875 23.5625 54.828125 26.902344 57.085938 31.09375 C 59.277344 35.148438 59.988281 40.046875 61.195312 44.582031 C 62.988281 51.335938 63.972656 55.914062 67.566406 61.992188 C 63.367188 56.601562 61.003906 53.105469 57.671875 48.511719 C 53.636719 42.949219 52.34375 36.003906 50.125 28.613281 C 49.171875 25.441406 47.597656 22.402344 45.429688 20.082031 C 46.632812 20.253906 47.898438 20.441406 48.851562 21.09375 Z M 42.777344 19.269531 C 44.503906 20.835938 44.667969 21.636719 46.371094 24.445312 C 48.070312 27.257812 48.882812 30.46875 49.71875 33.640625 C 50.957031 38.351562 52.03125 40.8125 52.789062 42.832031 C 51.015625 40.671875 50.886719 40.546875 50.019531 39.605469 C 48.40625 37.863281 47.753906 36.390625 46.128906 33.96875 C 44.503906 31.550781 43.191406 28.800781 41.953125 25.386719 C 40.585938 21.625 38.714844 17.644531 37.988281 16.371094 C 40.003906 17.148438 41.210938 17.855469 42.777344 19.269531 Z M 17.441406 7.8125 C 20.074219 8.59375 22.675781 9.164062 25.246094 10.03125 C 28.925781 11.28125 30.972656 12.582031 33.175781 14.648438 C 35.378906 16.71875 37.132812 19.207031 37.996094 20.886719 C 40.410156 25.582031 40.894531 26.355469 42.496094 30.726562 C 39.097656 26.734375 38.210938 25.234375 34.730469 21.460938 C 29.238281 15.507812 24.425781 9.457031 16.484375 8.8125 C 14.214844 8.628906 12.910156 8.476562 16.367188 9.707031 C 21.53125 11.539062 23.34375 12.894531 27.394531 16.964844 C 28.679688 18.242188 28.910156 18.632812 30.089844 20.023438 C 28.546875 18.902344 27.597656 18.222656 25.921875 17.378906 C 24.339844 16.582031 21.679688 16.472656 25.839844 18.824219 C 29.886719 21.109375 33.402344 23.90625 36.71875 27.109375 C 35.96875 26.691406 35.164062 26.4375 34.410156 26.132812 C 30.59375 24.546875 27.589844 23.398438 24.925781 19.851562 C 23.890625 18.472656 23.589844 18.871094 24.214844 20.179688 C 25.3125 22.464844 27.261719 25.050781 29.371094 26.011719 C 32.574219 27.472656 35.53125 28.019531 38.394531 30.195312 C 40.589844 31.867188 42.546875 33.148438 44.367188 35.289062 C 42.621094 34.160156 40.609375 33.523438 38.746094 32.96875 C 34.265625 31.628906 30.125 30.832031 26.5625 27.339844 C 25.652344 25.34375 24.640625 23.339844 23.574219 21.394531 C 20.183594 15.324219 13.871094 9.738281 10.679688 8.789062 C 3.859375 6.761719 9.96875 6.632812 11.328125 6.75 C 13.820312 6.960938 15 7.085938 17.441406 7.8125 Z M 17.441406 7.8125 "/>
</g>
</svg>
