<?xml version="1.0" encoding="UTF-8"?>
<svg id="Layer_1" data-name="Layer 1" xmlns="http://www.w3.org/2000/svg" xmlns:xlink="http://www.w3.org/1999/xlink" viewBox="0 0 1131.94 1131.94">
  <defs>
    <style>
      .grandmother-cls-1 {
        fill: url(#linear-gradient);
      }

      .grandmother-cls-1, .grandmother-cls-2, .grandmother-cls-3, .grandmother-cls-4, .grandmother-cls-5, .grandmother-cls-6, .grandmother-cls-7, .grandmother-cls-8, .grandmother-cls-9, .grandmother-cls-10, .grandmother-cls-11, .grandmother-cls-12, .grandmother-cls-13, .grandmother-cls-14, .grandmother-cls-15, .grandmother-cls-16, .grandmother-cls-17, .grandmother-cls-18, .grandmother-cls-19, .grandmother-cls-20, .grandmother-cls-21, .grandmother-cls-22 {
        stroke-width: 0px;
      }

      .grandmother-cls-2 {
        fill: #f9ead6;
      }

      .grandmother-cls-3 {
        fill: #27b5bb;
      }

      .grandmother-cls-4 {
        fill: #a3744f;
      }

      .grandmother-cls-5 {
        fill: #3e1609;
      }

      .grandmother-cls-6 {
        fill: #0c2524;
      }

      .grandmother-cls-7 {
        fill: #0f0906;
      }

      .grandmother-cls-8 {
        fill: #40827f;
      }

      .grandmother-cls-9 {
        fill: #1f5f51;
      }

      .grandmother-cls-10 {
        fill: #a96831;
      }

      .grandmother-cls-11 {
        fill: #ad8066;
      }

      .grandmother-cls-12 {
        fill: #e0bfaa;
      }

      .grandmother-cls-13 {
        fill: #c19b72;
      }

      .grandmother-cls-14 {
        fill: #addbdf;
      }

      .grandmother-cls-15 {
        fill: #aa6860;
      }

      .grandmother-cls-16 {
        fill: #935123;
      }

      .grandmother-cls-17 {
        fill: #67321b;
      }

      .grandmother-cls-18 {
        fill: #eaeff0;
      }

      .grandmother-cls-19 {
        fill: #03a5b4;
      }

      .grandmother-cls-20 {
        fill: #01818a;
      }

      .grandmother-cls-21 {
        fill: #033231;
      }

      .grandmother-cls-22 {
        fill: #6b2827;
      }
    </style>
    <linearGradient id="linear-gradient" x1="513.16" y1="211.08" x2="538.31" y2="227.16" gradientUnits="userSpaceOnUse">
      <stop offset="0" stop-color="#015761"/>
      <stop offset="1" stop-color="#05848a"/>
    </linearGradient>
  </defs>
  <path class="grandmother-cls-18" d="m579.24,946.23c3.53-.88,1.88,4.05,2.21,9.95-1.14,1.48-.66.75-2.21,1.11-2.9.66-9.2-1.49-11.05,1.66l-4.42,23.77c-4.53-3.97-15.61-2.56-25.42-36.48,6.29.34,31.68.1,40.9,0Z"/>
  <g>
    <path class="grandmother-cls-7" d="m517.33,602.45c-.15.93.55,7.84-2.21,18.79-3.42-.32-4.28-1.53-5.53.55-4.03,51.3-26.2,283.9-15.48,315.04.56,1.63,2.31,2.6,3.32,3.87-7.13-1.07-13.9-1.75-21-3.32-10.35-2.28-30.07-6.96-37.58-14.37-.81-.8-7.44-11.64-7.74-12.71-2.95-10.69,10.07-122.85,12.16-145.36,1.44-15.46,2.9-30.97,4.42-46.43,4.06-41.3,6.72-82.78,13.26-123.81,10.69,3.01,41.92,4.22,56.38,7.74Z"/>
    <path class="grandmother-cls-12" d="m526.18,434.43c-4.02-.78-1.39,4.68-2.21,9.4-3.1,17.92-14.38,48.19-21,66.32q10.5,27.36,21,54.72c-.46,3.66-.55,7.33-1.11,11.05-16.19,15.12-55.43-11.51-64.11-25.98-30.41-50.66,15.41-129.99,9.95-186.26.54-.6,1.1-4.01,11.05-11.05,29.87,21.13,41.28,46.49,46.43,81.8Z"/>
    <path class="grandmother-cls-5" d="m569.29,328.31c4.52,3.13,21.24,7.73,26.53,7.74-.03.73.06,1.48,0,2.21-2.67,30.89-72.55,18.34-91.2,9.95,3.01,7.58,10.9,9.64,14.92,16.58,5.46,9.43,34.85,131.06,36.48,146.47,3.71,35.21-.64,71.73-12.16,105.01-.76,3.13,3.44,4.51,6.63,7.19-5.06,10.83-27.11-1.43-35.37-2.21,2.76-10.95,2.06-17.86,2.21-18.79,1.39-8.88,4.21-17.65,5.53-26.53.55-3.73.64-7.4,1.11-11.05,5.47-43.22,8.52-87.11,2.21-130.44-5.14-35.31-16.56-60.67-46.43-81.8,17.43-12.34,71.61-28.08,72.96-34.27-2.84-13.27-5.21-27.03-9.95-39.79-3.02-8.13-7.31-14.45-11.05-22.11,4.25-4.35,9.11-7.09,11.05-8.84,8.94,16.15,14.25,72.21,26.53,80.7Z"/>
    <path class="grandmother-cls-11" d="m522.86,575.92c-1.32,8.88-4.14,17.65-5.53,26.53-14.45-3.52-45.69-4.72-56.38-7.74-18.7-5.28-38.35-24.71-43.11-43.66-7.81-31.08,19.13-137.49,35.37-166.92,3.45-6.24,10.57-15.06,15.48-20.45,5.46,56.27-40.36,135.6-9.95,186.26,8.68,14.47,47.93,41.1,64.11,25.98Z"/>
    <path class="grandmother-cls-12" d="m722.94,603.56c-4.25,6.99-14.18,15.59-19.9,22.11-5.35-2.96-9.09-16.6-15.48-16.58,29.56-72.27-14.98-175.83-30.95-248.72.8.52,4.64-1.29,14.37,11.61,11.99,15.89,53.9,119.2,58.59,140.39,6.1,27.55,8.66,66.04-6.63,91.2Z"/>
    <path class="grandmother-cls-17" d="m656.62,360.36c15.97,72.89,60.51,176.45,30.95,248.72-2.87,7.03-6.86,13.62-11.05,19.9-2.44,3.65-2.06,4.22-2.21,4.42-5.32,7.25-11.76,13.19-18.79,18.79l-6.63,2.21c19.33-20.99,31.59-86.01,33.16-114.41,3.07-55.46-19.65-117.36-46.43-165.26-5.37-9.61-12.13-20.23-15.48-29.85,13.26,5.12,18.47,3.72,36.48,15.48Z"/>
    <path class="grandmother-cls-10" d="m615.72,340.47c-5.9.66,2.86,3.82,4.42,4.42,3.35,9.62,10.1,20.23,15.48,29.85-39.3,14.47-80.78,14.33-116.07-9.95-4.02-6.94-11.92-9-14.92-16.58,18.65,8.39,88.52,20.94,91.2-9.95,4.37-1.37,17.42,2.49,19.9,2.21Z"/>
    <path class="grandmother-cls-2" d="m542.76,278.56c4.74,12.77,7.11,26.53,9.95,39.79-3.01-.26-2.53-6.19-4.42-9.95-4.74-9.44-9.31-4.77-16.58-8.84-5.89-3.3-15.86-16.36-15.48-23.21.35-6.39,6.51-9.19,9.95-13.26-3.01,14.32,5.46,35.99,16.58,15.48Z"/>
    <g>
      <g>
        <path class="grandmother-cls-19" d="m627.87,333.83c.19-.14,2.41-2.43,3.32-3.32,11.83-11.48,26.04-42.94,23.21-59.14-.72-4.1-3.26-4.68-3.32-4.97-.62-3.24-2.17-3.13-2.21-4.97,4.56-6.27,5.47-25.54,0-30.4,2.38-18.17-34.17-45.22-50.3-37.58-1.69.8-10.29,16.7-23.77,28.74-2.1,1.88-14.24,9.39-32.06,25.42-1.95,1.75-6.8,4.5-11.05,8.84-2.15,2.19-3.6,4.35-5.53,6.63-3.44,4.07-9.59,6.87-9.95,13.26-5.59-.48-12.32.66-17.69,0,33.86-38.51,62.11-45.62,84.01-98.38l6.08,1.11c55.81-20.91,66.91,49.18,105.57,79.04-20.32,32.5,4.29,30.92-22.66,52.51-4.19,3.35-40.6,25.46-43.11,25.42-.74-.01-.59-1.38-.55-2.21Z"/>
        <path class="grandmother-cls-1" d="m582.55,177.97c-21.9,52.76-50.15,59.87-84.01,98.38-25.19-3.08-26.75-27.96-9.95-43.11,5.35-4.82,12.35-6.4,13.26-8.29-2.43-12.41,12.23-27.09,11.05-38.69,4.48-1.75,8.72-6.07,12.16-8.29,18.2-11.76,40.4-15.89,57.48,0Z"/>
        <path class="grandmother-cls-6" d="m525.07,177.97c-3.44,2.22-7.68,6.54-12.16,8.29,1.17,11.6-13.48,26.28-11.05,38.69-.92,1.89-7.92,3.47-13.26,8.29l-3.32-2.21c2.86-23.13,17.55-44.84,39.79-53.06Z"/>
      </g>
      <g>
        <path class="grandmother-cls-21" d="m488.59,233.24c-16.8,15.15-15.24,40.03,9.95,43.11,5.36.66,12.1-.48,17.69,0-.38,6.85,9.58,19.91,15.48,23.21,3.27,10.52-13.44,9.83-22.66,8.84-10.05-1.07-27.67-11.32-28.19-6.63-7.32-4.86-15.06,2.51-18.79-22.66-3.14-21.21,4.51-37.09,23.21-48.09l3.32,2.21Z"/>
        <path class="grandmother-cls-21" d="m531.7,299.57c7.27,4.07,11.84-.59,16.58,8.84-16.18,9.5-58.04,11.09-67.43-6.63.52-4.68,18.14,5.56,28.19,6.63,9.22.99,25.93,1.67,22.66-8.84Z"/>
      </g>
    </g>
    <path class="grandmother-cls-16" d="m631.19,330.52c-.91.88-3.13,3.18-3.32,3.32-1.95,1.47-10.72,6.47-12.16,6.63-2.47.28-15.53-3.58-19.9-2.21.06-.73-.03-1.48,0-2.21,9.75,0,30.73-6.37,36.48-15.48,7.02,1.13.43,4.2-1.11,9.95Z"/>
    <g>
      <path class="grandmother-cls-14" d="m737.31,898.7c.9,4.2,1.07,3.14,1.11,3.32.63,3.57-.45,9.23,0,13.26-6.9,4.46-14.02,11.66-23.21,15.48-17.49,5.06-35.08,8.3-53.06,11.05,2.76-8.01,7.77-15.53,9.95-23.77,13.33-50.32-3.73-199.74-7.74-260.32,9.84,4.06,3.93,14.38,9.95-24.32,1.85-2.38,6.13,26.06,6.63,28.19,6.52,27.42,15.56,54.38,22.11,81.8,11.71,49.06,20.74,98.75,30.95,148.13.92,4.46,3.23,6.8,3.32,7.19Z"/>
      <g>
        <path class="grandmother-cls-14" d="m703.04,625.66c14.18,35.13,67.78,227.23,68.54,249.27.28,8.07-3.49,13.54-10.5,18.24-11.39,7.62-22.91,5.11-22.66,8.84-.03-.17-.21.88-1.11-3.32-14.32-91.16-40.24-179.9-60.8-269.72,4.2-6.27,8.18-12.87,11.05-19.9,6.39-.02,10.12,13.62,15.48,16.58Z"/>
        <path class="grandmother-cls-8" d="m737.31,898.7c-.08-.39-2.39-2.72-3.32-7.19-10.22-49.38-19.24-99.06-30.95-148.13-6.55-27.42-15.58-54.38-22.11-81.8-.51-2.13-4.79-30.56-6.63-28.19.15-.2-.23-.77,2.21-4.42,20.56,89.82,46.48,178.57,60.8,269.72Z"/>
      </g>
      <path class="grandmother-cls-3" d="m664.35,657.72c-3.66-1.51-2.56-3-13.26-1.11.42-.27,3.64-3.8,4.42-4.42,7.03-5.6,13.47-11.54,18.79-18.79-6.02,38.7-.11,28.37-9.95,24.32Z"/>
    </g>
    <path class="grandmother-cls-7" d="m563.76,982.71l4.42-23.77c1.85-3.15,8.15-1,11.05-1.66,2.07,7.41,3.98,14.08,10.5,18.79,6.75,4.87,57.07,21.08,49.19,1.11,3.01,1.17,6.82,2.32,9.95,3.32-2.54,6.42,19.16,18.46,1.11,26.53-11.8,5.28-40.02.6-53.61-1.11-2.58,1.82,7.39,18.26-8.29,24.32-10.58,4.09-21.46.82-32.06-1.11-10.99-1.99-46.56-12.21-51.95-21.56-4.97-8.61,1.34-28.51,4.42-38.14,1.59-4.97,2.06-10.61,7.74-12.16,1.09,5.33,10.83,17.28,11.05,19.34,1.31,11.94-19.65,14.74,18.24,22.66,32.54,6.8,42.32,4.54,18.24-16.58Z"/>
    <path class="grandmother-cls-11" d="m526.18,434.43c6.31,43.33,3.26,87.22-2.21,130.44q-10.5-27.36-21-54.72c6.63-18.13,17.9-48.4,21-66.32.82-4.71-1.81-10.17,2.21-9.4Z"/>
    <path class="grandmother-cls-12" d="m635.61,374.74c26.77,47.9,49.49,109.8,46.43,165.26-1.57,28.4-13.83,93.42-33.16,114.41-2.58,2.8-6.46,4.69-8.84,7.74-6.35,1.16-12.31-.65-18.79-2.21-7.37-1.78-16.19-5.75-23.21-8.84-8.3-3.66-41.61-22.68-47.53-27.64-3.19-2.67-7.39-4.05-6.63-7.19,11.52-33.28,15.87-69.81,12.16-105.01-1.62-15.4-31.02-137.04-36.48-146.47,35.29,24.28,76.77,24.42,116.07,9.95Z"/>
    <path class="grandmother-cls-16" d="m606.87,326.1c-17.5,5.44-18.24,5.26-37.58,2.21-12.28-8.49-17.59-64.55-26.53-80.7,17.81-16.04,29.96-23.55,32.06-25.42,14.18.95,41.72,18.2,35.37,34.82-1.28,3.34-46.86,17.43-53.61,20.45,6,34.3,19.97,38.63,50.3,48.64Z"/>
    <path class="grandmother-cls-10" d="m632.3,320.57c-5.75,9.1-26.73,15.48-36.48,15.48-5.29,0-22.01-4.61-26.53-7.74,19.35,3.05,20.09,3.23,37.58-2.21.57-.18,3.42-1.98,6.63-3.32,1.98-.83,13.18-2.64,19.9-9.95,3.01,2.47.34,5.46-1.11,7.74Z"/>
    <path class="grandmother-cls-13" d="m542.76,278.56c-11.12,20.51-19.59-1.16-16.58-15.48,1.93-2.28,3.38-4.44,5.53-6.63,3.75,7.66,8.04,13.98,11.05,22.11Z"/>
    <path class="grandmother-cls-10" d="m648.88,231.03c-2.87-2.55-9.98-3.7-13.82-3.32-19.96,1.98-19.28,21.59-18.24,36.48.21,2.94-1.08,5.25,0,8.29,18.73,1.19,41.75,5.43,34.27-6.08.06.29,2.6.87,3.32,4.97,2.82,16.19-11.39,47.66-23.21,59.14,1.53-5.75,8.13-8.82,1.11-9.95,1.44-2.28,4.12-5.26,1.11-7.74,6.09-6.62,10.58-16.05-2.76-11.05-40.15-26.88-30.3-3.71,1.66,2.76-11.62,8.64-46.05,5.88-18.79,18.24-3.21,1.34-6.06,3.14-6.63,3.32-30.33-10.01-44.3-14.34-50.3-48.64,6.75-3.02,52.34-17.11,53.61-20.45,6.35-16.62-21.19-33.87-35.37-34.82,13.48-12.04,22.08-27.94,23.77-28.74,16.13-7.64,52.68,19.41,50.3,37.58Z"/>
    <path class="grandmother-cls-16" d="m648.88,231.03c5.47,4.86,4.56,24.12,0,30.4.04,1.85,1.59,1.74,2.21,4.97-2.41-3.71-28.19-1.67-34.27-2.21-1.04-14.88-1.72-34.5,18.24-36.48,3.83-.38,10.95.77,13.82,3.32Z"/>
    <path class="grandmother-cls-9" d="m655.51,652.19c-.78.62-4,4.15-4.42,4.42-3.96,2.52-5.98,4.6-11.05,5.53,2.38-3.05,6.26-4.94,8.84-7.74l6.63-2.21Z"/>
    <g>
      <path class="grandmother-cls-15" d="m664.35,657.72c4,60.59,21.07,210.01,7.74,260.32-2.18,8.23-7.19,15.75-9.95,23.77-24.71,3.79-57.49,4.44-58.59,7.19-4.17,10.45,23.02,22.77,29.85,27.08-13.8-5.3-32.13-11.75-32.61-29.85-27.6-1.84-14.55,3.71-19.34,9.95-.33-5.89,1.32-10.83-2.21-9.95.12,0-.73-1.04,2.21-1.11,14.14-.3,28.41,0,42.56,0,3.18-1.05,10.01-45.6,10.5-52.51,5.35-75.49-14.19-156.63-13.26-232.69,6.49,1.56,12.45,3.37,18.79,2.21,5.08-.93,7.09-3,11.05-5.53,10.71-1.9,9.61-.4,13.26,1.11Z"/>
      <path class="grandmother-cls-22" d="m515.12,621.24c8.27.78,30.31,13.04,35.37,2.21,5.93,4.96,39.23,23.98,47.53,27.64-6.44,94.92,7.27,203.13-16.58,294.04-2.94.06-2.09,1.1-2.21,1.11-9.22.1-34.61.34-40.9,0-4.42-.24-16.15-1.61-22.11-2.21-4.72-.47-13.15-2.47-18.79-3.32-1-1.27-2.75-2.24-3.32-3.87-10.72-31.14,11.44-263.74,15.48-315.04,1.25-2.08,2.11-.88,5.53-.55Z"/>
      <path class="grandmother-cls-15" d="m621.24,659.93c-.92,76.06,18.62,157.2,13.26,232.69-.49,6.9-7.32,51.45-10.5,52.51-14.15,0-28.42-.3-42.56,0,23.85-90.91,10.15-199.12,16.58-294.04,7.02,3.09,15.84,7.07,23.21,8.84Z"/>
    </g>
    <g>
      <path class="grandmother-cls-11" d="m633.4,976.08c3.65,1.4,5.26,1,5.53,1.11,7.88,19.98-42.44,3.77-49.19-1.11-6.52-4.71-8.43-11.38-10.5-18.79,1.55-.35,1.07.38,2.21-1.11,4.79-6.24-8.26-11.79,19.34-9.95.48,18.09,18.8,24.55,32.61,29.85Z"/>
      <path class="grandmother-cls-4" d="m538.34,946.23c9.81,33.92,20.89,32.5,25.42,36.48,24.08,21.12,14.3,23.38-18.24,16.58-37.89-7.92-16.93-10.72-18.24-22.66-.23-2.07-9.97-14.02-11.05-19.34-.13-.65,1.29-10.72,0-13.26,5.96.6,17.68,1.97,22.11,2.21Z"/>
    </g>
    <g>
      <path class="grandmother-cls-19" d="m675.41,990.45c26.02,27.44,16.47,29.15-20.45,38.69-27.6,7.13-76.79,14.86-104.46,12.16,3.53-3.64,4.28-7.05,5.53-12.16,10.6,1.92,21.48,5.2,32.06,1.11,4.09,4.2,29.15-1.49,37.03-4.42,4.71-1.75,27.2-13.67,24.87-18.79,18.05-8.07-3.65-20.11-1.11-26.53,9,2.87,17.41,7.41,26.53,9.95Z"/>
      <path class="grandmother-cls-20" d="m556.02,1029.14c-1.24,5.11-2,8.52-5.53,12.16-2.35-.23-2.5-1-3.32-1.11-24.5-3.07-65.62-14.75-78.48-37.03,2.17-1.72,3.7-4.07,5.53-6.08,5.3-5.8,26.23-19.65,34.27-27.64-3.08,9.63-9.39,29.53-4.42,38.14,5.39,9.34,40.97,19.56,51.95,21.56Z"/>
      <path class="grandmother-cls-20" d="m649.98,1007.03c2.33,5.13-20.16,17.04-24.87,18.79-7.88,2.93-32.94,8.62-37.03,4.42,15.68-6.06,5.71-22.49,8.29-24.32,13.59,1.7,41.82,6.38,53.61,1.11Z"/>
    </g>
    <path class="grandmother-cls-16" d="m633.4,312.83c-6.72,7.31-17.91,9.12-19.9,9.95-27.26-12.36,7.18-9.6,18.79-18.24-31.95-6.47-41.81-29.65-1.66-2.76,13.35-4.99,8.85,4.43,2.76,11.05Z"/>
    <path class="grandmother-cls-10" d="m651.09,266.4c7.48,11.51-15.54,7.27-34.27,6.08-1.08-3.04.21-5.35,0-8.29,6.07.54,31.85-1.5,34.27,2.21Z"/>
  </g>
</svg>