<?xml version="1.0" encoding="UTF-8"?>
<svg xmlns="http://www.w3.org/2000/svg" xmlns:xlink="http://www.w3.org/1999/xlink" width="200px" height="200px" viewBox="0 0 200 150" version="1.1">
<g id="surface1">
<path style="fill-rule:evenodd;fill:rgb(100%,100%,100%);fill-opacity:1;stroke-width:3;stroke-linecap:butt;stroke-linejoin:miter;stroke:rgb(0%,0%,0%);stroke-opacity:1;stroke-miterlimit:4;" d="M 253.353067 174.33742 C 247.350357 147.883091 236.713031 136.490576 227.021075 122.036466 C 219.32746 116.32867 214.662101 110.536257 208.551787 107.913132 C 177.662039 101.851483 139.309254 113.836317 120.232779 144.267641 C 99.949612 189.676161 90.096251 235.092373 79.320579 280.508586 L 247.504075 312.201471 C 253.391497 281.239368 254.313808 225.576815 253.353067 174.33742 Z M 253.353067 174.33742 " transform="matrix(-0.508234,0,0,0.507803,185.41888,-53.263482)"/>
<path style="fill-rule:evenodd;fill:rgb(0%,0%,0%);fill-opacity:1;stroke-width:0.99793;stroke-linecap:butt;stroke-linejoin:miter;stroke:rgb(0%,0%,0%);stroke-opacity:1;stroke-miterlimit:4;" d="M 119.21055 225.9999 C 159.738453 226.330675 204.140064 237.09241 252.17712 262.646722 C 252.069517 281.162444 249.648449 296.393491 247.926801 309.247571 C 195.900749 293.716519 148.762947 263.462121 91.08005 282.716318 L 79.335951 280.500893 L 96.052846 226.75376 C 103.731089 226.222981 111.43239 225.93836 119.21055 225.9999 Z M 119.21055 225.9999 " transform="matrix(-0.508234,0,0,0.507803,185.41888,-53.263482)"/>
<path style="fill-rule:evenodd;fill:rgb(100%,100%,100%);fill-opacity:1;stroke-width:3;stroke-linecap:butt;stroke-linejoin:miter;stroke:rgb(0%,0%,0%);stroke-opacity:1;stroke-miterlimit:4;" d="M 157.117551 264.908302 C 93.401201 196.168587 -42.170899 198.860944 -25.231112 301.316658 C -23.263514 318.440047 -18.47518 325.586331 -6.477445 337.071155 C 75.554474 413.611012 263.613782 426.14201 353.900389 333.563399 C 381.831054 292.570344 338.728365 291.508786 300.513927 292.370341 C 257.918509 286.11638 198.959748 294.97808 157.125237 264.908302 Z M 157.117551 264.908302 " transform="matrix(-0.508234,0,0,0.507803,185.41888,-53.263482)"/>
<path style="fill-rule:evenodd;fill:rgb(0%,0%,0%);fill-opacity:1;stroke-width:1;stroke-linecap:butt;stroke-linejoin:miter;stroke:rgb(0%,0%,0%);stroke-opacity:1;stroke-miterlimit:4;" d="M 249.740443 380.252562 C 249.737566 401.721105 206.279733 428.299317 154.070499 428.297073 C 101.860166 428.304063 59.492702 410.881347 59.495579 389.412805 C 74.151942 344.903466 163.224585 360.43073 201.658908 356.392369 C 229.274261 360.156183 249.74025 367.431019 249.740443 380.252562 Z M 249.740443 380.252562 " transform="matrix(0.452653,-0.0398966,0.0539185,0.418303,13.666299,-39.850875)"/>
<path style="fill-rule:evenodd;fill:rgb(100%,100%,100%);fill-opacity:1;stroke-width:1.9862;stroke-linecap:butt;stroke-linejoin:miter;stroke:rgb(0%,0%,0%);stroke-opacity:1;stroke-miterlimit:4;" d="M -132.707303 493.905131 C -132.707005 509.066157 -165.180378 521.367883 -205.165728 521.362375 C -245.164984 521.363485 -282.835857 505.648754 -282.843554 490.50802 C -282.843852 475.346994 -245.172171 466.441214 -205.172914 466.440103 C -165.173657 466.438993 -132.707601 478.744105 -132.707303 493.905131 Z M -132.707303 493.905131 " transform="matrix(0.229005,0.110848,-0.108991,0.232914,204.053786,-78.338806)"/>
<path style="fill-rule:evenodd;fill:rgb(100%,100%,100%);fill-opacity:1;stroke-width:2.7209;stroke-linecap:butt;stroke-linejoin:miter;stroke:rgb(0%,0%,0%);stroke-opacity:1;stroke-miterlimit:4;" d="M -120.077239 493.736034 C -120.080288 508.889464 -162.76611 526.098301 -202.756168 526.09371 C -242.746225 526.089118 -277.623128 509.051879 -277.620079 493.898449 C -277.629622 478.733033 -245.159565 466.434019 -205.169507 466.438611 C -165.17945 466.443202 -120.074191 478.582605 -120.077239 493.736034 Z M -120.077239 493.736034 " transform="matrix(-0.106973,0.175223,0.112371,0.141814,-7.689692,-13.552761)"/>
</g>
</svg>
