<?xml version="1.0" encoding="UTF-8"?>
<svg id="Layer_1" data-name="Layer 1" xmlns="http://www.w3.org/2000/svg" viewBox="0 0 1168.96 1169">
  <defs>
    <style>
      .jump-cls-1 {
        fill: #f7caa0;
      }

      .jump-cls-1, .jump-cls-2, .jump-cls-3, .jump-cls-4, .jump-cls-5, .jump-cls-6, .jump-cls-7, .jump-cls-8, .jump-cls-9, .jump-cls-10, .jump-cls-11, .jump-cls-12, .jump-cls-13, .jump-cls-14, .jump-cls-15, .jump-cls-16, .jump-cls-17, .jump-cls-18, .jump-cls-19, .jump-cls-20, .jump-cls-21, .jump-cls-22, .jump-cls-23, .jump-cls-24, .jump-cls-25, .jump-cls-26, .jump-cls-27, .jump-cls-28, .jump-cls-29, .jump-cls-30, .jump-cls-31, .jump-cls-32, .jump-cls-33, .jump-cls-34 {
        stroke-width: 0px;
      }

      .jump-cls-2 {
        fill: #f7aa77;
      }

      .jump-cls-3 {
        fill: #f9ddb3;
      }

      .jump-cls-4 {
        fill: #f8efca;
      }

      .jump-cls-5 {
        fill: #f8e4df;
      }

      .jump-cls-6 {
        fill: #62101c;
      }

      .jump-cls-7 {
        fill: #552311;
      }

      .jump-cls-8 {
        fill: #974d2d;
      }

      .jump-cls-9 {
        fill: #340d0d;
      }

      .jump-cls-10 {
        fill: #1d110d;
      }

      .jump-cls-11 {
        fill: #09b7b8;
      }

      .jump-cls-12 {
        fill: #100c0c;
      }

      .jump-cls-13 {
        fill: #0c1210;
      }

      .jump-cls-14 {
        fill: #230d0b;
      }

      .jump-cls-15 {
        fill: #106569;
      }

      .jump-cls-16 {
        fill: #d23a53;
      }

      .jump-cls-17 {
        fill: #cb7e4e;
      }

      .jump-cls-18 {
        fill: #e39364;
      }

      .jump-cls-19 {
        fill: #d76341;
      }

      .jump-cls-20 {
        fill: #d6516e;
      }

      .jump-cls-21 {
        fill: #d87b55;
      }

      .jump-cls-22 {
        fill: #ac5a3d;
      }

      .jump-cls-23 {
        fill: #bb2842;
      }

      .jump-cls-24 {
        fill: #a1a09d;
      }

      .jump-cls-25 {
        fill: #742f12;
      }

      .jump-cls-26 {
        fill: #331506;
      }

      .jump-cls-27 {
        fill: #8e9e9d;
      }

      .jump-cls-28 {
        fill: #9e1d31;
      }

      .jump-cls-29 {
        fill: #6a9395;
      }

      .jump-cls-30 {
        fill: #ffe5ce;
      }

      .jump-cls-31 {
        fill: #e4cf94;
      }

      .jump-cls-32 {
        fill: #fcf1db;
      }

      .jump-cls-33 {
        fill: #fcfcfc;
      }

      .jump-cls-34 {
        fill: #043f44;
      }
    </style>
  </defs>
  <path class="jump-cls-29" d="m834.48,1012.57q4,2.85,7.99,5.71c-14.51,36.83-27.51,36.77-63.93,44.52-1.73-3.34-6.89-5.38-10.27-6.85-5.8-2.52-12.34-4.95-18.84-4.57-48.5,10.32-98.43,11.37-147.83,12.56-18.32.44-36.42,1.64-54.8,1.14-9.64-.26-18.9-.33-28.54-1.14-18.15-1.53-72.03-9.09-79.91-27.4,5.11-.5,11.74,1.6,14.84-2.28,50.4,20.78,143.01,14.23,195.78,0,16.6-4.48,68.01-27.86,78.77-25.11,5.98,1.53,45.09,62.86,106.74,3.42Z"/>
  <path class="jump-cls-27" d="m778.55,1062.8c-85.44,18.2-146,8.62-231.17,7.99l-.57-5.71c18.37.5,36.48-.7,54.8-1.14.18,1.26-.54,3.96.57,4.57,2.96,1.61,59.26.34,67.35,0,10.97-.47,92.46-7.44,97.03-9.13,1.05-.39,2.05-2.14,1.71-3.42,3.38,1.47,8.54,3.51,10.27,6.85Z"/>
  <path class="jump-cls-24" d="m842.47,1018.28q-4-2.85-7.99-5.71c1.13-1.09,13.54-16.22,14.84-18.27,1.37,7.44-3.97,16.67-6.85,23.97Z"/>
  <path class="jump-cls-24" d="m768.27,1055.95c.34,1.28-.66,3.04-1.71,3.42-4.57,1.69-86.07,8.67-97.03,9.13-8.09.34-64.39,1.61-67.35,0-1.12-.61-.39-3.31-.57-4.57,49.4-1.19,99.33-2.24,147.83-12.56,6.5-.39,13.04,2.05,18.84,4.57Z"/>
  <g>
    <path class="jump-cls-33" d="m852.75,204.34c7.76,20.02-7.23,79.01-13.7,101.03-18.75,63.8-58.33,143.53-110.73,186.07.16,1.12,15.81,4.48,21.69,6.28,14.47,4.42,29.72,7.45,38.81,21.12,16.29,24.48,13.03,109.68,4.57,140.41,88.04,28.85,72.41,70.36,11.42,121.01,36.81,51.43,74.02,96.79,62.79,164.39-2.5,15.06-10.07,36.8-18.27,49.66-1.3,2.05-13.71,17.17-14.84,18.27-61.64,59.43-100.76-1.9-106.74-3.42-10.76-2.75-62.17,20.64-78.77,25.11-52.77,14.23-145.38,20.78-195.78,0-4.56-1.88-12.77-7.3-17.12-10.27-9.35-6.38-23.07-19.47-29.68-28.54-38.16-52.37,2.51-75.52,57.65-62.79q7.71-11.13,15.41-22.26c-19.02-13.04-32.56-31.96-42.24-52.51-32.59-97.09-62.95-183.55-71.92-287.1-3.99-7.03-78.63-16.07-133.56-86.76-12.36-15.91-20.12-26.6-21.69-48.52-3.98-55.59,37.09-80.55,87.9-65.07,8.58-75.04,70.77-180.04,128.43-227.74,119.34-98.75,269.45-66.32,356.17,54.8,17.82-15.28,60.27-18.79,70.21,6.85Z"/>
    <g>
      <path class="jump-cls-24" d="m453.2,1034.26c-3.1,3.89-9.73,1.79-14.84,2.28-1.95-4.53-3.09-7.49-2.28-12.56,4.36,2.97,12.56,8.39,17.12,10.27Z"/>
      <g>
        <path class="jump-cls-5" d="m704.92,657.54q31.39,21.69,62.79,43.38,8.56-9.13,17.12-18.27c10.2,2.12,44.47,13.58,46.23,25.69,3.35,22.99-55.32,54.94-51.37,77.63,2.87,16.5,94.53,91.82,55.94,180.37-22.82,52.36-74.99,55.16-77.63,42.24-.74-3.63,26.56-30.67,31.96-66.21,4.11-26.98-3.97-86.31-32.53-98.75-17.35-7.55-22.7,10.85-54.22-14.27,6.89-57.23,15.43-114.79,1.71-171.81Z"/>
        <path class="jump-cls-5" d="m778.55,237.45c-8.63,8.93-17.91,26.23-13.7,37.67-2.08.26-2.71-1.58-5.14-1.14-14.01,2.56-16.4,20.27-45.09-9.13-14.14-14.49,12.23-18.26-13.7-46.23,4.16-14.09-9.97-28.26-20.55-36.53,4.48-9.25-17.1-23-26.83-21.12-12.99-22.2-41.09-13.89-62.22-11.42-5.3.62-9.58.12-15.98,1.14-10.76-25.79-28.75-13.77-31.39-14.84-1.72-.69-4.57-15.5-33.11-2.28-2.23,1.03-3.25,5.28-4.57,5.71-13.9-2.94-29.67.74-37.67,13.7-1.6.23-3.78-.35-5.14,0,82.19-80.61,218.34-43.05,285.39,39.38,11.51,14.15,18.7,30.73,29.68,45.09Z"/>
        <path class="jump-cls-5" d="m474.89,566.22c-7.37,38.55-15.03,77.02-15.98,116.44-7.57,3.2-10.99,4.6-6.85,14.27,6.64,15.48,39.69,1.61,39.95,5.71-19.62,27.45-37.03,56.77-50.23,87.9l-2.28-1.14c-26.18-69.48-42.85-141.82-50.23-215.76,28.75,3.48,58.32,3.34,85.62-7.42Z"/>
        <path class="jump-cls-5" d="m498.29,924.67l41.67,16.55c-15.33,34.53-21.66,41.39-19.98,81.62-36.31-3.48-67.77-8.36-91.9-38.24-33.91-41.99-2.19-28.13,46.23-30.25,12.55-5.11,17.2-18.97,23.97-29.68Z"/>
        <path class="jump-cls-5" d="m706.06,934.94q.57,25.69,1.14,51.37c-34.24,16.38-71.55,29.65-109.02,33.68q19.12-39.1,38.24-78.2c22.67,4.73,50.11,7.85,69.64-6.85Z"/>
        <g>
          <path class="jump-cls-9" d="m506.85,505.71c-8.6,27.05-9.73,31.22,6.85,53.65,2.7,3.65,9.23,7.49,10.27,9.13,7.28,11.43,12.32,48.79,11.42,62.79-.12,1.83-.88,8.95-1.14,10.27-.87,4.36-2.67,11.57-5.71,14.84-7.11,7.64-54.45,21.3-67.35,26.26,4.95-48.39,12.27-121.11,31.96-164.96,7.19-16.01,19.62-30.84,20.55-32.53-1.82,7.01-4.65,13.64-6.85,20.55Z"/>
          <g>
            <path class="jump-cls-16" d="m531.97,445.21c.32,1.48-.56,2.26-1.14,3.42-4.98,10.09-10.19,20.08-13.7,30.82-.52,2.12-2.59,4.18-3.42,5.71-.93,1.7-13.36,16.53-20.55,32.53-19.7,43.84-27.01,116.57-31.96,164.96-.54.21-1.79-.21-2.28,0,.96-39.42,8.62-77.89,15.98-116.44,1.74-9.13,3.83-18.27,5.71-27.4.23-1.1,4.91-8.82,5.71-15.41,1.68-13.86-1.2-41.58.57-58.79-21.69,84.42-126.56,79.42-185.5,37.67,10.49-9.87,13.3-20.07,10.27-34.25,1.81-1.09.4-2.86,5.14-2.28,13.77,1.68,52.53,45.49,131.28,10.27,21.64-9.68,59.68-44.42,83.9-30.82Z"/>
            <path class="jump-cls-6" d="m480.6,538.82c-59.95,26.91-139.41,11.22-189.5-30.25-.02-2.29,4.2-2.78,5.71-4,3.46-2.8,4.38-2.11,4.57-2.28,58.95,41.75,163.81,46.75,185.5-37.67-1.77,17.21,1.11,44.93-.57,58.79-.8,6.59-5.48,14.31-5.71,15.41Z"/>
          </g>
          <g>
            <path class="jump-cls-16" d="m781.97,301.37c1.12-.24,3.01.27,3.42,0,3.99-2.01-2.09,22.92-4.57,32.53-18.46,71.8-60.22,140.55-139.27,151.83,8.53,62.07,65.31,69.59,115.3,85.62-22.05-10.96-47.69-25.03-65.07-41.67q39.38,12.84,78.77,25.69c2.04,34.97,3.56,64.71-5.71,98.75-49.29-62.4-126.99-82.51-166.67-154.11-5.08-16.97-8.08-50.79,1.14-66.21.93-1.56,1.25-3.43,2.85-4.57.89-.15,2.08.23,2.85,0,12.28-3.65,45.39,3.26,78.2-26.26,28.22-25.39,53.91-85.43,71.92-119.86,5.77,11.62,12.75,21.32,26.83,18.27Z"/>
            <path class="jump-cls-6" d="m674.66,501.15c.4,1.15.65,2.24,1.14,3.42,2.58,6.28,10.47,21.81,15.98,25.11,17.38,16.64,43.02,30.71,65.07,41.67-49.99-16.02-106.77-23.55-115.3-85.62,79.05-11.28,120.81-80.02,139.27-151.83,2.47-9.62,8.56-34.55,4.57-32.53.45-.29,2.05-1.63,2.28-2.28,2.39,1.86,5.12.6,5.71,1.71,2.64,5-11.27,70.37-18.27,89.04-19.18,51.19-53.43,85.14-103.88,105.02,1.18,1.81,2.74,4.3,3.42,6.28Z"/>
            <path class="jump-cls-9" d="m764.85,654.12c-1.65,6.05-2.46,12.44-5.14,18.27-26.95-36.29-67.36-59.68-94.75-95.89q-12.84,4.57-25.69,9.13c-5.78-13.41-10.87-27.36-17.12-40.53-7.38-15.53-18.85-27.99-23.97-45.09,39.68,71.6,117.38,91.71,166.67,154.11Z"/>
          </g>
        </g>
        <path class="jump-cls-5" d="m675.81,504.57c-.49-1.19-.74-2.27-1.14-3.42,2.27-1.38,6.13-1.61,8.56-1.14,4.37.84,80.33,27.54,83.33,30.82.34.37,3.95,7,4,7.42,1.22,10.51-7.18.47-16.55-2.85-13.71-4.87-49.76-13.12-59.36-18.27-9.74-5.22-14.09-16.76-18.84-12.56Z"/>
        <path class="jump-cls-5" d="m813.36,206.62c29.4-3.33,13.24,30.23,6.85,44.52-3.07-4.27-25.52-30.47-25.69-32.53-.38-4.82,15.09-11.56,18.84-11.99Z"/>
        <path class="jump-cls-5" d="m580.49,810.51c4.27.77,6.84,58.39,5.71,66.21-1.98.34-2.82-.23-4-1.71-1.43-1.8-20.25-38.82-20.55-41.1-1.71-12.94,9.67-17.76,18.84-23.4Z"/>
        <path class="jump-cls-30" d="m301.37,502.29c-.19.17-1.1-.52-4.57,2.28l-2.28-4.57c5.58-1.1,14.25-12.29,11.42-28.54,4.34.83,3.87-2.31,5.71-3.42,3.03,14.18.22,24.38-10.27,34.25Z"/>
        <g>
          <path class="jump-cls-28" d="m767.13,892.7c1.84,21.39-2.64,80.35-20.55,93.61l-2.28-2.28c4.48-2.45,7.28-10.01,5.14-11.42-46.22,8.71-28.42-8.57-33.68-50.23,19.93-2.76,47.5-10.57,33.11-23.97,7.62-13.38-2.77-28.54-10.84-38.81,20.86-2.69,27.59,15.39,29.11,33.11Z"/>
          <path class="jump-cls-6" d="m715.76,922.38c-.23-1.85.16-3.84,0-5.71,1.52-.51,27.28-13.79,28.54-14.84.83-.69,4.43-3.18,4.57-3.42,14.39,13.4-13.18,21.21-33.11,23.97Z"/>
          <path class="jump-cls-2" d="m728.32,993.16c11.23-1.76,10.17-.86,18.27-6.85,17.91-13.26,22.39-72.22,20.55-93.61,5.99,14.31-1.32,67.6-6.85,81.62-5.94,15.08-15.09,24.64-31.96,18.84Z"/>
          <path class="jump-cls-19" d="m744.3,984.03l2.28,2.28c-8.09,5.99-7.03,5.09-18.27,6.85-4.75-1.64-12.73-7.19-10.84-12.56,1.24-.67,14.67,10.06,26.83,3.42Z"/>
        </g>
        <path class="jump-cls-33" d="m764.85,275.12c.43,1.16,1.65,3.76,2.28,4.57,2.83,7.8,6.13,23.06,14.84,21.69-14.08,3.06-21.06-6.65-26.83-18.27-18.01,34.43-43.7,94.48-71.92,119.86-32.81,29.52-65.91,22.61-78.2,26.26-5.13-3.24-15.63.06-18.27,0-13.64-.32-7.66-.99-9.13-13.7,12.28-13.87,11.34-.78,19.98,0,5.91.53,35.15-9.17,42.24-13.7,37.09,1.56,36.25-20.24,41.1-23.97,2.12,1.81,8.92-2.56,11.42-4.57,23.84-19.16,5.35-26.14,15.41-42.81-8.1-15.56,2.3-20.57-2.28-38.81,5.88-7.64,12.05-16.75,9.13-26.83,28.69,29.41,31.08,11.7,45.09,9.13,2.42-.44,3.06,1.4,5.14,1.14Z"/>
        <g>
          <path class="jump-cls-5" d="m397.26,242.01c0,.14-6.04,9.05-6.85,14.27-.9,5.8.36,43.63,11.42,38.24,1.14,1.94,13.89,12.09,17.12,15.41-6.99,11.98-8.25,28.65,4.57,36.53-12.56,29.43,2.57,31.45,3.42,33.11,5.29,10.2-3.85,9.35,20.55,24.54,4.96,15.32,5.67,31.59,6.85,47.37-37.82,16.67-84.82,24.62-123.29,4.57,17.84-21.51,7.61-59.45-14.84-74.2,11.91-52.3,44.94-133.08,83.33-169.52-1.11,4.73,2.52,12.98-3.42,21.12-.63,4.8,1.19,6.96,1.14,8.56Z"/>
          <path class="jump-cls-33" d="m397.26,242.01c0,.14.95-.11,2.28,1.71-4.96,14.06.26,28.83-1.14,43.38,1.42,1.77,2.35,5.59,3.42,7.42-11.05,5.39-12.32-32.44-11.42-38.24.81-5.22,6.86-14.13,6.85-14.27Z"/>
        </g>
        <g>
          <path class="jump-cls-16" d="m591.33,149.54c30.53,5.57,58.66,21.34,78.77,45.09,25.85,30.53,35.99,76.94,11.42,45.66-6.29-8-10.66-31.07-43.95-30.25-2.86-1.19-10.63-38.76-42.24-30.82-1.9-5.9-8.45-16.51-13.7-19.41-10.18-5.61-38.36-4.03-6.28-9.13,6.4-1.02,10.68-.52,15.98-1.14Z"/>
          <g>
            <path class="jump-cls-12" d="m575.35,150.69c-32.08,5.11-3.9,3.52,6.28,9.13,5.25,2.9,11.8,13.5,13.7,19.41,31.6-7.93,39.38,29.63,42.24,30.82,33.29-.82,37.67,22.25,43.95,30.25,24.57,31.28,14.44-15.13-11.42-45.66-20.11-23.75-48.23-39.53-78.77-45.09,21.12-2.48,49.23-10.79,62.22,11.42,9.73-1.89,31.3,11.87,26.83,21.12,10.58,8.27,24.7,22.44,20.55,36.53,25.93,27.98-.44,31.74,13.7,46.23,2.92,10.08-3.25,19.18-9.13,26.83,4.58,18.25-5.81,23.26,2.28,38.81-10.06,16.67,8.43,23.65-15.41,42.81-2.5,2.01-9.3,6.38-11.42,4.57-4.85,3.73-4,25.53-41.1,23.97-7.09,4.53-36.33,14.23-42.24,13.7-8.63-.78-7.69-13.87-19.98,0-.1-.86-.16-1.26-1.14-1.14,15.06-11.05,28.91-30.14,29.68-49.09h1.14c42.05,25.66,62.68-41.27,32.53-45.66-23.3-3.39-41.2,37.15-5.14,15.41,4.07,10.2,1.72,24.22-10.27,25.69-.57-.38-3.29.4-4,0-7.32-4.15,8.72-.68,10.84-7.42,4.07-12.89-9.05-5.67-21.69-9.7-1.23-.39-3.6.26-5.14,0-3.26-2.11-1.84-50.03-8.56-63.36-6.78-13.45-27.35-2.93-34.25-41.67-5.88-8.52-35.17-7.33-39.95,2.28l-39.38,4.57c-39.04,37.71-44.12,47.59-33.68,102.17-20.81,6.24-.28,43.45,5.71,57.65-1.84-1.22-6.55-.96-6.85-1.14-24.4-15.2-15.26-14.35-20.55-24.54-.86-1.66-15.98-3.68-3.42-33.11-12.82-7.88-11.55-24.55-4.57-36.53-3.23-3.32-15.98-13.47-17.12-15.41-1.08-1.83-2.01-5.65-3.42-7.42,1.4-14.55-3.81-29.32,1.14-43.38-1.34-1.82-2.29-1.57-2.28-1.71.05-1.6-1.77-3.76-1.14-8.56,5.94-8.14,2.32-16.39,3.42-21.12,7.11-30.37,28.44-26.18,31.96-30.25,7.41-30.8,22.78-26.76,31.96-29.11,1.35-.35,3.53.23,5.14,0,8.01-12.96,23.77-16.63,37.67-13.7,1.31-.43,2.34-4.68,4.57-5.71,28.53-13.21,31.38,1.59,33.11,2.28,2.64,1.07,20.63-10.95,31.39,14.84Z"/>
            <path class="jump-cls-9" d="m672.38,286.53c-15.63-1.66-40.45,3.35-57.08,4.57-8.54-14.27-4.19-33.26-31.39-38.81-3.92-7.75-6.05-17.82-11.99-24.54-14.49-16.41-42.59-19.96-61.07-8.56-3.86-8.24-19.85,5.61-26.26,9.13-1.29-1.3-2.3-2.56-4-3.42-2.7-1.38-4.72-5.28-9.7-5.71-17.68-1.51-27.41,21.85-23.4,36.53l-.57,3.42c-5,3.84-10.97,8.18-15.41,12.56-2.69-6.76-5.56-13.04-9.13-19.41-2.78-4.94-10.23-12.61-10.27-14.27-.03-1.01,5.57-8.22,5.71-9.13,1.33-8.51-14.11-34.08,15.41-23.4,21.84-20.03.76-45.37,44.52-31.96,10.35-17.24,11.1-24.6,30.82-11.42,24.17-27.48,22.27-1.29,26.26,0,21.37-7.26,18.58,17.29,21.69,18.27,22.35-11.25,26.05-2.84,27.4,19.41q10.27-4,20.55-7.99c3.92,2.38,4.68,16.42,6.85,17.12,8.8,2.87,16.33-16.62,21.69,20.55,19.55-6.34,35.17-1.73,32.53,21.12,31.02,9.41,17.44,20.14,18.27,21.69,1.69,3.18,21.39-1.98-.57,24.54-6.03-5.68-2.56-9.4-10.84-10.27Z"/>
            <path class="jump-cls-14" d="m672.38,286.53c5.11,15.4,2.6,25.99-6.28,38.81-13.99-42.44-37.97-12.83-50.8-34.25,16.62-1.22,41.45-6.23,57.08-4.57Z"/>
            <path class="jump-cls-14" d="m480.6,224.89c-14.06,8.45-24.44,27.23-33.11,30.82-4-14.68,5.72-38.04,23.4-36.53,4.98.42,7,4.33,9.7,5.71Z"/>
            <path class="jump-cls-9" d="m431.51,271.69c-3.15,3.1-11.32,22.3-11.42-8.56,0-.55,1.48-9.43,2.28-10.84,3.58,6.36,6.44,12.65,9.13,19.41Z"/>
          </g>
        </g>
        <g>
          <g>
            <path class="jump-cls-15" d="m668.96,849.32c-1.74,11.12-5.28,17.19-5.71,19.41-17.13,4.54-35.45,16.69-53.65,22.83-16.94-35.59-11.47-107.47-20.55-149.54,2.95-11.82-1.59-27.62,0-40.53l-19.41-5.71c-9.41,30.86-35.89,96.4-53.65,120.44-10.38,14.04-36.97,35.04-52.51,44.52-12.8-19.81-13.19-35.71-6.85-58.79,6.38-23.21,50.01-88.74,63.93-119.86,3.02-6.75,9.93-23.58,7.99-25.69,3.04-3.27,4.84-10.48,5.71-14.84,13.92,6.47,29.43,7.46,44.52,5.71-.55,1.24-2.07,2.97-.57,3.42,4,1.2,67.57-8.78,77.06-13.7,11.54,22.1,20.78,51.12,22.83,75.91,2.53,30.58-4.1,104.17-9.13,136.42Z"/>
            <path class="jump-cls-34" d="m663.25,868.73c-1.11,5.69-.56,11.74-2.28,14.27l1.71,1.71c22.17-3.39,45.28-.29,67.35-2.28,2.5-.23,8.02-1.07,9.7-3.42,2.67,7.48,2.71,15.22,4.57,22.83-1.26,1.05-27.02,14.33-28.54,14.84-.87.29-1.37-1.61-2.85-1.14-37.13,11.76-83.75,17.13-103.31-23.97,18.2-6.14,36.52-18.29,53.65-22.83Z"/>
            <g>
              <path class="jump-cls-34" d="m539.96,828.78c-.62,1.72-2.51,2.24-2.28,4,6.49,9.58,39.82,54.19,39.95,61.07.15,7.81-14.14,27.08-21.69,29.68-1.21.42-3.45,1.15-4.57,1.14-16.74-.19-72.13-39.52-87.9-63.93,15.54-9.48,42.14-30.48,52.51-44.52,8.02,2.8,17.13,14.92,23.97,12.56Z"/>
              <path class="jump-cls-34" d="m589.05,742.02c-2.67,10.71-45.55,76.94-49.09,86.76-6.85,2.37-15.95-9.76-23.97-12.56,17.77-24.04,44.24-89.57,53.65-120.44l19.41,5.71c-1.59,12.9,2.95,28.7,0,40.53Z"/>
            </g>
            <path class="jump-cls-11" d="m686.08,823.07c-7.29.46-10.92,19.41-17.12,26.26,5.04-32.25,11.66-105.84,9.13-136.42-2.05-24.8-11.29-53.81-22.83-75.91-7.48-14.32-14.89-16.75-1.14-18.27,21.25,34.01,41.8,50.3,43.38,114.73.99,40.29-9.03,69.18-11.42,89.61Z"/>
            <path class="jump-cls-15" d="m686.08,823.07c-.38,3.23-.58,6.48-1.14,9.7.35,1.48,19.94,17.93,22.83,19.98l-2.85,23.97q15.7-1.71,31.39-3.42c1.14,1.92,2.64,3.51,3.42,5.71-1.69,2.35-7.2,3.2-9.7,3.42-22.08,1.99-45.18-1.11-67.35,2.28l-1.71-1.71c1.72-2.53,1.18-8.58,2.28-14.27.43-2.22,3.97-8.29,5.71-19.41,6.2-6.85,9.83-25.8,17.12-26.26Z"/>
            <path class="jump-cls-34" d="m654.12,618.73c-13.75,1.52-6.34,3.94,1.14,18.27-9.48,4.92-73.06,14.9-77.06,13.7-1.5-.45.02-2.18.57-3.42,27.12-3.15,53.92-18.85,65.07-44.52,3.77,5.1,6.92,10.61,10.27,15.98Z"/>
            <path class="jump-cls-11" d="m736.31,873.3q-15.7,1.71-31.39,3.42l2.85-23.97c11.95,8.48,19.66,5.65,28.54,20.55Z"/>
          </g>
          <g>
            <path class="jump-cls-6" d="m615.3,932.66c-.88,3.59-21.85,52.64-25.11,59.36-10.65,21.92-16.88,43.73-46.8,36.53-21.92-19.63,2.19-5.24,7.42-4.57,3.55.46,14.58-.33,17.12-2.28,10.69-8.21-1.14-9.42-6.28-10.27.6-2.51,6.46-.34,8.56-1.14,2.3-.87,8.58-41.92,9.7-47.95.1-.52,5.07-6.24,2.85-10.27-5.44-2.28-10.82-2.65-16.55-3.42-.1-1.67,2.21-.52,5.71-2.28.43-.21,3.45.44,6.28-1.14,11.29-6.33,19.89-31.85,13.13-43.38,17.54,8.17,29.98,6.38,23.97,30.82Z"/>
            <path class="jump-cls-23" d="m554.8,958.91c7.75,2.24,17.3.4,25.11,3.42-1.12,6.03-7.41,47.08-9.7,47.95-2.11.8-7.96-1.37-8.56,1.14-3.83-.63-25.06-1.79-26.26-5.14,3.94-17.29,8.17-34.5,11.42-51.94,7.48.13,6.23,4.06,7.99,4.57Z"/>
            <path class="jump-cls-3" d="m593.61,996.59c-2.9-1.9,1.02-6.89-3.42-4.57,3.27-6.72,24.23-55.77,25.11-59.36,1.16,2.19,7.77,6.92,7.99,7.42,3.82,8.69-24.01,46.25-29.68,56.51Z"/>
            <path class="jump-cls-9" d="m571.92,946.36c-3.5,1.76-5.81.61-5.71,2.28-5.78-.78-11.25-1.77-17.12-1.14.48-2.96,1.09-5.25,1.14-5.71.89-2.22,5.81-4.51,7.99-5.71,12.58-6.94,22.84-14,25.11-29.68,7.51,11.05-2.85,29.35-11.42,39.95Z"/>
            <path class="jump-cls-4" d="m578.77,893.84c-.46,13.26,4.15,11.86,4.57,12.56-2.28,15.68-12.53,22.74-25.11,29.68q-1.14-6.28-2.28-12.56c7.55-2.6,21.84-21.87,21.69-29.68h1.14Z"/>
            <path class="jump-cls-2" d="m593.61,996.59c-5.99,10.84-8.24,30.22-19.98,36.53-11.53,6.2-21.47,3.3-30.25-4.57,29.93,7.2,36.15-14.61,46.8-36.53,4.45-2.32.52,2.66,3.42,4.57Z"/>
            <path class="jump-cls-3" d="m591.33,901.84c6.76,11.53-1.84,37.05-13.13,43.38-2.82,1.59-5.85.93-6.28,1.14,8.57-10.61,18.92-28.9,11.42-39.95-.41-.7-5.03.7-4.57-12.56,4.06,2.6,8.2,5.96,12.56,7.99Z"/>
            <path class="jump-cls-28" d="m566.22,948.64c1.46,7.19-7.46,7.04-11.42,10.27-1.76-.51-.51-4.43-7.99-4.57.3-1.59,2.04-5.34,2.28-6.85,5.88-.62,11.34.36,17.12,1.14Z"/>
            <path class="jump-cls-31" d="m555.94,923.53q1.14,6.28,2.28,12.56c-2.18,1.2-7.11,3.49-7.99,5.71.11-.85-1.65-11.6,1.14-17.12,1.11.01,3.36-.73,4.57-1.14Z"/>
            <path class="jump-cls-28" d="m579.91,962.34c-7.82-3.03-17.36-1.19-25.11-3.42,3.95-3.24,12.88-3.08,11.42-10.27,5.73.77,11.11,1.14,16.55,3.42,2.21,4.04-2.76,9.75-2.85,10.27Z"/>
          </g>
        </g>
        <g>
          <path class="jump-cls-26" d="m787.68,287.67c-.45,3.32.64,9.62,0,11.42-.23.65-1.83,1.99-2.28,2.28-.42.27-2.3-.24-3.42,0-8.71,1.37-12.01-13.89-14.84-21.69,4.73,6.01,13.16,8.6,20.55,7.99Z"/>
          <g>
            <path class="jump-cls-2" d="m787.68,287.67c-7.39.61-15.82-1.98-20.55-7.99-.63-.8-1.86-3.41-2.28-4.57-4.21-11.44,5.06-28.74,13.7-37.67,13.47-.03,20.69,8.73,29.68,17.69,2.25,13.92-4.75,31.23-20.55,32.53Z"/>
            <path class="jump-cls-25" d="m790.53,244.29c12.99,2.26-16.66,22.11-18.27,21.69-3.82-1.01-4.19-11.11,0-12.56,2.98-1.03,6.11,1.6,7.99,1.14.94-.23,7.66-10.73,10.27-10.27Z"/>
          </g>
        </g>
        <g>
          <path class="jump-cls-7" d="m301.37,458.91c1.64,4.35,3.76,7.92,4.57,12.56,2.84,16.25-5.84,27.44-11.42,28.54-16.34,3.22-17.59-18.06-18.27-19.41-.15-.3.15-.84,0-1.14,24.27,21.26,32.22-20.72,13.13-23.97-13.51-2.3-14.14,9.57-15.41,19.41-1.74-3.41-19.54-16.08.57-15.98,2.63-22.85,12.12,3.82,19.98-14.84,1.41,5.01,5.85,12.2,6.85,14.84Z"/>
          <path class="jump-cls-18" d="m301.37,458.91c-1-2.64-5.44-9.83-6.85-14.84l-6.85-5.71c1.8-2.41,1.14-5.63,0-7.99,13.03-8.46,16.23,19.72,13.7,28.54Z"/>
          <path class="jump-cls-22" d="m276.26,479.46c.33-2.13-1.44-2.92-2.28-4.57,1.27-9.83,1.9-21.71,15.41-19.41,19.09,3.25,11.14,45.24-13.13,23.97Z"/>
          <g>
            <path class="jump-cls-2" d="m265.98,424.66c12.04.59,14.11,6.15,21.69,13.7l6.85,5.71c-7.86,18.66-17.34-8.01-19.98,14.84-20.11-.1-2.31,12.57-.57,15.98.84,1.64,2.61,2.44,2.28,4.57.15.3-.15.84,0,1.14-32.96-11.59-41.41-57.47-10.27-55.94Z"/>
            <path class="jump-cls-8" d="m287.67,430.37c1.14,2.36,1.8,5.58,0,7.99-7.58-7.55-9.65-13.11-21.69-13.7,5.14-8.18,18.04-1.82,21.69,5.71Z"/>
            <path class="jump-cls-8" d="m263.13,426.95c7.4-.38-4.38,3.88-4.57,13.7-4.74-3.48.43-13.49,4.57-13.7Z"/>
          </g>
        </g>
        <g>
          <g>
            <path class="jump-cls-1" d="m599.32,433.79c-9.22,15.42-6.22,49.24-1.14,66.21,5.12,17.1,16.59,29.56,23.97,45.09,6.26,13.17,11.34,27.12,17.12,40.53.37.85-1.17,3.9,4.57,17.12-11.15,25.67-37.94,41.37-65.07,44.52-15.09,1.75-30.61.76-44.52-5.71.26-1.32,1.02-8.45,1.14-10.27,9.83,5.33,66.04,5.85,67.35-5.14.52-4.37-19.63-50.93-23.4-53.08q-27.68-2.28-55.37-4.57c-1.05-1.64-7.58-5.48-10.27-9.13,20.38,4.17,57.49-1.84,74.77-12.56,28.16-17.46,1.64-33.18-1.71-66.78-1.32-13.21-1.2-43.92,12.56-46.23Z"/>
            <g>
              <path class="jump-cls-32" d="m605.03,429.23c-.77.23-1.96-.15-2.85,0-1.6,1.13-1.92,3.01-2.85,4.57-13.75,2.31-13.87,33.02-12.56,46.23,3.35,33.61,29.87,49.32,1.71,66.78-17.28,10.72-54.4,16.73-74.77,12.56-16.58-22.43-15.45-26.6-6.85-53.65,2.67,2.58,19.1-26.29,10.27-26.26,3.51-10.75,8.72-20.73,13.7-30.82-2.91,62.67,27.5,66.64,47.95,10.84-2.52-4.86-15.77,32.19-32.53,27.97-11.84-2.98-7.85-30.13-9.7-37.67l5.71-3.42c1.88,5.86,3.25,7.46,3.42,7.99,1.79,5.41,4.28,17.19,6.85,20.55l.57,2.28c5.36-4.16,8.88-9.73,13.13-14.84,2.6-3.13,3.63-5.14,5.71-7.99,5.1-7,13.94-15.81,14.84-25.11,2.64.06,13.13-3.24,18.27,0Z"/>
              <path class="jump-cls-3" d="m536.54,449.78c1.86,7.54-2.13,34.69,9.7,37.67,16.76,4.22,30.02-32.83,32.53-27.97-20.44,55.79-50.85,51.83-47.95-10.84.58-1.17,1.46-1.94,1.14-3.42,1.81,1.02,4.11,2.71,4.57,4.57Z"/>
              <path class="jump-cls-3" d="m506.85,505.71c2.2-6.91,5.03-13.54,6.85-20.55.84-1.53,2.9-3.59,3.42-5.71,8.82-.03-7.6,28.83-10.27,26.26Z"/>
            </g>
            <path class="jump-cls-7" d="m566.22,462.33c-4.25,5.11-7.77,10.68-13.13,14.84l-.57-2.28c3.95-4.46,7.31-12.34,13.7-12.56Z"/>
            <path class="jump-cls-32" d="m535.39,631.29c.9-13.99-4.13-51.35-11.42-62.79q27.68,2.28,55.37,4.57c3.77,2.15,23.92,48.71,23.4,53.08-1.32,10.99-57.52,10.47-67.35,5.14Z"/>
          </g>
          <g>
            <g>
              <path class="jump-cls-2" d="m607.31,365.3c13.36,4.78,32.26,5.7,17.12-4.57,12-1.46,14.35-15.49,10.27-25.69-36.06,21.74-18.16-18.8,5.14-15.41,30.14,4.39,9.51,71.32-32.53,45.66Z"/>
              <path class="jump-cls-21" d="m624.44,360.73c15.14,10.27-3.77,9.35-17.12,4.57h-1.14c.31-7.64-6.82-21.56,3.42-21.69,12.64,4.04,25.76-3.19,21.69,9.7-2.13,6.74-18.17,3.27-10.84,7.42.71.4,3.43-.38,4,0Z"/>
            </g>
            <path class="jump-cls-8" d="m561.65,238.59c.22,14.5-12.52-4.04-39.95,2.28,4.78-9.61,34.07-10.8,39.95-2.28Z"/>
            <g>
              <path class="jump-cls-2" d="m609.6,343.61c-10.25.13-3.11,14.05-3.42,21.69-.77,18.95-14.62,38.04-29.68,49.09-12.89,9.45-22.42,11.88-37.1,15.98-.99.28-.46,2.25-.57,2.28-43.53,11.18-68.71-16.97-84.48-27.4-5.99-14.2-26.52-51.41-5.71-57.65-10.45-54.58-5.36-64.46,33.68-102.17l39.38-4.57c27.43-6.33,40.17,12.22,39.95-2.28,6.89,38.73,27.46,28.22,34.25,41.67,6.72,13.33,5.3,61.25,8.56,63.36,1.54.26,3.91-.39,5.14,0Z"/>
              <g>
                <path class="jump-cls-12" d="m553.09,278.54c10.72-1.34,22.8,9.29,23.4,19.98,1.19,21.17-13.48-30.67-39.95,4.57-2.74-8.96,7.94-23.46,16.55-24.54Z"/>
                <path class="jump-cls-13" d="m554.23,321.92c7.61-1.2,14.6.69,17.69,8.56-9.65.77-27.74,8.04-29.11,7.42-6.68-3.04,3.32-14.71,11.42-15.98Z"/>
                <path class="jump-cls-12" d="m465.19,288.82c10.39-2.13,16.61,10.08,16.55,18.84-7.73-7.66-13.43-12.86-22.83-3.42-8.5,22.66-8.02-12.48,6.28-15.41Z"/>
                <path class="jump-cls-20" d="m454.91,365.3c22.23-5.45,13.81,21.32-2.28,17.12-8.68-2.26-4.96-15.35,2.28-17.12Z"/>
                <path class="jump-cls-12" d="m505.14,340.19c4.61-1.1,10.39.76,8.56,6.28-.35,1.07-21.22,10.9-7.42,15.41.95.31,25.4-3.98,10.27,4.57-17.5,9.89-25.69-22.84-11.42-26.26Z"/>
                <path class="jump-cls-12" d="m468.61,331.05c7.08-.98,14.33,5.49,13.13,8.56-.43,1.09-21.18,7.87-22.26,7.42-4.76-1.97,1.88-14.97,9.13-15.98Z"/>
                <g>
                  <path class="jump-cls-10" d="m538.82,413.25l-11.42-3.42c20.95-24.14-12.75-19.08-12.56,6.85-10.44-5.62-22.08-29.07-28.54-39.38,1.82-2.64,9.45,2.5,11.42,2.85,3.8,11.75,21.23,7.36,29.11,2.28,4.98-3.2,5.91-7.64,6.28-7.99,11.66-10.88,17.61-20.76,12.56,16.55-.53,3.91-4.75,19.37-6.85,22.26Z"/>
                  <path class="jump-cls-6" d="m527.4,409.82c-1.78,2.05-5.48,3.16-5.71,7.99-1.22-.11-.25,2.41-6.85-1.14-.19-25.93,33.51-30.99,12.56-6.85Z"/>
                  <path class="jump-cls-33" d="m533.11,374.43c-.37.35-1.3,4.79-6.28,7.99-7.88,5.07-25.31,9.47-29.11-2.28,12.72,2.3,24.77,2.43,35.39-5.71Z"/>
                  <path class="jump-cls-33" d="m538.82,413.25c-5.14,7.06-10.14,5.21-17.12,4.57.23-4.83,3.93-5.94,5.71-7.99l11.42,3.42Z"/>
                </g>
                <path class="jump-cls-17" d="m549.66,305.94c16.51.37,23.2,6.59,2.28,2.28-9.8,5.06-11.45,3.86-2.28-2.28Z"/>
              </g>
            </g>
            <path class="jump-cls-8" d="m571.92,454.34c-2.08,2.85-3.11,4.86-5.71,7.99-6.38.21-9.75,8.1-13.7,12.56-2.57-3.35-5.06-15.14-6.85-20.55,9.91,3.03,16.36,2.15,26.26,0Z"/>
            <g>
              <path class="jump-cls-9" d="m577.63,415.53c1.48,12.71-4.51,13.38,9.13,13.7-.9,9.31-9.74,18.12-14.84,25.11-9.9,2.15-16.35,3.03-26.26,0-.17-.53-1.55-2.13-3.42-7.99-1.46-4.55-2.46-9.04-3.42-13.7.11-.03-.42-2.01.57-2.28,14.69-4.1,24.21-6.53,37.1-15.98.99-.12,1.04.28,1.14,1.14Z"/>
              <path class="jump-cls-22" d="m572.49,428.09c17.74,2.28-22.47,43.75-27.4,6.85,12.78,1.56,25.98-7.03,27.4-6.85Z"/>
            </g>
          </g>
        </g>
      </g>
    </g>
  </g>
</svg>