<?xml version="1.0" encoding="UTF-8"?>
<svg id="Layer_1" data-name="Layer 1" xmlns="http://www.w3.org/2000/svg" xmlns:xlink="http://www.w3.org/1999/xlink" viewBox="0 0 1120.46 1120.5">
  <defs>
    <style>
      .practice-cls-1 {
        fill: url(#linear-gradient);
      }

      .practice-cls-1, .practice-cls-2, .practice-cls-3, .practice-cls-4, .practice-cls-5, .practice-cls-6, .practice-cls-7, .practice-cls-8, .practice-cls-9, .practice-cls-10, .practice-cls-11, .practice-cls-12, .practice-cls-13, .practice-cls-14, .practice-cls-15, .practice-cls-16, .practice-cls-17, .practice-cls-18, .practice-cls-19, .practice-cls-20, .practice-cls-21, .practice-cls-22, .practice-cls-23, .practice-cls-24, .practice-cls-25, .practice-cls-26, .practice-cls-27, .practice-cls-28, .practice-cls-29, .practice-cls-30, .practice-cls-31, .practice-cls-32, .practice-cls-33, .practice-cls-34, .practice-cls-35, .practice-cls-36, .practice-cls-37, .practice-cls-38, .practice-cls-39, .practice-cls-40, .practice-cls-41, .practice-cls-42, .practice-cls-43, .practice-cls-44, .practice-cls-45, .practice-cls-46, .practice-cls-47, .practice-cls-48, .practice-cls-49, .practice-cls-50, .practice-cls-51, .practice-cls-52, .practice-cls-53, .practice-cls-54, .practice-cls-55, .practice-cls-56, .practice-cls-57, .practice-cls-58, .practice-cls-59, .practice-cls-60, .practice-cls-61 {
        stroke-width: 0px;
      }

      .practice-cls-2 {
        fill: #f7a067;
      }

      .practice-cls-3 {
        fill: #4d310f;
      }

      .practice-cls-4 {
        fill: #7a161f;
      }

      .practice-cls-5 {
        fill: #773f24;
      }

      .practice-cls-6 {
        fill: #76c9dc;
      }

      .practice-cls-7 {
        fill: #261d1a;
      }

      .practice-cls-8 {
        fill: #265d87;
      }

      .practice-cls-9 {
        fill: #4dbcc3;
      }

      .practice-cls-10 {
        fill: #4e0c12;
      }

      .practice-cls-11 {
        fill: #2d200f;
      }

      .practice-cls-12 {
        fill: #47afc3;
      }

      .practice-cls-13 {
        fill: #571100;
      }

      .practice-cls-14 {
        fill: #592d14;
      }

      .practice-cls-15 {
        fill: #640a1d;
      }

      .practice-cls-16 {
        fill: #6e2915;
      }

      .practice-cls-17 {
        fill: #6e98bb;
      }

      .practice-cls-18 {
        fill: #2d709b;
      }

      .practice-cls-19 {
        fill: #320b0e;
      }

      .practice-cls-20 {
        fill: #39211f;
      }

      .practice-cls-21 {
        fill: #195164;
      }

      .practice-cls-22 {
        fill: #0c1f3c;
      }

      .practice-cls-23 {
        fill: #0a1425;
      }

      .practice-cls-24 {
        fill: #11140f;
      }

      .practice-cls-25 {
        fill: #061e2c;
      }

      .practice-cls-26 {
        fill: #411a12;
      }

      .practice-cls-27 {
        fill: #0c0d11;
      }

      .practice-cls-28 {
        fill: #220e11;
      }

      .practice-cls-29 {
        fill: #223646;
      }

      .practice-cls-30 {
        fill: #204e74;
      }

      .practice-cls-31 {
        fill: #173e5f;
      }

      .practice-cls-32 {
        fill: #252f28;
      }

      .practice-cls-33 {
        fill: #242c2d;
      }

      .practice-cls-34 {
        fill: #d37b21;
      }

      .practice-cls-35 {
        fill: #d59c9e;
      }

      .practice-cls-36 {
        fill: #d8a11c;
      }

      .practice-cls-37 {
        fill: #c8ceda;
      }

      .practice-cls-38 {
        fill: #d6c9c9;
      }

      .practice-cls-39 {
        fill: #de3d48;
      }

      .practice-cls-40 {
        fill: #c26140;
      }

      .practice-cls-41 {
        fill: #ad2d3b;
      }

      .practice-cls-42 {
        fill: #c14158;
      }

      .practice-cls-43 {
        fill: #a8442c;
      }

      .practice-cls-44 {
        fill: #bfd6df;
      }

      .practice-cls-45 {
        fill: #cdc9c7;
      }

      .practice-cls-46 {
        fill: #b7e7f4;
      }

      .practice-cls-47 {
        fill: #8d0f18;
      }

      .practice-cls-48 {
        fill: #bc6320;
      }

      .practice-cls-49 {
        fill: #b8533d;
      }

      .practice-cls-50 {
        fill: #b55729;
      }

      .practice-cls-51 {
        fill: #32332e;
      }

      .practice-cls-52 {
        fill: #8eb0c5;
      }

      .practice-cls-53 {
        fill: #8d3b1a;
      }

      .practice-cls-54 {
        fill: #6b9db6;
      }

      .practice-cls-55 {
        fill: #a0342e;
      }

      .practice-cls-56 {
        fill: #951e2e;
      }

      .practice-cls-57 {
        fill: #ea9547;
      }

      .practice-cls-58 {
        fill: #edbe2d;
      }

      .practice-cls-59 {
        fill: #fafafb;
      }

      .practice-cls-60 {
        fill: #ed8742;
      }

      .practice-cls-61 {
        fill: #e9dfd5;
      }
    </style>
    <linearGradient id="linear-gradient" x1="817.53" y1="406.84" x2="644.79" y2="466.44" gradientUnits="userSpaceOnUse">
      <stop offset="0" stop-color="#402823"/>
      <stop offset="1" stop-color="#532f1d"/>
    </linearGradient>
  </defs>
  <g>
    <path class="practice-cls-61" d="m380.78,759.37c-6.7,32.19-40.03,134-52.52,180.54q-3.28-1.37-6.57-2.74c17.65-60.68,33.42-122.72,53.62-182.18l5.47,4.38Z"/>
    <path class="practice-cls-61" d="m730.93,783.45c19.48,51.72,37,104.21,51.43,157.56-1.85-.49-4.56-.09-6.57-1.09-9.55-35.49-46.18-138.21-49.24-156.47h4.38Z"/>
  </g>
  <g>
    <path class="practice-cls-35" d="m408.14,932.26q-4.92,16.14-9.85,32.28c14.68,28.6,105.57,49.32,125.83,35.56-2.01,7.44,27.69-3.19,41.03-6.57,14.96-1.76,102.2,4.61,105.59.55,2.48-2.98-1.31-2.3-2.19-4.92,15.84,5.44,33.65,10.25,50.33,12.04,1.72,4.82-34.64,6.86-48.69,7.66-87.29,4.95-293.35,4.95-372.03-21.88-68.06-23.21-4.75-40.31,30.09-45.96-3.5,13.44-10.63,13.11,9.3,16.41,1.74-.43,6.06-16.25,7.11-19.7,20.85-3.76,42.25-4.84,63.46-5.47Z"/>
    <path class="practice-cls-35" d="m757.19,933.35c5.11,16.15,4.25,28.85,22.98,22.43.73-1.6-3.53-12.73-4.38-15.87,2.01,1,4.71.61,6.57,1.09,12.49,3.29,94.87,16.66,57.45,39.39-17.24,10.47-56.96,17.69-77.14,19.7,5.65-8.1,6.64-12.52,3.28-21.88-1.14-3.17-1.92-2.84-2.19-3.28-6-9.91-14.97-12.48-24.07-18.6-2.95-1.99-5.23-2.02-5.47-2.19-2.18-1.49-4.39-2.88-6.57-4.38-1.12-.77-2.22-1.46-3.28-2.19-3.8-2.61-7.3-5.93-10.94-8.75-1.88-1.46-4.2-.95-4.38-1.09-3.17-2.56-2.04-3.16-2.19-3.28-.09-.08-1-2.11-1.09-2.19l51.43,1.09Z"/>
    <path class="practice-cls-35" d="m668.56,989.16c.88,2.63,4.67,1.94,2.19,4.92-3.39,4.07-90.63-2.31-105.59-.55-13.35,3.38-43.04,14.01-41.03,6.57,10.63-7.22,5.61-20.44,0-28.45-4.69-6.71-10.39-9.37-16.41-14.22-9.2-7.42-19.09-13.62-28.45-20.79,35.2,3.02,118.05-2.26,161.39,0-18.47,36.17-11.26,39.07,27.9,52.52Z"/>
  </g>
  <g>
    <path class="practice-cls-61" d="m714.51,831.59c-4.24.37-.04-23.8,3.28-30.64,9.15,41.37,10,27.28-3.28,30.64Z"/>
    <path class="practice-cls-51" d="m602.36,922.41c.12-.01,2.21,1.6,1.09,2.19-2.82,1.49-3.16-1.95-1.09-2.19Z"/>
  </g>
  <g>
    <g>
      <path class="practice-cls-59" d="m653.24,303.09c-4.35,43.84-38.41,68.66-39.39,72.76-1.58,6.57,20.62,19.49,36.11,36.11,11.45,12.28,20.62,26.92,31.18,39.94,29.38-34.45,61.92-66.17,95.74-96.29.87,1.37,1.13,1.29,2.19,2.19,8.18,6.9,11.23-.14,20.79-2.19-40.25,36.34-79.81,73.36-120.36,109.42-1.61-1.33-4.16-2.86-5.47-4.38-39.79-45.88-36.08-50.92-101.76-91.37.78-1.6,13.5,1.69,33.92-9.3,9.98-5.37,20.31-15.52,26.26-25.17,6.21-10.06,10.2-21.72,12.04-33.37,1.34-1.18,5.63,1.81,8.75,1.64Z"/>
      <path class="practice-cls-39" d="m798.77,342.48q-9.85,7.66-19.7,15.32c-1.06-.9-1.32-.81-2.19-2.19-6.62-10.47,1.2-9.85,13.13-22.98,2.66,3.2,6.58,6.49,8.75,9.85Z"/>
      <path class="practice-cls-10" d="m878.64,362.18c.31.16,4.81,3.78,5.47,4.38q-7.66,10.94-15.32,21.88c-1.08-.74-2.09-1.66-3.28-2.19-.39-2.39-1.59-4.17-2.19-6.57l8.75-20.79c1.62-.09,4.41,2.14,6.57,3.28Z"/>
      <path class="practice-cls-39" d="m839.25,298.72c.47,2.84,2.17,5,3.28,7.66q-6.57,5.47-13.13,10.94c-4.51-2.71-7.99-5.47-10.94-9.85,6.4-4.03,15.93-11.88,16.96-12.04.38-.06,2.08,2.77,3.83,3.28Z"/>
      <path class="practice-cls-47" d="m897.24,349.05c-2.93,4.36-7.47,12.88-8.21,13.13-1.29.44-2.19-1.45-3.83-2.19-1.62-.73-6.77-3.96-6.57-6.02.08-.81,9.62-12.32,10.39-12.58,4.17-1.45,4.77,7.27,8.21,7.66Z"/>
      <path class="practice-cls-42" d="m868.79,388.44q7.66-10.94,15.32-21.88c2.11,1.91,5.56,3.41,5.47,4.92-6.32,3.91-14.3,21.42-20.79,16.96Z"/>
      <path class="practice-cls-19" d="m800.95,353.43c-.09.08.55.7-1.09,2.19-9.56,2.05-12.61,9.09-20.79,2.19q9.85-7.66,19.7-15.32c6.56,10.13-6.35,8.78,2.19,10.94Z"/>
      <g>
        <path class="practice-cls-59" d="m897.24,349.05c-3.43-.39-4.03-9.11-8.21-7.66-.77.27-10.31,11.77-10.39,12.58-.21,2.06,4.94,5.29,6.57,6.02l-6.57,2.19c-2.16-1.14-4.94-3.38-6.57-3.28-3.07.18-11.67,10.85-12.04,13.68-.7,5.41,3.19,6.73,3.28,7.11.6,2.4,1.8,4.18,2.19,6.57,6.46,39.41-12.57,79.73-38.3,108.87-6.64,7.52-30.94,31.69-37.2,29,7.37-6.21,15.3-13.77,21.88-20.79,6.41-6.83,12.23-12.94,17.51-20.79,16.4-24.38,42.7-79.86,20.79-105.04-.9-1.04-4.07-5.29-4.38-5.47l5.47-6.57c4.98,4.65,5.58-1.77,9.85-5.47,6.38-5.53,35.01-31.06,37.2-36.11.05-.13,2.03-.86,2.19-1.64-9.98-8.59-20.3-16.86-30.09-25.71l-2.19-1.09c-2.62,2.59-5.34,5.36-8.21,7.66-3.73,3-6.43,6.67-7.66,7.66-2.03,1.63-3.4,3.59-4.38,4.38-3.22,2.59-7.8,4.98-10.94,7.66-.22.19-2.32-.12-3.83,0-1.54,1.32-4.54,6.48-7.11,8.75-6.23,5.52-11.44,12.02-17.51,17.51-3.5,3.16-7.33,4.08-7.66,4.38-8.53-2.16,4.37-.81-2.19-10.94-2.17-3.36-6.09-6.65-8.75-9.85,5.87-6.46,11.1-14.27,18.05-19.7,10.8-8.43,9.85-5.13,10.39-5.47,2.95,4.38,6.43,7.14,10.94,9.85,2.13,1.28.51,8.86,15.87-4.38.76-.81-1.47-3.53-2.74-6.57-1.11-2.66-2.81-4.82-3.28-7.66,2.05.61,2.91,1.63,4.92,2.19,33.72-31.53,36.38-11.68,70.58,19.15-6.33,9.38-11.19,19.6-17.51,29Z"/>
        <path class="practice-cls-39" d="m819.56,322.79q-8.21,7.11-16.41,14.22c-10.45-10.1-6.64-7.1,7.11-21.88,3.06-.56,7.73,5.45,9.3,7.66Z"/>
        <path class="practice-cls-7" d="m803.14,337.01q8.21-7.11,16.41-14.22c1.25,1.76,2.8,3.43,4.38,4.92-18.3,17.7-14.3,15.57-20.79,9.3Z"/>
        <path class="practice-cls-20" d="m829.4,317.32q6.57-5.47,13.13-10.94c1.27,3.03,3.49,5.76,2.74,6.57-15.35,13.23-13.74,5.65-15.87,4.38Z"/>
      </g>
      <path class="practice-cls-56" d="m863.32,379.69c-.1-.38-3.98-1.71-3.28-7.11.36-2.82,8.96-13.5,12.04-13.68l-8.75,20.79Z"/>
      <g>
        <path class="practice-cls-41" d="m898.34,323.88c-5.6,3.14-8.67-.05-11.49,1.09-3.92,1.59-28.12,27.14-30.64,20.79-1.21.83-.18,4.06-.55,4.38-3.6,3.11-6.53,5.11-9.85,8.75-3.33,3.66-7.55,7.51-7.66,9.85-4.06-2.78-20.29-11.72-22.98-10.94-.11-.25-2.64-3.61-3.28-4.38,6.83-4.29,11.34-10.59,20.24-7.66-2.16-11.06,10.66-24.57,21.34-16.96q-2.74-6.84-5.47-13.68c.98-.79,2.35-2.75,4.38-4.38,4.99,16.46,6.03,2.92,16.41.55l-8.75-8.21c2.87-2.3,5.58-5.07,8.21-7.66l2.19,1.09c9.79,8.85,20.11,17.12,30.09,25.71-.16.78-2.13,1.52-2.19,1.64Z"/>
        <path class="practice-cls-10" d="m898.34,323.88c-2.19,5.05-30.82,30.58-37.2,36.11l-5.47-9.85c.37-.32-.66-3.54.55-4.38,2.52,6.35,26.71-19.2,30.64-20.79,2.82-1.14,5.88,2.04,11.49-1.09Z"/>
        <path class="practice-cls-26" d="m848,315.13q2.74,6.84,5.47,13.68c-10.68-7.61-23.5,5.9-21.34,16.96-8.9-2.93-13.41,3.37-20.24,7.66-.32-.38-3.71-1.56-3.28-4.38,6.07-5.48,11.27-11.99,17.51-17.51,1.83,4.8,13.93-6.22,10.94-8.75,3.14-2.68,7.73-5.07,10.94-7.66Z"/>
        <path class="practice-cls-56" d="m855.66,350.14l5.47,9.85c-4.27,3.7-4.87,10.12-9.85,5.47-.31-.29-1.94-7.16-5.47-6.57,3.32-3.64,6.25-5.65,9.85-8.75Z"/>
        <path class="practice-cls-26" d="m852.38,310.75c1.23-.99,3.93-4.66,7.66-7.66l8.75,8.21c-10.38,2.37-11.43,15.91-16.41-.55Z"/>
        <path class="practice-cls-19" d="m851.29,365.46l-5.47,6.57c-.24-.14-1.32.08-2.19,0-3.71-3.53-5.21-3.1-5.47-3.28.11-2.34,4.32-6.19,7.66-9.85,3.53-.59,5.16,6.27,5.47,6.57Z"/>
        <path class="practice-cls-60" d="m837.06,322.79c2.99,2.54-9.11,13.56-10.94,8.75,2.57-2.27,5.57-7.43,7.11-8.75,1.51-.12,3.61.19,3.83,0Z"/>
      </g>
      <g>
        <path class="practice-cls-1" d="m811.9,353.43c.64.77,3.17,4.13,3.28,4.38,11.19,24.25-11.04,31.01,21.88,32.28-2.6,3.1-4.76,6.43-7.66,9.3-2.82,2.79-5.95,5.32-5.47,3.28,1.8-2.01,3.33-4.3,5.47-6.02-2.32-.82-15.05-5.06-15.87-4.92-2.62.43-33.78,31.45-38.84,36.11.72-2.67-2.63-2.7-3.83-2.19-4.62,1.97-64.4,58.83-74.95,66.75l-1.64-1.09c-1.99,4.94-6.6,6.9-10.39,9.85-3.75,2.91-21.42,20.11-23.53,20.79-3.99-1.42-7.33-4.98-10.39-7.66-5.59-4.89-10.51-12.8-16.96-16.41-24.31-13.62-57.53-6.83-77.14,12.04,21.55-26.18,57.26-28.36,84.8-9.85,2.15-.26,22.14-19.89,25.71-22.98,4.63-4,8.66-8.06,13.13-12.04,40.55-36.06,80.11-73.08,120.36-109.42,1.65-1.49,1-2.11,1.09-2.19.33-.3,4.16-1.21,7.66-4.38-.42,2.82,2.96,3.99,3.28,4.38Z"/>
        <path class="practice-cls-7" d="m774.69,427.83c-23.39,21.49-45.62,44.29-71.12,63.46-2.72.24-4.91,1.37-7.66,1.09,10.56-7.92,70.34-64.78,74.95-66.75,1.19-.51,4.55-.48,3.83,2.19Z"/>
      </g>
      <g>
        <path class="practice-cls-41" d="m694.82,525.22c13.18,19.42,15.83,48.66,6.57,70.03-.76,1.76-3.06,7.31-3.28,7.66-17.62,27.77-63,38.14-93.55,31.73,11.05,21.72-12.55,60.62-29.54,75.5-32.29,28.26-85.83,31.3-123.1,12.04-19.41-10.03-35.61-28.84-47.05-47.05,22.95,1.87,35.9,3.71,59.09,0,2.09-.33,4.4.8,4.38-1.09,19.31,13.77,46.89,22.07,68.39,9.85,22.32-12.69,47.38-51.2,48.14-77.69,35.88,14.18,93.67-20.56,83.71-62.37q13.13-9.3,26.26-18.6Z"/>
        <path class="practice-cls-19" d="m382.97,622.6c1.12,5.78,4.5,17.21,6.57,22.98,3.76,10.5,9.4,20.13,15.32,29.54,11.44,18.21,27.64,37.02,47.05,47.05-2.69,2.05-2.97,5.89-1.09,8.75-2.52-2.64-37.39-28.73-53.62-49.24-11.74-14.84-18.95-30.46-25.17-48.14,10.51,2.15,7.28-6.94,10.94-13.13.12.68-.13,1.52,0,2.19Z"/>
        <path class="practice-cls-10" d="m450.81,730.93c.83.87,4.28,4.76,3.28,6.02-25.98-5.38-46.43-26.84-62.37-47.6,1.45-4.65,8.55,1.74,5.47-7.66,16.23,20.51,51.1,46.6,53.62,49.24Z"/>
        <path class="practice-cls-4" d="m372.03,633.54c6.21,17.69,13.43,33.31,25.17,48.14,3.08,9.4-4.02,3-5.47,7.66-.66-.86-7.37-7.2-7.66-7.66-12.74-19.74-20.7-50.12-21.88-73.31,3.35.31,6.17,14.7,9.85,25.17Z"/>
        <path class="practice-cls-28" d="m711.23,602.9c-.62,1.17.22,2.37-3.28,5.47-7.4,6.55-2.92-2.98-9.85-5.47.22-.35,2.52-5.9,3.28-7.66,6.11-.62,9.16,2.03,9.85,7.66Z"/>
        <path class="practice-cls-4" d="m605.09,442.06c17.13,1.13,40.65,8.98,56.9,15.32,3.04,5.97,6.74,5.75,12.04,3.28,1.31,1.52,3.87,3.05,5.47,4.38-4.47,3.97-8.5,8.04-13.13,12.04-25.55-19.87-70.05-25.98-99.57-14.22,3.17-4.77-3.62-6.44-4.38-9.85,2.56-1.66,8.76-5.08,8.75-7.66,3.63-.3,5.24-1,6.57-1.09,2.77-.21,3.77-.93,5.47-1.09,6.79-.64,5.19-1.08,5.47-1.09,1.04-.06,15.59-.05,16.41,0Z"/>
        <path class="practice-cls-19" d="m693.72,507.71c9.31,7.91,16.08,20.21,19.7,31.73,1.14,3.64,5.34,23.24,5.47,26.26.44,9.97-2.96,28.28-7.66,37.2-.69-5.63-3.74-8.28-9.85-7.66,9.27-21.37,6.61-50.61-6.57-70.03-2.27-3.35-5.12-8.93-9.3-8.75q-12.31,6.57-24.62,13.13c-3.34-5.33-7.61-9.99-10.94-15.32,3.07,2.68,6.4,6.24,10.39,7.66,2.1-.68,19.78-17.88,23.53-20.79,3.04,2.4,6.93,4.08,9.85,6.57Z"/>
        <path class="practice-cls-28" d="m380.78,597.43c-.62,7.82.83,15.35,2.19,22.98-3.66,6.19-.43,15.28-10.94,13.13-3.68-10.47-6.49-24.86-9.85-25.17-.04-.73.03-1.46,0-2.19,6.3-1.02,2.79,6.91,9.3,7.66,2.65-7.76,9.94-12.55,3.83-17.51.44.2,3.75.42,5.47,1.09Z"/>
        <path class="practice-cls-27" d="m364.37,590.87c2.51,1.58,8.01,4.16,10.94,5.47,6.11,4.95-1.18,9.75-3.83,17.51-6.51-.75-3-8.68-9.3-7.66-.18-5.09.13-10.22,0-15.32.72.06,1.46-.03,2.19,0Z"/>
        <path class="practice-cls-56" d="m443.15,652.14c5.61,8.12,21.7,19.3,20.79,22.98-23.18,3.71-36.14,1.87-59.09,0-5.92-9.42-11.56-19.05-15.32-29.54,3.93-4.13,19.58,3.96,31.18,5.47,7.25.94,15.12-.74,22.43,1.09Z"/>
        <path class="practice-cls-4" d="m433.3,612.75c.28,2.65.54,6.23,1.09,8.75,4.1,18.65,18.37,41.44,33.92,52.52.03,1.89-2.29.76-4.38,1.09.91-3.68-15.18-14.86-20.79-22.98-.47-.68-3.82-13.36-6.02-15.32-6.23.19-19.12-1.55-25.17-3.28-13.49-3.86-23.68-11.56-29-10.94-.13-.67.12-1.51,0-2.19-1.35-7.63-2.81-15.16-2.19-22.98,16.71,6.53,35.06,11.43,52.52,15.32Z"/>
        <path class="practice-cls-15" d="m694.82,525.22q-13.13,9.3-26.26,18.6c-1.28-5.37-4.82-9.69-7.66-14.22q12.31-6.57,24.62-13.13c4.18-.18,7.03,5.4,9.3,8.75Z"/>
        <path class="practice-cls-4" d="m443.15,652.14c-7.31-1.83-15.18-.15-22.43-1.09-11.6-1.51-27.26-9.61-31.18-5.47-2.06-5.76-5.45-17.2-6.57-22.98,5.32-.62,15.51,7.08,29,10.94,6.05,1.73,18.94,3.47,25.17,3.28,2.2,1.96,5.55,14.64,6.02,15.32Z"/>
        <path class="practice-cls-36" d="m468.32,619.32c-6.61,12.33,1.33,7.77,7.66,17.51-7.93-1.14-31.85-7.92-36.66-10.94-4.27-2.68-1.51-6.97-4.92-4.38-.55-2.52-.81-6.1-1.09-8.75,11.64,2.59,23.48,3.51,35.01,6.57Z"/>
        <path class="practice-cls-41" d="m666.37,477.07c-3.57,3.09-23.57,22.72-25.71,22.98-27.54-18.52-63.25-16.33-84.8,9.85-8.62,10.47-14.45,22.3-19.15,35.01-25.44-12.48-63.08-4.51-85.89,10.94-11.45-5.29-22.55-11.49-33.92-16.96,33.54-21.89,65.5-30.17,105.59-27.9,3.6.2,13.9,3.34,15.87,3.28,1.15-.03,2.95.36,3.28-.55-16.67-20.24,6.12-43.3,25.17-50.88,29.53-11.76,74.02-5.65,99.57,14.22Z"/>
        <path class="practice-cls-10" d="m562.42,453c.76,3.41,7.54,5.07,4.38,9.85-19.05,7.58-41.84,30.64-25.17,50.88-.33.91-2.13.52-3.28.55.31-5.66-19.88-10.37-24.07-18.6q2.19-3.28,4.38-6.57c.32.12.77-.12,1.09,0,2.16.8-1.58,2.06,1.64,2.19,11.44-15.54,25.02-27.9,41.03-38.3Z"/>
        <g>
          <path class="practice-cls-4" d="m811.9,503.33c-6.59,7.02-14.52,14.58-21.88,20.79-7.36,6.21-16.03,13.4-24.07,18.6-14.76,9.54-31.03,16.01-47.05,22.98-.13-3.02-4.33-22.62-5.47-26.26,17.52,6.84,36.92,3.51,53.07-5.47,7.83-4.36,38.32-31.19,36.66-39.39.42.46,6.43,4.12,8.75,8.75Z"/>
          <path class="practice-cls-41" d="m799.86,489.11c1.06,1.49,1.72,3.77,3.28,5.47,1.66,8.2-28.82,35.03-36.66,39.39-16.15,8.99-35.55,12.31-53.07,5.47-3.62-11.53-10.39-23.82-19.7-31.73,21.18-9.61,43.72-12.28,65.65-18.6-5.2,3.72-10.25,8.77-15.87,12.04-8.44,4.91-21.98,6.26-8.21,6.57.53,12.66,34.2,2.49,47.6-6.57,19.47-13.16,10.28-10.92,4.92-28.45,1.16-3.36.72-6.4,1.09-7.66.17-.58-.17-1.58,0-2.19h1.09c-.6,16.86,6.54,21.62,9.85,26.26Z"/>
          <path class="practice-cls-4" d="m780.16,472.69c-10.01,10.11-11.05,9.44-20.79,16.41-21.93,6.32-44.47,8.99-65.65,18.6-2.92-2.48-6.81-4.16-9.85-6.57,3.79-2.95,8.41-4.91,10.39-9.85l1.64,1.09c2.75.28,4.94-.86,7.66-1.09,30.74-2.69,46.73,6.57,76.59-18.6Z"/>
          <path class="practice-cls-49" d="m735.3,507.71c21.07.47,45.51-14.62,52.52-35.01,5.36,17.53,14.55,15.28-4.92,28.45-13.4,9.06-47.07,19.22-47.6,6.57Z"/>
          <path class="practice-cls-40" d="m787.82,472.69c-7.01,20.39-31.46,35.48-52.52,35.01-13.77-.31-.24-1.65,8.21-6.57,5.62-3.27,10.67-8.32,15.87-12.04,9.74-6.97,10.78-6.3,20.79-16.41,2.79-2.82,4.84-6.01,8.75-7.66-.37,1.25.06,4.3-1.09,7.66Z"/>
        </g>
        <path class="practice-cls-4" d="m479.26,455.19c-.88,4.39-4.6,12.47,0,12.04-2.34,8.35-5.31,16.53-6.57,25.17-5.69,4.64-1.38,11.5,1.09,7.66,8.54-.72,15.58-3.2,16.41-3.28,3.96-.41,22.31-1.64,24.07-1.09,4.19,8.23,24.39,12.94,24.07,18.6-1.97.05-12.27-3.08-15.87-3.28-40.09-2.26-72.05,6.02-105.59,27.9,11.37,5.47,22.47,11.67,33.92,16.96,12.87,5.94,26.33,10.89,39.39,16.41-.47.13-2.13.99-2.19,1.09-26.99-9.23-52.2-21.32-77.69-33.92,11.41-8.92,29.64-9.55,22.98-27.35,9.24-3.8,18.25-7.25,27.9-9.85.72-.86,1.28-8.4,2.74-13.13,3.64-11.82,6.74-23.31,10.94-35.01.12-.32-.12-.77,0-1.09l4.38,2.19Z"/>
        <g>
          <path class="practice-cls-58" d="m649.95,514.27c3.33,5.33,7.6,9.99,10.94,15.32,2.84,4.54,6.38,8.86,7.66,14.22,9.97,41.81-47.82,76.55-83.71,62.37-.77,26.49-25.82,64.99-48.14,77.69-21.5,12.23-49.07,3.92-68.39-9.85-15.55-11.08-29.82-33.87-33.92-52.52,3.42-2.59.65,1.7,4.92,4.38,4.81,3.02,28.73,9.8,36.66,10.94,1.37,2.11,4.74,14.78,6.02,15.32,2.82-1.59,8.71-3.38,10.39-4.38q12.86,15.87,25.71,31.73c.87,0,7.05-6.67,8.21-7.66.63-.54,4.72-2.04,8.75-7.11q-13.13-15.05-26.26-30.09c33.56,2.77,46.05-16.25,43.77-19.15-2.04-2.6-15.45,3.28-13.13-4.92.27-.31,2.02.62,6.57-4.92-1.46-2.43-4.15-1.43-4.38-1.64-3.41-3.24-6.19-6.7-9.85-9.85-1.38-1.19-5.83-7.41-7.11-7.66-3.36-.66-9.95,5.49-13.68,6.57-7.24-1.74-16.7-5.68-22.98-9.85.15-.54-1.42-1.57,2.19-10.94-13.06-5.52-26.52-10.47-39.39-16.41,22.82-15.45,60.45-23.42,85.89-10.94,4.7-12.72,10.53-24.55,19.15-35.01,19.61-18.86,52.83-25.66,77.14-12.04,6.45,3.62,11.37,11.52,16.96,16.41Z"/>
          <path class="practice-cls-3" d="m623.69,581.02q1.64-7.39,3.28-14.77c-3.29-26.47.9,15.19-25.71,22.43-25.52,6.95-31.85-12.67-34.47-3.28-23.3-21.58-16.88-55.66,11.49-59.09,30.88-3.73,62.18,23.96,45.41,54.71Z"/>
          <path class="practice-cls-11" d="m623.69,581.02c-12.04,22.07-40.08,19.96-56.9,4.38,2.62-9.39,8.95,10.23,34.47,3.28,26.61-7.24,22.43-48.9,25.71-22.43q-1.64,7.39-3.28,14.77Z"/>
          <path class="practice-cls-10" d="m531.78,594.15c-6.47,2.03-14.45.43-20.79-1.09,3.73-1.08,10.32-7.22,13.68-6.57,1.29.25,5.73,6.47,7.11,7.66Z"/>
        </g>
        <path class="practice-cls-28" d="m433.3,512.09c6.66,17.81-11.57,18.44-22.98,27.35-4.99-2.46-9.4-5.14-14.22-7.66,4.83-3.45,11.93-6.46,16.41-9.85,1.69-1.28,5.09-2.08,7.66-5.47,4.62-.48,8.92-2.65,13.13-4.38Z"/>
      </g>
    </g>
    <g>
      <path class="practice-cls-59" d="m765.94,542.72c8.47-3.49-10.03,11.26-14.77,14.22-6.64,4.16-18.45,8.04-25.71,12.58-2.42,3.67.26,45.01-42.67,73.31,71.74,34.32,71.12,69.35,48.14,140.6h-4.38l-2.19-6.02c6.96-26.35,14.51-58.38,2.19-83.71-9.87-20.29-28.6-25.49-49.24-28.45-25.41-3.65-58.07-.71-60.73-2.19-.22-.12.4-4.73.55-4.92,3.29-4.3,69.82-1.84,90.82-49.79,3.5-3.1,2.67-4.3,3.28-5.47,4.7-8.92,8.1-27.24,7.66-37.2,16.02-6.97,32.29-13.44,47.05-22.98Z"/>
      <path class="practice-cls-59" d="m362.18,590.87c.13,5.1-.18,10.23,0,15.32.03.73-.04,1.46,0,2.19,1.18,23.19,9.14,53.57,21.88,73.31-8.06,22.51-5.88,45.61,0,68.39-.55,2.92-2.75,6.76-3.28,9.3l-5.47-4.38c-5.26-25.64-4.25-52.52,0-78.24-12.39-26.19-19.77-54.08-20.79-83.16-1.73-5.23-3.12-3.64-3.28-3.83l3.28-2.19c2.27,1.15,5.19,3.07,7.66,3.28Z"/>
      <g>
        <path class="practice-cls-49" d="m687.16,914.75c.53,6.41,4.84,3.88,5.47,4.38.37.29,4.87,7.1,5.47,7.66l-2.19,3.28c-6.58-.91-5.67.95-9.85,4.38-52.83-1.33-30.78-3.39-28.45-19.7,7.43,1.69,23.27,1.97,29.54,0Z"/>
        <path class="practice-cls-4" d="m687.16,914.75c-6.28,1.97-22.11,1.69-29.54,0,.09-.6-3.41-8.2.55-12.04,22.4,8.38,39.53-7.61,33.37,9.3-.09.24-3.89,2.58-4.38,2.74Z"/>
      </g>
      <g>
        <path class="practice-cls-40" d="m454.09,913.66c.52,4.38.03,9.32,1.09,13.68-5.44.19-4.87,1.49-6.57,2.74-.85.63-3.73,4.28-6.02,5.47q-10.94-1.09-21.88-2.19c-2.34-2.49,6.61-16.1,8.21-17.51,6-5.26,17.58-2.03,25.17-6.57.26,1.31-.17,2.98,0,4.38Z"/>
        <path class="practice-cls-4" d="m454.09,909.28c-7.59,4.53-19.17,1.3-25.17,6.57-15.43-19.07,2.62-6.09,24.62-10.94,1.13.76.3,3.14.55,4.38Z"/>
        <path class="practice-cls-26" d="m459.56,930.07c-.71.89-6.81-2.9-9.85,0h-1.09c1.7-1.25,1.13-2.54,6.57-2.74-1.06-4.35-.57-9.3-1.09-13.68l3.28-1.09c.26,10.64,2.74,16.82,2.19,17.51Z"/>
      </g>
      <g>
        <path class="practice-cls-25" d="m726.55,693.72c-3.55-1.69,4,12.9,4.38,16.96,2.85,31.09-8.2,59.54-13.13,90.27-3.32,6.84-7.52,31.01-3.28,30.64-7.73,1.95-4.86,10.82-6.57,16.96-.06.22-2.8,1.01-3.28,3.28-1.05,4.98-.47,32.34-4.38,35.01-2.5,1.71-20.42,5.62-24.07-3.28-3.57-8.7,6.55-129.02,7.66-149.91-2.18-3.45-26.55,12.06-11.49-8.21-7.87,2.72-58.52,3.55-61.28,2.19-6.72-3.33,5.77-9.78,7.11-11.49,5.03-6.39,20.13-32.38,24.62-35.56,11.74-3.73,25.1-9.8,34.47-15.32,20.64,2.96,39.37,8.16,49.24,28.45Z"/>
        <path class="practice-cls-25" d="m471.6,850.19c-12.18-2.8,3.36,31.22-6.57,44.86,3.64-7.73-6.51-6.59-11.49-10.94-19.46-17.03-37.78-98.02-44.32-125.29,6.36-.44,0-8.11,8.21-7.11,2.42.3,15.77,14.24,43.22,21.34-.35,10.97,1.38,73.52,4.92,76.05l6.02,1.09Z"/>
        <g>
          <path class="practice-cls-27" d="m707.95,608.38c-21,47.95-87.52,45.49-90.82,49.79-.15.2-.76,4.8-.55,4.92,2.66,1.47,35.31-1.46,60.73,2.19-9.36,5.52-22.73,11.59-34.47,15.32-4.49,3.18-19.59,29.17-24.62,35.56-1.35,1.71-13.84,8.15-7.11,11.49,2.75,1.37,53.41.54,61.28-2.19-15.06,20.26,9.31,4.75,11.49,8.21-1.11,20.89-11.23,141.21-7.66,149.91,3.65,8.9,21.57,4.99,24.07,3.28,3.91-2.67,3.32-30.03,4.38-35.01.48-2.27,3.22-3.06,3.28-3.28,1.7-6.14-1.16-15.01,6.57-16.96,13.28-3.36,12.43,10.73,3.28-30.64,4.93-30.73,15.98-59.18,13.13-90.27-.37-4.06-7.93-18.65-4.38-16.96,12.32,25.32,4.77,57.36-2.19,83.71l2.19,6.02c3.06,18.26,39.69,120.98,49.24,156.47.84,3.13,5.1,14.27,4.38,15.87-18.73,6.42-17.87-6.28-22.98-22.43-8.59-27.15-14.11-55.46-24.62-82.06l-24.62.55c-3.37,12.01-1.81,33.31-7.66,42.67-4.93,7.9-7.21-1.63-7.66,24.62-.63-.5-4.94,2.03-5.47-4.38.49-.15,4.29-2.49,4.38-2.74,6.16-16.91-10.97-.92-33.37-9.3-3.96,3.83-.46,11.44-.55,12.04-2.33,16.3-24.38,18.37,28.45,19.7-.57.47-.66,5.97-10.94,8.75.82,4.3-.89,6.44-3.28,9.85-2.33,3.31-24.24,30.52-6.57,21.88,1.22,1.62.57,3.12,2.19,4.38,4.36,3.37,12.09,3.27,16.96,5.47l2.74-3.28c-.77,4.49,1.17,5.31,5.47,5.47,7.75.3,10.02-9.08,13.13-14.22,7.28,6,48.48,12.2,57.45,9.85,5.69-1.49-2.16-4.43,2.74-4.38,3.35,9.37,2.37,13.78-3.28,21.88-1.38.14-2.26,2.15-2.74,2.19-11.99.91-28.93.2-41.03-1.09-16.68-1.79-34.49-6.6-50.33-12.04-39.17-13.45-46.37-16.35-27.9-52.52-43.34-2.26-126.2,3.02-161.39,0-9.49-.81-8.03-6.92-14.22-1.09.9-1.08,6.57-8.21,6.57-8.75,16.22-1.47,42.51,3.82,42.13-4.38-.58,6.48,39.46,4.92,41.58,4.38,1.13-.29,4.96-10.22,6.57,0,10.6-1.43,77.31,1.72,80.97,0,2.31-1.08,1.59-6.94,3.28-7.66.33-.14,5.5,2.83,7.11.55.6-.85.34-19.81,0-20.79-.34-1-5.95-3.5-6.57-5.47-4.3-13.7,13.39-51.01-7.11-43.22-3.55,13.48-13.88-11.62-27.35,5.47-5.48-7.42-19.38-8.35-25.17-1.09-6.11-5.67-17.61-7.24-22.98,0-18-11.98-21.63.97-22.98,1.09-1.17.11-3.28-5.09-4.38-5.47-2.74-.94-55.28-1.03-57.99,0-3.29,1.25-5.62,18.16-7.11,0l-6.02-1.09c-3.54-2.53-5.27-65.07-4.92-76.05-27.45-7.09-40.8-21.04-43.22-21.34-8.21-1-1.84,6.67-8.21,7.11,6.54,27.26,24.85,108.26,44.32,125.29,4.98,4.35,15.13,3.21,11.49,10.94-7.59,10.43-8.12-1.66-7.66,17.51l-3.28,1.09c-.17-1.4.26-3.06,0-4.38-.25-1.24.58-3.61-.55-4.38-21.99,4.86-40.05-8.12-24.62,10.94-1.6,1.4-10.55,15.02-8.21,17.51q10.94,1.09,21.88,2.19c2.29-1.19,5.16-4.84,6.02-5.47h1.09c-10.02,17.9-20.18,8.72-4.38,21.88,4.05,3.37,5.48,4.06,9.85,6.57v3.28c-5.6-3.93-19.82-13.31-21.88-7.66-1.48,4.06,9.96,7.05,9.85,11.49-.11,4.37-11.71,6.26-10.94,12.58,1.93,15.91,21.13-11.17,22.43-12.04,1.79-1.2,2.59,1.09,2.74,1.09-3.46,3.55-8.72,23.24.55,21.88,1.22-.18,15.51-22.56,8.21-19.7l2.74-1.09c11.34,13.12,38.1,12.3,54.71,9.85,2.42-4.84-4.3-6.62.55-6.57,5.61,8.01,10.63,21.23,0,28.45-20.27,13.76-111.15-6.96-125.83-35.56q4.92-16.14,9.85-32.28c-.58-6.8,10.76-7.62,15.32-13.68-7.63-20.78-7.5-44.51-12.04-66.75-3.63-4.44-3.57,8.72-8.21,7.11-5.32-1.84,11.29-11.75-32.83-8.75-10.82,28.47-16.86,58.51-25.71,87.54-1.05,3.45-5.37,19.27-7.11,19.7-19.93-3.3-12.8-2.97-9.3-16.41.09-.34-.09-.75,0-1.09,12.49-46.55,45.82-148.36,52.52-180.54.53-2.54,2.74-6.38,3.28-9.3-5.88-22.78-8.06-45.88,0-68.39.29.46,7,6.8,7.66,7.66,15.94,20.76,36.38,42.22,62.37,47.6,1-1.26-2.45-5.15-3.28-6.02-1.87-2.86-1.6-6.71,1.09-8.75,37.27,19.26,90.81,16.23,123.1-12.04,17-14.88,40.59-53.78,29.54-75.5,30.55,6.4,75.94-3.96,93.55-31.73,6.92,2.49,2.45,12.02,9.85,5.47Z"/>
          <path class="practice-cls-21" d="m662.54,733.11c2.02.41.83,6.72-1.09,7.66-1.54.75-30.13,5.09-33.92,5.47-23.34,2.32-46.33.34-69.48-2.74,21.98-1.95,44.24-1.86,66.2-3.83,18.98-1.7,36.39-6.95,38.3-6.57Z"/>
          <path class="practice-cls-30" d="m455.19,961.8c1.03.72,4.85,3.7,5.47,4.38-1.81-.52-2.24,1.09-3.28,1.09-.15,0-.95-2.29-2.74-1.09-1.3.87-20.51,27.95-22.43,12.04,18.26-6.61,22.68-17,1.09-24.07,2.06-5.65,16.29,3.73,21.88,7.66Z"/>
          <path class="practice-cls-52" d="m432.21,978.21c-.77-6.32,10.83-8.21,10.94-12.58.12-4.44-11.33-7.43-9.85-11.49,21.59,7.08,17.17,17.46-1.09,24.07Z"/>
          <path class="practice-cls-52" d="m434.94,961.8c10.67-1.01-1.06,11.82-5.47,8.75-2.23-1.55,3.25-8.54,5.47-8.75Z"/>
        </g>
      </g>
      <path class="practice-cls-55" d="m364.37,470.51c-60.25,105.16,25.5,113.22,110.51,138.96-2.92,6.37-5.3,7.5-6.57,9.85-11.54-3.06-23.38-3.97-35.01-6.57-17.46-3.89-35.81-8.79-52.52-15.32-1.72-.67-5.03-.9-5.47-1.09-2.93-1.31-8.44-3.89-10.94-5.47-10.3-6.48-38.05-34.63-40.49-46.5-3.17-15.45,8.53-27.01,8.75-39.94,10.86-19.89,25.34-36.1,39.39-53.62l2.19.55c-4.5,6.39-13.16,16.63-9.85,19.15Z"/>
      <path class="practice-cls-5" d="m507.71,359.99c.55,4.97-1.04,4.16-1.09,4.38-1.13-2.85-4.55-.07-5.47,0-4.32.35-9.86-.56-13.68,0-50.9,7.51-98.73,63.61-123.1,106.14-3.31-2.52,5.35-12.76,9.85-19.15l-2.19-.55c33.82-42.14,75.24-94.63,135.68-90.82Z"/>
      <path class="practice-cls-4" d="m364.37,590.87c-.73-.03-1.47.06-2.19,0-2.47-.21-5.39-2.14-7.66-3.28-41.12-20.75-41.89-46.52-21.88-83.16-.22,12.93-11.92,24.49-8.75,39.94,2.44,11.88,30.18,40.02,40.49,46.5Z"/>
      <path class="practice-cls-10" d="m515.37,361.09c.13,1.42,0,2.94,0,4.38.01,4.21-3.03,8.69-1.09,13.13-.99-1.1-2.9-3.21-3.83-3.28-1.29.58-1.23,6.6-1.64,7.66-1.02-.31-1.39-1.35-2.19-2.19-3.2-3.37-1.09-11.83,0-16.41.05-.22,1.65.59,1.09-4.38,2.79.18,4.85,1.43,7.66,1.09Z"/>
      <g>
        <g>
          <path class="practice-cls-22" d="m566.8,138.96c2.87-.59,10.07-5.56,13.13-7.66,9.57,7.42,9.96,13.78,11.49,14.22,7.47-4.17,24.81,3.54,26.26,3.28,5.34-.96.49-17.43,27.35,0l1.64-2.19c3.19-5.03,5.21-4.15,5.47-4.38,4.8,7.78,10.59,14.78,9.85,24.62,22.04,8.89,7.93,10.95,8.75,17.51.2,1.61,24.28,27.69,6.57,19.7,4.34,8.21,4.19,15.72-2.19,22.98-5.14,5.85-6.44-4.17-9.3-2.74-1.95.97,3.14,6.58,2.74,8.21-.1.42-6.68,4.91-7.11,4.92-2.46.1-4.42-4.51-6.02-4.38-4.79.4,1.78,6.22-1.64,7.66-15.92,6.69-.57-14.73-3.28-16.41-10.1,3.62-22.29,4.76-30.09-3.83,7.83-6.54,13.48-15.78,15.87-25.71-17.61,11.76-18.63,26.26-35.01,3.28-20.15,34.81-9.6-5.56-12.04-7.66-48.2,38.95-31.05,1.19-32.28-3.83-3.37-13.78-21.11,26.68-26.26,20.79-1.04-1.18-3.95-16.04-6.02-15.87-4.74,7.06-6.62,32.44-13.13,30.64-15.08-4.19,6.94-57.66-12.04-19.7-6.88-1.59-13.42-5.7-18.05-10.94-2.54-2.88-9.88-14.57-7.66-17.51,8.7-8.29,8.62-.59,9.85-23.53,19.83-5.14,14.18,10.16,24.62-16.96q12.58,4.38,25.17,8.75c1.14-.56,2.56-3.16,2.74-3.28,3.68-2.55,6.13-6.28,9.85-8.75,6.35,2.27,15.52,9.84,20.79,8.75Z"/>
          <path class="practice-cls-23" d="m655.43,233.06c4.47,12.9-1.06,10.81-1.09,11.49-.21,4.55,2.42,16.37,1.09,24.62-.02.12-1.5-.4-1.09,2.19-5.4.71-10.09,9.47-13.13,7.66-4.05-39.59-12.84-40.33-38.84-65.65-20.79,15.46-23.73-1.7-25.17-2.19-2.41-.82-16.52,11.24-33.92-1.09-8.53,8.53-17.05,19.56-30.64,18.6-1.67,23.04-18.15,24.16-21.34,26.26-8.38,5.51-.34,13.56-7.66,17.51.41-7.26-4.18-17.84-10.94-20.79-.07-.03.43-.72-1.09-1.09-.27-1.78-.62-5.11-1.09-6.57,52.47,1.27,35.84-16.04,9.3-8.75-1.7.47-10.16,4.91-10.39,7.66-8.11-25.03,3.67-19.14,3.28-26.81-.05-.93-6.62-9.11-6.57-9.85.06-.8,9.24-12.06,9.85-12.58.22-.19,2.53.67,5.47-2.19,4.63,5.24,11.18,9.35,18.05,10.94,18.97-37.96-3.04,15.51,12.04,19.7,6.51,1.81,8.39-23.57,13.13-30.64,2.07-.18,4.98,14.68,6.02,15.87,5.15,5.89,22.89-34.57,26.26-20.79,1.23,5.02-15.92,42.78,32.28,3.83,2.44,2.09-8.11,42.47,12.04,7.66,16.38,22.98,17.41,8.47,35.01-3.28-2.38,9.94-8.04,19.17-15.87,25.71,7.8,8.59,19.99,7.45,30.09,3.83,2.71,1.68-12.64,23.1,3.28,16.41,3.42-1.44-3.15-7.26,1.64-7.66Z"/>
          <path class="practice-cls-22" d="m470.51,244.01c-.02-.07-.59.45-1.09-1.09.23-2.74,8.69-7.19,10.39-7.66,26.54-7.29,43.17,10.02-9.3,8.75Z"/>
        </g>
        <g>
          <path class="practice-cls-59" d="m672.93,288.87c1.75-12.82-5.68-18.51-17.51-19.7,1.32-8.25-1.3-20.07-1.09-24.62.03-.67,5.56,1.41,1.09-11.49,1.59-.13,3.56,4.48,6.02,4.38.43-.02,7.01-4.5,7.11-4.92.41-1.63-4.68-7.23-2.74-8.21,2.86-1.43,4.16,8.58,9.3,2.74,6.38-7.26,6.53-14.77,2.19-22.98,17.71,7.99-6.36-18.08-6.57-19.7-.83-6.55,13.28-8.61-8.75-17.51.75-9.84-5.05-16.84-9.85-24.62,1.25-1.09,3.43-1.06,4.38-2.74.39-3.96-43.5-15.5-9.85,7.11l-1.64,2.19c-26.86-17.43-22.02-.96-27.35,0-1.45.26-18.79-7.45-26.26-3.28-1.53-.44-1.92-6.81-11.49-14.22-.87-.68-.6-7.13-20.24-5.47l7.11,13.13c-5.27,1.08-14.44-6.48-20.79-8.75-5.37-1.92-9.84-4.31-15.87-3.28l6.02,12.04c-.18.12-1.6,2.72-2.74,3.28q-12.58-4.38-25.17-8.75c-10.44,27.12-4.79,11.82-24.62,16.96-1.23,22.94-1.15,15.23-9.85,23.53-1.75,1.67-7.58,5.07-7.66,7.11-.03.8,8.09,11.12,9.85,12.58-.61.52-9.79,11.79-9.85,12.58-.06.74,6.52,8.92,6.57,9.85.39,7.67-11.4,1.78-3.28,26.81.5,1.55,1.07,1.02,1.09,1.09.47,1.46.83,4.79,1.09,6.57-21.76-5.36-32.44,36.03,3.28,36.66,5.31,44.81,40.3,67.1,41.58,71.12.04.14-1.31.47-1.09,2.74-2.81.33-4.87-.92-7.66-1.09-60.45-3.81-101.86,48.67-135.68,90.82-14.06,17.52-28.53,33.73-39.39,53.62-20,36.64-19.24,62.41,21.88,83.16l-3.28,2.19c-2.81-3.17-54.45-32.42-49.24-64.01,1.8-10.9,37.28-51.26,45.96-63.46,44.19-62.15,53.43-92.77,137.87-129.12-8.86-13.35-14.75-27.49-19.7-42.67-43.1-23.94-6.37-46.18-5.47-49.24.62-2.12-2.72-12.51-2.19-15.32.18-.97,5.42-6.14,5.47-6.57.13-1.09-7.6-16.11-7.66-17.51-.24-6.14,5.4-8.24,5.47-8.75.81-5.89-24.48-15.25,4.38-33.92-4.73-14.02,10.72-24.85,23.53-23.53,12.52-19.43,22.46-10.83,27.35-12.04,10.59-11.71,26.54-12.03,40.49-6.57,11.64-6.12,26.6-4,36.11,5.47,28.71-11.83,36.3,2.75,38.3,3.28,9.07,2.41,19.44-5.7,40.49,14.22,15.11,14.3,9.42,25.3,27.9,37.75-4.7,33.24-5.25,50.17-30.64,74.41,2.48,10.34,13.94,30.78,3.28,36.66Z"/>
          <g>
            <path class="practice-cls-45" d="m680.05,173.98c.79-.24,13.42,8.51,13.68,9.3.27.83-3.73,13.93-3.83,16.96-1.77-4.2-19.18-23.44-9.85-26.26Z"/>
            <path class="practice-cls-45" d="m674.57,151c.87.3,6.15,14.87,5.47,15.32-29.35-2.06-15.97-18.98-5.47-15.32Z"/>
            <path class="practice-cls-38" d="m601.26,131.3c4.49-1.88,24.18,3.37,19.15,10.39-3.4,4.74-28.58-6.44-19.15-10.39Z"/>
            <path class="practice-cls-45" d="m652.14,142.25c-.26.23-2.29-.65-5.47,4.38-33.65-22.61,10.24-11.08,9.85-7.11-.94,1.67-3.13,1.65-4.38,2.74Z"/>
            <path class="practice-cls-45" d="m579.93,131.3c-3.06,2.1-10.26,7.07-13.13,7.66l-7.11-13.13c19.64-1.65,19.37,4.79,20.24,5.47Z"/>
            <path class="practice-cls-23" d="m481.45,191.48c-2.94,2.86-5.25,2-5.47,2.19-1.76-1.47-9.88-11.78-9.85-12.58.08-2.04,5.91-5.44,7.66-7.11-2.22,2.93,5.11,14.63,7.66,17.51Z"/>
            <path class="practice-cls-45" d="m546.01,130.21c-3.72,2.47-6.17,6.21-9.85,8.75l-6.02-12.04c6.03-1.02,10.5,1.36,15.87,3.28Z"/>
          </g>
        </g>
      </g>
      <path class="practice-cls-16" d="m606.19,359.99c-20.42,11-33.14,7.7-33.92,9.3,65.68,40.44,61.97,45.49,101.76,91.37-5.29,2.47-9,2.69-12.04-3.28,6.24,2.44,9.98,6.72,4.38-1.64-17.87-26.65-48.38-53.13-76.59-68.39.05-.35-.09-.76,0-1.09.05-.17,3.03.47,3.28-.55.37-1.48-23.99-13.33-22.98-19.15,15.69-.36,22.08-3.48,36.11-6.57Z"/>
      <g>
        <path class="practice-cls-23" d="m524.12,971.65c-4.85-.06,1.87,1.73-.55,6.57-16.61,2.45-43.37,3.28-54.71-9.85l-2.74,1.09q-5.2,7.66-10.39,15.32c-1.51-7.2,9.48-13.66,4.92-18.6-.63-.68-4.44-3.65-5.47-4.38v-3.28c6.62,3.81,12.95,7.39,20.24,9.85,2.88-.1,7.71-3.01,9.3-3.28,13.3-2.27,30.78-3.68,22.98-7.66,6.03,4.86,11.72,7.52,16.41,14.22Z"/>
        <path class="practice-cls-30" d="m479.26,936.63c9.36,7.17,19.25,13.37,28.45,20.79,7.8,3.98-9.68,5.39-22.98,7.66,1.37-5.28-16.87-11.14-20.79-16.96-1.18-1.75.06-8.08-3.28-7.11.26-.23,3.11-3.94,4.38-5.47,6.19-5.83,4.74.28,14.22,1.09Z"/>
        <path class="practice-cls-31" d="m460.66,941.01c3.34-.97,2.1,5.36,3.28,7.11,3.92,5.82,22.16,11.68,20.79,16.96-1.6.27-6.42,3.18-9.3,3.28-7.29-2.45-13.62-6.04-20.24-9.85-4.36-2.51-5.8-3.19-9.85-6.57-1.62-2.41-2.39-2.35-1.09-5.47,5.16.71,8.54-3.46,12.04-6.57.06,5.74,1.53,3.56,4.38,1.09Z"/>
        <path class="practice-cls-44" d="m460.66,966.18c4.55,4.94-6.43,11.4-4.92,18.6q5.2-7.66,10.39-15.32c7.31-2.86-6.98,19.52-8.21,19.7-9.26,1.35-4.01-18.34-.55-21.88,1.05,0,1.47-1.61,3.28-1.09Z"/>
        <path class="practice-cls-18" d="m459.56,930.07c-1.64,1.41-14.89,15.38-15.32,16.41-1.29,3.12-.52,3.06,1.09,5.47-15.8-13.16-5.64-3.99,4.38-21.88,3.04-2.9,9.14.89,9.85,0Z"/>
        <path class="practice-cls-17" d="m471.6,926.79c0,.55-5.67,7.67-6.57,8.75-1.26,1.53-4.11,5.24-4.38,5.47-2.84,2.46-4.32,4.65-4.38-1.09,2.4-2.13,10.73-12.54,12.58-13.13h2.74Z"/>
        <path class="practice-cls-25" d="m471.6,926.79h-2.74c-1.85.6-10.18,11-12.58,13.13-3.5,3.11-6.88,7.27-12.04,6.57.43-1.04,13.68-15.01,15.32-16.41,1.7-1.46,11.99-11.62,12.04-3.28Z"/>
      </g>
      <g>
        <path class="practice-cls-23" d="m698.1,926.79c.34.32-.47-1.51,7.66,5.47.1.08,1,2.11,1.09,2.19-8.71-.44-10.75,6.85-15.32,10.94-2.01,1.8-7.04,4.03-9.85,4.92,42.37,26.27,30.15,14.96,38.84,11.49,6.06-2.42,18.28.08,13.68-7.66.24.17,2.52.2,5.47,2.19-3.18,2.21-4.38,3.56-2.74,7.66,10.3,1.03,18.6,11.23,26.81,10.94.27.44,1.05.11,2.19,3.28-4.9-.06,2.95,2.89-2.74,4.38-8.96,2.35-50.17-3.85-57.45-9.85-.17-.14.3-5.22-2.19-3.83-18.73,31.54-2.55,3.98-2.19,1.09,2.27-18.16-11.3,6.04-12.04,9.85-1.14,5.92,4.26,1.89,3.28,7.11-4.3-.17-6.24-.98-5.47-5.47,13.89-23.88-4.98-34.27-12.04-16.96l1.64,1.64c.68-1.97,1-2.25,2.74-3.28-.35,3.82-4.21,8.29-4.38,8.75-3.68-3.81-6.86,3.22-7.66,7.66-1.62-1.25-.97-2.75-2.19-4.38,2.54-1.24,19.66-27.89,6.57-21.88,2.39-3.4,4.1-5.55,3.28-9.85,3.86,1.07-.26,3.5,1.64,5.47,3.29,3.4,24.1-15.54,23.53-16.96-.09-.22-3.91-1.58-4.38-1.64l2.19-3.28Z"/>
        <path class="practice-cls-29" d="m687.16,981.5l-2.74,3.28c-4.87-2.2-12.6-2.1-16.96-5.47.8-4.44,3.98-11.47,7.66-7.66-8.71,23.73,21.02-12.11,8.21-12.04-.25,0-2.21,2.31-3.83,3.28-1.73,1.04-2.05,1.32-2.74,3.28l-1.64-1.64c7.05-17.31,25.92-6.92,12.04,16.96Z"/>
        <path class="practice-cls-17" d="m665.27,974.93c-17.68,8.64,4.23-18.57,6.57-21.88,13.1-6.01-4.03,20.64-6.57,21.88Z"/>
        <path class="practice-cls-54" d="m705.76,972.74c-3.11,5.15-5.38,14.52-13.13,14.22.98-5.23-4.43-1.19-3.28-7.11.74-3.81,14.31-28.01,12.04-9.85-.36,2.88-16.54,30.45,2.19-1.09,2.49-1.39,2.02,3.69,2.19,3.83Z"/>
        <path class="practice-cls-8" d="m695.91,930.07c.46.06,4.29,1.42,4.38,1.64.58,1.42-20.24,20.36-23.53,16.96-1.91-1.97,2.22-4.4-1.64-5.47,10.28-2.78,10.37-8.28,10.94-8.75,4.18-3.43,3.27-5.29,9.85-4.38Z"/>
        <path class="practice-cls-30" d="m698.1,948.67c7.4,5.36,8.52,13.54,29.54,1.09,2.17,1.49,4.38,2.89,6.57,4.38,4.6,7.74-7.62,5.24-13.68,7.66-8.69,3.47,3.53,14.78-38.84-11.49,2.8-.89,7.84-3.12,9.85-4.92,1.99,1.28,4.7,1.94,6.57,3.28Z"/>
        <path class="practice-cls-30" d="m724.36,947.58c-15.69,10.74-33.07,5.85-10.94-8.75,3.64,2.83,7.14,6.15,10.94,8.75Z"/>
        <path class="practice-cls-23" d="m763.75,974.93c-8.21.29-16.51-9.91-26.81-10.94-1.65-4.1-.44-5.45,2.74-7.66,9.11,6.12,18.07,8.69,24.07,18.6Z"/>
        <path class="practice-cls-22" d="m713.42,938.82c-22.13,14.6-4.75,19.5,10.94,8.75,1.06.73,2.17,1.42,3.28,2.19-21.02,12.45-22.14,4.26-29.54-1.09l10.94-10.94c.18.14,2.5-.36,4.38,1.09Z"/>
        <path class="practice-cls-30" d="m709.04,937.73l-10.94,10.94c-1.86-1.35-4.58-2.01-6.57-3.28,4.57-4.09,6.61-11.38,15.32-10.94.15.13-.98.72,2.19,3.28Z"/>
        <path class="practice-cls-54" d="m675.12,971.65c.17-.46,4.03-4.93,4.38-8.75,1.62-.97,3.58-3.28,3.83-3.28,12.81-.08-16.92,35.76-8.21,12.04Z"/>
      </g>
      <path class="practice-cls-58" d="m501.14,364.37c-8.24,33.66-26.28,63.63-37.2,96.29-4.41,13.19-4.08,17.23-6.57,27.35-1.05,4.28-.81,7.44-3.28,6.57q1.09-29.27,2.19-58.54c-2.43,7.24-2.63,14.92-3.28,22.43-8.53,11.35-10.44,27.58-19.7,39.39q2.19-18.33,4.38-36.66c-2.16,5.41-4.05,11.33-5.47,16.96-5.43,4.92-9.91,16.68-13.13,24.07-10.42-1.26-21.49,19.84-31.73,26.81,3.33,2.61,7.49,2.07,8.75,2.74,4.82,2.52,9.24,5.2,14.22,7.66,25.49,12.6,50.7,24.69,77.69,33.92-3.29,5.98-6.99,23.57-10.94,32.83-1.58,3.7-2.11,3.1-2.19,3.28-85.01-25.75-170.77-33.81-110.51-138.96,24.37-42.53,72.2-98.63,123.1-106.14,3.82-.56,9.36.35,13.68,0Z"/>
      <path class="practice-cls-4" d="m537.25,370.93c-7.47,0,4.83,7.03,14.22,13.13,1.64,1.06,3.57,1.96,3.28,4.38-7.28,7.04-16.09,26.24-26.26,9.85,8.05,5.85,13.14-1.93,13.13-2.74-.02-1.86-18.45-20.81-21.88-30.09-.37-.99-1.78-4.91-.55-5.47,4.91,4.27,11.9,9,18.05,10.94Z"/>
      <path class="practice-cls-55" d="m519.74,365.46c3.43,9.28,21.86,28.23,21.88,30.09,0,.81-5.08,8.59-13.13,2.74-5.69-4.14-11.45-16.61-14.22-19.7-1.93-4.44,1.11-8.92,1.09-13.13,1.27,0,2.23,2.14,2.74,2.19.76.07.14-2.45,1.64-2.19Z"/>
      <path class="practice-cls-10" d="m564.61,366.56c-.26,3.68,8.83,12.01,12.04,14.22h-4.38c-1.25-2.13-1.81-5.06-4.92-5.47-.46.22.35,5.18.55,6.57-3.03,2.4-1.7-1.47-3.28-1.09-2.91.69-7.49,5.37-9.85,7.66.29-2.42-1.64-3.31-3.28-4.38-1.02-3.53-.23-7.73,1.09-10.94.2-.49,2.87-2.79,6.02-8.75,2.2-.66,5.7,2.18,6.02,2.19Z"/>
      <path class="practice-cls-4" d="m570.08,366.56c-1.01,5.82,23.35,17.66,22.98,19.15-.25,1.02-3.24.37-3.28.55-3.37.15-10.47-3.63-13.13-5.47-3.2-2.22-12.29-10.55-12.04-14.22,1.82.05,3.66.04,5.47,0Z"/>
      <path class="practice-cls-34" d="m506.61,364.37c-1.09,4.58-3.2,13.05,0,16.41-11.16,23.75-22.83,47.49-31.73,72.22-.12.32.12.77,0,1.09-6.01,3.36-.05,6.36-10.94,6.57,10.93-32.66,28.96-62.63,37.2-96.29.92-.07,4.34-2.85,5.47,0Z"/>
      <path class="practice-cls-53" d="m508.8,382.97c-.32.84-.78,1.35-1.09,2.19-.86,2.29-3.12,7.05-3.28,7.66l-1.09-2.74c-4.5,15.71-10.43,30.91-15.32,46.5-4.15-6.09-6.65,8.16-8.75,18.6l-4.38-2.19c8.9-24.73,20.57-48.46,31.73-72.22.8.84,1.17,1.88,2.19,2.19Z"/>
      <path class="practice-cls-58" d="m661.99,457.38c-16.25-6.34-39.77-14.18-56.9-15.32-2-10.22-16.2-48.92-15.32-54.71,28.22,15.26,58.72,41.73,76.59,68.39,5.6,8.36,1.86,4.08-4.38,1.64Z"/>
      <path class="practice-cls-40" d="m576.64,380.78c2.66,1.84,9.76,5.62,13.13,5.47-.09.33.05.74,0,1.09-.88,5.79,13.32,44.49,15.32,54.71-.82-.05-15.38-.06-16.41,0-2.36-14.33-10.27-50.82-16.41-61.28h4.38Z"/>
      <path class="practice-cls-36" d="m572.27,380.78c6.15,10.46,14.06,46.95,16.41,61.28-.28.01,1.32.45-5.47,1.09-2.97-17.91-13.11-45.95-15.32-61.28-.2-1.38-1.01-6.35-.55-6.57,3.11.41,3.67,3.34,4.92,5.47Z"/>
      <g>
        <path class="practice-cls-40" d="m845.82,372.03c.3.18,3.48,4.44,4.38,5.47,11.39,28.71,2.83,59.89-19.7,79.88-.1-.48-3.68-6.64-4.38-8.75,12.39-2.93-1.53-9.43,8.75-43.22,1.4-4.59,9.15-11.36,5.47-16.41,7.88-6.49,11.89-8.77,3.28-16.96.87.08,1.95-.14,2.19,0Z"/>
        <path class="practice-cls-4" d="m829.4,482.54c-2.6-1.61-6.07-6.22-7.66-8.75-.07-.1-.27-.82-1.09-2.19-3.04-5.06-7.28-13.04-8.75-18.6-.74-2.79-.62-7.94-2.19-8.75l2.19-2.74c-4.97-33.08,2.83-28.59,12.04-38.84-.48,2.04,2.65-.49,5.47-3.28-5.11,8.93-13.04,11.49-12.04,24.07-7.73,4.58,4.09,45.66,7.11,45.96.75.07,7.52-4.74,6.02-12.04,22.53-19.99,31.08-51.17,19.7-79.88,21.91,25.19-4.39,80.67-20.79,105.04Z"/>
        <path class="practice-cls-49" d="m838.16,368.75c.26.18,1.76-.25,5.47,3.28,8.6,8.19,4.6,10.47-3.28,16.96,3.68,5.05-4.07,11.83-5.47,16.41-10.28,33.79,3.63,40.29-8.75,43.22-1.89-5.77-8.47-21.59-8.75-25.17-1-12.58,6.92-15.14,12.04-24.07,2.89-2.87,5.06-6.21,7.66-9.3-32.92-1.27-10.7-8.02-21.88-32.28,2.69-.78,18.92,8.16,22.98,10.94Z"/>
        <path class="practice-cls-55" d="m826.12,448.62c.69,2.12,4.28,8.27,4.38,8.75,1.5,7.29-5.27,12.11-6.02,12.04-3.02-.3-14.84-41.37-7.11-45.96.29,3.58,6.86,19.39,8.75,25.17Z"/>
      </g>
      <g>
        <path class="practice-cls-12" d="m829.4,482.54c-5.28,7.85-11.1,13.96-17.51,20.79-2.32-4.64-8.33-8.3-8.75-8.75-1.56-1.7-2.22-3.98-3.28-5.47q10.94-7.66,21.88-15.32c1.59,2.53,5.06,7.14,7.66,8.75Z"/>
        <path class="practice-cls-6" d="m820.65,471.6c.82,1.37,1.03,2.08,1.09,2.19q-10.94,7.66-21.88,15.32c-3.31-4.64-10.44-9.41-9.85-26.26,2.85.47,4.55-1.84,7.66-3.28,1.93,11.1,13.27,16.81,22.98,12.04Z"/>
        <path class="practice-cls-46" d="m811.9,453c1.47,5.56,5.72,13.54,8.75,18.6-9.71,4.78-21.04-.93-22.98-12.04,4.74-2.2,9.55-4.22,14.22-6.57Z"/>
        <path class="practice-cls-6" d="m809.71,444.25c1.57.81,1.45,5.97,2.19,8.75-4.68,2.34-9.48,4.37-14.22,6.57-3.11,1.44-4.81,3.75-7.66,3.28h-1.09c.47-1.72-.57-3.55.55-5.47.61-1.04,17.18-12.05,20.24-13.13Z"/>
      </g>
      <g>
        <path class="practice-cls-47" d="m471.6,250.57c1.53.38,1.02,1.06,1.09,1.09-23.48-.49-27.32,30.92,0,30.64.12,0-.19.29,2.19,0,2.01-.24,3.5.48,5.47-1.09-1.29,9.18,7.17,27.85,12.04,36.66,3.37,6.09,13.11,19.07,18.6,23.53,4.11,3.34,10.46,11.65,14.22,3.28,33.58,27.92,88.98,13.68,108.33-19.7l-1.09,9.85c-5.96,9.65-16.28,19.79-26.26,25.17-14.02,3.09-20.42,6.21-36.11,6.57-1.82.04-3.66.05-5.47,0-.32,0-3.82-2.84-6.02-2.19-3.15,5.96-5.82,8.26-6.02,8.75-3.98-.47-12.29-1.23-15.32-2.19-6.15-1.94-13.15-6.67-18.05-10.94-1.24.56.18,4.48.55,5.47-1.51-.26-.88,2.26-1.64,2.19-.51-.05-1.47-2.19-2.74-2.19,0-1.44.13-2.95,0-4.38-.21-2.27,1.14-2.6,1.09-2.74-1.28-4.02-36.27-26.31-41.58-71.12-35.72-.63-25.05-42.01-3.28-36.66Z"/>
        <g>
          <path class="practice-cls-16" d="m672.93,288.87c-1.45,10.61-10.59,13.73-19.7,14.22-3.12.17-7.41-2.82-8.75-1.64-1.84,11.65-5.83,23.31-12.04,33.37l1.09-9.85c5.39-9.3,8.41-23.22,8.75-33.92,7.57,18.89,29.45-3.27,9.85-7.11,9.95-10.77,21.78,7.75,4.38,17.51,19.85-.93,18.72-32.85-2.19-30.09-.41-2.58,1.07-2.07,1.09-2.19,11.83,1.18,19.26,6.88,17.51,19.7Z"/>
          <path class="practice-cls-60" d="m642.3,291.06c.12-3.92-.7-8.14-1.09-12.04,3.04,1.81,7.73-6.95,13.13-7.66,20.91-2.76,22.04,29.16,2.19,30.09,17.4-9.76,5.58-28.28-4.38-17.51,19.61,3.84-2.28,26-9.85,7.11Z"/>
        </g>
        <path class="practice-cls-49" d="m491.3,254.95c-2.8,28.17,7.38,61.03,26.26,82.06l-6.57,4.38c-5.5-4.46-15.23-17.43-18.6-23.53-4.87-8.8-13.32-27.47-12.04-36.66.12-.84,2.94-2.76,3.28-8.75,7.32-3.95-.73-12,7.66-17.51Z"/>
        <path class="practice-cls-4" d="m552.57,373.12c-1.32,3.21-2.12,7.42-1.09,10.94-9.4-6.1-21.69-13.14-14.22-13.13,3.03.96,11.34,1.72,15.32,2.19Z"/>
        <path class="practice-cls-55" d="m525.22,344.67c-3.77,8.37-10.11.05-14.22-3.28l6.57-4.38c.78.87,7.24,7.31,7.66,7.66Z"/>
        <g>
          <path class="practice-cls-2" d="m641.2,279.02c.4,3.9,1.22,8.12,1.09,12.04-.34,10.7-3.36,24.62-8.75,33.92-19.35,33.37-74.75,47.62-108.33,19.7-.42-.35-6.88-6.79-7.66-7.66-18.88-21.04-29.06-53.89-26.26-82.06,3.19-2.1,19.66-3.22,21.34-26.26,13.59.96,22.11-10.07,30.64-18.6,17.4,12.34,31.52.27,33.92,1.09,1.44.49,4.38,17.65,25.17,2.19,26,25.32,34.79,26.07,38.84,65.65Z"/>
          <g>
            <path class="practice-cls-7" d="m537.8,239.63c12.75-1.52,23.45,6.23,22.43,10.39-1.47,5.99-17.28-3.73-35.56,1.64-3.34-6.48,8.86-11.53,13.13-12.04Z"/>
            <path class="practice-cls-7" d="m604.55,251.67c10.09-2.22,26.52,1.6,26.81,14.77-17.62-10.42-35.21-.48-35.01-7.66.06-2.16,6.31-6.7,8.21-7.11Z"/>
            <path class="practice-cls-24" d="m531.23,276.83c10.74-1.79,21.38,3.54,20.24,8.21-2.17,8.87-48.95-3.42-20.24-8.21Z"/>
            <path class="practice-cls-24" d="m604.55,288.87c28.64-7.03,20.82,28.52-3.83,2.74.07-.44,3.43-2.64,3.83-2.74Z"/>
            <path class="practice-cls-16" d="m545.46,324.98c8.44,14.97,24.84,20.58,37.2,6.57-4.45,20.14-35.6,12.95-37.2-6.57Z"/>
            <path class="practice-cls-26" d="m570.63,297.62c6.74-2.55,10.16,7.79,5.47,9.85-6.19,2.72-10.82-7.82-5.47-9.85Z"/>
            <path class="practice-cls-13" d="m556.4,310.75c5.5,5.83,13.34,8.38,18.6,1.09,6.82,7.35-19.79,11.07-18.6-1.09Z"/>
            <path class="practice-cls-14" d="m607.83,311.85c2.25-.39,8.26,1.48,8.21,3.83-.14,6.52-24.01-1.06-8.21-3.83Z"/>
            <path class="practice-cls-16" d="m522.48,299.81c.88-.21,5.84-.21,6.57,0,21.46,6.31-26.68,4.77-6.57,0Z"/>
            <path class="practice-cls-60" d="m612.2,270.27c5.14-.73,17.8,3.28-2.19,3.28-1.93-1.39,1.88-3.24,2.19-3.28Z"/>
          </g>
        </g>
      </g>
      <g>
        <g>
          <path class="practice-cls-40" d="m510.99,593.06c6.34,1.53,14.32,3.12,20.79,1.09,3.66,3.15,6.44,6.61,9.85,9.85-20.64,19.54-16.96,24.35-49.24,3.28-3.85-2.51-8.03-4.43-10.94-8.21-.21-1.48,5.85-13.23,6.57-15.87,6.28,4.17,15.74,8.1,22.98,9.85Z"/>
          <path class="practice-cls-47" d="m488.01,583.21c-.72,2.64-6.77,14.39-6.57,15.87,2.91,3.78,7.09,5.69,10.94,8.21,9.34,13.6,30.86,29.58,48.69,18.6.49-.3,8.25-7.63,8.21-8.21-.29-4.05-17.69,1.84-9.85-7.11-2.32,8.2,11.09,2.33,13.13,4.92,2.28,2.9-10.21,21.92-43.77,19.15-1.43-.32-2.15.56-3.28,1.09q-14.22-14.77-28.45-29.54c3.95-9.25,7.65-26.85,10.94-32.83.06-.11,1.72-.97,2.19-1.09-3.61,9.37-2.04,10.4-2.19,10.94Z"/>
          <path class="practice-cls-43" d="m539.44,610.56c-7.84,8.95,9.55,3.06,9.85,7.11.04.58-7.71,7.9-8.21,8.21-17.83,10.97-39.35-5.01-48.69-18.6,32.28,21.06,28.6,16.26,49.24-3.28.23.22,2.92-.78,4.38,1.64-4.55,5.55-6.29,4.62-6.57,4.92Z"/>
        </g>
        <g>
          <path class="practice-cls-27" d="m505.52,635.73c-3.33,1.58-7.12,7.31-7.66,7.66-3.61,2.35-5.17,4.2-5.47,4.38-1.68,1-7.57,2.79-10.39,4.38-1.28-.54-4.65-13.21-6.02-15.32-6.33-9.74-14.27-5.18-7.66-17.51,1.26-2.35,3.64-3.48,6.57-9.85.08-.18.61.41,2.19-3.28q14.22,14.77,28.45,29.54Z"/>
          <g>
            <path class="practice-cls-16" d="m508.8,634.64q13.13,15.05,26.26,30.09c-4.04,5.07-8.12,6.57-8.75,7.11q-14.22-14.22-28.45-28.45c.54-.35,4.33-6.08,7.66-7.66,1.13-.54,1.85-1.41,3.28-1.09Z"/>
            <path class="practice-cls-26" d="m497.86,643.39q14.22,14.22,28.45,28.45c-1.16.99-7.34,7.66-8.21,7.66q-12.86-15.87-25.71-31.73c.3-.18,1.86-2.03,5.47-4.38Z"/>
          </g>
        </g>
      </g>
      <path class="practice-cls-55" d="m453,458.47c-.36,4.19-1.57,8.42-2.19,12.58q1.64,11.76,3.28,23.53c2.48.87,2.23-2.29,3.28-6.57l6.57,1.09c-1.46,4.73-2.02,12.27-2.74,13.13-9.65,2.6-18.66,6.05-27.9,9.85-4.21,1.73-8.51,3.9-13.13,4.38.52-.68,7.38-14.51,7.66-15.32,4.07,1.79,4.35-1.86,5.47-3.28,9.25-11.81,11.17-28.04,19.7-39.39Z"/>
      <path class="practice-cls-36" d="m419.08,502.24c-2.74,6.27-7.71,16.01-6.57,19.7-4.49,3.39-11.58,6.4-16.41,9.85-1.27-.66-5.43-.13-8.75-2.74,10.24-6.97,21.31-28.06,31.73-26.81Z"/>
      <path class="practice-cls-48" d="m427.83,501.14c-.28.81-7.14,14.64-7.66,15.32-2.57,3.39-5.97,4.2-7.66,5.47-1.15-3.68,3.83-13.42,6.57-19.7,3.22-7.39,7.7-19.15,13.13-24.07-1.72,6.82-3.36,20.04-4.38,22.98Z"/>
      <path class="practice-cls-48" d="m474.88,454.09c-4.2,11.7-7.3,23.19-10.94,35.01l-6.57-1.09c2.48-10.12,2.15-14.17,6.57-27.35,10.89-.2,4.93-3.21,10.94-6.57Z"/>
      <path class="practice-cls-47" d="m454.09,494.58q-1.64-11.76-3.28-23.53c.62-4.16,1.83-8.39,2.19-12.58.65-7.51.85-15.2,3.28-22.43q-1.09,29.27-2.19,58.54Z"/>
      <path class="practice-cls-16" d="m433.3,497.86c-1.12,1.43-1.41,5.07-5.47,3.28,1.02-2.94,2.65-16.15,4.38-22.98,1.42-5.63,3.32-11.55,5.47-16.96q-2.19,18.33-4.38,36.66Z"/>
      <g>
        <path class="practice-cls-57" d="m472.69,251.67c6.76,2.95,11.35,13.53,10.94,20.79-.34,5.99-3.17,7.92-3.28,8.75-1.97,1.58-3.47.85-5.47,1.09,17.68-11.18-5.26-32.06-12.04-18.05-4.16,8.59,3.68,13.73,9.85,18.05-27.32.28-23.48-31.13,0-30.64Z"/>
        <g>
          <path class="practice-cls-55" d="m474.88,282.3c-2.38.29-2.07,0-2.19,0-6.17-4.32-14-9.46-9.85-18.05,6.78-14.01,29.71,6.88,12.04,18.05Z"/>
          <path class="practice-cls-60" d="m471.05,266.98c1.17-.36,4.68.44,5.47,1.09,11.66,9.62-20.17,3.39-5.47-1.09Z"/>
        </g>
      </g>
      <path class="practice-cls-58" d="m504.43,392.82c-3.05,11.82-4.71,33.68-10.94,54.16-4.81,15.8-14.68,33.08-17.51,43.22-.79,1.86-2.94,1.91-3.28,2.19,1.25-8.64,4.23-16.82,6.57-25.17,2.87-10.23,5.57-20.5,8.75-30.64,4.89-15.59,10.81-30.8,15.32-46.5l1.09,2.74Z"/>
      <path class="practice-cls-50" d="m488.01,436.59c-3.18,10.14-5.89,20.41-8.75,30.64-4.6.44-.88-7.65,0-12.04,2.1-10.44,4.6-24.69,8.75-18.6Z"/>
      <g>
        <path class="practice-cls-59" d="m823.93,402.67c-9.21,10.26-17.01,5.76-12.04,38.84l-2.19,2.74c-3.06,1.08-19.63,12.09-20.24,13.13-1.12,1.92-.08,3.75-.55,5.47-.17.6.17,1.6,0,2.19-3.92,1.65-5.96,4.84-8.75,7.66-29.87,25.17-45.86,15.91-76.59,18.6,25.5-19.18,47.74-41.98,71.12-63.46,5.07-4.66,36.23-35.68,38.84-36.11.82-.14,13.55,4.1,15.87,4.92-2.14,1.72-3.67,4.01-5.47,6.02Z"/>
        <path class="practice-cls-37" d="m808.07,414.7c1.79.55.91,8.41.55,9.3-1.32,3.27-46.97,42.16-53.07,46.5-45.11,32.17,3.31-13.41,16.41-25.17,4.07-3.65,33.84-31.33,36.11-30.64Z"/>
      </g>
      <g>
        <path class="practice-cls-6" d="m514.27,378.59c2.78,3.08,8.53,15.56,14.22,19.7,10.17,16.4,18.98-2.81,26.26-9.85,2.36-2.28,6.94-6.97,9.85-7.66-.35,5.38,2.06,10.28,3.28,15.32-5.02-.05-24.13,10.14-24.07,11.49,2.78,2.46,22.06,7.07,23.53,6.02,1.73-1.24-1.33-7.42,2.74-6.57,2.94,12.31,6.99,24.43,7.66,37.2-1.32.1-2.93.8-6.57,1.09-1.09.09-1.21,1.17-2.19,1.09-2.45-3.48-.19-6.31,0-9.85.35-6.31.78-12.58-1.64-18.6l-56.9-6.57c-1.76,1.05-1.69,11.89-2.74,15.32-1.72,5.68-4.26,7.76-4.38,8.21-.48,1.9.48,5.2,0,7.11-.44,1.77-3.17,7.2-4.38,9.3.33,5.71,40.28,6.28,43.77,11.49-1.48,1.29-5.79,5.74-7.66,7.66-9.28-.16-32.05-.66-39.39-2.19-.27-.06,1.49-2.13-4.38-3.28,9.45-25.68,12.82-52.91,16.41-79.88.32-.84.77-1.35,1.09-2.19.41-1.06.35-7.08,1.64-7.66.93.07,2.84,2.18,3.83,3.28Z"/>
        <path class="practice-cls-32" d="m567.89,381.88c2.21,15.33,12.35,43.36,15.32,61.28-1.7.16-2.7.89-5.47,1.09-.67-12.78-4.72-24.89-7.66-37.2-.85-3.57-1.33-7.38-2.19-10.94-1.22-5.04-3.64-9.94-3.28-15.32,1.58-.38.25,3.49,3.28,1.09Z"/>
        <path class="practice-cls-56" d="m562.42,453c-16.02,10.4-29.59,22.76-41.03,38.3-3.22-.12.51-1.39-1.64-2.19,5.24-5.95,9.8-12.93,15.32-18.6,1.87-1.92,6.18-6.37,7.66-7.66,6.73-5.86,15.01-9.68,21.88-15.32l4.38-1.09c.98.07,1.1-1.01,2.19-1.09,0,2.58-6.19,6-8.75,7.66Z"/>
        <path class="practice-cls-46" d="m568.98,436.59l-61.28-9.85c1.04-3.43.98-14.27,2.74-15.32l56.9,6.57c2.43,6.02,1.99,12.29,1.64,18.6Z"/>
        <path class="practice-cls-6" d="m568.98,436.59c-.19,3.54-2.45,6.37,0,9.85l-4.38,1.09q-5.2.55-10.39,1.09-25.44-3.28-50.88-6.57c.48-1.91-.48-5.22,0-7.11.11-.45,2.65-2.53,4.38-8.21l61.28,9.85Z"/>
        <path class="practice-cls-44" d="m564.61,447.53c-6.87,5.64-15.16,9.46-21.88,15.32-3.49-5.21-43.44-5.78-43.77-11.49,1.21-2.1,3.93-7.53,4.38-9.3q25.44,3.28,50.88,6.57,5.2-.55,10.39-1.09Z"/>
        <path class="practice-cls-44" d="m535.06,470.51c-5.52,5.67-10.08,12.65-15.32,18.6-.32-.12-.77.12-1.09,0-.12-.04.42-1.88-.55-2.19-8.23-2.67-17.62-2.99-25.71-6.57.64-4,1.12-8.46,3.28-12.04,7.34,1.53,30.11,2.02,39.39,2.19Z"/>
        <path class="practice-cls-33" d="m491.3,465.03c-3.02,8.2-11.17,24.26-16.41,31.73.58-2.06.63-4.89,1.09-6.57,2.83-10.14,12.7-27.42,17.51-43.22,6.23-20.48,7.89-42.35,10.94-54.16.16-.61,2.43-5.37,3.28-7.66-3.59,26.97-6.96,54.2-16.41,79.88Z"/>
        <path class="practice-cls-9" d="m495.67,468.32c-2.16,3.57-2.65,8.04-3.28,12.04-.88,5.55-1.01,10.96-2.19,16.41-.83.09-7.87,2.56-16.41,3.28.98-1.28.79-2.2,1.09-3.28,5.24-7.47,13.4-23.53,16.41-31.73,5.86,1.16,4.11,3.23,4.38,3.28Z"/>
        <path class="practice-cls-46" d="m567.89,396.1c.86,3.57,1.34,7.37,2.19,10.94-4.06-.85-1.01,5.32-2.74,6.57-1.46,1.05-20.75-3.56-23.53-6.02-.06-1.35,19.05-11.54,24.07-11.49Z"/>
        <path class="practice-cls-6" d="m518.65,489.11q-2.19,3.28-4.38,6.57c-1.76-.55-20.11.68-24.07,1.09,1.18-5.45,1.3-10.86,2.19-16.41,8.09,3.57,17.48,3.89,25.71,6.57.96.31.42,2.14.55,2.19Z"/>
      </g>
      <path class="practice-cls-5" d="m474.88,496.77c-.3,1.08-.11,2-1.09,3.28-2.48,3.84-6.79-3.02-1.09-7.66.34-.28,2.49-.33,3.28-2.19-.47,1.67-.52,4.5-1.09,6.57Z"/>
    </g>
  </g>
</svg>