<?xml version="1.0" encoding="UTF-8"?>
<svg id="Layer_1" data-name="Layer 1" xmlns="http://www.w3.org/2000/svg" xmlns:xlink="http://www.w3.org/1999/xlink" viewBox="0 0 1120.46 1120.46">
  <defs>
    <style>
      .shower-cls-1 {
        fill: url(#linear-gradient);
      }

      .shower-cls-1, .shower-cls-2, .shower-cls-3, .shower-cls-4, .shower-cls-5, .shower-cls-6, .shower-cls-7, .shower-cls-8, .shower-cls-9, .shower-cls-10, .shower-cls-11, .shower-cls-12, .shower-cls-13, .shower-cls-14, .shower-cls-15, .shower-cls-16, .shower-cls-17, .shower-cls-18, .shower-cls-19, .shower-cls-20, .shower-cls-21, .shower-cls-22, .shower-cls-23, .shower-cls-24, .shower-cls-25, .shower-cls-26, .shower-cls-27, .shower-cls-28, .shower-cls-29, .shower-cls-30, .shower-cls-31, .shower-cls-32, .shower-cls-33, .shower-cls-34, .shower-cls-35, .shower-cls-36, .shower-cls-37, .shower-cls-38, .shower-cls-39, .shower-cls-40, .shower-cls-41, .shower-cls-42, .shower-cls-43, .shower-cls-44, .shower-cls-45, .shower-cls-46, .shower-cls-47, .shower-cls-48 {
        stroke-width: 0px;
      }

      .shower-cls-2 {
        fill: url(#linear-gradient-2);
      }

      .shower-cls-3 {
        fill: url(#linear-gradient-3);
      }

      .shower-cls-4 {
        fill: #f2fafd;
      }

      .shower-cls-5 {
        fill: #f8f5f8;
      }

      .shower-cls-6 {
        fill: #f8db8f;
      }

      .shower-cls-7 {
        fill: #5cbdd4;
      }

      .shower-cls-8 {
        fill: #835039;
      }

      .shower-cls-9 {
        fill: #4ec3c9;
      }

      .shower-cls-10 {
        fill: #2b7e90;
      }

      .shower-cls-11 {
        fill: #26a8cc;
      }

      .shower-cls-12 {
        fill: #652c2e;
      }

      .shower-cls-13 {
        fill: #462927;
      }

      .shower-cls-14 {
        fill: #95cfd7;
      }

      .shower-cls-15 {
        fill: #179bc8;
      }

      .shower-cls-16 {
        fill: #3e8b8f;
      }

      .shower-cls-17 {
        fill: #362321;
      }

      .shower-cls-18 {
        fill: #0c0f1d;
      }

      .shower-cls-19 {
        fill: #1b191c;
      }

      .shower-cls-20 {
        fill: #141c20;
      }

      .shower-cls-21 {
        fill: #081b2c;
      }

      .shower-cls-22 {
        fill: #208a84;
      }

      .shower-cls-23 {
        fill: #21b2b6;
      }

      .shower-cls-24 {
        fill: #1eacbd;
      }

      .shower-cls-25 {
        fill: #0f6b8a;
      }

      .shower-cls-26 {
        fill: #254b58;
      }

      .shower-cls-27 {
        fill: #1289ac;
      }

      .shower-cls-28 {
        fill: #dfedcb;
      }

      .shower-cls-29 {
        fill: #dc7b7e;
      }

      .shower-cls-30 {
        fill: #b2dbee;
      }

      .shower-cls-31 {
        fill: #e1b336;
      }

      .shower-cls-32 {
        fill: #d9ecf6;
      }

      .shower-cls-33 {
        fill: #bbc748;
      }

      .shower-cls-34 {
        fill: #c2535c;
      }

      .shower-cls-35 {
        fill: #afc0c0;
      }

      .shower-cls-36 {
        fill: #c0815d;
      }

      .shower-cls-37 {
        fill: #ccf2fc;
      }

      .shower-cls-38 {
        fill: #af4351;
      }

      .shower-cls-39 {
        fill: #8fd5fc;
      }

      .shower-cls-40 {
        fill: #8dcce2;
      }

      .shower-cls-41 {
        fill: #985d42;
      }

      .shower-cls-42 {
        fill: #6c4640;
      }

      .shower-cls-43 {
        fill: #7e98a3;
      }

      .shower-cls-44 {
        fill: #edb774;
      }

      .shower-cls-45 {
        fill: #f2c745;
      }

      .shower-cls-46 {
        fill: #e4996b;
      }

      .shower-cls-47 {
        fill: #032c43;
      }

      .shower-cls-48 {
        fill: #683b2b;
      }
    </style>
    <linearGradient id="linear-gradient" x1="799.75" y1="261.04" x2="269.05" y2="690.63" gradientUnits="userSpaceOnUse">
      <stop offset=".17" stop-color="#f6fafd"/>
      <stop offset=".89" stop-color="#95d0e2"/>
    </linearGradient>
    <linearGradient id="linear-gradient-2" x1="322.31" y1="842.73" x2="387.11" y2="994.72" gradientUnits="userSpaceOnUse">
      <stop offset="0" stop-color="#491320"/>
      <stop offset="1" stop-color="#b34b56"/>
    </linearGradient>
    <linearGradient id="linear-gradient-3" x1="464.68" y1="744.79" x2="547.94" y2="862.81" gradientUnits="userSpaceOnUse">
      <stop offset="0" stop-color="#301a1c"/>
      <stop offset="1" stop-color="#875536"/>
    </linearGradient>
  </defs>
  <path class="shower-cls-35" d="m107.23,993.53c1.73-.24,3.69.12,5.47,0,6.93-.47,22.61.16,32.83,0,60.91-.97,121.84.99,182.73,1.09,218.09.36,436.25,1.07,654.33-1.09,7.13-.07,14.8-.27,21.88,0,.44.02,2.45,2.95,8.75,0-.44,21.39-22.26,7.69-49.79,13.13H105.59c-2.5-.97-6.69-11.96,1.64-13.13Z"/>
  <path class="shower-cls-14" d="m137.87,819.56c5.91-1.17,13.68-9.37,18.6-14.22,12.86,10.09-13.05,30.82-18.6,14.22Z"/>
  <path class="shower-cls-37" d="m937.18,601.81c9.39,0,7.32,19.19-3.28,15.32-5.72-2.09-3.47-15.32,3.28-15.32Z"/>
  <g>
    <path class="shower-cls-30" d="m953.05,805.33c-.96-2.76-.7-4.34-1.09-5.47,11.68-.97,13.56-9.22,14.22-9.85,1.42-1.33,1.75-3.41,4.38-1.64-.14,12.64-4.3,18.9-17.51,16.96Z"/>
    <path class="shower-cls-4" d="m966.18,790.01c-.66.62-2.55,8.88-14.22,9.85-.61-1.75-1.59-.44-2.19-2.19,7.42-2.29,6.02-22.03,16.41-7.66Z"/>
  </g>
  <path class="shower-cls-32" d="m914.75,683.87c-1.76-5.27-3.19-12.48-4.38-15.32,1.87,1.83,8.63-7.54,12.04-2.74,5.76,8.13-11.32,10.27-7.66,18.05Z"/>
  <path class="shower-cls-30" d="m880.83,563.51c-.84-2.51-7.98,1.06,1.09-10.94,2.02-2.68.46-4.64,1.64-5.47.3-.21,6.78-.97,7.11,1.64.12.94-7.97,16.67-9.85,14.77Z"/>
  <path class="shower-cls-4" d="m156.47,805.33c-4.92,4.85-12.69,13.06-18.6,14.22-3.64-10.88,17.49-15.1,18.6-14.22Z"/>
  <g>
    <path class="shower-cls-14" d="m955.24,728.74q6.02-8.21,12.04-16.41c4.11,1.46,1.54,15.11,1.09,15.87-2.12,3.62-10.7,4.43-13.13.55Z"/>
    <path class="shower-cls-32" d="m967.27,712.32q-6.02,8.21-12.04,16.41c-4.94-7.89,3.68-19.38,12.04-16.41Z"/>
  </g>
  <path class="shower-cls-30" d="m971.65,854.57c-.62.79-3.37,2.93-4.38,5.47-.53-.54-10.81-3.8-1.09-10.94,1.57-1.15,15.46-7.09,5.47,5.47Z"/>
  <path class="shower-cls-4" d="m958.52,555.85c-5.04,1.42-5.68,3.64-10.94,0,.29-9.52,10.21-9.93,10.94,0Z"/>
  <path class="shower-cls-14" d="m958.52,555.85c.93,12.64-11.28,11.22-10.94,0,5.26,3.64,5.9,1.42,10.94,0Z"/>
  <path class="shower-cls-14" d="m971.65,864.42c-2.18-.65-2.99-2.95-4.38-4.38,1.01-2.54,3.75-4.68,4.38-5.47,2.91,3.97,4.37,6.79,0,9.85Z"/>
  <g>
    <path class="shower-cls-6" d="m888.49,639.01c-1.12.37-3.66-.66-4.38.55-.8,1.35-3.4,12.26,7.66,9.3,35.92,115.48,71.39,231.05,112.7,344.67-7.09-.27-14.76-.07-21.88,0-7.15-21.34-12.35-47.74-24.07-66.75,3.66,1.25-5.46-25.17-8.75-34.47-25.34-71.63-53.49-142.35-74.41-215.56-1.76-3.29-1.62-2.22-3.28-2.74,2.87-3.54,2.59-7.53-3.28-8.75,7.69-3.18-6.96-32.24-10.94-45.96,12.49-3.87,17.91-12.65,19.7-25.17,3.42,14.94,7.59,29.88,10.94,44.86Z"/>
    <path class="shower-cls-6" d="m910.37,668.56c1.19,2.84,2.62,10.05,4.38,15.32,4.74,14.18,13.07,42.26,12.04,55.26,1.72.23,5.29,4.89,5.47,5.47,5.56,17.97,11.38,35.3,17.51,53.07.6,1.75,1.58.44,2.19,2.19.39,1.13.14,2.71,1.09,5.47,4.93,14.22,9.31,29.19,13.13,43.77-9.71,7.14.56,10.4,1.09,10.94,1.39,1.42,2.19,3.72,4.38,4.38.34,15.89,35.3,98.21,40.49,125.29.31,1.6,1.21-1.94,1.09,3.83-6.3,2.95-8.32.02-8.75,0-41.31-113.62-76.78-229.19-112.7-344.67.46-.12,2.44-6.32,7.66-1.64.89.8,9.94,18.95,10.94,21.34Z"/>
    <path class="shower-cls-6" d="m881.92,552.57c-9.07,12.01-1.94,8.43-1.09,10.94,4.04,12.06,14.55,42.21,10.94,47.05-8.59,6.83,1.75,18.13,2.19,27.35-2.86.79-5.14.98-5.47,1.09-3.35-14.98-7.52-29.92-10.94-44.86-2.71-11.83-5.65-23.82-8.75-35.56-.08-.29,2.88-1.59,2.19-4.38-.72-2.88-19.48-50.9-21.88-55.26,4.96.55,4.16-1.03,4.38-1.09,22.38-6.65,7.85-29.6,6.57-43.77,4.48-4.29,8.05,11.65,8.75,15.87,3.6,21.57-4.16,24.18,4.38,28.45l8.75,54.16Z"/>
    <path class="shower-cls-45" d="m857.85,619.32c3.98,13.72,18.63,42.78,10.94,45.96-12.75-2.65-7.2,8.14-6.02,8.75,1.24.65,7.24-.64,9.3,0,1.66.51,1.52-.55,3.28,2.74,20.92,73.2,49.07,143.92,74.41,215.56,3.29,9.3,12.42,35.72,8.75,34.47-7.05-11.43-20.91-23.35-28.45-35.01-14.24-36.27-26.28-73.4-38.3-110.51-6.68-20.63-14.65-41.03-20.79-61.82-3.36-11.38-26.36-97.63-27.35-102.85-.34-1.78-.3-5.13,1.09-4.92,4.67,5.35,11.44,5.8,13.13,7.66Z"/>
  </g>
  <g>
    <path class="shower-cls-27" d="m675.12,187.11c-6.59-2.2-27.12-5.79-30.64-9.85-16.72-48.7-76.66-63.27-102.85-14.22-.17-.02.55,1.63-3.28,1.09,1.59-10.33,9.33-16.63,9.85-17.51,5.36.12,9.71-10.15,26.26-14.22,14.37-3.54,23.27-1.46,37.2,2.74,1.83-3.15-17.75-26.83-22.43-27.9-7.8-.64-6.75,1.07-7.11,1.09-2.29.15-7.11,3.08-16.41,1.09l2.19-5.47c55.96-12.76,106.37,25.1,107.23,83.16Z"/>
    <path class="shower-cls-25" d="m567.89,103.95l-2.19,5.47c-.33.8-6.2,4.22-6.57,4.38-23.56,10.34-42.25,28.29-49.24,53.62h-1.09c-1.35-.5-6.73-.22-7.66,0,13.27-31.8,31.98-55.54,66.75-63.46Z"/>
    <path class="shower-cls-11" d="m582.11,108.33c2.87,9.68-2.99,16.76-7.66,24.07-16.55,4.08-20.9,14.34-26.26,14.22,4.2-7.08,5.54-12.55-2.19-6.57,15.29-20.93,32.84-30.32,14.22-24.07l-1.09-2.19c.36-.16,6.24-3.58,6.57-4.38,9.3,1.98,14.12-.95,16.41-1.09Z"/>
    <path class="shower-cls-7" d="m559.14,113.8l1.09,2.19c-32.96,11.07-44.96,49.21-50.33,51.43,6.99-25.32,25.68-43.28,49.24-53.62Z"/>
    <path class="shower-cls-11" d="m548.19,146.62c-.52.88-8.26,7.17-9.85,17.51-2.32-.33-4.85.99-6.57-1.64,3.62-8.48,8.86-15.09,14.22-22.43,7.73-5.99,6.38-.52,2.19,6.57Z"/>
    <path class="shower-cls-27" d="m574.45,132.4c4.67-7.31,10.53-14.39,7.66-24.07.36-.02-.68-1.74,7.11-1.09,4.68,1.07,24.26,24.75,22.43,27.9-13.93-4.2-22.83-6.28-37.2-2.74Z"/>
  </g>
  <g>
    <path class="shower-cls-30" d="m443.15,438.77c.25-.02,3.12-.03,3.28,0,2.66,46.42,8.65,15.28,9.85,13.68,1.22-1.63,2.95,1.21,4.38.55.97,6.99-1.48,15.29-8.21,18.6-12.23,6.03-15.18-1.25-20.24,0,1.02-9.1-19.23-18.72,6.02-33.92,2.11-.5,2.88,1.24,4.92,1.09Z"/>
    <path class="shower-cls-32" d="m449.72,438.77c4.77,2.09,10.22,8.99,10.94,14.22-1.42.66-3.16-2.18-4.38-.55-1.2,1.61-7.19,32.74-9.85-13.68.16.03,1.16-2.17,3.28,0Z"/>
  </g>
  <g>
    <path class="shower-cls-30" d="m893.96,637.92c-.44-9.22-10.78-20.53-2.19-27.35,9.7-7.71,12.44,25.24,7.11,27.35-.18.07-3.1-2.26-3.28-2.19-1.17.43.62,1.57-1.64,2.19Z"/>
    <path class="shower-cls-30" d="m233.06,539.44c4.27,2.01,10.17,10.84-1.09,16.41-.27.14-.75-.12-1.09,0-2.37.81-4.2,2.93-7.11,2.19.18-3.66,3.38-21.38,9.3-18.6Z"/>
    <path class="shower-cls-14" d="m311.85,787.82c-.08.91-2.68,3.52-3.28,4.92-1.04,10.01,2.24,8.78,2.19,9.3-.55,5.87-6.88,37.45-5.47,39.94.51.91,10.03-1.27,10.39-1.64,1.58-1.6,9.05-38.08,10.39-43.77.13-.55,3.4-5.61,4.38-10.39,6.64-49.78,12.79-99.69,15.32-149.91h2.19c-2.56,66.88-6.48,133.86-16.41,200.24,18.85,2.3,12.43-9.51,16.41-32.83,3.6-21.09,8.04-42.27,10.94-63.46,2.46-18,2.04-39.57,4.38-57.99,1.81-14.3,7.32-28.52,8.75-39.39,1.16-8.8-3.45-45.54,7.66-29.54.33.48,2.14,10.4,2.19,11.49.02.49-3.78,6.63-3.28,9.3,1.14,6.14,16.41,8.48,18.6.55,2.63,1.43,7.83,3.41,10.94,3.28l1.09,2.19c-2.73,59.06-10.16,117.81-15.32,176.71,1.37,2.85,10.33-4.31,12.04-4.92.84-.3,5.53,1.07,16.41-6.02,2.21-53.25,17.45-108.93,8.75-160.3.67.13,1.48-.06,2.19,0,2.16,11.87,5.65,23.47,6.57,35.56,1.37,3,4.44,6.94,5.47,9.3-1.45-.28-3.93.14-4.38,1.64-.7,2.36-2.77,46.84-2.19,49.24.06.26,3.57,3.77,3.83,3.83,8.7,2.05-.26-20.13,6.02-22.98-1.56,26.7-2.04,53.27-6.57,79.88-1.92.7-5.76-.15-8.75,1.09-21.25,8.85-35.89,16.35-59.09,24.07,9.03-60.76,14.07-122.16,19.7-183.28-5.66-4.84-9.51-3.77-10.94,3.28-1.03,5.07-2.89,61.46-4.38,76.59-3.49,35.58-9.02,71.16-13.13,106.68-81.36,25.06-138.64,14.21-193.67,103.95-4.48-.71,6.94-22.71,8.75-27.9.45-1.3-1.14-2.06-1.09-2.19,2.94-8.46,5.92-16.62,8.75-25.17.31-.92,1.88-.17,2.19-1.09,1.45-4.38,3.86-15.39,4.38-19.7,7.41-15.7,10.54-32.72,15.32-49.24.26-.91,1.93-.18,2.19-1.09.48-1.66-.47-4.9,0-6.57.25-.89,4.25-8.28,4.38-8.75.47-1.7-.47-4.86,0-6.57.25-.91,1.94-.18,2.19-1.09,1.54-5.66,3.31-15.88,4.38-22.98,10.22-30.35,15.02-61.47,19.7-91.91.13-.88,2.06-.22,2.19-1.09.66-4.4-.58-10.7,0-15.32.65-5.25,4.26-17.45,4.38-23.53l5.47-3.28c-2.08,7.68-2.23,17.61,7.66,17.51-2.32,113.7-25.75,141.43-60.18,231.42-1.75,4.59-4.34,5.12-4.38,5.47-1.37,13,23.93-24.15,25.17-26.26,24.04-41.29,36.88-134.82,50.33-153.19,1.85-2.53,6.43-1.01,8.75-6.57l6.57-47.05c-2.12-16.43-.62-29.24,0-44.86v30.64c11.53-13.21,19.01,2.41,10.94,7.11.16-7.01-.94-15.66-6.57-8.21-2.8,3.71-10.9,79.32-13.13,91.91-6.42,36.28-15.17,72.32-22.98,108.33.25,5.18,3.78,7.7,7.66,3.83-.48,2.53-3.88,15.77-2.74,16.41,4.05.38,13.3-3.07,14.77-6.02,3.32-6.65,23.46-125.88,30.64-145.53q9.85-58.27,19.7-116.53l2.74-7.66c-5.42,39.21-9.22,79.19-14.77,118.72.17,30.43-.73,61.04-3.28,91.37Z"/>
    <path class="shower-cls-30" d="m261.51,585.4c3.97,1.11,5.69.68,7.66,1.09.52.11.5.46,3.28,1.09.54.12,1.27,3.17,10.94,2.19,2.28,4.09,5.5,9.84,9.85,7.66,1.92-.96,2.62-2.53,3.28-4.38,9.85-5.08,26.75,22.73,8.75-6.02l1.09-2.19q10.39.27,20.79.55-9.85,58.27-19.7,116.53c-7.17,19.65-27.31,138.88-30.64,145.53-1.47,2.94-10.72,6.4-14.77,6.02-1.15-.64,2.26-13.88,2.74-16.41,3.79-20.21,11.95-40.8,13.13-60.73,4.64-11.2,4.5-24.53,6.57-36.11.16-.89,2.03-.21,2.19-1.09.76-4.31-.19-12.02,0-13.13,4.23-25.32,12.55-59.62,13.13-84.8,8.07-4.71.58-20.32-10.94-7.11v-30.64c-.62,15.62-2.12,28.43,0,44.86l-6.57,47.05c-2.32,5.56-6.9,4.04-8.75,6.57-13.45,18.37-26.29,111.9-50.33,153.19-1.23,2.12-26.54,39.26-25.17,26.26.04-.35,2.62-.88,4.38-5.47,34.43-89.99,57.86-117.72,60.18-231.42,13.07-.14,15.76-23.29,8.21-27.35-7.47-4.02-14,2.98-15.87,9.85l-5.47,3.28c.05-2.67.35-8.07,0-9.3-.3-1.04-18.73-20.93-2.19-9.3,1.06.75,10.92,12.63,2.19-1.09,5.95-2.94,5.76-17.48,5.47-23.53-7.22-6.65-2.87-15.44-7.66-26.26,1.55-.66,5.29-3.55,5.47-3.83-.27,7.84-3.04,25.97,4.92,29.54.73-2.73,1.31-1.8,3.83-1.09Z"/>
    <path class="shower-cls-30" d="m326.07,796.58c-1.35,5.69-8.82,42.17-10.39,43.77-.37.37-9.88,2.55-10.39,1.64-1.41-2.49,4.92-34.07,5.47-39.94,3.8,3.2,10.53-1.68,12.04-5.47h3.28Z"/>
    <path class="shower-cls-11" d="m269.17,586.49c-1.97-.42-3.69.01-7.66-1.09-14.82-31.43,30.93-25.05,7.66,1.09Z"/>
    <path class="shower-cls-32" d="m322.79,796.58c-1.51,3.79-8.24,8.67-12.04,5.47.05-.52-3.23.71-2.19-9.3.6-1.41,3.21-4.01,3.28-4.92,8.02-4.14,14.47-.1,10.94,8.75Z"/>
    <g>
      <path class="shower-cls-27" d="m434.4,434.4c1.36.37,8.63,2.96,8.75,4.38-2.04.15-2.81-1.59-4.92-1.09-25.25,15.2-5,24.82-6.02,33.92-.54.13-3.14,1-3.28,1.09-5.03-.36-1.52-8.96-15.32-10.39,12.91-10.53-4.28-15.08-2.19-25.17,2.74-13.22,13.85-2.94,14.77-2.74,2.24.5,6.24-.54,8.21,0Z"/>
      <path class="shower-cls-11" d="m451.9,437.68c-.7.25-2.25-.6-2.19,1.09-2.13-2.17-3.12.03-3.28,0s-3.04-.02-3.28,0c-.13-1.42-7.39-4-8.75-4.38,2.67-14.99,20-11.41,17.51,3.28Z"/>
    </g>
    <path class="shower-cls-30" d="m388.44,629.16c2.97,1.7,5.81,3.87,8.75,5.47-2.19,7.93-17.46,5.6-18.6-.55-.49-2.67,3.31-8.81,3.28-9.3,5.34,5.82,6.16,4.15,6.57,4.38Z"/>
    <path class="shower-cls-32" d="m398.29,588.68c-.29.03-.83.08-1.09,0-5.6-1.7-5.33-14.47,0-17.51.19.9,4.45,2.91,1.09,17.51Z"/>
    <g>
      <path class="shower-cls-32" d="m508.8,167.41c.75,3.55-4.26,36.46-6.02,37.2-8.99-15.25-15.92-18.25-7.11-36.11,1.86-.4,3.52-.64,5.47-1.09.93-.22,6.31-.5,7.66,0Z"/>
      <path class="shower-cls-32" d="m840.35,564.61c-.97,6.26-1.36,12.45-3.28,18.6-3.36,5.42-5.44,11.25-10.94,15.32-4.55-3.97-7.35-3-7.66-3.28-17.77-16.31-4.3-26.29-4.38-27.9-.04-.87-4.82-3.19-4.38-6.02,6.47,2.31,18.53-1.87,22.98-7.66.14.65,5.98,8.98,7.66,10.94Z"/>
      <path class="shower-cls-30" d="m797.67,540.53c-4.56-6.63-11.1-10.33-16.41-16.41,6.6-7.9,14.37-14.89,21.88-21.88,1.03-.96,1.93-1.79,3.28-2.19-.19,10.8-2.27,34.49-8.75,40.49Z"/>
      <path class="shower-cls-30" d="m775.79,484.73c-.17,1.37-3.09,4.04-2.19,7.11,1.53,5.21,16.86.08,2.19,23.53-.16-.28-.54.4-3.28-5.47-1.49-3.19-3.39-11.64-4.92-12.04-4.46-1.16-.84,8.58-4.92,7.66.7-5.54.08-13.18,1.09-19.15-7.95-8.01-3.57-8.04-5.47-12.58,3.32.52,5.61-.21,8.75-1.09,1.28,7.37,4.38,7.12,8.75,12.04Z"/>
      <path class="shower-cls-7" d="m594.15,395.01c-.39.05-5.59,3.58-6.57,4.38-.83-2.18-11.6-9.07-8.75-22.43,3.07-14.43,24.7-6.98,15.32,18.05Z"/>
      <path class="shower-cls-32" d="m767.03,455.19c-18.54-11.92-10.95,10.64-10.94,12.04,0,.12-1.5-.41-1.09,2.19-2.89-1.92-6.78-2.81-9.3,0-.97-.31-.42-2.14-.55-2.19.74-4.31-1.69-8.51-5.47-10.94.11-6.9-1.98-11.2,10.94-16.41,2.34,11.1,13.62,8.3,16.41,15.32Z"/>
      <path class="shower-cls-7" d="m843.63,556.95c1.03-7.15,3.8-16.87-5.47-19.7,3.38-7.65-6.17-20.44-.55-22.98,7.92-3.58,23.5,31.33,6.02,42.67Z"/>
      <path class="shower-cls-32" d="m564.61,436.59c-17.93,4.57-15.59-2.1-20.79-12.04l2.19-2.19c2.45,2.86,10.61,4.65,14.22,1.09,6.79,7.53,17.45,2.77,22.98-4.38,1.05,6.46-13.42,16.19-18.6,17.51Z"/>
      <path class="shower-cls-24" d="m838.16,537.25c9.28,2.83,6.5,12.55,5.47,19.7-.06.41-2.33,1.52-3.28,7.66-1.68-1.96-7.52-10.29-7.66-10.94-2.95-13.38,5.1-15.57,5.47-16.41Z"/>
      <path class="shower-cls-7" d="m689.35,409.23c-5.48-10.92-6.05-6.87-10.94-8.75-1.81-2.33.13-2.22,0-3.28,17.14.54,9.18-25.9,16.41-13.68,2.46,4.16,2.42,8.5,2.19,13.13l-7.66,12.58Z"/>
      <path class="shower-cls-11" d="m560.23,423.46c-3.61,3.56-11.77,1.77-14.22-1.09-10.86-12.68,17.78-19.61,14.22,1.09Z"/>
      <path class="shower-cls-7" d="m767.03,455.19c3.73,9.38-1.17,16.14-10.94,12.04-.01-1.39-7.6-23.96,10.94-12.04Z"/>
      <path class="shower-cls-7" d="m664.18,363.27c-1.6-2.61-6.25-6.08-6.57-8.75-2.49-20.89,30.62,4.19,6.57,8.75Z"/>
      <path class="shower-cls-15" d="m409.23,503.33c-3.28,4.73-8.97,7.13-5.47,15.32-8.23,6.07-10.38-5.12-8.75-11.49,1.28-5,16.53-13.99,14.22-3.83Z"/>
      <path class="shower-cls-32" d="m657.61,354.52c.32,2.67,4.97,6.14,6.57,8.75,2.55,4.16,6.33,7.17,7.66,12.04-9.15-8.32-10.39-1.28-20.79-14.22-3.17-9.87,1.95-3.59,6.57-6.57Z"/>
      <path class="shower-cls-30" d="m525.22,386.25c-10.95-.08-3.23-4.68-9.85-10.94.96.08,16.36-3.08,15.32,6.02-.36,3.17-4.37,3.65-5.47,4.92Z"/>
      <g>
        <path class="shower-cls-1" d="m546.01,140.06c-5.36,7.34-10.6,13.95-14.22,22.43,1.72,2.63,4.25,1.32,6.57,1.64,3.83.54,3.11-1.11,3.28-1.09,34.4,3.96,68.58,9.37,102.85,14.22,3.52,4.05,24.05,7.65,30.64,9.85,80.25,26.75,207.48,90.76,188.2,193.13,11.47,12.7,2.62,29.29-3.28,42.67,14.45,15.82-1.49,14.67,0,31.18,1.28,14.17,15.81,37.12-6.57,43.77l-11.49-10.94c-1.47,3.12,4.68,7.62,7.11,12.04,2.4,4.35,21.17,52.37,21.88,55.26.69,2.78-2.27,4.09-2.19,4.38,3.1,11.74,6.05,23.73,8.75,35.56-1.79,12.52-7.21,21.29-19.7,25.17-1.69-1.86-8.46-2.31-13.13-7.66-5.36-6.14-8.98-20.27-7.66-28.45,1.93-6.15,2.31-12.34,3.28-18.6.96-6.14,3.22-7.25,3.28-7.66,17.48-11.34,1.9-46.26-6.02-42.67-5.62,2.54,3.93,15.33.55,22.98-.37.85-8.42,3.03-5.47,16.41-4.45,5.79-16.51,9.97-22.98,7.66-3.59-1.28-4.7-2.31-5.47-6.02,16.33,12.6,12.81-26.08,0-12.04.14,18.94-2.59,3.04-6.57-2.74,6.48-5.99,8.57-29.69,8.75-40.49.02-.93,3.65-13.63-2.74-17.51-10.46-6.35-18.99,18.31-.55,19.7-7.52,7-15.28,13.98-21.88,21.88-.18-.21-2.17,0-4.38-3.28-.66-.99-.78-4.9-1.09-5.47,14.67-23.45-.66-18.31-2.19-23.53-.9-3.07,2.01-5.74,2.19-7.11.09-.68,3.36-8.11-1.09-12.58-4.73-4.74-7.23.43-7.66.55-3.14.88-5.44,1.61-8.75,1.09-.85-2.04-1.33-3.08-3.28-4.38-.41-2.6,1.1-2.07,1.09-2.19,9.77,4.1,14.67-2.66,10.94-12.04-2.8-7.02-14.08-4.22-16.41-15.32-.47-2.21,1.95-7.87,1.09-12.04,13.3-10.34-12.75-9.04-10.94-21.88,8.43-8.48.06-20.03-7.11-17.51-5.68,2-3.55,13.87,1.64,16.41-.17,2.53.24,5.15,0,7.66-.89,9.18-9.84,20.46-19.15,21.88-22.7,3.47-25.87-23.29-26.81-25.17l7.66-12.58c.24-4.63.27-8.97-2.19-13.13-7.23-12.22.73,14.22-16.41,13.68-.51-4.08-1.89-8.79-5.47-11.49l-1.09-10.39c-1.33-4.87-5.11-7.87-7.66-12.04,24.05-4.56-9.06-29.64-6.57-8.75-4.62,2.98-9.73-3.31-6.57,6.57-2.65-3.3-3.48-4.65-4.92-8.75,2.26,9.83-9.61,11.74-9.3,21.88l-1.09,1.09c-5.54-1.89-11.31-1.5-16.41,1.09,5.52-48.2-32.57-23.5-2.19,2.19-1.43,1.33-2.99,3.42-4.38,4.92-.64.69,2.18,2.92-10.39,13.68-1.61.35-1.95-2.96-8.21-2.19,9.38-25.03-12.25-32.48-15.32-18.05-2.84,13.36,7.92,20.25,8.75,22.43,2.64,6.9-.05,14.09-4.38,19.7-5.53,7.15-16.19,11.9-22.98,4.38,3.55-20.71-25.08-13.77-14.22-1.09l-2.19,2.19c-1.33-2.55-3.46-4.38-3.83-7.66-17.93,10.3-28.78-15.04-19.15-27.9,1.35-1.8,3.93-2.22,4.38-2.74,1.1-1.28,5.11-1.75,5.47-4.92,1.04-9.1-14.36-5.94-15.32-6.02-3.34-.27-5.49-2.02-9.85-1.09-3.37-16.15-15.2-7.49-9.85,7.66-3.38,5.29-4.18,13.88-7.66,19.15-6.28,9.49-20.22,11.7-27.35,20.79-6.92,8.82-4.75,14.41-8.75,15.87,2.5-14.69-14.84-18.28-17.51-3.28-1.97-.54-5.97.5-8.21,0-.92-.21-12.03-10.48-14.77,2.74-2.09,10.09,15.1,14.64,2.19,25.17,13.8,1.44,10.29,10.03,15.32,10.39-1.5,1.04-9.14,15.41-19.7,30.64,2.31-10.16-12.95-1.17-14.22,3.83-1.63,6.37.52,17.56,8.75,11.49,1.14,2.66,5.78,3.57,8.75,10.94-7.18,1.43-2.75,8.39-2.19,18.6-9.85,13.6-20.14.55-15.32,18.6.84,3.13,1.96,3.32,2.19,4.38-5.33,3.03-5.6,15.81,0,17.51-5.14,13.09-11.81,11.23-14.22,15.32.01.94-.87,1.11-1.09,2.19-1.58,7.5,1.11,17.27,6.57,22.98-.41-.23-1.23,1.44-6.57-4.38-.05-1.09-1.85-11.01-2.19-11.49-11.11-15.99-6.5,20.75-7.66,29.54-1.43,10.87-6.94,25.09-8.75,39.39-2.33,18.42-1.91,39.99-4.38,57.99-2.9,21.19-7.34,42.38-10.94,63.46-3.98,23.31,2.44,35.12-16.41,32.83,9.93-66.38,13.85-133.36,16.41-200.24h-2.19c-2.53,50.22-8.68,100.13-15.32,149.91-.98,4.78-4.25,9.85-4.38,10.39h-3.28c3.52-8.85-2.92-12.89-10.94-8.75,2.55-30.32,3.45-60.93,3.28-91.37,5.55-39.53,9.35-79.51,14.77-118.72l-2.74,7.66q-10.39-.27-20.79-.55l-1.09,2.19c18,28.75,1.1.94-8.75,6.02,8.08-22.63-22.17-12.55-3.28,4.38-4.35,2.18-7.57-3.57-9.85-7.66-.4-.72,7-5.46-10.94-2.19-2.79-.64-2.76-.98-3.28-1.09,23.27-26.14-22.48-32.53-7.66-1.09-2.52-.7-3.1-1.64-3.83,1.09-7.97-3.58-5.19-21.7-4.92-29.54,5.09-8.02,10.88-31.76,7.66-39.94-.34-.87-9.23-4.5-9.85-6.57-3.05-10.21,26.01-29.01-7.66-38.84.6-5.42,2.14-6.18,2.19-6.57,28.63-16.72,8.54-20.49,7.66-37.75-.94-18.4,9.76-10.95,7.66-29.54-.35-3.09-5.26-11.64-5.47-12.58-1.23-5.57-3.89-13.9-4.38-19.15-8.77-95.39,116.07-164.6,194.22-186.56,16.66-4.68,33.98-7.3,50.88-10.94-8.81,17.86-1.87,20.86,7.11,36.11,1.76-.74,6.77-33.65,6.02-37.2h1.09c5.37-2.22,17.37-40.36,50.33-51.43,18.62-6.25,1.07,3.15-14.22,24.07Z"/>
        <g>
          <path class="shower-cls-32" d="m410.32,548.19c-.56-10.21-4.99-17.17,2.19-18.6,3.31,8.21,3,11.43-2.19,18.6Z"/>
          <g>
            <path class="shower-cls-45" d="m296.53,593.06c-.66,1.84-1.36,3.41-3.28,4.38-18.89-16.92,11.36-27.01,3.28-4.38Z"/>
            <path class="shower-cls-30" d="m331,626.98c11.56-2.27,10.99,11.38,3.28,12.04-6.48.55-12.59-10.21-3.28-12.04Z"/>
            <path class="shower-cls-11" d="m283.4,589.77c-9.68.99-10.4-2.06-10.94-2.19,17.94-3.28,10.54,1.47,10.94,2.19Z"/>
            <g>
              <path class="shower-cls-27" d="m344.67,558.04c.22-.41,5.61-3.9,6.57-6.57,9.36-5.76,13.96,4.71,14.77,4.38,1.4-.57,1.5-19.44,15.32-16.41,11.45,2.51,10.45,37.51-15.32,17.51.74,15.25-9.33,10.45-7.11,22.43-5.58,6.43-11.64,9.65-17.51,2.19,13.32-11.7-3.5-11.07,3.28-23.53Z"/>
              <path class="shower-cls-11" d="m351.24,551.48c-.96,2.66-6.34,6.16-6.57,6.57-5.78.57-9.29-.58-12.04-6.02.17-34.73,27.4-25.07,18.6-.55Z"/>
              <path class="shower-cls-11" d="m275.19,528.5c21.83-5.11,15.16,30.76-2.19,22.98-8.94-4.02-7.31-20.75,2.19-22.98Z"/>
              <path class="shower-cls-11" d="m280.66,455.19c13.07-2.24,10.49,29.02-1.09,28.45-11.26-.56-8.71-26.77,1.09-28.45Z"/>
              <path class="shower-cls-11" d="m321.15,505.52c18.46-4.31,14.15,31.67-2.19,22.98-7.21-3.83-6.27-21,2.19-22.98Z"/>
              <path class="shower-cls-11" d="m370.39,577.74c9.72-.73,8.69,22.19,0,24.07-22.49-1.59-7.76-.55-10.39-21.34,9.94-.12,9.86-2.7,10.39-2.74Z"/>
              <path class="shower-cls-11" d="m371.48,460.66c15-2.42,10.16,28.02-3.28,24.07-8.74-2.57-6.85-22.44,3.28-24.07Z"/>
              <path class="shower-cls-11" d="m298.17,510.99c19.12-4.24,10.84,27.78-3.28,20.79-8.23-4.08-4.13-19.15,3.28-20.79Z"/>
              <path class="shower-cls-11" d="m273,430.02c17.73-4.26,10.51,28.64-2.19,21.88-7.06-3.76-5.98-19.92,2.19-21.88Z"/>
              <path class="shower-cls-11" d="m374.76,489.11c14.38-3.13,14.69,20.25,5.47,21.88-11.86,2.1-16.06-19.58-5.47-21.88Z"/>
              <path class="shower-cls-7" d="m619.32,376.4c-.14.07-1.58,1.63-2.19,2.19-30.38-25.69,7.71-50.39,2.19-2.19Z"/>
              <path class="shower-cls-11" d="m403.21,457.38c13.29-.93,9.88,18.94,4.38,20.79-15.13,5.08-16.69-19.93-4.38-20.79Z"/>
              <path class="shower-cls-11" d="m321.15,547.1c12.6-2.03,12.13,19.74,1.09,20.79-12.9,1.23-10.28-19.31-1.09-20.79Z"/>
              <path class="shower-cls-11" d="m282.85,331.54c13.07-2.07,14.14,25.47-1.09,20.79-6.77-2.08-6.95-19.52,1.09-20.79Z"/>
              <path class="shower-cls-9" d="m828.86,422.36c11.7-2.53,15.05,17.09,6.57,19.7-12.97,3.99-16.92-17.45-6.57-19.7Z"/>
              <path class="shower-cls-9" d="m602.36,206.8c9.78-2.74,21.96,16.98,12.04,19.7-10.37,2.83-21.75-16.97-12.04-19.7Z"/>
              <path class="shower-cls-11" d="m309.11,374.22c15.55-3.04,11.37,27.23-3.28,18.6-6.26-3.69-3.56-17.26,3.28-18.6Z"/>
              <path class="shower-cls-11" d="m263.16,498.96c8.83-2.59,15.65,8.72,10.39,15.87-10.29,13.99-22.16-12.41-10.39-15.87Z"/>
              <path class="shower-cls-11" d="m355.07,415.8c13.18-2.16,9.76,25.1-3.28,20.79-6.19-2.05-5.06-19.42,3.28-20.79Z"/>
              <path class="shower-cls-11" d="m459.02,386.25c11.3-2.17,13.23,19.38,3.28,20.79-11.46,1.62-11.75-19.16-3.28-20.79Z"/>
              <path class="shower-cls-9" d="m833.23,344.67c9.4-2.91,17.22,15.24,9.85,19.7-9.26,5.59-19.8-16.62-9.85-19.7Z"/>
              <path class="shower-cls-7" d="m806.43,500.05c-1.36.4-2.25,1.23-3.28,2.19-18.44-1.39-9.92-26.04.55-19.7,6.38,3.87,2.75,16.57,2.74,17.51Z"/>
              <path class="shower-cls-9" d="m639.56,213.37c8.88-1.99,20.63,12.63,12.04,17.51-8.69,4.93-24.34-14.75-12.04-17.51Z"/>
              <path class="shower-cls-23" d="m683.33,247.29c6.9-2.16,20.91,14.22,12.04,19.7-8.39,5.17-21-16.88-12.04-19.7Z"/>
              <path class="shower-cls-11" d="m273,368.75c9.91-.07,9.54,22.64-2.19,20.79-9.23-1.46-7.11-20.72,2.19-20.79Z"/>
              <path class="shower-cls-11" d="m304.73,424.55c9.15.33,8.64,17.64,2.19,19.7-13.97,4.45-14.23-20.13-2.19-19.7Z"/>
              <path class="shower-cls-24" d="m533.42,350.14c8.73-1.27,15.47,25.72,1.09,21.88-7.93-2.11-7.53-20.95-1.09-21.88Z"/>
              <path class="shower-cls-11" d="m280.66,397.19c12.18-2.46,11.3,25.53-1.09,19.7-7.47-3.52-5.95-18.27,1.09-19.7Z"/>
              <path class="shower-cls-11" d="m345.22,443.15c16.98-4.7,7.68,25.77-3.28,18.6-5.79-3.79-1.86-17.18,3.28-18.6Z"/>
              <path class="shower-cls-11" d="m428.38,392.82c11.6-1.39,10.75,26.11-2.19,19.7-7.75-3.84-4.24-18.93,2.19-19.7Z"/>
              <path class="shower-cls-23" d="m587.04,241.82c7.48-.83,19.05,18.98,8.75,20.79-7.72,1.36-20.32-19.5-8.75-20.79Z"/>
              <path class="shower-cls-15" d="m375.86,411.42c12.22-2.04,8.81,19.92,1.09,20.79-10.12,1.14-9.67-19.36-1.09-20.79Z"/>
              <path class="shower-cls-9" d="m766.49,382.97c11.36-2.95,15.11,23.51,1.09,19.7-6.98-1.9-8.11-17.88-1.09-19.7Z"/>
              <path class="shower-cls-9" d="m518.1,248.38c8.3-2.61,19.96,9.97,12.04,16.41-7.89,6.42-22.73-13.05-12.04-16.41Z"/>
              <path class="shower-cls-23" d="m480.9,225.41c6.34-.72,20.69,16.92,9.85,19.7-9.77,2.5-20.47-18.5-9.85-19.7Z"/>
              <path class="shower-cls-9" d="m812.44,370.93c11.83-4.06,16.42,16.52,7.66,18.6-9.51,2.27-15.9-15.77-7.66-18.6Z"/>
              <path class="shower-cls-7" d="m575,319.51c11.09-2.96,16.37,23.19,2.19,19.7-7.21-1.78-8.36-18.05-2.19-19.7Z"/>
              <path class="shower-cls-11" d="m339.75,346.86c12.83-2.24,9.94,25.12-2.19,18.6-6.13-3.29-4.89-17.37,2.19-18.6Z"/>
              <path class="shower-cls-9" d="m642.84,318.41c11.77-3.71,17.18,20.98,3.28,18.6-6.9-1.18-10.33-16.38-3.28-18.6Z"/>
              <path class="shower-cls-11" d="m340.84,391.72c13.69-2.63,9.79,25.86-2.19,18.6-5.7-3.46-4.43-17.33,2.19-18.6Z"/>
              <path class="shower-cls-9" d="m844.18,384.06c9.58-2.9,15.76,17.83,6.57,19.7-9.84,1.99-14.07-17.43-6.57-19.7Z"/>
              <path class="shower-cls-9" d="m719.44,272.46c8.74-2.82,18.25,11.31,12.04,16.41-7.78,6.39-22.5-13.03-12.04-16.41Z"/>
              <path class="shower-cls-15" d="m379.14,373.12c9.98-1.35,10.6,16.54,4.38,18.6-13.13,4.35-13.18-17.41-4.38-18.6Z"/>
              <path class="shower-cls-9" d="m753.36,258.23c9.12-3.59,20.52,14.92,10.94,17.51-8.72,2.35-19.1-14.3-10.94-17.51Z"/>
              <path class="shower-cls-23" d="m664.73,282.3c10.99-3.44,19.94,20.51,4.38,17.51-6.04-1.17-12.15-15.08-4.38-17.51Z"/>
              <path class="shower-cls-9" d="m828.86,470.51c11.56-3.44,16.76,20.37,2.19,17.51-7.98-1.57-8.68-15.58-2.19-17.51Z"/>
              <path class="shower-cls-11" d="m309.11,475.98c14.83-4.91,12.99,24.18,0,17.51-5.34-2.74-5.35-15.73,0-17.51Z"/>
              <path class="shower-cls-11" d="m444.79,345.77c9.44-.97,11.39,16.83,3.28,18.6-12.48,2.72-12.22-17.68-3.28-18.6Z"/>
              <path class="shower-cls-9" d="m502.78,316.22c9.11-1.49,13.76,21.45,3.28,20.79-8.4-.53-10.78-19.56-3.28-20.79Z"/>
              <path class="shower-cls-7" d="m560.78,372.03c11.34-4.44,19.73,20.72,4.38,17.51-5.98-1.25-10.38-15.16-4.38-17.51Z"/>
              <path class="shower-cls-9" d="m559.68,186.01c8.6-2.33,18.34,13.75,9.85,16.41-12.09,3.79-18.32-14.12-9.85-16.41Z"/>
              <path class="shower-cls-11" d="m444.79,309.66c11.75-3.19,16.55,20.67,2.19,17.51-7.2-1.59-8.18-15.88-2.19-17.51Z"/>
              <path class="shower-cls-9" d="m803.69,322.79c8.98-2.22,16.14,16.5,7.66,18.6-8.98,2.22-16.14-16.5-7.66-18.6Z"/>
              <path class="shower-cls-11" d="m325.52,310.75c12.73-2.41,11.79,21.34-1.09,17.51-6.3-1.87-5.94-16.17,1.09-17.51Z"/>
              <path class="shower-cls-7" d="m754.45,345.77c8.21-1.66,16.97,26.29,1.09,18.6-6.25-3.03-7.45-17.31-1.09-18.6Z"/>
              <path class="shower-cls-9" d="m852.93,589.77c10.3-.73,10.32,25.19-2.19,18.6-6.79-3.58-3.69-18.19,2.19-18.6Z"/>
              <path class="shower-cls-11" d="m407.59,340.3c10.15-1.89,12.4,15.32,5.47,17.51-11.25,3.55-14.14-15.89-5.47-17.51Z"/>
              <path class="shower-cls-7" d="m474.34,275.74c10.56-3.22,16.06,16.18,6.57,17.51-9.36,1.31-13.99-15.24-6.57-17.51Z"/>
              <path class="shower-cls-9" d="m525.76,207.9c10.3-3.44,21.65,18.11,6.57,16.41-7.04-.79-13.45-14.11-6.57-16.41Z"/>
              <path class="shower-cls-23" d="m696.46,329.35c11.1-3.06,13.71,28.09,0,17.51-5.63-4.34-4.43-16.29,0-17.51Z"/>
              <path class="shower-cls-11" d="m391.18,287.77c8.51-3.37,17.54,13.33,9.85,16.41-9.92,3.97-17.22-13.49-9.85-16.41Z"/>
              <path class="shower-cls-11" d="m353.97,261.51c14.3-4.08,13.47,17.97,0,15.32-7.77-1.53-5.4-13.78,0-15.32Z"/>
              <path class="shower-cls-9" d="m740.77,405.95c-2.36-1.82-4.8-.77-5.47-1.09-5.19-2.54-7.32-14.41-1.64-16.41,7.17-2.52,15.54,9.03,7.11,17.51Z"/>
              <path class="shower-cls-7" d="m479.81,335.92c8.63-1.77,9.58,17.16,2.19,18.6-9.84,1.92-8.41-17.33-2.19-18.6Z"/>
              <path class="shower-cls-14" d="m740.77,405.95c-1.81,12.85,24.25,11.55,10.94,21.88-1.76-8.53-9.14.25-16.41-15.32.24-2.51-.17-5.13,0-7.66.67.33,3.12-.72,5.47,1.09Z"/>
              <path class="shower-cls-11" d="m418.53,240.72c14.46-2.88,13.61,14.21,3.28,14.22-8.45,0-11.25-12.64-3.28-14.22Z"/>
              <path class="shower-cls-9" d="m630.26,274.64c1.45,6.71.77,10.58,0,17.51-9.5-1.31-15.23-25.22,0-17.51Z"/>
              <path class="shower-cls-30" d="m798.77,448.62c.16-1.1.88-6.31,1.09-6.57,7.26-8.82,18.61,7.89,7.11,9.85-4.47.76-6.5-2.91-8.21-3.28Z"/>
              <path class="shower-cls-9" d="m799.86,442.06c-.21.26-.93,5.47-1.09,6.57-.45-.1-4.4,2.6-8.21,0-5.37-3.67-5.53-20.09,9.3-6.57Z"/>
              <path class="shower-cls-7" d="m505.52,374.22c-.84.18-1.86-.12-2.74,0-2.36,2.57-5.2,4.67-7.11,7.66-5.35-15.15,6.48-23.81,9.85-7.66Z"/>
              <path class="shower-cls-14" d="m805.88,459.56c7.52-1.43,5.53,14.42,1.09,15.32-5.82,1.17-6.61-14.27-1.09-15.32Z"/>
              <path class="shower-cls-23" d="m630.26,292.15c.77-6.93,1.45-10.79,0-17.51,9.71,4.92,11.13,19.04,0,17.51Z"/>
              <path class="shower-cls-7" d="m775.79,484.73c-4.37-4.91-7.47-4.67-8.75-12.04.43-.12,2.93-5.29,7.66-.55,4.46,4.47,1.18,11.9,1.09,12.58Z"/>
              <g>
                <path class="shower-cls-7" d="m570.08,274.64c4.18,8.47-2.83,20.07,9.85,12.04.8,23.41-31.51-14.52-9.85-12.04Z"/>
                <path class="shower-cls-23" d="m579.93,286.68c-12.68,8.04-5.67-3.56-9.85-12.04,3.94.45,9.72,8.43,9.85,12.04Z"/>
              </g>
              <path class="shower-cls-16" d="m853.48,497.86c-.22.06.58,1.64-4.38,1.09-2.44-4.41-8.59-8.92-7.11-12.04l11.49,10.94Z"/>
              <path class="shower-cls-10" d="m300.36,574.45c.81,0,4.31,4.39,2.19,5.47-1.33.68-5.18-5.46-2.19-5.47Z"/>
            </g>
          </g>
        </g>
      </g>
    </g>
    <path class="shower-cls-30" d="m868.79,665.27c5.87,1.22,6.16,5.21,3.28,8.75-2.06-.64-8.06.65-9.3,0-1.18-.62-6.73-11.4,6.02-8.75Z"/>
    <g>
      <path class="shower-cls-45" d="m247.29,505.52c.13,16.49-5.14,42-3.28,61.28q-15.32,82.34-30.64,164.68c5.31,4.6,6.75,7.79,1.09,12.58,4.79-6.9-1.08-14.27-9.3-9.85-6.59,3.55-5.17,13.35,6.02,12.04-22.75,82.84-49.51,164.48-82.06,244.01-4.78.58-9.32,1.83-14.22,1.09,6.94-21.81,16.77-42.45,24.07-64.01,5.02-14.83,8.29-30.56,13.13-45.41,16.58,6.26,21.01-10.18,2.19-8.75,15.56-48.38,32.19-95.33,43.77-144.98,8.85-37.97,13.83-76.83,21.88-114.89,3.79-17.9,12.65-32.39,12.04-57.45,11.27-5.57,5.37-14.41,1.09-16.41,1.89-19.8-4.66-44.76,14.22-33.92Z"/>
      <path class="shower-cls-31" d="m252.76,556.95c-.18.28-3.92,3.16-5.47,3.83,4.79,10.83.44,19.61,7.66,26.26.29,6.05.48,20.58-5.47,23.53-.55.27-2.27-.63-2.19,1.09-16.54-11.63,1.89,8.26,2.19,9.3.35,1.23.05,6.64,0,9.3-.12,6.08-3.72,18.27-4.38,23.53-.58,4.62.66,10.92,0,15.32-.13.88-2.05.22-2.19,1.09-4.68,30.44-9.48,61.56-19.7,91.91-1.06,7.1-2.84,17.32-4.38,22.98-.25.91-1.94.18-2.19,1.09-.47,1.71.47,4.87,0,6.57-.13.47-4.12,7.86-4.38,8.75-.47,1.67.48,4.91,0,6.57-.26.91-1.92.18-2.19,1.09-4.78,16.52-7.91,33.54-15.32,49.24-.51,4.31-2.93,15.31-4.38,19.7-.3.92-1.88.17-2.19,1.09-2.84,8.55-5.82,16.7-8.75,25.17-.04.13,1.55.89,1.09,2.19-1.81,5.19-13.23,27.19-8.75,27.9-10.27,16.75-19.81,40.31-26.26,59.09-10.22.16-25.89-.47-32.83,0,2.98.4,1.84-1.11,2.19-2.19,4.9.74,9.45-.52,14.22-1.09.38-.05,1.17,2.47,7.66.55,49.09-119.71,91.24-244.09,106.14-373.12-11.8-12.42,5.85-5.6,6.57-31.73.06-2.32-1.83-20.91-5.47-19.15-1.85-19.27,3.41-44.78,3.28-61.28-.13-17.17-5.7-15.64-6.57-19.15-1.22-4.97,1.75-10.86,2.19-14.77,33.67,9.83,4.61,28.63,7.66,38.84.62,2.07,9.51,5.7,9.85,6.57,3.22,8.18-2.57,31.92-7.66,39.94Z"/>
      <path class="shower-cls-6" d="m154.28,873.17c-1.18,3.67-1.65,7.1-2.19,8.75-4.84,14.85-8.11,30.58-13.13,45.41-7.31,21.56-17.13,42.21-24.07,64.01-.34,1.08.79,2.59-2.19,2.19-1.78.12-3.74-.24-5.47,0-.76,0-1.9.29-2.19-.55-2.03-5.83,35.75-102.6,39.39-115.99,26.43-104.94,62.13-207.98,78.78-315.13l7.66-6.02c.35-.12.82.14,1.09,0,.61,25.06-8.25,39.54-12.04,57.45-8.05,38.06-13.03,76.92-21.88,114.89-11.58,49.65-28.21,96.6-43.77,144.98Z"/>
      <path class="shower-cls-31" d="m245.1,465.03c3.26-26.62,5.41-53.39,9.85-79.88.21.94,5.12,9.49,5.47,12.58,2.1,18.59-8.6,11.15-7.66,29.54.89,17.26,20.97,21.03-7.66,37.75Z"/>
      <path class="shower-cls-31" d="m129.12,990.25c32.56-79.53,59.31-161.16,82.06-244.01,1.17-.14,2.42-1.46,3.28-2.19,5.66-4.8,4.22-7.98-1.09-12.58q15.32-82.34,30.64-164.68c3.64-1.76,5.53,16.83,5.47,19.15-.71,26.13-18.36,19.31-6.57,31.73-14.9,129.04-57.05,253.41-106.14,373.12-6.48,1.92-7.28-.59-7.66-.55Z"/>
      <path class="shower-cls-39" d="m214.46,744.06c-.86.73-2.12,2.05-3.28,2.19-11.19,1.31-12.61-8.49-6.02-12.04,8.22-4.42,14.09,2.95,9.3,9.85Z"/>
      <path class="shower-cls-30" d="m152.09,881.92c.54-1.66,1.01-5.08,2.19-8.75,18.82-1.43,14.39,15.01-2.19,8.75Z"/>
    </g>
    <path class="shower-cls-22" d="m249.48,610.56c8.73,13.72-1.13,1.84-2.19,1.09-.08-1.72,1.64-.82,2.19-1.09Z"/>
    <path class="shower-cls-31" d="m763.75,827.21c-.33-.1-.76.1-1.09,0-7.19-2.16-7.26-3.16-7.66-3.28-8.17-63.72-17.47-127.31-29.54-190.39,2.84-2.43,5.48-5.66,8.75-7.66-.02,20.52,26.65,162.51,29.54,201.33Z"/>
    <path class="shower-cls-39" d="m891.77,781.26c12.02,37.11,24.06,74.24,38.3,110.51-6.7-2.08-11.81-7.22-17.51-10.94-2.64-9.62-22.17-65.81-24.07-68.93,3.94-.31,4.39-2.82,4.38-6.02-.03-8.14-14.73-28.87-14.22-49.24,3.94-6.26,8.59,25.04,13.13,24.62Z"/>
    <path class="shower-cls-45" d="m835.97,665.27c1.31.64,6.7,2.42,7.66,2.19-.85,12.31,18.77,70.05,18.6,73.86-.06,1.51-.63,1.83-1.64,2.74-10.71-6.64-11.5-4.5-15.87-16.96-.99-2.82-14.7-55.05-14.22-57.99.54-3.37,2.1-4.5,5.47-3.83Z"/>
    <path class="shower-cls-45" d="m888.49,811.9c1.9,3.13,21.43,59.31,24.07,68.93-4.48-2.93-11.01-7.43-15.32-9.85-.91-9.53-20.77-60.65-20.79-64.01,0-1.51.68-1.83,1.64-2.74,3.65,2.93,7.72,3.26,10.39,7.66Z"/>
    <g>
      <path class="shower-cls-30" d="m781.26,663.09c9.89,8.96,18.33,24.75,17.51,38.3-.4,6.66-4.09,17.04-10.94,19.7,4.74-24.88-21.74-29.2-21.88-65.65,5.95-3.32,11.32,4.03,15.32,7.66Z"/>
      <path class="shower-cls-32" d="m787.82,721.08c-1.62.63-3.4,3.57-4.38,1.64-.3-2.33.44-5.9,0-7.11-3.78-10.44-12.21-12.2-18.6-3.28-.66-10.08-6.26-14.36,3.28-29-6.84-5.29-10.01-23.54-2.19-27.9.14,36.45,26.63,40.77,21.88,65.65Z"/>
    </g>
    <path class="shower-cls-30" d="m843.63,667.46c-.96.23-6.35-1.55-7.66-2.19-2.96-1.45-4.81-.89-5.47-1.64-.78-.89-.81-14.14-3.28-23.53,1.37-4.44,2.7-5.54,5.47-8.75,1.68-1.95.65-2.63,1.64-4.38,4.4-3.09,22.5,37.24,9.3,40.49Z"/>
    <path class="shower-cls-45" d="m818.46,595.24c.31.28,3.11-.68,7.66,3.28l6.57,32.83c-2.78,3.22-4.11,4.31-5.47,8.75-.03-.11-1.94.39-2.19-.55-2.55-9.84-10.56-44.98-6.57-44.32Z"/>
    <g>
      <path class="shower-cls-30" d="m772.5,509.9c-.92.1-2.93-.42-3.28.55-2.04,5.66,9.31,104.62,10.94,119.81,1.09,10.12,3.59,25.33,1.09,32.83-4-3.63-9.37-10.98-15.32-7.66-7.82,4.36-4.65,22.61,2.19,27.9-9.54,14.63-3.94,18.92-3.28,29,.66,10.09.53,23.56,5.47,32.28.22,12,3.15,20.21,6.02,32.28,1.41-24.32-22.82-71.61,7.11-61.28.44,1.21-.3,4.78,0,7.11.97,1.93,2.76-1.02,4.38-1.64,6.85-2.65,10.54-13.04,10.94-19.7,3.42,2.55,8.4,31.54,8.75,20.24.07-2.08-8.44-37.15-9.85-40.49-6.39-15.2-19.81-15.64-5.47-30.64q-4.92-23.25-9.85-46.5c-.64-26.66-5.35-52.86-7.66-79.33-.24-2.69-.4-4.33,2.19-3.83,2.21,3.28,4.2,3.08,4.38,3.28,5.31,6.08,11.85,9.78,16.41,16.41,3.97,5.78,6.7,21.68,6.57,2.74,12.81-14.04,16.33,24.63,0,12.04.77,3.7,1.88,4.74,5.47,6.02-.45,2.83,4.33,5.15,4.38,6.02.08,1.61-13.39,11.59,4.38,27.9-4-.66,4.02,34.48,6.57,44.32.24.94,2.16.44,2.19.55,2.48,9.38,2.5,22.63,3.28,23.53.66.75,2.51.19,5.47,1.64-3.37-.67-4.93.46-5.47,3.83-.48,2.95,13.24,55.18,14.22,57.99,4.37,12.46,5.15,10.32,15.87,16.96,1.01-.91,1.58-1.23,1.64-2.74.16-3.81-19.45-61.55-18.6-73.86,13.2-3.25-4.9-43.58-9.3-40.49-.99,1.74.04,2.43-1.64,4.38l-6.57-32.83c5.51-4.06,7.59-9.9,10.94-15.32-1.32,8.18,2.3,22.31,7.66,28.45-1.39-.21-1.43,3.14-1.09,4.92,1,5.23,23.99,91.48,27.35,102.85,6.14,20.8,14.11,41.19,20.79,61.82-4.54.43-9.19-30.88-13.13-24.62-.51,20.37,14.2,41.1,14.22,49.24,0,3.2-.44,5.71-4.38,6.02-2.68-4.4-6.75-4.73-10.39-7.66-.96.91-1.65,1.23-1.64,2.74.02,3.37,19.88,54.48,20.79,64.01-24.44-13.74-51.91-22.99-78.78-30.64,1.14-27.38,1.6-29.8-18.05-49.24-3.73-.34,9.54,43.05,9.3,48.14-15.26-4.4-30.59-7.47-45.96-12.04-2.89-38.82-29.57-180.82-29.54-201.33,0-.81,1.01-.92,1.09-3.28.82-.16,1.44-.72,2.19-1.09,4.19-2.1,15.09-13.85,17.51-18.05.5-7.46,10.45-22.93,10.94-27.35,1.45-12.97-7.83-30.43-21.88-33.37,5.4-2.27,2.24-6.62,14.22-2.74l-7.66-19.7c8.07-5.03.39-24.41,10.39-7.11,1.35-2.43,1.31-5.01,1.64-7.66,4.09.92.46-8.82,4.92-7.66,1.54.4,3.43,8.85,4.92,12.04Z"/>
      <g>
        <path class="shower-cls-14" d="m772.5,509.9c2.75,5.87,3.13,5.19,3.28,5.47.32.57.43,4.48,1.09,5.47-2.59-.5-2.42,1.13-2.19,3.83,2.31,26.47,7.02,52.67,7.66,79.33.21,8.59,1.37,18.65-2.19,26.26-1.63-15.2-12.98-114.15-10.94-119.81.35-.97,2.36-.45,3.28-.55Z"/>
        <path class="shower-cls-31" d="m818.46,840.35c-.75-.21-3.8.33-8.75-1.09.24-5.1-13.03-48.48-9.3-48.14,19.65,19.44,19.2,21.85,18.05,49.24Z"/>
        <path class="shower-cls-14" d="m798.77,701.38c.82-13.54-7.62-29.34-17.51-38.3,2.49-7.5,0-22.71-1.09-32.83,3.56-7.61,2.4-17.67,2.19-26.26q4.92,23.25,9.85,46.5c-14.34,14.99-.91,15.44,5.47,30.64,1.4,3.34,9.91,38.4,9.85,40.49-.35,11.3-5.33-17.69-8.75-20.24Z"/>
        <path class="shower-cls-45" d="m802.05,760.47c.15,9.53,9.82,18.79-1.09,25.17-.07-.15-1.77.45-2.19-.55-1.52-3.6-9.74-46.96-13.13-59.09,6.32-9.88,8.68,12.62,16.41,34.47Z"/>
        <path class="shower-cls-45" d="m862.78,752.81l2.74.55c1.24,1.75,18.3,57.85,5.47,44.86-1.67-1.69-14.38-41.51-8.21-45.41Z"/>
        <path class="shower-cls-14" d="m783.45,715.61c-29.93-10.33-5.7,36.95-7.11,61.28-2.87-12.07-5.8-20.28-6.02-32.28-4.94-8.72-4.81-22.19-5.47-32.28,6.4-8.92,14.82-7.16,18.6,3.28Z"/>
        <path class="shower-cls-30" d="m800.95,785.64c10.91-6.38,1.24-15.63,1.09-25.17,4.49,12.69,9.26,25.24,14.22,37.75-2.01,9.05-12.7-7.21-15.32-12.58Z"/>
      </g>
    </g>
    <path class="shower-cls-14" d="m755,823.93c-12.38-3.94-23.9-7.35-36.11-12.04l1.09-17.51c8.57.59,20.32-9.13,16.41-18.05-3.44-7.87-22.37-5.89-27.35-1.64-2.7-11.57-1.66-29.83-8.75-37.2,0-.93-.83-1.12-1.09-2.19,2.82-.44,5.21,4.38,6.02,4.38.71,0,11.38-7.51,11.49-8.21.33-2.21-13.92-13.47-16.41-13.68-.1-3.39.93-6.07-2.19-5.47,1.41-3.18,6-4.36,4.38-15.87,9.18-7.36,10.59-13.53,9.85-25.17,6.23-8.03,4.32-22.74,5.47-31.73.06-.51,2.03-1.34,2.19-2.74,2.16-.02,3.98-2.01,5.47-3.28,12.07,63.08,21.37,126.67,29.54,190.39Z"/>
    <path class="shower-cls-14" d="m693.72,719.98c-.1.86,2.3,5.97,3.28,16.96.08.91,2.18.43,2.19.55l1.09,65.65c-6.84-2.81-12.48-3.05-13.13-3.28-2.25-.82-4.35-1.31-6.57-2.19-2.15-.86-4.99-.58-6.57-2.74-3.21-15.87-5.03-32.39-6.57-48.69,9-8.05,16.73-18.23,24.62-27.35.45.36.96,1.38,1.64,1.09Z"/>
    <path class="shower-cls-45" d="m457.38,725.45c-3.74,17.94.08,38.04-2.19,55.8-1.11,8.7-4.47,17.61-13.13,20.79,4.53-26.61,5-53.18,6.57-79.88.37-6.29,2.1-13.45,3.28-19.7,4.55,11.19,3.8,11.33,5.47,22.98Z"/>
    <path class="shower-cls-40" d="m445.34,690.44c1.63,3.72,4.71,7.47,6.57,12.04-1.18,6.24-2.91,13.41-3.28,19.7-6.28,2.85,2.68,25.03-6.02,22.98-.26-.06-3.77-3.57-3.83-3.83-.58-2.4,1.49-46.88,2.19-49.24.45-1.5,2.92-1.93,4.38-1.64Z"/>
    <path class="shower-cls-14" d="m431.11,645.58c8.7,51.37-6.55,107.05-8.75,160.3-10.89,7.09-15.57,5.72-16.41,6.02,3.03-51.57,5.87-103.33,9.85-154.83.37-4.81.28-12.29,4.38-13.68,3.62.86,7.29,1.48,10.94,2.19Z"/>
    <path class="shower-cls-45" d="m299.81,641.2c-.58,25.18-8.9,59.48-13.13,84.8-.19,1.11.76,8.82,0,13.13-.16.89-2.03.21-2.19,1.09-2.07,11.58-1.93,24.91-6.57,36.11-1.18,19.93-9.34,40.52-13.13,60.73-3.88,3.88-7.41,1.36-7.66-3.83,7.8-36.01,16.56-72.05,22.98-108.33,2.23-12.59,10.33-88.2,13.13-91.91,5.62-7.45,6.73,1.2,6.57,8.21Z"/>
    <path class="shower-cls-45" d="m374.22,827.21c-2.92.97-5.7,2.34-8.75,3.28,4.11-35.52,9.64-71.11,13.13-106.68,1.49-15.14,3.35-71.52,4.38-76.59,1.43-7.06,5.28-8.12,10.94-3.28-5.62,61.12-10.67,122.52-19.7,183.28Z"/>
    <path class="shower-cls-14" d="m420.17,643.39c-4.1,1.39-4.01,8.87-4.38,13.68-3.98,51.5-6.81,103.26-9.85,154.83-1.71.61-10.67,7.78-12.04,4.92,5.16-58.9,12.59-117.66,15.32-176.71,3.63,1.46,7.13,2.38,10.94,3.28Z"/>
    <path class="shower-cls-11" d="m262.61,644.48c-9.89.11-9.74-9.83-7.66-17.51,1.86-6.87,8.4-13.87,15.87-9.85,7.56,4.07,4.87,27.22-8.21,27.35Z"/>
    <path class="shower-cls-45" d="m709.04,774.69c-10.48,8.92,1.29,19.03,10.94,19.7l-1.09,17.51c-7.46-2.86-13.98-6.86-18.6-8.75l-1.09-65.65h1.09c7.09,7.37,6.05,25.63,8.75,37.2Z"/>
    <path class="shower-cls-30" d="m719.98,794.39c-9.65-.67-21.42-10.77-10.94-19.7,4.99-4.24,23.91-6.23,27.35,1.64,3.9,8.92-7.84,18.65-16.41,18.05Z"/>
    <path class="shower-cls-30" d="m699.19,735.3c-.81-3.23.04-13.19,0-17.51h1.09c2.49.21,16.75,11.46,16.41,13.68-.1.7-10.78,8.2-11.49,8.21-.81,0-3.2-4.82-6.02-4.38Z"/>
    <path class="shower-cls-28" d="m699.19,735.3c.27,1.06,1.08,1.26,1.09,2.19h-1.09c-.01-.11-2.11.36-2.19-.55-.98-10.99-3.38-16.1-3.28-16.96.65-.27,2.67.57,5.47-2.19.04,4.31-.81,14.28,0,17.51Z"/>
  </g>
  <g>
    <path class="shower-cls-30" d="m458.47,728.74c.54,15.44,4.49,40.84-3.28,52.52,2.26-17.77-1.55-37.87,2.19-55.8.17,1.19,1.62,1.63,1.09,3.28Z"/>
    <path class="shower-cls-33" d="m700.29,717.8h-1.09c-2.8,2.76-4.83,1.92-5.47,2.19.64-5.41,2.96-4.47,4.38-7.66,3.12-.6,2.09,2.08,2.19,5.47Z"/>
    <g>
      <path class="shower-cls-38" d="m700.29,803.14c4.62,1.9,11.15,5.89,18.6,8.75,12.21,4.68,23.72,8.09,36.11,12.04.4.13.46,1.12,7.66,3.28.18.84,1.95,5.29,2.19,5.47-13.19,14.91,4.38,10.69,5.47,10.94.17.04-1.08.41,3.28,1.09,2.14.33,3.75,3.57,6.57,1.09-.22,7.18,1.25,8.86,1.09,9.3-.46,1.34-4.22.16-4.38,3.83-.14,3.31-.07,5.01,3.28,6.57-16.61,33.68-55.1,41.74-89.18,47.05-17.09-7.57-34,1.79-34.47-4.92-.42-6.02,60.15-47.35,30.64-107.78.65.23,6.29.47,13.13,3.28Z"/>
      <path class="shower-cls-5" d="m770.32,843.63c-1.09-.25-18.66,3.97-5.47-10.94.65.49,12.2.85,5.47,10.94Z"/>
      <g>
        <path class="shower-cls-34" d="m687.16,799.86c29.51,60.42-31.06,101.76-30.64,107.78.47,6.71,17.37-2.65,34.47,4.92,34.08-5.31,72.57-13.37,89.18-47.05.32-.66,11.26-8.63-3.28-6.57.16-3.67,3.92-2.49,4.38-3.83.15-.44-1.31-2.12-1.09-9.3,0-.27,3.54-1.06,2.19-4.92-1.34-3.82-10.72-5.18-8.75,3.83-4.36-.68-3.11-1.06-3.28-1.09,6.73-10.09-4.82-10.46-5.47-10.94-.24-.18-2.01-4.63-2.19-5.47.33.1.76-.1,1.09,0,15.37,4.57,30.7,7.64,45.96,12.04,4.96,1.43,8,.88,8.75,1.09,26.87,7.65,54.35,16.9,78.78,30.64,4.31,2.42,10.84,6.92,15.32,9.85,5.69,3.72,10.81,8.86,17.51,10.94,7.54,11.67,21.4,23.58,28.45,35.01,11.72,19,16.93,45.4,24.07,66.75-218.08,2.16-436.24,1.45-654.33,1.09,0-.76-.29-1.9.55-2.19,6.75-2.35,86,1.36,100.67,0,55.41-27.94,116.1-49.09,154.83-100.67,54.51-2.72,121.14-28,96.29-94.1,2.21.88,4.31,1.37,6.57,2.19Z"/>
        <g>
          <path class="shower-cls-5" d="m775.24,916.94c8.04-1.45,9.18,10.46,3.28,12.04-8.82,2.36-10.27-10.78-3.28-12.04Z"/>
          <path class="shower-cls-5" d="m754.45,920.22c10.41-2.93,9.09,14.99-1.09,10.94-4.85-1.93-2.49-9.93,1.09-10.94Z"/>
          <path class="shower-cls-5" d="m780.16,845.82c-2.81,2.48-4.43-.76-6.57-1.09-1.97-9.01,7.42-7.65,8.75-3.83,1.35,3.86-2.18,4.65-2.19,4.92Z"/>
          <path class="shower-cls-5" d="m918.58,966.18c3.69-.03,6.01,6.57,1.09,7.66-5.55,1.23-6.44-7.62-1.09-7.66Z"/>
          <path class="shower-cls-4" d="m780.16,865.51c-3.35-1.55-3.43-3.25-3.28-6.57,14.54-2.06,3.61,5.91,3.28,6.57Z"/>
        </g>
      </g>
      <g>
        <path class="shower-cls-2" d="m540.53,889.58c8.04,1.2,16.01.84,24.07,1.09,6.59.21,12.92,1.43,19.7,1.09-38.73,51.58-99.42,72.73-154.83,100.67-14.67,1.36-93.92-2.35-100.67,0-.84.29-.55,1.43-.55,2.19-60.89-.1-121.82-2.06-182.73-1.09,6.45-18.78,15.99-42.33,26.26-59.09,55.03-89.74,112.31-78.89,193.67-103.95,3.06-.94,5.83-2.31,8.75-3.28,23.2-7.72,37.83-15.22,59.09-24.07-7.14,5.64,13.45,35.86,18.6,42.13,21.29,25.9,56.26,39.5,88.63,44.32Z"/>
        <path class="shower-cls-5" d="m420.72,939.92c7.29-2.59,9.6,8.14,4.38,9.85-8.11,2.66-9.33-8.09-4.38-9.85Z"/>
        <path class="shower-cls-5" d="m468.86,923.5c6.45-1.5,7.97,7.17,3.28,8.75-7.69,2.61-8.84-7.46-3.28-8.75Z"/>
        <path class="shower-cls-4" d="m428.38,861.14c6.26-2.87,9.79,5.74,4.38,7.66-6.56,2.33-7.89-6.05-4.38-7.66Z"/>
        <path class="shower-cls-5" d="m480.9,930.07c6.68.44,3.94,11.28-3.28,7.66-3.74-1.88.9-7.82,3.28-7.66Z"/>
      </g>
    </g>
    <g>
      <g>
        <path class="shower-cls-18" d="m515.37,375.31c6.62,6.26-1.1,10.86,9.85,10.94-.44.51-3.03.93-4.38,2.74-9.63,12.86,1.22,38.2,19.15,27.9.37,3.28,2.5,5.11,3.83,7.66,5.2,9.94,2.86,16.61,20.79,12.04v1.09l-29.54,15.32c-18.47,1.21-58.61,16.96-66.2,31.73-38.74,6.74-43.24,147.7-2.74,155.92-4.33,9.58,5.11,15.19,14.22,14.77,3.18,12.22-5.67,16.47,17.51,25.71-.32,25.12,17.99,24.6,18.6,26.26-4.08,10.29,18.31,32.97,26.81,39.94,26.12,21.42,13.13,5.89,30.09,0,16.43-5.7,41.14-.09,53.07,13.13,19.72-18.41,56.72-52,56.35-78.24,22.22-9.21,11.52-13.04,13.13-19.7,1.28-5.26,24.06-10.08,18.6-103.4,1.78,19.9-1.42,30.21,6.57,17.51.65-1.04,2.58-7.85,5.47-11.49,15.47-19.5,36.69-6.4,28.45,26.81-4.93-34.6-32.59-30.61-36.11,1.64,9.13-21.07,22.81-30.06,20.79,1.09-.13,1.99-3.03,9.26-3.28,12.58l-16.41,2.74c-.66,7.14.53,22.13,0,26.81-.16,1.39-2.12,2.23-2.19,2.74-1.15,9,.76,23.71-5.47,31.73.74,11.64-.67,17.81-9.85,25.17,1.62,11.51-2.96,12.68-4.38,15.87-1.42,3.19-3.74,2.25-4.38,7.66-.68.28-1.19-.73-1.64-1.09-7.89,9.12-15.62,19.31-24.62,27.35-12.08,10.8-53.94,45.61-66.75,48.14-5.17,1.02-11.23,1.9-16.41,1.09-7.73-1.21-22.76-10.17-25.71-18.6-38.92-11.18-72.04-38-101.21-64.01,1.44,5.73.91,10.7,1.09,15.87.53-1.65-.92-2.09-1.09-3.28-1.67-11.65-.92-11.79-5.47-22.98-1.86-4.57-4.93-8.32-6.57-12.04-1.04-2.36-4.1-6.3-5.47-9.3-.91-12.09-4.41-23.69-6.57-35.56-.04-.22,1.01,1.17,0-4.38-7.35-40.28-1.71-71.91-38.3-74.41-4.82-18.06,5.47-5,15.32-18.6,5.19-7.17,5.5-10.39,2.19-18.6-2.97-7.37-7.62-8.28-8.75-10.94-3.5-8.19,2.19-10.59,5.47-15.32,10.56-15.23,18.2-29.6,19.7-30.64.14-.1,2.74-.96,3.28-1.09,5.07-1.25,8.02,6.03,20.24,0,6.72-3.32,9.18-11.62,8.21-18.6-.73-5.24-6.17-12.14-10.94-14.22-.06-1.69,1.49-.84,2.19-1.09,4.01-1.45,1.84-7.05,8.75-15.87,7.13-9.09,21.08-11.3,27.35-20.79,3.48-5.27,4.28-13.86,7.66-19.15,1.91-2.99,4.75-5.09,7.11-7.66.87-.12,1.9.18,2.74,0,4.36-.93,6.51.83,9.85,1.09Z"/>
        <path class="shower-cls-21" d="m651.05,361.09c10.4,12.95,11.64,5.9,20.79,14.22l1.09,10.39c3.58,2.69,4.96,7.41,5.47,11.49.13,1.06-1.81.96,0,3.28-6.11-2.35-2-7.69-2.19-8.21-3.17-8.63-20.17-.04-21.34-.55-.71-.3-1.21-4.81-4.92-6.57,6.01-6.78-6.86-14.11-12.04-7.66.52-3.79-1.09-3.11-1.09-3.28-.31-10.15,11.56-12.06,9.3-21.88,1.45,4.1,2.28,5.46,4.92,8.75Z"/>
        <path class="shower-cls-47" d="m649.95,385.16c-8.14-3.84-18.73,7.85-13.13-7.66h1.09c5.17-6.45,18.04.88,12.04,7.66Z"/>
        <g>
          <path class="shower-cls-18" d="m635.73,375.31l1.09,2.19c-5.6,15.51,4.99,3.82,13.13,7.66,3.72,1.75,4.22,6.26,4.92,6.57,1.17.5,18.17-8.09,21.34.55.19.52-3.92,5.86,2.19,8.21,4.89,1.88,5.47-2.17,10.94,8.75.94,1.88,4.1,28.63,26.81,25.17,9.31-1.42,18.26-12.7,19.15-21.88,7.27,15.57,14.66,6.79,16.41,15.32.86,4.17-1.56,9.83-1.09,12.04-12.92,5.21-10.83,9.51-10.94,16.41-.06,3.91-5.46,6.52,5.47,10.94.13.05-.42,1.88.55,2.19,2.52-2.81,6.41-1.92,9.3,0,1.95,1.29,2.43,2.34,3.28,4.38,1.9,4.55-2.48,4.57,5.47,12.58-1.02,5.97-.39,13.61-1.09,19.15-.34,2.65-.29,5.22-1.64,7.66-10.01-17.3-2.32,2.08-10.39,7.11l7.66,19.7c-11.98-3.88-8.83.47-14.22,2.74-17.99,7.57-20.93,14.29-22.98,33.92-7.99,12.7-4.79,2.39-6.57-17.51-2.13-23.88-1.97-59.16-15.32-79.33-3.3-4.98-12.52-8.26-14.77-21.34-2.14,15.59-1.73,2.53-3.28,1.09-.41-.38-6.92.03-10.94-2.19-1.73-.95-3.49-6.9-5.47-6.57-.88.15-8.45,14.17-10.94,14.22-5.76.13.84-19.79-33.92-3.28-4.49-3.75,10.26-13.02,4.38-13.13-11.43,6.21-23.5,24.76-28.45,27.35-11.7,6.14-13.54-.27-.55-12.58-5.05-1.64-10.15-1.58-15.32-2.74q3.01-10.39,6.02-20.79l-11.49,19.7c0-.14-2.63.72-2.19-1.64l6.57-10.94-1.64-.55c-1.02.1-10.22,11.2-14.77,14.22-7.04,4.68-7.07,5.93-20.79,3.83q11.49-13.4,22.98-26.81v-1.09c5.18-1.32,19.65-11.05,18.6-17.51,4.33-5.6,7.01-12.8,4.38-19.7.98-.8,6.17-4.33,6.57-4.38,6.25-.77,6.59,2.54,8.21,2.19,12.58-10.76,9.76-12.98,10.39-13.68,1.39-1.51,2.95-3.6,4.38-4.92.61-.56,2.05-2.12,2.19-2.19,5.1-2.6,10.87-2.99,16.41-1.09Z"/>
          <g>
            <path class="shower-cls-43" d="m637.92,377.5h-1.09l-1.09-2.19,1.09-1.09c0,.17,1.62-.51,1.09,3.28Z"/>
            <path class="shower-cls-42" d="m579.93,460.66c-1.6-.36-3.37.62-5.47-1.09l11.49-19.7q-3.01,10.39-6.02,20.79Z"/>
            <path class="shower-cls-25" d="m745.15,467.22c-10.93-4.42-5.53-7.04-5.47-10.94,3.78,2.43,6.21,6.63,5.47,10.94Z"/>
            <path class="shower-cls-36" d="m604.55,448.62c5.66,13.66-3.6,11.2-4.92,9.3-.3-.43,4.77-7.65,4.92-9.3Z"/>
            <path class="shower-cls-36" d="m659.26,444.25q-2.19,6.57-4.38,13.13c-3.75-7.1.72-7.26,4.38-13.13Z"/>
            <path class="shower-cls-26" d="m613.3,414.7c3.02-.76,3.83,5.84.55,1.64-.6-.77-1.77-1.33-.55-1.64Z"/>
          </g>
        </g>
      </g>
      <g>
        <path class="shower-cls-44" d="m737.49,621.51c6.19-9.65,14.68-18.14,17.51-29.54,8.24-33.21-12.98-46.31-28.45-26.81-2.89,3.64-4.82,10.45-5.47,11.49,2.05-19.63,4.99-26.36,22.98-33.92,14.06,2.94,23.33,20.4,21.88,33.37-.49,4.43-10.44,19.9-10.94,27.35-2.42,4.2-13.32,15.95-17.51,18.05Z"/>
        <path class="shower-cls-36" d="m755,591.96c-2.83,11.41-11.31,19.9-17.51,29.54-.75.38-1.37.94-2.19,1.09.19-5.12.71-10.21,1.09-15.32.25-3.32,3.15-10.6,3.28-12.58,2.02-31.15-11.66-22.16-20.79-1.09,3.52-32.25,31.18-36.24,36.11-1.64Z"/>
        <path class="shower-cls-8" d="m736.4,607.28c-.39,5.11-.91,10.2-1.09,15.32-.09,2.37-1.09,2.47-1.09,3.28-3.27,1.99-5.91,5.23-8.75,7.66-1.49,1.27-3.32,3.26-5.47,3.28.53-4.67-.66-19.67,0-26.81l16.41-2.74Z"/>
        <path class="shower-cls-3" d="m584.3,795.48c-12.05,32.56-27.3,63.58-43.77,94.1-32.37-4.82-67.34-18.42-88.63-44.32-5.16-6.27-25.74-36.48-18.6-42.13,2.99-1.24,6.83-.39,8.75-1.09,8.66-3.18,12.02-12.09,13.13-20.79,7.78-11.68,3.83-37.08,3.28-52.52-.18-5.16.35-10.14-1.09-15.87,29.17,26.01,62.29,52.83,101.21,64.01,2.95,8.43,17.98,17.4,25.71,18.6Z"/>
        <path class="shower-cls-8" d="m564.61,437.68q-11.49,13.4-22.98,26.81c13.72,2.1,13.75.85,20.79-3.83,7.28.04,1.11,5.82,1.09,7.11-.23,21.5,1.54,43.58,2.19,65.1-15.52,11.77-27.02,76.8-25.17,81.52,1.28,2.07,5.36,2.53,6.57,3.83,11.09,11.97,19.33,18.07,36.11,20.79,11.79,1.91,23.25.74,35.01,0-6.39,2.62-12.05,4.95-19.15,4.38-3.31,1.35,1.27,10.41-1.09,14.22-3.56,5.75-41.54,2.52-10.39,10.94l-2.19,3.28c-13.39-.38-27.15,1.23-40.49-1.09-18.56-3.24-20.06-15.19-22.98,2.19-.66-.23-2.66,2.39-12.04-4.92-28.72-41.84-29.44-62.38-30.64-111.06,19.04,20.08,63.25,6.21,65.65-6.02,4.21-21.41-26.22,21.77-65.65-3.83,7.8-6.01,6.82-17.71,10.94-26.26,40.43-4.93,66.85,12.04,61.28-11.49-3.73-15.74-74.2-5.51-88.63-3.83.32-.92-.58-2.54.55-3.28,10,3.32,22.51-15.27,37.2-25.17,17.03-11.47,40.28-16.24,34.47-24.07l29.54-15.32Z"/>
        <path class="shower-cls-46" d="m680.59,797.67c24.85,66.1-41.78,91.38-96.29,94.1-6.78.34-13.1-.89-19.7-1.09,18.08-29.36,30.3-62.43,36.11-96.29,12.81-2.53,54.67-37.34,66.75-48.14,1.54,16.3,3.36,32.82,6.57,48.69,1.57,2.15,4.42,1.88,6.57,2.74Z"/>
        <path class="shower-cls-48" d="m490.2,520.84c-4.12,8.55-3.14,20.25-10.94,26.26-5.4.01-.05,7.94,0,9.85,1.2,48.68,1.92,69.22,30.64,111.06,9.38,7.32,11.38,4.69,12.04,4.92.2.07-.62,2.45,2.74,3.28,5.99,1.48,17.69.84,24.62,2.19,2.58.5,5.37,1.82,7.66,2.19-1.26,6.9.5,11.35,0,19.7-.02.38-5.02-1.3,1.64,4.38,9.39,8,37.19,14.69,49.79,13.13-19.08,22.58-31.68,23.73-35.56,26.26-1.59,1.04.23,2.04.55,3.28-16.96,5.89-3.97,21.42-30.09,0-8.49-6.96-30.88-29.64-26.81-39.94-.61-1.66-18.92-1.14-18.6-26.26-23.18-9.24-14.33-13.5-17.51-25.71-.4-1.53-4.74-2.99-5.47-4.92,4.95-6.26-7.76-30.4-10.94-50.33-4.84-30.32.17-49.6,0-71.67,5.65-3.34,19.92-6.89,26.26-7.66Z"/>
        <path class="shower-cls-48" d="m535.06,453c5.81,7.83-17.43,12.6-34.47,24.07-14.69,9.89-27.21,28.48-37.2,25.17-1.12.75-.23,2.36-.55,3.28-2.2,6.4-1.22,15.67-1.09,22.43.02.89,2.19.43,2.19.55.17,22.07-4.84,41.35,0,71.67,3.18,19.93,15.89,44.07,10.94,50.33.73,1.93,5.07,3.4,5.47,4.92-9.12.41-18.56-5.19-14.22-14.77-40.5-8.22-36-149.18,2.74-155.92,7.59-14.77,47.73-30.52,66.2-31.73Z"/>
        <path class="shower-cls-36" d="m564.61,890.68c-8.07-.25-16.03.1-24.07-1.09,16.47-30.52,31.72-61.54,43.77-94.1,5.18.81,11.24-.07,16.41-1.09-5.81,33.86-18.03,66.93-36.11,96.29Z"/>
        <g>
          <path class="shower-cls-13" d="m433.3,641.2c-3.74,4.56-19.79-.69-25.17-3.28-9.62-4.63-25.68-20.41-26.26-31.73.23-1.08,1.11-1.25,1.09-2.19,8.87-.09,23.39,7.5,33.92,10.39,4.18-55.97-10.56-26.6-18.6-25.71,3.36-14.6-.9-16.61-1.09-17.51-.23-1.06-1.35-1.24-2.19-4.38,36.58,2.5,30.95,34.13,38.3,74.41Z"/>
          <path class="shower-cls-18" d="m382.97,604c2.42-4.09,9.09-2.22,14.22-15.32.27.08.8.03,1.09,0,8.04-.89,22.79-30.26,18.6,25.71-10.53-2.89-25.05-10.48-33.92-10.39Z"/>
          <path class="shower-cls-20" d="m408.14,637.92c-3.11.12-8.31-1.85-10.94-3.28-2.95-1.6-5.78-3.77-8.75-5.47-5.46-5.71-8.15-15.48-6.57-22.98.58,11.32,16.65,27.1,26.26,31.73Z"/>
          <path class="shower-cls-20" d="m433.3,641.2c1.01,5.55-.04,4.16,0,4.38-.71-.06-1.52.13-2.19,0-3.65-.71-7.32-1.33-10.94-2.19-3.81-.91-7.31-1.82-10.94-3.28l-1.09-2.19c5.37,2.59,21.42,7.84,25.17,3.28Z"/>
        </g>
        <path class="shower-cls-41" d="m574.45,459.56c.85,17.59,5.19,48.73,7.66,67.84-2.63-.28-5.2.25-7.66,1.09-1.57.54-7.65,3.54-8.75,4.38-.65-21.52-2.42-43.61-2.19-65.1.01-1.29,6.18-7.07-1.09-7.11,4.55-3.03,13.75-14.12,14.77-14.22l1.64.55-6.57,10.94c-.45,2.36,2.18,1.5,2.19,1.64Z"/>
        <g>
          <path class="shower-cls-46" d="m714.51,559.14c5.46,93.32-17.32,98.14-18.6,103.4-1.62,6.65,9.09,10.49-13.13,19.7.37,26.23-36.63,59.83-56.35,78.24-11.93-13.22-36.64-18.83-53.07-13.13-.32-1.24-2.13-2.25-.55-3.28,3.88-2.53,16.48-3.68,35.56-26.26,6-7.1,4.64-3.83,8.75-13.13,2.06-4.65,4.59-17.61,7.66-20.79,3.9-4.03,22.85-4.86,24.07-7.11.63-1.16-.69-11.96-1.64-12.58-1.48-.97-16.22,5.71-21.34,6.57-5.32.89-13.18,1.32-18.6,1.09-5.65-.24-14.16-1.79-19.7-3.28-31.14-8.42,6.84-5.19,10.39-10.94,2.36-3.81-2.21-12.87,1.09-14.22,7.1.57,12.76-1.76,19.15-4.38,6.78-2.78,14.38-5.56,14.77-14.22-14.95,2.71-22.71-7.3-35.56,5.47-3.08-2.03-1.98-11.81-3.28-22.98-3.11-26.71-8.6-53.21-12.04-79.88-2.47-19.11-6.81-50.25-7.66-67.84,2.1,1.72,3.87.74,5.47,1.09,5.17,1.16,10.27,1.1,15.32,2.74-12.99,12.31-11.15,18.72.55,12.58,4.95-2.6,17.02-21.14,28.45-27.35,5.88.11-8.86,9.38-4.38,13.13,34.76-16.5,28.16,3.41,33.92,3.28,2.49-.06,10.06-14.07,10.94-14.22,1.98-.34,3.74,5.61,5.47,6.57,4.02,2.22,10.53,1.81,10.94,2.19,1.56,1.44,1.15,14.49,3.28-1.09,2.25,13.07,11.48,16.36,14.77,21.34,13.35,20.17,13.19,55.44,15.32,79.33Z"/>
          <path class="shower-cls-18" d="m623.15,503.33c4.02-1.25,78.52-6.53,70.58,22.43-2.21,8.04-12.51-1.41-21.34-2.74-32.3-4.84-57.32,7.15-54.16-12.58.24-1.52,3.41-6.64,4.92-7.11Z"/>
          <path class="shower-cls-18" d="m622.05,546.01c1.1-.43,14.64,8.98,17.51,9.85,21.86,6.66,41.58-2.64,43.77-2.19,6.75,1.4,5.48,12.77-13.13,16.41-34.42,6.75-58.65-19.96-48.14-24.07Z"/>
          <path class="shower-cls-34" d="m607.28,671.84c-7.05,3.02-14.89.2-21.88,0l2.19-3.28c5.53,1.5,14.05,3.04,19.7,3.28Z"/>
          <path class="shower-cls-36" d="m630.81,609.47c7.96,19.72-1.91,8.68-1.64,2.74,0-.16,1.43-1.69,1.64-2.74Z"/>
        </g>
        <path class="shower-cls-18" d="m490.2,520.84c-6.34.77-20.61,4.32-26.26,7.66,0-.11-2.17.35-2.19-.55-.12-6.76-1.1-16.03,1.09-22.43,14.43-1.68,84.9-11.91,88.63,3.83,5.58,23.53-20.85,6.56-61.28,11.49Z"/>
        <path class="shower-cls-18" d="m479.26,556.95c-.05-1.91-5.4-9.83,0-9.85,39.43,25.6,69.86-17.58,65.65,3.83-2.4,12.23-46.62,26.09-65.65,6.02Z"/>
        <g>
          <path class="shower-cls-8" d="m576.64,591.96c1.45.28,14.27,8.06,14.77,8.75,1.65,2.29-1.26,7.17,2.74,6.57,1.3,11.17.2,20.95,3.28,22.98-3.57,3.55.58,6.67-6.57,7.66-11.44-37.29-31.42-.06-35.01-19.7-3.05-16.63,11.54-28.04,20.79-26.26Z"/>
          <path class="shower-cls-8" d="m582.11,527.4c3.44,26.66,8.93,53.17,12.04,79.88-3.99.6-1.08-4.28-2.74-6.57-.5-.7-13.32-8.48-14.77-8.75l-2.19-63.46c2.46-.85,5.03-1.38,7.66-1.09Z"/>
          <path class="shower-cls-17" d="m618.22,639.01c-11.76.74-23.23,1.91-35.01,0,.09-2.13,4.08-.6,7.66-1.09,7.15-.99,2.99-4.11,6.57-7.66,12.85-12.77,20.61-2.76,35.56-5.47-.39,8.67-7.99,11.44-14.77,14.22Z"/>
          <path class="shower-cls-48" d="m576.64,591.96c-9.25-1.78-23.84,9.63-20.79,26.26-3.87-2.56-9.05-9.11-8.75,0-1.21-1.3-5.28-1.76-6.57-3.83-1.86-4.72,9.65-69.74,25.17-81.52,1.1-.84,7.18-3.84,8.75-4.38l2.19,63.46Z"/>
          <path class="shower-cls-19" d="m555.85,618.22c3.6,19.63,23.57-17.59,35.01,19.7-3.58.49-7.57-1.03-7.66,1.09-16.78-2.72-25.02-8.82-36.11-20.79-.3-9.11,4.89-2.56,8.75,0Z"/>
        </g>
        <g>
          <path class="shower-cls-12" d="m585.4,671.84c7,.2,14.83,3.02,21.88,0,5.42.23,13.28-.2,18.6-1.09l-2.19,12.04c-2.21.33-4.22.83-6.57,1.09-25.56,2.9-27.67,2.24-52.52-1.09-.39-.05-.32-1-7.66-2.19-2.29-.37-5.08-1.68-7.66-2.19-2.28-3.61-9.12-4.78-4.38-7.66,13.34,2.33,27.09.71,40.49,1.09Z"/>
          <path class="shower-cls-19" d="m556.95,700.29c9.02,5.91,31.13,9.32,39.39,5.47.58.1,1.29,1.08,7.66,1.09,2.2,0,9.67-1.68,13.13-2.19-4.12,9.3-2.75,6.03-8.75,13.13-12.59,1.56-40.39-5.13-49.79-13.13-6.66-5.67-1.66-3.99-1.64-4.38Z"/>
          <path class="shower-cls-18" d="m624.79,683.87c-1.37.12-1.02-1.11-1.09-1.09l2.19-12.04c5.12-.86,19.86-7.53,21.34-6.57.95.62,2.27,11.43,1.64,12.58-1.22,2.25-20.18,3.08-24.07,7.11Z"/>
          <path class="shower-cls-34" d="m624.79,683.87c-3.07,3.18-5.6,16.14-7.66,20.79-3.46.51-10.93,2.19-13.13,2.19,4.89-7.39,12.93-13.05,13.13-22.98,2.35-.27,4.35-.77,6.57-1.09.08-.01-.27,1.21,1.09,1.09Z"/>
          <path class="shower-cls-18" d="m544.91,670.74c-4.74,2.88,2.09,4.05,4.38,7.66-6.93-1.35-18.63-.71-24.62-2.19-3.35-.83-2.53-3.21-2.74-3.28,2.92-17.38,4.42-5.43,22.98-2.19Z"/>
          <path class="shower-cls-12" d="m564.61,682.78c8.49,11.61,16.94,20.54,31.73,22.98-8.26,3.85-30.37.43-39.39-5.47.5-8.35-1.26-12.8,0-19.7,7.34,1.19,7.26,2.14,7.66,2.19Z"/>
          <path class="shower-cls-29" d="m617.13,683.87c-.2,9.93-8.24,15.58-13.13,22.98-6.37-.02-7.08-1-7.66-1.09-14.79-2.44-23.24-11.37-31.73-22.98,24.85,3.34,26.96,4,52.52,1.09Z"/>
        </g>
      </g>
    </g>
  </g>
</svg>