<?xml version="1.0" encoding="UTF-8"?>
<svg id="Layer_1" data-name="Layer 1" xmlns="http://www.w3.org/2000/svg" xmlns:xlink="http://www.w3.org/1999/xlink" viewBox="0 0 1266.71 1266.71">
  <defs>
    <style>
      .sibling-cls-1 {
        fill: url(#linear-gradient);
      }

      .sibling-cls-1, .sibling-cls-2, .sibling-cls-3, .sibling-cls-4, .sibling-cls-5, .sibling-cls-6, .sibling-cls-7, .sibling-cls-8, .sibling-cls-9, .sibling-cls-10, .sibling-cls-11, .sibling-cls-12, .sibling-cls-13, .sibling-cls-14, .sibling-cls-15, .sibling-cls-16, .sibling-cls-17, .sibling-cls-18, .sibling-cls-19, .sibling-cls-20, .sibling-cls-21, .sibling-cls-22, .sibling-cls-23, .sibling-cls-24, .sibling-cls-25 {
        stroke-width: 0px;
      }

      .sibling-cls-2 {
        fill: #f7f1e9;
      }

      .sibling-cls-3 {
        fill: #f7c644;
      }

      .sibling-cls-4 {
        fill: #271815;
      }

      .sibling-cls-5 {
        fill: #5b5455;
      }

      .sibling-cls-6 {
        fill: #89b173;
      }

      .sibling-cls-7 {
        fill: #575753;
      }

      .sibling-cls-8 {
        fill: #1a1a1f;
      }

      .sibling-cls-9 {
        fill: #35785d;
      }

      .sibling-cls-10 {
        fill: #428b6e;
      }

      .sibling-cls-11 {
        fill: #141311;
      }

      .sibling-cls-12 {
        fill: #13483c;
      }

      .sibling-cls-13 {
        fill: #c94b5c;
      }

      .sibling-cls-14 {
        fill: #cc615b;
      }

      .sibling-cls-15 {
        fill: #c5c991;
      }

      .sibling-cls-16 {
        fill: #e3745e;
      }

      .sibling-cls-17 {
        fill: #dd6680;
      }

      .sibling-cls-18 {
        fill: #bbd6c6;
      }

      .sibling-cls-19 {
        fill: #ad3d43;
      }

      .sibling-cls-20 {
        fill: #9b2239;
      }

      .sibling-cls-21 {
        fill: #e58d73;
      }

      .sibling-cls-22 {
        fill: #f0d3d3;
      }

      .sibling-cls-23 {
        fill: #e79d7d;
      }

      .sibling-cls-24 {
        fill: #fbfdfe;
      }

      .sibling-cls-25 {
        fill: #f1b2a4;
      }
    </style>
    <linearGradient id="linear-gradient" x1="717.93" y1="227.73" x2="515.23" y2="543.01" gradientUnits="userSpaceOnUse">
      <stop offset="0" stop-color="#3f323b"/>
      <stop offset="1" stop-color="#121013"/>
    </linearGradient>
  </defs>
  <g>
    <path class="sibling-cls-1" d="m843.65,358.74c.28,11.51-4.86,21.91-7.42,32.78-22.86-1.91-24.16-2.38-38.35,16.08-.04,4.33,17.16,10.99,18.56,35.26,2.14,37.23-25.04,28.9-28.45,34.02-.76,6.28-4.17,30.15-4.95,31.54-.96,1.73-14.39,8.06-16.08,6.19.25-3.6-3.76-40.61-4.95-46.39-7.08-34.49-25.71-55.66-60-64.94-.31-35.56-3.81-.27-47.01-4.95-26.42-2.86-18.55-20.52-23.5-21.03-5.01,7.42-24.84,12.25-25.98,13.61-3.76,4.49,6.59,15.95-30.93,24.74-14.41,3.38-21.35-3.09-20.41,6.19-2.04,1.77-15.11,20.99-23.5,28.45-3.21.89-9.78,4.46-16.08,5.57q-5.26,42.99-10.51,85.97c-12.28-20.97-42.47-41.02-61.23-17.32-1.37.38-1.96,1.75-3.71,1.24-.17-8.25,2.22-17.1,1.24-19.17-13.41-6.61-30.65-4.07-38.35-19.17-13.16-25.82,10.82-44.66,11.13-48.86-8.19-12.66,1.01-25.96,4.95-38.35-7.98-3.32-10.94-1.97-18.56-8.04-10.68-26.77-3.12-77.82,34.02-75.46,14.49-18.51,1.22-29.8,11.75-47.63,4.78-8.08,23.5-19.15,32.78-20.41,20.67-2.8,23.76,9.16,47.01,1.24,3.83-45.85,76.67-55.39,95.25-16.08,5.47,2.24,77.74-54.34,101.44,6.19,11.6,2.67,20.54,9.81,28.45,18.56,44.32-23.79,75.56,26.22,67.42,67.42,15.17,7.28,25.53,14.34,25.98,32.78Z"/>
    <path class="sibling-cls-11" d="m694.59,377.29c22.96-1.73-9.78,17.06-23.5,18.56-8.6.93-36.53.2-33.4-12.37,27.58,5.94,54.01-5.97,56.9-6.19Z"/>
    <path class="sibling-cls-11" d="m549.85,415.64c8.96-1.96-14.22,35.95-35.87,37.11-.58-.6.34-15.91.62-16.7.69-1.92,32.76-19.87,35.26-20.41Z"/>
    <path class="sibling-cls-8" d="m599.34,394.61c18.84,4.29-40.5,27.15-45.15,17.94,5.91-1.65,42.78-18.48,45.15-17.94Z"/>
  </g>
  <g>
    <path class="sibling-cls-16" d="m750.87,781.8c18.27,26.21,16.45,69.94,12.37,100.82-2.86,3.8-4.72,2.91-4.95,3.09-5.78-31.82-16.96-61.49-28.45-91.54,4.48-2.71,20.12-11.54,21.03-12.37Z"/>
    <path class="sibling-cls-19" d="m627.17,653.15c12.32,1.74,24.86,1.5,37.11,3.71-4.49,3.98-3.55,7-3.71,7.42-2.29,5.98-2.29,8.2-2.47,8.66-.88,2.22-3.66,9.35-5.57,9.9l-31.54-6.19-9.9-9.9q5.57-7.42,11.13-14.84c1.86.31,3.09.97,4.95,1.24Z"/>
    <g>
      <path class="sibling-cls-21" d="m707.57,977.24c-4.38,25.39-3.03,65.2-27.21,77.93q1.24-37.11,2.47-74.22l1.24-1.24c5.66-1.4,22.36-2.19,23.5-2.47Z"/>
      <path class="sibling-cls-19" d="m682.83,980.96q-1.24,37.11-2.47,74.22c-10.45-.77-10.51-62.38-12.37-71.75,2.13-12.18,5.61-.85,14.84-2.47Z"/>
    </g>
    <g>
      <path class="sibling-cls-22" d="m726.13,1045.28c.96,1.23,1.87,3.89,2.47,1.24,2.4,1.32,5.19,2.44,7.42,3.71.71.4-2.01,1.7-.62,2.47,16.95,9.46,36.2,15.29,46.39,29.69-.73,2.06-1.02,5.38-1.24,5.57-5.24,4.36-95.05,8.11-109.48,6.8l-1.86-2.47c16.47-1.44,93.37-3.02,102.05-7.42,17.89-9.08-56.53-34.38-60.61-40.82-5.81-9.15,12.59-.13,15.46,1.24Z"/>
      <path class="sibling-cls-17" d="m726.13,1045.28c-2.87-1.37-21.27-10.39-15.46-1.24,4.08,6.44,78.5,31.74,60.61,40.82-8.68,4.41-85.59,5.99-102.05,7.42-.63-11.59-3.56-14.09-3.71-14.84-.94-4.65-1.52-11.18-1.24-16.08,18.78,16.54,12.41,9.22,45.77-12.99-9.63-3.19-.48-19.07.62-19.17,1.11-.11,13.81,13.97,15.46,16.08Z"/>
      <path class="sibling-cls-17" d="m728.6,1046.52c-.61,2.65-1.51,0-2.47-1.24.96.46,1.5.7,2.47,1.24Z"/>
    </g>
    <g>
      <g>
        <path class="sibling-cls-13" d="m692.73,830.04q1.24,4.33,2.47,8.66c.55,4.45-1.22,9.67,2.47,13.61,0,1.63-.12,3.33,0,4.95.31,4.29-.48,9.75,2.47,13.61.1,1.64-.15,3.32,0,4.95.28,3.03.89,5.79,1.24,8.66.72,5.94,1.57,11.92,1.24,17.94,8.66,2.18,10.58-.57,11.13-.62,2.18-.2,8.49-.92,9.9-1.24l7.42,67.42c-.95,2.62-19.99,8.4-23.5,9.28-1.15.28-17.84,1.08-23.5,2.47-3.93-51.02-14.95-101.14-24.12-150.92,11.36-1.33,21.83,3.23,20.41-1.24,5.88-.02,11.28.7,11.13-1.24.03.19.36-1.15,1.24,3.71Z"/>
        <path class="sibling-cls-20" d="m680.36,827.57c1.42,4.47-9.05-.09-20.41,1.24,9.18,49.78,20.19,99.9,24.12,150.92l-1.24,1.24c-9.23,1.63-12.72-9.7-14.84,2.47-1.99-9.99-16.29-16.65-25.98-18.56q-1.24-37.11-2.47-74.22c3.78-21.16,4-42.92,3.71-64.32,12.35.78,24.73,1.27,37.11,1.24Z"/>
      </g>
      <g>
        <path class="sibling-cls-13" d="m642.01,964.87c-1.49-.29-2.98-1.09-3.71-.62-4.97,11.4,11.15,11.84-21.03,14.23-8.77.65-17.8-.48-26.6,0-2.95,1.94-1.53,4.79-1.86,7.42.05-2.29-3.72-7.01-3.71-7.42,0-.13,2.41.4,2.47-.62,4.86-79.6-10.05-57.38,50.72-87.21h1.24q1.24,37.11,2.47,74.22Z"/>
        <path class="sibling-cls-20" d="m602.43,891.89c12.08.2,24.73,3.13,35.87-1.24-60.76,29.83-45.86,7.61-50.72,87.21-.06,1.02-2.47.49-2.47.62-3.97,0-9.89-.24-13.61-1.24-2.55-.68-34.06-13.66-34.64-15.46l17.32-72.37c16.72,2.6,31.87,2.2,48.24,2.47Z"/>
      </g>
    </g>
    <path class="sibling-cls-16" d="m554.18,791.69c-11.46,29.68-16.69,61.64-22.27,92.78-7.57-2.11-9.9-1.43-17.32-6.19-2.97-31.76-6.25-65.06,9.9-94.01,9.78,2.92,20,4.18,29.69,7.42Z"/>
    <path class="sibling-cls-19" d="m524.5,784.27c-16.14,28.95-12.86,62.25-9.9,94.01-22.61-14.47-21.26-76.01-6.19-97.72.93.49,12.17,2.54,16.08,3.71Z"/>
    <g>
      <path class="sibling-cls-21" d="m617.27,978.48c-1.35,8.51-2.02,59.92-6.8,61.85-6.77-.05-14.01-.31-20.41,2.47-.81.35-1.75.78-2.47,1.24,2.1-16.81-.59-43.51,1.24-58.14.33-2.64-1.09-5.48,1.86-7.42,8.8-.48,17.82.65,26.6,0Z"/>
      <path class="sibling-cls-19" d="m585.11,978.48c0,.41,3.76,5.13,3.71,7.42-1.83,14.63.87,41.33-1.24,58.14-.58.37-5.93,6.73-6.8,8.66-3.83-.03-9.61-67.99-9.28-75.46,3.72,1,9.64,1.24,13.61,1.24Z"/>
    </g>
    <g>
      <path class="sibling-cls-2" d="m617.27,1079.92c.76,6.63-.55,14.78,0,21.65-2.98,8.09-40.93,1.75-48.86,1.86-3.52-2.39-1.57-20.56-.62-24.74.17-.73,5.69-12.84,6.19-13.61,2.86-4.39,6.67-6.18,11.13-8.66-4.02,1.48,0,12.11.62,12.37,1.25.52,8.15-13.58,10.51-14.84,6.47-3.47,19.63,13.75,21.03,25.98Z"/>
      <path class="sibling-cls-25" d="m595.01,1051.47c.07.12,1.69-.41,1.24,2.47-2.36,1.27-9.26,15.37-10.51,14.84-.63-.26-4.64-10.89-.62-12.37,3.13-1.74,6.55-3.63,9.9-4.95Z"/>
    </g>
    <g>
      <path class="sibling-cls-3" d="m750.87,781.8c-.91.83-16.55,9.66-21.03,12.37-6.71-17.54-18.83-37.15-24.74-56.28-6.74-21.82-10.05-44.74-12.37-67.42,12.54,1.91,16.62-8.47,44.53,21.65,25.71,27.75,48.64,57.74,13.61,89.68Z"/>
      <g>
        <path class="sibling-cls-12" d="m592.53,663.04c18.1,69.8,10.34,143.31,7.42,214.62-.34,8.38-.82,15.76,2.47,14.23-16.37-.28-31.52.13-48.24-2.47-1.13-.18-21-4.59-22.27-4.95,5.57-31.13,10.81-63.09,22.27-92.78,1.93-4.99,7.44-14.24,9.9-19.79,27.98-1.04,30.75-90.94,11.13-106.38,6.09-.95,10.95-2.55,17.32-2.47Z"/>
        <path class="sibling-cls-9" d="m611.09,666.75l9.9,9.9c3.51,11.14,10.08,25.97,12.37,37.11,4.54,22.09,9.57,88.27,9.9,112.57.28,21.4.07,43.16-3.71,64.32h-1.24c-11.14,4.37-23.79,1.44-35.87,1.24-3.29,1.54-2.82-5.84-2.47-14.23,2.91-71.31,10.68-144.83-7.42-214.62,6.82.08,13.7-1.72,18.56,3.71Z"/>
      </g>
      <g>
        <path class="sibling-cls-15" d="m575.21,665.52c19.61,15.45,16.85,105.34-11.13,106.38-9.18.34-58.87-26.43-72.98-29.69,1.37-22.19,40.81-69.93,84.12-76.7Z"/>
        <path class="sibling-cls-6" d="m564.08,771.9c-2.46,5.56-7.97,14.8-9.9,19.79-9.69-3.24-19.9-4.5-29.69-7.42-3.91-1.17-15.15-3.22-16.08-3.71-10.71-5.67-18.02-26.97-17.32-38.35,14.11,3.26,63.81,30.03,72.98,29.69Z"/>
      </g>
      <g>
        <path class="sibling-cls-10" d="m692.73,670.46c2.32,22.67,5.63,45.6,12.37,67.42,5.91,19.13,18.03,38.74,24.74,56.28,11.49,30.05,22.68,59.72,28.45,91.54-4.91,3.9-28.21,13.41-34.64,14.84-1.41.31-7.72,1.04-9.9,1.24-2.12.87-3.45-3.2-3.71-4.33-2.02-8.64-4.94-40.21-7.42-56.28-6.72-43.47-15.25-86.7-19.79-130.51-3.24-14.35-17.13-34.68-11.13-43.91,7.04,1.44,13.93,2.63,21.03,3.71Z"/>
        <path class="sibling-cls-9" d="m671.7,666.75c-5.99,9.24,7.9,29.56,11.13,43.91,4.55,43.8,13.07,87.03,19.79,130.51-8.5-2.58-4.92,5.83-4.95,11.13-3.69-3.94-1.92-9.16-2.47-13.61-1.41-11.31-2.39-8.17-2.47-8.66-.88-4.87-1.2-3.52-1.24-3.71-6.66-36.92-10.15-74.71-18.56-111.33-2.63-11.47-10.12-41.48-14.84-42.06.18-.46.18-2.68,2.47-8.66,3.67,1.1,7.4,1.71,11.13,2.47Z"/>
        <path class="sibling-cls-9" d="m702.63,841.17c2.49,16.07,5.4,47.64,7.42,56.28.26,1.12,1.59,5.2,3.71,4.33-.56.05-2.48,2.8-11.13.62.33-6.02-.52-12-1.24-17.94l-1.24-8.66c-.15-1.63.1-3.31,0-4.95-.24-4.07-.12-10.08-2.47-13.61-.12-1.62,0-3.31,0-4.95.03-5.3-3.55-13.71,4.95-11.13Z"/>
        <path class="sibling-cls-5" d="m700.15,870.86c-2.95-3.86-2.16-9.32-2.47-13.61,2.36,3.53,2.23,9.53,2.47,13.61Z"/>
        <path class="sibling-cls-5" d="m695.2,838.7q-1.24-4.33-2.47-8.66c.09.49,1.06-2.65,2.47,8.66Z"/>
        <path class="sibling-cls-7" d="m701.39,884.47c-.35-2.87-.96-5.62-1.24-8.66l1.24,8.66Z"/>
      </g>
    </g>
    <g>
      <path class="sibling-cls-18" d="m672.94,715c8.4,36.62,11.9,74.42,18.56,111.33.15,1.94-5.25,1.22-11.13,1.24-12.38.03-24.76-.46-37.11-1.24-.32-24.3-5.35-90.48-9.9-112.57q19.79.62,39.58,1.24Z"/>
      <path class="sibling-cls-2" d="m672.94,715q-19.79-.62-39.58-1.24c-2.29-11.14-8.86-25.97-12.37-37.11l31.54,6.19c1.9-.55,4.69-7.68,5.57-9.9,4.72.58,12.21,30.59,14.84,42.06Z"/>
    </g>
    <g>
      <path class="sibling-cls-21" d="m765.71,517.07c.1.64,3.05,7.87,3.71,12.37,2.31,15.7,1.95,31.31,3.71,47.01-15.64,47.72-62.79,70.46-108.86,80.41-12.25-2.21-24.79-1.97-37.11-3.71,3.76-12.11-36.92-10.18-43.3-32.78-3.15-11.15.9-17.06,0-23.5-.1-.7-3.48-6.67-3.71-8.66-1.48-12.87-.18-26.44-4.95-38.97,9.55-.96,11.18-.7,17.32-6.19,4.08,2.94,7.44-.14,11.13-1.24.61-.18,1.67.09,2.47,0,.06,5.17-2.46.7-2.47,4.33,4.34,6.44,1.76,21.75,9.9,35.26,6.09,10.11,30.55,24.99,42.06,24.74,21.08,6.53,40.77-3.96,51.95-22.27,9.04-14.8,4.5-14.2,4.95-30.31,6.35.62-3.83-4.5,3.71-8.04,29.47,9.73,40.16-20.15,17.32-42.06,2.58.34,4.14,2.37,6.19-.62-1.91-2.11-3.88-3.88-6.19-5.57,4.37-22.65,13.33-18.06,14.84-19.79.18-.2-.14-.81,0-1.24,2.49-7.55-3.57-11.85-2.47-16.7.12-.51,6.28-7.97,6.8-8.04,5.67-.82,11.37,56.18,10.51,62.47.27.77,2.44,2.9,2.47,3.09Z"/>
      <g>
        <path class="sibling-cls-14" d="m799.11,528.21c2.35,19.78-9.45,37.63-25.98,48.24-1.76-15.7-1.4-31.31-3.71-47.01,18.12-5.45,25.38,10.01,29.69-1.24Z"/>
        <path class="sibling-cls-14" d="m799.11,528.21c-4.31,11.24-11.56-4.22-29.69,1.24-.66-4.5-3.62-11.73-3.71-12.37-.46-2.93,1.23-2.34,1.24-2.47,1.69,1.87,15.12-4.46,16.08-6.19,9.69,4.32,14.74,8.53,16.08,19.79Z"/>
      </g>
      <path class="sibling-cls-16" d="m552.95,458.93c-6.08,5.56-7.97,10.27-9.9,16.08-2.01,6.06-7.51,18.4-1.24,19.79,8.93,1.98,22.98-4.04,24.74,8.66-.6,1.07-3.65,8.78-3.71,9.28-2.1,17.68,3.18-4.3,14.84-8.04-13.37,10.56-16.48,29.37-13.61,45.15,4.14,2.01,8.17-.32,11.13-.62,4.77,12.52,3.47,26.1,4.95,38.97.23,1.99,3.61,7.96,3.71,8.66.9,6.45-3.15,12.35,0,23.5,6.38,22.6,47.06,20.68,43.3,32.78-1.86-.26-3.08-.92-4.95-1.24-40.4-6.77-83.85-23.81-107.62-59.38-2.91-4.36-4.85-10.17-7.42-14.84-15.05-27.38-18.76-65.82-64.32-53.19,18.76-23.71,48.95-3.65,61.23,17.32q5.26-42.99,10.51-85.97c6.3-1.11,12.87-4.68,16.08-5.57,11.92-3.31,6.87-6.62,22.27,8.66Z"/>
      <path class="sibling-cls-21" d="m552.95,458.93c-15.4-15.28-10.35-11.96-22.27-8.66,8.4-7.46,21.46-26.68,23.5-28.45,1.45-1.26,1.61-2.57,3.09-3.71q13.61-1.86,27.21-3.71l1.86,29.07-1.86,3.09c-11.54.07-22.91,4.48-31.54,12.37Z"/>
      <path class="sibling-cls-2" d="m707.57,583.87c-11.18,18.31-30.88,28.8-51.95,22.27-10.24-3.17-18.18-12.42-25.98-17.32,26.09,3.38,53.21,5.58,77.93-4.95Z"/>
      <path class="sibling-cls-16" d="m733.55,497.28c2.31,1.69,4.28,3.46,6.19,5.57-2.04,2.98-3.61.96-6.19.62-2.7-.36-16.23-9.61-24.74,7.42-13.9,14.32-1.03-32.44,24.74-13.61Z"/>
      <path class="sibling-cls-19" d="m629.64,588.82c7.79,4.9,15.74,14.15,25.98,17.32-11.51.25-35.96-14.63-42.06-24.74,5.15,1.89,11.48,4.53,16.08,7.42Z"/>
      <path class="sibling-cls-21" d="m578.92,494.81c-.65.45-7.56.11-12.37,8.66-1.76-12.7-15.81-6.68-24.74-8.66,3.98-9.85,16.53-23,25.98-27.21,25.77-6.35,16.49,4.36,17.32,24.12-8.2.39-5.85,2.86-6.19,3.09Z"/>
      <path class="sibling-cls-11" d="m567.79,467.59c-9.45,4.22-21.99,17.36-25.98,27.21-6.27-1.39-.78-13.73,1.24-19.79,29.81-45.55,71.34-16.76,65.56-8.04-14.21-4.39-26.9-5.6-40.82.62Z"/>
      <path class="sibling-cls-14" d="m578.92,494.81c10.24-2.5,22.77,5.75,22.27,16.08-7.19-10.02-13.08-9.53-23.5-6.19-11.66,3.74-16.94,25.72-14.84,8.04.06-.5,3.11-8.21,3.71-9.28,4.81-8.55,11.72-8.21,12.37-8.66Z"/>
      <g>
        <path class="sibling-cls-14" d="m463.88,571.5c16.09,8.5,23.71,11.9,43.3,6.19,2.57,4.67,4.51,10.49,7.42,14.84-29.85,7.95-59.05-3.98-70.51-33.4,1.26-1.31.82-3.21,1.24-4.95,1.78,5.02,10.31,14.75,14.23,17.32,2.84,1.87,3.86-.25,4.33,0Z"/>
        <g>
          <path class="sibling-cls-13" d="m507.18,577.69c-19.59,5.71-27.2,2.31-43.3-6.19-11.22-12.09,2.84-25.07-5.57-28.45-8.38-3.38-11.53,5.06-12.99,11.13-.42,1.74.03,3.64-1.24,4.95-6.21-15.94-4.61-17.17-4.95-33.4,1.75.51,2.34-.86,3.71-1.24,45.57-12.63,49.27,25.81,64.32,53.19Z"/>
          <path class="sibling-cls-23" d="m463.88,571.5c-.47-.25-1.49,1.87-4.33,0-3.92-2.57-12.44-12.3-14.23-17.32,1.46-6.07,4.61-14.51,12.99-11.13,8.4,3.38-5.66,16.36,5.57,28.45Z"/>
        </g>
      </g>
      <g>
        <path class="sibling-cls-23" d="m766.95,514.6c0,.14-1.7-.46-1.24,2.47-.03-.2-2.2-2.32-2.47-3.09.85-6.29-4.84-63.29-10.51-62.47-.52.08-6.69,7.53-6.8,8.04-1.09,4.85,4.96,9.15,2.47,16.7-5.62-37.96-43.67-29.73-44.53-11.75-.49,10.28,4.52-4.08,25.36-.62,6.95,1.15,14.92,8.17,19.17,13.61-1.52,1.73-10.47-2.86-14.84,19.79-25.77-18.84-38.64,27.92-24.74,13.61-5.37,10.74-6.38,30.08,7.42,34.64-7.54,3.55,2.64,8.66-3.71,8.04-.45,16.11,4.09,15.51-4.95,30.31-24.72,10.53-51.85,8.33-77.93,4.95-4.6-2.89-10.93-5.53-16.08-7.42-8.14-13.5-5.56-28.81-9.9-35.26.01-3.63,2.54.84,2.47-4.33-.15-12.16,3.23-19.52-4.95-30.93.5-10.33-12.03-18.58-22.27-16.08.33-.23-2.01-2.7,6.19-3.09-.83-19.76,8.45-30.47-17.32-24.12,13.92-6.21,26.62-5.01,40.82-.62,5.77-8.71-35.76-37.5-65.56,8.04,1.93-5.81,3.82-10.52,9.9-16.08,8.63-7.89,20.01-12.3,31.54-12.37l1.86-3.09-1.86-29.07q-13.61,1.86-27.21,3.71c-1.48,1.14-1.64,2.45-3.09,3.71-.93-9.28,6-2.81,20.41-6.19,37.51-8.79,27.17-20.25,30.93-24.74,1.13-1.36,20.97-6.19,25.98-13.61,4.96.51-2.92,18.17,23.5,21.03,43.19,4.67,46.69-30.61,47.01,4.95,34.28,9.29,52.91,30.46,60,64.94,1.19,5.78,5.2,42.79,4.95,46.39Z"/>
        <path class="sibling-cls-11" d="m748.4,476.25c-.14.42.18,1.04,0,1.24-4.25-5.44-12.23-12.45-19.17-13.61-20.84-3.46-25.85,10.9-25.36.62.86-17.98,38.91-26.21,44.53,11.75Z"/>
        <path class="sibling-cls-16" d="m659.95,545.53c18.81,30.62,36.22-2.98,34.02,9.28-1.95,10.87-32.78,17.96-34.02-9.28Z"/>
      </g>
      <g>
        <path class="sibling-cls-4" d="m601.19,510.89c8.18,11.4,4.8,18.77,4.95,30.93-.8.09-1.87-.18-2.47,0-9.61-9.69-8.12-1.46-11.13,1.24-6.14,5.49-7.77,5.22-17.32,6.19-2.97.3-6.99,2.63-11.13.62-2.87-15.78.24-34.59,13.61-45.15,10.42-3.34,16.31-3.84,23.5,6.19Z"/>
        <path class="sibling-cls-2" d="m603.67,541.81c-3.69,1.1-7.05,4.18-11.13,1.24,3.01-2.69,1.52-10.93,11.13-1.24Z"/>
        <path class="sibling-cls-24" d="m588.2,512.13c7.92-2.54,12.71,9.23,6.19,11.13-5.69,1.66-13.28-8.86-6.19-11.13Z"/>
        <path class="sibling-cls-24" d="m583.25,530.68c8.41-3.5,11.21,7.66,6.19,9.9-7.85,3.49-11.97-7.49-6.19-9.9Z"/>
      </g>
      <g>
        <path class="sibling-cls-4" d="m733.55,503.47c22.84,21.91,12.16,51.79-17.32,42.06-13.8-4.56-12.79-23.89-7.42-34.64,8.51-17.03,22.04-7.78,24.74-7.42Z"/>
        <path class="sibling-cls-24" d="m726.75,512.13c6.48-3.12,13.01,9.01,6.19,11.13-7.45,2.32-11.05-8.79-6.19-11.13Z"/>
        <path class="sibling-cls-24" d="m720.56,530.68c5.74-.7,7.75,8.28,2.47,9.9-7.11,2.18-9.65-9.02-2.47-9.9Z"/>
        <path class="sibling-cls-24" d="m734.17,530.68c8.6-2.63,6.18,8.89,2.47,9.9-6.13,1.67-6.74-8.59-2.47-9.9Z"/>
      </g>
    </g>
  </g>
</svg>