<?xml version="1.0" encoding="utf-8"?>
<!-- Generator: Adobe Illustrator 27.8.1, SVG Export Plug-In . SVG Version: 6.00 Build 0)  -->
<svg version="1.1"
	 id="svg2" xmlns:cc="http://creativecommons.org/ns#" xmlns:dc="http://purl.org/dc/elements/1.1/" xmlns:inkscape="http://www.inkscape.org/namespaces/inkscape" xmlns:ns1="http://sozi.baierouge.fr" xmlns:sodipodi="http://sodipodi.sourceforge.net/DTD/sodipodi-0.dtd" xmlns:rdf="http://www.w3.org/1999/02/22-rdf-syntax-ns#" inkscape:export-filename="number-10.png" inkscape:export-xdpi="90" inkscape:export-ydpi="90" inkscape:version="0.48.4 r9939" sodipodi:docname="number-10.svg"
	 xmlns="http://www.w3.org/2000/svg" xmlns:xlink="http://www.w3.org/1999/xlink" x="0px" y="0px" viewBox="0 0 550 450"
	 style="enable-background:new 0 0 550 450;" xml:space="preserve">
<style type="text/css">
	.st0{stroke:#000000;stroke-width:12.65;stroke-linecap:round;stroke-linejoin:round;}
	.st1{fill:#FFFFFF;}
	.st2{fill:url(#path3779_00000028306337022845964340000003917562174398501505_);}
	.st3{fill:url(#path3793_00000047019465258823402160000008494885739349039761_);}
	.st4{fill:url(#path3783_00000175303388460347244280000014168362995124722307_);}
	.st5{fill:url(#path3827_00000180353730535120340300000010317718404418082238_);}
	.st6{opacity:0.44;fill:#FF0000;enable-background:new    ;}
	.st7{stroke:#000000;stroke-width:7.9571;stroke-linecap:square;stroke-linejoin:round;stroke-miterlimit:3.9262;}
	.st8{fill:url(#path5712_00000180339821355865246020000013093333185014544523_);}
	.st9{fill:url(#path5729_00000018919393258026945560000018136868473718180273_);}
	.st10{fill:url(#path5722_00000133517377912726149560000003718724463297033097_);}
	.st11{fill:url(#path5751_00000173141242202219787360000000672554033277980548_);}
</style>
<sodipodi:namedview  bordercolor="#666666" borderopacity="1.0" id="base" inkscape:current-layer="layer1" inkscape:cx="133.37385" inkscape:cy="259.5" inkscape:document-units="px" inkscape:pageopacity="0.0" inkscape:pageshadow="2" inkscape:window-height="963" inkscape:window-maximized="1" inkscape:window-width="1280" inkscape:window-x="-9" inkscape:window-y="-9" inkscape:zoom="1" pagecolor="#ffffff" showgrid="false">
	</sodipodi:namedview>
<g id="layer1" transform="translate(0 -602.36)" inkscape:groupmode="layer" inkscape:label="Layer 1">
	<g id="g5389">
		<g id="g3220" transform="translate(-96 11.807)">
			<path id="rect2992" inkscape:connector-curvature="0" class="st0" d="M219.2,612.8c-1.7,0-3.3,0.7-4.5,1.9L110.6,722.2
				c-2.4,2.5-2.4,6.4,0,8.9l44.8,46.9c2.4,2.5,6.4,2.6,8.9,0.1c0,0,0,0,0,0l48.7-48.5v236c0,3.5,2.8,6.4,6.3,6.4h71.7
				c3.5,0,6.3-2.9,6.3-6.4V619.2c0-3.5-2.8-6.4-6.3-6.4L219.2,612.8L219.2,612.8z"/>
			<path id="path3781" inkscape:connector-curvature="0" class="st1" d="M218.6,612.8c-1.7,0-3.4,0.7-4.6,1.9L107.7,720.9
				c-2.5,2.4-2.5,6.4,0,8.8l45.7,46.3c2.5,2.5,6.5,2.5,9.1,0.1c0,0,0,0,0,0l49.7-47.9v233.3c0,3.5,2.9,6.3,6.4,6.3h73.2
				c3.5,0,6.4-2.8,6.4-6.3V619.1c0-3.5-2.9-6.3-6.4-6.3L218.6,612.8L218.6,612.8z"/>
			
				<linearGradient id="path3779_00000016065499530914246170000017780351000041532571_" gradientUnits="userSpaceOnUse" x1="461.3187" y1="684.8472" x2="461.3187" y2="415.5872" gradientTransform="matrix(1.0504 0 0 -1.0504 -281.0196 1409.3995)">
				<stop  offset="0" style="stop-color:#FF0000"/>
				<stop  offset="1" style="stop-color:#800000"/>
			</linearGradient>
			
				<path id="path3779" inkscape:connector-curvature="0" style="fill:url(#path3779_00000016065499530914246170000017780351000041532571_);" d="
				M219.9,615.9c-1.7,0-3.3,0.7-4.5,1.9L110.8,724c-2.4,2.4-2.4,6.4,0,8.8l45,46.3c2.4,2.5,6.4,2.5,8.9,0.1c0,0,0,0,0,0l48.9-47.9
				v233.3c0,3.5,2.8,6.3,6.3,6.3h72c3.5,0,6.3-2.8,6.3-6.3V622.2c0-3.5-2.8-6.3-6.3-6.3L219.9,615.9L219.9,615.9z"/>
			
				<linearGradient id="path3793_00000178194874267567464170000007383190678717492117_" gradientUnits="userSpaceOnUse" x1="485.1991" y1="757.0778" x2="507.7191" y2="694.4177" gradientTransform="matrix(1.0504 0 0 -1.0504 -281.0196 1407.3995)">
				<stop  offset="0" style="stop-color:#FFFFFF"/>
				<stop  offset="1" style="stop-color:#FFFFFF;stop-opacity:0"/>
			</linearGradient>
			
				<path id="path3793" inkscape:connector-curvature="0" style="fill:url(#path3793_00000178194874267567464170000007383190678717492117_);" d="
				M219.9,613.9c-1.7,0-3.3,0.7-4.5,1.9l-38.4,39.1c9.6-4.4,20.1-7.9,31.2-10.2c32.3-6.7,64.4-2.5,90,9.8v-34.2
				c0-3.5-2.8-6.3-6.3-6.3L219.9,613.9L219.9,613.9z"/>
			
				<linearGradient id="path3783_00000116196952335445603790000005469132733761832600_" gradientUnits="userSpaceOnUse" x1="511.1189" y1="421.4572" x2="511.1189" y2="481.3172" gradientTransform="matrix(1.0504 0 0 -1.0504 -281.0195 1409.4019)">
				<stop  offset="0" style="stop-color:#FF0000"/>
				<stop  offset="1" style="stop-color:#FF0000;stop-opacity:0"/>
			</linearGradient>
			
				<path id="path3783" inkscape:connector-curvature="0" style="fill:url(#path3783_00000116196952335445603790000005469132733761832600_);" d="
				M298.2,893c-22,20.4-51.2,36.1-84.6,44.7v27c0,3.5,2.8,6.3,6.3,6.3h72c3.5,0,6.3-2.8,6.3-6.3V893z"/>
			
				<linearGradient id="path3827_00000181773685081298677090000000448888756611508376_" gradientUnits="userSpaceOnUse" x1="512.7245" y1="613.0012" x2="508.8045" y2="521.9412" gradientTransform="matrix(1.0504 0 0 -1.0504 -281.0196 1409.3995)">
				<stop  offset="0" style="stop-color:#FF0000"/>
				<stop  offset="1" style="stop-color:#FF0000;stop-opacity:0"/>
			</linearGradient>
			
				<path id="path3827" inkscape:connector-curvature="0" style="fill:url(#path3827_00000181773685081298677090000000448888756611508376_);" d="
				M298.1,705.9c-9.9,29-31.7,60.9-62.7,88.4c-7.2,6.4-14.5,12.2-21.9,17.5v19.7c4.7-2.2,9.3-4.5,13.9-7
				c29.5-15.9,53.8-36,70.6-56.8L298.1,705.9L298.1,705.9z M298.1,789c-15.6,21.4-38.3,42.4-66.3,59.7c-6.1,3.7-12.1,7.1-18.2,10.3
				v11.3c5.4-2.8,10.8-5.8,16.1-9.1c29.4-18.1,52.9-40.3,68.5-62.8V789L298.1,789z"/>
		</g>
		
			<path id="path3852" sodipodi:cx="424.46356" sodipodi:cy="697.9082" sodipodi:rx="39.655766" sodipodi:ry="14.687321" sodipodi:type="arc" class="st6" d="
			M201.1,1027.2c0,7.7-18.6,13.9-41.7,13.9s-41.7-6.2-41.7-13.9c0-7.7,18.6-13.9,41.7-13.9S201.1,1019.5,201.1,1027.2z"/>
		<path id="path4095" sodipodi:cx="228" sodipodi:cy="428" sodipodi:rx="47" sodipodi:ry="11" sodipodi:type="arc" class="st6" d="
			M430.1,1027.2c0,6.1-21,11-47,11s-47-4.9-47-11c0-6.1,21-11,47-11S430.1,1021.1,430.1,1027.2z"/>
		<g id="g5688" transform="matrix(.97814 .081794 -.081794 .97814 225.32 .68167)">
			<path id="path5705" inkscape:connector-curvature="0" class="st7" d="M220.8,616.2c-57.9,1.2-104.6,45.3-123.7,95.7
				c0,0.1,0,0.1-0.1,0.2c0,0,0,0,0,0.1c-33.3,82.8-12.2,186.3,58.5,244c0,0,0,0,0.1,0.1c40.2,32.3,100.3,40.8,145.6,11.5v0
				c0.1-0.1,0.2-0.2,0.3-0.2c54.4-33.4,79.2-98,78.9-157.9c0,0,0,0,0-0.1c0,0,0-0.1,0-0.1c0.3-69.6-32-143.3-96.4-178.3
				c-0.1,0-0.1-0.1-0.2-0.1c-19-9.9-40.7-15.6-62.7-14.8C220.9,616.2,220.8,616.2,220.8,616.2L220.8,616.2z M223.9,686.6
				c0.1,0,0.1,0,0.2,0c34.8-0.9,66.4,27.4,79.9,60.2c0,0.1,0.1,0.2,0.1,0.3c20.7,47.3,13.6,109.8-25.4,144.1c0,0,0,0,0,0
				c-25,22.2-68.7,19.8-92.2-4c-0.2-0.2-0.4-0.4-0.5-0.5c-45.4-41-53.3-119.6-17.4-169c0,0,0.1-0.1,0.1-0.1c0,0,0,0,0,0
				C182.2,699.7,202.7,686.8,223.9,686.6L223.9,686.6z"/>
			<path id="path5708" inkscape:connector-curvature="0" class="st1" d="M220.1,618.1c-42.9,0.5-82,27.3-104.8,62.3
				c-30.9,48.3-38.4,110-24.4,165.2c11.7,46,38.9,89.1,79.2,114.9c38.2,23.6,90.2,26.8,128.6,1.6c47.3-28.8,72.8-84,76.5-137.9
				c4.4-60.4-15.2-123.9-59.4-166.3C290.3,633.2,256.1,616.8,220.1,618.1L220.1,618.1z M224.8,683.8c31.5,0.3,58.5,22.5,73.4,48.7
				c24.1,43.2,24.1,101.1-5.5,141.9c-11.1,15.7-27.8,27.9-47.2,30.3c-24.1,3.7-49.5-5.1-65.4-23.4c-40.1-40.8-47.6-109.8-18.2-158.8
				C175,700.7,198.6,683.5,224.8,683.8L224.8,683.8z"/>
			
				<linearGradient id="path5712_00000031905835533958277820000001179161671607083675_" gradientUnits="userSpaceOnUse" x1="54.3971" y1="388.472" x2="59.3971" y2="78.4721" gradientTransform="matrix(0.9781 -8.179400e-02 -8.179400e-02 -0.9781 208.3447 1050.447)">
				<stop  offset="0" style="stop-color:#FF0000"/>
				<stop  offset="1" style="stop-color:#990000"/>
			</linearGradient>
			
				<path id="path5712" inkscape:connector-curvature="0" style="fill:url(#path5712_00000031905835533958277820000001179161671607083675_);" d="
				M222,618.1c-43.4,0.5-82.9,27.6-106,63c-31.2,48.8-38.9,111.2-24.7,167c11.8,46.5,39.4,90.1,80.1,116.1
				c38.6,23.9,91.2,27.1,130,1.6c47.8-29.1,73.6-84.9,77.4-139.5c4.5-61.1-15.4-125.3-60-168.1C293,633.4,258.4,616.8,222,618.1
				L222,618.1z M226.8,684.5c31.8,0.3,59.1,22.7,74.2,49.2c24.4,43.7,24.4,102.3-5.6,143.4c-11.3,15.9-28.1,28.2-47.8,30.6
				c-24.3,3.7-50-5.2-66.2-23.6c-40.5-41.2-48.1-111-18.4-160.5C176.4,701.6,200.3,684.2,226.8,684.5L226.8,684.5z"/>
			
				<linearGradient id="path5729_00000025420462970366081410000006192201187415318968_" gradientUnits="userSpaceOnUse" x1="38.5729" y1="429.3169" x2="38.5729" y2="327.8169" gradientTransform="matrix(0.9781 -8.179400e-02 -8.179400e-02 -0.9781 208.3447 1050.447)">
				<stop  offset="0" style="stop-color:#FFFFFF"/>
				<stop  offset="1" style="stop-color:#FFFFFF;stop-opacity:0"/>
			</linearGradient>
			
				<path id="path5729" inkscape:connector-curvature="0" style="fill:url(#path5729_00000025420462970366081410000006192201187415318968_);" d="
				M225.4,617c-1.1,0-2.3,0-3.4,0.1c-43.6,0.5-83.4,27.8-106.6,63.4c-10,15.6-17.5,32.5-22.8,50.2c23.6-28.8,57.8-52.4,99.1-65.5
				c48.7-15.5,97.8-13.3,137.6,2.8c-3.2-3.6-6.5-7.1-10-10.5C294.2,633.2,260.7,616.8,225.4,617L225.4,617z"/>
			
				<linearGradient id="path5722_00000018202385299876855060000000456610334292753305_" gradientUnits="userSpaceOnUse" x1="51.587" y1="75.4522" x2="50.587" y2="127.4522" gradientTransform="matrix(0.9781 -8.179400e-02 -8.179400e-02 -0.9781 208.3447 1050.447)">
				<stop  offset="0" style="stop-color:#FF1401"/>
				<stop  offset="1" style="stop-color:#FF7D76;stop-opacity:0"/>
			</linearGradient>
			
				<path id="path5722" inkscape:connector-curvature="0" style="fill:url(#path5722_00000018202385299876855060000000456610334292753305_);" d="
				M361.3,898.1c-21.8,20.1-49.3,36.3-81,46.4c-49,15.6-98.5,13.2-138.4-3.1c8.8,8.9,18.5,16.9,29.2,23.7
				c38.8,24,91.7,27.3,130.7,1.6C328.4,950.5,348.3,926,361.3,898.1L361.3,898.1z"/>
			
				<linearGradient id="path5751_00000157276781172025657050000004080776762700385681_" gradientUnits="userSpaceOnUse" x1="193.8121" y1="1114.2556" x2="88.8121" y2="857.2556" gradientTransform="matrix(0.9781 -8.179400e-02 -8.179400e-02 -0.9781 208.3447 1652.807)">
				<stop  offset="0" style="stop-color:#F01F10"/>
				<stop  offset="1" style="stop-color:#DC0000"/>
			</linearGradient>
			
				<path id="path5751" inkscape:connector-curvature="0" style="fill:url(#path5751_00000157276781172025657050000004080776762700385681_);" d="
				M249,680.5c-21.3,0.1-44.5,3.6-68.2,10.6c-35.4,10.5-66.2,27.4-89.4,47.2c-1.9,7.5-3.5,15.1-4.6,22.8c18.4-11.4,39.7-21.1,63-28
				c3.2-1,6.4-1.8,9.6-2.7c1.2-2.3,2.5-4.6,3.8-6.8c13.3-22,37.2-39.4,63.6-39.1c17.8,0.1,34.3,7.3,47.9,18.2
				c39.2,6.3,67.9,25.6,74.5,54.8c1.4,6.3,1.7,12.7,1.1,19.2c5.2-13.3,6.8-26.6,3.9-39.2C345.9,701.1,303.5,680.1,249,680.5
				L249,680.5z M285.8,713c5.9,6.3,11,13.4,15.2,20.7c3.7,6.6,6.8,13.6,9.4,20.8c6.3,7.2,10.7,15.6,12.8,24.9
				c3.2,14.3,0.8,29.5-6.2,44.5c-0.1,0.8-0.2,1.5-0.4,2.3c16.1-21.2,23.3-43.9,18.6-64.8C330,739,311.8,722.4,285.8,713L285.8,713z"
				/>
		</g>
	</g>
</g>
</svg>
