<?xml version="1.0" encoding="UTF-8"?>
<svg xmlns="http://www.w3.org/2000/svg" xmlns:xlink="http://www.w3.org/1999/xlink" width="200px" height="200px" viewBox="0 0 200 200" version="1.1">
<g id="surface1">
<path style=" stroke:none;fill-rule:evenodd;fill:rgb(92.941176%,40.784314%,14.901961%);fill-opacity:1;" d="M 82.566406 73.4375 C 61.875 74.160156 67.480469 78.746094 71.800781 79.226562 C 69.882812 81.503906 68.742188 88.339844 68.621094 98.535156 C 68.261719 118.925781 67.871094 140.992188 80.285156 158.113281 C 88.980469 168.519531 105.023438 166.332031 111.648438 154.15625 C 122.292969 139.824219 126.28125 122.613281 127.871094 105.34375 C 128.050781 98.175781 126.371094 84.742188 123.582031 80.066406 C 118.484375 75.476562 107.152344 75.117188 82.566406 73.4375 Z M 82.566406 73.4375 "/>
<path style=" stroke:none;fill-rule:evenodd;fill:rgb(99.607843%,99.607843%,99.607843%);fill-opacity:0.12549;" d="M 70.089844 79.554688 C 77.105469 73.140625 90.359375 74.070312 99.65625 77.308594 C 101.90625 80.695312 121.785156 71.039062 125.773438 80.125 C 126.910156 96.046875 112.699219 101.144531 100.226562 93.199219 C 89.429688 92.058594 81.457031 106.273438 70.089844 79.554688 Z M 70.089844 79.554688 "/>
<path style=" stroke:none;fill-rule:evenodd;fill:rgb(99.607843%,99.607843%,99.607843%);fill-opacity:0.12549;" d="M 71.769531 77.847656 C 78.785156 71.398438 90.332031 73.46875 99.625 76.707031 C 101.875 80.09375 121.753906 70.441406 125.742188 79.527344 C 122.894531 90.890625 111.53125 94.308594 99.054688 86.363281 C 88.261719 85.222656 83.132812 101.113281 71.769531 77.847656 Z M 71.769531 77.847656 "/>
<path style=" stroke:none;fill-rule:evenodd;fill:rgb(99.607843%,99.607843%,99.607843%);fill-opacity:0.12549;" d="M 126.910156 109.121094 C 125.953125 129 119.894531 144.320312 110.449219 160.242188 C 100.765625 164.769531 88.292969 164.203125 84.304688 161.382812 C 78.636719 142.644531 107.03125 156.824219 126.910156 109.121094 Z M 126.910156 109.121094 "/>
<path style=" stroke:none;fill-rule:evenodd;fill:rgb(99.607843%,99.607843%,99.607843%);fill-opacity:0.12549;" d="M 125.292969 117.664062 C 124.332031 137.546875 119.984375 142.671875 110.511719 158.5625 C 100.855469 163.121094 92.339844 167.078125 88.351562 164.261719 C 82.683594 145.492188 105.414062 165.402344 125.292969 117.664062 Z M 125.292969 117.664062 "/>
<path style=" stroke:none;fill-rule:evenodd;fill:rgb(0%,0%,0%);fill-opacity:1;" d="M 81.09375 70.769531 C 60.40625 71.488281 41.457031 76.707031 22.984375 86.601562 C 30.902344 89.898438 39.207031 84.503906 46.882812 84.832031 C 53.148438 83.695312 63.195312 80.066406 67.511719 80.515625 C 65.5625 82.824219 65.59375 89.0625 65.445312 99.253906 C 65.113281 119.675781 67.542969 142.851562 79.957031 159.972656 C 88.652344 170.378906 107.542969 169.359375 114.167969 157.15625 C 124.8125 142.824219 128.230469 125.042969 129.820312 107.800781 C 130 100.605469 132.308594 84.921875 131.230469 79.675781 C 143.734375 77.9375 165.832031 86.210938 177.40625 91.488281 C 174.945312 84.113281 168.441406 82.433594 162.144531 80.816406 C 137.554688 72.597656 106.820312 70.769531 81.09375 70.769531 Z M 81.664062 76.40625 C 87.960938 76.167969 95.878906 78.175781 97.855469 83.242188 C 99.984375 90.441406 96.925781 97.847656 97.855469 105.164062 C 97.375 119.496094 96.867188 133.855469 96.355469 148.160156 C 102.503906 142.671875 99.566406 133.378906 100.105469 126.332031 C 102.625 111.699219 99.296875 97.15625 102.742188 82.585938 C 104.273438 79.253906 107.8125 76.765625 111.558594 76.976562 C 122.382812 78.417969 127.839844 90.890625 125.980469 100.753906 C 125.351562 121.175781 120.464844 140.695312 107.242188 157.066406 C 98.457031 166.152344 82.953125 161.894531 78.667969 150.230469 C 69.460938 134.097656 71.800781 117.214844 71.171875 99.253906 C 71.050781 91.578125 71.261719 76.167969 76.117188 77.335938 C 77.585938 76.796875 79.566406 76.46875 81.664062 76.40625 Z M 11.113281 78.566406 C 9.34375 82.613281 10.003906 87.203125 10.363281 91.488281 C 11.410156 97.757812 15.070312 103.960938 21.035156 106.660156 C 24.816406 108.191406 37.257812 108.878906 37.707031 106.75 C 37.648438 105.164062 27.273438 103.214844 23.855469 102.644531 C 19.085938 101.445312 17.410156 98.296875 15.878906 93.828125 C 14.378906 89.660156 12.042969 79.226562 11.113281 78.566406 Z M 191.859375 80.605469 C 189.9375 80.546875 192.246094 94.96875 190.71875 98.59375 C 189.160156 102.042969 185.769531 104.324219 182.203125 105.253906 C 178.515625 106.332031 174.648438 106.332031 171.410156 108.339844 C 174.316406 111.9375 186.851562 109.511719 190.179688 107.140625 C 194.644531 103.332031 196.234375 97.007812 195.214844 91.398438 C 194.707031 87.652344 193.476562 84.023438 191.859375 80.605469 Z M 191.859375 80.605469 "/>
</g>
</svg>
